<?xml version="1.0" encoding="utf-8"?>
<!-- Generator: Adobe Illustrator 22.0.1, SVG Export Plug-In . SVG Version: 6.00 Build 0)  -->
<svg version="1.1" id="Layer_1" focusable="false" xmlns="http://www.w3.org/2000/svg" xmlns:xlink="http://www.w3.org/1999/xlink"
	 x="0px" y="0px" viewBox="0 0 384 512" style="enable-background:new 0 0 384 512;" xml:space="preserve">
<style type="text/css">
	.st0{fill:#5A288E;}
</style>
<path class="st0" d="M277,170.7c47.1,0,85.4-38.2,85.4-85.3S324.1,0,277,0H106.3C59.2,0,21,38.2,21,85.3s38.2,85.3,85.3,85.3
	C59.2,170.6,21,208.8,21,256c0,47.1,38.2,85.3,85.3,85.3c-47.1,0-85.4,38.2-85.4,85.3S59.1,512,106.2,512s85.4-38.2,85.4-85.3v-256
	L277,170.7z M277,170.7c-47.1,0-85.3,38.2-85.3,85.3s38.2,85.3,85.3,85.3s85.3-38.2,85.3-85.3l0,0
	C362.3,208.9,324.1,170.7,277,170.7z"/>
</svg>
