<?xml version="1.0" encoding="utf-8"?>
<!-- Generator: Adobe Illustrator 22.0.1, SVG Export Plug-In . SVG Version: 6.00 Build 0)  -->
<svg version="1.1" id="Layer_1" xmlns="http://www.w3.org/2000/svg" xmlns:xlink="http://www.w3.org/1999/xlink" x="0px" y="0px"
	 viewBox="0 0 1700.8 1700.8" style="enable-background:new 0 0 1700.8 1700.8;" xml:space="preserve">
<style type="text/css">
	.st0{display:none;fill:none;stroke:#2A4858;stroke-width:18.7545;stroke-miterlimit:10;}
	.st1{fill:#23AA8F;}
	.st2{fill:#2A4858;}
</style>
<g id="Layer_1_1_">
	<circle class="st0" cx="848.5" cy="851.5" r="1133.9"/>
	<g>
		<g transform="matrix(1, 0, 0, 1, -5.684341886080802e-14, 0)">
			<path class="st1" d="M853,68.2c-343.9,0-623.6,279.3-623.6,622.8s279.7,622.8,623.6,622.8s623.6-279.3,623.6-622.8
				S1196.9,68.2,853,68.2z M1096.8,279.4c2.2,2.6,3.1,6.1,2.7,9.2c-2.7,0.8-4.8,3.1-5.7,5.3c-1.8,0.4-1.8,0.4-3.4,0.8
				c-1.8,2.2-3.9,3.9-6.5,4.9c-4.4,1.8-9.6,1.8-14,3.5c-1.8,0.8-3.4,2.2-5.2,1.3c-0.9-0.4-1.8-1.3-2.7-1.3c-0.9-0.4-2.2,0-2.7,0.8
				c-0.4,0.8-0.4,2.2,0.4,3.1c-0.9,3.5-1.8,7.5-2.7,10.9c-0.4,2.2-0.9,4.4-2.2,6.5c-3.4,5.7-11.3,7.5-14,13.1c-1.3,0-3.1,0-4.4,0
				c-2.2-4.9-6.5-8.2-7.5-13.5c-0.4-3.1-0.4-6.5,0.4-9.6c2.2-1.3,3.4-3.5,3.4-6.1c0.4,0,1.3-0.4,1.8-0.4c0.4-2.6,0.9-5.7,3.1-7.5
				c1.8,0.8,3.4,0.8,5.2-0.4c-2.7-0.8-4.4-3.9-7-4.4c-0.9,0-1.8,0-2.7,0c-1.3,0-3.1-0.4-4.4-0.4s-2.7,0.4-2.7,1.8
				c-2.2,0-3.9-0.4-6.1-0.4c0-2.2,0.4-3.9,1.3-5.7c-1.3-0.4-3.1-0.4-4.4-0.4c-2.2-3.1-4.4-5.7-7-8.7c-0.9-1.3-1.8-2.2-2.7-3.5
				c-0.4-0.8-1.3-2.2-1.8-3.1c-2.2-3.5-6.1-4.4-10-6.1c-0.9-0.4-1.8,0.4-2.7,0.8c-3.1,2.2-7,0.8-10.6-0.4c-0.9-0.8-0.4-2.6,0.9-3.1
				c0.9-0.8,2.7-0.8,3.4-1.3c-0.4-1.3-2.2-1.8-1.8-3.1c0-1.8,0.4-3.9,0.4-5.7c0.4-0.4,1.3-0.4,1.8-0.8c0-0.4-0.4-0.8-0.4-1.3
				c-1.8,0-3.1,0-4.8,0c-0.9,0-1.8,0-2.7-0.4c-1.3-0.4-1.8-1.8-2.2-3.1c2.7-1.3,5.2-3.1,7-5.3c0.4-0.4,0.4-0.8,0.9-1.3
				c0.4-0.8,0.4-1.8,0.9-2.2c0.9,0,1.8,0,2.2,0.4c0.9-1.3,2.2-2.2,3.9-3.5c3.1-2.6,6.5-4.9,10.6-5.7c0.9-0.4,2.2-0.4,3.1-0.8
				s2.2-0.8,3.1-1.8c2.2-1.3,4.4-3.1,6.5-4.4c1.3-0.8,2.2-1.3,3.4-1.8c0.9-0.4,1.8-0.4,2.7-0.4c4.8-0.8,9.2-0.8,13.5-2.2
				c1.3-0.4,2.2-2.2,1.8-3.9c-3.4-0.8-6.5-3.9-10.6-4.4c-2.7-0.4-5.7-0.4-7-2.2c0.9,0,1.3-0.8,2.2-0.8c0.4,0,0.9,0,0.9,0
				c1.8,0.4,3.4,0.8,4.8,1.3c2.7,0.8,5.7,1.3,7.9,3.1c1.3,0.8,2.2,1.8,3.1,2.6c0.4,0.4,1.3,0.8,1.8,1.3c0.9,0,1.3,0,2.2,0
				c0.9,0,1.8-0.8,2.7-0.8c3.1,0.4,5.7-0.8,7.9-3.1c0.4-0.4,0.4-0.4,0.9-0.8c0.4,0,0.9,0,1.3,0c1.8,0,2.7,0.8,4.4,1.3
				c0.9-0.4,1.8-0.4,2.7,0c3.4,0.4,6.1-3.5,9.6-3.1c1.3,0,2.2,0.4,3.4,0.4c0.4-1.8,0.4-3.1,0.9-4.9c-4.4-0.4-9.2-0.8-13.5-1.8
				c0.4-2.2-1.8-3.9-3.9-4.9c-0.4,0-0.9,0-1.3-0.4c-0.9-0.8-0.4-2.2,0-3.5c3.1,1.8,7,3.1,10.6,3.1c0,1.3,0.4,3.5,1.8,3.9
				c0.4,0.4,1.3,0.4,1.8,0c3.1,0,5.7,0,8.7,0.8c0.4,0,0.9,0,1.3,0h0.4c21,10,41.1,21.4,60.8,34.1c-4.8-1.3-10-2.2-15.3-2.2
				c-0.9,0-1.8,0-2.7,0c-0.9,0.4-1.3,0.8-2.2,1.3c-4.8,3.1-8.3,7-12.7,10.4c-0.4,2.2-0.9,4.9-0.9,7.5c0,0.4,0,0.4,0,0.8
				s-0.9,0.4-0.9,0.8c-6.1,2.2-14,4.9-15.8,10.9c-0.4,2.6-1.3,4.9-1.3,7.5C1093.7,278.5,1095.1,278.9,1096.8,279.4z M963.6,175.5
				c-0.9,0.8-1.3,1.8-1.8,3.1c-1.3,0-2.7-0.4-3.9-0.4c0.4-0.8,0-2.2-0.4-3.1s-1.3-1.8-1.8-3.1c-2.7-0.8-5.2-1.3-7.5-1.3
				c-2.7,0-5.2,0.8-7,3.1c-2.7-0.4-5.2-0.4-7.5-0.8c-0.9,0-1.3,0-2.2-0.4c-0.4-0.4-0.9-0.8-0.9-1.8c-2.2-0.4-4.4-0.8-6.5-1.3
				c0-0.8,0-1.3,0-2.2c-1.3-0.4-2.2-0.4-3.4-0.8c-0.4-0.4-0.4-1.8,0.4-2.2c0.4-0.4,1.8-0.8,2.7-0.8c1.3-0.4,3.1-0.4,4.4-0.8
				c0-0.4,0-0.8,0-1.3c17.5,2.6,34.6,5.7,51.2,9.6c-1.3,0-2.7,0.4-3.9,0.4c-3.4,0.4-7,0.4-10.6,0.8
				C964.9,172.9,963.9,174.2,963.6,175.5z M697.4,204.3c-0.4,0.8-0.9,1.8-1.8,2.6C696.6,206.1,697,205.2,697.4,204.3z M995.5,174.7
				c5.7,1.3,10.9,3.1,16.6,4.9c-0.4,0-0.4,0-0.9,0c-1.3,0-2.2-0.4-3.1-0.8c-3.4-1.3-7-1.8-10.6-2.2
				C996.8,176.4,996.3,175.5,995.5,174.7z M1152.8,249.3c-0.9-0.8-1.8-2.2-2.2-3.5c6.5,4.4,13.1,9.2,19.6,13.5
				c-1.8,0.4-3.4-0.4-5.7-0.8c-2.2-0.4-4.8-0.8-7-1.3c0.4-1.8,0.4-3.5,0.9-5.3C1156.3,251.5,1154.1,250.6,1152.8,249.3z
				 M1155.3,286.8c1.3-1.3,2.7-2.6,4.4-2.2c0.4,0,0.9,0,0.9,0c0.4,0,0.9-0.8,0.9-1.3c0.4-1.3,0.9-2.6,1.3-3.5
				c-0.9,0-1.3-0.4-2.2-0.4c-0.4-1.3-1.3-2.6-2.2-3.9c0.9-0.4,2.2-0.4,3.1-0.8c0-1.8,0.4-3.9,0.9-5.7c0.9,0,2.2,0,3.1,0
				c0.4-1.8,0.9-3.1,0.9-4.9c0.9-0.8,2.2,0,3.4-0.4c0.9-0.4,1.3-1.3,1.3-1.8c0-0.4,0-0.4,0-0.8c7.5,5.3,14.4,10.9,21.4,16.6
				c-7,3.9-13.1,10-21,9.2c-2.7-0.4-5.2-0.4-7.9-0.8c-0.4,0-0.9,0-1.3,0s-0.4,0.4-0.9,0.4c-2.2,1.8-3.9,3.5-5.7,5.7
				c-0.4,0-1.3,0.4-1.8,0.4c-0.9,0-1.3,0-2.2-0.4c-0.4-0.4-0.9-0.8-0.9-1.8C1153.2,289.8,1154.6,288.1,1155.3,286.8z M1197.3,281.2
				c1.3,1.3,2.7,2.2,3.9,3.5c-0.9,0-2.2-0.4-3.1-0.4c0-0.8-0.4-1.8-1.3-2.2C1197.3,281.2,1197.3,281.2,1197.3,281.2z M316.7,690.9
				c0-222.1,136.4-413.4,329.5-494c0,0,0,0,0.4,0c2.2,0.8,4.8,0.8,7,1.8c2.2,0.9,4.4,3.1,4.4,5.7c5.2,0,11.3,1.3,14.4,5.7
				c2.2,2.6,2.7,6.1,3.1,9.6c3.4-0.4,6.1-3.1,7.9-6.1c2.7,0.8,5.2,2.2,7.9,3.5c1.3,0.8,2.7,3.1,1.3,4.4c-0.9-0.4-2.2-0.8-3.1-1.3
				c-0.9,0.8,0,2.6,0.4,3.5c0.9,0.8,1.8,1.8,2.2,3.1c0.4,1.3,0,2.2,0,3.5c-0.4,3.1-1.3,6.5-1.8,9.6c-0.9,3.9-1.3,7.5-1.8,11.3
				c-1.3-0.4-2.7-0.4-3.9-0.8c-1.3,2.2-3.1,3.9-5.2,5.7c0,2.6-0.4,5.3-0.9,7.5c1.3,0.8,2.7,1.8,3.9,3.1c0.4,0.4,0.4,0.4,0.9,0.8
				c0,0.4,0,0.8,0,1.3c-0.4,1.8-0.4,4.4-0.9,6.1c1.8,0,3.4,0,5.2,0c0,0.8,0,1.8-0.4,2.6c-1.8,1.3-3.9,1.8-6.1,1.8
				c-0.4,0-0.9,0-1.3,0c-0.4,0-0.4,0.4-0.4,0.4c-0.9,1.3-2.2,2.6-3.9,3.5c0.4,2.2,1.3,4.4,3.1,5.7c1.3,0.8,2.7,0.8,3.4,1.8
				c1.3,0.8,2.2,2.2,1.3,3.5c3.1,0.8,6.5,2.2,9.2,4.4c-0.9,1.8-0.9,4.4,0.4,6.1c0.4,0.4,0.9,1.3,0.9,1.8c-0.4,0.8-0.4,1.8-0.9,2.6
				c0,1.8-0.4,3.9-2.2,3.9c-0.4,6.1-4.4,11.8-9.6,14.9c0.9-2.6,2.2-5.3,3.1-7.8c0.4-0.4,0.4-1.3,0.4-1.8c0-2.2-3.1-3.1-5.2-2.6
				c-2.2,0.4-4.8,0.8-6.1-0.4c-2.7,9.2-7.5,17.5-14.4,24c-1.3,1.3-2.7,2.6-3.1,3.9c-0.4,1.3-0.4,2.2-0.9,3.5
				c-0.9,2.2-3.1,3.9-4.8,5.3c-4.4,3.5-8.3,7.8-12.2,11.8c-3.9,4.4-7.9,8.7-11.8,13.1c-0.9,1.3-2.2,2.2-3.1,3.5
				c-0.9,1.3-1.3,3.1-1.8,4.4c-1.8,3.5-3.9,7-7,9.6c1.3,2.6,2.2,5.3,3.1,7.8c1.8-0.4,3.9-1.3,5.7-1.8c0.9,0.8,0.9,3.1,0.4,4.4
				c-0.4,1.3-1.8,2.6-2.7,3.5c-0.4,0.4-0.9,0.8-1.3,1.3c0.4,6.5,1.3,13.5-0.9,19.6c-0.4,0.8-0.9,1.8-0.9,3.1c0,0.8,0,2.2,0.4,3.1
				c0.4,2.2-0.4,4.9-0.4,7c0,2.2,1.3,4.9,3.9,5.3c0.4,0,1.3,0,1.8,0c3.9,0,7.5,2.6,9.2,6.1c2.2,3.5,2.7,7,3.4,10.9
				c0,0.8,0.9,1.3,1.3,1.8c0,0,0,0-0.4,0c-0.4,1.3-1.3,2.2-1.8,3.5c-1.3,3.5-1.8,7.8-0.4,11.3c0.4,0.8,0.9,1.8,0.9,3.1
				s-0.9,2.6-1.3,3.9c-1.3,3.5,1.3,7,3.4,10c2.2,3.1,4.4,7,2.7,10c-0.9,1.8-2.7,3.1-2.7,4.9c-1.3,0-3.1,0-4.4,0.4
				c-1.3,1.3-0.4,3.5,0.4,4.9c0.9,1.3,2.2,3.5,1.3,4.9c3.4,1.8,6.5,3.5,10,5.3c0.9,0.4,1.3,0.8,1.8,1.3c0.4,0.8,0.9,1.8,0.9,2.6
				c0.4,2.6,0.4,5.3,0.9,7.8c-1.8,0-3.1,0-4.8,0c-0.4,3.1-0.4,6.1,0.9,8.2c2.2,3.1,7.5,4.9,7,8.8c2.2-0.4,3.4,2.6,3.4,4.9
				c0,2.2-0.9,4.9,0.9,6.5c1.8-1.3,3.9-2.2,5.2-3.9c1.3-1.8,2.2-3.9,1.8-6.1c-0.9-2.6-3.9-4.4-6.5-5.3c0-2.6,0.4-5.3,0.4-7.8
				c-3.1-0.8-3.4-5.3-2.7-8.2c0.8-3,2.7-6.1,1.3-9.2c-0.9-2.6-3.4-4.4-4.4-6.5c-0.9-2.6,0.9-5.7,0.4-8.7c-0.4-4.4-4.4-7.8-5.2-12.2
				c-0.4-2.6,0-5.3-0.9-7.5c-0.4-1.3-1.3-2.2-1.8-3.1c-1.3-3.9,2.2-7,4.8-10c1.8-1.8,3.1-4.4,1.8-6.1c1.3,0,2.2,0.4,3.4,0.4
				c-0.9,1.8,0.4,3.9,2.2,4.9c1.8,0.9,3.9,1.8,4.4,3.9c0.4,0.8,0.4,2.2,0,3.5c-0.4,4.4-0.9,8.7-1.3,13.1c0,0.8,0,1.8,0,2.6
				c0.4,0.8,1.3,1.8,1.8,2.6c0.9,2.2,0.4,4.4,0.9,7c0.5,2.7,2.7,4.4,4.4,6.1c4.8,6.1,5.7,14.4,6.1,21.8c-0.9,2.2,0.4,3.5,1.8,5.3
				c1.3,1.8,3.4,3.1,4.8,5.3c1.3,1.8,1.8,4.9,0,6.5c5.7,4.4,9.6,11.3,10.9,18.4c0.4,1.3,0.4,3.1,0.4,4.9c0.4,3.5,0.9,7.5,1.3,10.9
				c-3.9,0.4-7,4.9-5.7,8.7c0.9,2.6,0,5.3,1.3,7.8c1.8,3.5,6.5,6.1,9.6,4.4c0.4,1.8,1.3,3.9,1.8,5.7c0.4,0.8,0.4,2.2,1.3,3.1
				c2.2,2.6,6.5,1.8,9.2,3.5c2.7,1.8,3.1,5.3,4.8,7.5c2.7,3.9,8.7,5.7,9.2,10.4c0.9,0,1.8-0.8,1.3-1.8c0-0.8,0.9-1.3,1.8-1.3
				c2.2,0,4.4,0,6.1,0c0.9,3.9,4.4,7,7.9,9.6c1.8,1.3,3.1,2.6,4.8,3.9c3.1,2.6,7,5.3,10.9,3.9c3.1-0.8,5.2-3.5,8.3-4.9
				c2.7-0.8,5.7-0.4,7.9,1.3c3.9,3.1,4.8,8.2,8.7,10.9c1.8,1.3,4.4,1.3,5.2,3.1c1.3,1.8,0.9,4.9,2.2,6.1c0,0.4,0,0.4,0,0.8
				c2.7,2.2,4.8,4.4,7.9,5.7c1.3,0.4,3.1,0.8,4.4,0.8h-0.4c0,0.4,0,0.4,0.4,0.8c0.4,0.8,1.8,1.3,2.7,1.3s2.2,0.4,3.1,0.8
				c0.9,0.4,1.3,1.8,0.9,2.6c3.1-0.4,5.7,0,8.7,0.8c0.4,0,0.9,0.4,1.3,0.4h0.4c2.2,1.3,3.9,3.9,5.2,6.1c1.3,3.1,2.7,6.1,4.8,8.7
				c0.9,0.8,1.3,1.3,1.8,2.2c0.9,1.3,0.9,2.6,0.9,3.9c0,1.8,0,3.5,1.3,4.4c0.4,0,0.4,0.4,0.9,0.4l0,0c-0.9,3.9-1.3,7.5-1.3,11.3
				c1.8,2.6,6.1,2.2,8.3,4.4c0.4-0.4,0.9-0.8,0.9-1.3c-2.7-0.8-3.9-3.9-3.4-6.5c2.2,0.8,3.9,3.1,4.8,5.3c0.4,2.2,0.4,4.9-0.4,7.5
				c0.9,0,1.8,0.4,2.7,0.4c0-1.3,1.8-2.2,3.1-1.8c1.3,2.2,1.8,4.9,0.9,7.5c1.8,0.8,2.7,2.2,3.1,3.9c1.8,0,3.4,0,4.8,0.4l0,0l0,0
				c2.2,1.3,5.2,0.4,7.5,1.8c1.8,2.6,2.7,5.7,3.4,8.7c2.7,0.4,4.8,0.8,7.5,1.8c2.2-1.8,1.3-5.7,3.4-7.5c0.9-0.8,2.7-1.3,2.7-2.6
				c0-0.4-0.4-0.8,0-1.3c0-0.4,0.4-0.4,0.9-0.8c2.2-1.8,4.4-3.1,6.5-4.4c0.4,0.8,1.3,1.3,2.2,1.3c-0.9,0.8-1.8,2.2-1.8,3.9
				c2.2,0.8,4.4,1.8,6.1,3.1c1.3,0.4,2.7,2.2,1.8,3.1c-0.4,0.4-0.9,0.4-1.3,0.4c-2.2,0.4-3.9,2.6-3.9,4.9c2.2,1.3,3.1,3.5,4.4,5.7
				c0.4,0.8,1.3,1.3,1.8,2.2c0-0.4,0-0.8,0.4-1.3c-1.8,4.9-0.4,10.4,1.3,15.3c0,0.4,0.4,1.3,0.4,2.2c0,0.8-0.4,2.2-0.9,3.1
				c-0.9,1.8-2.2,3.5-2.7,5.3c-0.4,2.6-0.4,5.3-1.3,7.5c-0.4,0.8-1.3,1.8-2.2,2.6c-0.9,0.8-1.3,2.2-2.2,3.1
				c-0.9,0.8-1.8,0.8-3.1,1.3c-2.7,0.8-5.7,2.6-7.5,4.9c-2.2,2.2-3.1,5.3-2.7,8.2l0,0c-3.1,1.3-5.7,2.6-8.7,4.4
				c-2.7,1.8-4.8,3.9-7.5,5.7c-0.9,0.8-2.2,1.8-2.2,3.5c0,0.8,0,1.3,0,2.2c0,3.1-3.1,5.3-6.1,6.5c0,2.6-0.4,4.9-0.4,7.5
				c0,0.8,0,1.3,0.4,2.2c0.4,0.4,0.9,0.8,1.3,1.3c3.1,2.2,6.5,3.1,10,3.1c0,3.1-2.7,6.1-5.7,6.1c0,1.3,0.9,2.2,1.8,3.1
				c-2.2,0.4-3.9,0.8-6.1,0.4c-2.2,1.8-4.8,3.9-5.7,6.5c-1.3,2.6-0.4,6.5,2.2,7.8c-1.8,2.2-3.1,3.9-4.8,6.1c0.9,1.3,1.8,2.2,2.7,3.5
				c-0.9,1.3-1.8,3.1-2.7,4.4c7.9,1.3,13.5,8.2,16.6,16.1c3.1,7.5,3.9,15.7,7,23.1c3.9,9.2,10.9,18.4,8.3,27.9
				c2.2-1.3,4.8,0,5.7,2.2c0.9,2.2,0.9,4.4,0.9,7c-0.4,5.3-0.9,10.4-0.9,15.3c6.5,0.8,10.6,7.5,14.9,11.8
				c4.8,4.9,11.3,7.5,17.1,10.9c5.7,3.5,11.3,8.2,13.1,14.9c2.2,1.3,3.4,2.2,6.1,3.5c-0.4-0.4-0.9-0.4-1.8-0.8
				c0,11.3,2.2,23.1,2.7,34.9c0,3.1,0,6.1-2.2,8.2c-0.9,0.8-1.8,1.3-2.2,2.6c-0.4,0.8-0.4,1.8-0.4,2.6c0,3.1,0,6.5,0,9.6
				c0,3.9-0.9,9.2-0.9,13.1c0,4.4,0.4,9.2,0.4,13.5c0,3.5-0.4,6.5-0.9,10c0,1.3-0.4,2.6-0.9,3.9c-0.9,1.3-2.2,2.6-3.1,3.5
				c-3.1,3.5-3.4,8.7-1.3,12.7c3.4,3.9-1.8,10.4,0.9,15.3c3.9,8.2-0.4,18.8-2.2,27.9c-1.3,6.5-2.7,13.1-4.4,19.6
				c-0.4,2.2-0.9,4.4-2.2,6.1c-0.9,1.3-1.8,2.6-2.2,3.9c-2.7,5.3,0,10.9,2.7,16.6c-21,2.6-42.9,3.9-64.6,3.9
				C557.6,1226.9,316.7,986.4,316.7,690.9z M966.6,1071.1c0-1.3,0-2.6,0-3.9C966.6,1068.4,967,1069.7,966.6,1071.1z M1003.8,1064.9
				c0.4-0.4,0.9-0.4,1.3-0.8c-0.4,0-0.4,0.4-0.9,0.4C1004.2,1064.9,1004.2,1064.9,1003.8,1064.9z M1040.5,1047.1
				c0.4,0,0.9,0.4,1.3,0.4l0,0C1041.3,1047.5,1040.9,1047.1,1040.5,1047.1z M1098.2,1167.5c2.2-4.9,4.8-9.2,8.3-12.7
				c1.3,0,3.4-0.4,4.8-0.4c4.8,0,7.5-6.1,6.5-10.9c-0.9-4.9-3.1-9.6-3.1-14.4c0-9.6,10-16.1,18.8-20.6c3.4-1.8,7.5-3.5,11.3-3.9
				c1.3,0,3.1,0,4.4,0c4.8-0.8,8.3-6.1,13.1-6.5c3.1-0.4,5.7,1.3,8.3,1.8c3.1,0.4,6.5-0.8,6.5-3.5c2.2,1.8,5.2,1.3,7.5-0.4
				c2.2-1.8,3.1-4.4,3.9-7c3.4-9.2,7-18.4,10-27.5c4.8-13.1,17.1-27.5,11.3-40.1c-2.7-5.7-1.3-12.7,2.7-17c2.2,1.3,4.8-0.4,6.1-2.6
				c0.9-2.2,1.3-4.9,2.2-7c1.3-3.1,5.2-5.3,8.7-4.9c0-3.5,0.9-7,2.2-9.6c1.3,1.3,3.1,2.2,4.4,3.5c6.1-5.3,12.2-10.9,15.3-18.8
				c4.4-10.9,1.8-24-1.3-35.4c-7-1.3-14-3.9-20.1-7.8c0.9-4.9-2.7-9.2-6.1-13.1c-1.3-1.8-3.1-3.1-4.8-3.9c-1.8-0.8-3.4-1.3-5.2-1.3
				c-8.3-1.8-16.6-3.5-24.9-4.9c-2.7-0.4-5.2-0.8-7.9-0.4s-5.2,2.2-6.1,4.4c-0.9,0-1.8-1.3-1.3-2.2c0.4-0.8,0.9-1.8,1.8-2.6
				c2.2-2.6,2.7-7,1.3-10c-1.3-3.1-4.4-7-7.9-7.5c-3.9-3.5-9.2-5.3-14.4-6.5c-1.3-0.4-2.7-0.8-4.4-1.3c-0.9-0.4-1.8-0.4-3.1-0.4
				c-2.2,0-3.9,2.2-5.2,3.9c-2.2,2.6-3.9,5.7-6.1,8.2c-4.8-2.2-9.6-4.4-14-6.5c-1.3-0.4-3.1-1.3-3.4-3.1c-2.7,0.4-5.7,0.8-8.3,1.3
				c0.4-2.2,1.3-4.9,1.8-7c4.8-0.4,10-3.9,9.2-8.2c1.3,1.3,3.4,0.4,4.8-0.8c1.3-1.3,1.8-3.1,3.4-4.4c0.9-0.4,1.8-0.8,3.1-1.3
				c3.1-0.8,5.7-3.1,7.9-5.7c-3.4,0.8-7.5-3.1-5.2-6.1c-3.1,0.4-5.2-2.6-5.7-5.7c-0.4-3.1,0.4-6.1-0.4-8.8c-0.4-1.3-0.9-2.6-1.3-4.4
				l0,0c0.4-0.4,0.9-0.8,0.9-1.3c-2.2-0.8-3.4-3.5-2.7-5.7c-0.9-0.4-1.3-0.8-2.2-1.3c-2.2-1.8-4.8-3.1-6.5-5.3
				c-1.8-2.2-3.1-5.3-2.2-7.8c-2.2,0-3.9,0-6.1,0c0,0,0,0,0,0.4c0.4-0.4,0.4-1.3,0-1.8c-2.2,1.3-4.8,0-6.5-1.3
				c-2.2-1.3-3.9-3.1-6.1-3.5c-3.9-0.8-7.5,1.8-11.3,1.3c-1.3,0-3.1-0.4-4.4-0.4c0,0.4-0.4,0.4-0.4,0.8c0.4-0.4,0.9-0.8,0.9-1.3
				c-1.3-0.4-2.7-1.3-4.4-1.8c0.9-2.2-1.8-5.3-3.9-4.9c0-1.3,0.4-2.6,0.4-4.4c-0.9,0-1.8-0.4-2.2-0.4c-0.4,0.8-0.9,1.8-0.9,3.1
				c-1.3,0-2.2-0.4-3.4-0.4c-0.9-2.2,2.2-3.5,2.7-5.7c0.9-3.1-4.4-6.1-2.7-8.7c-1.3-1.3-3.4-2.2-5.2-1.8c-0.4-1.3-0.4-2.2-0.9-3.5
				c-1.3,0.4-2.2,0.8-3.4,1.3l-0.4-0.4c-0.9-1.3-1.3-2.6-0.9-3.5c-1.3,0-2.2-0.8-2.7-2.2c-0.4-0.8-0.4-2.2-0.9-3.5
				c0-0.8-0.4-2.2-0.9-3.1c-2.7,0-5.2-0.4-7.5-1.8c0-1.3,0.4-2.6,0.4-3.9c-1.3,0-2.7-0.8-3.4-2.2c-0.4-0.8-0.9-1.8-1.3-2.6
				c0,0.4,0.4,0,0.4-0.4c0.4-1.8,0.9-3.5,1.3-5.3c-2.2,0-3.9,0-6.1,0c-1.8,0-3.4,0-4.8,0.8c-0.4,0.4-1.3,0.4-1.8,0.8
				c-2.7,1.3-5.2,1.3-8.3,1.3c-0.9,1.3-2.2,2.6-3.1,3.9c-0.4,0-0.9,0-1.3,0s-0.9,0-0.9,0v-0.4c0-0.4,0-1.3-0.4-1.8
				c-1.8,0-3.1-0.4-4.8-0.4c0.4-0.8,0.9-1.8,0-2.6c-0.9-0.8-1.3-1.3-2.7-1.3c1.3-0.4,1.3-2.2,0.4-3.1h-0.4c-1.8-0.8-3.9,0.8-3.9,2.6
				c-1.3,0-2.7-0.4-3.9-0.4c-0.9,0-1.8-0.4-2.7-0.4c0-0.8,0-1.8-0.4-2.6c-1.3,0-2.2,0-3.4,0c0,1.3-0.4,2.2-0.4,3.5
				c-2.2-0.8-3.9-1.8-6.1-2.2c1.3-2.6,0.4-5.7,0-8.2c-2.7-1.3-5.2-3.1-7.9-4.4c-1.8-1.3-3.9-3.5-3.4-5.7c-0.9,0-1.3,0-2.2,0
				c-0.4,2.2-0.4,4.4,0,6.5c-2.2,0-3.9,1.8-4.8,3.5c-0.9,1.8-0.9,3.9-0.9,6.1c0,2.2,0,4.9-0.4,7c0,0.8,0,1.8-0.4,2.2
				c-0.4,0.8-1.8,1.8-2.2,2.6c-0.4,1.3-0.4,2.6-0.4,3.9s-0.4,3.1-1.8,3.1c-0.4-2.2-0.4-4.4-0.9-6.1c-0.4-0.8-2.2,0-3.4,0
				c-1.8,0-2.7-1.8-2.7-3.1c-0.4-1.3-0.4-3.5-1.8-3.9c1.8-5.3,5.2-10,9.2-13.5c1.3-1.3,3.1-2.6,3.9-4.4c0.9-1.8,0.4-3.9-1.3-4.9v0.4
				c0-1.3-0.9-2.2-1.3-3.1c-0.9-1.3-2.7-2.2-3.9-2.2c-0.9,0-1.8,0.8-2.2,1.3c-1.3,0.8-2.2,1.8-3.4,2.6c-1.8,0.8-3.1,2.2-4.8,3.1
				c-1.3,0.8-3.1,1.8-4.8,1.8c-1.3,0-3.1-0.8-4.4-0.4c-0.9,0.4-1.3,1.3-2.2,1.3c-0.4,0-0.9-0.4-1.3-0.4c-2.7-1.3-5.7-0.4-8.7,0.4
				c-0.4,0-0.9,0.4-0.9,0.4c-0.4,0.4-0.9,0.8-0.9,1.8c-0.9,2.6-2.2,5.3-3.1,7.8c-0.9,3.1-2.2,5.7-4.8,7.8c-2.2,1.8-4.4,3.5-6.1,5.3
				c-2.2-0.4-4.8-1.3-6.5-2.6c-0.9-0.4-1.8-0.8-2.2-1.8c-0.9-0.8-1.3-1.8-1.8-3.1c-3.1-5.7-10-8.2-16.2-6.1
				c-4.4,1.8-8.3,5.7-12.7,4.4c-2.7-0.4-4.8-2.6-7.5-2.2c0-0.8,0-2.2,0-3.1c-0.9,0.4-1.3,0.4-2.2,0.4l0,0c0.4-0.4,0.4-0.8,0-1.3
				c-1.3-1.8-3.1-3.1-4.4-4.9c-0.4-0.4-0.9-0.8-1.3-1.8c-0.4-0.8,0-1.8-0.4-2.6c-0.4-1.8-2.7-3.1-2.7-5.3c0-0.8,0.9-1.8,1.3-2.2
				c0.4-1.3,0.4-2.6,0-3.9l0,0c0-5.7,0-11.8,3.1-16.1c0.9-0.8,1.8-1.8,2.2-3.1c0.4-0.8,0.4-2.2,0.9-3.5c0.9-2.6,3.1-4.4,4.4-6.5
				c1.3-2.2,1.3-5.3,0.4-7.5c0,0-0.4,0-0.4,0.4c2.2-0.8,2.7-4.4,2.7-6.5c-4.4-3.5-10.6-2.6-16.2-2.6c-7.5,0-15.3-2.2-22.7-0.4
				c-1.3,0.4-2.7,0.8-3.4,0.4l0,0l0,0c0.4-0.4,0.9-0.8,0.9-1.3c1.3-1.3,2.2-3.1,3.1-4.9c1.3-2.6,2.2-5.7,2.7-8.7
				c0.4-3.5,0.9-7,1.3-10.9c0-0.4,0-0.8,0-1.3l0,0c1.3-0.4,3.1-0.8,3.9-2.2c0.8-1.3,0.9-2.6,1.3-4.4c1.3-5.7,5.7-10.4,10-14.9
				c1.3-1.3,3.4-3.1,5.2-2.2c0-0.8,0.4-1.8,0.4-3.1c-0.4,0-0.9-0.4-1.3-0.4c0.4-1.3,0.9-2.6,1.3-4.4c-5.7-2.6-12.2-3.1-18.3-1.3
				c-1.3,0.4-3.1,0.8-4.4,0.4c-1.3,0-2.2-0.8-3.4-1.3c-3.9-1.3-8.3,1.3-10.6,4.9c-2.2,3.5-3.4,7.5-4.4,11.3
				c-1.3,3.9-3.1,7.8-6.5,10.4c-4.4-2.6-10-3.9-15.3-3.9c-0.9,0-1.8,0-2.2,0.4c-0.4,0.4-1.3,0.8-1.8,1.8c-1.8,1.8-3.9,2.2-6.1,1.8
				c-2.7-0.4-5.2-2.6-7.9-2.2c0-3.1-2.7-5.3-4.4-7.5c-0.9-0.8-1.8-1.8-1.8-3.1c0-0.8,0-2.2,0-3.1c0-2.6-2.2-4.9-3.4-7.5
				c-1.3-2.6-1.8-5.7-1.8-8.7c-0.4-3.9-0.4-7.5-0.9-11.3c0-1.8,0-3.5,0-4.9c0.4-2.2,2.2-3.9,3.4-6.1c1.3-2.2,2.7-4.9,3.1-7.5
				s1.3-5.3,3.1-7c1.8-1.8,3.9-3.5,5.2-5.7c1.3-2.2,1.8-4.4,1.8-7c-0.9-0.4-1.8-0.8-2.2-1.8c0.9,0.4,1.8,1.3,2.7,1.8
				c0.9-3.9,2.2-7.8,3.4-11.3c0-0.8,0.4-1.3,0.9-1.8c0.9-0.8,1.8-0.8,2.7-0.8c1.8-0.4,3.4-1.3,4.8-2.6c0.9-0.8,1.8-1.8,2.7-2.6
				c1.3-0.8,3.1-0.8,4.4-1.3c4.4-0.8,7.9-3.5,11.8-5.3c3.9-2.2,8.3-3.5,12.2-2.2c3.4,0.8,6.1,3.5,8.7,6.1c2.2-3.1,5.7-6.5,9.2-5.3
				c-0.4,1.8-0.4,3.5-0.9,5.3c1.3,0.8,2.7,1.8,4.4,2.6c0.4,0,0.4,0.4,0.9,0.4c0.5,0,0.9,0,1.3,0c2.2-0.4,4.8-0.4,7-0.8
				c2.2,0,4.8-0.4,6.5,1.3c0.4-0.8,0.9-2.2,1.3-3.1c0.4-0.8-0.4-2.2-1.3-3.1c-1.3,0-2.2,0-3.4-0.4c0-0.8,0.4-1.8,0.4-2.2
				c-0.9,0-2.2,0-3.1,0c0-2.2,0.9-4.9,1.8-7c4.4-0.4,8.3,0.4,12.7,1.3c0.9,0,1.8,0.4,2.7,0.8c0.4,0.4,0.9,1.3,1.3,1.8
				c2.7,3.5,7.5,5.7,11.8,6.5c4.4,0.8,9.2,0.8,13.5,1.8c3.1,0.4,5.7,1.3,8.3,3.1c2.2,1.8,3.9,4.4,3.9,7.5
				c-0.4,6.1-0.4,12.2-0.9,18.8c0,0.4,0,1.3,0,1.8c0.4,0.4,0.9,0.8,1.3,1.3c3.1,3.1,3.4,8.2,0.9,11.8c2.2,1.8,3.1,4.9,2.2,7.5
				c2.2,0.4,3.9,1.3,6.1,2.2c1.8,0.8,3.1-1.3,3.4-3.1c0.4-1.8,0.4-3.5,1.3-4.9c1.3-1.3,3.4-1.8,4.4-3.5c0.4-0.8,0.4-2.2,0.4-3.5
				c0-8.7,0.4-17.5,2.2-26.2c-1.8-0.4-2.2-3.1-2.2-5.3c0.4-4.9,1.8-10,3.9-14.4c3.1-6.1,10-8.2,16.6-10c1.8-0.4,3.1-0.8,4.4-2.2
				c0.4-0.4,0.9-1.3,1.3-1.8c0.9-1.3,2.2-2.2,3.4-2.6c2.7-1.8,5.7-3.5,8.3-5.7c3.9-2.6,8.3-5.3,12.7-3.5c0.9-0.4,0.9-1.8,1.8-2.6
				c0.8-0.8,2.2-0.4,3.4-0.8c1.8-0.4,3.1-2.2,3.9-3.9c0.4-0.8,0.9-1.8,1.3-2.2c0.4-0.4,1.3-0.8,1.8-1.3c3.4-1.8,6.1-5.3,7-9.2
				c0.4-1.8,0.4-3.5-0.9-4.4c-0.9-0.4-2.7-1.3-2.2-2.2c-1.3,0-2.7,0-3.1-1.3c-0.4-0.8,0.9-1.8,1.8-2.2c0.9,0,1.8,0.4,2.7,0.8
				c1.8,0.8,3.4,1.8,4.8,2.2c0.4-2.6,0-4.9,0.4-7.5c-1.8-0.8-3.1-2.2-3.4-3.9c-0.4-0.8-0.9-1.8-1.8-1.3c0.9-1.8,3.4-2.2,5.2-1.3
				c0.4-0.8,0.4-2.2,0.9-3.1c0.4-0.8,0.4-1.8,0.9-2.6c0.9-1.8,3.1-2.6,5.2-3.5c-0.9,3.5-2.2,7.5-3.1,10.9c-0.9,2.6-1.3,4.9-1.3,7.5
				c0,0.8,0.4,2.2,0.4,3.1c1.8-1.8,3.9-3.5,5.7-4.9c2.2-2.2,4.8-4.9,4.4-7.8c-0.9,0-1.8,0-2.7,0c0-3.1,0.4-6.5,1.3-9.6
				c0.4-0.8,1.8-0.4,2.7,0.4c0.4,0.8,0.9,1.8,1.8,2.2c0.4,0,0.9,0.4,0.9,0.8s0,0.8,0,0.8c-0.4,1.3-0.9,2.6-1.3,3.9
				c0.9,0.4,1.8,0.8,2.7,0.8c1.3-2.2,3.1-3.5,5.7-4.4c0.4-0.4,1.3-0.4,1.8-0.8c1.8-1.3,2.7-3.9,2.7-6.1c0-0.8,0.4-2.2,0.4-3.1
				c2.2-0.4,4.8,0,7,0.4c0.9,0.4,1.8,0.4,2.2,0c0.4,0,0.4-0.4,0.9-0.8c1.3-0.8,2.7,0,3.9,0.4c1.3,0.4,3.1,0,3.9-1.3
				c0.4-0.4,0.9-1.3,0.9-1.8c0-0.4-0.4-0.8-0.4-0.8c-1.3-1.8-3.9-2.2-5.7-2.6c-0.9,0-1.8-0.4-2.7-0.4c-0.4,0-0.4,0-0.9,0
				c2.7-0.8,5.7-1.3,8.3-1.8c1.8-0.4,3.4-0.4,4.8,0.4c0.9,0.4,1.3,1.3,2.2,1.8c2.2,1.3,4.8,0.4,6.5,1.8c3.4-3.1,7.5-6.1,11.8-4.9
				c-0.4-0.8-0.9-2.2-0.4-3.5c-0.9-0.8-2.2-0.4-3.1,0c-2.7,0.8-5.2,2.2-7.9,3.1c-0.4-0.8-1.3-1.3-1.8-2.2c2.2-1.3,3.9-1.3,6.1-2.6
				c2.7-1.8,3.4-5.3,5.7-7.8c3.9-4.9,10.9-4.9,17.5-5.7c7-0.8,13.5-3.1,19.6-7c-0.4,0.4-0.4,1.3-0.4,1.8c5.2-0.4,10-2.2,14-4.9
				c1.3-0.8,3.1-2.2,4.4-1.3c1.3,0.8,1.3,2.6,2.2,3.1c0.9,0.4,1.8,0.4,2.7,0.4s1.8,0.4,2.2,1.3c0.4,1.3-0.9,2.2-2.2,2.2
				c-1.3,0-2.7-0.8-3.4-0.8c-0.9-0.4-2.2-0.4-3.1,0c-0.9,0.8-1.3,1.8-2.2,3.1c-0.4-0.4-0.9-0.4-0.9-0.8c-0.4-0.8-1.8-0.8-2.7-0.4
				c-1.3,0-2.7,0.4-3.9,0.4c-3.1,0.4-6.5,1.3-7.9,3.9c-0.9,2.2,0,4.9,0.9,7.5c0.4,0.4,0.4,1.3,0.9,1.3c0.9,0.8,2.7,0.8,3.4,0.4
				c0.9-0.4,2.2-1.3,3.4-1.8c1.8-0.8,3.9-0.8,5.7-0.8c5.7-0.4,10.9-2.6,15.3-5.7c1.3-1.3,2.7-2.2,4.4-3.1c3.1-1.3,6.1-0.4,9.6,0
				c0.4,0,1.3,0,1.8,0c1.3-0.8,0.4-3.1,1.8-3.9c0.4,0,0.9,0,1.3,0c0.9-1.8,2.7-2.2,4.4-1.8c0.4,0.8,0.4,1.8,0.9,2.6
				c0.4,0.8,0.9,2.2,1.8,2.2c1.3,0.4,2.7-0.8,3.1-2.2c0.4-1.3,0.9-2.2,0.9-3.5c-1.3-0.4-2.2-0.8-3.1-1.3c-0.4-0.8,0.4-1.3,1.3-1.8
				c0.9-0.8,0.9-2.6,0.9-3.9c-0.9,0-1.8-0.8-2.2-1.3c-1.3-0.4-2.7-0.4-3.4,0.4c-0.9,0.4-1.8,0.8-2.7,2.2c0,3.5-3.1,6.5-6.1,7.5
				c-3.4,0.8-7,0.4-10.6,0c-1.8-0.4-3.4-0.4-4.4-1.8c-0.9-0.8-0.9-1.8-1.8-2.6c-0.9-1.3-2.7-2.2-4.4-3.1c-0.4-0.4-0.9-0.8-1.3-1.3
				c0-0.4,0-0.8,0-1.3c0.9-3.1,1.8-6.5,4.4-8.2c1.3-0.8,3.1-1.8,2.7-3.1c-3.4-0.8-7-1.8-10.9-2.6c-1.8-0.4-3.9-0.8-4.4-2.6
				c-0.4-1.3,0.9-3.1,2.7-3.1c1.8,0,3.1,2.2,4.8,2.2c0.9,0,1.8-0.4,2.7-0.4c3.1-0.4,6.1,1.8,9.2,1.8c0.4,0,1.3,0,1.8-0.4
				c0.4-0.4,0.9-0.8,1.3-1.8c1.3-3.1,2.7-7,0.4-9.2c-2.2-1.8-5.2-0.8-7.9-1.3c-1.8-0.4-3.4-0.8-4.4-2.2c-1.8,0.4-3.1,1.3-3.4,2.6
				c-6.1-1.3-12.2,2.6-17.9,5.7c-5.2,3.1-10.6,5.3-16.2,7.5c-1.8,0.8-3.4,1.3-5.2,2.6c-2.2,1.8-3.9,3.9-5.7,6.5
				c-0.9-0.4-0.9-0.4-2.2-0.8c-0.4-0.4-0.9-0.4-1.8-0.8c0.9-1.3,0.9-2.6,1.8-3.9c1.3-2.2,3.4-3.5,6.1-4.9c5.2-2.6,10-4.9,15.8-6.5
				c2.7-0.8,4.8-1.3,7-2.6c1.8-0.8,3.1-2.6,4.8-3.9c5.7-3.9,14-3.9,19.2-8.8c3.9,2.6,8.7,2.6,13.5,2.2c3.1,0,6.5,0,9.6,0
				c0.9,0,1.8,0,3.1,0.4c0.4,0,1.3,0.4,1.8,0.8c2.2,0.8,4.4,2.6,6.5,3.1c4.4,1.3,8.7,2.6,13.1,3.9c0.9,0.4,1.8,0.4,2.2,0.4
				c0.9,0,1.3-0.8,1.8-1.3c5.2-6.5,14-10.9,22.7-11.3c0.9,0,2.2,0,3.1,0.4c1.3,0.4,2.2,1.3,3.1,1.8c2.7,0.4,5.7-2.6,7.5-0.8
				c1.3-1.3,2.2-3.1,3.1-5.3c-0.9-0.8-1.3-1.3-2.7-1.8c0.9-0.8,1.3-2.2,1.3-3.5c0.9,0,1.8,0,2.7,0c0.4,0,1.3,0,1.8-0.4
				c0.4-0.4,0.4-0.4,0.4-0.8c0.9-3.1,2.2-6.5,3.1-9.6c0-0.4,0-0.4,0-0.8c0-0.4-0.9-0.8-1.3-0.8c-1.8,0-2.7,1.8-4.4,2.2
				c-1.8,0-2.7-1.3-3.9-2.2c-2.2-0.8-4.4,0-6.5,0.4c-5.7,1.8-12.2,4.9-17.1,1.8c-1.3-0.8-2.7-1.8-4.4-2.2c0.4-1.3,0.9-2.6,1.8-3.9
				c0.9,1.3,2.7,1.8,4.4,2.2c1.8,0,3.4,0,5.2-0.4c3.1-0.4,6.1-0.4,9.6,0c0.4-1.8,1.8-3.1,3.4-3.5c1.8-0.4,3.4,0,5.2,0
				c0.4-0.4,0-1.8-0.4-2.2c-0.4-0.4-1.3-0.4-2.2-0.8c-2.2-0.4-3.9-1.8-6.1-3.1c-2.7-1.8-5.2-3.1-7.5-4.9c-0.9-0.4-1.3-0.8-1.8-1.8
				c-0.4-0.4-0.4-1.3-0.4-2.2c-0.9-2.2-2.7-3.9-4.8-3.5c0-1.3,0-2.6,0-3.5c1.8,0.4,3.9,0.4,5.7,0.8c-0.4-1.8,0.4-3.5,0.9-5.7
				c0-0.8,0-1.3,0-2.2c0-1.8-0.4-3.1-0.4-4.9c0-0.4,0-0.8-0.4-1.3c0,0-0.4-0.4-0.9-0.4c-0.9-0.4-1.8-1.3-2.2-2.2
				c0.4-0.8,0.9-1.3,1.3-1.8c0.4-0.4,1.3-0.8,2.2-0.4c0-0.4,0-0.8,0-1.3c113.6,98.1,185.8,243.6,185.8,405
				C1389.2,898.3,1270.8,1078.5,1098.2,1167.5z"/>
		</g>
		<path class="st1" d="M1078.5,421.5c-1.2-0.4-2-1.2-2.8-2c-0.8-0.8-1.2-1.6-2-2.3c-1.6,1.2-3.1,2-4.7,2.8c0,0.8,0,1.6,0,2.3
			c0,0.4,0,0.8,0.4,1.2c0,0,0.4,0.4,0.8,0.4c0.8,0.4,2,0.4,2.8,0.4c0.4,0,0.8,0,1.2,0c0.8,0.4,0.8,1.2,1.2,2c0.8,0.8,2,0.8,3.1,0.8
			c1.6,0,2.8-0.4,3.9-0.8c-0.4-1.6-0.4-3.2-0.4-4.7C1081.2,421.1,1080,421.9,1078.5,421.5z"/>
		<path class="st1" d="M1091.8,394.1c-2.4-0.8-5.5,0.8-7.5-0.4c0,0.8,0,1.2,0,2c0.4,0,0.4,0,0.8-0.4c0.4,1.2,0.8,2.3,1.6,3.5
			c0,0,0,0.4,0.4,0.4c0,0,0.4,0.4,0.8,0.4c0.8,0.4,2,0.4,2.4,1.2c0,0.4,0,0.8,0.4,1.2c0.4,0.4,0.8,0.4,1.6,0.8
			c2.4,0.4,4.7,0.4,6.7,0.8c0.4-0.8,0.8-2,1.2-2.8c-1.2-1.2-2.8-2-4.3-2.8C1093.8,396.9,1092.2,395.7,1091.8,394.1z"/>
		<path class="st1" d="M1147.9,420.7c0,0,0-0.4,0.4-0.4c2.4,0,4.7-0.4,6.7-1.6c0.4-1.2-0.4-2.8-1.6-3.5c-0.4-0.4-1.2-0.4-1.6-0.8
			c-0.4-0.4-1.2-0.8-0.8-1.6c1.6-0.8,3.1-2,5.1-2.8c0-0.4,0.4-1.2,0.4-1.6c-2.8-0.8-5.5-2-8.3-2.8c-2-0.8-4.3-1.6-6.3-2
			c0-0.4-0.4-1.2-0.8-1.2c0.8-0.4,2-1.2,2-2.3c-2,0-3.5,0-5.5,0.4c0-0.4,0-1.2,0-2c0.8,0,1.2-0.4,2-0.4c0.4,0,0.8,0,1.2,0
			c0.8-0.4,1.6-1.6,1.2-2.3c1.2-0.4,2-0.4,3.1,0c0.8-1.2,1.6-2,2.4-3.2c0.4-0.4,0.8-1.2,0.8-2c0-0.8-0.4-1.6,0-2.3
			c-1.2,0.8-2.4,1.2-3.5,1.6c-1.2,0-2.4,0-3.1,0.8c-0.8,0.4-0.8,1.2-1.2,2c-2.8-0.4-5.1,2-7.5,1.6c-0.4,0.8-0.8,1.6-1.2,2.3
			c0,0.4-0.4,0.4-0.4,0.8c-0.4,0.4-0.4,0.4-0.8,0.4c-0.8,0-1.2,0.4-2,0.8c-1.6,2-0.4,5.5-2,7c-0.4,0.4-1.2,0.8-2,1.2
			c-2.4,0.8-4.3,2-6.7,2.8c-2.8,1.2-5.9,2.8-7.5,5.1c-0.4,0.4-0.4,0.8-0.8,1.6c0.8,0.8,1.6,2,2.4,3.2c7.5,0.8,15.7,1.6,23.1,2.3
			c0,0.8,0,1.2,0,2c-1.2,0.4-2.4,1.2-3.9,1.6c1.2,1.6,2,3.5,3.1,5.1c2.8-2.3,5.1-4.4,7.8-6.7c0.8,0.4,1.6,0.8,2.8,0.4
			C1145.5,422.7,1147.1,421.9,1147.9,420.7z"/>
		<path class="st1" d="M1151.8,422.7c-0.8,0.8-2,1.6-3.1,2c-1.6,0.4-2.8,0.8-4.3,2l-0.4,0.4v0.4c0,1.2,0,2.3,0.4,3.5
			c2.4,0.4,4.7,0.8,7.1,0.8c0.4-1.2,0.8-2.3,1.2-3.5c0.4-0.8,0.8-2,1.6-2.3c0.8-0.4,1.6-0.4,2-0.8c-0.4-0.4-0.8-1.2-0.8-2
			C1153.7,423.4,1152.5,423.4,1151.8,422.7z"/>
		<path class="st1" d="M1095.8,411.3c-0.4,0.8-0.8,1.6-1.6,2.3c0,0.4-0.4,0.4-0.8,0.8c-0.4,0-0.8,0-1.2,0c-1.2,0-2.8-0.4-3.9-0.4
			c-0.4,0.8,0,2,0.4,2.8c0.8-0.8,2-1.6,3.1-0.8c0.8,0.4,1.2,1.2,2,1.2c0.4,0,0.8-0.4,1.2-0.8c0.8-0.8,1.2-1.2,2-2l0.4-0.4
			c0-0.4,0-0.4-0.4-0.8C1096.9,412.5,1096.5,412.1,1095.8,411.3z"/>
		<path class="st1" d="M644.6,310.3c0.4,0.4,0,0.8,0,1.6c0,1.2,0,2.3,0,3.5c0,0.4,0,0.8,0,1.2c0,0.4,0.8,0.4,0.8,0.4
			c1.6-2.3,2.8-4.4,4.3-6.7c0.4-0.4,0.4-0.8,0.8-0.8c0.4,0,0.4,0,0.8,0c0.4,0,0.8-0.8,0.8-1.2c1.2-3.2,2.4-6.7,2.8-10.2
			c-1.2,0-2.8-0.4-3.9-0.4c0-0.8-0.4-2-0.4-2.8c-1.6,0-3.5,0-5.1,0c-0.4,5.1-1.2,9.8-2.4,14.9C643.8,309.6,644.1,310,644.6,310.3z"
			/>
		<path class="st1" d="M649.7,329.1c0.8,0.4,0.8,1.6,1.2,2.3c0.4,1.2,2,1.6,2.8,2.3c1.2,1.6,0.4,4.4,1.6,5.5
			c1.6,1.6,3.9,0.8,5.9,1.2c0.4,0.8,0.4,2,0.8,2.8c0,0.8,0.4,1.6,0.8,2c0.4,0.4,1.2,0.4,1.6,0.4c1.6,0,3.1,0,5.1,0
			c1.2-2,0.4-4.7-1.6-5.8c0.4-0.8,0.4-2,0.8-2.8c0-0.4,0-0.8,0-0.8c0-0.4-0.4-0.8-0.8-0.8c-2-1.2-3.9-2.3-4.7-4.4
			c-0.4-0.8-0.4-1.6-0.8-2.3c-0.8-1.2-2.4-1.2-3.5-1.2c-2.8,0-5.5-0.4-8.3-0.4C650.5,327.5,650,328.4,649.7,329.1z"/>
		<path class="st1" d="M895.1,601.2c0.4,0,1.2,0,1.2-0.4c0-0.4,0-0.4,0-0.8c0-1.2,0.4-2.3,0.4-3.5c0.8,0,2-0.4,2.8-0.8h0.4
			c0.4-1.2-1.2-3.9-2.4-3.9c-0.4,0-0.8,0-1.2-0.4c-0.8-0.8,0-2-0.8-3.2c-0.4-0.8-2.4-0.8-2.4,0.4c0,0.4,0,1.2,0,1.6
			c0.4,1.2,0.4,2.8,0,3.9c-0.4,1.6-0.8,2.8-0.8,4.4C892.7,599.6,893.5,601.2,895.1,601.2z"/>
		<path class="st1" d="M894.6,578.9c0.8-0.8,2.4-0.8,3.1,0c0.4-0.8,0-2-0.4-2.8c-0.4-0.8-1.6-1.2-2.8-0.8c-1.2,0.4-1.6,2-1.6,3.5
			v0.4C893.5,579.3,894.3,578.9,894.6,578.9z"/>
		<path class="st1" d="M903.3,576.1c0,0.4,0,0.8,0,0.8c0,0.4,0,1.2,0.4,1.6c0.4,0.4,0.8,0.8,1.6,0.8c-0.4,2-0.4,3.9,0.4,5.5
			c0.8,0.4,2-0.4,2.4-1.2c0-0.4,0-0.8,0-1.2c-0.4-3.2-0.4-5.8-0.8-9c-2.4,0.8-5.1-0.8-5.5-2.8c-1.6,0-3.1,1.2-2.8,2.8
			c1.2,1.2,2.4,1.6,3.5,2C902.5,575.7,902.9,575.7,903.3,576.1z"/>
		<path class="st1" d="M906,591c-0.8,0-2,0-2.8,0.4c0,0.4,0,0.8,0,1.2c0.4,0.8,1.2,0.8,1.6,0.8c0.8,0,2,0.4,2.4,0.8
			c0.4,0.4,0.8,0.8,1.2,0.8c0.8,0.4,2,0,2.8-0.8c0.8-0.8,0.8-2,0.8-2.8c-0.8,0-1.6,0-2.4,0h-0.4c0,0,0-0.4,0-0.8c0-0.8,0-1.6,0-2.3
			C907.2,588.2,906,589.4,906,591z"/>
		<path class="st1" d="M911.5,602.4c0.4,0.4,1.2,0,1.2-0.8c0.4-0.4,0-1.2,0-1.6c0.8,0,1.6-0.8,1.6-1.6c0-0.8-0.4-1.6,0-2.3
			c-0.8,0-1.2,0-2,0.4c-0.8,2-1.2,3.5-2,5.5C911.2,601.5,911.5,602,911.5,602.4z"/>
		<path class="st1" d="M911.2,607.8c-1.6,0.8-2.4,2.3-2.4,3.9c1.2-0.4,2.4,0,2.8,1.2c1.6,0,3.1-2,2.8-3.5c0-0.8-0.8-1.6-0.8-2.3
			c0-0.4,0-0.4,0-0.8c0-0.4-0.8-1.2-1.2-0.8c-0.4,0-1.2,0.4-1.2,1.2c0,0.4,0,0.4,0,0.8C911.5,607.5,911.2,607.8,911.2,607.8z"/>
		<path class="st1" d="M917.4,618.8c0,0.8-0.4,1.2-0.4,2c0.8,1.2,2.8,0.8,3.5-0.4c0.4-0.4,0.4-1.2,0.4-1.6c0-2,0.4-3.9,0.4-5.8
			c0-0.4,0-0.8,0-1.2c-0.4-0.4-0.8-0.4-0.8,0c-1.2,0.8-2.4,2.3-2.8,3.9c0,0.8-0.4,2.3-1.2,2.3C916.2,618,917,618.8,917.4,618.8z"/>
		<path class="st1" d="M926,620.7c0.8,0,1.6-0.4,2.4-0.4c-0.4,0.4,0,1.2,0.4,1.2c0.4,0.4,0.8,0.4,1.6,0.4h0.4l0.4-0.4
			c0.4-0.8,0.4-2,0.8-2.8c-1.6,0.4-2.8,0.4-4.3,0c-0.4,0-0.8-0.4-1.2-0.4c-0.8,0-1.2,0.4-1.2,1.2C924.9,620,925.2,620.3,926,620.7z"
			/>
		<path class="st1" d="M918.6,629c-0.4,1.6,1.2,3.2,2.4,2.3c0.4,0,0.8-0.4,1.2-0.8c0.8-0.4,2.4,0,3.1-0.8c0.8-0.8,0.8-2,0.4-3.2
			c-0.8,0-1.6-0.4-2.4-0.4c-0.4,0-0.4,0-0.8,0c-0.4,0-0.4,0.4-0.4,0.4C921.3,628.2,920.1,629,918.6,629z"/>
		<path class="st1" d="M887.6,648.9c-1.2-0.8-0.4-2.3-1.2-3.5c-0.4-0.8-1.6-0.8-2.4-0.8c-0.8,0.4-1.6,0.8-2,1.6
			c0,0.4-0.4,0.8-0.8,0.8c-0.4,0-0.8,0-1.2,0c-0.8,0-1.6,0.8-2.4,0.4c-0.4,0-0.4-0.4-0.8-0.4c-1.2-0.8-2.8-0.4-3.5,0.8
			c1.2-0.4,2,0,2.8,1.2c0.4,0.8,0.8,2,0.4,3.2c1.6-0.8,3.5,0,4.7,1.2c0,0,0,0.4,0.4,0.4c0.4,0.4,1.2,0,2,0s1.2,0.8,2,1.2
			c1.2,0.8,2.4,0.8,3.5,0c0.8-0.4,1.2-1.2,1.6-2c0.8-1.2,0.8-2.3,0-3.2C889.9,648.9,888.4,649.7,887.6,648.9z"/>
		<path class="st1" d="M911.5,637.5c0.8-0.8,0.8-2.3,0-3.5c-0.8-1.2-2.8-2.3-2.8-2.3s-7.8-3.2-10.5-5.8c-2.4-2.3-3.9-5.1-5.9-7.8
			c-2-2.8-4.3-5.1-7.8-5.5c-2.4-0.4-4.7,0.4-6.7-0.8c-0.8-0.4-1.2-1.2-2-2c-4.3-4.7-11.4-5.5-18.1-6.3c0-0.8,0-1.6-0.4-2.3
			c-2.4,0-4.7,1.2-7.1,1.6c-2.4,0.4-5.1,0.4-7.1-1.2c-0.4,1.2-0.8,2-1.6,2.8c-0.8-0.4-1.6,0.4-2.4,0.8c-0.8,1.2-1.6,2.3-2.8,3.5
			c-0.8,1.2-2,3.2-0.4,3.9c4.7-0.8,9.8-2,14.5-3.5c2-0.8,3.5-1.6,5.5-1.2c2,0,3.9,1.6,3.9,3.5c1.6,1.2,3.9,0.4,5.5,1.2
			c2.4,0.8,3.9,3.5,5.9,5.5c2.4,2,5.9,2.8,8.3,4.7c2.8,2.3,3.5,6.7,7.1,7.8c0.8,0.4,2,0.4,2.8,0.8c0.8,0.4,1.6,1.2,1.2,2.3
			c-2,0.4-3.5,1.6-4.7,2.8c1.2,0.4,2.8,0.4,3.9,0.4c5.1,0,9.8,2,14.9,3.2C906.9,637.5,909.6,636.8,911.5,637.5z"/>
		<path class="st1" d="M852.3,612.5c-0.8,0-2,0-2.8-0.4c-1.6,0-3.1,0.4-3.5,2c1.2,0,2.4,0.4,3.5,0.4c1.1,0,2.8,0,3.5-1.2
			c0-0.4,0-0.8,0-0.8C852.7,612.5,852.7,612.5,852.3,612.5z"/>
		<path class="st1" d="M950.3,648.5c-2.4,0.8-5.1,1.2-7.1-0.4c-0.8-0.8-1.6-1.6-2.4-2.3c-2.8-3.2-6.7-4.4-11-4.7
			c-0.8,0-1.6-0.4-2.4,0c-0.8,0-1.2,0.4-1.6,0.8c-2.8,0.4-5.9,0.4-8.6-0.8c-1.2-0.4-2.8-1.2-3.9-0.8c0.4,0.4,0.4,0.8,0,1.2
			c0.8,0,1.6,0.8,1.6,1.6c1.2,0.4,2.4,0.8,3.5,0.8c0.4,0,1.2,0.4,1.2,0.8c0,0.4,0.4,0.8,0.4,0.8c0.4,1.6,0.4,3.2,0.8,4.7
			c-3.1,1.2-6.7-0.4-10.2-1.6c-0.4,0-1.2-0.4-1.6-0.4c-0.8,0-1.2,0.4-1.6,1.2c-0.8,0.4-1.2,1.2-2,1.6c1.2,1.2,2.8,1.6,4.3,2
			c0.8,0,1.2,0.4,1.6,0.8c0.4,0.4,0.8,1.6,1.2,2c0.8,0.4,1.6,0,2.8,0c2.8-0.8,5.5-1.2,8.3-0.4c0.4,0,1.2,0.4,1.6,0.8v0.4l0,0l0,0
			l0,0c1.6,0.4,2.8,2.3,3.5,3.5c0.8,1.6,2.4,3.2,3.9,3.2c0.8,0,1.6-0.4,2.4-1.2c5.5-3.5,12.1-5.5,18.1-3.2c0-1.2,0.4-2,0.8-2.8
			c1.6,0.8,3.9-1.6,3.1-3.2C953.8,653.2,950.7,651.2,950.3,648.5z"/>
		<path class="st1" d="M657.9,275.5c1.2,0.4,2.4,0.4,3.5,0.8c0.4,1.2,0.8,2.3,0.4,3.5c0.8,0.4,1.6,0.4,2.8,0.8
			c-0.4,2.3-0.8,4.7-0.8,7c2,0.4,3.5,0.4,5.5,0.8c0.8-3.2,1.2-6.3,2-9c-1.2-0.4-2-0.8-2.4-1.6c-0.4,0.8-0.8,1.2-1.6,2
			c-0.8-0.8-0.8-2-1.2-2.8c-0.4-0.8-1.6-1.6-2.4-0.8c0-0.8-0.4-1.6-0.8-2.3c-0.4-0.8-0.4-1.6,0.4-2c0.8-0.8,2,0.4,3.1,0.8
			c0.4-0.8,0.8-2,1.2-2.8c0.4,1.6,0.4,3.2,0,4.7c1.2,0,2.4,0.4,3.5,0.8c-0.4-2.3-2-4.4-2-6.7c0-1.2,0.4-2.3-0.4-2.8
			c0.4-0.8,0.4-1.6,0.8-2.3c-0.8-0.8-2.4-0.4-3.1,0.8c-0.8,0.8-1.2,2-2,2.8c-1.2,1.2-2.8,1.6-3.9,1.2c0,0.8,0,1.6,0.4,2.3
			c-1.2,0.8-2.4,0.8-3.5,0.8c0,1.2,0,2.3,0,3.5c0,0.4,0,0.4,0,0.8C657.5,275.5,657.5,275.5,657.9,275.5z"/>
		<path class="st1" d="M772.3,821.2c-0.4-0.8-0.8-2-2-2c-0.8,0-1.6,0.4-2,1.2c-1.2,1.2-2.4,2.3-2.8,3.9c1.6,0.8,2.8,1.2,4.3,2
			c0.8,0.4,1.6,0.8,2.4,0.8s1.6-0.8,1.6-2c0-0.4-0.4-0.8-0.8-1.2C772.8,823.2,772.8,822,772.3,821.2z"/>
		<path class="st1" d="M765.7,819.2c0.4-0.4,0.8-0.4,1.6-0.4c0.4-1.6,2-3.2,1.6-4.7c-0.4-0.8-0.8-1.6-1.6-2c-2-1.2-3.9-1.2-5.9-0.8
			c-0.4,0-1.2,0.4-1.2,0.8c0,0.4,0,0.4,0,0.8c0.4,2.8,3.1,4.7,5.9,4.4C765.7,818,765.7,818.8,765.7,819.2z"/>
		<path class="st1" d="M995.8,732.7c-0.8,0-1.2,0.4-1.6,1.2c-0.4,1.2-0.4,2.3,0.4,3.2c0.8,0.8,2.4,0.8,3.1-0.4
			c0.4-1.2-0.4-2.3-1.2-3.2C996.2,733.1,996.2,732.7,995.8,732.7z"/>
		<path class="st1" d="M1011,713.1c-1.2-0.4-2.4,0.8-3.1,2c-0.4,1.2-0.8,2.3-0.8,3.5s0.4,3.2,1.6,3.2c0.4,0,0.8-0.4,1.2-0.4
			c1.2-0.8,2.4-1.6,2.4-2.8C1013,716.6,1010.7,715.1,1011,713.1z"/>
		<path class="st1" d="M999,717.8c-2,0-3.5,2-3.5,3.9c0,0.8,0.4,1.6,1.2,1.6c0.4,0,0.4,0,0.8,0c0.8-0.4,1.6-0.8,2.8-1.2
			c0.8-0.4,1.6-0.8,1.6-1.2C1002.1,719.4,1000.5,717.8,999,717.8z"/>
		<path class="st1" d="M1005.2,706.9c-0.8-0.8-2-0.4-2.8,0.4c-0.8,0.8-0.8,2-0.8,3.2c0,1.6,0.8,3.2,2,3.2c1.6,0,2-1.6,2.4-2.3
			c0.8-1.2-0.4-2-0.4-3.2C1005.5,707.2,1005.5,707.2,1005.2,706.9z"/>
		<path class="st1" d="M1009.1,700.9c-0.4-0.8-1.6-1.2-2.4-1.2c-1.2,0-2.4,0-3.1,0.4c-0.8,0.4-1.6,1.6-1.6,2.8
			c1.6,2.8,3.5,0,5.5,0.4c0.4,0,0.8,0,1.2,0C1009.5,703,1009.5,701.8,1009.1,700.9z"/>
		<path class="st1" d="M1003.3,693.9c-1.6,0.4-2.8,2.8-2.4,4.4c1.6,1.2,4.3,0,6.3-0.8c0.4,0,0.4-0.4,0.8-0.4c0-0.4,0-0.4,0-0.8
			C1007.1,694.4,1004.8,693.2,1003.3,693.9z"/>
		<path class="st1" d="M1003.3,690.4c1.6,0.4,2.8,1.2,4.3,0c0.4-0.4,0.8-0.4,0.8-0.8c0.4-0.8,0.4-1.6,0-2.3c-0.8-1.2-2.8-1.2-3.9,0
			C1003.3,688.4,1002.1,690.4,1003.3,690.4z"/>
		<path class="st1" d="M1000.9,684.6c0,0.4-0.4,1.2,0,2c0.4,0.4,1.2,0.8,1.6,0.4c-0.4-1.2,0.8-2,1.6-2.3c0.8-0.4,2-0.8,2.4-2
			c0-0.4,0-1.2-0.4-1.6c-0.8-1.2-2.4-0.8-3.5,0C1001.7,681.8,1001.2,683,1000.9,684.6z"/>
		<path class="st1" d="M997.4,679.1c1.2,0.8,2.4,0.4,3.5,0c1.6-0.4,3.1-1.2,3.1-2.8c-0.4-1.2-2-1.6-2.8-1.2c-1.2,0.4-2.4,0-3.1,1.2
			C997,677.1,997.4,678.3,997.4,679.1z"/>
		<path class="st1" d="M975.4,675.6c0.4,0,1.2,0,1.6-0.4c1.6-0.4,3.1-1.6,3.1-3.2c0-1.2-1.6-2-2.8-2.3c-1.2-0.4-2.8-0.4-3.5-0.8
			c-1.2-0.4-2-1.6-3.1-1.6c-0.8,0-1.6,0.8-1.6,2c0,1.2,1.2,2,2,2.3c1.2,0.4,2,0.8,2.8,1.6C974.3,674,974.6,675.1,975.4,675.6z"/>
		<path class="st1" d="M988.3,668.9c-1.2,0.4-2,0.8-2.8,2c-0.4,0.8-0.8,2.3,0,3.2c1.2,0.8,2.8,0,3.9,0c0.4,0,0.8,0,1.2-0.4
			c0.4-0.4,0.4-0.4,0.8-0.8c0.4-0.8,0.8-1.6,0.8-2.3C991.9,668.5,989.9,668.5,988.3,668.9z"/>
		<path class="st1" d="M976.9,722.9c-1.2,0-2.8,0.8-3.1,2c-0.4,1.2,0,2.3,0.8,3.2c1.6-0.4,3.1-1.2,4.7-1.6c0.8-0.4,1.6-0.8,1.2-1.2
			c0-0.4-0.4-0.4-0.4-0.8C979.7,723.3,978.6,722.9,976.9,722.9z"/>
	</g>
	<g>
		<g>
			<path class="st2" d="M574.1,1615.3v17.4H440.6v-198.8h131v17.4H460.2v71.7h97.2v16.5h-97.2v75.9H574.1z"/>
			<path class="st2" d="M670.4,1635.4c-10.6,0-20.4-2-29.3-6c-8.9-4-16.6-9.5-23.2-16.6c-6.6-7.1-11.8-15.1-15.4-24.2
				s-5.5-18.7-5.5-29c0-13.7,3.1-26.3,9.2-37.6s14.7-20.3,25.8-27c11-6.7,23.7-10,38.1-10c13.6,0,25.7,3.1,36.1,9.4
				c10.5,6.3,18.2,14.7,23.2,25.3l-18.5,5.9c-4.1-7.5-9.8-13.3-17.2-17.5c-7.4-4.2-15.5-6.3-24.5-6.3c-9.7,0-18.6,2.5-26.6,7.5
				c-8,5-14.4,11.9-19.2,20.6c-4.8,8.7-7.1,18.6-7.1,29.7c0,10.9,2.4,20.9,7.3,29.7c4.9,8.9,11.3,16,19.3,21.3
				c8,5.3,16.9,7.9,26.6,7.9c6.3,0,12.5-1.1,18.3-3.4c5.9-2.2,11-5.3,15.4-9.1c4.4-3.8,7.3-8,8.8-12.5l18.8,5.6
				c-2.6,6.9-7,13.1-13,18.6c-6.1,5.5-13.2,9.8-21.3,12.9S679.8,1635.4,670.4,1635.4z"/>
			<path class="st2" d="M823.3,1635.4c-10.6,0-20.4-2-29.3-6c-8.9-4-16.5-9.5-23-16.4c-6.4-7-11.4-14.9-15-23.9
				c-3.5-9-5.3-18.5-5.3-28.5c0-10.4,1.8-20.1,5.3-29.1c3.5-9,8.6-17,15.1-23.9c6.5-7,14.2-12.4,23.1-16.4c8.9-4,18.5-6,29-6
				c10.5,0,20.1,2,28.8,6c8.8,4,16.4,9.5,23,16.4c6.5,7,11.6,14.9,15.1,23.9c3.5,9,5.3,18.7,5.3,29.1c0,10-1.8,19.5-5.3,28.5
				c-3.5,9-8.5,17-15,23.9c-6.4,7-14.1,12.4-23,16.4C843.4,1633.4,833.8,1635.4,823.3,1635.4z M770.1,1560.8
				c0,10.8,2.4,20.5,7.1,29.3s11.2,15.8,19.2,20.9c8,5.1,16.9,7.6,26.6,7.6c9.7,0,18.6-2.6,26.6-7.8c8-5.2,14.5-12.3,19.3-21.3
				c4.9-9,7.3-18.9,7.3-29.6c0-10.6-2.4-20.3-7.3-29.2c-4.9-8.9-11.3-15.9-19.3-21.1c-8-5.2-16.9-7.8-26.6-7.8
				c-9.7,0-18.6,2.7-26.6,8.1c-8,5.4-14.4,12.5-19.2,21.3C772.5,1540,770.1,1549.9,770.1,1560.8z"/>
			<path class="st2" d="M928.3,1428.2h19v172.4c0,7.3,1.3,12.1,3.9,14.4c2.6,2.3,5.8,3.4,9.5,3.4c3.4,0,6.7-0.4,10.1-1.1
				c3.4-0.7,6.3-1.5,8.7-2.2l3.4,15.4c-3.5,1.5-7.9,2.7-13,3.6c-5.1,0.9-9.6,1.4-13.3,1.4c-8.6,0-15.4-2.5-20.6-7.6
				c-5.1-5.1-7.7-12-7.7-20.8V1428.2z"/>
			<path class="st2" d="M1003.6,1456.2v-28h19v28H1003.6z M1003.6,1632.6v-145.9h19v145.9H1003.6z"/>
			<path class="st2" d="M1071.7,1632.6v-130.8h-20.2v-15.1h20.2v-3.9c0-11.9,1.7-22.2,5.2-30.8c3.5-8.6,8.4-15.2,14.8-19.7
				c6.4-4.6,14-6.9,22.8-6.9c5.8,0,11.4,0.8,16.8,2.5c5.4,1.7,10.1,3.9,14,6.7l-5.9,13.7c-2.4-2.1-5.6-3.6-9.5-4.8
				s-7.8-1.7-11.8-1.7c-8.8,0-15.5,3.5-20.3,10.4c-4.8,6.9-7.1,16.9-7.1,30v4.5h40.3v15.1h-40.3v130.8H1071.7z"/>
			<path class="st2" d="M1220.1,1635.4c-10.5,0-20.2-2-29.1-6s-16.7-9.5-23.2-16.5c-6.5-7-11.6-15-15.3-24.1s-5.5-18.9-5.5-29.3
				c0-13.5,3.1-25.9,9.4-37.2c6.3-11.3,14.9-20.3,25.9-27.1c11-6.8,23.5-10.1,37.5-10.1c14.4,0,26.9,3.4,37.7,10.3
				c10.7,6.9,19.2,15.9,25.3,27.1c6.2,11.2,9.2,23.5,9.2,36.8c0,1.5,0,2.9,0,4.3s-0.1,2.5-0.3,3.2h-124.9
				c0.9,10.4,3.9,19.6,8.8,27.7c4.9,8.1,11.4,14.5,19.3,19.2c7.9,4.7,16.6,7.1,25.9,7.1c9.5,0,18.5-2.4,27-7.3
				c8.5-4.9,14.4-11.2,17.8-19l16.5,4.5c-3,6.9-7.6,13.2-13.7,18.8c-6.2,5.6-13.4,9.9-21.7,13
				C1238.5,1633.9,1229.6,1635.4,1220.1,1635.4z M1166.3,1553.1h107.8c-0.7-10.5-3.6-19.8-8.5-27.7c-4.9-7.9-11.4-14.2-19.3-18.7
				c-7.9-4.5-16.7-6.8-26.2-6.8s-18.2,2.3-26,6.8c-7.8,4.5-14.2,10.8-19.2,18.8C1169.9,1533.6,1167.1,1542.8,1166.3,1553.1z"/>
		</g>
	</g>
</g>
<g id="Layer_3">
</g>
</svg>
