<?xml version="1.0" encoding="utf-8"?>
<svg id="master-artboard" viewBox="0 0 146.62704467773438 155.03604125976562" version="1.1" xmlns="http://www.w3.org/2000/svg" x="0px" y="0px" style="enable-background:new 0 0 1096 780;" width="146.62704467773438px" height="155.03604125976562px"><rect id="ee-background" x="0" y="0" width="146.62704467773438" height="155.03604125976562" style="fill: white; fill-opacity: 0; pointer-events: none;"/>






<g transform="matrix(1, 0, 0, 1, -639.1617431640625, -25.118427276611328)">
	<path d="M706.9,46.5c2.9-6,7.7-6,10.7,0l10.9,22.1c2.9,6,10.7,11.6,17.3,12.6l24.4,3.5c6.6,1,8.1,5.5,3.3,10.2L755.8,112&#10;&#9;&#9;c-4.8,4.6-7.7,13.8-6.6,20.3l4.2,24.3c1.1,6.5-2.8,9.4-8.6,6.3l-21.8-11.5c-5.9-3.1-15.5-3.1-21.4,0l-21.8,11.5&#10;&#9;&#9;c-5.9,3.1-9.8,0.3-8.6-6.3l4.2-24.3c1.1-6.5-1.9-15.7-6.6-20.3L651,94.8c-4.8-4.6-3.3-9.2,3.3-10.2l24.4-3.5&#10;&#9;&#9;c6.6-1,14.4-6.6,17.3-12.6L706.9,46.5z" style="fill: rgb(134, 215, 128);"/>
</g>
























</svg>