<?xml version="1.0" encoding="utf-8"?>
<!-- Generator: Adobe Illustrator 22.0.1, SVG Export Plug-In . SVG Version: 6.00 Build 0)  -->
<svg version="1.1" id="master-artboard" xmlns="http://www.w3.org/2000/svg" xmlns:xlink="http://www.w3.org/1999/xlink" x="0px"
	 y="0px" viewBox="0 0 415 344.4" style="enable-background:new 0 0 415 344.4;" xml:space="preserve">
<style type="text/css">
	.st0{fill:#FFFFFF;fill-opacity:0;}
	.st1{fill:#86D780;}
</style>
<rect id="ee-background" class="st0" width="415" height="344.4"/>
<path class="st1" d="M400.7,31.3c0-0.3,0-0.6,0-0.9c0-0.1,0-0.1,0-0.2c0-0.2-0.1-0.5-0.1-0.7c0-0.1-0.1-0.3-0.1-0.4
	c0-0.2-0.1-0.3-0.1-0.5c0-0.1-0.1-0.3-0.1-0.4v-0.1c0-0.1-0.1-0.2-0.1-0.3c0-0.1-0.1-0.3-0.1-0.4c-0.1-0.3-0.2-0.5-0.4-0.8
	c0-0.1-0.1-0.1-0.1-0.2c-0.1-0.2-0.2-0.4-0.3-0.6c-0.1-0.1-0.1-0.2-0.2-0.2c-0.1-0.2-0.2-0.3-0.4-0.5c-0.1-0.1-0.1-0.1-0.2-0.2
	c-0.2-0.2-0.3-0.4-0.5-0.5l-0.1-0.1c-0.2-0.2-0.4-0.4-0.7-0.6l-0.1-0.1c-0.2-0.2-0.4-0.3-0.6-0.4c-0.1-0.1-0.2-0.1-0.3-0.2
	c-0.2-0.1-0.3-0.2-0.5-0.3c-0.1-0.1-0.2-0.1-0.3-0.2c-0.2-0.1-0.3-0.2-0.5-0.3c-0.1,0-0.2-0.1-0.3-0.1c-0.3-0.1-0.5-0.2-0.8-0.3
	c-0.1,0-0.2-0.1-0.3-0.1c-0.2-0.1-0.4-0.1-0.6-0.1c-0.1,0-0.2,0-0.3-0.1c-0.2,0-0.4-0.1-0.6-0.1c-0.1,0-0.2,0-0.3,0
	c-0.3,0-0.6,0-0.9,0H23c-0.3,0-0.6,0-0.9,0c-0.1,0-0.2,0-0.3,0c-0.2,0-0.4,0.1-0.6,0.1c-0.1,0-0.2,0-0.3,0.1c-0.2,0-0.4,0.1-0.6,0.1
	c-0.1,0-0.2,0.1-0.3,0.1c-0.3,0.1-0.5,0.2-0.8,0.3c-0.1,0-0.2,0.1-0.3,0.1c-0.2,0.1-0.4,0.2-0.5,0.3s-0.2,0.1-0.3,0.2
	c-0.2,0.1-0.3,0.2-0.5,0.3c-0.1,0.1-0.2,0.1-0.3,0.2c-0.2,0.1-0.4,0.3-0.6,0.4l-0.1,0.1c-0.2,0.2-0.5,0.4-0.7,0.6l-0.1,0.1
	c-0.2,0.2-0.3,0.3-0.5,0.5c-0.1,0.1-0.1,0.1-0.2,0.2c-0.1,0.2-0.3,0.3-0.4,0.5c-0.1,0.1-0.1,0.2-0.2,0.2c-0.1,0.2-0.2,0.4-0.3,0.6
	c0,0.1-0.1,0.1-0.1,0.2c-0.1,0.2-0.3,0.5-0.4,0.8c-0.1,0.1-0.1,0.3-0.1,0.4c0,0.1-0.1,0.2-0.1,0.3v0.1c0,0.1-0.1,0.3-0.1,0.4
	c0,0.2-0.1,0.3-0.1,0.5c0,0.1-0.1,0.3-0.1,0.4c0,0.2-0.1,0.5-0.1,0.7c0,0.1,0,0.1,0,0.2c0,0.3,0,0.6,0,0.9v0.1v288.3
	c0,5.6,4.5,10.1,10.1,10.1h367.6c5.6,0,10.1-4.5,10.1-10.1L400.7,31.3C400.7,31.4,400.7,31.3,400.7,31.3z M361.3,41.5
	C309.5,69,257.8,96.5,206,124C154.8,96.5,103.5,69,52.3,41.5H361.3z M47,298c-4.6-82-9.3-163.9-13.9-245.9l167.5,131.3
	c1.8,1.4,4,2.2,6.2,2.2s4.4-0.7,6.2-2.2L380.5,52.1c-4.8,82-9.7,163.9-14.5,245.9C259.7,298,153.3,298,47,298z"/>
</svg>
