<?xml version="1.0" encoding="utf-8"?>
<!-- Generator: Adobe Illustrator 22.0.1, SVG Export Plug-In . SVG Version: 6.00 Build 0)  -->
<svg version="1.1" id="Layer_1" xmlns="http://www.w3.org/2000/svg" xmlns:xlink="http://www.w3.org/1999/xlink" x="0px" y="0px"
	 viewBox="0 0 1186.1 842.6" style="enable-background:new 0 0 1186.1 842.6;" xml:space="preserve">
<style type="text/css">
	.st0{fill:url(#SVGID_1_);}
	.st1{clip-path:url(#SVGID_7_);}
</style>
<linearGradient id="SVGID_1_" gradientUnits="userSpaceOnUse" x1="1100.25" y1="-85.75" x2="85.75" y2="928.75">
	<stop  offset="0" style="stop-color:#D2FFEC"/>
	<stop  offset="1" style="stop-color:#B8E0FF"/>
</linearGradient>
<rect class="st0" width="1186" height="843"/>
<g>
	
		<image style="overflow:visible;opacity:0.57;" width="424" height="782" xlink:href="E65E0A1995664910.png"  transform="matrix(1 0 0 1 392.4803 45.4803)">
	</image>
	<g>
		<g>
			<defs>
				<path id="SVGID_2_" d="M739.8,773H446.2c-12.3,0-22.2-9.9-22.2-22.2V99.2c0-12.3,9.9-22.2,22.2-22.2h293.6
					c12.3,0,22.2,9.9,22.2,22.2v651.6C762,763.1,752.1,773,739.8,773z"/>
			</defs>
			<clipPath id="SVGID_3_">
				<use xlink:href="#SVGID_2_"  style="overflow:visible;"/>
			</clipPath>
			<g style="clip-path:url(#SVGID_3_);">
				
					<image style="overflow:visible;" width="676" height="1392" id="Layer_0_16_" xlink:href="E65E0A1995664911.png"  transform="matrix(0.5 0 0 0.5 424 77)">
				</image>
			</g>
		</g>
	</g>
</g>
<g>
	
		<image style="overflow:visible;opacity:0.77;" width="426" height="783" xlink:href="E65E0A1995664917.png"  transform="matrix(1 0 0 1 8.4803 43.4803)">
	</image>
	<g>
		<g>
			<defs>
				<path id="SVGID_4_" d="M353.8,769H60.2c-12.3,0-22.2-9.9-22.2-22.2V95.2C38,82.9,47.9,73,60.2,73h293.6
					c12.3,0,22.2,9.9,22.2,22.2v651.6C376,759.1,366.1,769,353.8,769z"/>
			</defs>
			<clipPath id="SVGID_5_">
				<use xlink:href="#SVGID_4_"  style="overflow:visible;"/>
			</clipPath>
			<g style="clip-path:url(#SVGID_5_);">
				
					<image style="overflow:visible;" width="680" height="1394" id="Layer_0_15_" xlink:href="E65E0A1995664912.png"  transform="matrix(0.5 0 0 0.5 37 72)">
				</image>
			</g>
		</g>
	</g>
</g>
<g>
	
		<image style="overflow:visible;opacity:0.77;" width="408" height="767" xlink:href="E65E0A1995664913.png"  transform="matrix(1 0 0 1 783.9843 53.9843)">
	</image>
	<g>
		<g>
			<defs>
				<path id="SVGID_6_" d="M1123.8,774H830.2c-12.3,0-22.2-9.9-22.2-22.2V100.2c0-12.3,9.9-22.2,22.2-22.2h293.6
					c12.3,0,22.2,9.9,22.2,22.2v651.6C1146,764.1,1136.1,774,1123.8,774z"/>
			</defs>
			<clipPath id="SVGID_7_">
				<use xlink:href="#SVGID_6_"  style="overflow:visible;"/>
			</clipPath>
			<g id="J0Prug.tif_6_" class="st1">
				
					<image style="overflow:visible;" width="678" height="1396" id="Layer_0_14_" xlink:href="E65E0A199566491E.png"  transform="matrix(0.5 0 0 0.5 807 77)">
				</image>
			</g>
		</g>
	</g>
</g>
</svg>
