<?xml version="1.0" encoding="utf-8"?>
<!-- Generator: Adobe Illustrator 22.0.1, SVG Export Plug-In . SVG Version: 6.00 Build 0)  -->
<svg version="1.1" id="master-artboard" xmlns="http://www.w3.org/2000/svg" xmlns:xlink="http://www.w3.org/1999/xlink" x="0px"
	 y="0px" viewBox="0 0 711.6 294.9" style="enable-background:new 0 0 711.6 294.9;" xml:space="preserve">
<style type="text/css">
	.st0{opacity:0.36;fill:#F08B3D;enable-background:new    ;}
	.st1{opacity:0.36;fill:#5A288E;enable-background:new    ;}
	.st2{opacity:0.45;fill:#DA5B4D;enable-background:new    ;}
	.st3{opacity:0.38;fill:#F08B3D;enable-background:new    ;}
	.st4{opacity:0.38;fill:#5A288E;enable-background:new    ;}
	.st5{opacity:0.6;fill:#DA5B4D;enable-background:new    ;}
</style>
<path class="st0" d="M377.7,38c-0.5-0.8,0.7-1.4,2.5-1.6c2.7-0.3,4.6,0.1,6.3,1.1c1.9,1.2,4.8,1.5,6.9,0.8c0.6-0.2,1.3-0.6,1.2-1
	c0-0.3-0.8-0.7-1.4-0.9c-0.5-0.2-1.4,0-2.1-0.1c-3.6-0.3-5.1-1.6-4-3.2c0.3-0.5,0.4-1,0.6-1.7c-5,0.1-9.6,0.2-14.1,0.3
	c-1.6,0-2.8,0-2.9-0.9c3-1.5,6.7-1.7,10.9-1.5c3.2,0.2,6.3,0.3,8.6,1.5c1.4,0.8,3.3,0.8,5.2,0.3c-0.7-0.1-1.2-0.4-0.5-0.7
	c0.7-0.4,1.5-0.7,2.2-1.1c-0.5-0.1-0.8-0.4-0.3-0.7c0.2-0.1,0.4-0.2,0.6-0.3c-0.5-0.1-0.9-0.2-1.3-0.4c-0.6-0.2-0.6-0.6,0-0.8
	c0.4-0.1,0.8-0.2,1.1-0.3c-2-0.2-4-0.5-5.9-0.8v-0.7c2-0.3,3.9-0.5,7-0.9c-3.8-0.9-6.5-1.9-9.6-2.2c-3-0.3-6.3,0.1-9.5,0.1
	c-0.2-0.1-0.4-0.3-0.5-0.4c2.1-1.1,4.2-2.2,6.6-3.4c-1.2-0.1-2.1-0.3-2.7-0.2c-2.7,0.4-5.1,0.3-7.7-0.2c-0.9-0.2-2-0.1-3.1-0.1
	c-0.4,0-0.8,0.3-1.1,0.4c0.5,0.7,0.9,1.3,1.6,2.4c-3-0.3-5.1-0.8-7.2-0.8c-2.4,0-4.7,0.5-7.1,0.7c-1.9,1.6-1.9,1.6-5.6,2.1
	c-4,0.6-8.2,1-12,1.7c-3.5,0.7-6.7,0.7-10.2,0.2c-1.4-0.2-3.3-0.5-4.5-0.2c-4.4,0.9-8.5,0.7-12.3-0.2c-4.5,1.1-8.6,2.1-12.9,3
	c-1.2,0.2-3-0.1-4.4-0.4c-6.1-1.1-12.6-0.8-18.8-1.2c-0.7,0-1.5,0.5-2.3,0.5c-1.3,0-3.1,0.1-3.9-0.2c-3.5-1.4-6.8-3-10.2-4.5
	c-1.6-0.7-2.9-1.6-4.7-2.3c-1.6-0.6-5.1-0.4-5.8,0.2c-1.1,1,0.1,1.7,1.8,2.2c2.9,0.9,5.9,1.7,8.9,2.5c1,0.3,2.1,0.6,2.8,1
	c3.8,2.4,8.4,4.5,13.3,6.4c2.2,0.9,1.9,1.7-0.9,2.1c-6.1,0.9-11.9,2.7-18.8,1.4c-0.6-0.1-1.5,0-2,0.2c-1.5,0.4-1.8,0.9-0.5,1.5
	c2,0.5,4.3-1.3,6.3,0.3c-0.6,0.8-1.2,1.7-1.9,2.9c-1.7-0.3-2.8-0.5-4.8-0.9c2.7,2.4,1,3.7-2.6,4.9c-2.7,0.9-5.5,1.9-7.4,3.7
	c5.2-0.6,8.9,0,12.3,1.4c1,0.4,3,0.6,4.3,0.5c3.8-0.3,7.6-0.8,11.4-1.1c2-0.2,4.1-0.1,6.2-0.4c3.4-0.3,5.9,0.6,8.8,1.4
	c0.5-0.5,0.9-0.9,1.1-1.2c0.2-0.4,0.2-0.9,0.4-1.6c7.1,1.4,13.9,2.5,21.2,1.5c0.9,0.7,1.6,1.3,2.7,2.3c1.5-2.4,4.9-3.2,9.2-3.4
	c1.2-0.1,2.6-0.3,3.3-0.7c3.9-2,9-1.4,13.5-1.7c0.8,0.6,1.3,1,2,1.6c7.3-2.4,14.7-2.8,22.4-0.8c1,0.3,2.4,0.3,3.6,0.4
	c8.2,0.3,16.5,0.5,24.7,0.7c0.2,0,0.5-0.2,0.9-0.4c-1.5-2.2-8.1-0.8-9.4-2.5c-2.7,0-4.7,0.1-6.7,0c-2.1-0.1-4.1-0.4-6.1-0.7
	c-2-0.2-4-0.4-6.8-0.7c0.7-1.1,0.7-2.4,1.9-2.7c2.8-0.8,4.5,0.6,6.4,1.4c5.2-1.4,10.1-0.6,14.8,0.3c3.7,0.7,6.5,0.2,8.4-1.4
	c-4.9-0.4-9.8-0.8-14.7-1.2C379.4,39,377.9,38.4,377.7,38z M276.7,29.3c-0.6,0.1-1.3-0.2-2.4-0.3c1.6-0.6,2.1-0.8,2.6-1
	c0.4,0.2,1.1,0.5,1.1,0.7C277.9,28.9,277.3,29.2,276.7,29.3z"/>
<path class="st1" d="M260.3,151.8c-2.3-1.7-7-0.8-6.7-4.2c1.7,0.3,3.2,0.5,4.7,0.7c-0.7-1.7-1.3-3-1.8-4.4c-0.6-1.6-1.5-2.7-4.2-2.8
	c-1.3-0.1-2.6-0.5-3.9-0.8c-2.6-0.6-5.3-1.6-7.9-1.6c-9.1-0.2-18.2-0.2-27.4-0.2c-2.4,0-4.9-0.1-7.3,0.2c-2.1,0.2-4,0.9-3.4,3
	c0.2,0.6-0.6,1.9-1.5,2.1c-3.5,1.1-4.6,3.3-5.7,5.5c-0.3,0.7-0.6,1.6-1.4,1.9c-1,0.5-2.6,0.9-3.7,0.7c-1.4-0.2-2.1-1.2-1.3-2.4
	c0.6-0.8,1.4-1.9-1.1-2.4c-0.4,1-0.8,2-1.4,3.3c-2.3-0.7-4.4-1.3-7.4-2.3c3.2-1.2,5.4-2,7.7-2.8c-1.8-1.8-3.4-3.6-5.2-5.2
	c-0.4-0.3-1.2-0.6-1.8-0.7c-3.4-0.2-6.3-2.1-10-1.5c-1.2,0.2-2.7-0.3-4.1-0.6c-3.1-0.7-6.2-1.6-9.3-2.3c-4.1-1-8.2-2.1-12.5-2.8
	c-5.1-0.9-9.9-2.8-15.8-1.8c-3.1,0.5-7.3-0.8-8.5-3.4c-1.1-2.3-3.3-3.1-6.1-3.4c-4-0.5-8-1.1-12-1.4c-1.9-0.1-4.6,0.1-5.8,0.9
	c-1.7,1.2-6.1,1.2-4.7,4.1c0.1,0.2-0.4,0.6-0.7,0.8c-2.8,1.9-5.6,3.7-8.6,5.7c1.7,1.1,2.9,1.8,3.8,2.4c-0.8,2.4-1.5,4.5-2.2,6.6
	c-0.5,1.7-1.6,2.6-4.3,2.5c-2.6-0.1-5.1,0.1-5.4-2.5c1.3-0.5,2.6-0.9,4.5-1.6c-5.2-1.6-9.9-3-14.5-4.5c0.1-0.2,0.2-0.4,0.3-0.7
	c1.6,0.1,3.1,0.3,5.8,0.5c-3.1-1.5-5.3-2.6-7.8-3.8c-2.3,2.5-4.6,4.8-2.9,7.7c-3.5,2-6.7,3.9-9.5,5.5c-0.1,3.9,5,7,0.6,10.4
	c2.9,2.4,8.7-0.1,10.5,3.5c-3.8,0.2-4,0.3-5.6,1.6c-1.5-0.5-3-0.9-4.9-1.5c0.3,1.3,0.8,2.2,0.5,3c-0.3,0.9-1.4,1.6-2.2,2.4
	c0.8,1,1.5,1.9,2,2.6c-1.3,2.1-2.5,4-3.7,5.9c-1-0.1-2.4-0.2-3.7-0.3c-0.1,0.2-0.2,0.4-0.2,0.6c1.5,0.9,3.1,1.7,4.4,2.5
	c-1.5,1.2-3.9,2.1-3.9,3.1c0,2.3-0.4,5.3,2.5,6.7c2.5,1.2,6.4,1.8,9.4,1.5c3.4-0.4,6.7-0.1,9.2,0.9c3.2,1.3,6.3,1.2,9.5,1.5
	c2.8,0.2,5.5,0.6,8.3,1c3.5,0.5,6.9,1.5,10.3,1.5c5.5,0.1,10.3,1.3,15,3c5.6,2,11.4,4,18,1.9c0.3-0.1,0.7,0,1.1,0.1
	c0.1,0.4,0.3,0.9,0.4,1.2c5.3,0.3,10.6,0.6,16,1c0.8-1.8-0.6-2.4-2.6-2.4c-6.2,0-12.2-1-18.2-2.1c-8.1-1.5-16.4-2.7-24.6-4.1
	c-1-0.2-1.9-0.5-2.8-0.8c3.6-0.2,7-0.2,10.4,0.3c5.8,0.7,11.6,1.6,17.4,2.6c8.1,1.4,16.3,1.8,24.6,1.7c4-0.1,8,0.6,12,1.1
	c1.7,0.2,2.2,1.1,0.5,2.3c-3.6-1.1-7-1.3-9,1.3c1.9,2.2,3.5,4.2,5.3,6.3c2.1-1,3.6-2.6,6.3-1.1c0.6,0.3,2,0,3-0.1
	c4.2-0.7,8.3-0.7,12.6-0.3c3.1,0.3,6.3,0,9.4,0.1c1,0,2.5-0.1,3.1,0.3c3.5,2.5,8.3,1.5,11.1,2.3c2.3-0.8,3.7-1.3,5.2-1.8
	c-3.6-0.5-7-1.7-10.6,0.1c-0.9-0.9-1.9-1.8-3.3-3.1c-2.3,2.7-5.8-0.8-8.4,1.2c-1.8-1.9-5.2-1.6-8.2-2.9c7.7-2,14.6-0.7,21.5,0
	c7.7,0.8,15.2,2.2,22.8,3.3c2.1,0.3,4.2,0.3,6.3,0.4c1.9,0.1,2.3-0.8,2.2-1.9c0,0-0.1,0-0.1,0.1c-0.1-0.1-0.1-0.1-0.2-0.1
	c-1.2-0.1-2.5-0.3-4-0.5c2.5-0.8,2.6-0.8,4,0.5c0.1,0,0.2,0,0.3,0l0,0c2.4-1,4.6-1.9,7.6-1.8c1.8,0.1,3.5-0.7,3.2-2.3
	c-0.4-2.1,1.4-2.6,3.7-2.8c2.7-0.2,4.7-0.9,5.5-2.8c-1.1-2.5-7-2.6-6.3-6.3c4.5,0.6,8.7,1.3,14,2c-1-1.9-1.3-3.1-2.3-4
	c-1.5-1.3-3.3-2.5-5.3-3.5c-2.2-1.1-1.5-1.9-0.1-3.2c1.5,0.5,2.8,0.9,4.2,1.3c0.9-2.4,0.8-2.9-1.9-3.3c-3.4-0.5-6.8-0.5-10.4-0.8
	c-0.3-1.6-0.6-3.2-0.8-4.6c3.2-1.8,6.4-3.5,9.7-5.3c-0.6-0.7-2.4-2.3-2.3-2.4c2.4-1.5-1.1-2.7-0.2-4.2c3.5-0.3,6.9-0.6,9.9-0.9
	c2.3-1.9,1-3.4-0.5-4.8C257.8,152.3,258.8,152.1,260.3,151.8z M63.3,187.1c-0.1-0.3-0.1-0.5-0.2-0.8c2.4-0.9,2.4-0.9,6.1,0.3
	C66.6,186.8,64.9,187,63.3,187.1z M63.2,164.7c0.6-0.4,0.8-0.6,1-0.6c1.5,0.2,2.9,0.4,2.4,2.1C65.4,165.7,64.3,165.2,63.2,164.7z
	 M69.2,162.2c1.7,0.7,3.4,1.1,4.3,2c0.8,0.8,0.8,2.1,1.1,3.1C69,167,68.5,166.5,69.2,162.2z M70.6,185.8c3.2-1.2,4.8,0.1,7.7,1.3
	C74.8,187.5,72.6,188,70.6,185.8z M73.8,157.1c0.7,0.8,1.3,1.5,2.3,2.6c-5.1,0.2-8.7-0.9-12.6-2.2c2.5-2.3,5-1,7.6-0.6
	c1.9-1.3,4.1-2.7,7.5-0.9C77,156.3,75.5,156.7,73.8,157.1z M89.1,189.6c-1.2-0.2-2.5-0.3-3.7-0.5c0.1-0.2,0.2-0.5,0.3-0.7
	c1.2,0.2,2.4,0.5,3.6,0.7C89.2,189.3,89.1,189.4,89.1,189.6z M186.4,156.5c-0.2-0.5-0.5-0.8-0.5-1.2c0-0.1,1-0.4,1.2-0.3
	c0.4,0.2,0.6,0.6,0.9,1C187.6,156.1,187.1,156.2,186.4,156.5z M75.7,137.6c-1.3-0.3-2.7-0.7-4-1c0.1-0.2,0.2-0.4,0.3-0.5
	c1.3,0.3,2.7,0.7,4,1C75.9,137.2,75.8,137.4,75.7,137.6z M100.6,196.1c0.9,0.2,1.9,0.3,2.8,0.5c-0.1,0.3-0.2,0.6-0.3,0.8
	c-0.9-0.2-1.9-0.5-2.8-0.7C100.4,196.5,100.5,196.3,100.6,196.1z"/>
<path class="st2" d="M557.9,87.3c1.1-0.3,2.2-0.7,3.3-1.1c0.9-0.3,2.1,0,2.8-1.5c-1.2,0.2-2.5,0.7-3.3,0.6c-0.7-0.1-1-0.9-1.4-1.7
	c-2.3,1.8-3.8,2.1-5.7,2c-1.7-0.1-3.8-0.6-6.6,1.4c-0.6,0.4-1.3,0.4-2.1,0.7c0.2-0.3,0.4-0.6,0.7-0.9c0.9-0.6,1.8-1.2,3.2-2.1
	c-3.2-0.4-7.2,1-9.5-0.5c1.1-0.3,1.8-0.6,2.6-0.7c1.3-0.1,2.4,0,3.7-0.4c5.4-1.6,10.7-3,15.1-2.6c0.3,0,0.6,0.1,0.9,0
	c3-1.5,4.9-1,7.1-1.1c3.5,0,7.8-0.9,10,0.2c1.9-0.6,3.9-1.5,4.8-1.3c2.3,0.5,4.3,1.3,6.5,2.1c-2.3,2-5.2,2.5-6.6,4.8
	c1.2,0.1,2.4,0.3,3.8,0.4c0.4,0,1.3-0.1,1.5-0.3c1.9-1.7,2.5-1.1,3.3-0.6c0.5,0.4,1.7,0.1,2.6,0.3c0.5-0.8,0.7-1.4,0.8-1.7
	c-0.9-0.3-1.5-0.7-2.2-1c0.2-0.2,0.3-0.4,0.5-0.6c-1.6,0.6-3.3,1.2-4.9,1.9c0.9-1.1,1.4-1.9,2.3-2.9c0.6-0.6,1.4-1.4,1.9-1.5
	c1.9-0.5,4.4-1.3,5-0.8c1.2,0.6,2.6,0.7,4.1,0.8c0.1,0.1,0.3,0.1,0.7,0.1c-0.1-0.6,0-1.1,0-1.4c1.8-1.4,3.4-2.5,5.3-3.9
	c0.2,0.5,0.5,1.1,0.8,1.6c0.7-0.3,1.5-0.6,2.5-1.1c0.5,0.8,0.7,1.4-0.8,2.8c-0.6,0.6-0.7,1.2-1,1.9l6.3-3.6c0.3,1.1-1.7,3.8,1.5,2.8
	c0.5-0.4,1.1-1.1,1.8-1.6c0.6,0.7,1.6,0.9-0.6,2.5c-1.7,1.1-1.8,2-0.7,2.3c1.5-0.8,2.9-1.8,4.3-2.5c1.3-0.6,2.5-0.8,3.8-1.2
	c1.1-0.3,2.9-1.9,3.7-0.8c-2.1,1-4.2,2-4.5,4.2c2.2-1.6,4.3-2.9,5.9-4.3c0.7-0.7,0.4-1.7,0.6-2.8c0.8-0.5,1.8-1.1,2.5-1.6
	c0.3,0.2,0.4,0.3,0.4,0.4c-0.9,2.2,1.3,2.3,2.1,3.4c0,0.2,0.7,0,0.8,0c1.6-1.4,2-0.7,2.1-0.2c0.4,0.5,0.6,1.3,1.2,1.7
	c1.4-0.8,2.6-1.7,4-2.5c0.1-0.1,0.3,0.1,0.6,0.3c-0.7,0.6-1.8,1.3-2.2,1.7c0.3,1.7,0.7,1.9,2.1,0.9c1.7-1.1,3.2-2.4,5.3-3.9
	c-1.4,0.2-2.5,0.4-3.5,0.6c-0.1,0,0-0.3,0-0.3c1.3-0.7,2.7-1.4,4.7-2.4c0.2,2,4.1,1.5,2.1,5c-0.3,0.4,0.6,0.6,1.1,1.1
	c1.8-2.1,3.4-4,5.5-6.3c-1.6,0.5-2.7,1-3.9,1.3c-1.2-0.7-2.5-1.4-4-2.5c1.4-0.4,2.2-0.7,3.3-1c-0.1-1-0.1-1.9-0.3-2.8
	c0.6,0,1.1-0.2,1.7-0.3c0.2-1.1-0.7-1.4-1.9-0.8c-1.8,0.7-1.9-0.1-2.1-0.8c-0.7,0.4-1.3,0.7-2,0.9c-1.6,0.4-2.2-0.5-1.4-1.7
	c1.7-2.1,1.6-2.6-0.2-2.6c-1,0-1.9,0-3.1,0.1c0.3-2-0.8-3.2-2.7-3.1c-2.9,0.2-4.1-0.9-4.9-2.4c-0.4-0.9-1.2-1.8-2.3-2
	c-1.9-0.2-2.5-0.9-1-3.2c-2.9,1.4-5.5,1.5-6,0c-0.4-1-1.1-1.3-2.4-1.3c-3-0.3-5.8-0.8-8.5-1.4c-1.3-0.3-1.2-0.6,0.9-2.1
	c0.3-0.9,1.3-1.3,2.1-1.7c-0.2-1.4-0.9-2.3-3.1-2.2c1.3-0.5,2.5-0.9,3.7-1.4c0.4-0.9,0.6-1.8,1.2-2.8c0.6,0,1-0.1,1.4-0.2
	c0.4,0,0.6-0.2,1.1-0.3c0.4-1.8-1.7-0.7-2.7-0.8c-2.6-0.5-5.8-0.6-9.4,0c-1.6,0.3-2.7-0.2-4.1-0.3c-0.5,0-1,0-1.4,0
	c-1.3,0.1-2.6,0.2-3.9,0.3c-1.5,0-3,0.1-3.9,0.2c-0.7-0.8-1-1.5-1.9-1.7c-1.5-0.1-2.8,1.4-4,2.6c-1,0.1-1.8,0.4-2.4,0.4
	c-0.3,0-0.5-0.2-0.7-0.1c0.6-0.6,1-1.1,1.7-1.6c-0.6-0.8-1.4-0.2-2.6,0.7c-2.4,1.7-3.8,1.8-4.8,0.6c-0.4,0.2-0.8,0.4-1.4,0.7
	c0.4-1.2,0.3-2.1,0.8-3.5c-2,1.7-4.9,2-5,4.6c-3,0.3-5.7,0.6-8.4,0.9c-1.3,0.1-2.4,0.2-3.7,0.4c-3.3,0.7-6.6,1.5-10,2.2
	c-1.2,0.3-2.3-0.1-3.4,0.5c-3,1.8-5.8,2.3-8.6,3.5c-0.1,0.1-0.3,0-0.5-0.2c0.3-0.5,0.6-1.1,0.7-1.5c-2.2-0.7-4.5,2.5-6.9,3
	c-0.1-0.6-0.2-1.2-0.2-2l-9.5,5.4c0,0,0,0,0.1,0c0,0,0,0-0.1,0.1c-0.3,1-1.1,1.5-2.5,1.9c0.8-1.2,1.3-1.8,2.5-1.9l0,0l0,0
	c-0.1-0.3-0.3-0.4-0.4-0.6c-1.5,0.6-3.7,1.9-4.2,1.6c-1.1-0.5-3.1,0.7-4.3,0.6c-0.4,0-1.4,0.4-1.9,0.8c-0.3,0.3-0.4,0.9-0.5,1.3
	c-1.9,1.1-3.5,2-5.3,3c-1.6,0.9-3.2,2-4.6,2.7c-1.6,0.9-2.3,0.8-2-0.4c0.1-0.4,0.4-1,0.6-1.5c-2.5,1-2.5,1-4.8,3.1
	c-3.1,3.1-6.4,4.1-8,2.7c-0.3-0.3-1.6,0-2.5,0c-0.8,2.2-3,4.3-5,5.1c-5,1.9-9.9,4.9-14.8,7.9c-0.9,0.5-1.7,1.2-2.4,1.5
	c-3.9,1.6-7.7,3.2-11.2,6.7c-0.2-0.5-0.3-0.9-0.7-1c-0.3-0.2-0.6-0.3-0.9-0.4c-2.2,1.8,0.2,1.3,0,2.2c-2.4,0.9-4.7,0.8-6.9,3.1
	c-0.1,0.6-0.2,1.1-0.3,1.8c-1.8-0.4-4,1.2-4.8,2.1c-2.2,2.4-4.1,4.2-7.2,5c-1.4,0.4-2.9,1.3-4.3,2.1c-1.3,0.7-2.7,1.4-4.3,2.2
	c-0.1-0.9,0-1.8-0.1-2.8c-1.3,0.7-3,1.2-4,2c-3.5,2.9-6.9,5.9-10.4,8.8s-6.9,5.9-10.3,8.9c-3.6,3.3-7.2,6.6-10.8,10
	c-5.1,5-10.1,10-13.7,15.3c-2.3,3.3-3.7,6.6-7.5,9.9c-1,0.8-1.2,1.9-2.1,3c-2.1,2.7-2.6,5.8-7.1,8.2c-0.1,0.1-0.4,0.4-0.4,0.5
	c-1.1,2.4-3.5,4.7-5.6,6.8c-3.2,3.3-3.1,5.6-4,8.3c-0.1,0.4,0.7,0.8,1.3,0.9c0.5,0.2,1.3,0,2,0c-0.6,1.3-1,2.6-1.4,4
	c2-1,3.7-1.8,5.4-2.6c0.5-0.2,1.7-0.5,1.7-0.2c0.3,0.2-0.2,1-0.7,1.5c-2.9,2.6-4.5,5.3-5.5,8.1c3-1,4.4-0.2,5.7,0.9
	c1.9-1.2,3.6-2.3,5.3-3.4c0,0.2,0.3,0.2,0.2,0.4c-2.5,2.1-5.2,4.2-8.2,6.6c1.6-0.4,2.5-0.5,3.9-0.8c-2.1,2.8-4.7,5.7-2.6,7.2
	c4-2.5,8.1-5,12.3-7.6c0.1-0.1,0.2-0.2,0.3-0.3c1.6-1.1,3.3-2.4,4.7-3.3c4.8-3,9.8-6.1,14.6-8.8c3-1.7,6.3-3.1,9.4-4.1
	c2.7-0.9,5.3-1.8,8.2-3.3c0.7-0.4,1.1-0.5,1.8-0.9c0.1-0.1,0.1-0.3,0.2-0.3c10.6-8.3,22-15.9,33.3-23.1c-0.1,0-0.1,0,0-0.2
	c0.5-0.4,1.1-1.1,1.6-1.5c4.4-3.3,8.8-6.7,13.3-10.1c1.6-1.3,3.1-2.4,4.5-3.7c1.9-1.7,3.4-3.7,6.3-4.3c0.4-0.2,0.9-0.6,1.4-0.9
	c3.6-2.7,7.1-5.4,10.5-8.1c1.7,0.1,3.2,0.5,4.8,0.6c2-1.3,3.9-2.1,6-2.8c1.7-0.6,3.3-1.2,4.9-2c-0.6,0.1-1,0-1.7,0.1
	c1.7-2.3,2.3-2.6,3.8-1.9c1-0.8,2-1.6,3.5-2.9c-0.3,0.9-0.5,1.6-0.7,2.1c2.6-1.4,5-2.7,7.4-3.5c0.9-1.9,3.7-3.4,4.9-5.3
	c0.6-0.8,1.4-1.5,2.3-2.5c-3,1.2-0.7-1.7-3-1.4c1.5-0.8,2-1,3-1.5c0.2-1-0.8-2.1,2.3-3.4c0,0.2,0.2,0.3,0.3,0.4
	c0.2,0.1,0.3,0.3,0.8,0.6c0.7-3.2-0.6-3.2-6.4-0.2c2.1-2.7,4.4-2.9,6.8-3.7c-1.8-1.1-5,0.5-7.4,0.8c1.9-1.3,3.3-1.8,4.9-2.1
	c1.5-0.3,3.3-0.6,4.7-1.4c2.2-1.2,3.4-1.4,4.4-0.7c0.5,0.4,0.8,1.2,2.7-0.1c-0.3-0.9,0.2-2.1,2.3-3.3c3.4,0,8.8-3.1,10.8-1.1
	c1.5-0.7,3.1-1.9,4.2-2C552.1,86.7,556.1,85.8,557.9,87.3z M646.5,72.9c-0.2,0.2-0.4,0.5-0.9,0.8c-0.3,0.2-0.5,0.2-1.4,0.4
	c0.9-0.7,1.3-1.1,1.5-1.1C646.2,72.8,646.3,72.9,646.5,72.9z M645.4,70.8c-0.8,1.6-1.5,2.1-3.2,2C643.6,71.9,644.2,71.4,645.4,70.8z
	 M621.6,78.5c-0.4,0-0.8,0-0.9,0c0-0.3,0.3-0.7,0.4-1c0.4,0,0.6,0,1-0.2C622.2,77.7,622,78,621.6,78.5z M614.5,41.9
	c0.3,0,0.8,0,1,0.1c0,0.2-0.2,0.5-0.7,1.3c-0.5-0.2-0.8-0.1-0.9-0.3C614.1,42.6,614.3,42.3,614.5,41.9z M616.8,46.9
	c-2.1,1.7-2.6,0.9-3.4,0.9c0.1-0.3,0.3-0.4,0.4-0.6C614.6,47.1,615.4,47,616.8,46.9z M613,45c0.5-0.1,1-0.2,1.6-0.4
	c-0.1,0.3-0.3,0.5-0.4,0.7c-0.6,0.1-1.1,0.2-1.5,0.2C612.8,45.3,612.8,45.2,613,45z M622,72.5L622,72.5
	C622.1,72.5,622.1,72.5,622,72.5c1.1-0.8,2.1-1.6,3-2.5c3.6,0.3,3.9,1.9,1.3,5.6c-2.1-0.2-1.2-1.9-0.2-3.7
	C624.8,72.1,623.5,72.3,622,72.5l0,0.2C622,72.7,622,72.5,622,72.5c-0.6,0-1.4,0.1-2.8,0.3C621.4,71.6,621.7,72.2,622,72.5z
	 M613.1,69.1c0.5,0.2,0.7,0.1,1,0.3c-0.2,0.2-0.5,0.6-0.6,0.7c-0.4,0.1-0.6,0.1-0.8,0C612.6,69.8,612.9,69.5,613.1,69.1z M584,43.4
	c0.9-0.7,1.7-1.5,2.6-1.8c1.7-0.8,4.3-0.6,5.5-0.1c-2.7,0.8-5.4,1.6-8,2.4L584,43.4z M592.5,75.3c3.6-1.4,4.4,0.1,6,1.2
	c-4.2,2.5-2.9-1.8-6.9,1.1C591.9,76.4,592.1,75.9,592.5,75.3z M576.7,76.8c1-0.2,2.6-1.7,3.3-0.7c0.4,0.7,3.4-1.2,2.5,1.2
	c-2.4,0-4.4,0.1-6.3,0.1C576.5,77.2,576.6,77,576.7,76.8z M571.2,77.4c0.4-0.2,1-0.4,1.4-0.5c0.4,0,0.6,0.1,0.8,0.3
	c-0.2,0.2-0.2,0.3-0.6,0.6c-0.6,0-1.3,0-1.9,0C571.1,77.7,571.2,77.6,571.2,77.4z M391.3,183.1c-1.2,0.6-2.4,1.2-3.7,1.8
	c0-0.2-0.1-0.2-0.1-0.4l3.7-2.1C391.3,182.6,391.4,182.8,391.3,183.1z M539.6,88c-0.5,0-0.8-0.2-1.2-0.3c0.2-0.2,0.4-0.5,0.6-0.6
	c0.4,0,0.8,0.1,1.4,0C539.9,87.5,539.7,87.9,539.6,88z M666.2,118.3c-1.8,0.5-3.9,2.1-5.6,1.8c-0.1,0-1.5,1.3-2.4,2
	c0.5,0.1,1,0,1.2-0.2c1.1-0.9,1.7-0.8,1.8-0.2c0.2,0.7-0.6,1.3-1.6,1.7c-0.9,0.4-1.8,0.5-2.8,0.8c0.6-2.7,1.3-5.3,2.7-8
	c0.3-0.2,0.5-0.2,1-0.5c0.4,0.7,1,1.2,1.5,1.9c0.7-1.9,1.3-3.7,1.9-5.7c-0.9,0.6-1.3,1-2,1.4c-0.5,0.3-1.1,0.5-1.1,0.5
	c-0.2-1.1-0.6-1.9-0.8-2.7c-0.1-0.9-0.1-1.8-0.1-3c-1.4,1.2-2.3,2.1-3.2,2.9c0.5,0.2,0.9,0.3,1.3,0.6c-3.5,2.4-1,3.4-3.5,5.7
	c1.3-0.4,1.8-0.6,2.7-0.9c-0.2,0.9-0.2,1.7-0.3,2.6c-0.4,2.3-1.5,3.2-5.1,4c0.3-1.7,0.8-3.6,0.8-5.1c0-1.7-0.3-3.3-0.4-5.1
	c2.6-2.5,2.6-2.9,0.9-3.4c-0.7-0.2-1.3-0.5-1.6-1c-0.5-0.8-0.3-1.9-0.9-2.6c-1.1-2-1.6-4.2-0.8-7.2c-1.3,0.5-2.7,1-4.4,1.6
	c0.6,2-1.5,5.3,0.1,6.9c3.3-1.1,3.5-1.1,4,0.1c0.7,1.4,1.2,2.9-2.3,5.6c3.4,0.4,2.7,3.1,2.2,5.6c-0.3,1.6-0.9,3.4-0.4,4.4
	c0.9,1.6-0.9,3.9-1.6,6c0,0.3-1.1,0.9-1.6,1.5c-0.7-2.3-0.1-4.9,0.6-7.5c0.3-1,0.7-2.5,0.2-2.6c-1.2-0.2-0.8-1-0.2-2s1-1.9,0.2-2.5
	c-2.4,2.1-2.9,3.9-2.6,5c0.5,2.1-0.6,4.4-2.8,7.2c-0.1,0.1,0.1,0.3,0.1,0.4c3.7-1.5,4.6-0.9,2.9,2c-0.1,0.3-0.3,0.4-0.4,0.6
	c-1,1-1.1,1.5-0.6,2.1c0.4,0.5,0.2,1.6,0.1,2.6c-0.6,3.5-0.9,6.9-1.6,10.5c-1,5.8-4.9,12.3-8.3,18.6c-0.3,0.4-1.1,0.9-1.5,1.3
	c0.5-1.6,1.5-3.1,2.2-4.6c0.7-1.5,0.7-2.6-0.3-3.6c-0.4,1.1-0.8,2-1.2,2.8c-0.9,1.9-1.5,3.7-2.3,5.5c-2,3.9-3.3,7.9-5.5,11.9
	c-4.1,7.1-8.7,14.2-13.5,21.4c-5.9,9.1-11.8,18.2-19.5,27.5c-1.1,1.3-1.3,2.4-0.7,3.3c0.9-0.8,1.5-1.4,2-2
	c9.1-9.2,15.8-18.7,23.7-28.2c2-2.5,3.7-5.1,5.6-7.6c2-2.7,3.9-5.3,5.9-7.9c1.8-2.5,3.5-4.7,5.4-7.1c2.1-2.8,4.2-5.6,6.4-8.5
	c1.8-2.4,3.7-4.8,4.6-7c1.1-2.6,3.3-5.1,4.7-7.7c0.5-0.8,1.8-1.9,2.8-2.7c2.8-2.2,4.2-4.4,5.6-6.9c-2.2,1.7-4,3.1-6.2,4.8
	c-0.2-0.7-0.5-1.2-0.5-1.6c1.2-2.7,3.1-5.4,7.3-7.5c-0.4-2.2,1.2-4.6,4.5-7.1c0-0.2-0.3-0.2-0.2-0.4c-1.8,0.9-3.4,1.6-5.7,2.6
	c0.6-1.7,1.3-3.1,1.7-4.5c0.3-1,0.8-1.8,2.3-2.6c1.9-1,2.4-2.1,3.4-3.9c-1.7,1.4-2.8,3-4.7,2.9c1.8-1.2,2.4-2.2,2.5-3.4
	c0.1-0.9,1.3-2.4,2.2-3.4c0.4-0.5,2-0.9,2.8-1.3C668.2,117.6,667.1,118,666.2,118.3z M646.1,133.2c-0.3,0-0.6,0.1-0.7,0
	c-0.1,0,0.2-0.4,0.3-0.5c0.3-0.1,0.4-0.2,1.1-0.4C646.4,132.8,646.3,133,646.1,133.2z M655.6,127.3c-1.7,2.4-1,4.6-4,7.2
	c0.4-2.6-0.1-4.9,3.5-8.5C655.3,126.5,655.8,126.9,655.6,127.3z M654.5,124.9c-0.1-0.1-0.5-0.2-0.7-0.2c0.6-0.6,0.9-1,1.7-1.6
	c0,0,0.5,0,0.6,0.1C655.4,124,655,124.4,654.5,124.9z M659.5,125.9c-0.3,0.3-0.8,0.6-1.5,0.9c0-1.1,0.6-1.7,2.7-2.4
	C660,125.3,659.9,125.6,659.5,125.9z M610.5,83.8c-1.4,2.6-0.8,3.9,3.3,4.6c-1.5,0.6-2.9,1.4-2.7,2.5c-0.5,0.2-1.3,0.5-2.4,1
	c2.1-2.8,0.3-3.3-0.6-4.3c-1-1.1-1.8-2.2-3-3.3c-1,0.6-2.2,1.2-3.8,2.2c1.2-0.2,2.3-0.5,3.6-0.7c-1.1,1-1.9,1.7-3.1,2.7
	c1.1,0.3,2,0.5,3.1,0.9c-0.9,0.4-2,0.9-2.2,0.8c-1.1-1.3-2.3-2.6-3.2-3.8c2.6-2.3,4.9-4.3,7.1-6.3c0.7-0.8-1.5-0.9,0.6-2.3
	c0.7,0.5,1.4,0.9,2.2,1.4h-0.1c-0.9,1.1-1.7,2.1-2.8,3.6c0.2,0.4,0.8,1,1.3,1.5c2-1,3.8-1.9,6.1-3.1c-0.2,0.9-0.3,1.7-0.6,3
	C611.9,84.1,611.3,83.9,610.5,83.8z M676.9,99.2c0.4,0.3,0.8,0.8,1.3,1.5c-3.2,2.3-6.1,4.4-7.4,7.1c-0.1,0.3-0.3,0.4-0.2,0.5
	c-1,1.4,0.2,2.1-1.6,3.8c-1.3,1.2-1.9,2.6-2.8,4.1c-1.7-0.2-1-2-0.1-3c2.3-2.5,2-4.1,2.6-6c0.4-1.3,0.6-2.2,2.2-3.8
	c1.5-1.5,2.1-3.2,3.1-4.8c0.4-0.1,0.5-0.1,0.8-0.2c-0.4,1.1-0.7,2.1-1.1,3.2C675.5,102.2,675.1,99.8,676.9,99.2z M570.2,36.1
	c1,0,2.1-0.2,2.5,0.1c0.2,0.4-0.8,1.6,0.3,1.3c0.9-0.2,2-0.8,3.2-1.3c-1-1.1-0.3-2.4,1.7-3.5c1.2-0.6,2-1.3,2.5-2.2
	c0.3-0.4,1-0.8,1.5-1.2c0.4-0.8,0.7-1.5,1.1-2.5c-0.7,0.3-1.8,0.7-1.9,0.8c-0.9,1.6-2,1.7-3.3,2.1c-1.4,0.4-2.7,0.6-4.5,1
	c0.5,1.1,0.9,2,1.2,3C573.2,34.5,571.9,34.4,570.2,36.1z M576.7,31.6c0.3-0.1,0.7-0.3,0.9-0.3c0.1,0,0,0.3-0.2,0.8
	c-0.4,0-0.8,0.2-1,0.1C576.3,32.3,576.6,31.7,576.7,31.6z M661.1,79.3c-3.4,0.4-3.7-1.2-1-4c0.8-0.9,1.2-2.1,1.9-3.2
	c0.4-0.1,0.5-0.1,0.5-0.2C662.4,74.2,665.8,75.2,661.1,79.3z M574.7,84.5c1.2-0.6,2.4-1.2,3.7-1.8c0.6,0.4,1,0.9,1.5,1.5
	c-4.5,1.9-7.1,1.2-10.4,1.4c1.4-1.9,2.9-2.7,4.4-3.2C576,81.9,573.9,84,574.7,84.5z M670.7,93.1c2.2-1.3,4.2-2.7,5-4.6
	c3.1-0.2,3.1-0.2,1.6,2.4c-0.8-0.2-1.2-0.5-2-0.7c-0.8,1.2-1.1,1.9-1.9,3.1C672.7,93.2,671.7,93.1,670.7,93.1z M652.2,81.6
	c-0.5,0.6-1.7,1.7-2.5,1.9c-0.5,0.2-1.7,0.1-1.8-0.4c-0.2-0.5,0.2-1.5,0.3-2.8c1.7-0.1,2.8-0.3,3.7-0.1
	C652.2,80.5,652.3,81.3,652.2,81.6z M582,29.5c0.8-0.1,1.8-0.4,2.5-0.5c0.5,0.8-0.4,2.3,1.7,1.9c0.5-0.1,0.4,1.3,0.7,2.4
	C584.2,32.6,581,32.9,582,29.5z M673.6,97.7c-1.2,0.3-2.3,0.5-3.8,0.8c3-2.1,3.7-4.7,7.7-6.4C675.9,94.2,674.9,95.8,673.6,97.7z
	 M612.5,93c-0.5-0.7-1-1.4-1.4-2c2.5,0,3.4,1.1,3.5,2.8c-2,1.9-3.9,3.6-5.7,5.3c0.5-0.9,0.1-1.6,1.8-2.6
	C612.6,95.4,613.2,94,612.5,93z M639.3,92.5c-2.3,0.7-4.4,1.2-6.4,1.8c-0.1,0-0.1-0.2-0.1-0.3c2.2-1.5,4.5-3,7-4.7
	C639.6,90.7,639.4,91.7,639.3,92.5z M530.1,101.6c-0.9,3-3.4,4.6-6.8,6.5C524.8,105.3,527.6,103.9,530.1,101.6z M463.1,78.6
	c-2.4,1.7-4.5,3.2-6.6,4.6c-0.4-1.8,2-3,3.7-4.3C461.7,77.8,462.4,78.1,463.1,78.6z M666.4,97.9c-1.3,0.1-2.1,0.1-2.8,0.3
	c0.8-0.9,1.5-1.7,2-2.4c0.3-0.8,0.4-1.6,2.2-2.4C667.3,94.7,666.8,96.2,666.4,97.9z M535.5,91.6c0.9,0.5,1.4,0.9,2.1,1.3
	c-0.6,1.8-3.3,3-5.6,5.2c0.5-0.9,0.5-1.5,1-2.1C535.5,93.6,535.3,93.8,535.5,91.6z M491.4,63.7c2.2-1,4-1.9,5.6-2.6
	c1,0.3,2.2,0.3,3.2,0.5c-0.1,0.3-0.3,0.4-0.2,0.5C497.3,62.6,494.7,63,491.4,63.7z M639.7,97c-0.1,0.5,0,0.9,0,1.7
	c-0.9-0.2-1.5-0.3-1.9-0.5c0.5-0.8,1.1-1.7,0.9-2.1c-0.1-0.4-1.5,0.1,0.2-1.3c1.1,0.6,1.9,1.3,3,1.8c-0.1,0.1-0.3,0.3-0.4,0.4
	C640.8,97.1,640.4,97,639.7,97z M619.5,46.1c0.8-0.4,2.3-0.4,2.1-1.7c0.6,0,1.3-0.2,2.3-0.4c-0.4,1.1-0.9,2-1.3,2.9
	C619.8,47.7,619.5,47.6,619.5,46.1z M634.6,86.7c0.8-0.5,1.5-1.2,2.1-1.7c0.1,0.1,0.5,0.2,0.7,0.2c-1.5,1.2-1.1,2.7-3.5,3.5
	c-0.8,0.3-1.4-0.2-2.3-0.4C633.1,87.5,633.8,87.3,634.6,86.7z M589.5,34.9c1.3-0.5,2.8-0.5,4.2-0.8c-0.1,0.3-0.3,0.4-0.2,0.5
	c-1.8,0.6-3.9,1.2-5.7,1.8c-0.5,0.2-1.4,0.7-2,1C586.5,35.9,588.4,35.3,589.5,34.9z M562.5,36.1c0.1-0.7,0.2-1.5,0.4-2.7
	c1,0,1.9-0.2,2.8-0.3C564.8,34.4,564.6,35.6,562.5,36.1z M589.3,32.5c0.8-0.8,1.5-1.4,2.2-2c0.6,0.2,0.8,0.5,1.4,0.7
	c0.3,0.2,0.7,0.4,1.4,0.8C591.7,33,590.7,32.6,589.3,32.5z M557.2,40.5c2.4-0.6,4-0.9,6-1.5C560,41.6,559.5,41.7,557.2,40.5z
	 M533.5,103.6c-0.3,0.5-0.6,0.9-0.8,1.4c-1.7,0-1.9-1-0.5-2c0.9-0.8,1.8-0.8,1.8-0.1C533.7,103.1,533.5,103.5,533.5,103.6z
	 M601.3,91.9c2.7,0.9,2.8,1,0,2.8C601.5,93.7,601.4,93,601.3,91.9z M627.9,89.4c0.1,1,0.1,1.9,0.2,2.8
	C625.7,91.6,625.7,91.6,627.9,89.4z M620,89.7c-1.8,0.7-3.1,1.3-4.9,2c1.4-1.3,2.4-2.2,3.4-3.1C619.1,88.8,619.4,89.1,620,89.7z
	 M669.9,91.2c0.7-0.8,1.4-1.5,2.6-2.9c0.4,1.3,0.4,2.1-1.2,3C671.2,91.4,670.6,91.2,669.9,91.2z M443.8,92.9
	c-1.4,0.9-2.4,1.7-3.9,2.7c-0.1-0.4-0.1-0.8-0.3-1.5C441.2,93.8,442.6,92.3,443.8,92.9z M619.7,84.5c-0.6-0.3-1.3-0.6-2.1-0.9
	C619.9,82.5,619.9,82.5,619.7,84.5z M624.4,39.4c1,0.3,2.1,0.4,3.2,0.6C626,40.9,625.1,40.9,624.4,39.4z M526.4,48.2
	c-0.2-0.1-0.3-0.2-0.5-0.4c0.6-1.3,1.6-1.9,4.2-2.8C528.2,46.5,527.2,47.3,526.4,48.2z M597.4,86.9c-0.2,1-0.6,2-0.8,3
	C594.9,89.3,595.1,88.5,597.4,86.9z M450,87.4c-1.5,1.2-2.7,2.2-4.7,3.8C446.6,89.1,447.9,87.9,450,87.4z M617.1,86.6
	c-2.1,0.1-2.1,0.1-1-1.9C616.3,85.3,616.5,85.9,617.1,86.6z M645.5,92.9c-0.2,1-0.5,1.7-0.7,2.5C642.4,95.2,642.4,95.2,645.5,92.9z
	 M628.8,80.9c-0.1,0.1-0.1,0.1-0.3,0.1C628.6,80.9,628.6,80.9,628.8,80.9L628.8,80.9c0.8-1.2,0.8-1.2,2.5-1.7
	c-0.1,0.6-0.4,1.2-0.4,1.7c-0.1,0-0.4,0.2-0.5,0.1C629.6,81.1,629.3,81,628.8,80.9z M597.4,26.2c0.3-0.1,0.4-0.2,0.7-0.3
	c0,0.5,0.2,1,0.3,1.7C595.9,28.4,596.9,27.1,597.4,26.2z M595.8,29.1c-1.7,0.4-2.6,0.6-3.7,0.9c0.6-0.7,1.4-1.4,2.1-2.1
	C594.7,28.2,595,28.5,595.8,29.1z M645,55.9c-0.8,0-1.5-0.1-2.4-0.1C645,54.3,645,54.3,645,55.9z M636.8,83.2c-1,0.2-2,0.4-3.1,0.5
	C635.9,81.9,635.9,81.9,636.8,83.2z M679.5,109.4c-1.4,0.9-2.3,1.6-3,2.1c-0.1-0.1-0.3-0.2-0.4-0.3
	C676.8,110.1,677.6,109.2,679.5,109.4z M466.9,75.9c-0.1-0.1-0.3-0.1-0.7-0.2c0.4-1,1.8-1.7,2.7-2.5c0.1,0.1,0.3,0.1,0.5,0.2
	C468.7,74.2,467.8,75.1,466.9,75.9z M578.5,35.8c1-0.2,2.3-0.4,3.4-0.7c-0.2,0.3-0.2,0.5-0.5,0.8c-1.1,0.2-2.3,0.4-3.4,0.5
	C578.2,36.2,578.3,36,578.5,35.8z M543.6,93.4c0.8-0.9,1.5-1.8,3-3.4C546.4,91.7,545,92.5,543.6,93.4z M654.7,105.8
	c0.8-0.5,1.4-0.8,2.1-1.3c0,0,0.3,0.2,0.2,0.3c-0.6,0.6-1.1,1.1-1.6,1.5C654.9,106.3,654.9,106,654.7,105.8z M591.9,30.1
	c-0.1,0.1-0.3,0.2-0.5,0.3c-1.1-0.1-2.3,0-0.3-2C592.1,28.5,591.8,29.4,591.9,30.1z M613,100.8c-0.3,0.5-0.8,1.2-1,1.7
	c-0.3,0-0.6,0-1,0.1c0.4-0.6,0.7-1,1.1-1.6C612,101,612.5,101,613,100.8z M654,95.6c-1-0.3-1.5-0.3-2.4-0.5
	C654,93.7,654.1,94.2,654,95.6z M677.4,68.5c-0.1,0.3-0.2,0.4-0.3,0.7c-0.5,0.2-1.3,0.5-2.1,0.8c0-0.3,0.3-0.7,0.3-0.8
	C676.2,68.8,676.6,68.7,677.4,68.5z M675.5,81.4c-0.1-0.5-0.3-0.9-0.4-1.3c0.3-0.1,0.5-0.3,0.9-0.5c0.1,0.5,0.2,0.9,0.4,1.4
	C676,81.2,675.6,81.4,675.5,81.4z M627.7,44.4c1.1,0.1,1.7,0.2,2.2,0.3C628,46.1,627.8,45.7,627.7,44.4z M611.4,99.5
	c1-0.8,2-1.7,3.4-2.9C614.4,98.4,612.7,98.8,611.4,99.5z M525.3,100.7c-0.4,0.9-0.4,1.4-0.7,2.1
	C523.3,102.7,523.3,102.7,525.3,100.7z M661.3,89.1c-0.5,0.2-1.3,0.7-2,1c0-0.2-0.1-0.3-0.1-0.4c0.3-0.2,0.8-0.6,1.2-0.7
	s0.6-0.2,0.9-0.2C661.3,88.8,661.4,88.8,661.3,89.1z M656.9,80c-0.1,0.1-0.3,0.4-0.3,0.5c-0.8,0.1-1.4,0.2-2.3,0.3
	c0.2-0.3,0.3-0.4,0.5-0.7C655.6,80.1,656.2,80,656.9,80z M682.7,98.3c-0.7,0.4-1.5,0.8-2.2,1.2C681.2,98,681.2,98,682.7,98.3z
	 M677.7,93.8c0.3-0.1,0.5-0.2,0.8-0.4c-0.1,0.4,0,0.9,0,1.3c-0.3,0.2-0.5,0.2-1,0.5C677.7,94.7,677.6,94.2,677.7,93.8z M509.1,49.6
	c1.1-0.8,1.8-1.4,3.1-2.3C511.6,48.8,510.7,49.6,509.1,49.6z M645.7,80c-0.3,0.2-0.6,0.4-0.9,0.6c-0.2-0.4-0.5-0.7-0.7-1.1
	c0.3-0.1,0.5-0.4,0.8-0.5C645.2,79.4,645.3,79.8,645.7,80z M570.3,31.7c-1,0.4-2,0.8-3.1,1.3c0-0.2,0-0.3,0.1-0.4c1-0.5,2-1,3-1.5
	C570.2,31.3,570.3,31.5,570.3,31.7z M547.1,43.2c-1.2,0.5-2.3,0.9-3.4,1.4c0.1-0.3,0-0.3,0.1-0.6c1.2-0.4,2.5-0.9,3.6-1.4
	C547.3,42.9,547.3,43,547.1,43.2z M536.3,104.9c-0.6,0-1.4,0.2-2.7,0.3C536.1,103.5,536.3,104.1,536.3,104.9z M496.9,60.9
	c-0.3-0.2-0.7-0.5-1.1-0.7c1.4-1.3,1.9-0.8,2.2-0.4C498.2,59.9,497.3,60.6,496.9,60.9z M517.4,111.2c0.1,0-0.2,0.8-0.5,0.9
	c-0.5,0.3-0.9,0.3-1.6,0.4c0.4-0.6,0.7-1.2,0.9-1.3C516.5,111.1,517,111.1,517.4,111.2z M660.7,63.6c-0.1,0.1-0.6,0.1-1,0.2
	c0.4-0.5,0.7-0.9,0.9-1c0.3-0.1,0.6-0.1,0.8,0C661.2,62.9,660.9,63.3,660.7,63.6z M673.3,111c0.1,0.1,0.5,0,0.6,0.1
	c-0.6,0.6-1,1.2-1.5,1.7c-0.1-0.1-0.4,0-0.5-0.1C672.3,112.2,673,111.6,673.3,111z M663.8,79.6c-0.6,0.4-1.1,0.8-1.9,1.3
	c-0.1-0.2-0.2-0.3-0.2-0.5c0.7-0.4,1.2-0.8,1.9-1.2C663.6,79.4,663.7,79.5,663.8,79.6z M660.6,65.3c0.7-0.9,1.2-1.9,2.9-1.8
	C662.3,64.4,661.6,64.8,660.6,65.3z M512.3,54c-0.8,0.5-1.4,0.8-2,1.2c0-0.2-0.1-0.3-0.1-0.5c0.7-0.4,1.3-0.7,2.1-1.2
	C512.3,53.6,512.3,54,512.3,54z M637.1,43.3c-0.5-0.2-1-0.3-1.4-0.5c0.1-0.1,0.2-0.3,0.4-0.5c0.5,0.1,1.2,0.2,1.7,0.1
	C637.5,42.8,637.2,43.2,637.1,43.3z M666,84.3c-0.3-0.1-0.8,0-0.8-0.2c0-0.2,0.3-0.5,0.5-0.7c0.3,0,0.6,0,0.6,0.1
	C666.5,83.7,666.4,83.9,666,84.3z M653.5,58.7c-0.4,0.2-0.6,0.2-1,0.2c0.1-0.1,0.2-0.4,0.3-0.5c0.3-0.2,0.7-0.3,1.5-0.7
	C653.7,58.4,653.5,58.8,653.5,58.7z M628.5,81c-1,0.8-1.9,1.6-2.6,2.1C626,82.1,627.4,81.6,628.5,81z M607.5,25.4
	c-0.5,0.2-1.3,0.5-2,0.8c0.1-0.3,0-0.3,0.1-0.4c0.5-0.2,1.3-0.5,2-0.7C607.5,25.2,607.4,25.3,607.5,25.4z M670.9,115.2
	c0.4-0.1,0.4-0.2,0.5-0.2c-0.1,0.4-0.3,1-0.5,1.6c-0.4,0.1-0.4,0.2-0.5,0.2C670.7,116.2,670.8,115.7,670.9,115.2z M630,94.6
	c0.3,0,0.6,0,0.9,0c0.1,0,0,0.3-0.4,0.9C630.3,95,630.4,94.7,630,94.6z M625.7,83.4c0.1,0.4,0.1,0.9,0.3,1.4
	C623.8,85.2,625,84.2,625.7,83.4z M667.4,134.4c-0.1,0.3-0.4,0.5-0.7,0.8c-0.3,0-0.6,0-0.8,0c0.2-0.3,0.5-0.6,1-1
	C667,134.1,667.3,134.3,667.4,134.4z M574.7,38.2c0.3-0.1,0.6-0.2,0.7,0c0.1,0-0.3,0.4-0.5,0.8c-0.5,0-0.8,0-0.9-0.2
	C574.3,38.6,574.5,38.3,574.7,38.2z M645.5,85.2c0.4-0.2,0.6,0,1.3-0.2c-0.5,0.4-0.9,0.8-1,0.8c-0.4,0.1-0.6,0.1-0.8,0
	C645.2,85.7,645.5,85.3,645.5,85.2z M650.7,76.9c-0.1,0.1-0.2,0.3-0.4,0.4c-0.3-0.1-0.8-0.2-1.1-0.3c0.1-0.1,0.2-0.2,0.2-0.3
	C649.9,76.8,650.4,76.8,650.7,76.9z M655.9,101.2c-0.1,0.1-0.4,0.1-0.4,0.2c0.1-0.4,0.1-0.8,0.1-1.2c0.4-0.1,0.5-0.1,0.8-0.2
	C656.3,100.3,656.1,100.8,655.9,101.2z M662,82.5c0.7-0.4,1.2-0.7,1.6-1c0,0.2,0.1,0.2,0.1,0.4c-0.7,0.4-1.2,0.7-1.6,1
	C662,82.8,662,82.5,662,82.5z M661.9,129.3c0.1-0.1,0.6-0.1,0.5,0c-0.3,0.4-0.4,0.6-0.8,1.2c-0.5,0-0.6-0.1-0.8-0.2
	C661.4,129.9,661.6,129.6,661.9,129.3z M519.1,110.8c0.1,0.1,0.4,0,0.5,0.1c-0.4,0.5-0.8,0.9-1.3,1.5c-0.1,0-0.3,0-0.5,0
	C518.2,111.8,518.6,111.3,519.1,110.8z M612.6,104.5c0.1,0-0.3,0.4-0.4,0.5c-0.4,0.1-0.6,0.1-0.9,0.1c0.4-0.4,0.6-0.7,1-0.8
	C612.3,104.2,612.4,104.4,612.6,104.5z M624,87.1c-0.1,0.1-0.5,0.4-0.5,0.4c-0.3-0.2-0.6-0.3-0.7-0.5c0.3-0.1,0.3-0.3,0.6-0.4
	C623.7,86.6,623.8,86.9,624,87.1z M638.8,148.5c0.1,0,0.3,0,0.5,0.2c-0.2,0.3-0.4,0.5-0.6,0.8c-0.1,0-0.5,0-0.5,0
	C638.4,149,638.7,148.7,638.8,148.5z M476,69.9c-0.1,0-0.2-0.1-0.3-0.2c0.5-0.4,1-0.8,1.5-1.2c0.1,0,0.2,0.1,0.3,0.1
	C477,69.2,476.5,69.6,476,69.9z M640,101.7c0.1-0.3,0.3-0.5,0.4-0.7c0.1,0,0.4,0,0.5,0s-0.3,0.4-0.3,0.5
	C640.3,101.7,640.2,101.7,640,101.7z M540.4,99.2c0.1,0.1,0.3,0.2,0.4,0.3c0.1,0-0.3,0.3-0.7,0.5c-0.1-0.2-0.2-0.3-0.2-0.5
	C539.7,99.6,540.1,99.3,540.4,99.2z M631.8,84.6c-0.2,0.4-0.2,0.7-0.4,1.1c-0.1-0.1-0.3-0.2-0.4-0.4C631.1,85.1,631.4,85,631.8,84.6
	z M637.2,111.6c-0.3,0-0.5-0.1-0.7-0.2c-0.1,0,0.3-0.4,0.5-0.6c0.1,0.1,0.3,0.2,0.6,0.3C637.6,111.1,637.5,111.2,637.2,111.6z
	 M623,83.7c0.2-0.3,0.6-0.7,1-1c0.1-0.1,0.5,0,0.8,0.2c-0.4,0.4-0.8,0.8-1.3,1.1C623.6,83.8,623.1,83.7,623,83.7z M504.3,58.5
	c0-0.2-0.2-0.3-0.3-0.4c0.5-0.4,0.9-0.6,1.4-1c0.1,0,0.2,0.1,0.3,0.2C505.1,57.8,504.7,58.1,504.3,58.5z M479,128.6
	c0.1,0.4,0.5,0.8,0.2,1.2c-1.4,1.7-2.9,3.3-4.3,4.9c-0.3,0-0.6,0-0.7-0.1c1-1.6,1.7-3.2,2.9-4.8C476.9,129.6,478.1,129.2,479,128.6z
	"/>
<path class="st3" d="M360.7-283c-0.5-0.8,0.7-1.4,2.5-1.6c2.7-0.3,4.6,0.1,6.3,1.1c1.9,1.2,4.8,1.5,6.9,0.8c0.6-0.2,1.3-0.6,1.2-1
	c0-0.3-0.8-0.7-1.4-0.9c-0.5-0.2-1.4,0-2.1-0.1c-3.6-0.3-5.1-1.6-4-3.2c0.3-0.5,0.4-1,0.6-1.7c-5,0.1-9.6,0.2-14.1,0.3
	c-1.6,0-2.8,0-2.9-0.9c3-1.5,6.7-1.7,10.9-1.5c3.2,0.2,6.3,0.3,8.6,1.5c1.4,0.8,3.3,0.8,5.2,0.3c-0.7-0.1-1.2-0.4-0.5-0.7
	c0.7-0.4,1.5-0.7,2.2-1.1c-0.5-0.1-0.8-0.4-0.3-0.7c0.2-0.1,0.4-0.2,0.6-0.3c-0.5-0.1-0.9-0.2-1.3-0.4c-0.6-0.2-0.6-0.6,0-0.8
	c0.4-0.1,0.8-0.2,1.1-0.3c-2-0.2-4-0.5-5.9-0.8v-0.7c2-0.3,3.9-0.5,7-0.9c-3.8-0.9-6.5-1.9-9.6-2.2c-3-0.3-6.3,0.1-9.5,0.1
	c-0.2-0.1-0.4-0.3-0.5-0.4c2.1-1.1,4.2-2.2,6.6-3.4c-1.2-0.1-2.1-0.3-2.7-0.2c-2.7,0.4-5.1,0.3-7.7-0.2c-0.9-0.2-2-0.1-3.1-0.1
	c-0.4,0-0.8,0.3-1.1,0.4c0.5,0.7,0.9,1.3,1.6,2.4c-3-0.3-5.1-0.8-7.2-0.8c-2.4,0-4.7,0.5-7.1,0.7c-1.9,1.6-1.9,1.6-5.6,2.1
	c-4,0.6-8.2,1-12,1.7c-3.5,0.7-6.7,0.7-10.2,0.2c-1.4-0.2-3.3-0.5-4.5-0.2c-4.4,0.9-8.5,0.7-12.3-0.2c-4.5,1.1-8.6,2.1-12.9,3
	c-1.2,0.2-3-0.1-4.4-0.4c-6.1-1.1-12.6-0.8-18.8-1.2c-0.7,0-1.5,0.5-2.3,0.5c-1.3,0-3.1,0.1-3.9-0.2c-3.5-1.4-6.8-3-10.2-4.5
	c-1.6-0.7-2.9-1.6-4.7-2.3c-1.6-0.6-5.1-0.4-5.8,0.2c-1.1,1,0.1,1.7,1.8,2.2c2.9,0.9,5.9,1.7,8.9,2.5c1,0.3,2.1,0.6,2.8,1
	c3.8,2.4,8.4,4.5,13.3,6.4c2.2,0.9,1.9,1.7-0.9,2.1c-6.1,0.9-11.9,2.7-18.8,1.4c-0.6-0.1-1.5,0-2,0.2c-1.5,0.4-1.8,0.9-0.5,1.5
	c2,0.5,4.3-1.3,6.3,0.3c-0.6,0.8-1.2,1.7-1.9,2.9c-1.7-0.3-2.8-0.5-4.8-0.9c2.7,2.4,1,3.7-2.6,4.9c-2.7,0.9-5.5,1.9-7.4,3.7
	c5.2-0.6,8.9,0,12.3,1.4c1,0.4,3,0.6,4.3,0.5c3.8-0.3,7.6-0.8,11.4-1.1c2-0.2,4.1-0.1,6.2-0.4c3.4-0.3,5.9,0.6,8.8,1.4
	c0.5-0.5,0.9-0.9,1.1-1.2c0.2-0.4,0.2-0.9,0.4-1.6c7.1,1.4,13.9,2.5,21.2,1.5c0.9,0.7,1.6,1.3,2.7,2.3c1.5-2.4,4.9-3.2,9.2-3.4
	c1.2-0.1,2.6-0.3,3.3-0.7c3.9-2,9-1.4,13.5-1.7c0.8,0.6,1.3,1,2,1.6c7.3-2.4,14.7-2.8,22.4-0.8c1,0.3,2.4,0.3,3.6,0.4
	c8.2,0.3,16.5,0.5,24.7,0.7c0.2,0,0.5-0.2,0.9-0.4c-1.5-2.2-8.1-0.8-9.4-2.5c-2.7,0-4.7,0.1-6.7,0c-2.1-0.1-4.1-0.4-6.1-0.7
	c-2-0.2-4-0.4-6.8-0.7c0.7-1.1,0.7-2.4,1.9-2.7c2.8-0.8,4.5,0.6,6.4,1.4c5.2-1.4,10.1-0.6,14.8,0.3c3.7,0.7,6.5,0.2,8.4-1.4
	c-4.9-0.4-9.8-0.8-14.7-1.2C362.4-282,360.9-282.6,360.7-283z M259.7-291.7c-0.6,0.1-1.3-0.2-2.4-0.3c1.6-0.6,2.1-0.8,2.6-1
	c0.4,0.2,1.1,0.5,1.1,0.7C260.9-292.1,260.3-291.8,259.7-291.7z"/>
<path class="st4" d="M243.3-169.2c-2.3-1.7-7-0.8-6.7-4.2c1.7,0.3,3.2,0.5,4.7,0.7c-0.7-1.7-1.3-3-1.8-4.4c-0.6-1.6-1.5-2.7-4.2-2.8
	c-1.3-0.1-2.6-0.5-3.9-0.8c-2.6-0.6-5.3-1.6-7.9-1.6c-9.1-0.2-18.2-0.2-27.4-0.2c-2.4,0-4.9-0.1-7.3,0.2c-2.1,0.2-4,0.9-3.4,3
	c0.2,0.6-0.6,1.9-1.5,2.1c-3.5,1.1-4.6,3.3-5.7,5.5c-0.3,0.7-0.6,1.6-1.4,1.9c-1,0.5-2.6,0.9-3.7,0.7c-1.4-0.2-2.1-1.2-1.3-2.4
	c0.6-0.8,1.4-1.9-1.1-2.4c-0.4,1-0.8,2-1.4,3.3c-2.3-0.7-4.4-1.3-7.4-2.3c3.2-1.2,5.4-2,7.7-2.8c-1.8-1.8-3.4-3.6-5.2-5.2
	c-0.4-0.3-1.2-0.6-1.8-0.7c-3.4-0.2-6.3-2.1-10-1.5c-1.2,0.2-2.7-0.3-4.1-0.6c-3.1-0.7-6.2-1.6-9.3-2.3c-4.1-1-8.2-2.1-12.5-2.8
	c-5.1-0.9-9.9-2.8-15.8-1.8c-3.1,0.5-7.3-0.8-8.5-3.4c-1.1-2.3-3.3-3.1-6.1-3.4c-4-0.5-8-1.1-12-1.4c-1.9-0.1-4.6,0.1-5.8,0.9
	c-1.7,1.2-6.1,1.2-4.7,4.1c0.1,0.2-0.4,0.6-0.7,0.8c-2.8,1.9-5.6,3.7-8.6,5.7c1.7,1.1,2.9,1.8,3.8,2.4c-0.8,2.4-1.5,4.5-2.2,6.6
	c-0.5,1.7-1.6,2.6-4.3,2.5c-2.6-0.1-5.1,0.1-5.4-2.5c1.3-0.5,2.6-0.9,4.5-1.6c-5.2-1.6-9.9-3-14.5-4.5c0.1-0.2,0.2-0.4,0.3-0.7
	c1.6,0.1,3.1,0.3,5.8,0.5c-3.1-1.5-5.3-2.6-7.8-3.8c-2.3,2.5-4.6,4.8-2.9,7.7c-3.5,2-6.7,3.9-9.5,5.5c-0.1,3.9,5,7,0.6,10.4
	c2.9,2.4,8.7-0.1,10.5,3.5c-3.8,0.2-4,0.3-5.6,1.6c-1.5-0.5-3-0.9-4.9-1.5c0.3,1.3,0.8,2.2,0.5,3c-0.3,0.9-1.4,1.6-2.2,2.4
	c0.8,1,1.5,1.9,2,2.6c-1.3,2.1-2.5,4-3.7,5.9c-1-0.1-2.4-0.2-3.7-0.3c-0.1,0.2-0.2,0.4-0.2,0.6c1.5,0.9,3.1,1.7,4.4,2.5
	c-1.5,1.2-3.9,2.1-3.9,3.1c0,2.3-0.4,5.3,2.5,6.7c2.5,1.2,6.4,1.8,9.4,1.5c3.4-0.4,6.7-0.1,9.2,0.9c3.2,1.3,6.3,1.2,9.5,1.5
	c2.8,0.2,5.5,0.6,8.3,1c3.5,0.5,6.9,1.5,10.3,1.5c5.5,0.1,10.3,1.3,15,3c5.6,2,11.4,4,18,1.9c0.3-0.1,0.7,0,1.1,0.1
	c0.1,0.4,0.3,0.9,0.4,1.2c5.3,0.3,10.6,0.6,16,1c0.8-1.8-0.6-2.4-2.6-2.4c-6.2,0-12.2-1-18.2-2.1c-8.1-1.5-16.4-2.7-24.6-4.1
	c-1-0.2-1.9-0.5-2.8-0.8c3.6-0.2,7-0.2,10.4,0.3c5.8,0.7,11.6,1.6,17.4,2.6c8.1,1.4,16.3,1.8,24.6,1.7c4-0.1,8,0.6,12,1.1
	c1.7,0.2,2.2,1.1,0.5,2.3c-3.6-1.1-7-1.3-9,1.3c1.9,2.2,3.5,4.2,5.3,6.3c2.1-1,3.6-2.6,6.3-1.1c0.6,0.3,2,0,3-0.1
	c4.2-0.7,8.3-0.7,12.6-0.3c3.1,0.3,6.3,0,9.4,0.1c1,0,2.5-0.1,3.1,0.3c3.5,2.5,8.3,1.5,11.1,2.3c2.3-0.8,3.7-1.3,5.2-1.8
	c-3.6-0.5-7-1.7-10.6,0.1c-0.9-0.9-1.9-1.8-3.3-3.1c-2.3,2.7-5.8-0.8-8.4,1.2c-1.8-1.9-5.2-1.6-8.2-2.9c7.7-2,14.6-0.7,21.5,0
	c7.7,0.8,15.2,2.2,22.8,3.3c2.1,0.3,4.2,0.3,6.3,0.4c1.9,0.1,2.3-0.8,2.2-1.9c0,0-0.1,0-0.1,0.1c-0.1-0.1-0.1-0.1-0.2-0.1
	c-1.2-0.1-2.5-0.3-4-0.5c2.5-0.8,2.6-0.8,4,0.5c0.1,0,0.2,0,0.3,0l0,0c2.4-1,4.6-1.9,7.6-1.8c1.8,0.1,3.5-0.7,3.2-2.3
	c-0.4-2.1,1.4-2.6,3.7-2.8c2.7-0.2,4.7-0.9,5.5-2.8c-1.1-2.5-7-2.6-6.3-6.3c4.5,0.6,8.7,1.3,14,2c-1-1.9-1.3-3.1-2.3-4
	c-1.5-1.3-3.3-2.5-5.3-3.5c-2.2-1.1-1.5-1.9-0.1-3.2c1.5,0.5,2.8,0.9,4.2,1.3c0.9-2.4,0.8-2.9-1.9-3.3c-3.4-0.5-6.8-0.5-10.4-0.8
	c-0.3-1.6-0.6-3.2-0.8-4.6c3.2-1.8,6.4-3.5,9.7-5.3c-0.6-0.7-2.4-2.3-2.3-2.4c2.4-1.5-1.1-2.7-0.2-4.2c3.5-0.3,6.9-0.6,9.9-0.9
	c2.3-1.9,1-3.4-0.5-4.8C240.8-168.7,241.8-168.9,243.3-169.2z M46.3-133.9c-0.1-0.3-0.1-0.5-0.2-0.8c2.4-0.9,2.4-0.9,6.1,0.3
	C49.6-134.2,47.9-134,46.3-133.9z M46.2-156.3c0.6-0.4,0.8-0.6,1-0.6c1.5,0.2,2.9,0.4,2.4,2.1C48.4-155.3,47.3-155.8,46.2-156.3z
	 M52.2-158.8c1.7,0.7,3.4,1.1,4.3,2c0.8,0.8,0.8,2.1,1.1,3.1C52-154,51.5-154.5,52.2-158.8z M53.6-135.2c3.2-1.2,4.8,0.1,7.7,1.3
	C57.8-133.5,55.6-133,53.6-135.2z M56.8-163.9c0.7,0.8,1.3,1.5,2.3,2.6c-5.1,0.2-8.7-0.9-12.6-2.2c2.5-2.3,5-1,7.6-0.6
	c1.9-1.3,4.1-2.7,7.5-0.9C60-164.7,58.5-164.3,56.8-163.9z M72.1-131.4c-1.2-0.2-2.5-0.3-3.7-0.5c0.1-0.2,0.2-0.5,0.3-0.7
	c1.2,0.2,2.4,0.5,3.6,0.7C72.2-131.7,72.1-131.6,72.1-131.4z M169.4-164.5c-0.2-0.5-0.5-0.8-0.5-1.2c0-0.1,1-0.4,1.2-0.3
	c0.4,0.2,0.6,0.6,0.9,1C170.6-164.9,170.1-164.8,169.4-164.5z M58.7-183.4c-1.3-0.3-2.7-0.7-4-1c0.1-0.2,0.2-0.4,0.3-0.5
	c1.3,0.3,2.7,0.7,4,1C58.9-183.8,58.8-183.6,58.7-183.4z M83.6-124.9c0.9,0.2,1.9,0.3,2.8,0.5c-0.1,0.3-0.2,0.6-0.3,0.8
	c-0.9-0.2-1.9-0.5-2.8-0.7C83.4-124.5,83.5-124.7,83.6-124.9z"/>
<path class="st5" d="M562.6-231.8c1,0,1.9-0.2,3-0.4c0.9-0.1,1.6,0.6,2.6-1c-1-0.1-2.2,0.1-2.8-0.2c-0.6-0.3-0.4-1.4-0.7-2.3
	c-2.4,1.5-3.7,1.4-5.1,0.8c-1.3-0.6-2.7-1.7-5.7-0.2c-0.6,0.3-1.2,0.1-1.8,0.2c0.3-0.3,0.5-0.6,0.8-0.9c1-0.5,1.8-0.9,3.3-1.6
	c-2.4-1.3-6-0.8-7.4-3.2c1,0,1.6-0.2,2.4-0.1c1,0.2,1.9,0.6,3,0.6c4.7-0.4,9.4-0.6,12.7,1.1c0.2,0.1,0.5,0.3,0.8,0.2
	c2.8-0.9,4.2,0.2,5.9,0.6c2.8,0.9,6.5,1,7.7,3c1.7-0.1,3.5-0.7,4.1-0.2c1.7,1.2,3,2.7,4.5,4.2c-2.4,1.7-4.8,1.4-6.7,3.8
	c0.9,0.4,1.9,1,2.9,1.5c0.3,0.1,1,0.2,1.2,0.1c2-1.4,2.3-0.6,2.8,0.2c0.3,0.6,1.3,0.6,2,1c0.7-0.9,1-1.4,1.2-1.8
	c-0.5-0.6-1-1.2-1.5-1.8c0.2-0.1,0.4-0.4,0.7-0.6c-1.5,0.3-3,0.5-4.5,0.9c1-1,1.7-1.8,2.7-2.7c0.6-0.5,1.5-1.2,1.9-1.3
	c1.7-0.1,3.9-0.4,4.2,0.4c0.8,1,1.9,1.5,3,2.1c0,0.1,0.3,0.2,0.6,0.3c0.1-0.7,0.3-1.3,0.4-1.6c1.9-1.1,3.5-2,5.3-3.1
	c0.1,0.7,0.1,1.4,0.2,2.1c0.7-0.2,1.4-0.3,2.3-0.6c0.2,1,0.1,1.8-1.4,3c-0.6,0.5-1,1.2-1.3,1.9l6.2-2.5c-0.1,1.4-2.5,4,0.4,3.7
	c0.6-0.4,1.2-0.9,1.9-1.4c0.3,1,1.1,1.5-1.2,2.7c-1.7,0.8-1.9,1.8-1.3,2.5c1.3-0.5,2.8-1.3,4.1-1.7c1.2-0.3,2.2-0.3,3.4-0.4
	c1,0,2.9-1.4,3.1,0.1c-2,0.6-3.9,1.2-4.8,3.7c2.2-1.3,4.3-2.2,5.9-3.4c0.8-0.6,0.7-1.8,1.2-3.1c0.8-0.4,1.7-0.8,2.4-1.2
	c0.1,0.3,0.2,0.5,0.1,0.6c-1.4,2.3,0.4,3,0.7,4.5c0,0.2,0.5,0.2,0.7,0.2c1.7-1.2,1.8-0.3,1.8,0.3c0.3,0.7,0.2,1.6,0.4,2.3
	c1.4-0.6,2.6-1.2,3.9-1.8c0.2-0.1,0.3,0.2,0.4,0.5c-0.8,0.5-1.7,1-2.3,1.4c-0.3,2,0,2.4,1.3,1.7c1.7-0.8,3.2-1.9,5.3-3.1
	c-1.3-0.2-2.2-0.2-2.9-0.3c0-0.1,0.2-0.4,0.2-0.4c1.3-0.5,2.6-0.9,4.3-1.5c-0.4,2.4,2.8,2.8,0.2,6.4c-0.4,0.4,0.2,0.9,0.6,1.6
	c2-1.9,3.9-3.7,6.2-5.8c-1.4,0.2-2.5,0.5-3.5,0.5c-0.7-1.1-1.6-2.3-2.4-4c1.3-0.1,1.9-0.2,3-0.3c0.3-1.2,0.5-2.2,0.5-3.3
	c0.5,0.1,0.9,0.1,1.4,0.1c0.5-1.2-0.1-1.8-1.3-1.5c-1.6,0.3-1.5-0.6-1.5-1.5c-0.6,0.2-1.3,0.5-1.9,0.6c-1.5,0.1-1.6-1.2-0.5-2.4
	c2.1-2,2.1-2.6,0.6-3.1c-0.7-0.3-1.6-0.5-2.5-0.7c0.7-2.2,0.4-3.9-1.2-4.4c-2.3-0.6-2.9-2.2-3.2-4.1c0-1.2-0.4-2.4-1.2-3
	c-1.4-0.8-1.7-1.8,0.2-4c-2.7,0.8-4.8,0.2-4.7-1.7c0-1.2-0.5-1.8-1.6-2.1c-2.3-1.1-4.4-2.5-6.2-3.9c-1-0.7-0.8-1,1.4-2.2
	c0.4-1,1.5-1.2,2.2-1.4c0.3-1.7,0-3-1.8-3.4c1.3-0.3,2.3-0.4,3.4-0.6c0.6-1,1-1.9,1.8-3c0.5,0.1,0.8,0.2,1.3,0.2c0.3,0.1,0.6,0,1,0
	c0.9-2-1.2-1.3-2-1.6c-1.9-1.3-4.4-2.3-7.4-2.6c-1.3-0.1-2.1-0.9-3.2-1.4c-0.4-0.2-0.7-0.3-1.1-0.4c-1-0.2-2.1-0.5-3.1-0.8
	c-1.1-0.4-2.4-0.7-3.2-0.8c-0.3-1.1-0.3-2.1-1-2.4c-1.1-0.6-2.8,0.9-4,2c-0.8-0.1-1.5-0.1-2-0.2c-0.2-0.1-0.3-0.3-0.6-0.3
	c0.6-0.5,1.1-1,1.8-1.4c-0.2-1.1-1-0.6-2.4,0.1c-2.4,1.3-3.5,1-4-0.7c-0.5,0.1-0.7,0.2-1.3,0.4c0.6-1.3,1-2.4,1.7-3.9
	c-2.1,1.5-4.5,0.9-5.3,3.9c-2.5-0.5-4.7-0.9-6.9-1.2c-1-0.2-2-0.5-3-0.6c-2.8-0.1-5.6-0.1-8.5-0.2c-1.1,0-1.9-0.7-2.8-0.4
	c-2.9,1.3-5.3,1.1-7.8,1.7c-0.2,0.1-0.2-0.1-0.3-0.3c0.3-0.5,0.8-1.1,1.1-1.6c-1.5-1.4-4.4,1.7-6.4,1.6c0.1-0.7,0.2-1.5,0.4-2.4
	l-9.1,3.7c0,0,0,0,0,0.1c0,0,0,0-0.2,0.1c-0.6,1.1-1.3,1.4-2.6,1.6c0.9-1.1,1.6-1.7,2.6-1.6l0,0l0,0c0-0.3-0.1-0.5-0.1-0.8
	c-1.4,0.3-3.5,1.2-3.8,0.7c-0.7-0.9-2.7,0-3.6-0.5c-0.3-0.1-1.3,0.1-1.8,0.4c-0.3,0.2-0.6,1-0.7,1.3c-1.9,0.8-3.4,1.4-5.1,2.1
	c-1.5,0.6-3,1.4-4.4,1.9c-1.5,0.6-2.1,0.3-1.5-1c0.2-0.5,0.7-1.1,0.9-1.6c-2.3,0.4-2.3,0.4-4.6,2.3c-3.4,2.8-6.3,3-7.1,0.9
	c-0.1-0.4-1.2-0.4-2-0.7c-1.2,2.3-3.6,4.2-5.4,4.5c-4.5,0.8-9.3,3-14.1,5.2c-0.9,0.4-1.7,0.9-2.4,1.1c-3.5,0.8-7.1,1.6-10.9,4.7
	c-0.1-0.7-0.1-1.1-0.2-1.4c-0.1-0.3-0.4-0.5-0.6-0.7c-2.3,1.5-0.1,1.5-0.6,2.5c-2.2,0.4-3.8-0.4-6.3,1.7c-0.3,0.6-0.5,1.2-0.9,2
	c-1.3-0.9-3.6,0.4-4.6,1.2c-2.4,2.2-4.5,3.8-7.3,3.9c-1.2,0.1-2.6,0.7-4.1,1.2c-1.3,0.5-2.6,0.9-4.1,1.4c0.2-1.1,0.5-2.1,0.8-3.3
	c-1.3,0.5-2.7,0.6-3.7,1.3c-3.7,2.4-7.2,4.9-10.8,7.4c-3.6,2.5-7.2,4.9-10.9,7.6c-3.9,2.9-7.7,5.7-11.6,8.7c-5.5,4.4-11,8.9-15.4,14
	c-2.8,3.2-4.9,6.7-8.8,9.5c-1,0.7-1.5,1.9-2.5,2.9c-2.5,2.6-3.7,6-8.1,7.6c-0.2,0.1-0.5,0.4-0.5,0.5c-1.6,2.5-4.2,4.4-6.5,6.4
	c-3.5,3-4.2,5.7-5.7,8.6c-0.2,0.5,0.3,1.1,0.8,1.4c0.3,0.3,1,0.3,1.5,0.6c-0.8,1.4-1.6,2.8-2.3,4.2c1.9-0.6,3.5-1.1,5-1.5
	c0.6-0.1,1.4-0.1,1.5,0.2c0.1,0.3-0.5,1.1-1.1,1.6c-3.1,2.3-5.1,4.9-6.8,7.9c2.7-0.3,3.6,1,4.3,2.6c1.8-0.8,3.6-1.7,5.2-2.5
	c0,0.2,0.1,0.3,0.1,0.5c-2.7,1.7-5.4,3.5-8.5,5.4c1.3,0,2.1,0.1,3.3,0.1c-2.4,2.7-5.3,5.3-4.2,7.6c3.9-1.8,7.9-3.6,12-5.5
	c0.2-0.1,0.2-0.1,0.3-0.2c1.5-0.8,3.3-1.9,4.7-2.5c4.8-2.2,9.5-4.4,14.2-6.3c2.9-1.1,5.9-1.9,8.7-2.2c2.4-0.3,4.8-0.6,7.4-1.6
	c0.6-0.2,1-0.3,1.7-0.6c0.1-0.1,0.2-0.3,0.3-0.3c10.8-6.7,22.1-12.5,33.3-17.8c0-0.1,0-0.1,0-0.2c0.6-0.4,1.2-0.9,1.7-1.3
	c4.6-2.7,8.9-5.3,13.6-8.2c1.5-1,3.1-1.9,4.7-3c2-1.4,3.8-3.3,6.2-3.3c0.5-0.1,1-0.5,1.3-0.7c3.6-2.2,7.2-4.4,10.7-6.5
	c1.3,0.6,2.4,1.4,3.5,2c1.9-1,3.6-1.3,5.5-1.6c1.5-0.2,3-0.5,4.5-0.9c-0.5,0-0.9-0.2-1.3-0.4c2.1-2.2,2.6-2.4,3.6-1.2
	c1-0.7,2-1.3,3.7-2.4c-0.4,1-0.9,1.7-1.2,2.3c2.5-0.9,4.8-1.8,6.9-2.1c1.4-2,4-3,5.4-4.8c0.7-0.8,1.6-1.4,2.5-2.2
	c-2.7,0.5,0-2.2-1.8-2.5c1.4-0.5,1.9-0.6,2.8-0.9c0.5-1.1-0.1-2.6,2.8-3.3c0,0.2,0,0.4,0.1,0.5c0.1,0.2,0.1,0.4,0.4,0.9
	c1.5-3.5,0.6-3.9-4.9-2c2.5-2.6,4.3-2.1,6.6-2.5c-1.1-1.7-4.1-0.8-6.2-1c1.8-1,3.2-1.2,4.5-1.1c1.2,0.1,2.8,0.2,4.1-0.3
	c2.1-0.8,3.1-0.7,3.7,0.4c0.3,0.6,0.3,1.6,2.2,0.6c0.1-1.2,0.8-2.4,2.8-3.2c2.6,0.9,7.9-1.2,8.9,1.6c1.5-0.4,3.1-1.4,3.9-1.2
	C558.2-234,561.6-234,562.6-231.8z M637-224.4c-0.2,0.1-0.5,0.5-0.9,0.7c-0.4,0.2-0.6,0.1-1.3,0.1c0.9-0.5,1.4-0.9,1.6-0.9
	C636.8-224.6,636.8-224.4,637-224.4z M636.7-227.2c-1,1.6-1.9,2-3,1.4C634.9-226.4,635.6-226.7,636.7-227.2z M615.6-224.7
	c-0.3-0.1-0.7-0.2-0.8-0.2c0.2-0.4,0.4-0.7,0.7-1.1c0.3,0.1,0.5,0.1,0.9,0C616.4-225.5,616-225.1,615.6-224.7z M620.8-269.1
	c0.2,0.1,0.7,0.2,0.7,0.4c0,0.2-0.4,0.6-0.9,1.3c-0.3-0.3-0.6-0.4-0.5-0.6C620.2-268.4,620.5-268.7,620.8-269.1z M621.1-262.7
	c-2.2,1.3-2.4,0.4-2.9,0.1c0.2-0.3,0.4-0.4,0.5-0.6C619.3-263.1,620-262.9,621.1-262.7z M618.7-265.9c0.4,0,0.9,0,1.3,0
	c-0.2,0.3-0.3,0.5-0.5,0.7c-0.5,0-0.9-0.1-1.3-0.2C618.5-265.6,618.5-265.8,618.7-265.9z M617.7-231.5L617.7-231.5
	C617.8-231.5,617.8-231.5,617.7-231.5c1.1-0.7,2.1-1.3,3.1-2.1c2.7,1.3,2.5,3.3-0.6,6.9c-1.6-0.8-0.4-2.5,1-4.4
	c-1.1-0.2-2.2-0.3-3.4-0.3l-0.2,0.1C617.6-231.3,617.7-231.5,617.7-231.5c-0.5-0.1-1.2-0.2-2.3-0.5
	C617.5-232.8,617.5-231.9,617.7-231.5z M611.6-237.9c0.3,0.3,0.6,0.3,0.7,0.6c-0.2,0.1-0.7,0.6-0.7,0.7c-0.3,0-0.5,0-0.5-0.3
	C611.1-237.2,611.4-237.5,611.6-237.9z M596.3-275.7c0.9-0.5,1.8-1.2,2.6-1.4c1.6-0.5,3.6,0.5,4.3,1.4c-2.4,0.2-4.7,0.4-7,0.6
	L596.3-275.7z M593.4-236.3c3.3-0.6,3.4,1.4,4.4,3c-4.1,1.8-1.8-2.9-5.8-0.6C592.6-235.2,593.1-235.7,593.4-236.3z M580.5-238.8
	c0.9,0,2.6-1.2,2.8,0.1c0.1,0.9,3-0.5,1.7,2.1c-1.9-0.6-3.5-1.1-5-1.6C580.2-238.5,580.4-238.7,580.5-238.8z M576.2-239.7
	c0.5-0.1,0.9-0.2,1.2-0.2c0.3,0.1,0.5,0.3,0.6,0.5c-0.2,0.1-0.3,0.3-0.6,0.5c-0.5-0.1-1-0.3-1.6-0.5
	C575.8-239.3,576-239.4,576.2-239.7z M402.4-165.7c-1.2,0.4-2.3,0.8-3.5,1.1c0-0.2,0-0.3,0.1-0.5l3.5-1.4
	C402.4-166.3,402.5-166.1,402.4-165.7z M547.8-235.9c-0.4-0.2-0.5-0.5-0.9-0.6c0.2-0.1,0.5-0.5,0.6-0.5c0.3,0.1,0.6,0.4,1.1,0.4
	C548.3-236.4,548.1-236,547.8-235.9z M639-166.3c-1.6,0.1-3.8,1.4-5,0.6c-0.1,0-1.6,1.1-2.5,1.7c0.4,0.3,0.7,0.3,1,0.1
	c1.1-0.7,1.6-0.5,1.4,0.3c0,0.8-0.8,1.3-1.8,1.5c-0.8,0.2-1.6,0.1-2.4,0.2c1.3-3,2.6-5.8,4.4-8.5c0.4-0.2,0.6-0.1,0.9-0.3
	c0.1,0.9,0.5,1.6,0.6,2.6c1.1-2,2.2-3.9,3.2-6.1c-1,0.5-1.4,0.8-2.1,1.1c-0.4,0.2-1,0.3-1,0.3c0.1-1.3,0-2.3,0.2-3.4
	c0.2-1.1,0.5-2.2,0.8-3.5c-1.4,1-2.4,1.8-3.5,2.5c0.3,0.3,0.5,0.6,0.8,1.1c-3.4,1.8-1.8,3.7-4.5,5.7c1.2-0.1,1.6-0.2,2.4-0.3
	c-0.4,1.1-0.8,2-1,2.9c-1,2.6-2.2,3.3-5.4,3.3c0.8-1.9,1.8-3.9,2.2-5.7c0.6-2,0.8-3.9,1.3-6c2.9-2.2,2.9-2.6,1.7-3.7
	c-0.4-0.4-0.9-0.9-0.9-1.6c-0.2-1,0.2-2.3,0.1-3.3c-0.4-2.6-0.1-5.3,1.5-8.6c-1.3,0.3-2.5,0.5-3.9,0.7c-0.1,2.5-2.8,5.8-1.9,8
	c3-0.4,3.1-0.3,3.1,1.2c0.1,1.8,0.1,3.6-3.5,5.9c2.6,1.4,1.2,4.3,0.1,7.2c-0.7,1.8-1.7,3.7-1.6,5c0.3,2.1-1.8,4.3-3,6.5
	c-0.2,0.4-1.1,0.8-1.7,1.3c0.1-2.9,1.4-5.7,2.7-8.6c0.6-1.1,1.3-2.7,1-3c-0.8-0.6-0.3-1.4,0.4-2.4s1.3-1.9,1-2.8
	c-2.5,1.8-3.4,3.8-3.5,5.1c-0.3,2.6-1.8,5-4.3,7.6c-0.1,0.1,0,0.3-0.1,0.6c3.4-0.8,3.9,0.2,1.8,3.1c-0.2,0.3-0.4,0.4-0.5,0.6
	c-1.1,0.9-1.3,1.4-1.1,2.3c0.3,0.7-0.3,1.9-0.7,3c-1.5,3.9-2.7,7.8-4.3,11.8c-2.4,6.4-7.5,12.9-12,19.3c-0.4,0.4-1.1,0.8-1.6,1.1
	c0.9-1.7,2.1-3.2,3.1-4.7s1.3-2.9,0.8-4.2c-0.7,1.2-1.2,2.1-1.8,3c-1.4,2-2.4,3.9-3.5,5.8c-2.7,4-4.9,8.3-7.9,12.3
	c-5.3,7.1-11.1,14.1-17,21.2c-7.4,9-14.8,17.9-23.4,26.6c-1.2,1.2-1.7,2.4-1.6,3.6c0.9-0.7,1.7-1.2,2.2-1.7
	c10-8.2,18.1-17.4,27-26.3c2.3-2.3,4.5-4.9,6.7-7.3c2.3-2.6,4.6-5.1,7-7.6c2.2-2.4,4.2-4.5,6.3-6.7c2.4-2.7,5.1-5.4,7.7-8.2
	c2-2.3,4.4-4.6,5.7-6.9c1.6-2.7,4.2-5.1,6-7.7c0.7-0.9,2-1.7,3-2.4c2.9-1.8,4.7-4,6.4-6.5c-2.3,1.4-4,2.5-6.4,3.9
	c0-0.8-0.2-1.5,0.1-2c1.8-2.8,4-5.4,7.9-6.7c0.4-2.7,2.2-5,5.6-7c0-0.2-0.1-0.3-0.1-0.5c-1.7,0.6-3.2,0.9-5.2,1.5
	c1-1.8,1.9-3.2,2.7-4.7c0.6-1.1,1.2-1.9,2.6-2.4c1.8-0.6,2.6-1.8,3.8-3.6c-1.9,1.2-3.1,2.7-4.5,2.1c1.8-0.9,2.5-1.9,2.9-3.2
	c0.3-1,1.7-2.4,2.7-3.4c0.5-0.5,1.9-0.6,2.6-0.8C640.9-166.6,639.9-166.5,639-166.3z M618.8-154.5c-0.2-0.1-0.5,0-0.5-0.2
	c0-0.1,0.3-0.4,0.3-0.5c0.3-0.1,0.5-0.1,0.9-0.2C619.2-154.9,619.1-154.7,618.8-154.5z M628-158.8c-2,2.4-2,5-5.2,7.2
	c1.1-2.9,1.4-5.7,5.3-8.9C628-159.7,628.3-159.1,628-158.8z M627.8-161.8c0-0.1-0.3-0.3-0.4-0.4c0.6-0.5,1.1-0.9,1.8-1.4
	c0,0,0.4,0.2,0.5,0.3C628.9-162.7,628.4-162.2,627.8-161.8z M631.5-159.3c-0.3,0.2-0.8,0.4-1.4,0.7c0.3-1.3,1-1.8,2.8-2
	C632.1-159.9,632-159.6,631.5-159.3z M605.3-221.6c-1.8,2.6-1.7,4.3,1.2,6.3c-1.4,0.3-2.7,0.8-2.8,2.1c-0.6,0.1-1.3,0.3-2.3,0.5
	c2.4-2.7,1.2-3.7,0.7-5.1c-0.4-1.6-0.8-3-1.4-4.6c-1.1,0.4-2.1,0.8-3.7,1.5c1,0.1,1.9,0.1,3.1,0.2c-1.3,0.9-2,1.4-3.2,2.3
	c0.8,0.7,1.4,1.2,2.2,1.9c-0.8,0.2-1.8,0.5-2,0.3c-0.6-1.8-1-3.7-1.5-5.3c2.8-2,5.1-3.7,7.5-5.4c0.8-0.8-1-1.5,1.2-2.5
	c0.4,0.8,0.9,1.5,1.3,2.2l0-0.1c-1,1-2.1,2-3.3,3.4c0.1,0.5,0.3,1.4,0.6,2.1c1.9-0.6,3.6-1.2,5.8-2c-0.4,1.1-0.8,1.9-1.3,3.3
	C606.2-220.8,605.7-221.2,605.3-221.6z M653.2-185.6c0.2,0.5,0.3,1.2,0.6,2.1c-3.1,1.8-6.1,3.4-7.9,6.2c-0.2,0.3-0.4,0.4-0.4,0.6
	c-1.3,1.4-0.5,2.5-2.4,4c-1.3,1-2.3,2.5-3.5,4c-1.3-0.7-0.2-2.6,0.8-3.5c2.5-2.2,2.8-4.2,3.8-6.2c0.7-1.4,1.1-2.4,2.9-3.8
	c1.6-1.3,2.6-3.1,3.9-4.7c0.3,0,0.4,0,0.7,0c-0.6,1.1-1.2,2.2-1.8,3.4C651.2-182.5,651.6-185.4,653.2-185.6z M587.6-287.9
	c0.7,0.3,1.8,0.3,2,0.8c0.1,0.5-1,1.6-0.2,1.7c0.8,0,1.9-0.4,2.9-0.7c-0.4-1.6,0.4-2.9,2.4-3.6c1.2-0.4,1.9-1,2.7-1.9
	c0.4-0.4,1-0.7,1.5-1c0.5-0.8,1.1-1.6,1.6-2.5c-0.7,0.2-1.6,0.3-1.8,0.4c-1.1,1.6-2.1,1.5-3.2,1.5c-1.3,0.1-2.4,0-3.9,0
	c0.1,1.4,0.1,2.5,0.1,3.8C590.3-288.9,589.3-289.5,587.6-287.9z M593.9-291.3c0.3-0.1,0.7-0.2,0.9-0.1c0.1,0-0.2,0.4-0.3,0.8
	c-0.3-0.1-0.7,0-0.8-0.1C593.4-290.7,593.7-291.2,593.9-291.3z M646.6-213c-2.8-0.4-2.6-2.4,0.4-4.9c1-0.9,1.6-2.1,2.5-3.2
	c0.3,0,0.4,0,0.6-0.1C649.2-218.6,651.6-216.5,646.6-213z M576.6-230.4c1.2-0.4,2.3-0.8,3.5-1.1c0.3,0.7,0.4,1.4,0.7,2.2
	c-4.1,1-6-0.5-8.7-1.2c1.7-1.9,3-2.3,4.5-2.5C578.5-233.1,576.2-231.2,576.6-230.4z M650.2-194.4c2.1-0.9,4.1-2,5.3-3.9
	c2.5,0.6,2.5,0.6,0.6,3.2c-0.5-0.5-0.8-0.9-1.4-1.3c-0.9,1.1-1.5,1.9-2.4,3.1C651.7-193.7,650.9-194.1,650.2-194.4z M638.8-212.7
	c-0.7,0.6-1.8,1.5-2.6,1.6c-0.6,0.1-1.3-0.4-1.3-0.9c-0.1-0.7,0.6-1.7,1-3.2c1.3,0.4,2.3,0.5,2.9,0.9
	C639.3-214.1,639.1-213.1,638.8-212.7z M598.7-292.3c0.6,0.1,1.5,0.1,2.1,0c0.2,1-1,2.6,0.8,2.7c0.4,0,0,1.6-0.1,3
	C599.5-288.1,596.9-288.7,598.7-292.3z M650.9-188.2c-1.1,0-1.9-0.1-3.2-0.1c3-1.6,4.4-4.4,8-5.4
	C653.9-191.6,652.6-190.1,650.9-188.2z M604.1-210.3c-0.2-1-0.3-1.9-0.5-2.7c2,0.7,2.3,2.2,1.9,4.3c-2.2,1.7-4.1,3.1-6,4.6
	c0.6-0.9,0.5-1.8,2.2-2.6C603.4-207.5,604.3-208.9,604.1-210.3z M625.4-203.6c-2,0.2-3.8,0.2-5.7,0.4c0-0.1,0-0.3,0-0.3
	c2.1-1.1,4.4-2.3,6.9-3.5C626.1-205.6,625.8-204.5,625.4-203.6z M536.3-222.7c-1.6,3.2-4,4.4-7.3,5.7
	C531-219.8,533.7-220.7,536.3-222.7z M490.1-267.7c-2.4,1.3-4.5,2.5-6.5,3.5c0.3-2.2,2.4-2.9,4.2-4
	C489.2-269,489.7-268.4,490.1-267.7z M645.2-190c-1-0.2-1.6-0.4-2.3-0.5c1-0.9,1.6-1.5,2.2-2.2c0.5-0.8,0.8-1.8,2.4-2.2
	C646.9-193.4,646.2-191.9,645.2-190z M543.5-232.8c0.5,0.9,0.9,1.4,1.3,2.1c-1,1.9-3.5,2.6-6,4.5c0.6-0.9,0.9-1.6,1.3-2.1
	C542.9-230.5,542.8-230.4,543.5-232.8z M516.8-277.2c2.1-0.6,3.8-1.1,5.1-1.5c0.7,0.6,1.6,1,2.4,1.4c-0.2,0.3-0.4,0.4-0.4,0.6
	C521.9-277,519.7-277.2,516.8-277.2z M624.4-198.2c-0.2,0.6-0.2,1-0.6,2c-0.6-0.5-1.1-0.7-1.4-1.1c0.7-0.9,1.4-1.7,1.4-2.2
	c0.1-0.5-1.2-0.3,0.5-1.5c0.6,1,1.2,2,1.8,3c-0.1,0.1-0.3,0.2-0.5,0.4C625.2-197.8,625-198.1,624.4-198.2z M623.6-262.9
	c0.7-0.2,2,0.1,2.2-1.4c0.5,0.1,1.1,0.2,1.9,0.2c-0.6,1.1-1.3,2.1-1.9,3C623.3-260.9,623-261.1,623.6-262.9z M623.5-211.6
	c0.8-0.4,1.5-1,2.2-1.4c0,0.1,0.3,0.3,0.4,0.4c-1.5,1-1.7,2.8-3.7,3.1c-0.7,0.1-1-0.6-1.7-1.1C622-211.1,622.7-211.2,623.5-211.6z
	 M603.1-284c1.3-0.3,2.3,0.2,3.5,0.3c-0.2,0.3-0.4,0.4-0.4,0.6c-1.6,0.2-3.5,0.4-5.1,0.6c-0.6,0.1-1.3,0.4-1.9,0.6
	C600.4-283.7,602.1-283.9,603.1-284z M581.3-289.9c0.3-0.8,0.6-1.7,1.1-3c0.9,0.2,1.6,0.3,2.3,0.5
	C583.6-291.3,583.1-289.9,581.3-289.9z M603.6-286.9c0.8-0.7,1.7-1.2,2.3-1.8c0.3,0.4,0.5,0.8,0.8,1.2c0.2,0.3,0.5,0.7,0.9,1.3
	C605.4-285.7,604.7-286.4,603.6-286.9z M575.9-286.3c2.1,0,3.4,0,5.2-0.1C577.8-284.3,577.3-284.3,575.9-286.3z M538.4-219.4
	c-0.3,0.5-0.8,0.9-1.1,1.4c-1.3-0.4-1.2-1.7,0.2-2.5c0.9-0.7,1.6-0.4,1.5,0.3C538.7-220,538.5-219.6,538.4-219.4z M595.6-214.7
	c2,1.8,1.9,1.9-0.9,3.3C595.1-212.4,595.4-213.3,595.6-214.7z M617.3-210.2c-0.3,1.2-0.5,2.2-0.7,3.3
	C614.9-208.3,614.9-208.3,617.3-210.2z M611-212.1c-1.6,0.3-2.8,0.7-4.4,1c1.4-1.1,2.5-1.9,3.6-2.7C610.5-213.4,610.7-213,611-212.1
	z M650.1-196.8c0.8-0.8,1.6-1.4,2.9-2.6c0,1.6-0.4,2.5-1.8,3.1C650.9-196.2,650.6-196.6,650.1-196.8z M470.6-256.3
	c-1.3,0.7-2.4,1.3-3.9,2.1c0.1-0.6,0.1-1,0.2-1.8C468.3-255.9,469.8-257.3,470.6-256.3z M612.3-218.1c-0.4-0.5-0.8-1.1-1.3-1.7
	C613.1-220.5,613.1-220.5,612.3-218.1z M629.4-269.4c0.7,0.6,1.6,1,2.3,1.6C630.2-267.1,629.5-267.4,629.4-269.4z M549.3-285.8
	c-0.1-0.2-0.2-0.3-0.3-0.6c0.8-1.3,1.8-1.8,4-2.1C551.1-287.2,550.2-286.6,549.3-285.8z M593.9-221.5c-0.5,1.1-1.1,2.2-1.6,3.3
	C591.3-219.4,591.6-220.2,593.9-221.5z M477.2-261c-1.5,1-2.8,1.8-4.9,3.2C473.9-259.9,475.3-260.9,477.2-261z M609.5-216.4
	c-1.6-0.4-1.6-0.4-0.2-2.5C609.3-218.2,609.4-217.5,609.5-216.4z M630.1-201.4c-0.5,1.1-0.9,1.8-1.3,2.7
	C627.1-199.6,627.1-199.6,630.1-201.4z M620.5-219.9c-0.2,0.1-0.2,0.1-0.3,0.1C620.3-219.9,620.3-219.9,620.5-219.9L620.5-219.9
	c0.9-1.1,0.9-1.1,2.5-1.3c-0.3,0.6-0.6,1.3-0.9,1.9c-0.1,0-0.5,0.1-0.4,0C621.2-219.5,620.9-219.7,620.5-219.9z M611.9-292
	c0.3-0.1,0.5-0.1,0.7-0.2c-0.2,0.6-0.2,1.2-0.4,2.1C610.1-289.9,611.4-291.1,611.9-292z M609.7-289.1c-1.5,0-2.3,0-3.3,0.1
	c0.7-0.7,1.5-1.2,2.4-1.9C609.1-290.4,609.4-290,609.7-289.1z M640.8-244.6c-0.5-0.3-1.1-0.6-1.9-0.8
	C641.2-246.5,641.2-246.5,640.8-244.6z M626.2-215.1c-0.9,0-1.7-0.1-2.7-0.2C625.9-216.9,625.9-216.9,626.2-215.1z M652.2-173
	c-1.3,0.7-2.3,1.2-3.1,1.6c0-0.1-0.1-0.3-0.2-0.5C649.9-172.9,650.9-173.8,652.2-173z M493.8-269.7c0-0.1-0.3-0.2-0.4-0.4
	c0.7-1.1,2-1.5,2.8-2.1c0,0.1,0.3,0.2,0.3,0.3C495.8-271.2,494.9-270.4,493.8-269.7z M594.2-286c0.9,0,2,0.1,2.9,0.2
	c-0.3,0.3-0.4,0.6-0.7,0.9c-0.9-0.1-1.9-0.2-2.8-0.3C593.7-285.6,594-285.8,594.2-286z M549.4-228.5c1-0.9,1.8-1.7,3.2-3.1
	C552.1-229.8,550.8-229.2,549.4-228.5z M633.7-184c0.8-0.4,1.4-0.6,2-1c0,0,0.2,0.3,0,0.4c-0.6,0.5-1.2,0.9-1.7,1.3
	C633.6-183.3,633.8-183.7,633.7-184z M606.5-289c-0.2,0.1-0.4,0.2-0.4,0.2c-0.8-0.4-1.8-0.7,0.3-2.4
	C607.1-290.8,606.6-289.8,606.5-289z M602.1-201.1c-0.3,0.5-0.9,1.1-1.3,1.6c-0.2-0.1-0.5-0.1-0.8-0.2c0.5-0.6,0.8-1,1.4-1.6
	C601.4-201.1,601.8-201,602.1-201.1z M636.2-196c-0.7-0.6-1.1-0.8-1.7-1.2C636.7-198.2,636.7-197.6,636.2-196z M662.7-221.1
	c-0.2,0.3-0.3,0.4-0.4,0.7c-0.6,0.1-1.3,0.3-2,0.4c0.2-0.4,0.4-0.7,0.5-0.8C661.6-221.1,662-221.1,662.7-221.1z M657.4-206.6
	c0-0.6-0.1-1.1,0-1.6c0.3-0.1,0.4-0.2,0.9-0.4c0,0.6-0.1,1.1-0.1,1.7C657.7-206.7,657.5-206.7,657.4-206.6z M630.5-262.6
	c0.8,0.4,1.3,0.7,1.6,1C630.2-260.6,630.2-261.1,630.5-262.6z M601.3-203c1-0.7,2.1-1.5,3.6-2.4C604-203.5,602.5-203.5,601.3-203z
	 M532.6-225c-0.6,1-0.7,1.5-1.2,2.3C530.5-223.2,530.5-223.2,532.6-225z M643.8-201.6c-0.6,0.1-1.3,0.5-1.9,0.6c0-0.2,0-0.3,0.1-0.6
	c0.4-0.2,0.8-0.4,1.1-0.5c0.3,0,0.6,0,0.8,0C644-202,644-201.9,643.8-201.6z M643.1-213.3c-0.1,0.1-0.4,0.4-0.3,0.5
	c-0.6-0.1-1.3-0.2-1.9-0.3c0.3-0.3,0.4-0.4,0.6-0.6C642-213.6,642.6-213.5,643.1-213.3z M658.1-185c-0.8,0.3-1.3,0.5-2.1,0.8
	C657-185.8,657-185.8,658.1-185z M655.4-191.6c0.3-0.1,0.6-0.1,0.7-0.2c-0.2,0.5-0.2,1-0.3,1.5c-0.4,0.2-0.6,0.1-0.9,0.3
	C655.2-190.7,655.3-191.2,655.4-191.6z M535.1-288.8c1.1-0.6,1.9-1.1,3.2-1.9C537.3-289.1,536.4-288.4,535.1-288.8z M634.2-216.3
	c-0.4,0.2-0.6,0.3-1,0.5c-0.1-0.5-0.2-1-0.2-1.4c0.3-0.1,0.5-0.3,0.8-0.4C633.9-217.2,634-216.7,634.2-216.3z M588.8-293
	c-0.9,0.2-1.9,0.4-2.8,0.7c0-0.2,0.2-0.4,0.2-0.5c0.9-0.3,1.9-0.6,2.8-0.9C588.9-293.4,588.8-293.2,588.8-293z M567.1-285.9
	c-1.1,0.3-2.1,0.4-3.1,0.7c0.2-0.3,0.2-0.4,0.3-0.6c1.1-0.2,2.3-0.4,3.3-0.6C567.3-286.2,567.3-286.1,567.1-285.9z M540.2-217.2
	c-0.5-0.1-1.3-0.2-2.2-0.4C540.4-218.8,540.5-218.1,540.2-217.2z M522.2-279c-0.2-0.3-0.4-0.8-0.6-1.1c1.4-1.1,1.8-0.4,1.8,0.1
	C523.4-279.8,522.5-279.3,522.2-279z M523.4-215.1c0.1,0-0.3,0.8-0.6,0.9c-0.4,0.2-0.9,0.1-1.5,0.1c0.5-0.6,1-1.2,1-1.3
	C522.8-215.4,523.1-215.3,523.4-215.1z M651-231.4c-0.2,0.1-0.5,0-0.9,0c0.5-0.5,0.8-0.9,1.1-0.9c0.3-0.1,0.5,0,0.7,0.2
	C651.4-232,651.2-231.7,651-231.4z M646.8-172.8c0,0.1,0.4,0.2,0.5,0.3c-0.6,0.5-1.1,1.1-1.6,1.5c0-0.1-0.3-0.1-0.4-0.3
	C645.7-171.7,646.4-172.2,646.8-172.8z M648.7-211.9c-0.6,0.3-1.1,0.7-1.8,1c0-0.3,0-0.4-0.1-0.7c0.6-0.2,1.2-0.6,1.8-0.8
	C648.6-212.2,648.6-212.1,648.7-211.9z M650.4-229.4c0.8-0.9,1.5-1.9,2.8-1.3C652-230.1,651.3-229.7,650.4-229.4z M536.4-282.8
	c-0.8,0.4-1.4,0.6-2,0.9c0-0.2,0-0.3,0-0.6c0.8-0.3,1.3-0.5,1.9-0.8C536.4-283.3,536.4-282.8,536.4-282.8z M638.2-261.3
	c-0.3-0.3-0.7-0.6-1-0.9c0.1-0.1,0.3-0.3,0.5-0.5c0.4,0.3,0.9,0.5,1.3,0.6C638.8-261.8,638.4-261.5,638.2-261.3z M649-205.8
	c-0.3-0.2-0.5-0.3-0.5-0.5c0-0.2,0.3-0.5,0.6-0.6c0.2,0.1,0.5,0.1,0.5,0.3C649.6-206.5,649.4-206.3,649-205.8z M646.6-239
	c-0.5,0.1-0.6,0-0.9,0c0.1-0.1,0.3-0.4,0.3-0.5c0.4-0.2,0.7-0.2,1.5-0.4C646.9-239.3,646.7-238.9,646.6-239z M620.3-219.9
	c-1,0.7-1.9,1.3-2.7,1.8C618.1-219.3,619.3-219.5,620.3-219.9z M620.1-290.2c-0.6,0.1-1.3,0.3-1.8,0.4c0.2-0.3,0.2-0.4,0.2-0.5
	c0.6-0.1,1.3-0.3,1.8-0.3C620.2-290.4,620.2-290.3,620.1-290.2z M643.8-168.6c0.3,0,0.5-0.1,0.6-0.1c-0.2,0.5-0.6,1.1-0.9,1.7
	c-0.3,0-0.5,0.1-0.6,0.1C643.3-167.5,643.6-168.1,643.8-168.6z M617.5-203.7c0.2,0.1,0.5,0.1,0.8,0.2c0,0.1-0.2,0.4-0.6,1
	C617.6-203.2,617.7-203.4,617.5-203.7z M617.3-217.8c-0.1,0.6-0.2,1.1-0.2,1.7C615.5-216.3,616.6-217.1,617.3-217.8z M635.3-147.3
	c-0.2,0.3-0.5,0.5-0.8,0.8c-0.2-0.1-0.5-0.1-0.5-0.3c0.3-0.3,0.7-0.6,1.1-0.9C635-147.7,635.2-147.5,635.3-147.3z M590.3-284.2
	c0.3-0.1,0.6,0,0.5,0.2c0,0.1-0.4,0.4-0.7,0.9c-0.4-0.2-0.5-0.3-0.6-0.5C590-283.9,590.2-284.2,590.3-284.2z M632.5-210.3
	c0.5-0.1,0.5,0.1,1.1,0.2c-0.6,0.4-0.9,0.7-1,0.7c-0.3,0-0.5,0-0.7-0.2C632.1-209.9,632.4-210.3,632.5-210.3z M639-218.6
	c-0.1,0.1-0.3,0.3-0.5,0.4c-0.3-0.2-0.5-0.5-0.8-0.7c0.1-0.1,0.2-0.1,0.3-0.3C638.5-218.9,638.8-218.8,639-218.6z M636.1-189
	c-0.2,0.1-0.3,0-0.5,0.1c0.2-0.5,0.3-0.9,0.4-1.3c0.3,0,0.4,0,0.7,0C636.5-189.9,636.3-189.4,636.1-189z M646.4-209
	c0.6-0.2,1.1-0.5,1.6-0.7c0,0.2,0,0.3-0.1,0.5c-0.6,0.2-1.1,0.5-1.6,0.7C646.3-208.7,646.4-209,646.4-209z M632.5-154.7
	c0.2-0.1,0.5,0,0.4,0.2c-0.4,0.4-0.5,0.6-0.9,1.1c-0.4-0.2-0.5-0.3-0.5-0.5C631.8-154.2,632.1-154.5,632.5-154.7z M524.9-215.1
	c0,0.1,0.3,0.1,0.4,0.3c-0.5,0.5-1,0.9-1.5,1.4c-0.1,0-0.2-0.1-0.4-0.2C523.9-214.1,524.4-214.6,524.9-215.1z M600.7-196.9
	c0,0.1-0.4,0.4-0.5,0.5c-0.3,0-0.5,0-0.8-0.1c0.5-0.4,0.7-0.7,1-0.7C600.6-197.4,600.7-197.1,600.7-196.9z M615-214.1
	c-0.2,0.1-0.5,0.3-0.5,0.3c-0.1-0.3-0.4-0.5-0.4-0.8c0.3-0.1,0.3-0.2,0.6-0.3C614.9-214.7,614.8-214.3,615-214.1z M608.5-138.7
	c0.1,0,0.2,0.1,0.3,0.3c-0.3,0.3-0.5,0.5-0.7,0.7c-0.1,0-0.4-0.2-0.4-0.2C608-138.2,608.3-138.4,608.5-138.7z M503-274.2
	c-0.1,0-0.1-0.2-0.2-0.3c0.5-0.3,1-0.7,1.5-1c0.1,0,0.1,0.2,0.3,0.2C503.8-274.7,503.4-274.5,503-274.2z M623.3-192.7
	c0.2-0.3,0.3-0.5,0.5-0.7c0.1,0,0.3,0.1,0.4,0.2c0,0.1-0.4,0.4-0.3,0.5C623.5-192.7,623.4-192.7,623.3-192.7z M545.2-222.8
	c0,0.1,0.2,0.3,0.2,0.5c0,0.1-0.3,0.2-0.7,0.4c0-0.3,0-0.4-0.1-0.7C544.6-222.5,544.9-222.7,545.2-222.8z M621.8-214.8
	c-0.3,0.4-0.4,0.8-0.6,1.1c0-0.1-0.2-0.3-0.1-0.6C621.2-214.4,621.4-214.5,621.8-214.8z M618.1-182c-0.2-0.1-0.4-0.3-0.4-0.4
	c0-0.1,0.4-0.4,0.7-0.6c0,0.1,0.2,0.3,0.4,0.5C618.7-182.5,618.4-182.3,618.1-182z M615.2-218.3c0.3-0.3,0.7-0.7,1.1-0.9
	c0.2-0.1,0.4,0.2,0.5,0.5c-0.5,0.4-0.8,0.7-1.4,0.9C615.5-217.9,615.3-218.2,615.2-218.3z M528.7-279.8c0-0.2,0-0.4-0.1-0.5
	c0.5-0.3,1-0.5,1.5-0.8c0,0.1,0.1,0.2,0.1,0.3C529.5-280.3,529.1-280.1,528.7-279.8z M487.8-205.2c-0.1,0.5,0.2,1-0.2,1.5
	c-1.6,1.6-3.3,3-4.8,4.5c-0.2-0.1-0.5-0.1-0.6-0.3c1.2-1.6,2.4-3.3,3.7-4.8C485.8-204.6,486.9-204.8,487.8-205.2z"/>
<path class="st5" d="M575.7-231c1,0,1.9-0.2,3-0.4c0.9-0.1,1.6,0.6,2.6-1c-1-0.1-2.2,0.1-2.8-0.2c-0.6-0.3-0.4-1.4-0.7-2.3
	c-2.4,1.5-3.7,1.4-5.1,0.8c-1.3-0.6-2.7-1.7-5.7-0.2c-0.6,0.3-1.2,0.1-1.8,0.2c0.3-0.3,0.5-0.6,0.8-0.9c1-0.5,1.8-0.9,3.3-1.6
	c-2.4-1.3-6-0.8-7.4-3.2c1,0,1.6-0.2,2.4-0.1c1,0.2,1.9,0.6,3,0.6c4.7-0.4,9.4-0.6,12.7,1.1c0.2,0.1,0.5,0.3,0.8,0.2
	c2.8-0.9,4.2,0.2,5.9,0.6c2.8,0.9,6.5,1,7.7,3c1.7-0.1,3.5-0.7,4.1-0.2c1.7,1.2,3,2.7,4.5,4.2c-2.4,1.7-4.8,1.4-6.7,3.8
	c0.9,0.4,1.9,1,2.9,1.5c0.3,0.1,1,0.2,1.2,0.1c2-1.4,2.3-0.6,2.8,0.2c0.3,0.6,1.3,0.6,2,1c0.7-0.9,1-1.4,1.2-1.8
	c-0.5-0.6-1-1.2-1.5-1.8c0.2-0.1,0.4-0.4,0.7-0.6c-1.5,0.3-3,0.5-4.5,0.9c1-1,1.7-1.8,2.7-2.7c0.6-0.5,1.5-1.2,1.9-1.3
	c1.7-0.1,3.9-0.4,4.2,0.4c0.8,1,1.9,1.5,3,2.1c0,0.1,0.3,0.2,0.6,0.3c0.1-0.7,0.3-1.3,0.4-1.6c1.9-1.1,3.5-2,5.3-3.1
	c0.1,0.7,0.1,1.4,0.2,2.1c0.7-0.2,1.4-0.3,2.3-0.6c0.2,1,0.1,1.8-1.4,3c-0.6,0.5-1,1.2-1.3,1.9l6.2-2.5c-0.1,1.4-2.5,4,0.4,3.7
	c0.6-0.4,1.2-0.9,1.9-1.4c0.3,1,1.1,1.5-1.2,2.7c-1.7,0.8-1.9,1.8-1.3,2.5c1.3-0.5,2.8-1.3,4.1-1.7c1.2-0.3,2.2-0.3,3.4-0.4
	c1,0,2.9-1.4,3.1,0.1c-2,0.6-3.9,1.2-4.8,3.7c2.2-1.3,4.3-2.2,5.9-3.4c0.8-0.6,0.7-1.8,1.2-3.1c0.8-0.4,1.7-0.8,2.4-1.2
	c0.1,0.3,0.2,0.5,0.1,0.6c-1.4,2.3,0.4,3,0.7,4.5c0,0.2,0.5,0.2,0.7,0.2c1.7-1.2,1.8-0.3,1.8,0.3c0.3,0.7,0.2,1.6,0.4,2.3
	c1.4-0.6,2.6-1.2,3.9-1.8c0.2-0.1,0.3,0.2,0.4,0.5c-0.8,0.5-1.7,1-2.3,1.4c-0.3,2,0,2.4,1.3,1.7c1.7-0.8,3.2-1.9,5.3-3.1
	c-1.3-0.2-2.2-0.2-2.9-0.3c0-0.1,0.2-0.4,0.2-0.4c1.3-0.5,2.6-0.9,4.3-1.5c-0.4,2.4,2.8,2.8,0.2,6.4c-0.4,0.4,0.2,0.9,0.6,1.6
	c2-1.9,3.9-3.7,6.2-5.8c-1.4,0.2-2.5,0.5-3.5,0.5c-0.7-1.1-1.6-2.3-2.4-4c1.3-0.1,1.9-0.2,3-0.3c0.3-1.2,0.5-2.2,0.5-3.3
	c0.5,0.1,0.9,0.1,1.4,0.1c0.5-1.2-0.1-1.8-1.3-1.5c-1.6,0.3-1.5-0.6-1.5-1.5c-0.6,0.2-1.3,0.5-1.9,0.6c-1.5,0.1-1.6-1.2-0.5-2.4
	c2.1-2,2.1-2.6,0.6-3.1c-0.7-0.3-1.6-0.5-2.5-0.7c0.7-2.2,0.4-3.9-1.2-4.4c-2.3-0.6-2.9-2.2-3.2-4.1c0-1.2-0.4-2.4-1.2-3
	c-1.4-0.8-1.7-1.8,0.2-4c-2.7,0.8-4.8,0.2-4.7-1.7c0-1.2-0.5-1.8-1.6-2.1c-2.3-1.1-4.4-2.5-6.2-3.9c-1-0.7-0.8-1,1.4-2.2
	c0.4-1,1.5-1.2,2.2-1.4c0.3-1.7,0-3-1.8-3.4c1.3-0.3,2.3-0.4,3.4-0.6c0.6-1,1-1.9,1.8-3c0.5,0.1,0.8,0.2,1.3,0.2c0.3,0.1,0.6,0,1,0
	c0.9-2-1.2-1.3-2-1.6c-1.9-1.3-4.4-2.3-7.4-2.6c-1.3-0.1-2.1-0.9-3.2-1.4c-0.4-0.2-0.7-0.3-1.1-0.4c-1-0.2-2.1-0.5-3.1-0.8
	c-1.1-0.4-2.4-0.7-3.2-0.8c-0.3-1.1-0.3-2.1-1-2.4c-1.1-0.6-2.8,0.9-4,2c-0.8-0.1-1.5-0.1-2-0.2c-0.2-0.1-0.3-0.3-0.6-0.3
	c0.6-0.5,1.1-1,1.8-1.4c-0.2-1.1-1-0.6-2.4,0.1c-2.4,1.3-3.5,1-4-0.7c-0.5,0.1-0.7,0.2-1.3,0.4c0.6-1.3,1-2.4,1.7-3.9
	c-2.1,1.5-4.5,0.9-5.3,3.9c-2.5-0.5-4.7-0.9-6.9-1.2c-1-0.2-2-0.5-3-0.6c-2.8-0.1-5.6-0.1-8.5-0.2c-1.1,0-1.9-0.7-2.8-0.4
	c-2.9,1.3-5.3,1.1-7.8,1.7c-0.2,0.1-0.2-0.1-0.3-0.3c0.3-0.5,0.8-1.1,1.1-1.6c-1.5-1.4-4.4,1.7-6.4,1.6c0.1-0.7,0.2-1.5,0.4-2.4
	l-9.1,3.7c0,0,0,0,0,0.1c0,0,0,0-0.2,0.1c-0.6,1.1-1.3,1.4-2.6,1.6c0.9-1.1,1.6-1.7,2.6-1.6l0,0l0,0c0-0.3-0.1-0.5-0.1-0.8
	c-1.4,0.3-3.5,1.2-3.8,0.7c-0.7-0.9-2.7,0-3.6-0.5c-0.3-0.1-1.3,0.1-1.8,0.4c-0.3,0.2-0.6,1-0.7,1.3c-1.9,0.8-3.4,1.4-5.1,2.1
	c-1.5,0.6-3,1.4-4.4,1.9c-1.5,0.6-2.1,0.3-1.5-1c0.2-0.5,0.7-1.1,0.9-1.6c-2.3,0.4-2.3,0.4-4.6,2.3c-3.4,2.8-6.3,3-7.1,0.9
	c-0.1-0.4-1.2-0.4-2-0.7c-1.2,2.3-3.6,4.2-5.4,4.5c-4.5,0.8-9.3,3-14.1,5.2c-0.9,0.4-1.7,0.9-2.4,1.1c-3.5,0.8-7.1,1.6-10.9,4.7
	c-0.1-0.7-0.1-1.1-0.2-1.4c-0.1-0.3-0.4-0.5-0.6-0.7c-2.3,1.5-0.1,1.5-0.6,2.5c-2.2,0.4-3.8-0.4-6.3,1.7c-0.3,0.6-0.5,1.2-0.9,2
	c-1.3-0.9-3.6,0.4-4.6,1.2c-2.4,2.2-4.5,3.8-7.3,3.9c-1.2,0.1-2.6,0.7-4.1,1.2c-1.3,0.5-2.6,0.9-4.1,1.4c0.2-1.1,0.5-2.1,0.8-3.3
	c-1.3,0.5-2.7,0.6-3.7,1.3c-3.7,2.4-7.2,4.9-10.8,7.4c-3.6,2.5-7.2,4.9-10.9,7.6c-3.9,2.9-7.7,5.7-11.6,8.7c-5.5,4.4-11,8.9-15.4,14
	c-2.8,3.2-4.9,6.7-8.8,9.5c-1,0.7-1.5,1.9-2.5,2.9c-2.5,2.6-3.7,6-8.1,7.6c-0.2,0.1-0.5,0.4-0.5,0.5c-1.6,2.5-4.2,4.4-6.5,6.4
	c-3.5,3-4.2,5.7-5.7,8.6c-0.2,0.5,0.3,1.1,0.8,1.4c0.3,0.3,1,0.3,1.5,0.6c-0.8,1.4-1.6,2.8-2.3,4.2c1.9-0.6,3.5-1.1,5-1.5
	c0.6-0.1,1.4-0.1,1.5,0.2c0.1,0.3-0.5,1.1-1.1,1.6c-3.1,2.3-5.1,4.9-6.8,7.9c2.7-0.3,3.6,1,4.3,2.6c1.8-0.8,3.6-1.7,5.2-2.5
	c0,0.2,0.1,0.3,0.1,0.5c-2.7,1.7-5.4,3.5-8.5,5.4c1.3,0,2.1,0.1,3.3,0.1c-2.4,2.7-5.3,5.3-4.2,7.6c3.9-1.8,7.9-3.6,12-5.5
	c0.2-0.1,0.2-0.1,0.3-0.2c1.5-0.8,3.3-1.9,4.7-2.5c4.8-2.2,9.5-4.4,14.2-6.3c2.9-1.1,5.9-1.9,8.7-2.2c2.4-0.3,4.8-0.6,7.4-1.6
	c0.6-0.2,1-0.3,1.7-0.6c0.1-0.1,0.2-0.3,0.3-0.3c10.8-6.7,22.1-12.5,33.3-17.8c0-0.1,0-0.1,0-0.2c0.6-0.4,1.2-0.9,1.7-1.3
	c4.6-2.7,8.9-5.3,13.6-8.2c1.5-1,3.1-1.9,4.7-3c2-1.4,3.8-3.3,6.2-3.3c0.5-0.1,1-0.5,1.3-0.7c3.6-2.2,7.2-4.4,10.7-6.5
	c1.3,0.6,2.4,1.4,3.5,2c1.9-1,3.6-1.3,5.5-1.6c1.5-0.2,3-0.5,4.5-0.9c-0.5,0-0.9-0.2-1.3-0.4c2.1-2.2,2.6-2.4,3.6-1.2
	c1-0.7,2-1.3,3.7-2.4c-0.4,1-0.9,1.7-1.2,2.3c2.5-0.9,4.8-1.8,6.9-2.1c1.4-2,4-3,5.4-4.8c0.7-0.8,1.6-1.4,2.5-2.2
	c-2.7,0.5,0-2.2-1.8-2.5c1.4-0.5,1.9-0.6,2.8-0.9c0.5-1.1-0.1-2.6,2.8-3.3c0,0.2,0,0.4,0.1,0.5c0.1,0.2,0.1,0.4,0.4,0.9
	c1.5-3.5,0.6-3.9-4.9-2c2.5-2.6,4.3-2.1,6.6-2.5c-1.1-1.7-4.1-0.8-6.2-1c1.8-1,3.2-1.2,4.5-1.1c1.2,0.1,2.8,0.2,4.1-0.3
	c2.1-0.8,3.1-0.7,3.7,0.4c0.3,0.6,0.3,1.6,2.2,0.6c0.1-1.2,0.8-2.4,2.8-3.2c2.6,0.9,7.9-1.2,8.9,1.6c1.5-0.4,3.1-1.4,3.9-1.2
	C571.3-233.2,574.7-233.2,575.7-231z M650.1-223.6c-0.2,0.1-0.5,0.5-0.9,0.7c-0.4,0.2-0.6,0.1-1.3,0.1c0.9-0.5,1.4-0.9,1.6-0.9
	C649.9-223.8,649.9-223.6,650.1-223.6z M649.8-226.4c-1,1.6-1.9,2-3,1.4C648-225.6,648.7-225.9,649.8-226.4z M628.7-223.9
	c-0.3-0.1-0.7-0.2-0.8-0.2c0.2-0.4,0.4-0.7,0.7-1.1c0.3,0.1,0.5,0.1,0.9,0C629.4-224.7,629.1-224.3,628.7-223.9z M633.9-268.3
	c0.2,0.1,0.7,0.2,0.7,0.4c0,0.2-0.4,0.6-0.9,1.3c-0.3-0.3-0.6-0.4-0.5-0.6C633.3-267.6,633.6-267.9,633.9-268.3z M634.2-261.9
	c-2.2,1.3-2.4,0.4-2.9,0.1c0.2-0.3,0.4-0.4,0.5-0.6C632.4-262.3,633.1-262.1,634.2-261.9z M631.8-265.1c0.4,0,0.9,0,1.3,0
	c-0.2,0.3-0.3,0.5-0.5,0.7c-0.5,0-0.9-0.1-1.3-0.2C631.6-264.8,631.6-265,631.8-265.1z M630.8-230.7L630.8-230.7
	C630.9-230.7,630.9-230.7,630.8-230.7c1.1-0.7,2.1-1.3,3.1-2.1c2.7,1.3,2.5,3.3-0.6,6.9c-1.6-0.8-0.4-2.5,1-4.4
	c-1.1-0.2-2.2-0.3-3.4-0.3l-0.2,0.1C630.7-230.5,630.8-230.7,630.8-230.7c-0.5-0.1-1.2-0.2-2.3-0.5
	C630.6-232,630.6-231.1,630.8-230.7z M624.7-237.1c0.3,0.3,0.6,0.3,0.7,0.6c-0.2,0.1-0.7,0.6-0.7,0.7c-0.3,0-0.5,0-0.5-0.3
	C624.2-236.4,624.5-236.7,624.7-237.1z M609.4-274.9c0.9-0.5,1.8-1.2,2.6-1.4c1.6-0.5,3.6,0.5,4.3,1.4c-2.4,0.2-4.7,0.4-7,0.6
	L609.4-274.9z M606.5-235.5c3.3-0.6,3.4,1.4,4.4,3c-4.1,1.8-1.8-2.9-5.8-0.6C605.7-234.4,606.2-234.9,606.5-235.5z M593.6-238
	c0.9,0,2.6-1.2,2.8,0.1c0.1,0.9,3-0.5,1.7,2.1c-1.9-0.6-3.5-1.1-5-1.6C593.3-237.7,593.5-237.9,593.6-238z M589.3-238.9
	c0.5-0.1,0.9-0.2,1.2-0.2c0.3,0.1,0.5,0.3,0.6,0.5c-0.2,0.1-0.3,0.3-0.6,0.5c-0.5-0.1-1-0.3-1.6-0.5
	C588.9-238.5,589.1-238.6,589.3-238.9z M415.5-164.9c-1.2,0.4-2.3,0.8-3.5,1.1c0-0.2,0-0.3,0.1-0.5l3.5-1.4
	C415.5-165.5,415.6-165.3,415.5-164.9z M560.9-235.1c-0.4-0.2-0.5-0.5-0.9-0.6c0.2-0.1,0.5-0.5,0.6-0.5c0.3,0.1,0.6,0.4,1.1,0.4
	C561.4-235.6,561.1-235.2,560.9-235.1z M652.1-165.5c-1.6,0.1-3.8,1.4-5,0.6c-0.1,0-1.6,1.1-2.5,1.7c0.4,0.3,0.7,0.3,1,0.1
	c1.1-0.7,1.6-0.5,1.4,0.3c0,0.8-0.8,1.3-1.8,1.5c-0.8,0.2-1.6,0.1-2.4,0.2c1.3-3,2.6-5.8,4.4-8.5c0.4-0.2,0.6-0.1,0.9-0.3
	c0.1,0.9,0.5,1.6,0.6,2.6c1.1-2,2.2-3.9,3.2-6.1c-1,0.5-1.4,0.8-2.1,1.1c-0.4,0.2-1,0.3-1,0.3c0.1-1.3,0-2.3,0.2-3.4
	s0.5-2.2,0.8-3.5c-1.4,1-2.4,1.8-3.5,2.5c0.3,0.3,0.5,0.6,0.8,1.1c-3.4,1.8-1.8,3.7-4.5,5.7c1.2-0.1,1.6-0.2,2.4-0.3
	c-0.4,1.1-0.8,2-1,2.9c-1,2.6-2.2,3.3-5.4,3.3c0.8-1.9,1.8-3.9,2.2-5.7c0.6-2,0.8-3.9,1.3-6c2.9-2.2,2.9-2.6,1.7-3.7
	c-0.4-0.4-0.9-0.9-0.9-1.6c-0.2-1,0.2-2.3,0.1-3.3c-0.4-2.6-0.1-5.3,1.5-8.6c-1.3,0.3-2.5,0.5-3.9,0.7c-0.1,2.5-2.8,5.8-1.9,8
	c3-0.4,3.1-0.3,3.1,1.2c0.1,1.8,0.1,3.6-3.5,5.9c2.6,1.4,1.2,4.3,0.1,7.2c-0.7,1.8-1.7,3.7-1.6,5c0.3,2.1-1.8,4.3-3,6.5
	c-0.2,0.4-1.1,0.8-1.7,1.3c0.1-2.9,1.4-5.7,2.7-8.6c0.6-1.1,1.3-2.7,1-3c-0.8-0.6-0.3-1.4,0.4-2.4c0.7-1,1.3-1.9,1-2.8
	c-2.5,1.8-3.4,3.8-3.5,5.1c-0.3,2.6-1.8,5-4.3,7.6c-0.1,0.1,0,0.3-0.1,0.6c3.4-0.8,3.9,0.2,1.8,3.1c-0.2,0.3-0.4,0.4-0.5,0.6
	c-1.1,0.9-1.3,1.4-1.1,2.3c0.3,0.7-0.3,1.9-0.7,3c-1.5,3.9-2.7,7.8-4.3,11.8c-2.4,6.4-7.5,12.9-12,19.3c-0.4,0.4-1.1,0.8-1.6,1.1
	c0.9-1.7,2.1-3.2,3.1-4.7s1.3-2.9,0.8-4.2c-0.7,1.2-1.2,2.1-1.8,3c-1.4,2-2.4,3.9-3.5,5.8c-2.7,4-4.9,8.3-7.9,12.3
	c-5.3,7.1-11.1,14.1-17,21.2c-7.4,9-14.8,17.9-23.4,26.6c-1.2,1.2-1.7,2.4-1.6,3.6c0.9-0.7,1.7-1.2,2.2-1.7
	c10-8.2,18.1-17.4,27-26.3c2.3-2.3,4.5-4.9,6.7-7.3c2.3-2.6,4.6-5.1,7-7.6c2.2-2.4,4.2-4.5,6.3-6.7c2.4-2.7,5.1-5.4,7.7-8.2
	c2-2.3,4.4-4.6,5.7-6.9c1.6-2.7,4.2-5.1,6-7.7c0.7-0.9,2-1.7,3-2.4c2.9-1.8,4.7-4,6.4-6.5c-2.3,1.4-4,2.5-6.4,3.9
	c0-0.8-0.2-1.5,0.1-2c1.8-2.8,4-5.4,7.9-6.7c0.4-2.7,2.2-5,5.6-7c0-0.2-0.1-0.3-0.1-0.5c-1.7,0.6-3.2,0.9-5.2,1.5
	c1-1.8,1.9-3.2,2.7-4.7c0.6-1.1,1.2-1.9,2.6-2.4c1.8-0.6,2.6-1.8,3.8-3.6c-1.9,1.2-3.1,2.7-4.5,2.1c1.8-0.9,2.5-1.9,2.9-3.2
	c0.3-1,1.7-2.4,2.7-3.4c0.5-0.5,1.9-0.6,2.6-0.8C654-165.8,653-165.7,652.1-165.5z M631.9-153.7c-0.2-0.1-0.5,0-0.5-0.2
	c0-0.1,0.3-0.4,0.3-0.5c0.3-0.1,0.5-0.1,0.9-0.2C632.3-154.1,632.1-153.9,631.9-153.7z M641.1-158c-2,2.4-2,5-5.2,7.2
	c1.1-2.9,1.4-5.7,5.3-8.9C641.1-158.9,641.4-158.3,641.1-158z M640.9-161c0-0.1-0.3-0.3-0.4-0.4c0.6-0.5,1.1-0.9,1.8-1.4
	c0,0,0.4,0.2,0.5,0.3C642-161.9,641.5-161.4,640.9-161z M644.6-158.5c-0.3,0.2-0.8,0.4-1.4,0.7c0.3-1.3,1-1.8,2.8-2
	C645.2-159.1,645.1-158.8,644.6-158.5z M618.4-220.8c-1.8,2.6-1.7,4.3,1.2,6.3c-1.4,0.3-2.7,0.8-2.8,2.1c-0.6,0.1-1.3,0.3-2.3,0.5
	c2.4-2.7,1.2-3.7,0.7-5.1c-0.4-1.6-0.8-3-1.4-4.6c-1.1,0.4-2.1,0.8-3.7,1.5c1,0.1,1.9,0.1,3.1,0.2c-1.3,0.9-2,1.4-3.2,2.3
	c0.8,0.7,1.4,1.2,2.2,1.9c-0.8,0.2-1.8,0.5-2,0.3c-0.6-1.8-1-3.7-1.5-5.3c2.8-2,5.1-3.7,7.5-5.4c0.8-0.8-1-1.5,1.2-2.5
	c0.4,0.8,0.9,1.5,1.3,2.2l0-0.1c-1,1-2.1,2-3.3,3.4c0.1,0.5,0.3,1.4,0.6,2.1c1.9-0.6,3.6-1.2,5.8-2c-0.4,1.1-0.8,1.9-1.3,3.3
	C619.3-220,618.8-220.4,618.4-220.8z M666.3-184.8c0.2,0.5,0.3,1.2,0.6,2.1c-3.1,1.8-6.1,3.4-7.9,6.2c-0.2,0.3-0.4,0.4-0.4,0.6
	c-1.3,1.4-0.5,2.5-2.4,4c-1.3,1-2.3,2.5-3.5,4c-1.3-0.7-0.2-2.6,0.8-3.5c2.5-2.2,2.8-4.2,3.8-6.2c0.7-1.4,1.1-2.4,2.9-3.8
	c1.6-1.3,2.6-3.1,3.9-4.7c0.3,0,0.4,0,0.7,0c-0.6,1.1-1.2,2.2-1.8,3.4C664.3-181.7,664.7-184.6,666.3-184.8z M600.7-287.1
	c0.7,0.3,1.8,0.3,2,0.8c0.1,0.5-1,1.6-0.2,1.7c0.8,0,1.9-0.4,2.9-0.7c-0.4-1.6,0.4-2.9,2.4-3.6c1.2-0.4,1.9-1,2.7-1.9
	c0.4-0.4,1-0.7,1.5-1c0.5-0.8,1.1-1.6,1.6-2.5c-0.7,0.2-1.6,0.3-1.8,0.4c-1.1,1.6-2.1,1.5-3.2,1.5c-1.3,0.1-2.4,0-3.9,0
	c0.1,1.4,0.1,2.5,0.1,3.8C603.4-288.1,602.4-288.7,600.7-287.1z M607-290.5c0.3-0.1,0.7-0.2,0.9-0.1c0.1,0-0.2,0.4-0.3,0.8
	c-0.3-0.1-0.7,0-0.8-0.1C606.5-289.9,606.8-290.4,607-290.5z M659.7-212.2c-2.8-0.4-2.6-2.4,0.4-4.9c1-0.9,1.6-2.1,2.5-3.2
	c0.3,0,0.4,0,0.6-0.1C662.3-217.8,664.7-215.7,659.7-212.2z M589.7-229.6c1.2-0.4,2.3-0.8,3.5-1.1c0.3,0.7,0.4,1.4,0.7,2.2
	c-4.1,1-6-0.5-8.7-1.2c1.7-1.9,3-2.3,4.5-2.5C591.6-232.3,589.3-230.4,589.7-229.6z M663.3-193.6c2.1-0.9,4.1-2,5.3-3.9
	c2.5,0.6,2.5,0.6,0.6,3.2c-0.5-0.5-0.8-0.9-1.4-1.3c-0.9,1.1-1.5,1.9-2.4,3.1C664.8-192.9,664-193.3,663.3-193.6z M651.9-211.9
	c-0.7,0.6-1.8,1.5-2.6,1.6c-0.6,0.1-1.3-0.4-1.3-0.9c-0.1-0.7,0.6-1.7,1-3.2c1.3,0.4,2.3,0.5,2.9,0.9
	C652.4-213.3,652.2-212.3,651.9-211.9z M611.8-291.5c0.6,0.1,1.5,0.1,2.1,0c0.2,1-1,2.6,0.8,2.7c0.4,0,0,1.6-0.1,3
	C612.6-287.3,610-287.9,611.8-291.5z M664-187.4c-1.1,0-1.9-0.1-3.2-0.1c3-1.6,4.4-4.4,8-5.4C667-190.8,665.7-189.3,664-187.4z
	 M617.2-209.5c-0.2-1-0.3-1.9-0.5-2.7c2,0.7,2.3,2.2,1.9,4.3c-2.2,1.7-4.1,3.1-6,4.6c0.6-0.9,0.5-1.8,2.2-2.6
	C616.5-206.7,617.4-208.1,617.2-209.5z M638.5-202.8c-2,0.2-3.8,0.2-5.7,0.4c0-0.1,0-0.3,0-0.3c2.1-1.1,4.4-2.3,6.9-3.5
	C639.2-204.8,638.8-203.7,638.5-202.8z M549.4-221.9c-1.6,3.2-4,4.4-7.3,5.7C544.1-219,546.8-219.9,549.4-221.9z M503.2-266.9
	c-2.4,1.3-4.5,2.5-6.5,3.5c0.3-2.2,2.4-2.9,4.2-4C502.3-268.2,502.8-267.6,503.2-266.9z M658.3-189.2c-1-0.2-1.6-0.4-2.3-0.5
	c1-0.9,1.6-1.5,2.2-2.2c0.5-0.8,0.8-1.8,2.4-2.2C660-192.6,659.3-191.1,658.3-189.2z M556.6-232c0.5,0.9,0.9,1.4,1.3,2.1
	c-1,1.9-3.5,2.6-6,4.5c0.6-0.9,0.9-1.6,1.3-2.1C556-229.7,555.9-229.6,556.6-232z M529.9-276.4c2.1-0.6,3.8-1.1,5.1-1.5
	c0.7,0.6,1.6,1,2.4,1.4c-0.2,0.3-0.4,0.4-0.4,0.6C535-276.2,532.8-276.4,529.9-276.4z M637.5-197.4c-0.2,0.6-0.2,1-0.6,2
	c-0.6-0.5-1.1-0.7-1.4-1.1c0.7-0.9,1.4-1.7,1.4-2.2c0.1-0.5-1.2-0.3,0.5-1.5c0.6,1,1.2,2,1.8,3c-0.1,0.1-0.3,0.2-0.5,0.4
	C638.3-197,638.1-197.3,637.5-197.4z M636.7-262.1c0.7-0.2,2,0.1,2.2-1.4c0.5,0.1,1.1,0.2,1.9,0.2c-0.6,1.1-1.3,2.1-1.9,3
	C636.4-260.1,636.1-260.3,636.7-262.1z M636.6-210.8c0.8-0.4,1.5-1,2.2-1.4c0,0.1,0.3,0.3,0.4,0.4c-1.5,1-1.7,2.8-3.7,3.1
	c-0.7,0.1-1-0.6-1.7-1.1C635.1-210.3,635.8-210.4,636.6-210.8z M616.2-283.2c1.3-0.3,2.3,0.2,3.5,0.3c-0.2,0.3-0.4,0.4-0.4,0.6
	c-1.6,0.2-3.5,0.4-5.1,0.6c-0.6,0.1-1.3,0.4-1.9,0.6C613.5-282.9,615.2-283.1,616.2-283.2z M594.4-289.1c0.3-0.8,0.6-1.7,1.1-3
	c0.9,0.2,1.6,0.3,2.3,0.5C596.7-290.5,596.2-289.1,594.4-289.1z M616.7-286.1c0.8-0.7,1.7-1.2,2.3-1.8c0.3,0.4,0.5,0.8,0.8,1.2
	c0.2,0.3,0.5,0.7,0.9,1.3C618.5-284.9,617.8-285.6,616.7-286.1z M589-285.5c2.1,0,3.4,0,5.2-0.1C590.9-283.5,590.4-283.5,589-285.5z
	 M551.5-218.6c-0.3,0.5-0.8,0.9-1.1,1.4c-1.3-0.4-1.2-1.7,0.2-2.5c0.9-0.7,1.6-0.4,1.5,0.3C551.8-219.2,551.6-218.8,551.5-218.6z
	 M608.7-213.9c2,1.8,1.9,1.9-0.9,3.3C608.2-211.6,608.5-212.5,608.7-213.9z M630.4-209.4c-0.3,1.2-0.5,2.2-0.7,3.3
	C628-207.5,628-207.5,630.4-209.4z M624.1-211.3c-1.6,0.3-2.8,0.7-4.4,1c1.4-1.1,2.5-1.9,3.6-2.7
	C623.6-212.6,623.8-212.2,624.1-211.3z M663.2-196c0.8-0.8,1.6-1.4,2.9-2.6c0,1.6-0.4,2.5-1.8,3.1C664-195.4,663.7-195.8,663.2-196z
	 M483.7-255.5c-1.3,0.7-2.4,1.3-3.9,2.1c0.1-0.6,0.1-1,0.2-1.8C481.4-255.1,482.9-256.5,483.7-255.5z M625.4-217.3
	c-0.4-0.5-0.8-1.1-1.3-1.7C626.2-219.7,626.2-219.7,625.4-217.3z M642.5-268.6c0.7,0.6,1.6,1,2.3,1.6
	C643.3-266.3,642.6-266.6,642.5-268.6z M562.3-285c-0.1-0.2-0.2-0.3-0.3-0.6c0.8-1.3,1.8-1.8,4-2.1
	C564.2-286.4,563.3-285.8,562.3-285z M607-220.7c-0.5,1.1-1.1,2.2-1.6,3.3C604.4-218.6,604.7-219.4,607-220.7z M490.3-260.2
	c-1.5,1-2.8,1.8-4.9,3.2C487-259.1,488.4-260.1,490.3-260.2z M622.6-215.6c-1.6-0.4-1.6-0.4-0.2-2.5
	C622.4-217.4,622.5-216.7,622.6-215.6z M643.2-200.6c-0.5,1.1-0.9,1.8-1.3,2.7C640.2-198.8,640.2-198.8,643.2-200.6z M633.6-219.1
	c-0.2,0.1-0.2,0.1-0.3,0.1C633.4-219.1,633.4-219.1,633.6-219.1L633.6-219.1c0.9-1.1,0.9-1.1,2.5-1.3c-0.3,0.6-0.6,1.3-0.9,1.9
	c-0.1,0-0.5,0.1-0.4,0C634.3-218.7,634-218.9,633.6-219.1z M625-291.2c0.3-0.1,0.5-0.1,0.7-0.2c-0.2,0.6-0.2,1.2-0.4,2.1
	C623.2-289.1,624.5-290.3,625-291.2z M622.8-288.3c-1.5,0-2.3,0-3.3,0.1c0.7-0.7,1.5-1.2,2.4-1.9
	C622.2-289.6,622.5-289.2,622.8-288.3z M653.9-243.8c-0.5-0.3-1.1-0.6-1.9-0.8C654.3-245.7,654.3-245.7,653.9-243.8z M639.3-214.3
	c-0.9,0-1.7-0.1-2.7-0.2C639-216.1,639-216.1,639.3-214.3z M665.3-172.2c-1.3,0.7-2.3,1.2-3.1,1.6c0-0.1-0.1-0.3-0.2-0.5
	C663-172.1,664-173,665.3-172.2z M506.9-268.9c0-0.1-0.3-0.2-0.4-0.4c0.7-1.1,2-1.5,2.8-2.1c0,0.1,0.3,0.2,0.3,0.3
	C508.9-270.4,508-269.6,506.9-268.9z M607.3-285.2c0.9,0,2,0.1,2.9,0.2c-0.3,0.3-0.4,0.6-0.7,0.9c-0.9-0.1-1.9-0.2-2.8-0.3
	C606.8-284.8,607-285,607.3-285.2z M562.5-227.7c1-0.9,1.8-1.7,3.2-3.1C565.2-229,563.9-228.4,562.5-227.7z M646.8-183.2
	c0.8-0.4,1.4-0.6,2-1c0,0,0.2,0.3,0,0.4c-0.6,0.5-1.2,0.9-1.7,1.3C646.7-182.5,646.9-182.9,646.8-183.2z M619.6-288.2
	c-0.2,0.1-0.4,0.2-0.4,0.2c-0.8-0.4-1.8-0.7,0.3-2.4C620.2-290,619.7-289,619.6-288.2z M615.2-200.3c-0.3,0.5-0.9,1.1-1.3,1.6
	c-0.2-0.1-0.5-0.1-0.8-0.2c0.5-0.6,0.8-1,1.4-1.6C614.5-200.3,614.8-200.2,615.2-200.3z M649.3-195.2c-0.7-0.6-1.1-0.8-1.7-1.2
	C649.8-197.4,649.8-196.8,649.3-195.2z M675.8-220.3c-0.2,0.3-0.3,0.4-0.4,0.7c-0.6,0.1-1.3,0.3-2,0.4c0.2-0.4,0.4-0.7,0.5-0.8
	C674.7-220.3,675.1-220.3,675.8-220.3z M670.5-205.8c0-0.6-0.1-1.1,0-1.6c0.3-0.1,0.4-0.2,0.9-0.4c0,0.6-0.1,1.1-0.1,1.7
	C670.8-205.9,670.6-205.9,670.5-205.8z M643.6-261.8c0.8,0.4,1.3,0.7,1.6,1C643.3-259.8,643.3-260.3,643.6-261.8z M614.4-202.2
	c1-0.7,2.1-1.5,3.6-2.4C617.1-202.7,615.6-202.7,614.4-202.2z M545.7-224.2c-0.6,1-0.7,1.5-1.2,2.3
	C543.6-222.4,543.6-222.4,545.7-224.2z M656.9-200.8c-0.6,0.1-1.3,0.5-1.9,0.6c0-0.2,0-0.3,0.1-0.6c0.4-0.2,0.8-0.4,1.1-0.5
	c0.3,0,0.6,0,0.8,0C657.1-201.2,657.1-201.1,656.9-200.8z M656.2-212.5c-0.1,0.1-0.4,0.4-0.3,0.5c-0.6-0.1-1.3-0.2-1.9-0.3
	c0.3-0.3,0.4-0.4,0.6-0.6C655.1-212.8,655.7-212.7,656.2-212.5z M671.2-184.2c-0.8,0.3-1.3,0.5-2.1,0.8
	C670.1-185,670.1-185,671.2-184.2z M668.5-190.8c0.3-0.1,0.6-0.1,0.7-0.2c-0.2,0.5-0.2,1-0.3,1.5c-0.4,0.2-0.6,0.1-0.9,0.3
	C668.3-189.9,668.4-190.4,668.5-190.8z M548.2-288c1.1-0.6,1.9-1.1,3.2-1.9C550.4-288.3,549.5-287.6,548.2-288z M647.3-215.5
	c-0.4,0.2-0.6,0.3-1,0.5c-0.1-0.5-0.2-1-0.2-1.4c0.3-0.1,0.5-0.3,0.8-0.4C647-216.4,647.1-215.9,647.3-215.5z M601.9-292.2
	c-0.9,0.2-1.9,0.4-2.8,0.7c0-0.2,0.2-0.4,0.2-0.5c0.9-0.3,1.9-0.6,2.8-0.9C602-292.6,601.9-292.4,601.9-292.2z M580.2-285.1
	c-1.1,0.3-2.1,0.4-3.1,0.7c0.2-0.3,0.2-0.4,0.3-0.6c1.1-0.2,2.3-0.4,3.3-0.6C580.4-285.4,580.4-285.3,580.2-285.1z M553.3-216.4
	c-0.5-0.1-1.3-0.2-2.2-0.4C553.5-218,553.6-217.3,553.3-216.4z M535.3-278.2c-0.2-0.3-0.4-0.8-0.6-1.1c1.4-1.1,1.8-0.4,1.8,0.1
	C536.5-279,535.6-278.5,535.3-278.2z M536.5-214.3c0.1,0-0.3,0.8-0.6,0.9c-0.4,0.2-0.9,0.1-1.5,0.1c0.5-0.6,1-1.2,1-1.3
	C535.9-214.6,536.2-214.5,536.5-214.3z M664.1-230.6c-0.2,0.1-0.5,0-0.9,0c0.5-0.5,0.8-0.9,1.1-0.9c0.3-0.1,0.5,0,0.7,0.2
	C664.5-231.2,664.3-230.9,664.1-230.6z M659.9-172c0,0.1,0.4,0.2,0.5,0.3c-0.6,0.5-1.1,1.1-1.6,1.5c0-0.1-0.3-0.1-0.4-0.3
	C658.8-170.9,659.4-171.4,659.9-172z M661.8-211.1c-0.6,0.3-1.1,0.7-1.8,1c0-0.3,0-0.4-0.1-0.7c0.6-0.2,1.2-0.6,1.8-0.8
	C661.7-211.4,661.7-211.3,661.8-211.1z M663.5-228.6c0.8-0.9,1.5-1.9,2.8-1.3C665.1-229.3,664.4-228.9,663.5-228.6z M549.5-282
	c-0.8,0.4-1.4,0.6-2,0.9c0-0.2,0-0.3,0-0.6c0.8-0.3,1.3-0.5,1.9-0.8C549.5-282.5,549.5-282,549.5-282z M651.2-260.5
	c-0.3-0.3-0.7-0.6-1-0.9c0.1-0.1,0.3-0.3,0.5-0.5c0.4,0.3,0.9,0.5,1.3,0.6C651.9-261,651.5-260.7,651.2-260.5z M662.1-205
	c-0.3-0.2-0.5-0.3-0.5-0.5c0-0.2,0.3-0.5,0.6-0.6c0.2,0.1,0.5,0.1,0.5,0.3C662.7-205.7,662.5-205.5,662.1-205z M659.7-238.2
	c-0.5,0.1-0.6,0-0.9,0c0.1-0.1,0.3-0.4,0.3-0.5c0.4-0.2,0.7-0.2,1.5-0.4C660-238.5,659.8-238.1,659.7-238.2z M633.4-219.1
	c-1,0.7-1.9,1.3-2.7,1.8C631.2-218.5,632.4-218.7,633.4-219.1z M633.2-289.4c-0.6,0.1-1.3,0.3-1.8,0.4c0.2-0.3,0.2-0.4,0.2-0.5
	c0.6-0.1,1.3-0.3,1.8-0.3C633.3-289.6,633.3-289.5,633.2-289.4z M656.9-167.8c0.3,0,0.5-0.1,0.6-0.1c-0.2,0.5-0.6,1.1-0.9,1.7
	c-0.3,0-0.5,0.1-0.6,0.1C656.4-166.7,656.7-167.3,656.9-167.8z M630.6-202.9c0.2,0.1,0.5,0.1,0.8,0.2c0,0.1-0.2,0.4-0.6,1
	C630.7-202.4,630.8-202.6,630.6-202.9z M630.4-217c-0.1,0.6-0.2,1.1-0.2,1.7C628.6-215.5,629.7-216.3,630.4-217z M648.4-146.5
	c-0.2,0.3-0.5,0.5-0.8,0.8c-0.2-0.1-0.5-0.1-0.5-0.3c0.3-0.3,0.7-0.6,1.1-0.9C648.1-146.9,648.3-146.7,648.4-146.5z M603.4-283.4
	c0.3-0.1,0.6,0,0.5,0.2c0,0.1-0.4,0.4-0.7,0.9c-0.4-0.2-0.5-0.3-0.6-0.5C603.1-283.1,603.3-283.4,603.4-283.4z M645.6-209.5
	c0.5-0.1,0.5,0.1,1.1,0.2c-0.6,0.4-0.9,0.7-1,0.7c-0.3,0-0.5,0-0.7-0.2C645.2-209.1,645.5-209.5,645.6-209.5z M652.1-217.8
	c-0.1,0.1-0.3,0.3-0.5,0.4c-0.3-0.2-0.5-0.5-0.8-0.7c0.1-0.1,0.2-0.1,0.3-0.3C651.6-218.1,651.9-218,652.1-217.8z M649.2-188.2
	c-0.2,0.1-0.3,0-0.5,0.1c0.2-0.5,0.3-0.9,0.4-1.3c0.3,0,0.4,0,0.7,0C649.6-189.1,649.4-188.6,649.2-188.2z M659.5-208.2
	c0.6-0.2,1.1-0.5,1.6-0.7c0,0.2,0,0.3-0.1,0.5c-0.6,0.2-1.1,0.5-1.6,0.7C659.4-207.9,659.5-208.2,659.5-208.2z M645.5-153.9
	c0.2-0.1,0.5,0,0.4,0.2c-0.4,0.4-0.5,0.6-0.9,1.1c-0.4-0.2-0.5-0.3-0.5-0.5C644.9-153.4,645.2-153.7,645.5-153.9z M538-214.3
	c0,0.1,0.3,0.1,0.4,0.3c-0.5,0.5-1,0.9-1.5,1.4c-0.1,0-0.2-0.1-0.4-0.2C537-213.3,537.5-213.8,538-214.3z M613.8-196.1
	c0,0.1-0.4,0.4-0.5,0.5c-0.3,0-0.5,0-0.8-0.1c0.5-0.4,0.7-0.7,1-0.7C613.7-196.6,613.8-196.3,613.8-196.1z M628.1-213.3
	c-0.2,0.1-0.5,0.3-0.5,0.3c-0.1-0.3-0.4-0.5-0.4-0.8c0.3-0.1,0.3-0.2,0.6-0.3C628-213.9,627.9-213.5,628.1-213.3z M621.6-137.9
	c0.1,0,0.2,0.1,0.3,0.3c-0.3,0.3-0.5,0.5-0.7,0.7c-0.1,0-0.4-0.2-0.4-0.2C621.1-137.4,621.4-137.6,621.6-137.9z M516.1-273.4
	c-0.1,0-0.1-0.2-0.2-0.3c0.5-0.3,1-0.7,1.5-1c0.1,0,0.1,0.2,0.3,0.2C516.9-273.9,516.5-273.7,516.1-273.4z M636.4-191.9
	c0.2-0.3,0.3-0.5,0.5-0.7c0.1,0,0.3,0.1,0.4,0.2c0,0.1-0.4,0.4-0.3,0.5C636.6-191.9,636.5-191.9,636.4-191.9z M558.3-222
	c0,0.1,0.2,0.3,0.2,0.5c0,0.1-0.3,0.2-0.7,0.4c0-0.3,0-0.4-0.1-0.7C557.7-221.7,558-221.9,558.3-222z M634.9-214
	c-0.3,0.4-0.4,0.8-0.6,1.1c0-0.1-0.2-0.3-0.1-0.6C634.3-213.6,634.5-213.7,634.9-214z M631.2-181.2c-0.2-0.1-0.4-0.3-0.4-0.4
	s0.4-0.4,0.7-0.6c0,0.1,0.2,0.3,0.4,0.5C631.8-181.7,631.5-181.5,631.2-181.2z M628.3-217.5c0.3-0.3,0.7-0.7,1.1-0.9
	c0.2-0.1,0.4,0.2,0.5,0.5c-0.5,0.4-0.8,0.7-1.4,0.9C628.6-217.1,628.4-217.4,628.3-217.5z M541.8-279c0-0.2,0-0.4-0.1-0.5
	c0.5-0.3,1-0.5,1.5-0.8c0,0.1,0.1,0.2,0.1,0.3C542.6-279.5,542.2-279.3,541.8-279z M500.9-204.4c-0.1,0.5,0.2,1-0.2,1.5
	c-1.6,1.6-3.3,3-4.8,4.5c-0.2-0.1-0.5-0.1-0.6-0.3c1.2-1.6,2.4-3.3,3.7-4.8C498.9-203.8,500-204,500.9-204.4z"/>
</svg>
