<?xml version="1.0" encoding="utf-8"?>
<!-- Generator: Adobe Illustrator 22.0.1, SVG Export Plug-In . SVG Version: 6.00 Build 0)  -->
<svg version="1.1" id="master-artboard" xmlns="http://www.w3.org/2000/svg" xmlns:xlink="http://www.w3.org/1999/xlink" x="0px"
	 y="0px" viewBox="0 0 711.6 294.9" style="enable-background:new 0 0 711.6 294.9;" xml:space="preserve">
<style type="text/css">
	.st0{opacity:0.34;fill:#F08B3D;enable-background:new    ;}
	.st1{opacity:0.34;fill:#5A288E;enable-background:new    ;}
	.st2{opacity:0.6;fill:#DA5B4D;enable-background:new    ;}
	.st3{opacity:0.36;fill:#F08B3D;enable-background:new    ;}
	.st4{opacity:0.36;fill:#5A288E;enable-background:new    ;}
	.st5{opacity:0.45;fill:#DA5B4D;enable-background:new    ;}
</style>
<path class="st0" d="M377.7,38c-0.5-0.8,0.7-1.4,2.5-1.6c2.7-0.3,4.6,0.1,6.3,1.1c1.9,1.2,4.8,1.5,6.9,0.8c0.6-0.2,1.3-0.6,1.2-1
	c0-0.3-0.8-0.7-1.4-0.9c-0.5-0.2-1.4,0-2.1-0.1c-3.6-0.3-5.1-1.6-4-3.2c0.3-0.5,0.4-1,0.6-1.7c-5,0.1-9.6,0.2-14.1,0.3
	c-1.6,0-2.8,0-2.9-0.9c3-1.5,6.7-1.7,10.9-1.5c3.2,0.2,6.3,0.3,8.6,1.5c1.4,0.8,3.3,0.8,5.2,0.3c-0.7-0.1-1.2-0.4-0.5-0.7
	c0.7-0.4,1.5-0.7,2.2-1.1c-0.5-0.1-0.8-0.4-0.3-0.7c0.2-0.1,0.4-0.2,0.6-0.3c-0.5-0.1-0.9-0.2-1.3-0.4c-0.6-0.2-0.6-0.6,0-0.8
	c0.4-0.1,0.8-0.2,1.1-0.3c-2-0.2-4-0.5-5.9-0.8v-0.7c2-0.3,3.9-0.5,7-0.9c-3.8-0.9-6.5-1.9-9.6-2.2c-3-0.3-6.3,0.1-9.5,0.1
	c-0.2-0.1-0.4-0.3-0.5-0.4c2.1-1.1,4.2-2.2,6.6-3.4c-1.2-0.1-2.1-0.3-2.7-0.2c-2.7,0.4-5.1,0.3-7.7-0.2c-0.9-0.2-2-0.1-3.1-0.1
	c-0.4,0-0.8,0.3-1.1,0.4c0.5,0.7,0.9,1.3,1.6,2.4c-3-0.3-5.1-0.8-7.2-0.8c-2.4,0-4.7,0.5-7.1,0.7c-1.9,1.6-1.9,1.6-5.6,2.1
	c-4,0.6-8.2,1-12,1.7c-3.5,0.7-6.7,0.7-10.2,0.2c-1.4-0.2-3.3-0.5-4.5-0.2c-4.4,0.9-8.5,0.7-12.3-0.2c-4.5,1.1-8.6,2.1-12.9,3
	c-1.2,0.2-3-0.1-4.4-0.4c-6.1-1.1-12.6-0.8-18.8-1.2c-0.7,0-1.5,0.5-2.3,0.5c-1.3,0-3.1,0.1-3.9-0.2c-3.5-1.4-6.8-3-10.2-4.5
	c-1.6-0.7-2.9-1.6-4.7-2.3c-1.6-0.6-5.1-0.4-5.8,0.2c-1.1,1,0.1,1.7,1.8,2.2c2.9,0.9,5.9,1.7,8.9,2.5c1,0.3,2.1,0.6,2.8,1
	c3.8,2.4,8.4,4.5,13.3,6.4c2.2,0.9,1.9,1.7-0.9,2.1c-6.1,0.9-11.9,2.7-18.8,1.4c-0.6-0.1-1.5,0-2,0.2c-1.5,0.4-1.8,0.9-0.5,1.5
	c2,0.5,4.3-1.3,6.3,0.3c-0.6,0.8-1.2,1.7-1.9,2.9c-1.7-0.3-2.8-0.5-4.8-0.9c2.7,2.4,1,3.7-2.6,4.9c-2.7,0.9-5.5,1.9-7.4,3.7
	c5.2-0.6,8.9,0,12.3,1.4c1,0.4,3,0.6,4.3,0.5c3.8-0.3,7.6-0.8,11.4-1.1c2-0.2,4.1-0.1,6.2-0.4c3.4-0.3,5.9,0.6,8.8,1.4
	c0.5-0.5,0.9-0.9,1.1-1.2c0.2-0.4,0.2-0.9,0.4-1.6c7.1,1.4,13.9,2.5,21.2,1.5c0.9,0.7,1.6,1.3,2.7,2.3c1.5-2.4,4.9-3.2,9.2-3.4
	c1.2-0.1,2.6-0.3,3.3-0.7c3.9-2,9-1.4,13.5-1.7c0.8,0.6,1.3,1,2,1.6c7.3-2.4,14.7-2.8,22.4-0.8c1,0.3,2.4,0.3,3.6,0.4
	c8.2,0.3,16.5,0.5,24.7,0.7c0.2,0,0.5-0.2,0.9-0.4c-1.5-2.2-8.1-0.8-9.4-2.5c-2.7,0-4.7,0.1-6.7,0c-2.1-0.1-4.1-0.4-6.1-0.7
	c-2-0.2-4-0.4-6.8-0.7c0.7-1.1,0.7-2.4,1.9-2.7c2.8-0.8,4.5,0.6,6.4,1.4c5.2-1.4,10.1-0.6,14.8,0.3c3.7,0.7,6.5,0.2,8.4-1.4
	c-4.9-0.4-9.8-0.8-14.7-1.2C379.4,39,377.9,38.4,377.7,38z M276.7,29.3c-0.6,0.1-1.3-0.2-2.4-0.3c1.6-0.6,2.1-0.8,2.6-1
	c0.4,0.2,1.1,0.5,1.1,0.7C277.9,28.9,277.3,29.2,276.7,29.3z"/>
<path class="st1" d="M260.3,151.8c-2.3-1.7-7-0.8-6.7-4.2c1.7,0.3,3.2,0.5,4.7,0.7c-0.7-1.7-1.3-3-1.8-4.4c-0.6-1.6-1.5-2.7-4.2-2.8
	c-1.3-0.1-2.6-0.5-3.9-0.8c-2.6-0.6-5.3-1.6-7.9-1.6c-9.1-0.2-18.2-0.2-27.4-0.2c-2.4,0-4.9-0.1-7.3,0.2c-2.1,0.2-4,0.9-3.4,3
	c0.2,0.6-0.6,1.9-1.5,2.1c-3.5,1.1-4.6,3.3-5.7,5.5c-0.3,0.7-0.6,1.6-1.4,1.9c-1,0.5-2.6,0.9-3.7,0.7c-1.4-0.2-2.1-1.2-1.3-2.4
	c0.6-0.8,1.4-1.9-1.1-2.4c-0.4,1-0.8,2-1.4,3.3c-2.3-0.7-4.4-1.3-7.4-2.3c3.2-1.2,5.4-2,7.7-2.8c-1.8-1.8-3.4-3.6-5.2-5.2
	c-0.4-0.3-1.2-0.6-1.8-0.7c-3.4-0.2-6.3-2.1-10-1.5c-1.2,0.2-2.7-0.3-4.1-0.6c-3.1-0.7-6.2-1.6-9.3-2.3c-4.1-1-8.2-2.1-12.5-2.8
	c-5.1-0.9-9.9-2.8-15.8-1.8c-3.1,0.5-7.3-0.8-8.5-3.4c-1.1-2.3-3.3-3.1-6.1-3.4c-4-0.5-8-1.1-12-1.4c-1.9-0.1-4.6,0.1-5.8,0.9
	c-1.7,1.2-6.1,1.2-4.7,4.1c0.1,0.2-0.4,0.6-0.7,0.8c-2.8,1.9-5.6,3.7-8.6,5.7c1.7,1.1,2.9,1.8,3.8,2.4c-0.8,2.4-1.5,4.5-2.2,6.6
	c-0.5,1.7-1.6,2.6-4.3,2.5c-2.6-0.1-5.1,0.1-5.4-2.5c1.3-0.5,2.6-0.9,4.5-1.6c-5.2-1.6-9.9-3-14.5-4.5c0.1-0.2,0.2-0.4,0.3-0.7
	c1.6,0.1,3.1,0.3,5.8,0.5c-3.1-1.5-5.3-2.6-7.8-3.8c-2.3,2.5-4.6,4.8-2.9,7.7c-3.5,2-6.7,3.9-9.5,5.5c-0.1,3.9,5,7,0.6,10.4
	c2.9,2.4,8.7-0.1,10.5,3.5c-3.8,0.2-4,0.3-5.6,1.6c-1.5-0.5-3-0.9-4.9-1.5c0.3,1.3,0.8,2.2,0.5,3c-0.3,0.9-1.4,1.6-2.2,2.4
	c0.8,1,1.5,1.9,2,2.6c-1.3,2.1-2.5,4-3.7,5.9c-1-0.1-2.4-0.2-3.7-0.3c-0.1,0.2-0.2,0.4-0.2,0.6c1.5,0.9,3.1,1.7,4.4,2.5
	c-1.5,1.2-3.9,2.1-3.9,3.1c0,2.3-0.4,5.3,2.5,6.7c2.5,1.2,6.4,1.8,9.4,1.5c3.4-0.4,6.7-0.1,9.2,0.9c3.2,1.3,6.3,1.2,9.5,1.5
	c2.8,0.2,5.5,0.6,8.3,1c3.5,0.5,6.9,1.5,10.3,1.5c5.5,0.1,10.3,1.3,15,3c5.6,2,11.4,4,18,1.9c0.3-0.1,0.7,0,1.1,0.1
	c0.1,0.4,0.3,0.9,0.4,1.2c5.3,0.3,10.6,0.6,16,1c0.8-1.8-0.6-2.4-2.6-2.4c-6.2,0-12.2-1-18.2-2.1c-8.1-1.5-16.4-2.7-24.6-4.1
	c-1-0.2-1.9-0.5-2.8-0.8c3.6-0.2,7-0.2,10.4,0.3c5.8,0.7,11.6,1.6,17.4,2.6c8.1,1.4,16.3,1.8,24.6,1.7c4-0.1,8,0.6,12,1.1
	c1.7,0.2,2.2,1.1,0.5,2.3c-3.6-1.1-7-1.3-9,1.3c1.9,2.2,3.5,4.2,5.3,6.3c2.1-1,3.6-2.6,6.3-1.1c0.6,0.3,2,0,3-0.1
	c4.2-0.7,8.3-0.7,12.6-0.3c3.1,0.3,6.3,0,9.4,0.1c1,0,2.5-0.1,3.1,0.3c3.5,2.5,8.3,1.5,11.1,2.3c2.3-0.8,3.7-1.3,5.2-1.8
	c-3.6-0.5-7-1.7-10.6,0.1c-0.9-0.9-1.9-1.8-3.3-3.1c-2.3,2.7-5.8-0.8-8.4,1.2c-1.8-1.9-5.2-1.6-8.2-2.9c7.7-2,14.6-0.7,21.5,0
	c7.7,0.8,15.2,2.2,22.8,3.3c2.1,0.3,4.2,0.3,6.3,0.4c1.9,0.1,2.3-0.8,2.2-1.9c0,0-0.1,0-0.1,0.1c-0.1-0.1-0.1-0.1-0.2-0.1
	c-1.2-0.1-2.5-0.3-4-0.5c2.5-0.8,2.6-0.8,4,0.5c0.1,0,0.2,0,0.3,0l0,0c2.4-1,4.6-1.9,7.6-1.8c1.8,0.1,3.5-0.7,3.2-2.3
	c-0.4-2.1,1.4-2.6,3.7-2.8c2.7-0.2,4.7-0.9,5.5-2.8c-1.1-2.5-7-2.6-6.3-6.3c4.5,0.6,8.7,1.3,14,2c-1-1.9-1.3-3.1-2.3-4
	c-1.5-1.3-3.3-2.5-5.3-3.5c-2.2-1.1-1.5-1.9-0.1-3.2c1.5,0.5,2.8,0.9,4.2,1.3c0.9-2.4,0.8-2.9-1.9-3.3c-3.4-0.5-6.8-0.5-10.4-0.8
	c-0.3-1.6-0.6-3.2-0.8-4.6c3.2-1.8,6.4-3.5,9.7-5.3c-0.6-0.7-2.4-2.3-2.3-2.4c2.4-1.5-1.1-2.7-0.2-4.2c3.5-0.3,6.9-0.6,9.9-0.9
	c2.3-1.9,1-3.4-0.5-4.8C257.8,152.3,258.8,152.1,260.3,151.8z M63.3,187.1c-0.1-0.3-0.1-0.5-0.2-0.8c2.4-0.9,2.4-0.9,6.1,0.3
	C66.6,186.8,64.9,187,63.3,187.1z M63.2,164.7c0.6-0.4,0.8-0.6,1-0.6c1.5,0.2,2.9,0.4,2.4,2.1C65.4,165.7,64.3,165.2,63.2,164.7z
	 M69.2,162.2c1.7,0.7,3.4,1.1,4.3,2c0.8,0.8,0.8,2.1,1.1,3.1C69,167,68.5,166.5,69.2,162.2z M70.6,185.8c3.2-1.2,4.8,0.1,7.7,1.3
	C74.8,187.5,72.6,188,70.6,185.8z M73.8,157.1c0.7,0.8,1.3,1.5,2.3,2.6c-5.1,0.2-8.7-0.9-12.6-2.2c2.5-2.3,5-1,7.6-0.6
	c1.9-1.3,4.1-2.7,7.5-0.9C77,156.3,75.5,156.7,73.8,157.1z M89.1,189.6c-1.2-0.2-2.5-0.3-3.7-0.5c0.1-0.2,0.2-0.5,0.3-0.7
	c1.2,0.2,2.4,0.5,3.6,0.7C89.2,189.3,89.1,189.4,89.1,189.6z M186.4,156.5c-0.2-0.5-0.5-0.8-0.5-1.2c0-0.1,1-0.4,1.2-0.3
	c0.4,0.2,0.6,0.6,0.9,1C187.6,156.1,187.1,156.2,186.4,156.5z M75.7,137.6c-1.3-0.3-2.7-0.7-4-1c0.1-0.2,0.2-0.4,0.3-0.5
	c1.3,0.3,2.7,0.7,4,1C75.9,137.2,75.8,137.4,75.7,137.6z M100.6,196.1c0.9,0.2,1.9,0.3,2.8,0.5c-0.1,0.3-0.2,0.6-0.3,0.8
	c-0.9-0.2-1.9-0.5-2.8-0.7C100.4,196.5,100.5,196.3,100.6,196.1z"/>
<path class="st2" d="M514.2,99.7c0.8-0.9,1.4-1.7,1.9-2.5c0.5-0.7,2.1-1.4,0.9-2.2c-1,0.9-1.7,1.8-2.6,2.3c-0.9,0.5-2,0.4-3.3,0.5
	c-0.3,2.1-1.3,3.1-3.2,4.3c-1.9,1.1-4.3,2.3-4.9,4.8c-0.2,0.5-0.8,1-1.2,1.5c-0.1-0.3-0.3-0.4-0.4-0.7c0.3-0.8,0.4-1.5,0.8-2.8
	c-3.6,2-5.9,5.1-9.9,6.2c0.8-0.9,1.2-1.4,1.8-2c1.1-0.8,2.2-1.6,3.2-2.6c3.3-4,6.9-7.9,11.6-10.7c0.4-0.2,0.7-0.4,0.9-0.6
	c1.2-2.4,3.7-3.6,5.6-5c3.4-2.3,6.5-5.4,9.9-6.5c1.3-1.4,2.1-3,3.2-3.5c2.8-1.4,5.6-2.5,8.6-3.7c0,2-2.3,4.1-1,5.7
	c1.3-0.8,2.7-1.5,4.1-2.4c0.4-0.3,1.1-0.8,1.1-1c0-1.7,1.1-1.9,2.6-2.3c1-0.2,1.9-1.1,2.8-1.6c-0.5-0.5-0.9-0.8-1-1.1
	c-1.2,0.5-2.3,0.8-3.3,1.2c0-0.2-0.2-0.3-0.1-0.5c-0.9,1.3-1.8,2.5-2.7,3.8c-0.3-0.9-0.7-1.4-1-2.3c-0.1-0.6-0.3-1.3,0.1-1.6
	c1.2-1.3,2.7-3.2,4-3.5c1.8-0.6,3.3-1.6,4.9-2.5c0.2-0.1,0.5-0.2,0.9-0.5c-0.8-0.1-1.2-0.3-1.6-0.4c0.2-1.6,0.5-3,0.7-4.5
	c0.8,0,1.7-0.1,2.6-0.2c0.4-0.6,0.8-1.1,1.1-1.9c1.3-0.1,2.2-0.1,2.4,1.2c0.1,0.6,0.6,0.8,1.1,1.1L557,58c1.6,0.1,2.7,2.1,4.7-0.3
	c0.1-0.5-0.2-1-0.1-1.6c1.4-0.2,2.7-0.8,2.2,1.1c-0.4,1.4,0.5,1.7,1.8,1.1c0.5-1.2,0.8-2.4,1.4-3.5c0.6-1,1.4-1.9,2.2-2.8
	c0.8-0.9,0.7-2.4,2.7-2.6c-1,1.7-1.8,3.3,0.4,4.1c0.3-1.9,0.9-3.7,0.9-5.1c-0.1-0.7-1.5-0.7-2.6-1.1c0.1-0.6,0.5-1.5,0.6-2
	c0.4-0.1,0.8-0.2,0.8-0.1c1.6,1.2,3.9-0.3,5.9-0.5c0.2,0,0.6-0.4,0.8-0.6c0-1.4,1.1-1.5,1.9-1.5c1.1-0.2,2-0.1,3-0.3
	c0.4-1.1,0.6-2.2,1.1-3.3c0-0.1,0.5-0.2,0.9-0.3c0,0.7-0.2,1.5-0.3,2c2.1,0.2,2.8,0.1,3.1-1.1c0.4-1.4,0.4-2.8,0.7-4.5
	c-1.3,1.1-2,1.8-2.7,2.5c-0.1,0-0.3-0.1-0.3-0.1c0.5-1.1,1.1-2.2,1.8-3.7c2.5,0.3,5.7-2.3,7.6-0.1c0.2,0.2,1.3-0.2,2.4-0.5
	c-0.6-1.8-1.1-3.3-1.7-5.3c-0.9,1.2-1.5,2.1-2.3,2.9c-1.9,0.6-4,1.3-6.7,2c0.9-1.1,1.4-1.7,2.1-2.5c-1.2-0.2-2.3-0.4-3.4-0.5
	c0.5-0.4,0.9-0.8,1.3-1.2c-1-0.4-2.2,0.1-2.8,1.1c-1,1.4-1.9,1.2-3,1.2c-0.3,0.5-0.5,1.1-0.8,1.5c-1.1,1.2-2.7,1.3-3.2,0.4
	c-0.7-1.7-1.3-1.8-3.1-0.6c-1,0.6-1.8,1.3-2.9,2c-2-0.6-4.3-0.4-6.1,1c-2.7,2-5,2.5-7.5,2.7c-1.4,0.1-3.1,0.3-4.5,1
	c-2.1,1.2-3.5,1.4-4.5-0.2c-1.3,2.3-3.6,4-5.8,4c-1.5,0-2.5,0.4-3.8,1.3c-3.2,1.9-6.5,3.7-9.7,5.2c-1.6,0.8-1.8,0.6-1.5-1.2
	c-0.8-0.4-0.2-1.2,0.1-1.8c-1.7-0.2-3.5,0-5.5,1.4c0.6-1,1.3-1.9,2.1-2.9c-0.7-0.5-1.4-0.9-2.1-1.5c0.5-0.4,0.8-0.7,1.3-1.1
	c0.3-0.3,0.5-0.5,0.8-0.9c-1.7-0.7-2.4,1-3.5,1.6c-3.1,1.6-6.2,3.6-9.1,6.2c-1.2,1.2-2.8,1.7-4.3,2.7c-0.5,0.3-1,0.6-1.4,0.9
	c-1.1,0.8-2.3,1.8-3.5,2.7c-1.4,1-2.8,2-3.6,2.7c-1.6,0.3-2.7,0.3-3.7,0.8c-1.6,1-1.2,2.3-0.9,3.4c-0.7,0.7-1.3,1.3-1.9,1.7
	c-0.4,0.2-0.7,0.3-0.9,0.5c-0.1-0.6-0.3-1-0.2-1.5c-1.5,0.2-1.5,0.8-1.8,2c-0.5,2-1.7,3-4,3.4c-0.2,0.3-0.3,0.7-0.6,1.1
	c-1-0.5-2-0.8-3.2-1.4c0,1.8-2.6,3.8,0.3,4.5c-2.6,2.1-4.9,4-7.1,5.8c-1.1,0.8-2.2,1.7-3.2,2.6c-2.4,2.4-4.8,4.8-7.2,7.2
	c-0.9,0.9-2.4,1.5-2.8,2.4c-0.9,2.5-3,4.4-4.4,6.6c0,0.1-0.4,0.2-0.7,0.3c-0.3-0.3-0.7-0.7-1-0.9c-2.9,1.3-1.6,3.7-3.4,5.4
	c-0.8-0.1-1.5-0.2-2.5-0.3l-3.1,7.7c0,0,0,0,0.1,0c0,0,0,0,0,0.1c0.8,0.5,0.6,1.1-0.2,2.2c-0.5-0.8-0.8-1.3,0.2-2.2l0,0l0,0
	c-0.4,0-0.7,0.1-1,0.1c-0.8,1.1-1.5,2.9-2.3,3.2c-1.7,0.6-2.3,2.3-3.5,3c-0.4,0.3-0.9,1.1-0.9,1.5c0,0.3,0.7,0.5,1,0.6
	c-0.6,1.6-1.1,2.8-1.7,4.3c-0.5,1.3-0.8,2.6-1.4,3.8c-0.5,1.3-1.4,1.8-2.3,1.2c-0.4-0.2-0.7-0.6-1-0.8c-1.4,2-1.4,2-1.1,4
	c0.6,2.8-1.6,5.3-4.7,6c-0.7,0.2-1.5,1-2.3,1.6c1.7,1.1,2,3.1,0.9,4.6c-2.8,3.8-4,7.8-5.4,11.9c-0.2,0.7-0.3,1.4-0.7,2
	c-2,3-3.9,6-3.3,9.2c-0.8,0-1.3,0-1.7,0.1c-0.4,0.1-0.9,0.3-1.3,0.5c-0.1,1.9,1.6,0.2,2.4,0.5c-1.3,1.8-3.6,3.3-3.2,5.3
	c0.5,0.3,1,0.4,1.8,0.7c-2.2,1.1-2.5,3-2.4,3.8c0.6,2,0.7,3.8-1.3,6.1c-0.9,1-1.2,2.2-1.8,3.4c-0.5,1.1-1.1,2.2-1.7,3.5
	c-1.1-0.2-2-0.5-3.3-0.6c-0.5,1.1-1.5,2.3-1.5,3.1c-0.2,3.1-0.1,6.1,0,9.1c0,3-0.1,6.1,0,9.2c0.2,3.3,0.4,6.6,0.8,9.8
	c0.7,4.7,1.5,9.3,4,13.1c1.5,2.4,3.9,4.2,3.9,7.5c-0.1,0.9,1,1.3,1.3,2.2c1,2.1,4,3.2,2.3,6.8c0,0.1,0.1,0.4,0.2,0.4
	c1.7,1.3,1.8,3.5,2.3,5.5c0.6,3,3.3,3.6,5.5,4.8c0.4,0.2,1.6-0.3,2.3-0.7c0.7-0.3,1.2-0.9,1.9-1.3c1,0.7,2,1.3,3,2
	c0.8-1.6,1.6-2.9,2.3-4.3c0.4-0.5,1-1.2,1.4-1.2c0.4-0.1,0.9,0.4,1,0.9c0.1,2.6,1.5,4.4,3.8,5.7c1.8-2.2,4.1-3,6.6-3.6
	c0.5-1.6,0.9-3,1.4-4.4c0.2,0,0.4-0.1,0.6-0.1c-0.1,2.2-0.3,4.5-0.6,7.2c1.1-1.1,1.9-1.8,2.8-2.8c1.2,2.1,1.9,4.6,5.5,3.6
	c1.1-3.3,2.2-6.7,3.4-10.1c0-0.1,0-0.2,0-0.3c0.3-1.3,0.5-2.8,0.9-4c1.3-4,2.6-8.1,4.2-12c1.1-2.5,2.6-5,4.5-7.3
	c1.6-2,3.1-4,4.3-6.3c0.3-0.5,0.5-0.9,0.7-1.4c-0.1-0.1-0.2-0.1-0.1-0.3c1-9.2,3.4-18.7,6.3-28.2c-0.1,0-0.1,0-0.2,0
	c0.1-0.5-0.2-1-0.1-1.5c0.6-3.8,1-7.6,1.5-11.5c0.1-1.4,0.3-2.6,0.2-4c0-1.7-0.8-3.2,1.1-5.2c0.2-0.3,0.3-0.8,0.3-1.1
	c0.4-3,0.7-6.1,1.1-9.1c1.9-1.1,3.7-2,5.3-3c0.4-1.6,1.4-3.1,2.5-4.6c1-1.3,1.8-2.5,2.6-3.8c-0.4,0.4-0.9,0.7-1.5,1.1
	c-0.9-1.8-0.7-2.2,1.5-3c0.1-0.9,0.1-1.7,0.2-3.1c0.8,0.4,1.3,0.7,1.7,1c1-2.1,1.9-4.1,3.1-5.8c-1.2-1.1-0.3-3.3-1.3-4.6
	c-0.4-0.6-0.4-1.3-0.6-2.1c-1.6,2.3-2.6,0-4.4,1.6c0.6-1.2,0.8-1.6,1.2-2.4c-0.9-0.4-3.1,0-1.6-2.4c0.2,0,0.5,0,0.7-0.1
	c0.3-0.1,0.7-0.2,1.4-0.3c-2.9-1.3-4.1-0.5-6.4,4.1c-1-2.1,1-3.7,2.4-5.5c-3,0.9-4.2,3.4-6.2,5.1c0.3-1.5,1.2-2.7,2.5-3.8
	c1.1-1,2.6-2.3,3.1-3.5c0.7-1.8,1.8-2.6,3.5-3.1c1-0.2,2.2-0.3,2.5-1.8c-1.4-0.1-2.2-0.7-1.5-2.4c3.2-2.2,5-6.6,9.2-7.5
	c0.7-1.2,0.9-2.6,1.8-3.3C507.9,103.5,510.7,100.6,514.2,99.7z M583.8,37.2c0,0.2,0.2,0.4,0.1,0.7s-0.4,0.5-0.9,1.1
	c0.2-0.8,0.1-1.2,0.2-1.3C583.4,37.4,583.6,37.3,583.8,37.2z M580.3,37.4c1.1,0.9,0.9,1.6-0.8,2.6C579.8,38.9,579.9,38.3,580.3,37.4
	z M566,55.1c-0.4,0.3-0.8,0.6-0.9,0.6c-0.3-0.1-0.5-0.4-0.7-0.6c0.3-0.3,0.5-0.4,0.8-0.8C565.6,54.6,565.8,54.8,566,55.1z
	 M517.9,50.4c0.4-0.2,0.8-0.6,1.1-0.6c0.2,0,0.4,0.3,0.7,0.8c-0.7,0.3-1,0.5-1.2,0.5C518.2,50.8,518.2,50.6,517.9,50.4z M525.7,50.1
	c-0.2,1.9-1.5,2-2.2,2.4c-0.2-0.1-0.2-0.3-0.3-0.4C523.7,51.7,524.5,51.1,525.7,50.1z M519.9,52.1c0.3-0.4,0.8-0.8,1.1-1.1
	c0.2,0.1,0.3,0.3,0.3,0.5c-0.4,0.4-0.9,0.8-1.4,1.1C520.1,52.4,519.9,52.3,519.9,52.1z M559.7,53.3L559.7,53.3
	c0.1-0.1,0.1-0.1,0.1-0.1c0.1-0.9,0.1-1.7,0.1-2.6c3.8-2.3,5.9-2.1,7.6,0.6c-2.2,1.3-3.3,0.3-4.4-0.8c-1.1,0.9-2.2,1.9-3.2,2.9
	l0,0.1C559.8,53.4,559.7,53.3,559.7,53.3c-0.5,0.4-1.2,1-2.4,1.9C558,53.5,558.9,53.5,559.7,53.3z M547.1,58.4
	c0.7-0.3,0.9-0.5,1.3-0.6c0,0.2,0.1,0.5,0.2,0.6c-0.2,0.2-0.4,0.4-0.8,0.5C547.5,58.9,547.4,58.6,547.1,58.4z M490,71
	c0.2-0.8,0-1.5,0.4-2.2c0.7-1.3,3.5-3,5.2-3.7c-1.7,2-3.3,4-5.1,5.9L490,71z M534.1,73.7c1.9-2.8,4.5-2.9,7.2-3.7
	c-1.2,3.4-4.9,1.5-5.5,4.9C534.8,74.4,534.5,74,534.1,73.7z M520.6,84.6c0.8-0.8,0.6-2.2,2.4-2.4c1.1-0.1,2-2.6,3.8-1.4
	c-2.2,1.6-4.2,2.9-6,4.2C520.7,84.8,520.7,84.7,520.6,84.6z M516,88.3c0.2-0.3,0.5-0.8,0.7-1c0.3-0.3,0.7-0.4,1.1-0.5
	c0,0.2,0.1,0.3,0.1,0.6c-0.5,0.4-1.2,0.9-1.8,1.3C516.2,88.5,516.2,88.4,516,88.3z M460.9,235.4c-0.5,1-0.9,1.9-1.6,2.9
	c-0.2,0-0.3,0-0.5-0.1l1.2-3C460.3,235.2,460.5,235.3,460.9,235.4z M497.3,112.2c-0.5,0.3-0.9,0.4-1.4,0.7c0-0.2-0.2-0.4-0.1-0.6
	c0.4-0.3,1-0.5,1.4-0.9C497.1,111.7,497.2,112,497.3,112.2z M653.8,36c-1.1,1.3-1.5,3.2-3.4,4.2c-0.1,0.1,0.1,1.3,0,2.1
	c0.6-0.3,1-0.6,1-0.9c0-1,0.7-1.3,1.5-1.2c0.9,0.1,0.9,0.7,0.3,1.5c-0.4,0.7-1.1,1.3-1.8,2.1c-2.5-1.1-4.7-2.3-6.4-3.9
	c0.1-0.3,0.4-0.5,0.4-0.8c1.1-0.1,2.3-0.4,3.6-0.5c-1.5-1-2.9-1.9-4.6-2.8c-0.3,0.8-0.2,1.2-0.5,1.7c-0.1,0.4-0.5,0.9-0.5,0.9
	c-1.5-0.1-2.7-0.1-3.8-0.2c-1.1-0.2-2.2-0.4-3.4-0.8c0,1.2,0.1,2.1,0.1,2.9c0.7-0.3,1.2-0.5,1.9-0.7c-0.7,2.9,2.9,1.6,3,3.8
	c0.8-1,1.2-1.4,1.6-2c0.9,0.3,1.7,0.6,2.6,0.9c2.2,0.9,2.2,1.8-0.5,4.5c-1.6-0.7-3.2-1.5-5-1.9c-1.8-0.5-4-0.6-6-1.1
	c-0.3-2.4-0.7-2.5-2.9-1.5c-0.8,0.4-1.8,0.7-2.6,0.7c-1.3,0.1-2.5-0.3-3.9-0.1c-3.3,0.2-6.3,0-9-1.3c-0.6,1-1.5,2.1-2.4,3.3
	c2.9,0.1,4.5,2.4,7.8,1.7c1.9-2.5,2.2-2.6,4-2.6c2.2-0.1,4.3,0,4,3c3.7-2.2,6-1,8.5,0c1.5,0.6,2.9,1.5,4.5,1.5
	c2.7-0.2,3.6,1.6,5.2,2.6c0.3,0.1,0.1,0.9,0.1,1.5c-3.3-0.1-5.6-1.2-7.9-2.3c-0.8-0.5-2.1-1.1-2.7-0.9c-1.4,0.7-1.9,0.3-2.5-0.3
	s-1.1-1.1-2.5-0.8c0.1,2.2,1.6,2.9,3.1,3c2.8,0.3,4.4,1.6,5.5,3.7c0.1,0.1,0.4,0,0.6,0c1.8-2.8,3.4-3.3,5.1-1.4
	c0.2,0.1,0.2,0.3,0.3,0.4c0.2,0.9,0.6,1.1,1.8,1c1.1-0.2,2,0.3,3,0.6c3.5,1.3,7,2.4,10.3,3.8c5.6,2.2,9.1,6.4,12.9,10.3
	c0.2,0.2,0.1,0.9,0.1,1.3c-1.3-0.7-2-1.8-3-2.7s-2.3-1.1-4.2-0.8c0.9,0.5,1.4,1.1,2.1,1.5c1.2,1.1,2.6,2,3.9,3
	c2.5,2.3,5.7,4.2,8,6.8c4.1,4.5,7.5,9.5,11.1,14.5c4.5,6.3,9,12.6,12.2,20c0.5,1,1.4,1.4,3,1.4c0-0.8-0.1-1.4-0.3-1.8
	c-1.5-8.5-5.7-15.4-8.9-23c-0.8-2-2.1-3.9-3.1-5.7c-1.1-2-2.2-3.9-3.2-6c-1-1.8-1.8-3.6-2.7-5.4c-1.2-2.1-2.2-4.3-3.4-6.5
	c-1-1.7-1.9-3.7-3.4-4.9c-1.9-1.3-2.5-3.6-4.1-5.2c-0.5-0.5-0.4-1.7-0.3-2.6c0.3-2.4-0.9-4-2.5-5.5c-0.3,2-0.3,3.4-0.7,5.4
	c-0.9-0.1-1.8,0.1-2.3-0.1c-1.9-1.5-3.1-3.4-1.4-6.8c-2.9-0.3-4-2-3.6-4.8c-0.2,0-0.4,0.1-0.6,0.1c-0.7,1.4-1.5,2.7-2.6,4.4
	c-1.3-0.8-2.3-1.6-3.3-2.3c-0.8-0.5-1.3-1-0.7-2.2c0.7-1.5,0-2.2-1.1-3.2c-0.1,1.5,0.6,2.6-1.3,3.8c0.4-1.5-0.2-2.1-1.4-2.5
	c-0.9-0.3-1.4-1.4-1.7-2.3c-0.2-0.4,0.8-1.5,1.2-2.2C655,34.5,654.4,35.3,653.8,36z M651.2,53.2c-0.4,0.2-0.4,0.4-0.6,0.4
	c-0.1,0-0.3-0.2-0.3-0.3c0.1-0.2,0.2-0.3,0.6-0.8C651.1,52.8,651.2,53,651.2,53.2z M653.7,45.3c1.1,1.7,4.2,1.8,4.2,4.5
	c-2.6-1-5.6-1.2-6.1-4.6C652.6,45.3,653.5,45.1,653.7,45.3z M650,45.5c-0.2,0.1-0.7,0.3-0.8,0.4c-0.1-0.6-0.2-0.9-0.2-1.5
	c0,0,0.5-0.3,0.7-0.4C649.9,44.6,649.9,45,650,45.5z M656,42.4c0,0.3-0.1,0.7-0.4,1.2c-1.2-0.3-1.3-0.9-0.1-2.3
	C655.9,41.9,656,42,656,42.4z M561.2,63.9c1.6,1.6,3.6,1.5,8.4-1c-0.8,1.1-1.3,2.3,0.2,2.4c-0.4,0.5-0.6,1-1.2,1.9
	c-1.2-2.1-3.3-1.1-5.5-0.7c-2.2,0.3-4.2,0.6-6.6,1.1c-0.4,0.9-0.7,1.8-1.3,3.2c1-0.9,1.6-1.6,2.8-2.6c0.1,1,0,1.7,0,2.8
	c1.4-0.6,2.6-1.2,4-1.8c-0.4,0.7-0.9,1.6-1.2,1.6c-2.7,0.5-5.2,0.8-7.4,1.2c0-2.4-0.2-4.3-0.2-6.4c-0.3-0.7-2.6,0.8-2-1
	c1.3-0.3,2.4-0.7,3.7-1.1h-0.1c0.3,0.9,0.7,1.7,1.3,2.8c0.6-0.1,1.9-0.3,2.9-0.4c0.8-1.6,1.5-3,2.4-4.9c0.9,0.3,1.6,0.7,2.8,1.1
	C562.8,63.1,562,63.5,561.2,63.9z M642.7,23.9c0.8-0.2,1.7-0.3,2.9-0.4c-0.5,2.7-0.9,5.2,0.8,6.7c0.2,0.1,0.2,0.2,0.4,0.3
	c0.5,1.1,2.6,0.4,2.8,2.1c0.1,1.1,1.2,1.9,1.9,3c-1.8,1-3.2,0.1-3.4-0.8c-0.6-2.1-2.6-2.4-4.2-3.2c-1.1-0.6-1.9-1-2.1-2.4
	c-0.2-1.4-1.5-2.3-2.4-3.3c0.2-0.2,0.3-0.4,0.6-0.6c0.8,0.6,1.6,1,2.5,1.6C644.8,25.6,641.7,25.2,642.7,23.9z M468.5,78.2
	c1-0.6,1.9-1.5,2.6-1.7c0.6-0.1,1.1,0.9,1.9,0.1c0.7-0.6,1-1.6,1.6-2.5c-2.2,0.3-3.1-0.4-2.3-2c0.5-1,0.4-1.6,0-2.3
	c-0.2-0.2,0.1-0.9,0.1-1.3c-0.4-0.5-1-0.9-1.6-1.4c-0.4,0.6-1,1.4-0.9,1.5c1,1,0,1.8-0.9,2.8c-0.9,1.1-2,2-3.2,3.3
	c1.7-0.1,3.1-0.1,4.5-0.1C469.6,75.9,468.1,76.7,468.5,78.2z M469.7,72.8c0.1-0.2,0.4-0.6,0.5-0.7c0.1-0.1,0.3,0.1,0.7,0.3
	c-0.3,0.3-0.6,0.6-0.7,0.7C470.1,73.2,469.7,72.9,469.7,72.8z M605,29.2c-2.8,2.4-4.9,2.2-5.5-0.4c-0.2-0.8-1.1-1.4-1.7-2.1
	c0.2-0.2,0.3-0.4,0.4-0.5C600.6,27,605,24.9,605,29.2z M527.3,87.9c0.5-1,0.9-1.9,1.6-2.9c1.1-0.3,2-0.4,3.2-0.6
	c-2.2,3.5-5.5,5.1-8.5,7.3c-0.8-1.4-0.2-2.6,0.7-3.8C525.6,86.3,526,88.3,527.3,87.9z M629.9,26.3c0.6-1.8,1-3.5-0.3-4.5
	c2.8-2.1,2.8-2.1,4.3-0.5c-0.9,0.4-1.7,0.7-2.7,1.1c0.5,0.8,1.1,1.3,1.6,2.1C631.8,25.1,630.9,25.7,629.9,26.3z M599,35.7
	c0.1,0.5,0.2,1.6-0.2,2.2c-0.4,0.5-1.5,1.1-2.2,1.1c-0.8,0-1.5-0.5-2.9-0.9c1.5-1.1,2.4-1.9,3.5-2.5C597.7,35.4,598.8,35.5,599,35.7
	z M472.5,68.7c0.7-0.5,1.3-1.3,1.8-1.8c1.3-0.1,2.2,0.9,3.8-0.6c0.3-0.4,1.9,0,3.4,0.1C478.1,68.1,475.2,70.3,472.5,68.7z
	 M637.8,25.7c-0.9,0.9-1.6,1.6-2.7,2.8c0.5-2.5-1.6-3.7,0.3-6.8C636.3,23.2,637,24.3,637.8,25.7z M573.5,65
	c-1.2,0.1-2.5,0.2-3.6,0.4c2.3-1.6,4.5-2,6.6-1.6c0.2,1.9,0.3,3.5,0.5,5.1c-0.6-0.5-1.8-0.4-1.2-1.9C576.2,65.5,575.3,64.8,573.5,65
	z M598.7,47.1c-1.5,1.7-2.9,3.2-4.2,4.7c-0.1,0-0.3,0-0.4,0c0.4-1.8,1-3.8,1.6-5.9C597,46.5,597.9,46.8,598.7,47.1z M503.3,122
	c2.5,1.4,2,3.4,0.7,6.2C502.4,126.5,503.6,124.2,503.3,122z M412.5,160.5c-0.4,2.1-0.8,3.8-1.2,5.5c-2.4-0.3-1.4-2.1-1.3-3.6
	C410.3,161.2,411.3,160.8,412.5,160.5z M631.2,30.5c-1.1,0.8-1.9,1.4-2.4,1.9c-0.2-0.8-0.4-1.4-0.8-1.9c-0.6-0.4-1.4-0.7-0.6-2
	C628.4,29.1,629.6,29.8,631.2,30.5z M497.5,115.7c1.5-0.5,2.5-0.8,3.6-1.1c1.4,0.9,0.2,3,0.4,5.1c-0.6-0.5-1.1-0.8-1.4-1.2
	C499.6,116.4,499.7,116.4,497.5,115.7z M423.3,137.8c1.1-1.8,1.8-3.2,2.5-4.4c1.3-0.6,2.5-1.4,3.7-2c0.2,0.1,0.2,0.2,0.4,0.3
	C427.7,133.6,425.7,135.4,423.3,137.8z M604.3,48c0.5,0.2,1,0.2,1.9,0.5c-1.1,0.5-1.7,0.9-2.5,1.2c-0.5-0.5-0.9-1.2-1.5-1.2
	c-0.5-0.1-1.3,1-1.4-0.4c1.7-0.5,3.3-1,5-1.5c0.1,0.1,0,0.3,0.1,0.4C605.5,47.3,604.9,47.5,604.3,48z M527.4,48.1
	c0.3-0.7,1.8-1.7,0.1-1.8c0.5-0.4,1.1-0.9,1.7-1.6c0.8,0.6,1.3,1.1,2,1.6C529.5,48.3,529.2,48.5,527.4,48.1z M587.8,48.6
	c0.1-0.6,0.1-1.3,0.1-1.8c0.2-0.1,0.7-0.3,0.8-0.4c-0.1,1.3,1.9,1.4,0.6,3.2c-0.5,0.6-1.5,0.8-2.7,1.4
	C587.2,49.9,587.7,49.3,587.8,48.6z M485.9,65.1c0.6-1,2-1.9,3.2-3c0.2,0.1,0.2,0.2,0.4,0.3c-1.2,1.4-2.4,2.9-3.5,4.3
	c-0.4,0.5-0.6,1.1-0.8,1.6C484,67.4,485.2,66,485.9,65.1z M461,83.4c-0.7-0.2-1.5-0.5-2.7-1c0.9-0.7,1.7-1.4,2.4-1.9
	C461.3,81.4,462.5,81.9,461,83.4z M482.8,64.6c-0.2-0.7-0.1-1.4-0.1-2c0.8-0.3,1.3-0.4,2.1-0.7c0.5-0.1,1.1-0.4,2.2-0.7
	C485.7,63.2,484.3,63.7,482.8,64.6z M460.9,88c1.7-1.7,2.8-2.9,4.1-4.3C464.8,86.5,464.5,86.8,460.9,88z M509,120.2
	c0.3,0.3,0.5,0.6,0.8,1c-1.6,1.2-2.9,1-2.7-0.2c-0.1-0.7,0.8-1.3,1.6-1.3C508.6,120,508.8,120.2,509,120.2z M561.4,72.1
	c3.7-1.6,3.8-1.6,3.2,0.7C563.6,72.5,562.8,72.4,561.4,72.1z M584.4,53.9c1.2,0.2,2.3,0.4,3.4,0.6C584.6,55.9,584.6,55.9,584.4,53.9
	z M576.9,59.2c-1,1.4-1.5,2.4-2.4,3.7c-0.1-1.2-0.2-2.1-0.2-3.1C575.1,59.5,575.8,59.4,576.9,59.2z M627,26.4
	c-0.3-0.7-0.4-1.3-0.7-2.5c1.9,0,2.7,0.3,2.2,1.6C628.4,25.7,627.7,25.9,627,26.4z M410.1,177c-0.3,1.1-0.4,2.1-0.7,3.3
	c-0.6,0-1.1-0.1-1.9-0.2C408.5,178.9,408.3,177.6,410.1,177z M570.9,58c-0.9,0.3-1.9,0.7-3.1,1.1C568.8,57.4,568.8,57.4,570.9,58z
	 M524.7,43.1c1.3-0.6,2.4-1.3,3.8-2C527.9,42.5,527,43.1,524.7,43.1z M439.6,110.5c-0.3,0.1-0.5,0.1-1,0.2c-0.9-0.7-0.6-1.6,0.8-3.4
	C439.5,108.9,439.5,109.7,439.6,110.5z M551.9,73.5c0.9,0.4,1.7,0.9,2.6,1.4C552.3,75.7,551.6,75.4,551.9,73.5z M409.9,171.4
	c-0.1,1.3-0.2,2.4-0.3,4.2C408.5,174.2,408.4,173,409.9,171.4z M570.7,60.3c-1.9,1.4-1.9,1.4-3.2,0.2
	C568.4,60.5,569.3,60.5,570.7,60.3z M605.3,43.1c0.9,0.4,1.4,0.8,2.1,1.1C604.9,45.7,604.9,45.7,605.3,43.1z M575.5,51.1
	c0,0.1,0,0.1-0.1,0.2C575.4,51.2,575.4,51.2,575.5,51.1L575.5,51.1c-0.5-0.8-0.5-0.8,0.5-2.1c0.5,0.3,1,0.5,1.5,0.8
	c-0.1,0.1-0.2,0.3-0.3,0.4C576.6,50.5,576.2,50.7,575.5,51.1z M483.7,57.6c0.1-0.2,0.2-0.3,0.4-0.6c0.7,0.1,1.4,0.1,2.2,0.3
	C484.7,59.1,484.2,58.1,483.7,57.6z M485.2,59.5c-1.2,1.2-1.9,1.9-2.6,2.7c-0.2-0.6-0.3-1.3-0.3-2C483.3,60,483.9,59.8,485.2,59.5z
	 M563.2,33.8c-0.8,0.5-1.6,1-2.5,1.6C561.3,33.4,561.3,33.4,563.2,33.8z M585.9,46.3c-0.8,0.8-1.6,1.4-2.4,2.2
	C583.6,46.5,583.6,46.5,585.9,46.3z M656.7,24.8c-0.3,1.1-0.4,1.9-0.6,2.6c-0.2,0.1-0.4,0.1-0.8,0.2C655,26.8,654.6,26,656.7,24.8z
	 M413.3,157.3c-0.2,0.1-0.5,0.2-0.8,0.4c-0.7-0.6-0.1-1.7-0.2-2.4c0.2-0.1,0.5-0.2,0.7-0.3C413.1,155.6,413.2,156.4,413.3,157.3z
	 M476.2,72.6c0.8-0.8,1.8-1.7,2.5-2.4c0.1,0.3,0.4,0.3,0.5,0.5c-0.9,0.8-1.7,1.6-2.7,2.4C476.4,73,476.2,72.8,476.2,72.6z
	 M507.3,110.9c-0.2-0.8-0.5-1.5-1-2.8C507.9,108.6,507.6,109.7,507.3,110.9z M628.7,40.3c0.1-0.6,0.4-1.1,0.5-1.7c0,0,0.5-0.1,0.5,0
	c0.1,0.6,0.2,1,0.1,1.5C629.5,40.3,629.1,40.2,628.7,40.3z M482.7,62.3c0,0.1-0.1,0.3-0.1,0.4c-1.2,0.7-2.3,1.5-2.6-0.3
	C481.1,61.7,481.9,62.1,482.7,62.3z M582.7,66.7c0.3,0.3,0.5,0.8,0.8,1.1c-0.4,0.2-0.5,0.4-0.8,0.7c-0.3-0.4-0.5-0.7-0.7-1.1
	C582,67.4,582.4,67.1,582.7,66.7z M616.5,38.1c-1.3,0.6-1.8,0.9-2.9,1.5C614.4,37.7,615.2,37.7,616.5,38.1z M608.7,15.6
	c0.2,0.1,0.3,0.2,0.5,0.4c-0.4,0.5-0.6,1-1.1,1.6c-0.3-0.1-0.5-0.4-0.6-0.4C607.8,16.4,608.1,16.1,608.7,15.6z M621.5,20.2
	c-0.7,0-1.3,0-1.9,0c0.1-0.2,0.1-0.4,0.2-0.7c0.7,0,1.3,0.1,2,0.1C621.6,19.8,621.4,20.1,621.5,20.2z M533.4,42.3
	c1.2-0.7,1.8-1,2.5-1.4C535.7,42.5,535.1,42.5,533.4,42.3z M579.8,67.4c0.1-0.9,0-1.8,0.1-3.1C581.5,65.1,580.1,66.4,579.8,67.4z
	 M497.7,125c0.7,0.5,1.2,0.7,1.7,1C498,126.8,498,126.8,497.7,125z M616.3,31.6c-0.4,0.5-0.5,1.1-0.8,1.6c-0.2,0-0.4,0-0.6,0
	c0.1-0.3,0.1-0.7,0.4-0.9c0.2-0.2,0.5-0.5,0.7-0.6C615.9,31.5,616,31.5,616.3,31.6z M601.8,32.1c0.1,0.1,0.2,0.2,0.3,0.3
	c-0.7,0.5-1.3,1.1-1.8,1.6c-0.1-0.3-0.2-0.3-0.2-0.5C600.6,33,601.2,32.5,601.8,32.1z M647.4,19.8c-0.2,0.6-0.5,1.2-0.7,1.8
	C645.6,20.7,645.6,20.7,647.4,19.8z M637.5,21.9c0.1-0.2,0.4-0.5,0.3-0.7c0.4,0.2,1,0.2,1.5,0.3c-0.1,0.3-0.4,0.5-0.4,0.8
	C638.4,22.2,637.9,22,637.5,21.9z M424.6,122.4c0.2-0.9,0.2-1.6,0.4-2.7C426,120.5,426.1,121.2,424.6,122.4z M591,39.6
	c-0.1,0.3-0.2,0.5-0.3,0.8c-0.6,0.1-1.2,0.1-1.9,0.2c0.1-0.2,0-0.4,0.1-0.6C589.8,39.8,590.4,39.7,591,39.6z M463.5,77.1
	c-0.5,0.8-1,1.6-1.5,2.4c-0.2,0-0.3-0.1-0.4-0.2c0.4-0.8,0.8-1.6,1.2-2.4C463.1,77,463.3,77,463.5,77.1z M454.1,95.4
	c-0.6,0.9-1.2,1.7-1.8,2.6c-0.2-0.1-0.3-0.1-0.5-0.3c0.7-0.9,1.3-1.9,1.9-2.8C454,95.2,454.1,95.3,454.1,95.4z M513.1,118.8
	c-0.5,0.4-1.3,1.1-2.3,1.9C511.4,118.5,512.2,118.5,513.1,118.8z M425.6,133.3c-0.5,0.1-1.3,0.3-1.8,0.5c-0.1-1.2,0.9-1.5,1.6-1.5
	C425.6,132.3,425.4,133.1,425.6,133.3z M501.8,132.9c0.1-0.1,0.7,0.3,0.6,0.5c-0.1,0.4-0.5,0.7-1.1,1.2c-0.3-0.4-0.6-0.8-0.7-0.9
	C500.9,133.4,501.4,133.1,501.8,132.9z M586.9,25.4c0,0.1-0.4,0.4-0.8,0.8c-0.2-0.4-0.4-0.7-0.2-0.9c0.1-0.2,0.4-0.4,0.8-0.6
	C586.7,24.9,586.8,25.1,586.9,25.4z M652.6,29.4c0.2-0.1,0.5-0.3,0.7-0.4c0.1,0.6,0.4,1,0.4,1.4c-0.2,0.1-0.4,0.3-0.6,0.3
	C653,30.3,652.9,29.8,652.6,29.4z M608.1,27.4c-0.2,0.5-0.1,1-0.3,1.5c-0.3,0-0.5,0-0.8,0c0.3-0.5,0.2-1,0.5-1.6
	C607.6,27.5,607.8,27.5,608.1,27.4z M588.9,25.8c-0.4-0.7-1-1.3,0.8-2.4C589.3,24.5,589.2,25.1,588.9,25.8z M432.6,121.3
	c-0.1,0.6-0.4,1.1-0.5,1.6c-0.2,0-0.4,0-0.7,0c0.2-0.6,0.5-1.1,0.7-1.7C432,121.3,432.6,121.3,432.6,121.3z M541.3,35.8
	c-0.7,0.3-1.3,0.6-1.9,0.8c-0.1-0.1-0.1-0.3-0.2-0.4c0.6-0.3,1.3-0.7,1.9-1.1C541.2,35.3,541.3,35.6,541.3,35.8z M615.5,27.2
	c-0.5,0.2-0.8,0.5-0.9,0.4c-0.2-0.1-0.3-0.3-0.2-0.5c0.4-0.2,0.5-0.4,0.7-0.4C615.2,26.7,615.3,26.9,615.5,27.2z M574.5,28.9
	c-0.2,0.3-0.5,0.5-0.8,0.8c-0.1-0.1-0.3-0.2-0.3-0.3c0.1-0.3,0.4-0.6,0.7-1.2C574.4,28.6,574.6,28.9,574.5,28.9z M575.5,51.3
	c-0.1,0.9,0,1.6-0.2,2.3C574.2,53.2,575.1,52.1,575.5,51.3z M492.5,50.7c-0.4,0.5-0.6,1-1,1.5c-0.2-0.1-0.3-0.1-0.4-0.2
	c0.4-0.5,0.6-1,1.1-1.5C492.3,50.6,492.4,50.7,492.5,50.7z M655.1,32c0.2-0.2,0.2-0.3,0.4-0.5c0.4,0.2,0.8,0.5,1.3,0.7
	c-0.2,0.2-0.2,0.3-0.4,0.5C655.9,32.4,655.4,32.2,655.1,32z M592.3,53.7c0.4-0.2,0.5-0.4,0.9-0.6c0.1,0,0.3,0.1,0.7,0.5
	C593,53.6,592.7,53.6,592.3,53.7z M575.5,53.7c0.6,0,1.1,0.2,1.8,0.2C575.7,55.4,575.6,54.5,575.5,53.7z M673.2,39.3
	c0.2,0.1,0.2,0.4,0.3,0.7c-0.4,0.2-0.5,0.4-0.8,0.5c-0.1-0.3-0.1-0.5-0.2-0.9C672.4,39.6,673,39.4,673.2,39.3z M475.2,75.8
	c0.1-0.2,0.5-0.5,0.6-0.4c0.1,0,0.2,0.2,0.5,0.5c-0.5,0.3-0.8,0.5-1.1,0.5C475.2,76.2,475.1,75.9,475.2,75.8z M596.7,41
	c0.2-0.3,0.5-0.4,1.1-0.9c-0.1,0.5,0.1,0.7-0.1,0.9s-0.4,0.4-0.8,0.6C596.8,41.4,596.7,41.1,596.7,41z M592.3,35.5
	c0.1,0.1,0.1,0.3,0.1,0.4c-0.5,0.2-0.9,0.4-1.4,0.6c-0.1-0.1,0-0.2-0.1-0.3C591.4,36,591.8,35.7,592.3,35.5z M624.7,38.3
	c0,0.1-0.2,0.2-0.2,0.3c-0.4-0.2-0.8-0.3-1.2-0.4c0.2-0.2,0.3-0.4,0.6-0.6C624,37.9,624.4,38.1,624.7,38.3z M609.6,29.4
	c0.3-0.5,0.4-0.9,0.6-1.4c0.2,0,0.3,0,0.5,0.1c-0.3,0.5-0.4,0.9-0.6,1.4C609.9,29.5,609.6,29.4,609.6,29.4z M662.1,41.7
	c0-0.1,0.4-0.4,0.5-0.3c0.2,0.2,0.3,0.4,0.5,0.8c-0.5,0.3-0.7,0.4-0.9,0.4C662.3,42.2,662.2,41.9,662.1,41.7z M503,131.7
	c0.2-0.1,0.4-0.3,0.6-0.3c0.2,0.4,0.2,0.8,0.4,1.2c-0.1,0.1-0.4,0.2-0.5,0.3C503.4,132.5,503.1,132.1,503,131.7z M586.4,68
	c0.1,0,0.2,0.3,0.2,0.4c-0.2,0.2-0.4,0.4-0.7,0.7c-0.1-0.4-0.2-0.6,0.1-0.9C585.8,68,586.2,68,586.4,68z M578,55.8
	c0,0.1,0,0.4,0,0.4c-0.4,0.1-0.8,0.3-1.3,0.3c0.1-0.2,0-0.3,0.2-0.5C577.1,55.9,577.5,55.9,578,55.8z M661.4,62
	c0.1-0.1,0.4-0.2,0.7-0.3c0.1,0.3,0.2,0.4,0.3,0.6c-0.1,0.1-0.5,0.3-0.5,0.3C661.7,62.4,661.5,62.2,661.4,62z M415.4,149.6
	c-0.1,0.1-0.3,0.1-0.5,0.1c0-0.4,0.1-0.9,0.1-1.3c0.1-0.1,0.3-0.1,0.5-0.2C415.5,148.8,415.5,149.2,415.4,149.6z M609.9,49
	c-0.2-0.1-0.3-0.3-0.3-0.5c0.1-0.1,0.4-0.3,0.5-0.3c0.1,0,0.2,0.2,0.3,0.3C610.2,48.8,610,48.9,609.9,49z M510.6,114.5
	c0.2-0.1,0.5-0.1,0.8-0.2c0.1,0,0,0.3,0,0.6c-0.3,0-0.5,0-0.8,0C510.4,115,510.4,114.7,510.6,114.5z M582.7,50
	c0.3,0.2,0.6,0.3,0.8,0.6c-0.2,0.1-0.5,0.1-0.8,0.1C582.6,50.6,582.8,50.4,582.7,50z M618.2,53.5c-0.4,0.2-0.6,0.3-0.8,0.4
	c-0.1,0-0.2-0.3-0.1-0.5c0.2-0.1,0.5-0.1,0.8-0.3C618.2,53,618.1,53.2,618.2,53.5z M573.2,55.5c-0.1-0.3-0.2-0.6-0.2-0.9
	c0-0.1,0.5-0.3,0.9-0.4c0.1,0.4,0.2,0.7-0.1,1.2C573.8,55.3,573.3,55.5,573.2,55.5z M429.9,127.8c-0.2,0-0.5,0-0.7,0.1
	c0-0.4,0.3-0.8,0.3-1.2c0.1,0,0.3-0.1,0.4-0.1C429.9,127.1,429.8,127.5,429.9,127.8z M484.3,163c0.5,0.1,1.3-0.1,1.5,0.2
	c0.5,1.4,0.9,2.8,1.4,4.1c-0.4,0.2-0.5,0.4-0.9,0.5c-0.9-1-1.9-2-2.5-3.2C483.4,164.6,484.1,163.7,484.3,163z"/>
<path class="st2" d="M533.9,93c0.8-0.9,1.4-1.7,1.9-2.5c0.5-0.7,2.1-1.4,0.9-2.2c-1,0.9-1.7,1.8-2.6,2.3s-2,0.4-3.3,0.5
	c-0.3,2.1-1.3,3.1-3.2,4.3c-1.9,1.1-4.3,2.3-4.9,4.8c-0.2,0.5-0.8,1-1.2,1.5c-0.1-0.3-0.3-0.4-0.4-0.7c0.3-0.8,0.4-1.5,0.8-2.8
	c-3.6,2-5.9,5.1-9.9,6.2c0.8-0.9,1.2-1.4,1.8-2c1.1-0.8,2.2-1.6,3.2-2.6c3.3-4,6.9-7.9,11.6-10.7c0.4-0.2,0.7-0.4,0.9-0.6
	c1.2-2.4,3.7-3.6,5.6-5c3.4-2.3,6.5-5.4,9.9-6.5c1.3-1.4,2.1-3,3.2-3.5c2.8-1.4,5.6-2.5,8.6-3.7c0,2-2.3,4.1-1,5.7
	c1.3-0.8,2.7-1.5,4.1-2.4c0.4-0.3,1.1-0.8,1.1-1c0-1.7,1.1-1.9,2.6-2.3c1-0.2,1.9-1.1,2.8-1.6c-0.5-0.5-0.9-0.8-1-1.1
	c-1.2,0.5-2.3,0.8-3.3,1.2c0-0.2-0.2-0.3-0.1-0.5c-0.9,1.3-1.8,2.5-2.7,3.8c-0.3-0.9-0.7-1.4-1-2.3c-0.1-0.6-0.3-1.3,0.1-1.6
	c1.2-1.3,2.7-3.2,4-3.5c1.8-0.6,3.3-1.6,4.9-2.5c0.2-0.1,0.5-0.2,0.9-0.5c-0.8-0.1-1.2-0.3-1.6-0.4c0.2-1.6,0.5-3,0.7-4.5
	c0.8,0,1.7-0.1,2.6-0.2c0.4-0.6,0.8-1.1,1.1-1.9c1.3-0.1,2.2-0.1,2.4,1.2c0.1,0.6,0.6,0.8,1.1,1.1l2.1-5.2c1.6,0.1,2.7,2.1,4.7-0.3
	c0.1-0.5-0.2-1-0.1-1.6c1.4-0.2,2.7-0.8,2.2,1.1c-0.4,1.4,0.5,1.7,1.8,1.1c0.5-1.2,0.8-2.4,1.4-3.5c0.6-1,1.4-1.9,2.2-2.8
	c0.8-0.9,0.7-2.4,2.7-2.6c-1,1.7-1.8,3.3,0.4,4.1c0.3-1.9,0.9-3.7,0.9-5.1c-0.1-0.7-1.5-0.7-2.6-1.1c0.1-0.6,0.5-1.5,0.6-2
	c0.4-0.1,0.8-0.2,0.8-0.1c1.6,1.2,3.9-0.3,5.9-0.5c0.2,0,0.6-0.4,0.8-0.6c0-1.4,1.1-1.5,1.9-1.5c1.1-0.2,2-0.1,3-0.3
	c0.4-1.1,0.6-2.2,1.1-3.3c0-0.1,0.5-0.2,0.9-0.3c0,0.7-0.2,1.5-0.3,2c2.1,0.2,2.8,0.1,3.1-1.1c0.4-1.4,0.4-2.8,0.7-4.5
	c-1.3,1.1-2,1.8-2.7,2.5c-0.1,0-0.3-0.1-0.3-0.1c0.5-1.1,1.1-2.2,1.8-3.7c2.5,0.3,5.7-2.3,7.6-0.1c0.2,0.2,1.3-0.2,2.4-0.5
	c-0.6-1.8-1.1-3.3-1.7-5.3c-0.9,1.2-1.5,2.1-2.3,2.9c-1.9,0.6-4,1.3-6.7,2c0.9-1.1,1.4-1.7,2.1-2.5c-1.2-0.2-2.3-0.4-3.4-0.5
	c0.5-0.4,0.9-0.8,1.3-1.2c-1-0.4-2.2,0.1-2.8,1.1c-1,1.4-1.9,1.2-3,1.2c-0.3,0.5-0.5,1.1-0.8,1.5c-1.1,1.2-2.7,1.3-3.2,0.4
	c-0.7-1.7-1.3-1.8-3.1-0.6c-1,0.6-1.8,1.3-2.9,2c-2-0.6-4.3-0.4-6.1,1c-2.7,2-5,2.5-7.5,2.7c-1.4,0.1-3.1,0.3-4.5,1
	c-2.1,1.2-3.5,1.4-4.5-0.2c-1.3,2.3-3.6,4-5.8,4c-1.5,0-2.5,0.4-3.8,1.3c-3.2,1.9-6.5,3.7-9.7,5.2c-1.6,0.8-1.8,0.6-1.5-1.2
	c-0.8-0.4-0.2-1.2,0.1-1.8c-1.7-0.2-3.5,0-5.5,1.4c0.6-1,1.3-1.9,2.1-2.9c-0.7-0.5-1.4-0.9-2.1-1.5c0.5-0.4,0.8-0.7,1.3-1.1
	c0.3-0.3,0.5-0.5,0.8-0.9c-1.7-0.7-2.4,1-3.5,1.6c-3.1,1.6-6.2,3.6-9.1,6.2c-1.2,1.2-2.8,1.7-4.3,2.7c-0.5,0.3-1,0.6-1.4,0.9
	c-1.1,0.8-2.3,1.8-3.5,2.7c-1.4,1-2.8,2-3.6,2.7c-1.6,0.3-2.7,0.3-3.7,0.8c-1.6,1-1.2,2.3-0.9,3.4c-0.7,0.7-1.3,1.3-1.9,1.7
	c-0.4,0.2-0.7,0.3-0.9,0.5c-0.1-0.6-0.3-1-0.2-1.5c-1.5,0.2-1.5,0.8-1.8,2c-0.5,2-1.7,3-4,3.4c-0.2,0.3-0.3,0.7-0.6,1.1
	c-1-0.5-2-0.8-3.2-1.4c0,1.8-2.6,3.8,0.3,4.5c-2.6,2.1-4.9,4-7.1,5.8c-1.1,0.8-2.2,1.7-3.2,2.6c-2.4,2.4-4.8,4.8-7.2,7.2
	c-0.9,0.9-2.4,1.5-2.8,2.4c-0.9,2.5-3,4.4-4.4,6.6c0,0.1-0.4,0.2-0.7,0.3c-0.3-0.3-0.7-0.7-1-0.9c-2.9,1.3-1.6,3.7-3.4,5.4
	c-0.8-0.1-1.5-0.2-2.5-0.3l-3.1,7.7c0,0,0,0,0.1,0c0,0,0,0,0,0.1c0.8,0.5,0.6,1.1-0.2,2.2c-0.5-0.8-0.8-1.3,0.2-2.2l0,0l0,0
	c-0.4,0-0.7,0.1-1,0.1c-0.8,1.1-1.5,2.9-2.3,3.2c-1.7,0.6-2.3,2.3-3.5,3c-0.4,0.3-0.9,1.1-0.9,1.5c0,0.3,0.7,0.5,1,0.6
	c-0.6,1.6-1.1,2.8-1.7,4.3c-0.5,1.3-0.8,2.6-1.4,3.8c-0.5,1.3-1.4,1.8-2.3,1.2c-0.4-0.2-0.7-0.6-1-0.8c-1.4,2-1.4,2-1.1,4
	c0.6,2.8-1.6,5.3-4.7,6c-0.7,0.2-1.5,1-2.3,1.6c1.7,1.1,2,3.1,0.9,4.6c-2.8,3.8-4,7.8-5.4,11.9c-0.2,0.7-0.3,1.4-0.7,2
	c-2,3-3.9,6-3.3,9.2c-0.8,0-1.3,0-1.7,0.1c-0.4,0.1-0.9,0.3-1.3,0.5c-0.1,1.9,1.6,0.2,2.4,0.5c-1.3,1.8-3.6,3.3-3.2,5.3
	c0.5,0.3,1,0.4,1.8,0.7c-2.2,1.1-2.5,3-2.4,3.8c0.6,2,0.7,3.8-1.3,6.1c-0.9,1-1.2,2.2-1.8,3.4c-0.5,1.1-1.1,2.2-1.7,3.5
	c-1.1-0.2-2-0.5-3.3-0.6c-0.5,1.1-1.5,2.3-1.5,3.1c-0.2,3.1-0.1,6.1,0,9.1c0,3-0.1,6.1,0,9.2c0.2,3.3,0.4,6.6,0.8,9.8
	c0.7,4.7,1.5,9.3,4,13.1c1.5,2.4,3.9,4.2,3.9,7.5c-0.1,0.9,1,1.3,1.3,2.2c1,2.1,4,3.2,2.3,6.8c0,0.1,0.1,0.4,0.2,0.4
	c1.7,1.3,1.8,3.5,2.3,5.5c0.6,3,3.3,3.6,5.5,4.8c0.4,0.2,1.6-0.3,2.3-0.7c0.7-0.3,1.2-0.9,1.9-1.3c1,0.7,2,1.3,3,2
	c0.8-1.6,1.6-2.9,2.3-4.3c0.4-0.5,1-1.2,1.4-1.2c0.4-0.1,0.9,0.4,1,0.9c0.1,2.6,1.5,4.4,3.8,5.7c1.8-2.2,4.1-3,6.6-3.6
	c0.5-1.6,0.9-3,1.4-4.4c0.2,0,0.4-0.1,0.6-0.1c-0.1,2.2-0.3,4.5-0.6,7.2c1.1-1.1,1.9-1.8,2.8-2.8c1.2,2.1,1.9,4.6,5.5,3.6
	c1.1-3.3,2.2-6.7,3.4-10.1c0-0.1,0-0.2,0-0.3c0.3-1.3,0.5-2.8,0.9-4c1.3-4,2.6-8.1,4.2-12c1.1-2.5,2.6-5,4.5-7.3
	c1.6-2,3.1-4,4.3-6.3c0.3-0.5,0.5-0.9,0.7-1.4c-0.1-0.1-0.2-0.1-0.1-0.3c1-9.2,3.4-18.7,6.3-28.2c-0.1,0-0.1,0-0.2,0
	c0.1-0.5-0.2-1-0.1-1.5c0.6-3.8,1-7.6,1.5-11.5c0.1-1.4,0.3-2.6,0.2-4c0-1.7-0.8-3.2,1.1-5.2c0.2-0.3,0.3-0.8,0.3-1.1
	c0.4-3,0.7-6.1,1.1-9.1c1.9-1.1,3.7-2,5.3-3c0.4-1.6,1.4-3.1,2.5-4.6c1-1.3,1.8-2.5,2.6-3.8c-0.4,0.4-0.9,0.7-1.5,1.1
	c-0.9-1.8-0.7-2.2,1.5-3c0.1-0.9,0.1-1.7,0.2-3.1c0.8,0.4,1.3,0.7,1.7,1c1-2.1,1.9-4.1,3.1-5.8c-1.2-1.1-0.3-3.3-1.3-4.6
	c-0.4-0.6-0.4-1.3-0.6-2.1c-1.6,2.3-2.6,0-4.4,1.6c0.6-1.2,0.8-1.6,1.2-2.4c-0.9-0.4-3.1,0-1.6-2.4c0.2,0,0.5,0,0.7-0.1
	c0.3-0.1,0.7-0.2,1.4-0.3c-2.9-1.3-4.1-0.5-6.4,4.1c-1-2.1,1-3.7,2.4-5.5c-3,0.9-4.2,3.4-6.2,5.1c0.3-1.5,1.2-2.7,2.5-3.8
	c1.1-1,2.6-2.3,3.1-3.5c0.7-1.8,1.8-2.6,3.5-3.1c1-0.2,2.2-0.3,2.5-1.8c-1.4-0.1-2.2-0.7-1.5-2.4c3.2-2.2,5-6.6,9.2-7.5
	c0.7-1.2,0.9-2.6,1.8-3.3C527.7,96.8,530.4,93.9,533.9,93z M603.6,30.5c0,0.2,0.2,0.4,0.1,0.7c-0.1,0.3-0.4,0.5-0.9,1.1
	c0.2-0.8,0.1-1.2,0.2-1.3C603.1,30.7,603.3,30.6,603.6,30.5z M600,30.7c1.1,0.9,0.9,1.6-0.8,2.6C599.5,32.2,599.6,31.6,600,30.7z
	 M585.7,48.4c-0.4,0.3-0.8,0.6-0.9,0.6c-0.3-0.1-0.5-0.4-0.7-0.6c0.3-0.3,0.5-0.4,0.8-0.8C585.3,47.9,585.5,48.1,585.7,48.4z
	 M537.6,43.7c0.4-0.2,0.8-0.6,1.1-0.6c0.2,0,0.4,0.3,0.7,0.8c-0.7,0.3-1,0.5-1.2,0.5C537.9,44.1,537.9,43.9,537.6,43.7z M545.5,43.4
	c-0.2,1.9-1.5,2-2.2,2.4c-0.2-0.1-0.2-0.3-0.3-0.4C543.4,45,544.2,44.4,545.5,43.4z M539.6,45.4c0.3-0.4,0.8-0.8,1.1-1.1
	c0.2,0.1,0.3,0.3,0.3,0.5c-0.4,0.4-0.9,0.8-1.4,1.1C539.8,45.7,539.6,45.6,539.6,45.4z M579.4,46.6L579.4,46.6
	c0.1-0.1,0.1-0.1,0.1-0.1c0.1-0.9,0.1-1.7,0.1-2.6c3.8-2.3,5.9-2.1,7.6,0.6c-2.2,1.3-3.3,0.3-4.4-0.8c-1.1,0.9-2.2,1.9-3.2,2.9
	l0,0.1C579.5,46.7,579.4,46.6,579.4,46.6c-0.5,0.4-1.2,1-2.4,1.9C577.7,46.8,578.6,46.8,579.4,46.6z M566.8,51.7
	c0.7-0.3,0.9-0.5,1.3-0.6c0,0.2,0.1,0.5,0.2,0.6c-0.2,0.2-0.4,0.4-0.8,0.5C567.3,52.2,567.2,51.9,566.8,51.7z M509.7,64.3
	c0.2-0.8,0-1.5,0.4-2.2c0.7-1.3,3.5-3,5.2-3.7c-1.7,2-3.3,4-5.1,5.9L509.7,64.3z M553.8,67c1.9-2.8,4.5-2.9,7.2-3.7
	c-1.2,3.4-4.9,1.5-5.5,4.9C554.5,67.7,554.2,67.3,553.8,67z M540.3,77.9c0.8-0.8,0.6-2.2,2.4-2.4c1.1-0.1,2-2.6,3.8-1.4
	c-2.2,1.6-4.2,2.9-6,4.2C540.5,78.1,540.4,78,540.3,77.9z M535.7,81.6c0.2-0.3,0.5-0.8,0.7-1c0.3-0.3,0.7-0.4,1.1-0.5
	c0,0.2,0.1,0.3,0.1,0.6c-0.5,0.4-1.2,0.9-1.8,1.3C535.9,81.8,536,81.7,535.7,81.6z M480.6,228.7c-0.5,1-0.9,1.9-1.6,2.9
	c-0.2,0-0.3,0-0.5-0.1l1.2-3C480,228.5,480.2,228.6,480.6,228.7z M517,105.5c-0.5,0.3-0.9,0.4-1.4,0.7c0-0.2-0.2-0.4-0.1-0.6
	c0.4-0.3,1-0.5,1.4-0.9C516.8,105,516.9,105.3,517,105.5z M673.5,29.3c-1.1,1.3-1.5,3.2-3.4,4.2c-0.1,0.1,0.1,1.3,0,2.1
	c0.6-0.3,1-0.6,1-0.9c0-1,0.7-1.3,1.5-1.2c0.9,0.1,0.9,0.7,0.3,1.5c-0.4,0.7-1.1,1.3-1.8,2.1c-2.5-1.1-4.7-2.3-6.4-3.9
	c0.1-0.3,0.4-0.5,0.4-0.8c1.1-0.1,2.3-0.4,3.6-0.5c-1.5-1-2.9-1.9-4.6-2.8c-0.3,0.8-0.2,1.2-0.5,1.7c-0.1,0.4-0.5,0.9-0.5,0.9
	c-1.5-0.1-2.7-0.1-3.8-0.2c-1.1-0.2-2.2-0.4-3.4-0.8c0,1.2,0.1,2.1,0.1,2.9c0.7-0.3,1.2-0.5,1.9-0.7c-0.7,2.9,2.9,1.6,3,3.8
	c0.8-1,1.2-1.4,1.6-2c0.9,0.3,1.7,0.6,2.6,0.9c2.2,0.9,2.2,1.8-0.5,4.5c-1.6-0.7-3.2-1.5-5-1.9c-1.8-0.5-4-0.6-6-1.1
	c-0.3-2.4-0.7-2.5-2.9-1.5c-0.8,0.4-1.8,0.7-2.6,0.7c-1.3,0.1-2.5-0.3-3.9-0.1c-3.3,0.2-6.3,0-9-1.3c-0.6,1-1.5,2.1-2.4,3.3
	c2.9,0.1,4.5,2.4,7.8,1.7c1.9-2.5,2.2-2.6,4-2.6c2.2-0.1,4.3,0,4,3c3.7-2.2,6-1,8.5,0c1.5,0.6,2.9,1.5,4.5,1.5
	c2.7-0.2,3.6,1.6,5.2,2.6c0.3,0.1,0.1,0.9,0.1,1.5c-3.3-0.1-5.6-1.2-7.9-2.3c-0.8-0.5-2.1-1.1-2.7-0.9c-1.4,0.7-1.9,0.3-2.5-0.3
	s-1.1-1.1-2.5-0.8c0.1,2.2,1.6,2.9,3.1,3c2.8,0.3,4.4,1.6,5.5,3.7c0.1,0.1,0.4,0,0.6,0c1.8-2.8,3.4-3.3,5.1-1.4
	c0.2,0.1,0.2,0.3,0.3,0.4c0.2,0.9,0.6,1.1,1.8,1c1.1-0.2,2,0.3,3,0.6c3.5,1.3,7,2.4,10.3,3.8c5.6,2.2,9.1,6.4,12.9,10.3
	c0.2,0.2,0.1,0.9,0.1,1.3c-1.3-0.7-2-1.8-3-2.7s-2.3-1.1-4.2-0.8c0.9,0.5,1.4,1.1,2.1,1.5c1.2,1.1,2.6,2,3.9,3
	c2.5,2.3,5.7,4.2,8,6.8c4.1,4.5,7.5,9.5,11.1,14.5c4.5,6.3,9,12.6,12.2,20c0.5,1,1.4,1.4,3,1.4c0-0.8-0.1-1.4-0.3-1.8
	c-1.5-8.5-5.7-15.4-8.9-23c-0.8-2-2.1-3.9-3.1-5.7c-1.1-2-2.2-3.9-3.2-6c-1-1.8-1.8-3.6-2.7-5.4c-1.2-2.1-2.2-4.3-3.4-6.5
	c-1-1.7-1.9-3.7-3.4-4.9c-1.9-1.3-2.5-3.6-4.1-5.2c-0.5-0.5-0.4-1.7-0.3-2.6c0.3-2.4-0.9-4-2.5-5.5c-0.3,2-0.3,3.4-0.7,5.4
	c-0.9-0.1-1.8,0.1-2.3-0.1c-1.9-1.5-3.1-3.4-1.4-6.8c-2.9-0.3-4-2-3.6-4.8c-0.2,0-0.4,0.1-0.6,0.1c-0.7,1.4-1.5,2.7-2.6,4.4
	c-1.3-0.8-2.3-1.6-3.3-2.3c-0.8-0.5-1.3-1-0.7-2.2c0.7-1.5,0-2.2-1.1-3.2c-0.1,1.5,0.6,2.6-1.3,3.8c0.4-1.5-0.2-2.1-1.4-2.5
	c-0.9-0.3-1.4-1.4-1.7-2.3c-0.2-0.4,0.8-1.5,1.2-2.2C674.7,27.8,674.1,28.6,673.5,29.3z M670.9,46.5c-0.4,0.2-0.4,0.4-0.6,0.4
	c-0.1,0-0.3-0.2-0.3-0.3c0.1-0.2,0.2-0.3,0.6-0.8C670.8,46.1,670.9,46.3,670.9,46.5z M673.5,38.6c1.1,1.7,4.2,1.8,4.2,4.5
	c-2.6-1-5.6-1.2-6.1-4.6C672.4,38.6,673.2,38.4,673.5,38.6z M669.7,38.8c-0.2,0.1-0.7,0.3-0.8,0.4c-0.1-0.6-0.2-0.9-0.2-1.5
	c0,0,0.5-0.3,0.7-0.4C669.6,37.9,669.7,38.3,669.7,38.8z M675.7,35.7c0,0.3-0.1,0.7-0.4,1.2c-1.2-0.3-1.3-0.9-0.1-2.3
	C675.6,35.2,675.8,35.3,675.7,35.7z M580.9,57.2c1.6,1.6,3.6,1.5,8.4-1c-0.8,1.1-1.3,2.3,0.2,2.4c-0.4,0.5-0.6,1-1.2,1.9
	c-1.2-2.1-3.3-1.1-5.5-0.7c-2.2,0.3-4.2,0.6-6.6,1.1c-0.4,0.9-0.7,1.8-1.3,3.2c1-0.9,1.6-1.6,2.8-2.6c0.1,1,0,1.7,0,2.8
	c1.4-0.6,2.6-1.2,4-1.8c-0.4,0.7-0.9,1.6-1.2,1.6c-2.7,0.5-5.2,0.8-7.4,1.2c0-2.4-0.2-4.3-0.2-6.4c-0.3-0.7-2.6,0.8-2-1
	c1.3-0.3,2.4-0.7,3.7-1.1h-0.1c0.3,0.9,0.7,1.7,1.3,2.8c0.6-0.1,1.9-0.3,2.9-0.4c0.8-1.6,1.5-3,2.4-4.9c0.9,0.3,1.6,0.7,2.8,1.1
	C582.6,56.4,581.7,56.8,580.9,57.2z M662.5,17.2c0.8-0.2,1.7-0.3,2.9-0.4c-0.5,2.7-0.9,5.2,0.8,6.7c0.2,0.1,0.2,0.2,0.4,0.3
	c0.5,1.1,2.6,0.4,2.8,2.1c0.1,1.1,1.2,1.9,1.9,3c-1.8,1-3.2,0.1-3.4-0.8c-0.6-2.1-2.6-2.4-4.2-3.2c-1.1-0.6-1.9-1-2.1-2.4
	c-0.2-1.4-1.5-2.3-2.4-3.3c0.2-0.2,0.3-0.4,0.6-0.6c0.8,0.6,1.6,1,2.5,1.6C664.5,18.9,661.4,18.5,662.5,17.2z M488.3,71.5
	c1-0.6,1.9-1.5,2.6-1.7c0.6-0.1,1.1,0.9,1.9,0.1c0.7-0.6,1-1.6,1.6-2.5c-2.2,0.3-3.1-0.4-2.3-2c0.5-1,0.4-1.6,0-2.3
	c-0.2-0.2,0.1-0.9,0.1-1.3c-0.4-0.5-1-0.9-1.6-1.4c-0.4,0.6-1,1.4-0.9,1.5c1,1,0,1.8-0.9,2.8c-0.9,1.1-2,2-3.2,3.3
	c1.7-0.1,3.1-0.1,4.5-0.1C489.3,69.2,487.8,70,488.3,71.5z M489.4,66.1c0.1-0.2,0.4-0.6,0.5-0.7c0.1-0.1,0.3,0.1,0.7,0.3
	c-0.3,0.3-0.6,0.6-0.7,0.7C489.8,66.5,489.4,66.2,489.4,66.1z M624.7,22.5c-2.8,2.4-4.9,2.2-5.5-0.4c-0.2-0.8-1.1-1.4-1.7-2.1
	c0.2-0.2,0.3-0.4,0.4-0.5C620.3,20.3,624.7,18.2,624.7,22.5z M547,81.2c0.5-1,0.9-1.9,1.6-2.9c1.1-0.3,2-0.4,3.2-0.6
	c-2.2,3.5-5.5,5.1-8.5,7.3c-0.8-1.4-0.2-2.6,0.7-3.8C545.4,79.6,545.7,81.6,547,81.2z M649.7,19.6c0.6-1.8,1-3.5-0.3-4.5
	c2.8-2.1,2.8-2.1,4.3-0.5c-0.9,0.4-1.7,0.7-2.7,1.1c0.5,0.8,1.1,1.3,1.6,2.1C651.6,18.4,650.7,19,649.7,19.6z M618.7,29
	c0.1,0.5,0.2,1.6-0.2,2.2c-0.4,0.5-1.5,1.1-2.2,1.1c-0.8,0-1.5-0.5-2.9-0.9c1.5-1.1,2.4-1.9,3.5-2.5C617.4,28.7,618.5,28.8,618.7,29
	z M492.2,62c0.7-0.5,1.3-1.3,1.8-1.8c1.3-0.1,2.2,0.9,3.8-0.6c0.3-0.4,1.9,0,3.4,0.1C497.8,61.4,495,63.6,492.2,62z M657.6,19
	c-0.9,0.9-1.6,1.6-2.7,2.8c0.5-2.5-1.6-3.7,0.3-6.8C656,16.5,656.7,17.6,657.6,19z M593.2,58.3c-1.2,0.1-2.5,0.2-3.6,0.4
	c2.3-1.6,4.5-2,6.6-1.6c0.2,1.9,0.3,3.5,0.5,5.1c-0.6-0.5-1.8-0.4-1.2-1.9C596,58.8,595,58.1,593.2,58.3z M618.5,40.4
	c-1.5,1.7-2.9,3.2-4.2,4.7c-0.1,0-0.3,0-0.4,0c0.4-1.8,1-3.8,1.6-5.9C616.8,39.8,617.7,40.1,618.5,40.4z M523,115.3
	c2.5,1.4,2,3.4,0.7,6.2C522.1,119.8,523.3,117.5,523,115.3z M432.3,153.8c-0.4,2.1-0.8,3.8-1.2,5.5c-2.4-0.3-1.4-2.1-1.3-3.6
	C430,154.5,431.1,154.1,432.3,153.8z M650.9,23.8c-1.1,0.8-1.9,1.4-2.4,1.9c-0.2-0.8-0.4-1.4-0.8-1.9c-0.6-0.4-1.4-0.7-0.6-2
	C648.1,22.4,649.3,23.1,650.9,23.8z M517.2,109c1.5-0.5,2.5-0.8,3.6-1.1c1.4,0.9,0.2,3,0.4,5.1c-0.6-0.5-1.1-0.8-1.4-1.2
	C519.3,109.7,519.4,109.7,517.2,109z M443,131.1c1.1-1.8,1.8-3.2,2.5-4.4c1.3-0.6,2.5-1.4,3.7-2c0.2,0.1,0.2,0.2,0.4,0.3
	C447.4,126.9,445.4,128.7,443,131.1z M624.1,41.3c0.5,0.2,1,0.2,1.9,0.5c-1.1,0.5-1.7,0.9-2.5,1.2c-0.5-0.5-0.9-1.2-1.5-1.2
	c-0.5-0.1-1.3,1-1.4-0.4c1.7-0.5,3.3-1,5-1.5c0.1,0.1,0,0.3,0.1,0.4C625.2,40.6,624.6,40.8,624.1,41.3z M547.1,41.4
	c0.3-0.7,1.8-1.7,0.1-1.8c0.5-0.4,1.1-0.9,1.7-1.6c0.8,0.6,1.3,1.1,2,1.6C549.3,41.6,548.9,41.8,547.1,41.4z M607.6,41.9
	c0.1-0.6,0.1-1.3,0.1-1.8c0.2-0.1,0.7-0.3,0.8-0.4c-0.1,1.3,1.9,1.4,0.6,3.2c-0.5,0.6-1.5,0.8-2.7,1.4
	C606.9,43.2,607.4,42.6,607.6,41.9z M505.6,58.4c0.6-1,2-1.9,3.2-3c0.2,0.1,0.2,0.2,0.4,0.3c-1.2,1.4-2.4,2.9-3.5,4.3
	c-0.4,0.5-0.6,1.1-0.8,1.6C503.7,60.7,504.9,59.3,505.6,58.4z M480.7,76.7c-0.7-0.2-1.5-0.5-2.7-1c0.9-0.7,1.7-1.4,2.4-1.9
	C481,74.7,482.2,75.2,480.7,76.7z M502.6,57.9c-0.2-0.7-0.1-1.4-0.1-2c0.8-0.3,1.3-0.4,2.1-0.7c0.5-0.1,1.1-0.4,2.2-0.7
	C505.4,56.5,504.1,57,502.6,57.9z M480.6,81.3c1.7-1.7,2.8-2.9,4.1-4.3C484.5,79.8,484.2,80.1,480.6,81.3z M528.7,113.5
	c0.3,0.3,0.5,0.6,0.8,1c-1.6,1.2-2.9,1-2.7-0.2c-0.1-0.7,0.8-1.3,1.6-1.3C528.3,113.3,528.5,113.5,528.7,113.5z M581.1,65.4
	c3.7-1.6,3.8-1.6,3.2,0.7C583.3,65.8,582.5,65.7,581.1,65.4z M604.1,47.2c1.2,0.2,2.3,0.4,3.4,0.6C604.3,49.2,604.3,49.2,604.1,47.2
	z M596.7,52.5c-1,1.4-1.5,2.4-2.4,3.7c-0.1-1.2-0.2-2.1-0.2-3.1C594.9,52.8,595.5,52.7,596.7,52.5z M646.7,19.7
	c-0.3-0.7-0.4-1.3-0.7-2.5c1.9,0,2.7,0.3,2.2,1.6C648.2,19,647.4,19.2,646.7,19.7z M429.8,170.3c-0.3,1.1-0.4,2.1-0.7,3.3
	c-0.6,0-1.1-0.1-1.9-0.2C428.2,172.2,428,170.9,429.8,170.3z M590.7,51.3c-0.9,0.3-1.9,0.7-3.1,1.1
	C588.6,50.7,588.6,50.7,590.7,51.3z M544.4,36.4c1.3-0.6,2.4-1.3,3.8-2C547.6,35.8,546.7,36.4,544.4,36.4z M459.3,103.8
	c-0.3,0.1-0.5,0.1-1,0.2c-0.9-0.7-0.6-1.6,0.8-3.4C459.3,102.2,459.2,103,459.3,103.8z M571.6,66.8c0.9,0.4,1.7,0.9,2.6,1.4
	C572,69,571.3,68.7,571.6,66.8z M429.6,164.7c-0.1,1.3-0.2,2.4-0.3,4.2C428.2,167.5,428.1,166.3,429.6,164.7z M590.4,53.6
	c-1.9,1.4-1.9,1.4-3.2,0.2C588.1,53.8,589,53.8,590.4,53.6z M625,36.4c0.9,0.4,1.4,0.8,2.1,1.1C624.6,39,624.6,39,625,36.4z
	 M595.2,44.4c0,0.1,0,0.1-0.1,0.2C595.1,44.5,595.1,44.5,595.2,44.4L595.2,44.4c-0.5-0.8-0.5-0.8,0.5-2.1c0.5,0.3,1,0.5,1.5,0.8
	c-0.1,0.1-0.2,0.3-0.3,0.4C596.3,43.8,595.9,44,595.2,44.4z M503.4,50.9c0.1-0.2,0.2-0.3,0.4-0.6c0.7,0.1,1.4,0.1,2.2,0.3
	C504.4,52.4,503.9,51.4,503.4,50.9z M505,52.8c-1.2,1.2-1.9,1.9-2.6,2.7c-0.2-0.6-0.3-1.3-0.3-2C503,53.3,503.7,53.1,505,52.8z
	 M582.9,27.1c-0.8,0.5-1.6,1-2.5,1.6C581,26.7,581,26.7,582.9,27.1z M605.6,39.6c-0.8,0.8-1.6,1.4-2.4,2.2
	C603.4,39.8,603.4,39.8,605.6,39.6z M676.5,18.1c-0.3,1.1-0.4,1.9-0.6,2.6c-0.2,0.1-0.4,0.1-0.8,0.2
	C674.7,20.1,674.4,19.3,676.5,18.1z M433,150.6c-0.2,0.1-0.5,0.2-0.8,0.4c-0.7-0.6-0.1-1.7-0.2-2.4c0.2-0.1,0.5-0.2,0.7-0.3
	C432.8,148.9,432.9,149.7,433,150.6z M495.9,65.9c0.8-0.8,1.8-1.7,2.5-2.4c0.1,0.3,0.4,0.3,0.5,0.5c-0.9,0.8-1.7,1.6-2.7,2.4
	C496.1,66.3,495.9,66.1,495.9,65.9z M527,104.2c-0.2-0.8-0.5-1.5-1-2.8C527.7,101.9,527.3,103,527,104.2z M648.4,33.6
	c0.1-0.6,0.4-1.1,0.5-1.7c0,0,0.5-0.1,0.5,0c0.1,0.6,0.2,1,0.1,1.5C649.2,33.6,648.9,33.5,648.4,33.6z M502.4,55.6
	c0,0.1-0.1,0.3-0.1,0.4c-1.2,0.7-2.3,1.5-2.6-0.3C500.8,55,501.6,55.4,502.4,55.6z M602.5,60c0.3,0.3,0.5,0.8,0.8,1.1
	c-0.4,0.2-0.5,0.4-0.8,0.7c-0.3-0.4-0.5-0.7-0.7-1.1C601.7,60.7,602.1,60.4,602.5,60z M636.3,31.4c-1.3,0.6-1.8,0.9-2.9,1.5
	C634.1,31,634.9,31,636.3,31.4z M628.4,8.9c0.2,0.1,0.3,0.2,0.5,0.4c-0.4,0.5-0.6,1-1.1,1.6c-0.3-0.1-0.5-0.4-0.6-0.4
	C627.6,9.7,627.9,9.4,628.4,8.9z M641.2,13.5c-0.7,0-1.3,0-1.9,0c0.1-0.2,0.1-0.4,0.2-0.7c0.7,0,1.3,0.1,2,0.1
	C641.3,13.1,641.1,13.4,641.2,13.5z M553.2,35.6c1.2-0.7,1.8-1,2.5-1.4C555.4,35.8,554.8,35.8,553.2,35.6z M599.5,60.7
	c0.1-0.9,0-1.8,0.1-3.1C601.2,58.4,599.9,59.7,599.5,60.7z M517.4,118.3c0.7,0.5,1.2,0.7,1.7,1C517.7,120.1,517.7,120.1,517.4,118.3
	z M636,24.9c-0.4,0.5-0.5,1.1-0.8,1.6c-0.2,0-0.4,0-0.6,0c0.1-0.3,0.1-0.7,0.4-0.9c0.2-0.2,0.5-0.5,0.7-0.6
	C635.6,24.8,635.7,24.8,636,24.9z M621.5,25.4c0.1,0.1,0.2,0.2,0.3,0.3c-0.7,0.5-1.3,1.1-1.8,1.6c-0.1-0.3-0.2-0.3-0.2-0.5
	C620.3,26.3,620.9,25.8,621.5,25.4z M667.1,13.1c-0.2,0.6-0.5,1.2-0.7,1.8C665.3,14,665.3,14,667.1,13.1z M657.2,15.2
	c0.1-0.2,0.4-0.5,0.3-0.7c0.4,0.2,1,0.2,1.5,0.3c-0.1,0.3-0.4,0.5-0.4,0.8C658.1,15.5,657.6,15.3,657.2,15.2z M444.3,115.7
	c0.2-0.9,0.2-1.6,0.4-2.7C445.7,113.8,445.8,114.5,444.3,115.7z M610.8,32.9c-0.1,0.3-0.2,0.5-0.3,0.8c-0.6,0.1-1.2,0.1-1.9,0.2
	c0.1-0.2,0-0.4,0.1-0.6C609.5,33.1,610.1,33,610.8,32.9z M483.2,70.4c-0.5,0.8-1,1.6-1.5,2.4c-0.2,0-0.3-0.1-0.4-0.2
	c0.4-0.8,0.8-1.6,1.2-2.4C482.8,70.3,483,70.3,483.2,70.4z M473.8,88.7c-0.6,0.9-1.2,1.7-1.8,2.6c-0.2-0.1-0.3-0.1-0.5-0.3
	c0.7-0.9,1.3-1.9,1.9-2.8C473.7,88.5,473.8,88.6,473.8,88.7z M532.8,112.1c-0.5,0.4-1.3,1.1-2.3,1.9
	C531.1,111.8,531.9,111.8,532.8,112.1z M445.3,126.6c-0.5,0.1-1.3,0.3-1.8,0.5c-0.1-1.2,0.9-1.5,1.6-1.5
	C445.3,125.6,445.1,126.4,445.3,126.6z M521.5,126.2c0.1-0.1,0.7,0.3,0.6,0.5c-0.1,0.4-0.5,0.7-1.1,1.2c-0.3-0.4-0.6-0.8-0.7-0.9
	C520.6,126.7,521.1,126.4,521.5,126.2z M606.7,18.7c0,0.1-0.4,0.4-0.8,0.8c-0.2-0.4-0.4-0.7-0.2-0.9c0.1-0.2,0.4-0.4,0.8-0.6
	C606.4,18.2,606.6,18.4,606.7,18.7z M672.3,22.7c0.2-0.1,0.5-0.3,0.7-0.4c0.1,0.6,0.4,1,0.4,1.4c-0.2,0.1-0.4,0.3-0.6,0.3
	C672.7,23.6,672.6,23.1,672.3,22.7z M627.8,20.7c-0.2,0.5-0.1,1-0.3,1.5c-0.3,0-0.5,0-0.8,0c0.3-0.5,0.2-1,0.5-1.6
	C627.4,20.8,627.6,20.8,627.8,20.7z M608.6,19.1c-0.4-0.7-1-1.3,0.8-2.4C609.1,17.8,609,18.4,608.6,19.1z M452.4,114.6
	c-0.1,0.6-0.4,1.1-0.5,1.6c-0.2,0-0.4,0-0.7,0c0.2-0.6,0.5-1.1,0.7-1.7C451.8,114.6,452.4,114.6,452.4,114.6z M561,29.1
	c-0.7,0.3-1.3,0.6-1.9,0.8c-0.1-0.1-0.1-0.3-0.2-0.4c0.6-0.3,1.3-0.7,1.9-1.1C560.9,28.6,561,28.9,561,29.1z M635.3,20.5
	c-0.5,0.2-0.8,0.5-0.9,0.4s-0.3-0.3-0.2-0.5c0.4-0.2,0.5-0.4,0.7-0.4C634.9,20,635.1,20.2,635.3,20.5z M594.2,22.2
	c-0.2,0.3-0.5,0.5-0.8,0.8c-0.1-0.1-0.3-0.2-0.3-0.3c0.1-0.3,0.4-0.6,0.7-1.2C594.1,21.9,594.3,22.2,594.2,22.2z M595.2,44.6
	c-0.1,0.9,0,1.6-0.2,2.3C593.9,46.5,594.8,45.4,595.2,44.6z M512.2,44c-0.4,0.5-0.6,1-1,1.5c-0.2-0.1-0.3-0.1-0.4-0.2
	c0.4-0.5,0.6-1,1.1-1.5C512,43.9,512.1,44,512.2,44z M674.8,25.3c0.2-0.2,0.2-0.3,0.4-0.5c0.4,0.2,0.8,0.5,1.3,0.7
	c-0.2,0.2-0.2,0.3-0.4,0.5C675.6,25.7,675.1,25.5,674.8,25.3z M612,47c0.4-0.2,0.5-0.4,0.9-0.6c0.1,0,0.3,0.1,0.7,0.5
	C612.7,46.9,612.4,46.9,612,47z M595.2,47c0.6,0,1.1,0.2,1.8,0.2C595.4,48.7,595.3,47.8,595.2,47z M693,32.6
	c0.2,0.1,0.2,0.4,0.3,0.7c-0.4,0.2-0.5,0.4-0.8,0.5c-0.1-0.3-0.1-0.5-0.2-0.9C692.2,32.9,692.7,32.7,693,32.6z M494.9,69.1
	c0.1-0.2,0.5-0.5,0.6-0.4c0.1,0,0.2,0.2,0.5,0.5c-0.5,0.3-0.8,0.5-1.1,0.5C494.9,69.5,494.8,69.2,494.9,69.1z M616.4,34.3
	c0.2-0.3,0.5-0.4,1.1-0.9c-0.1,0.5,0.1,0.7-0.1,0.9c-0.2,0.2-0.4,0.4-0.8,0.6C616.6,34.7,616.5,34.4,616.4,34.3z M612,28.8
	c0.1,0.1,0.1,0.3,0.1,0.4c-0.5,0.2-0.9,0.4-1.4,0.6c-0.1-0.1,0-0.2-0.1-0.3C611.1,29.3,611.5,29,612,28.8z M644.4,31.6
	c0,0.1-0.2,0.2-0.2,0.3c-0.4-0.2-0.8-0.3-1.2-0.4c0.2-0.2,0.3-0.4,0.6-0.6C643.7,31.2,644.2,31.4,644.4,31.6z M629.3,22.7
	c0.3-0.5,0.4-0.9,0.6-1.4c0.2,0,0.3,0,0.5,0.1c-0.3,0.5-0.4,0.9-0.6,1.4C629.6,22.8,629.3,22.7,629.3,22.7z M681.9,35
	c0-0.1,0.4-0.4,0.5-0.3c0.2,0.2,0.3,0.4,0.5,0.8c-0.5,0.3-0.7,0.4-0.9,0.4C682,35.5,681.9,35.2,681.9,35z M522.7,125
	c0.2-0.1,0.4-0.3,0.6-0.3c0.2,0.4,0.2,0.8,0.4,1.2c-0.1,0.1-0.4,0.2-0.5,0.3C523.1,125.8,522.9,125.4,522.7,125z M606.1,61.3
	c0.1,0,0.2,0.3,0.2,0.4c-0.2,0.2-0.4,0.4-0.7,0.7c-0.1-0.4-0.2-0.6,0.1-0.9C605.5,61.3,605.9,61.3,606.1,61.3z M597.7,49.1
	c0,0.1,0,0.4,0,0.4c-0.4,0.1-0.8,0.3-1.3,0.3c0.1-0.2,0-0.3,0.2-0.5C596.8,49.2,597.2,49.2,597.7,49.1z M681.1,55.3
	c0.1-0.1,0.4-0.2,0.7-0.3c0.1,0.3,0.2,0.4,0.3,0.6c-0.1,0.1-0.5,0.3-0.5,0.3C681.4,55.7,681.3,55.5,681.1,55.3z M435.2,142.9
	c-0.1,0.1-0.3,0.1-0.5,0.1c0-0.4,0.1-0.9,0.1-1.3c0.1-0.1,0.3-0.1,0.5-0.2C435.2,142.1,435.2,142.5,435.2,142.9z M629.6,42.3
	c-0.2-0.1-0.3-0.3-0.3-0.5c0.1-0.1,0.4-0.3,0.5-0.3c0.1,0,0.2,0.2,0.3,0.3C629.9,42.1,629.8,42.2,629.6,42.3z M530.3,107.8
	c0.2-0.1,0.5-0.1,0.8-0.2c0.1,0,0,0.3,0,0.6c-0.3,0-0.5,0-0.8,0C530.1,108.3,530.1,108,530.3,107.8z M602.4,43.3
	c0.3,0.2,0.6,0.3,0.8,0.6c-0.2,0.1-0.5,0.1-0.8,0.1C602.3,43.9,602.5,43.7,602.4,43.3z M637.9,46.8c-0.4,0.2-0.6,0.3-0.8,0.4
	c-0.1,0-0.2-0.3-0.1-0.5c0.2-0.1,0.5-0.1,0.8-0.3C637.9,46.3,637.8,46.5,637.9,46.8z M592.9,48.8c-0.1-0.3-0.2-0.6-0.2-0.9
	c0-0.1,0.5-0.3,0.9-0.4c0.1,0.4,0.2,0.7-0.1,1.2C593.5,48.6,593,48.8,592.9,48.8z M449.6,121.1c-0.2,0-0.5,0-0.7,0.1
	c0-0.4,0.3-0.8,0.3-1.2c0.1,0,0.3-0.1,0.4-0.1C449.6,120.4,449.5,120.8,449.6,121.1z M504,156.3c0.5,0.1,1.3-0.1,1.5,0.2
	c0.5,1.4,0.9,2.8,1.4,4.1c-0.4,0.2-0.5,0.4-0.9,0.5c-0.9-1-1.9-2-2.5-3.2C503.1,157.9,503.8,157,504,156.3z"/>
<path class="st3" d="M361.4-226.7c-0.5-0.8,0.7-1.4,2.5-1.6c2.7-0.3,4.6,0.1,6.3,1.1c1.9,1.2,4.8,1.5,6.9,0.8c0.6-0.2,1.3-0.6,1.2-1
	c0-0.3-0.8-0.7-1.4-0.9c-0.5-0.2-1.4,0-2.1-0.1c-3.6-0.3-5.1-1.6-4-3.2c0.3-0.5,0.4-1,0.6-1.7c-5,0.1-9.6,0.2-14.1,0.3
	c-1.6,0-2.8,0-2.9-0.9c3-1.5,6.7-1.7,10.9-1.5c3.2,0.2,6.3,0.3,8.6,1.5c1.4,0.8,3.3,0.8,5.2,0.3c-0.7-0.1-1.2-0.4-0.5-0.7
	c0.7-0.4,1.5-0.7,2.2-1.1c-0.5-0.1-0.8-0.4-0.3-0.7c0.2-0.1,0.4-0.2,0.6-0.3c-0.5-0.1-0.9-0.2-1.3-0.4c-0.6-0.2-0.6-0.6,0-0.8
	c0.4-0.1,0.8-0.2,1.1-0.3c-2-0.2-4-0.5-5.9-0.8v-0.7c2-0.3,3.9-0.5,7-0.9c-3.8-0.9-6.5-1.9-9.6-2.2c-3-0.3-6.3,0.1-9.5,0.1
	c-0.2-0.1-0.4-0.3-0.5-0.4c2.1-1.1,4.2-2.2,6.6-3.4c-1.2-0.1-2.1-0.3-2.7-0.2c-2.7,0.4-5.1,0.3-7.7-0.2c-0.9-0.2-2-0.1-3.1-0.1
	c-0.4,0-0.8,0.3-1.1,0.4c0.5,0.7,0.9,1.3,1.6,2.4c-3-0.3-5.1-0.8-7.2-0.8c-2.4,0-4.7,0.5-7.1,0.7c-1.9,1.6-1.9,1.6-5.6,2.1
	c-4,0.6-8.2,1-12,1.7c-3.5,0.7-6.7,0.7-10.2,0.2c-1.4-0.2-3.3-0.5-4.5-0.2c-4.4,0.9-8.5,0.7-12.3-0.2c-4.5,1.1-8.6,2.1-12.9,3
	c-1.2,0.2-3-0.1-4.4-0.4c-6.1-1.1-12.6-0.8-18.8-1.2c-0.7,0-1.5,0.5-2.3,0.5c-1.3,0-3.1,0.1-3.9-0.2c-3.5-1.4-6.8-3-10.2-4.5
	c-1.6-0.7-2.9-1.6-4.7-2.3c-1.6-0.6-5.1-0.4-5.8,0.2c-1.1,1,0.1,1.7,1.8,2.2c2.9,0.9,5.9,1.7,8.9,2.5c1,0.3,2.1,0.6,2.8,1
	c3.8,2.4,8.4,4.5,13.3,6.4c2.2,0.9,1.9,1.7-0.9,2.1c-6.1,0.9-11.9,2.7-18.8,1.4c-0.6-0.1-1.5,0-2,0.2c-1.5,0.4-1.8,0.9-0.5,1.5
	c2,0.5,4.3-1.3,6.3,0.3c-0.6,0.8-1.2,1.7-1.9,2.9c-1.7-0.3-2.8-0.5-4.8-0.9c2.7,2.4,1,3.7-2.6,4.9c-2.7,0.9-5.5,1.9-7.4,3.7
	c5.2-0.6,8.9,0,12.3,1.4c1,0.4,3,0.6,4.3,0.5c3.8-0.3,7.6-0.8,11.4-1.1c2-0.2,4.1-0.1,6.2-0.4c3.4-0.3,5.9,0.6,8.8,1.4
	c0.5-0.5,0.9-0.9,1.1-1.2c0.2-0.4,0.2-0.9,0.4-1.6c7.1,1.4,13.9,2.5,21.2,1.5c0.9,0.7,1.6,1.3,2.7,2.3c1.5-2.4,4.9-3.2,9.2-3.4
	c1.2-0.1,2.6-0.3,3.3-0.7c3.9-2,9-1.4,13.5-1.7c0.8,0.6,1.3,1,2,1.6c7.3-2.4,14.7-2.8,22.4-0.8c1,0.3,2.4,0.3,3.6,0.4
	c8.2,0.3,16.5,0.5,24.7,0.7c0.2,0,0.5-0.2,0.9-0.4c-1.5-2.2-8.1-0.8-9.4-2.5c-2.7,0-4.7,0.1-6.7,0c-2.1-0.1-4.1-0.4-6.1-0.7
	c-2-0.2-4-0.4-6.8-0.7c0.7-1.1,0.7-2.4,1.9-2.7c2.8-0.8,4.5,0.6,6.4,1.4c5.2-1.4,10.1-0.6,14.8,0.3c3.7,0.7,6.5,0.2,8.4-1.4
	c-4.9-0.4-9.8-0.8-14.7-1.2C363.1-225.7,361.6-226.3,361.4-226.7z M260.4-235.4c-0.6,0.1-1.3-0.2-2.4-0.3c1.6-0.6,2.1-0.8,2.6-1
	c0.4,0.2,1.1,0.5,1.1,0.7C261.6-235.8,261-235.5,260.4-235.4z"/>
<path class="st4" d="M244-112.9c-2.3-1.7-7-0.8-6.7-4.2c1.7,0.3,3.2,0.5,4.7,0.7c-0.7-1.7-1.3-3-1.8-4.4c-0.6-1.6-1.5-2.7-4.2-2.8
	c-1.3-0.1-2.6-0.5-3.9-0.8c-2.6-0.6-5.3-1.6-7.9-1.6c-9.1-0.2-18.2-0.2-27.4-0.2c-2.4,0-4.9-0.1-7.3,0.2c-2.1,0.2-4,0.9-3.4,3
	c0.2,0.6-0.6,1.9-1.5,2.1c-3.5,1.1-4.6,3.3-5.7,5.5c-0.3,0.7-0.6,1.6-1.4,1.9c-1,0.5-2.6,0.9-3.7,0.7c-1.4-0.2-2.1-1.2-1.3-2.4
	c0.6-0.8,1.4-1.9-1.1-2.4c-0.4,1-0.8,2-1.4,3.3c-2.3-0.7-4.4-1.3-7.4-2.3c3.2-1.2,5.4-2,7.7-2.8c-1.8-1.8-3.4-3.6-5.2-5.2
	c-0.4-0.3-1.2-0.6-1.8-0.7c-3.4-0.2-6.3-2.1-10-1.5c-1.2,0.2-2.7-0.3-4.1-0.6c-3.1-0.7-6.2-1.6-9.3-2.3c-4.1-1-8.2-2.1-12.5-2.8
	c-5.1-0.9-9.9-2.8-15.8-1.8c-3.1,0.5-7.3-0.8-8.5-3.4c-1.1-2.3-3.3-3.1-6.1-3.4c-4-0.5-8-1.1-12-1.4c-1.9-0.1-4.6,0.1-5.8,0.9
	c-1.7,1.2-6.1,1.2-4.7,4.1c0.1,0.2-0.4,0.6-0.7,0.8c-2.8,1.9-5.6,3.7-8.6,5.7c1.7,1.1,2.9,1.8,3.8,2.4c-0.8,2.4-1.5,4.5-2.2,6.6
	c-0.5,1.7-1.6,2.6-4.3,2.5c-2.6-0.1-5.1,0.1-5.4-2.5c1.3-0.5,2.6-0.9,4.5-1.6c-5.2-1.6-9.9-3-14.5-4.5c0.1-0.2,0.2-0.4,0.3-0.7
	c1.6,0.1,3.1,0.3,5.8,0.5c-3.1-1.5-5.3-2.6-7.8-3.8c-2.3,2.5-4.6,4.8-2.9,7.7c-3.5,2-6.7,3.9-9.5,5.5c-0.1,3.9,5,7,0.6,10.4
	c2.9,2.4,8.7-0.1,10.5,3.5c-3.8,0.2-4,0.3-5.6,1.6c-1.5-0.5-3-0.9-4.9-1.5c0.3,1.3,0.8,2.2,0.5,3c-0.3,0.9-1.4,1.6-2.2,2.4
	c0.8,1,1.5,1.9,2,2.6c-1.3,2.1-2.5,4-3.7,5.9c-1-0.1-2.4-0.2-3.7-0.3c-0.1,0.2-0.2,0.4-0.2,0.6c1.5,0.9,3.1,1.7,4.4,2.5
	c-1.5,1.2-3.9,2.1-3.9,3.1c0,2.3-0.4,5.3,2.5,6.7c2.5,1.2,6.4,1.8,9.4,1.5c3.4-0.4,6.7-0.1,9.2,0.9c3.2,1.3,6.3,1.2,9.5,1.5
	c2.8,0.2,5.5,0.6,8.3,1C69.2-73,72.6-72,76-72c5.5,0.1,10.3,1.3,15,3c5.6,2,11.4,4,18,1.9c0.3-0.1,0.7,0,1.1,0.1
	c0.1,0.4,0.3,0.9,0.4,1.2c5.3,0.3,10.6,0.6,16,1c0.8-1.8-0.6-2.4-2.6-2.4c-6.2,0-12.2-1-18.2-2.1c-8.1-1.5-16.4-2.7-24.6-4.1
	c-1-0.2-1.9-0.5-2.8-0.8c3.6-0.2,7-0.2,10.4,0.3c5.8,0.7,11.6,1.6,17.4,2.6c8.1,1.4,16.3,1.8,24.6,1.7c4-0.1,8,0.6,12,1.1
	c1.7,0.2,2.2,1.1,0.5,2.3c-3.6-1.1-7-1.3-9,1.3c1.9,2.2,3.5,4.2,5.3,6.3c2.1-1,3.6-2.6,6.3-1.1c0.6,0.3,2,0,3-0.1
	c4.2-0.7,8.3-0.7,12.6-0.3c3.1,0.3,6.3,0,9.4,0.1c1,0,2.5-0.1,3.1,0.3c3.5,2.5,8.3,1.5,11.1,2.3c2.3-0.8,3.7-1.3,5.2-1.8
	c-3.6-0.5-7-1.7-10.6,0.1c-0.9-0.9-1.9-1.8-3.3-3.1c-2.3,2.7-5.8-0.8-8.4,1.2c-1.8-1.9-5.2-1.6-8.2-2.9c7.7-2,14.6-0.7,21.5,0
	c7.7,0.8,15.2,2.2,22.8,3.3c2.1,0.3,4.2,0.3,6.3,0.4c1.9,0.1,2.3-0.8,2.2-1.9c0,0-0.1,0-0.1,0.1c-0.1-0.1-0.1-0.1-0.2-0.1
	c-1.2-0.1-2.5-0.3-4-0.5c2.5-0.8,2.6-0.8,4,0.5c0.1,0,0.2,0,0.3,0l0,0c2.4-1,4.6-1.9,7.6-1.8c1.8,0.1,3.5-0.7,3.2-2.3
	c-0.4-2.1,1.4-2.6,3.7-2.8c2.7-0.2,4.7-0.9,5.5-2.8c-1.1-2.5-7-2.6-6.3-6.3c4.5,0.6,8.7,1.3,14,2c-1-1.9-1.3-3.1-2.3-4
	c-1.5-1.3-3.3-2.5-5.3-3.5c-2.2-1.1-1.5-1.9-0.1-3.2c1.5,0.5,2.8,0.9,4.2,1.3c0.9-2.4,0.8-2.9-1.9-3.3c-3.4-0.5-6.8-0.5-10.4-0.8
	c-0.3-1.6-0.6-3.2-0.8-4.6c3.2-1.8,6.4-3.5,9.7-5.3c-0.6-0.7-2.4-2.3-2.3-2.4c2.4-1.5-1.1-2.7-0.2-4.2c3.5-0.3,6.9-0.6,9.9-0.9
	c2.3-1.9,1-3.4-0.5-4.8C241.5-112.4,242.5-112.6,244-112.9z M47-77.6c-0.1-0.3-0.1-0.5-0.2-0.8c2.4-0.9,2.4-0.9,6.1,0.3
	C50.3-77.9,48.6-77.7,47-77.6z M46.9-100c0.6-0.4,0.8-0.6,1-0.6c1.5,0.2,2.9,0.4,2.4,2.1C49.1-99,48-99.5,46.9-100z M52.9-102.5
	c1.7,0.7,3.4,1.1,4.3,2c0.8,0.8,0.8,2.1,1.1,3.1C52.7-97.7,52.2-98.2,52.9-102.5z M54.3-78.9c3.2-1.2,4.8,0.1,7.7,1.3
	C58.5-77.2,56.3-76.7,54.3-78.9z M57.5-107.6c0.7,0.8,1.3,1.5,2.3,2.6c-5.1,0.2-8.7-0.9-12.6-2.2c2.5-2.3,5-1,7.6-0.6
	c1.9-1.3,4.1-2.7,7.5-0.9C60.7-108.4,59.2-108,57.5-107.6z M72.8-75.1c-1.2-0.2-2.5-0.3-3.7-0.5c0.1-0.2,0.2-0.5,0.3-0.7
	c1.2,0.2,2.4,0.5,3.6,0.7C72.9-75.4,72.8-75.3,72.8-75.1z M170.1-108.2c-0.2-0.5-0.5-0.8-0.5-1.2c0-0.1,1-0.4,1.2-0.3
	c0.4,0.2,0.6,0.6,0.9,1C171.3-108.6,170.8-108.5,170.1-108.2z M59.4-127.1c-1.3-0.3-2.7-0.7-4-1c0.1-0.2,0.2-0.4,0.3-0.5
	c1.3,0.3,2.7,0.7,4,1C59.6-127.5,59.5-127.3,59.4-127.1z M84.3-68.6c0.9,0.2,1.9,0.3,2.8,0.5c-0.1,0.3-0.2,0.6-0.3,0.8
	c-0.9-0.2-1.9-0.5-2.8-0.7C84.1-68.2,84.2-68.4,84.3-68.6z"/>
<path class="st5" d="M541.6-177.4c1.1-0.3,2.2-0.7,3.3-1.1c0.9-0.3,2.1,0,2.8-1.5c-1.2,0.2-2.5,0.7-3.3,0.6c-0.7-0.1-1-0.9-1.4-1.7
	c-2.3,1.8-3.8,2.1-5.7,2c-1.7-0.1-3.8-0.6-6.6,1.4c-0.6,0.4-1.3,0.4-2.1,0.7c0.2-0.3,0.4-0.6,0.7-0.9c0.9-0.6,1.8-1.2,3.2-2.1
	c-3.2-0.4-7.2,1-9.5-0.5c1.1-0.3,1.8-0.6,2.6-0.7c1.3-0.1,2.4,0,3.7-0.4c5.4-1.6,10.7-3,15.1-2.6c0.3,0,0.6,0.1,0.9,0
	c3-1.5,4.9-1,7.1-1.1c3.5,0,7.8-0.9,10,0.2c1.9-0.6,3.9-1.5,4.8-1.3c2.3,0.5,4.3,1.3,6.5,2.1c-2.3,2-5.2,2.5-6.6,4.8
	c1.2,0.1,2.4,0.3,3.8,0.4c0.4,0,1.3-0.1,1.5-0.3c1.9-1.7,2.5-1.1,3.3-0.6c0.5,0.4,1.7,0.1,2.6,0.3c0.5-0.8,0.7-1.4,0.8-1.7
	c-0.9-0.3-1.5-0.7-2.2-1c0.2-0.2,0.3-0.4,0.5-0.6c-1.6,0.6-3.3,1.2-4.9,1.9c0.9-1.1,1.4-1.9,2.3-2.9c0.6-0.6,1.4-1.4,1.9-1.5
	c1.9-0.5,4.4-1.3,5-0.8c1.2,0.6,2.6,0.7,4.1,0.8c0.1,0.1,0.3,0.1,0.7,0.1c-0.1-0.6,0-1.1,0-1.4c1.8-1.4,3.4-2.5,5.3-3.9
	c0.2,0.5,0.5,1.1,0.8,1.6c0.7-0.3,1.5-0.6,2.5-1.1c0.5,0.8,0.7,1.4-0.8,2.8c-0.6,0.6-0.7,1.2-1,1.9l6.3-3.6c0.3,1.1-1.7,3.8,1.5,2.8
	c0.5-0.4,1.1-1.1,1.8-1.6c0.6,0.7,1.6,0.9-0.6,2.5c-1.7,1.1-1.8,2-0.7,2.3c1.5-0.8,2.9-1.8,4.3-2.5c1.3-0.6,2.5-0.8,3.8-1.2
	c1.1-0.3,2.9-1.9,3.7-0.8c-2.1,1-4.2,2-4.5,4.2c2.2-1.6,4.3-2.9,5.9-4.3c0.7-0.7,0.4-1.7,0.6-2.8c0.8-0.5,1.8-1.1,2.5-1.6
	c0.3,0.2,0.4,0.3,0.4,0.4c-0.9,2.2,1.3,2.3,2.1,3.4c0,0.2,0.7,0,0.8,0c1.6-1.4,2-0.7,2.1-0.2c0.4,0.5,0.6,1.3,1.2,1.7
	c1.4-0.8,2.6-1.7,4-2.5c0.1-0.1,0.3,0.1,0.6,0.3c-0.7,0.6-1.8,1.3-2.2,1.7c0.3,1.7,0.7,1.9,2.1,0.9c1.7-1.1,3.2-2.4,5.3-3.9
	c-1.4,0.2-2.5,0.4-3.5,0.6c-0.1,0,0-0.3,0-0.3c1.3-0.7,2.7-1.4,4.7-2.4c0.2,2,4.1,1.5,2.1,5c-0.3,0.4,0.6,0.6,1.1,1.1
	c1.8-2.1,3.4-4,5.5-6.3c-1.6,0.5-2.7,1-3.9,1.3c-1.2-0.7-2.5-1.4-4-2.5c1.4-0.4,2.2-0.7,3.3-1c-0.1-1-0.1-1.9-0.3-2.8
	c0.6,0,1.1-0.2,1.7-0.3c0.2-1.1-0.7-1.4-1.9-0.8c-1.8,0.7-1.9-0.1-2.1-0.8c-0.7,0.4-1.3,0.7-2,0.9c-1.6,0.4-2.2-0.5-1.4-1.7
	c1.7-2.1,1.6-2.6-0.2-2.6c-1,0-1.9,0-3.1,0.1c0.3-2-0.8-3.2-2.7-3.1c-2.9,0.2-4.1-0.9-4.9-2.4c-0.4-0.9-1.2-1.8-2.3-2
	c-1.9-0.2-2.5-0.9-1-3.2c-2.9,1.4-5.5,1.5-6,0c-0.4-1-1.1-1.3-2.4-1.3c-3-0.3-5.8-0.8-8.5-1.4c-1.3-0.3-1.2-0.6,0.9-2.1
	c0.3-0.9,1.3-1.3,2.1-1.7c-0.2-1.4-0.9-2.3-3.1-2.2c1.3-0.5,2.5-0.9,3.7-1.4c0.4-0.9,0.6-1.8,1.2-2.8c0.6,0,1-0.1,1.4-0.2
	c0.4,0,0.6-0.2,1.1-0.3c0.4-1.8-1.7-0.7-2.7-0.8c-2.6-0.5-5.8-0.6-9.4,0c-1.6,0.3-2.7-0.2-4.1-0.3c-0.5,0-1,0-1.4,0
	c-1.3,0.1-2.6,0.2-3.9,0.3c-1.5,0-3,0.1-3.9,0.2c-0.7-0.8-1-1.5-1.9-1.7c-1.5-0.1-2.8,1.4-4,2.6c-1,0.1-1.8,0.4-2.4,0.4
	c-0.3,0-0.5-0.2-0.7-0.1c0.6-0.6,1-1.1,1.7-1.6c-0.6-0.8-1.4-0.2-2.6,0.7c-2.4,1.7-3.8,1.8-4.8,0.6c-0.4,0.2-0.8,0.4-1.4,0.7
	c0.4-1.2,0.3-2.1,0.8-3.5c-2,1.7-4.9,2-5,4.6c-3,0.3-5.7,0.6-8.4,0.9c-1.3,0.1-2.4,0.2-3.7,0.4c-3.3,0.7-6.6,1.5-10,2.2
	c-1.2,0.3-2.3-0.1-3.4,0.5c-3,1.8-5.8,2.3-8.6,3.5c-0.1,0.1-0.3,0-0.5-0.2c0.3-0.5,0.6-1.1,0.7-1.5c-2.2-0.7-4.5,2.5-6.9,3
	c-0.1-0.6-0.2-1.2-0.2-2l-9.5,5.4c0,0,0,0,0.1,0c0,0,0,0-0.1,0.1c-0.3,1-1.1,1.5-2.5,1.9c0.8-1.2,1.3-1.8,2.5-1.9l0,0l0,0
	c-0.1-0.3-0.3-0.4-0.4-0.6c-1.5,0.6-3.7,1.9-4.2,1.6c-1.1-0.5-3.1,0.7-4.3,0.6c-0.4,0-1.4,0.4-1.9,0.8c-0.3,0.3-0.4,0.9-0.5,1.3
	c-1.9,1.1-3.5,2-5.3,3c-1.6,0.9-3.2,2-4.6,2.7c-1.6,0.9-2.3,0.8-2-0.4c0.1-0.4,0.4-1,0.6-1.5c-2.5,1-2.5,1-4.8,3.1
	c-3.1,3.1-6.4,4.1-8,2.7c-0.3-0.3-1.6,0-2.5,0c-0.8,2.2-3,4.3-5,5.1c-5,1.9-9.9,4.9-14.8,7.9c-0.9,0.5-1.7,1.2-2.4,1.5
	c-3.9,1.6-7.7,3.2-11.2,6.7c-0.2-0.5-0.3-0.9-0.7-1c-0.3-0.2-0.6-0.3-0.9-0.4c-2.2,1.8,0.2,1.3,0,2.2c-2.4,0.9-4.7,0.8-6.9,3.1
	c-0.1,0.6-0.2,1.1-0.3,1.8c-1.8-0.4-4,1.2-4.8,2.1c-2.2,2.4-4.1,4.2-7.2,5c-1.4,0.4-2.9,1.3-4.3,2.1c-1.3,0.7-2.7,1.4-4.3,2.2
	c-0.1-0.9,0-1.8-0.1-2.8c-1.3,0.7-3,1.2-4,2c-3.5,2.9-6.9,5.9-10.4,8.8c-3.4,2.9-6.9,5.9-10.3,8.9c-3.6,3.3-7.2,6.6-10.8,10
	c-5.1,5-10.1,10-13.7,15.3c-2.3,3.3-3.7,6.6-7.5,9.9c-1,0.8-1.2,1.9-2.1,3c-2.1,2.7-2.6,5.8-7.1,8.2c-0.1,0.1-0.4,0.4-0.4,0.5
	c-1.1,2.4-3.5,4.7-5.6,6.8c-3.2,3.3-3.1,5.6-4,8.3c-0.1,0.4,0.7,0.8,1.3,0.9c0.5,0.2,1.3,0,2,0c-0.6,1.3-1,2.6-1.4,4
	c2-1,3.7-1.8,5.4-2.6c0.5-0.2,1.7-0.5,1.7-0.2c0.3,0.2-0.2,1-0.7,1.5c-2.9,2.6-4.5,5.3-5.5,8.1c3-1,4.4-0.2,5.7,0.9
	c1.9-1.2,3.6-2.3,5.3-3.4c0,0.2,0.3,0.2,0.2,0.4c-2.5,2.1-5.2,4.2-8.2,6.6c1.6-0.4,2.5-0.5,3.9-0.8c-2.1,2.8-4.7,5.7-2.6,7.2
	c4-2.5,8.1-5,12.3-7.6c0.1-0.1,0.2-0.2,0.3-0.3c1.6-1.1,3.3-2.4,4.7-3.3c4.8-3,9.8-6.1,14.6-8.8c3-1.7,6.3-3.1,9.4-4.1
	c2.7-0.9,5.3-1.8,8.2-3.3c0.7-0.4,1.1-0.5,1.8-0.9c0.1-0.1,0.1-0.3,0.2-0.3c10.6-8.3,22-15.9,33.3-23.1c-0.1,0-0.1,0,0-0.2
	c0.5-0.4,1.1-1.1,1.6-1.5c4.4-3.3,8.8-6.7,13.3-10.1c1.6-1.3,3.1-2.4,4.5-3.7c1.9-1.7,3.4-3.7,6.3-4.3c0.4-0.2,0.9-0.6,1.4-0.9
	c3.6-2.7,7.1-5.4,10.5-8.1c1.7,0.1,3.2,0.5,4.8,0.6c2-1.3,3.9-2.1,6-2.8c1.7-0.6,3.3-1.2,4.9-2c-0.6,0.1-1,0-1.7,0.1
	c1.7-2.3,2.3-2.6,3.8-1.9c1-0.8,2-1.6,3.5-2.9c-0.3,0.9-0.5,1.6-0.7,2.1c2.6-1.4,5-2.7,7.4-3.5c0.9-1.9,3.7-3.4,4.9-5.3
	c0.6-0.8,1.4-1.5,2.3-2.5c-3,1.2-0.7-1.7-3-1.4c1.5-0.8,2-1,3-1.5c0.2-1-0.8-2.1,2.3-3.4c0,0.2,0.2,0.3,0.3,0.4
	c0.2,0.1,0.3,0.3,0.8,0.6c0.7-3.2-0.6-3.2-6.4-0.2c2.1-2.7,4.4-2.9,6.8-3.7c-1.8-1.1-5,0.5-7.4,0.8c1.9-1.3,3.3-1.8,4.9-2.1
	c1.5-0.3,3.3-0.6,4.7-1.4c2.2-1.2,3.4-1.4,4.4-0.7c0.5,0.4,0.8,1.2,2.7-0.1c-0.3-0.9,0.2-2.1,2.3-3.3c3.4,0,8.8-3.1,10.8-1.1
	c1.5-0.7,3.1-1.9,4.2-2C535.8-178,539.8-178.9,541.6-177.4z M630.2-191.8c-0.2,0.2-0.4,0.5-0.9,0.8c-0.3,0.2-0.5,0.2-1.4,0.4
	c0.9-0.7,1.3-1.1,1.5-1.1C629.9-191.9,630-191.8,630.2-191.8z M629.1-193.9c-0.8,1.6-1.5,2.1-3.2,2
	C627.3-192.8,627.9-193.3,629.1-193.9z M605.3-186.2c-0.4,0-0.8,0-0.9,0c0-0.3,0.3-0.7,0.4-1c0.4,0,0.6,0,1-0.2
	C605.9-187,605.7-186.7,605.3-186.2z M598.2-222.8c0.3,0,0.8,0,1,0.1c0,0.2-0.2,0.5-0.7,1.3c-0.5-0.2-0.8-0.1-0.9-0.3
	C597.7-222.1,598-222.4,598.2-222.8z M600.5-217.8c-2.1,1.7-2.6,0.9-3.4,0.9c0.1-0.3,0.3-0.4,0.4-0.6
	C598.2-217.6,599.1-217.7,600.5-217.8z M596.7-219.7c0.5-0.1,1-0.2,1.6-0.4c-0.1,0.3-0.3,0.5-0.4,0.7c-0.6,0.1-1.1,0.2-1.5,0.2
	C596.5-219.4,596.4-219.5,596.7-219.7z M605.7-192.2L605.7-192.2C605.8-192.2,605.8-192.2,605.7-192.2c1.1-0.8,2.1-1.6,3-2.5
	c3.6,0.3,3.9,1.9,1.3,5.6c-2.1-0.2-1.2-1.9-0.2-3.7c-1.3,0.2-2.7,0.4-4.1,0.7l-0.1,0.1C605.7-192,605.7-192.2,605.7-192.2
	c-0.6,0-1.4,0.1-2.8,0.3C605.1-193.1,605.3-192.5,605.7-192.2z M596.8-195.6c0.5,0.2,0.7,0.1,1,0.3c-0.2,0.2-0.5,0.6-0.6,0.7
	c-0.4,0.1-0.6,0.1-0.8,0C596.3-194.9,596.6-195.2,596.8-195.6z M567.7-221.3c0.9-0.7,1.7-1.5,2.6-1.8c1.7-0.8,4.3-0.6,5.5-0.1
	c-2.7,0.8-5.4,1.6-8,2.4L567.7-221.3z M576.2-189.4c3.6-1.4,4.4,0.1,6,1.2c-4.2,2.5-2.9-1.8-6.9,1.1
	C575.6-188.3,575.8-188.8,576.2-189.4z M560.4-187.9c1-0.2,2.6-1.7,3.3-0.7c0.4,0.7,3.4-1.2,2.5,1.2c-2.4,0-4.4,0.1-6.3,0.1
	C560.2-187.5,560.3-187.7,560.4-187.9z M554.9-187.3c0.4-0.2,1-0.4,1.4-0.5c0.4,0,0.6,0.1,0.8,0.3c-0.2,0.2-0.2,0.3-0.6,0.6
	c-0.6,0-1.3,0-1.9,0C554.8-187,554.9-187.1,554.9-187.3z M375-81.6c-1.2,0.6-2.4,1.2-3.7,1.8c0-0.2-0.1-0.2-0.1-0.4l3.7-2.1
	C375-82.1,375-81.9,375-81.6z M523.3-176.7c-0.5,0-0.8-0.2-1.2-0.3c0.2-0.2,0.4-0.5,0.6-0.6c0.4,0,0.8,0.1,1.4,0
	C523.6-177.2,523.4-176.8,523.3-176.7z M649.8-146.4c-1.8,0.5-3.9,2.1-5.6,1.8c-0.1,0-1.5,1.3-2.4,2c0.5,0.1,1,0,1.2-0.2
	c1.1-0.9,1.7-0.8,1.8-0.2c0.2,0.7-0.6,1.3-1.6,1.7c-0.9,0.4-1.8,0.5-2.8,0.8c0.6-2.7,1.3-5.3,2.7-8c0.3-0.2,0.5-0.2,1-0.5
	c0.4,0.7,1,1.2,1.5,1.9c0.7-1.9,1.3-3.7,1.9-5.7c-0.9,0.6-1.3,1-2,1.4c-0.5,0.3-1.1,0.5-1.1,0.5c-0.2-1.1-0.6-1.9-0.8-2.7
	c-0.1-0.9-0.1-1.8-0.1-3c-1.4,1.2-2.3,2.1-3.2,2.9c0.5,0.2,0.9,0.3,1.3,0.6c-3.5,2.4-1,3.4-3.5,5.7c1.3-0.4,1.8-0.6,2.7-0.9
	c-0.2,0.9-0.2,1.7-0.3,2.6c-0.4,2.3-1.5,3.2-5.1,4c0.3-1.7,0.8-3.6,0.8-5.1c0-1.7-0.3-3.3-0.4-5.1c2.6-2.5,2.6-2.9,0.9-3.4
	c-0.7-0.2-1.3-0.5-1.6-1c-0.5-0.8-0.3-1.9-0.9-2.6c-1.1-2-1.6-4.2-0.8-7.2c-1.3,0.5-2.7,1-4.4,1.6c0.6,2-1.5,5.3,0.1,6.9
	c3.3-1.1,3.5-1.1,4,0.1c0.7,1.4,1.2,2.9-2.3,5.6c3.4,0.4,2.7,3.1,2.2,5.6c-0.3,1.6-0.9,3.4-0.4,4.4c0.9,1.6-0.9,3.9-1.6,6
	c0,0.3-1.1,0.9-1.6,1.5c-0.7-2.3-0.1-4.9,0.6-7.5c0.3-1,0.7-2.5,0.2-2.6c-1.2-0.2-0.8-1-0.2-2c0.5-1,1-1.9,0.2-2.5
	c-2.4,2.1-2.9,3.9-2.6,5c0.5,2.1-0.6,4.4-2.8,7.2c-0.1,0.1,0.1,0.3,0.1,0.4c3.7-1.5,4.6-0.9,2.9,2c-0.1,0.3-0.3,0.4-0.4,0.6
	c-1,1-1.1,1.5-0.6,2.1c0.4,0.5,0.2,1.6,0.1,2.6c-0.6,3.5-0.9,6.9-1.6,10.5c-1,5.8-4.9,12.3-8.3,18.6c-0.3,0.4-1.1,0.9-1.5,1.3
	c0.5-1.6,1.5-3.1,2.2-4.6c0.7-1.5,0.7-2.6-0.3-3.6c-0.4,1.1-0.8,2-1.2,2.8c-0.9,1.9-1.5,3.7-2.3,5.5c-2,3.9-3.3,7.9-5.5,11.9
	c-4.1,7.1-8.7,14.2-13.5,21.4c-5.9,9.1-11.8,18.2-19.5,27.5c-1.1,1.3-1.3,2.4-0.7,3.3c0.9-0.8,1.5-1.4,2-2
	c9.1-9.2,15.8-18.7,23.7-28.2c2-2.5,3.7-5.1,5.6-7.6c2-2.7,3.9-5.3,5.9-7.9c1.8-2.5,3.5-4.7,5.4-7.1c2.1-2.8,4.2-5.6,6.4-8.5
	c1.8-2.4,3.7-4.8,4.6-7c1.1-2.6,3.3-5.1,4.7-7.7c0.5-0.8,1.8-1.9,2.8-2.7c2.8-2.2,4.2-4.4,5.6-6.9c-2.2,1.7-4,3.1-6.2,4.8
	c-0.2-0.7-0.5-1.2-0.5-1.6c1.2-2.7,3.1-5.4,7.3-7.5c-0.4-2.2,1.2-4.6,4.5-7.1c0-0.2-0.3-0.2-0.2-0.4c-1.8,0.9-3.4,1.6-5.7,2.6
	c0.6-1.7,1.3-3.1,1.7-4.5c0.3-1,0.8-1.8,2.3-2.6c1.9-1,2.4-2.1,3.4-3.9c-1.7,1.4-2.8,3-4.7,2.9c1.8-1.2,2.4-2.2,2.5-3.4
	c0.1-0.9,1.3-2.4,2.2-3.4c0.4-0.5,2-0.9,2.8-1.3C651.9-147.1,650.8-146.7,649.8-146.4z M629.8-131.5c-0.3,0-0.6,0.1-0.7,0
	c-0.1,0,0.2-0.4,0.3-0.5c0.3-0.1,0.4-0.2,1.1-0.4C630.1-131.9,630-131.7,629.8-131.5z M639.2-137.4c-1.7,2.4-1,4.6-4,7.2
	c0.4-2.6-0.1-4.9,3.5-8.5C639-138.2,639.5-137.8,639.2-137.4z M638.2-139.8c-0.1-0.1-0.5-0.2-0.7-0.2c0.6-0.6,0.9-1,1.7-1.6
	c0,0,0.5,0,0.6,0.1C639.1-140.7,638.7-140.3,638.2-139.8z M643.2-138.8c-0.3,0.3-0.8,0.6-1.5,0.9c0-1.1,0.6-1.7,2.7-2.4
	C643.7-139.4,643.6-139.1,643.2-138.8z M594.1-180.9c-1.4,2.6-0.8,3.9,3.3,4.6c-1.5,0.6-2.9,1.4-2.7,2.5c-0.5,0.2-1.3,0.5-2.4,1
	c2.1-2.8,0.3-3.3-0.6-4.3c-1-1.1-1.8-2.2-3-3.3c-1,0.6-2.2,1.2-3.8,2.2c1.2-0.2,2.3-0.5,3.6-0.7c-1.1,1-1.9,1.7-3.1,2.7
	c1.1,0.3,2,0.5,3.1,0.9c-0.9,0.4-2,0.9-2.2,0.8c-1.1-1.3-2.3-2.6-3.2-3.8c2.6-2.3,4.9-4.3,7.1-6.3c0.7-0.8-1.5-0.9,0.6-2.3
	c0.7,0.5,1.4,0.9,2.2,1.4h-0.1c-0.9,1.1-1.7,2.1-2.8,3.6c0.2,0.4,0.8,1,1.3,1.5c2-1,3.8-1.9,6.1-3.1c-0.2,0.9-0.3,1.7-0.6,3
	C595.6-180.6,595-180.8,594.1-180.9z M660.5-165.5c0.4,0.3,0.8,0.8,1.3,1.5c-3.2,2.3-6.1,4.4-7.4,7.1c-0.1,0.3-0.3,0.4-0.2,0.5
	c-1,1.4,0.2,2.1-1.6,3.8c-1.3,1.2-1.9,2.6-2.8,4.1c-1.7-0.2-1-2-0.1-3c2.3-2.5,2-4.1,2.6-6c0.4-1.3,0.6-2.2,2.2-3.8
	c1.5-1.5,2.1-3.2,3.1-4.8c0.4-0.1,0.5-0.1,0.8-0.2c-0.4,1.1-0.7,2.1-1.1,3.2C659.1-162.5,658.8-164.9,660.5-165.5z M553.9-228.6
	c1,0,2.1-0.2,2.5,0.1c0.2,0.4-0.8,1.6,0.3,1.3c0.9-0.2,2-0.8,3.2-1.3c-1-1.1-0.3-2.4,1.7-3.5c1.2-0.6,2-1.3,2.5-2.2
	c0.3-0.4,1-0.8,1.5-1.2c0.4-0.8,0.7-1.5,1.1-2.5c-0.7,0.3-1.8,0.7-1.9,0.8c-0.9,1.6-2,1.7-3.3,2.1c-1.4,0.4-2.7,0.6-4.5,1
	c0.5,1.1,0.9,2,1.2,3C556.9-230.2,555.6-230.3,553.9-228.6z M560.4-233.1c0.3-0.1,0.7-0.3,0.9-0.3c0.1,0,0,0.3-0.2,0.8
	c-0.4,0-0.8,0.2-1,0.1C560-232.4,560.2-233,560.4-233.1z M644.7-185.4c-3.4,0.4-3.7-1.2-1-4c0.8-0.9,1.2-2.1,1.9-3.2
	c0.4-0.1,0.5-0.1,0.5-0.2C646.1-190.5,649.4-189.5,644.7-185.4z M558.4-180.2c1.2-0.6,2.4-1.2,3.7-1.8c0.6,0.4,1,0.9,1.5,1.5
	c-4.5,1.9-7.1,1.2-10.4,1.4c1.4-1.9,2.9-2.7,4.4-3.2C559.7-182.8,557.6-180.7,558.4-180.2z M654.4-171.6c2.2-1.3,4.2-2.7,5-4.6
	c3.1-0.2,3.1-0.2,1.6,2.4c-0.8-0.2-1.2-0.5-2-0.7c-0.8,1.2-1.1,1.9-1.9,3.1C656.3-171.5,655.4-171.6,654.4-171.6z M635.9-183.1
	c-0.5,0.6-1.7,1.7-2.5,1.9c-0.5,0.2-1.7,0.1-1.8-0.4c-0.2-0.5,0.2-1.5,0.3-2.8c1.7-0.1,2.8-0.3,3.7-0.1
	C635.9-184.2,636-183.4,635.9-183.1z M565.7-235.2c0.8-0.1,1.8-0.4,2.5-0.5c0.5,0.8-0.4,2.3,1.7,1.9c0.5-0.1,0.4,1.3,0.7,2.4
	C567.9-232.1,564.7-231.8,565.7-235.2z M657.2-167c-1.2,0.3-2.3,0.5-3.8,0.8c3-2.1,3.7-4.7,7.7-6.4
	C659.6-170.5,658.5-168.9,657.2-167z M596.2-171.7c-0.5-0.7-1-1.4-1.4-2c2.5,0,3.4,1.1,3.5,2.8c-2,1.9-3.9,3.6-5.7,5.3
	c0.5-0.9,0.1-1.6,1.8-2.6C596.3-169.3,596.9-170.7,596.2-171.7z M623-172.2c-2.3,0.7-4.4,1.2-6.4,1.8c-0.1,0-0.1-0.2-0.1-0.3
	c2.2-1.5,4.5-3,7-4.7C623.3-174,623-173,623-172.2z M513.8-163.1c-0.9,3-3.4,4.6-6.8,6.5C508.5-159.4,511.3-160.8,513.8-163.1z
	 M446.8-186.1c-2.4,1.7-4.5,3.2-6.6,4.6c-0.4-1.8,2-3,3.7-4.3C445.3-186.9,446.1-186.6,446.8-186.1z M650.1-166.8
	c-1.3,0.1-2.1,0.1-2.8,0.3c0.8-0.9,1.5-1.7,2-2.4c0.3-0.8,0.4-1.6,2.2-2.4C650.9-170,650.4-168.5,650.1-166.8z M519.2-173.1
	c0.9,0.5,1.4,0.9,2.1,1.3c-0.6,1.8-3.3,3-5.6,5.2c0.5-0.9,0.5-1.5,1-2.1C519.2-171.1,519-170.9,519.2-173.1z M475.1-201
	c2.2-1,4-1.9,5.6-2.6c1,0.3,2.2,0.3,3.2,0.5c-0.1,0.3-0.3,0.4-0.2,0.5C481-202.1,478.4-201.7,475.1-201z M623.4-167.7
	c-0.1,0.5,0,0.9,0,1.7c-0.9-0.2-1.5-0.3-1.9-0.5c0.5-0.8,1.1-1.7,0.9-2.1c-0.1-0.4-1.5,0.1,0.2-1.3c1.1,0.6,1.9,1.3,3,1.8
	c-0.1,0.1-0.3,0.3-0.4,0.4C624.5-167.6,624.1-167.7,623.4-167.7z M603.2-218.6c0.8-0.4,2.3-0.4,2.1-1.7c0.6,0,1.3-0.2,2.3-0.4
	c-0.4,1.1-0.9,2-1.3,2.9C603.5-217,603.2-217.1,603.2-218.6z M618.3-178c0.8-0.5,1.5-1.2,2.1-1.7c0.1,0.1,0.5,0.2,0.7,0.2
	c-1.5,1.2-1.1,2.7-3.5,3.5c-0.8,0.3-1.4-0.2-2.3-0.4C616.8-177.2,617.5-177.4,618.3-178z M573.2-229.8c1.3-0.5,2.8-0.5,4.2-0.8
	c-0.1,0.3-0.3,0.4-0.2,0.5c-1.8,0.6-3.9,1.2-5.7,1.8c-0.5,0.2-1.4,0.7-2,1C570.2-228.8,572.1-229.4,573.2-229.8z M546.2-228.6
	c0.1-0.7,0.2-1.5,0.4-2.7c1,0,1.9-0.2,2.8-0.3C548.5-230.3,548.3-229.1,546.2-228.6z M573-232.2c0.8-0.8,1.5-1.4,2.2-2
	c0.6,0.2,0.8,0.5,1.4,0.7c0.3,0.2,0.7,0.4,1.4,0.8C575.4-231.7,574.4-232.1,573-232.2z M540.9-224.2c2.4-0.6,4-0.9,6-1.5
	C543.7-223.1,543.2-223,540.9-224.2z M517.2-161.1c-0.3,0.5-0.6,0.9-0.8,1.4c-1.7,0-1.9-1-0.5-2c0.9-0.8,1.8-0.8,1.8-0.1
	C517.4-161.6,517.2-161.2,517.2-161.1z M585-172.8c2.7,0.9,2.8,1,0,2.8C585.2-171,585.1-171.7,585-172.8z M611.6-175.3
	c0.1,1,0.1,1.9,0.2,2.8C609.4-173.1,609.4-173.1,611.6-175.3z M603.7-175c-1.8,0.7-3.1,1.3-4.9,2c1.4-1.3,2.4-2.2,3.4-3.1
	C602.8-175.9,603.1-175.6,603.7-175z M653.6-173.5c0.7-0.8,1.4-1.5,2.6-2.9c0.4,1.3,0.4,2.1-1.2,3
	C654.9-173.3,654.3-173.5,653.6-173.5z M427.5-171.8c-1.4,0.9-2.4,1.7-3.9,2.7c-0.1-0.4-0.1-0.8-0.3-1.5
	C424.9-170.9,426.3-172.4,427.5-171.8z M603.4-180.2c-0.6-0.3-1.3-0.6-2.1-0.9C603.6-182.2,603.6-182.2,603.4-180.2z M608.1-225.3
	c1,0.3,2.1,0.4,3.2,0.6C609.7-223.8,608.8-223.8,608.1-225.3z M510-216.5c-0.2-0.1-0.3-0.2-0.5-0.4c0.6-1.3,1.6-1.9,4.2-2.8
	C511.9-218.2,510.9-217.4,510-216.5z M581.1-177.8c-0.2,1-0.6,2-0.8,3C578.6-175.4,578.8-176.2,581.1-177.8z M433.7-177.3
	c-1.5,1.2-2.7,2.2-4.7,3.8C430.3-175.6,431.6-176.8,433.7-177.3z M600.8-178.1c-2.1,0.1-2.1,0.1-1-1.9
	C599.9-179.4,600.2-178.8,600.8-178.1z M629.2-171.8c-0.2,1-0.5,1.7-0.7,2.5C626.1-169.5,626.1-169.5,629.2-171.8z M612.5-183.8
	c-0.1,0.1-0.1,0.1-0.3,0.1C612.3-183.8,612.3-183.8,612.5-183.8L612.5-183.8c0.8-1.2,0.8-1.2,2.5-1.7c-0.1,0.6-0.4,1.2-0.4,1.7
	c-0.1,0-0.4,0.2-0.5,0.1C613.3-183.6,613-183.7,612.5-183.8z M581.1-238.5c0.3-0.1,0.4-0.2,0.7-0.3c0,0.5,0.2,1,0.3,1.7
	C579.6-236.3,580.6-237.6,581.1-238.5z M579.4-235.6c-1.7,0.4-2.6,0.6-3.7,0.9c0.6-0.7,1.4-1.4,2.1-2.1
	C578.4-236.5,578.7-236.2,579.4-235.6z M628.7-208.8c-0.8,0-1.5-0.1-2.4-0.1C628.7-210.4,628.7-210.4,628.7-208.8z M620.5-181.5
	c-1,0.2-2,0.4-3.1,0.5C619.6-182.8,619.6-182.8,620.5-181.5z M663.2-155.3c-1.4,0.9-2.3,1.6-3,2.1c-0.1-0.1-0.3-0.2-0.4-0.3
	C660.5-154.6,661.3-155.5,663.2-155.3z M450.6-188.8c-0.1-0.1-0.3-0.1-0.7-0.2c0.4-1,1.8-1.7,2.7-2.5c0.1,0.1,0.3,0.1,0.5,0.2
	C452.4-190.5,451.5-189.6,450.6-188.8z M562.1-228.9c1-0.2,2.3-0.4,3.4-0.7c-0.2,0.3-0.2,0.5-0.5,0.8c-1.1,0.2-2.3,0.4-3.4,0.5
	C561.8-228.5,562-228.7,562.1-228.9z M527.3-171.3c0.8-0.9,1.5-1.8,3-3.4C530-173,528.7-172.2,527.3-171.3z M638.4-158.9
	c0.8-0.5,1.4-0.8,2.1-1.3c0,0,0.3,0.2,0.2,0.3c-0.6,0.6-1.1,1.1-1.6,1.5C638.5-158.4,638.6-158.7,638.4-158.9z M575.6-234.6
	c-0.1,0.1-0.3,0.2-0.5,0.3c-1.1-0.1-2.3,0-0.3-2C575.8-236.2,575.5-235.3,575.6-234.6z M596.7-163.9c-0.3,0.5-0.8,1.2-1,1.7
	c-0.3,0-0.6,0-1,0.1c0.4-0.6,0.7-1,1.1-1.6C595.7-163.7,596.2-163.7,596.7-163.9z M637.7-169.1c-1-0.3-1.5-0.3-2.4-0.5
	C637.7-171,637.8-170.5,637.7-169.1z M661.1-196.2c-0.1,0.3-0.2,0.4-0.3,0.7c-0.5,0.2-1.3,0.5-2.1,0.8c0-0.3,0.3-0.7,0.3-0.8
	C659.8-195.9,660.3-196,661.1-196.2z M659.2-183.3c-0.1-0.5-0.3-0.9-0.4-1.3c0.3-0.1,0.5-0.3,0.9-0.5c0.1,0.5,0.2,0.9,0.4,1.4
	C659.6-183.5,659.3-183.3,659.2-183.3z M611.4-220.3c1.1,0.1,1.7,0.2,2.2,0.3C611.7-218.6,611.5-219,611.4-220.3z M595.1-165.2
	c1-0.8,2-1.7,3.4-2.9C598.1-166.3,596.3-165.9,595.1-165.2z M508.9-164c-0.4,0.9-0.4,1.4-0.7,2.1C507-162,507-162,508.9-164z
	 M645-175.6c-0.5,0.2-1.3,0.7-2,1c0-0.2-0.1-0.3-0.1-0.4c0.3-0.2,0.8-0.6,1.2-0.7c0.4-0.1,0.6-0.2,0.9-0.2
	C645-175.9,645.1-175.9,645-175.6z M640.6-184.7c-0.1,0.1-0.3,0.4-0.3,0.5c-0.8,0.1-1.4,0.2-2.3,0.3c0.2-0.3,0.3-0.4,0.5-0.7
	C639.3-184.6,639.9-184.7,640.6-184.7z M666.4-166.4c-0.7,0.4-1.5,0.8-2.2,1.2C664.9-166.7,664.9-166.7,666.4-166.4z M661.4-170.9
	c0.3-0.1,0.5-0.2,0.8-0.4c-0.1,0.4,0,0.9,0,1.3c-0.3,0.2-0.5,0.2-1,0.5C661.3-170,661.3-170.5,661.4-170.9z M492.8-215.1
	c1.1-0.8,1.8-1.4,3.1-2.3C495.3-215.9,494.4-215.1,492.8-215.1z M629.4-184.7c-0.3,0.2-0.6,0.4-0.9,0.6c-0.2-0.4-0.5-0.7-0.7-1.1
	c0.3-0.1,0.5-0.4,0.8-0.5C628.9-185.3,629-184.9,629.4-184.7z M553.9-233c-1,0.4-2,0.8-3.1,1.3c0-0.2,0-0.3,0.1-0.4c1-0.5,2-1,3-1.5
	C553.9-233.4,554-233.2,553.9-233z M530.8-221.5c-1.2,0.5-2.3,0.9-3.4,1.4c0.1-0.3,0-0.3,0.1-0.6c1.2-0.4,2.5-0.9,3.6-1.4
	C531-221.8,531-221.7,530.8-221.5z M520-159.8c-0.6,0-1.4,0.2-2.7,0.3C519.8-161.2,520-160.6,520-159.8z M480.6-203.8
	c-0.3-0.2-0.7-0.5-1.1-0.7c1.4-1.3,1.9-0.8,2.2-0.4C481.9-204.8,480.9-204.1,480.6-203.8z M501-153.5c0.1,0-0.2,0.8-0.5,0.9
	c-0.5,0.3-0.9,0.3-1.6,0.4c0.4-0.6,0.7-1.2,0.9-1.3C500.2-153.6,500.7-153.6,501-153.5z M644.3-201.1c-0.1,0.1-0.6,0.1-1,0.2
	c0.4-0.5,0.7-0.9,0.9-1c0.3-0.1,0.6-0.1,0.8,0C644.9-201.8,644.6-201.4,644.3-201.1z M657-153.7c0.1,0.1,0.5,0,0.6,0.1
	c-0.6,0.6-1,1.2-1.5,1.7c-0.1-0.1-0.4,0-0.5-0.1C656-152.5,656.7-153.1,657-153.7z M647.5-185.1c-0.6,0.4-1.1,0.8-1.9,1.3
	c-0.1-0.2-0.2-0.3-0.2-0.5c0.7-0.4,1.2-0.8,1.9-1.2C647.3-185.3,647.4-185.2,647.5-185.1z M644.3-199.4c0.7-0.9,1.2-1.9,2.9-1.8
	C646-200.3,645.3-199.9,644.3-199.4z M496-210.7c-0.8,0.5-1.4,0.8-2,1.2c0-0.2-0.1-0.3-0.1-0.5c0.7-0.4,1.3-0.7,2.1-1.2
	C496-211.1,496-210.7,496-210.7z M620.7-221.4c-0.5-0.2-1-0.3-1.4-0.5c0.1-0.1,0.2-0.3,0.4-0.5c0.5,0.1,1.2,0.2,1.7,0.1
	C621.2-221.9,620.9-221.5,620.7-221.4z M649.7-180.4c-0.3-0.1-0.8,0-0.8-0.2s0.3-0.5,0.5-0.7c0.3,0,0.6,0,0.6,0.1
	C650.2-181,650.1-180.8,649.7-180.4z M637.1-206c-0.4,0.2-0.6,0.2-1,0.2c0.1-0.1,0.2-0.4,0.3-0.5c0.3-0.2,0.7-0.3,1.5-0.7
	C637.4-206.3,637.2-205.9,637.1-206z M612.2-183.7c-1,0.8-1.9,1.6-2.6,2.1C609.7-182.6,611.1-183.1,612.2-183.7z M591.2-239.3
	c-0.5,0.2-1.3,0.5-2,0.8c0.1-0.3,0-0.3,0.1-0.4c0.5-0.2,1.3-0.5,2-0.7C591.2-239.5,591.1-239.4,591.2-239.3z M654.6-149.5
	c0.4-0.1,0.4-0.2,0.5-0.2c-0.1,0.4-0.3,1-0.5,1.6c-0.4,0.1-0.4,0.2-0.5,0.2C654.4-148.5,654.4-149,654.6-149.5z M613.7-170.1
	c0.3,0,0.6,0,0.9,0c0.1,0,0,0.3-0.4,0.9C614-169.7,614-170,613.7-170.1z M609.4-181.3c0.1,0.4,0.1,0.9,0.3,1.4
	C607.5-179.5,608.6-180.5,609.4-181.3z M651-130.3c-0.1,0.3-0.4,0.5-0.7,0.8c-0.3,0-0.6,0-0.8,0c0.2-0.3,0.5-0.6,1-1
	C650.7-130.6,651-130.4,651-130.3z M558.4-226.5c0.3-0.1,0.6-0.2,0.7,0c0.1,0-0.3,0.4-0.5,0.8c-0.5,0-0.8,0-0.9-0.2
	C558-226.1,558.2-226.4,558.4-226.5z M629.2-179.5c0.4-0.2,0.6,0,1.3-0.2c-0.5,0.4-0.9,0.8-1,0.8c-0.4,0.1-0.6,0.1-0.8,0
	C628.8-179,629.1-179.4,629.2-179.5z M634.4-187.8c-0.1,0.1-0.2,0.3-0.4,0.4c-0.3-0.1-0.8-0.2-1.1-0.3c0.1-0.1,0.2-0.2,0.2-0.3
	C633.6-187.9,634.1-187.9,634.4-187.8z M639.6-163.5c-0.1,0.1-0.4,0.1-0.4,0.2c0.1-0.4,0.1-0.8,0.1-1.2c0.4-0.1,0.5-0.1,0.8-0.2
	C639.9-164.4,639.8-163.9,639.6-163.5z M645.7-182.2c0.7-0.4,1.2-0.7,1.6-1c0,0.2,0.1,0.2,0.1,0.4c-0.7,0.4-1.2,0.7-1.6,1
	C645.7-181.9,645.7-182.2,645.7-182.2z M645.6-135.4c0.1-0.1,0.6-0.1,0.5,0c-0.3,0.4-0.4,0.6-0.8,1.2c-0.5,0-0.6-0.1-0.8-0.2
	C645-134.8,645.3-135.1,645.6-135.4z M502.7-153.9c0.1,0.1,0.4,0,0.5,0.1c-0.4,0.5-0.8,0.9-1.3,1.5c-0.1,0-0.3,0-0.5,0
	C501.9-152.9,502.3-153.4,502.7-153.9z M596.3-160.2c0.1,0-0.3,0.4-0.4,0.5c-0.4,0.1-0.6,0.1-0.9,0.1c0.4-0.4,0.6-0.7,1-0.8
	C596-160.5,596.1-160.3,596.3-160.2z M607.7-177.6c-0.1,0.1-0.5,0.4-0.5,0.4c-0.3-0.2-0.6-0.3-0.7-0.5c0.3-0.1,0.3-0.3,0.6-0.4
	C607.4-178.1,607.5-177.8,607.7-177.6z M622.5-116.2c0.1,0,0.3,0,0.5,0.2c-0.2,0.3-0.4,0.5-0.6,0.8c-0.1,0-0.5,0-0.5,0
	C622.1-115.7,622.3-116,622.5-116.2z M459.7-194.8c-0.1,0-0.2-0.1-0.3-0.2c0.5-0.4,1-0.8,1.5-1.2c0.1,0,0.2,0.1,0.3,0.1
	C460.6-195.5,460.2-195.1,459.7-194.8z M623.7-163c0.1-0.3,0.3-0.5,0.4-0.7c0.1,0,0.4,0,0.5,0s-0.3,0.4-0.3,0.5
	C624-163,623.9-163,623.7-163z M524-165.5c0.1,0.1,0.3,0.2,0.4,0.3c0.1,0-0.3,0.3-0.7,0.5c-0.1-0.2-0.2-0.3-0.2-0.5
	C523.4-165.1,523.8-165.4,524-165.5z M615.5-180.1c-0.2,0.4-0.2,0.7-0.4,1.1c-0.1-0.1-0.3-0.2-0.4-0.4
	C614.8-179.6,615.1-179.7,615.5-180.1z M620.9-153.1c-0.3,0-0.5-0.1-0.7-0.2c-0.1,0,0.3-0.4,0.5-0.6c0.1,0.1,0.3,0.2,0.6,0.3
	C621.3-153.6,621.1-153.5,620.9-153.1z M606.7-181c0.2-0.3,0.6-0.7,1-1c0.1-0.1,0.5,0,0.8,0.2c-0.4,0.4-0.8,0.8-1.3,1.1
	C607.2-180.9,606.8-181,606.7-181z M488-206.2c0-0.2-0.2-0.3-0.3-0.4c0.5-0.4,0.9-0.6,1.4-1c0.1,0,0.2,0.1,0.3,0.2
	C488.8-206.9,488.4-206.6,488-206.2z M462.7-136.1c0.1,0.4,0.5,0.8,0.2,1.2c-1.4,1.7-2.9,3.3-4.3,4.9c-0.3,0-0.6,0-0.7-0.1
	c1-1.6,1.7-3.2,2.9-4.8C460.6-135.1,461.7-135.5,462.7-136.1z"/>
</svg>
