<?xml version="1.0" encoding="utf-8"?>
<!-- Generator: Adobe Illustrator 22.0.1, SVG Export Plug-In . SVG Version: 6.00 Build 0)  -->
<svg version="1.1" id="master-artboard" xmlns="http://www.w3.org/2000/svg" xmlns:xlink="http://www.w3.org/1999/xlink" x="0px"
	 y="0px" viewBox="0 0 711.6 294.9" style="enable-background:new 0 0 711.6 294.9;" xml:space="preserve">
<style type="text/css">
	.st0{opacity:0.34;fill:#F08B3D;enable-background:new    ;}
	.st1{opacity:0.34;fill:#5A288E;enable-background:new    ;}
	.st2{opacity:0.6;fill:#DA5B4D;enable-background:new    ;}
</style>
<path class="st0" d="M377.7,38c-0.5-0.8,0.7-1.4,2.5-1.6c2.7-0.3,4.6,0.1,6.3,1.1c1.9,1.2,4.8,1.5,6.9,0.8c0.6-0.2,1.3-0.6,1.2-1
	c0-0.3-0.8-0.7-1.4-0.9c-0.5-0.2-1.4,0-2.1-0.1c-3.6-0.3-5.1-1.6-4-3.2c0.3-0.5,0.4-1,0.6-1.7c-5,0.1-9.6,0.2-14.1,0.3
	c-1.6,0-2.8,0-2.9-0.9c3-1.5,6.7-1.7,10.9-1.5c3.2,0.2,6.3,0.3,8.6,1.5c1.4,0.8,3.3,0.8,5.2,0.3c-0.7-0.1-1.2-0.4-0.5-0.7
	c0.7-0.4,1.5-0.7,2.2-1.1c-0.5-0.1-0.8-0.4-0.3-0.7c0.2-0.1,0.4-0.2,0.6-0.3c-0.5-0.1-0.9-0.2-1.3-0.4c-0.6-0.2-0.6-0.6,0-0.8
	c0.4-0.1,0.8-0.2,1.1-0.3c-2-0.2-4-0.5-5.9-0.8v-0.7c2-0.3,3.9-0.5,7-0.9c-3.8-0.9-6.5-1.9-9.6-2.2c-3-0.3-6.3,0.1-9.5,0.1
	c-0.2-0.1-0.4-0.3-0.5-0.4c2.1-1.1,4.2-2.2,6.6-3.4c-1.2-0.1-2.1-0.3-2.7-0.2c-2.7,0.4-5.1,0.3-7.7-0.2c-0.9-0.2-2-0.1-3.1-0.1
	c-0.4,0-0.8,0.3-1.1,0.4c0.5,0.7,0.9,1.3,1.6,2.4c-3-0.3-5.1-0.8-7.2-0.8c-2.4,0-4.7,0.5-7.1,0.7c-1.9,1.6-1.9,1.6-5.6,2.1
	c-4,0.6-8.2,1-12,1.7c-3.5,0.7-6.7,0.7-10.2,0.2c-1.4-0.2-3.3-0.5-4.5-0.2c-4.4,0.9-8.5,0.7-12.3-0.2c-4.5,1.1-8.6,2.1-12.9,3
	c-1.2,0.2-3-0.1-4.4-0.4c-6.1-1.1-12.6-0.8-18.8-1.2c-0.7,0-1.5,0.5-2.3,0.5c-1.3,0-3.1,0.1-3.9-0.2c-3.5-1.4-6.8-3-10.2-4.5
	c-1.6-0.7-2.9-1.6-4.7-2.3c-1.6-0.6-5.1-0.4-5.8,0.2c-1.1,1,0.1,1.7,1.8,2.2c2.9,0.9,5.9,1.7,8.9,2.5c1,0.3,2.1,0.6,2.8,1
	c3.8,2.4,8.4,4.5,13.3,6.4c2.2,0.9,1.9,1.7-0.9,2.1c-6.1,0.9-11.9,2.7-18.8,1.4c-0.6-0.1-1.5,0-2,0.2c-1.5,0.4-1.8,0.9-0.5,1.5
	c2,0.5,4.3-1.3,6.3,0.3c-0.6,0.8-1.2,1.7-1.9,2.9c-1.7-0.3-2.8-0.5-4.8-0.9c2.7,2.4,1,3.7-2.6,4.9c-2.7,0.9-5.5,1.9-7.4,3.7
	c5.2-0.6,8.9,0,12.3,1.4c1,0.4,3,0.6,4.3,0.5c3.8-0.3,7.6-0.8,11.4-1.1c2-0.2,4.1-0.1,6.2-0.4c3.4-0.3,5.9,0.6,8.8,1.4
	c0.5-0.5,0.9-0.9,1.1-1.2c0.2-0.4,0.2-0.9,0.4-1.6c7.1,1.4,13.9,2.5,21.2,1.5c0.9,0.7,1.6,1.3,2.7,2.3c1.5-2.4,4.9-3.2,9.2-3.4
	c1.2-0.1,2.6-0.3,3.3-0.7c3.9-2,9-1.4,13.5-1.7c0.8,0.6,1.3,1,2,1.6c7.3-2.4,14.7-2.8,22.4-0.8c1,0.3,2.4,0.3,3.6,0.4
	c8.2,0.3,16.5,0.5,24.7,0.7c0.2,0,0.5-0.2,0.9-0.4c-1.5-2.2-8.1-0.8-9.4-2.5c-2.7,0-4.7,0.1-6.7,0c-2.1-0.1-4.1-0.4-6.1-0.7
	c-2-0.2-4-0.4-6.8-0.7c0.7-1.1,0.7-2.4,1.9-2.7c2.8-0.8,4.5,0.6,6.4,1.4c5.2-1.4,10.1-0.6,14.8,0.3c3.7,0.7,6.5,0.2,8.4-1.4
	c-4.9-0.4-9.8-0.8-14.7-1.2C379.4,39,377.9,38.4,377.7,38z M276.7,29.3c-0.6,0.1-1.3-0.2-2.4-0.3c1.6-0.6,2.1-0.8,2.6-1
	c0.4,0.2,1.1,0.5,1.1,0.7C277.9,28.9,277.3,29.2,276.7,29.3z"/>
<path class="st1" d="M260.3,151.8c-2.3-1.7-7-0.8-6.7-4.2c1.7,0.3,3.2,0.5,4.7,0.7c-0.7-1.7-1.3-3-1.8-4.4c-0.6-1.6-1.5-2.7-4.2-2.8
	c-1.3-0.1-2.6-0.5-3.9-0.8c-2.6-0.6-5.3-1.6-7.9-1.6c-9.1-0.2-18.2-0.2-27.4-0.2c-2.4,0-4.9-0.1-7.3,0.2c-2.1,0.2-4,0.9-3.4,3
	c0.2,0.6-0.6,1.9-1.5,2.1c-3.5,1.1-4.6,3.3-5.7,5.5c-0.3,0.7-0.6,1.6-1.4,1.9c-1,0.5-2.6,0.9-3.7,0.7c-1.4-0.2-2.1-1.2-1.3-2.4
	c0.6-0.8,1.4-1.9-1.1-2.4c-0.4,1-0.8,2-1.4,3.3c-2.3-0.7-4.4-1.3-7.4-2.3c3.2-1.2,5.4-2,7.7-2.8c-1.8-1.8-3.4-3.6-5.2-5.2
	c-0.4-0.3-1.2-0.6-1.8-0.7c-3.4-0.2-6.3-2.1-10-1.5c-1.2,0.2-2.7-0.3-4.1-0.6c-3.1-0.7-6.2-1.6-9.3-2.3c-4.1-1-8.2-2.1-12.5-2.8
	c-5.1-0.9-9.9-2.8-15.8-1.8c-3.1,0.5-7.3-0.8-8.5-3.4c-1.1-2.3-3.3-3.1-6.1-3.4c-4-0.5-8-1.1-12-1.4c-1.9-0.1-4.6,0.1-5.8,0.9
	c-1.7,1.2-6.1,1.2-4.7,4.1c0.1,0.2-0.4,0.6-0.7,0.8c-2.8,1.9-5.6,3.7-8.6,5.7c1.7,1.1,2.9,1.8,3.8,2.4c-0.8,2.4-1.5,4.5-2.2,6.6
	c-0.5,1.7-1.6,2.6-4.3,2.5c-2.6-0.1-5.1,0.1-5.4-2.5c1.3-0.5,2.6-0.9,4.5-1.6c-5.2-1.6-9.9-3-14.5-4.5c0.1-0.2,0.2-0.4,0.3-0.7
	c1.6,0.1,3.1,0.3,5.8,0.5c-3.1-1.5-5.3-2.6-7.8-3.8c-2.3,2.5-4.6,4.8-2.9,7.7c-3.5,2-6.7,3.9-9.5,5.5c-0.1,3.9,5,7,0.6,10.4
	c2.9,2.4,8.7-0.1,10.5,3.5c-3.8,0.2-4,0.3-5.6,1.6c-1.5-0.5-3-0.9-4.9-1.5c0.3,1.3,0.8,2.2,0.5,3c-0.3,0.9-1.4,1.6-2.2,2.4
	c0.8,1,1.5,1.9,2,2.6c-1.3,2.1-2.5,4-3.7,5.9c-1-0.1-2.4-0.2-3.7-0.3c-0.1,0.2-0.2,0.4-0.2,0.6c1.5,0.9,3.1,1.7,4.4,2.5
	c-1.5,1.2-3.9,2.1-3.9,3.1c0,2.3-0.4,5.3,2.5,6.7c2.5,1.2,6.4,1.8,9.4,1.5c3.4-0.4,6.7-0.1,9.2,0.9c3.2,1.3,6.3,1.2,9.5,1.5
	c2.8,0.2,5.5,0.6,8.3,1c3.5,0.5,6.9,1.5,10.3,1.5c5.5,0.1,10.3,1.3,15,3c5.6,2,11.4,4,18,1.9c0.3-0.1,0.7,0,1.1,0.1
	c0.1,0.4,0.3,0.9,0.4,1.2c5.3,0.3,10.6,0.6,16,1c0.8-1.8-0.6-2.4-2.6-2.4c-6.2,0-12.2-1-18.2-2.1c-8.1-1.5-16.4-2.7-24.6-4.1
	c-1-0.2-1.9-0.5-2.8-0.8c3.6-0.2,7-0.2,10.4,0.3c5.8,0.7,11.6,1.6,17.4,2.6c8.1,1.4,16.3,1.8,24.6,1.7c4-0.1,8,0.6,12,1.1
	c1.7,0.2,2.2,1.1,0.5,2.3c-3.6-1.1-7-1.3-9,1.3c1.9,2.2,3.5,4.2,5.3,6.3c2.1-1,3.6-2.6,6.3-1.1c0.6,0.3,2,0,3-0.1
	c4.2-0.7,8.3-0.7,12.6-0.3c3.1,0.3,6.3,0,9.4,0.1c1,0,2.5-0.1,3.1,0.3c3.5,2.5,8.3,1.5,11.1,2.3c2.3-0.8,3.7-1.3,5.2-1.8
	c-3.6-0.5-7-1.7-10.6,0.1c-0.9-0.9-1.9-1.8-3.3-3.1c-2.3,2.7-5.8-0.8-8.4,1.2c-1.8-1.9-5.2-1.6-8.2-2.9c7.7-2,14.6-0.7,21.5,0
	c7.7,0.8,15.2,2.2,22.8,3.3c2.1,0.3,4.2,0.3,6.3,0.4c1.9,0.1,2.3-0.8,2.2-1.9c0,0-0.1,0-0.1,0.1c-0.1-0.1-0.1-0.1-0.2-0.1
	c-1.2-0.1-2.5-0.3-4-0.5c2.5-0.8,2.6-0.8,4,0.5c0.1,0,0.2,0,0.3,0l0,0c2.4-1,4.6-1.9,7.6-1.8c1.8,0.1,3.5-0.7,3.2-2.3
	c-0.4-2.1,1.4-2.6,3.7-2.8c2.7-0.2,4.7-0.9,5.5-2.8c-1.1-2.5-7-2.6-6.3-6.3c4.5,0.6,8.7,1.3,14,2c-1-1.9-1.3-3.1-2.3-4
	c-1.5-1.3-3.3-2.5-5.3-3.5c-2.2-1.1-1.5-1.9-0.1-3.2c1.5,0.5,2.8,0.9,4.2,1.3c0.9-2.4,0.8-2.9-1.9-3.3c-3.4-0.5-6.8-0.5-10.4-0.8
	c-0.3-1.6-0.6-3.2-0.8-4.6c3.2-1.8,6.4-3.5,9.7-5.3c-0.6-0.7-2.4-2.3-2.3-2.4c2.4-1.5-1.1-2.7-0.2-4.2c3.5-0.3,6.9-0.6,9.9-0.9
	c2.3-1.9,1-3.4-0.5-4.8C257.8,152.3,258.8,152.1,260.3,151.8z M63.3,187.1c-0.1-0.3-0.1-0.5-0.2-0.8c2.4-0.9,2.4-0.9,6.1,0.3
	C66.6,186.8,64.9,187,63.3,187.1z M63.2,164.7c0.6-0.4,0.8-0.6,1-0.6c1.5,0.2,2.9,0.4,2.4,2.1C65.4,165.7,64.3,165.2,63.2,164.7z
	 M69.2,162.2c1.7,0.7,3.4,1.1,4.3,2c0.8,0.8,0.8,2.1,1.1,3.1C69,167,68.5,166.5,69.2,162.2z M70.6,185.8c3.2-1.2,4.8,0.1,7.7,1.3
	C74.8,187.5,72.6,188,70.6,185.8z M73.8,157.1c0.7,0.8,1.3,1.5,2.3,2.6c-5.1,0.2-8.7-0.9-12.6-2.2c2.5-2.3,5-1,7.6-0.6
	c1.9-1.3,4.1-2.7,7.5-0.9C77,156.3,75.5,156.7,73.8,157.1z M89.1,189.6c-1.2-0.2-2.5-0.3-3.7-0.5c0.1-0.2,0.2-0.5,0.3-0.7
	c1.2,0.2,2.4,0.5,3.6,0.7C89.2,189.3,89.1,189.4,89.1,189.6z M186.4,156.5c-0.2-0.5-0.5-0.8-0.5-1.2c0-0.1,1-0.4,1.2-0.3
	c0.4,0.2,0.6,0.6,0.9,1C187.6,156.1,187.1,156.2,186.4,156.5z M75.7,137.6c-1.3-0.3-2.7-0.7-4-1c0.1-0.2,0.2-0.4,0.3-0.5
	c1.3,0.3,2.7,0.7,4,1C75.9,137.2,75.8,137.4,75.7,137.6z M100.6,196.1c0.9,0.2,1.9,0.3,2.8,0.5c-0.1,0.3-0.2,0.6-0.3,0.8
	c-0.9-0.2-1.9-0.5-2.8-0.7C100.4,196.5,100.5,196.3,100.6,196.1z"/>
<path class="st2" d="M588.4,157.3c-0.6,1-0.9,1.8-1.3,2.7c-0.4,0.8-1.8,1.9-0.3,2.1c0.7-1.1,1.2-2.1,2-2.9s2-1.1,3.5-1.8
	c-0.5-1.7,0.4-2.9,2-4.6c1.7-1.6,4-3.6,3.7-5.7c0-0.4,0.5-1.1,0.8-1.7c0.2,0.2,0.5,0.2,0.6,0.4c0.1,0.7,0.1,1.3,0.1,2.5
	c3.3-3,4.8-6.4,8.8-8.9c-0.6,1-0.8,1.6-1.3,2.3c-0.9,1.1-2,2.2-2.6,3.3c-2.4,4.5-5,9-9.3,13.1c-0.3,0.3-0.7,0.6-0.8,0.8
	c-0.5,2.3-2.8,4.3-4.5,6.2c-3,3.2-5.4,6.9-8.6,9.1c-0.9,1.6-1.2,3.1-2.3,4c-2.6,2.3-5.4,4.3-8.3,6.5c-0.8-1.5,1.1-4.1-0.9-4.8
	c-1.2,1.2-2.4,2.3-3.8,3.6c-0.4,0.4-0.9,1.1-0.9,1.3c0.6,1.3-0.6,1.9-2,2.9c-1,0.6-1.7,1.6-2.6,2.4c0.7,0.2,1.3,0.3,1.5,0.4
	c1.1-0.9,2.2-1.6,3.2-2.3c0,0.2,0.3,0.2,0.4,0.3c0.6-1.4,1.1-2.7,1.7-4c0.7,0.5,1.3,0.8,1.9,1.4c0.3,0.4,0.7,0.9,0.5,1.3
	c-0.8,1.5-1.9,3.6-3.2,4.4c-1.8,1.2-3.2,2.6-4.6,4c-0.2,0.1-0.3,0.3-0.7,0.7c0.8-0.2,1.4-0.3,1.8-0.3c0.3,1.3,0.5,2.5,0.7,3.8
	c-0.9,0.4-2,0.8-2.8,1.2c-0.2,0.6-0.5,1.2-0.6,1.9c-1.4,0.7-2.4,1-3.1,0.1c-0.3-0.4-1.1-0.3-1.7-0.4l-0.6,4.9
	c-1.8,0.6-3.7-0.5-5.1,2.2c0.1,0.4,0.6,0.7,0.6,1.2c-1.5,0.8-2.7,1.8-2.8,0.1c-0.1-1.3-1.2-1.1-2.5,0c-0.1,1.1-0.1,2.2-0.3,3.2
	c-0.3,1-1,2.1-1.5,3.1c-0.6,1,0.1,2.2-2,3.1c0.5-1.7,0.8-3.3-2-2.9c0.3,1.6,0.2,3.2,0.8,4.2c0.3,0.5,1.9-0.1,3.2-0.3
	c0.1,0.5,0,1.3,0.1,1.8c-0.4,0.3-0.7,0.4-0.9,0.4c-2.2-0.3-4.2,1.8-6.3,2.8c-0.2,0.1-0.6,0.6-0.7,0.8c0.5,1.1-0.7,1.6-1.5,1.9
	c-1.1,0.6-2.3,1-3.2,1.5c0,1,0.1,1.9-0.1,3c0.1,0.1-0.3,0.3-0.9,0.7c-0.2-0.5-0.3-1.2-0.4-1.6c-2.4,0.7-3.1,1.1-3.1,2.2
	c0.1,1.3,0.5,2.3,0.7,3.8c0.9-1.3,1.6-2.2,2.2-3.1c0.1-0.1,0.4,0,0.4,0c-0.2,1-0.4,2.1-0.8,3.6c-2.9,0.8-5.5,4.2-8.5,3.3
	c-0.3-0.1-1.3,0.7-2.4,1.3c1.3,1.1,2.4,2.1,3.8,3.3c0.6-1.3,0.9-2.2,1.5-3.2c1.9-1.2,4-2.7,6.7-4.3c-0.6,1.2-0.9,1.8-1.5,2.8
	c1.4-0.4,2.6-0.6,4-1.1c-0.5,0.6-0.7,1-1,1.5c1.2-0.1,2.4-1,2.7-2c0.5-1.4,1.8-1.8,2.9-2.2c0-0.5,0.2-1,0.3-1.5
	c0.8-1.4,2.6-2.2,3.4-1.7c1.4,1,2.1,0.8,3.6-0.8c0.8-0.9,1.6-1.8,2.4-2.7c2.5-0.4,4.9-1.5,6.6-3.4c2.2-2.6,4.8-4,7.4-5.2
	c1.6-0.7,3.3-1.5,4.7-2.7c1.9-1.8,3.5-2.6,5.1-1.7c0.6-2.3,2.6-4.6,5.1-5.5c1.6-0.6,2.7-1.4,3.8-2.6c2.9-2.8,6-5.6,9.1-8.1
	c1.5-1.3,1.8-1.2,2.1,0.3c1-0.1,0.7,0.8,0.5,1.5c2.1-0.6,3.9-1.5,5.6-3.4c-0.4,1.1-0.9,2-1.3,3.1c1,0.1,1.9,0.1,2.9,0.3
	c-0.5,0.6-0.7,0.9-0.9,1.3c-0.2,0.3-0.4,0.6-0.6,1c2-0.1,2.4-1.8,3.3-2.7c2.9-2.5,5.6-5.4,8-8.6c1-1.4,2.5-2.5,3.9-3.9
	c0.5-0.5,0.8-0.9,1.2-1.3c0.9-1.1,1.9-2.3,2.9-3.5c1.2-1.4,2.3-2.7,3.1-3.6c1.6-0.9,3-1.4,3.9-2.2c1.5-1.4,0.5-2.3-0.1-3
	c0.6-0.8,1-1.5,1.5-2.1c0.3-0.3,0.6-0.5,0.7-0.7c0.3,0.4,0.6,0.7,0.8,1c1.5-0.7,1.4-1.3,1.3-2.3c-0.3-1.7,0.8-3,3.3-4.3
	c0.2-0.4,0.1-0.7,0.2-1.1c1.3,0,2.5-0.2,4-0.3c-0.6-1.4,1.5-3.9-1.9-3.3c2.2-2.7,4.1-5.1,5.9-7.5c0.9-1.1,1.9-2.2,2.6-3.3
	c1.9-2.9,3.7-5.7,5.5-8.5c0.7-1,2.1-2.2,2.3-3c0.1-2.3,1.8-4.7,2.6-6.9c-0.1-0.1,0.3-0.3,0.6-0.5c0.5,0.1,1,0.2,1.4,0.3
	c2.8-2.2,0.5-3.5,1.9-5.5c0.8-0.2,1.7-0.5,2.9-0.8l0.7-7.2c0,0,0,0-0.1,0.1c0,0,0,0-0.1-0.1c-1.1,0-1.1-0.6-0.4-1.8
	c0.9,0.4,1.3,0.7,0.4,1.8l0,0l0,0c0.5-0.2,0.8-0.4,1.1-0.5c0.5-1.2,0.6-2.8,1.4-3.4c1.7-1.2,1.7-2.7,2.9-3.8
	c0.4-0.4,0.6-1.2,0.5-1.5c-0.1-0.2-1-0.1-1.3-0.1c0.1-1.5,0.3-2.6,0.4-4c0.1-1.2,0-2.3,0.2-3.5c0.1-1.2,0.9-1.9,2.1-1.9
	c0.5,0,0.9,0.2,1.5,0.1c0.8-2.1,0.8-2.1-0.2-3.5c-1.6-1.9-0.1-4.8,3.2-6.6c0.7-0.4,1.3-1.4,2.1-2.3c-2.3-0.1-3.2-1.6-2.5-3.2
	c1.7-4.1,1.8-7.7,1.9-11.4c0-0.7-0.1-1.2,0.1-1.8c1.1-3.1,2.2-6.2,0.5-8.4c0.9-0.4,1.5-0.6,1.9-0.9s0.9-0.7,1.2-0.9
	c-0.6-1.5-1.9,0.6-2.9,0.6c0.7-1.9,2.9-4,1.6-5.4c-0.6,0-1.2,0.1-2.2,0.2c2-1.7,1.7-3.3,1.3-3.9c-1.4-1.3-2.2-2.6-0.6-5.3
	c0.6-1.1,0.7-2.2,0.9-3.4c0.2-1,0.4-2.1,0.7-3.4c1.3-0.3,2.4-0.5,3.8-0.9c0.2-1,0.9-2.4,0.6-3.1c-0.8-2.5-2-4.7-3-7.1
	c-1.1-2.3-2-4.7-3.2-7.1c-1.3-2.4-2.7-4.9-4.3-7.2c-2.4-3.3-4.9-6.6-8.9-8.4c-2.5-1.2-5.7-1.6-7-4.1c-0.3-0.7-1.5-0.6-2.2-1.1
	c-1.8-1.2-5.6-0.8-5-4.3c-0.1-0.1-0.2-0.2-0.4-0.3c-2.4-0.3-3.3-1.9-4.4-3.3c-1.7-2-4.9-1.4-7.8-1.4c-0.5,0-1.6,0.9-2.3,1.5
	c-0.6,0.5-1.1,1.2-1.7,1.8c-1.4-0.1-2.7-0.2-4.1-0.2c-0.4,1.6-0.7,2.9-1.1,4.3c-0.2,0.5-0.7,1.3-1.1,1.5c-0.4,0.3-1.1,0-1.4-0.3
	c-1-2-3.3-2.7-6.2-2.8c-1.2,2.5-3.6,4-6,5.5c0,1.4,0,2.7,0.1,3.9c-0.2,0.1-0.4,0.3-0.6,0.3c-0.6-1.8-1.2-3.6-1.9-5.7
	c-0.8,1.3-1.5,2.2-2.3,3.4c-2.1-1.1-3.7-2.7-7.4-0.4c-0.1,3-0.1,6.1-0.2,9.2c0.1,0.1,0,0.2,0.1,0.2c0.2,1.1,0.5,2.3,0.4,3.5
	c-0.1,3.6-0.1,7.3-0.5,10.9c-0.3,2.3-1.1,4.9-2.5,7.5c-1.1,2.2-2.2,4.4-2.5,6.6c0,0.5-0.2,0.9-0.3,1.4c0.1,0,0.3,0,0.2,0.2
	c2.2,7.4,2.7,15.8,2.7,24.3c0.1-0.1,0.1-0.1,0.2-0.1c0.1,0.4,0.6,0.7,0.7,1.1c0.7,3.2,1.5,6.2,2.4,9.4c0.4,1.1,0.7,2.1,1.1,3.1
	c0.6,1.3,2.1,2.1,0.5,4.5c-0.2,0.4,0.1,0.7,0.1,1c0.6,2.5,1.3,5,1.9,7.5c-1.7,1.6-3.3,3.1-4.8,4.5c0.1,1.4-0.6,3-1.2,4.6
	c-0.7,1.4-1.1,2.7-1.5,3.9c0.3-0.5,0.9-1,1.3-1.5c1.6,1,1.5,1.4-0.7,3c0.3,0.7,0.5,1.4,0.8,2.5c-1,0.1-1.7,0-2.3-0.1
	c-0.3,2-0.6,3.9-1.5,5.8c1.9,0.3,1.5,2.4,3,3c0.7,0.3,0.9,0.9,1.4,1.4c1-2.4,2.9-1.1,4.4-3.1c-0.3,1.2-0.4,1.6-0.5,2.3
	c1.1,0,3.4-1.3,2.7,1.1c-0.2,0.1-0.5,0.2-0.8,0.4c-0.3,0.2-0.7,0.4-1.4,0.8c3.7-0.2,4.7-1.3,5.7-5.9c1.8,1.2,0.1,3.3-0.8,5.3
	c2.9-1.9,3.6-4.4,5.1-6.6c0.2,1.3-0.5,2.6-1.4,4c-0.9,1.3-2,2.9-2.2,4c-0.2,1.7-1,2.7-2.8,3.9c-1,0.6-2.3,1.1-2.1,2.5
	c1.5-0.5,2.5-0.3,2.5,1.2c-2.8,3.1-3.2,7.2-7.6,9.6c-0.4,1.2-0.1,2.4-0.8,3.3C594.1,151.8,591.9,155.2,588.4,157.3z M532.6,234.6
	c0-0.2-0.4-0.3-0.3-0.6s0.2-0.5,0.6-1.2c0.1,0.7,0.4,0.9,0.3,1.1C533,234.3,532.8,234.4,532.6,234.6z M536.5,233
	c-1.5-0.2-1.5-0.9,0-2.3C536.5,231.6,536.6,232.1,536.5,233z M546.2,213.3c0.4-0.4,0.7-0.8,0.8-0.8c0.4,0,0.7,0.1,0.9,0.2
	c-0.2,0.3-0.5,0.6-0.6,0.9C546.9,213.6,546.6,213.5,546.2,213.3z M601.4,196.7c-0.3,0.3-0.7,0.8-0.9,0.9c-0.2,0.1-0.6-0.1-1.2-0.3
	c0.6-0.5,0.9-0.8,1.1-0.9C600.8,196.5,601,196.7,601.4,196.7z M592.7,200.2c-0.4-1.5,0.9-2.1,1.7-2.8c0.3,0,0.3,0.2,0.5,0.2
	C594.4,198.2,593.7,199,592.7,200.2z M598.6,196.2c-0.2,0.4-0.6,0.9-0.8,1.3c-0.3,0-0.5-0.1-0.6-0.2c0.3-0.5,0.7-1,1.1-1.4
	C598.2,196.1,598.5,196.1,598.6,196.2z M553.8,212L553.8,212c0,0.1,0,0.1,0,0.1c0.3,0.7,0.5,1.4,0.8,2c-3.4,3.3-5.9,4.1-8.6,2.7
	c2.1-2,3.6-1.7,5.2-1.2c0.9-1.2,1.8-2.4,2.5-3.5l-0.1-0.1C553.7,212,553.8,212,553.8,212c0.5-0.6,1-1.2,2-2.5
	C555.7,211.3,554.6,211.6,553.8,212z M566.1,202.9c-0.6,0.5-0.7,0.7-1.2,1c0-0.2-0.4-0.3-0.4-0.4c0.1-0.3,0.3-0.5,0.6-0.7
	C565.5,202.7,565.6,202.8,566.1,202.9z M625.3,169.2c0.1,0.7,0.5,1.2,0.3,1.9c-0.3,1.3-2.9,3.8-4.5,5c1.2-2.3,2.4-4.5,3.5-6.6
	L625.3,169.2z M575.2,185.7c-1.2,2.9-3.9,4.1-6.7,5.8c0.3-3.2,4.9-3.2,4.4-6C574.2,185.5,574.7,185.6,575.2,185.7z M586.5,171.6
	c-0.6,0.9,0.1,1.9-1.9,2.9c-1.3,0.6-1.3,2.8-3.7,2.7c2-2.2,3.6-4,5.2-5.7C586.2,171.5,586.4,171.6,586.5,171.6z M590.3,166.8
	c-0.2,0.4-0.3,0.8-0.5,1.1c-0.2,0.3-0.7,0.6-1,0.8c0-0.2-0.2-0.2-0.3-0.4c0.5-0.6,1.1-1.2,1.6-1.8
	C590.1,166.7,590.1,166.8,590.3,166.8z M600.6,30.8c0.1-0.9,0.4-1.9,0.7-2.9c0.2-0.1,0.3-0.1,0.6-0.2l-0.4,2.8
	C601.4,30.6,601.1,30.7,600.6,30.8z M602.9,140.6c0.5-0.5,0.9-0.7,1.4-1.2c0,0.2,0.4,0.3,0.3,0.4c-0.4,0.4-0.9,0.8-1.2,1.3
	C603.3,140.9,603,140.8,602.9,140.6z M455.1,265c0.8-1.5,0.5-3.1,2.3-4.6c0-0.1-0.5-1-0.7-1.6c-0.5,0.5-0.8,0.9-0.7,1.1
	c0.2,0.8-0.3,1.3-1.3,1.6c-1,0.3-1.2-0.2-0.9-1c0.2-0.7,0.8-1.5,1.2-2.3c3.2-0.2,6-0.2,8.5,0.3c0,0.3-0.2,0.5-0.1,0.7
	c-1.3,0.6-2.4,1.3-3.8,1.9c2,0.1,3.9,0.2,6.1,0.2c-0.1-0.7-0.2-1-0.2-1.5c0-0.4,0.2-0.9,0.2-0.9c1.6-0.5,3-1.1,4.3-1.4
	c1.3-0.3,2.6-0.6,4.1-0.9c-0.5-0.9-0.8-1.6-1.1-2.2c-0.6,0.5-1.1,0.9-1.9,1.3c-0.3-2.5-3.8,0-4.7-1.6c-0.5,1.1-0.8,1.6-1.1,2.2
	c-1.1,0.1-2.1,0.2-3.2,0.4c-2.8,0.3-3.1-0.5-1-3.7c2-0.2,4.1-0.2,6.2-0.6c2.2-0.4,4.7-1.2,7.1-1.7c1.2,1.7,1.6,1.6,3.7-0.1
	c0.8-0.7,1.7-1.3,2.7-1.7c1.4-0.7,2.8-0.8,4.2-1.5c3.6-1.6,7-2.7,10.4-2.7c0.4-1.1,0.9-2.2,1.6-3.6c-3.3,1.2-5.8,0-9.3,2
	c-1.3,2.7-1.5,2.9-3.6,3.7c-2.4,1-4.8,1.8-5.5-0.6c-3.5,3.2-6.4,3.3-9.5,3.6c-1.9,0.2-3.7,0.1-5.6,0.8c-2.9,1.3-4.5,0.3-6.7,0.2
	c-0.4,0-0.4-0.7-0.7-1.1c3.7-1.3,6.7-1.4,9.6-1.5c1.1,0,2.7,0,3.3-0.5c1.2-1.1,2-1,2.9-0.8c0.9,0.2,1.7,0.4,3.1-0.4
	c-0.8-1.6-2.9-1.5-4.5-1c-3.2,1-5.4,0.6-7.4-0.5c-0.1,0-0.5,0.2-0.7,0.2c-1,2.9-2.7,4-5.2,3.2c-0.3,0-0.3-0.2-0.5-0.2
	c-0.5-0.6-1.1-0.6-2.3,0c-1.1,0.6-2.3,0.7-3.5,0.8c-4.2,0.5-8.6,1.1-12.8,1.5c-6.9,0.7-12.4-1.1-18-2.5c-0.3-0.1-0.4-0.7-0.5-1
	c1.7,0,2.9,0.5,4.3,0.8c1.4,0.3,2.9-0.1,5-1.2c-1.2,0-2-0.2-2.9-0.3c-1.9-0.3-3.7-0.4-5.5-0.7c-3.7-0.7-7.8-0.8-11.3-1.8
	c-6-1.8-11.7-4.1-17.3-6.5c-7.3-2.9-14.4-5.9-20.5-10.3c-0.9-0.6-2.2-0.5-3.8,0.2c0.4,0.6,0.6,1,1,1.3c4.6,5.9,11.7,9.4,17.9,13.9
	c1.6,1.2,3.7,2.1,5.5,3c2,1.1,3.9,2.1,5.6,3.2c1.8,1,3.3,2,4.9,3c2.1,1.1,3.9,2.4,6.1,3.5c1.8,0.9,3.4,2.1,5.5,2.3
	c2.6,0.2,4.1,1.6,6.4,2.2c0.7,0.2,1.1,1.1,1.3,1.8c0.5,2,2.4,2.7,4.6,3.2c-0.4-1.6-0.8-2.8-1.1-4.4c1-0.3,2-0.8,2.5-0.9
	c2.6,0.4,4.7,1.3,4,4.6c3.3-0.9,5.2-0.2,5.7,2.2c0.2-0.1,0.4-0.3,0.6-0.3c0.3-1.4,0.8-2.7,1.3-4.5c1.8,0.1,3.1,0.3,4.5,0.4
	c1.1,0,1.8,0.2,1.5,1.4c-0.3,1.5,0.7,1.7,2.4,2c-0.4-1.2-1.7-1.7,0.1-3.5c0.1,1.3,0.9,1.6,2.5,1.3c1.1-0.2,2.2,0.5,2.7,1.1
	c0.4,0.3-0.3,1.5-0.6,2.2C454.3,266.7,454.7,265.8,455.1,265z M452,250.8c0.3-0.3,0.3-0.5,0.6-0.6c0.1-0.1,0.4,0,0.5,0.1
	c0,0.2-0.2,0.4-0.3,0.9C452.3,250.9,452.1,250.9,452,250.8z M452,257.8c-1.9-0.8-5.3,0.4-6.3-1.6c3.1-0.3,6.7-1.4,8.5,0.9
	C453.2,257.3,452.3,257.9,452,257.8z M456.1,256.1c0.2-0.1,0.6-0.5,0.8-0.7c0.3,0.4,0.6,0.6,0.8,1c0,0-0.5,0.5-0.7,0.6
	C456.5,256.8,456.3,256.4,456.1,256.1z M450.5,261c-0.1-0.2-0.1-0.6,0-1.1c1.4-0.3,1.7,0.2,1,1.7C450.8,261.3,450.5,261.3,450.5,261
	z M548.6,204.6c-2.3-0.6-4.6,0.4-9,4.3c0.5-1.2,0.6-2.3-1-1.8c0.2-0.5,0.4-1.1,0.8-2c2.1,1.1,4.1-0.6,6.3-1.8c2.3-1.2,4.4-2.3,7-3.7
	c0.1-0.8,0.2-1.7,0.2-2.9c-0.7,1.1-1.3,2-2.1,3.1c-0.4-0.8-0.6-1.3-1-2.1c-1.3,1.1-2.5,2-3.8,3.1c0.2-0.7,0.5-1.6,0.8-1.8
	c2.7-1.4,5.5-2.8,7.9-4c0.9,1.8,1.7,3.3,2.5,4.8c0.5,0.4,2.5-1.7,2.6-0.1c-1.3,0.8-2.4,1.5-3.8,2.4l0.1-0.1c-0.7-0.5-1.4-1-2.4-1.6
	c-0.6,0.3-2,1-3.1,1.6c-0.4,1.6-0.7,3-1,4.7c-1.1,0.1-2,0.2-3.5,0.3C546.9,205.9,547.8,205.2,548.6,204.6z M471.7,269.6
	c-0.7,0.4-1.7,0.9-3.1,1.6c-0.4-2.3-0.7-4.4-3.3-4.8c-0.3,0-0.3-0.1-0.6-0.1c-1-0.6-3,0.8-3.8-0.4c-0.5-0.8-1.9-1-3.1-1.5
	c1.6-1.5,3.5-1.4,4.1-0.9c1.4,1.4,3.8,0.7,5.9,0.7c1.4,0,2.4-0.1,3.2,1c0.7,1,2.5,1.1,3.8,1.5c-0.1,0.3-0.2,0.4-0.4,0.7
	c-1.1-0.1-2.2-0.1-3.3-0.2C468.8,269.2,472.4,268.2,471.7,269.6z M646.6,154.6c-0.8,0.9-1.5,1.9-2.3,2.4c-0.6,0.3-1.5-0.2-2.1,0.7
	c-0.5,0.8-0.6,1.7-1,2.6c2.3-1.2,3.6-1,3.4,0.5c-0.1,0.9,0.1,1.4,0.9,1.7c0.3,0.1,0.3,0.7,0.3,1c0.8,0.1,1.4,0.3,2.3,0.4
	c0.2-0.6,0.5-1.4,0.5-1.5c-1.4-0.4-0.6-1.4,0-2.5c0.6-1.2,1.6-2.4,2.5-3.9c-2,0.8-3.5,1.4-5.1,2
	C646.3,156.8,647.6,155.6,646.6,154.6z M647.3,159.2c0,0.2-0.2,0.6-0.4,0.8c0,0.1-0.4,0-0.9,0.1c0.2-0.3,0.4-0.7,0.6-0.8
	C646.7,159.1,647.2,159.2,647.3,159.2z M511.7,249.7c2.3-3,4.7-3.7,6.2-2c0.6,0.5,1.8,0.6,2.7,0.9c-0.1,0.3-0.2,0.4-0.2,0.5
	C517.5,249.5,513.4,252.9,511.7,249.7z M577.9,171.9c-0.1,0.9-0.4,1.9-0.7,2.9c-1.1,0.6-2,1.1-3.3,1.8c1.3-3.6,4.3-6.2,7-9.2
	c1.5,0.7,1.2,1.9,0.5,3.2C580.3,172.4,579.1,171.1,577.9,171.9z M485,262.4c-0.1,1.6,0.1,3.1,1.9,3.3c-2.4,2.8-2.4,2.8-4.6,2.2
	c0.9-0.7,1.6-1.3,2.6-2c-0.9-0.4-1.7-0.5-2.6-0.9C483.3,264.1,484.2,263.2,485,262.4z M516.2,242.1c-0.4-0.3-0.8-1.1-0.4-1.8
	c0.2-0.5,1.3-1.5,2-1.7c0.9-0.4,1.8-0.3,3.6-0.6c-1.3,1.5-2,2.5-3.1,3.4C517.7,241.9,516.5,242.2,516.2,242.1z M645.7,163.5
	c-0.5,0.7-1,1.5-1.3,2.1c-1.4,0.7-2.8,0.3-4,2.1c-0.2,0.4-2.1,0.8-3.8,1.3C639.5,166.4,642,163.5,645.7,163.5z M476.5,266.2
	c0.7-1,1.3-2,2.1-3.3c0.2,2.2,3.1,2.1,2.1,5.3C479.2,267.4,477.9,266.9,476.5,266.2z M534.5,208.9c1.3-0.6,2.7-1.2,3.9-1.9
	c-2.1,2.3-4.3,3.4-6.8,4c-0.9-1.3-1.5-2.6-2.3-3.7c0.8,0.2,2.1-0.4,2.1,0.9C531.4,209.5,532.5,209.8,534.5,208.9z M512.5,233.3
	c1-1.9,2.1-3.7,2.9-5.4c0.1-0.1,0.3-0.1,0.5-0.2c0.1,1.6,0.2,3.3,0.4,5.2C514.6,233.1,513.5,233.2,512.5,233.3z M592.8,135.6
	c-3.3,0-3.3-1.8-2.9-4.4C592.2,131.8,591.6,134.1,592.8,135.6z M680.4,67.9c-0.2-1.8-0.4-3.2-0.6-4.7c2.7-0.8,2.3,1,2.7,2.2
	C682.6,66.4,681.6,67.2,680.4,67.9z M482.3,259.6c0.9-1.1,1.6-1.9,2-2.5c0.6,0.5,1,0.9,1.6,1.1c0.8,0.1,1.8-0.1,1.4,1.3
	C485.8,259.6,484.2,259.6,482.3,259.6z M601.4,138c-1.5,1-2.4,1.6-3.6,2.3c-1.9-0.1-1.3-2.2-2.2-3.8c0.8,0.2,1.6,0.1,2,0.3
	C598.9,138.4,598.7,138.4,601.4,138z M676.4,89.8c-0.6,1.8-0.9,3.2-1.3,4.4c-1.2,1-2.3,2.1-3.3,3.1c-0.3,0-0.3-0.1-0.6-0.1
	C672.9,94.9,674.5,92.7,676.4,89.8z M506.1,234.9c-0.6,0.1-1.2,0.3-2.3,0.4c1-0.9,1.6-1.4,2.3-1.9c0.7,0.2,1.4,0.6,2.1,0.3
	c0.6-0.2,1.1-1.3,1.6-0.2c-1.7,1.1-3.4,2.2-5,3.2c-0.1,0-0.1-0.2-0.2-0.2C505,236,505.5,235.6,506.1,234.9z M591.6,202.5
	c-0.1,0.7-1.4,2,0.5,1.5c-0.5,0.6-0.9,1.2-1.4,1.9c-1.1-0.1-1.9-0.3-2.7-0.4C589.1,203.2,589.5,202.9,591.6,202.5z M524.2,227.5
	c0.1,0.5,0.3,1,0.5,1.5c-0.2,0.1-0.6,0.5-0.8,0.7c-0.3-1-2.7-0.3-1.8-2.2c0.3-0.6,1.4-1.3,2.5-2.2
	C524.4,226.3,524.1,226.9,524.2,227.5z M631.9,171.9c-0.4,1.1-1.7,2.4-2.6,3.6c-0.3,0-0.3-0.1-0.6-0.1c0.8-1.6,1.7-3.2,2.4-4.8
	c0.2-0.5,0.2-1.1,0.4-1.6C633.2,169.4,632.4,171,631.9,171.9z M653.2,147.5c0.8-0.1,1.8-0.3,3.3-0.4c-0.9,1-1.3,1.7-2,2.5
	C653.6,149.1,652.1,149.2,653.2,147.5z M635.5,171c0.5,0.5,0.6,1,0.9,1.4c-0.7,0.5-1.3,0.9-2.1,1.4c-0.5,0.3-1.2,0.8-2.2,1.5
	C632.7,173.4,634.1,172.4,635.5,171z M651.9,143.8c-1.3,2-2.1,3.4-3.1,5.1C648,146.7,648.2,146.3,651.9,143.8z M587.2,139.3
	c-0.5-0.1-0.8-0.3-1.2-0.4c1.4-1.6,3-2,3.1-1c0.3,0.6-0.5,1.4-1.4,1.7C587.6,139.4,587.2,139.4,587.2,139.3z M545.5,198.3
	c-3.6,2.8-3.7,2.8-3.8,0.8C542.8,199,543.8,198.8,545.5,198.3z M526.2,222.1c-1.4,0.4-2.6,0.6-4,1
	C525.2,220.6,525.2,220.6,526.2,222.1z M532.5,214.9c0.5-1.4,0.9-2.4,1.4-3.9c0.6,0.9,0.9,1.6,1.3,2.3
	C534.6,213.8,533.9,214.2,532.5,214.9z M488.2,261.1c0.5,0.4,0.9,0.9,1.6,1.6c-2.1,0.8-3,0.9-3-0.3
	C487,262.2,487.7,261.7,488.2,261.1z M677.5,54.2c-0.1-1-0.2-1.8-0.3-2.9c0.7-0.2,1.1-0.3,2.2-0.7C678.5,52,679.3,52.9,677.5,54.2z
	 M539.8,213.2c0.9-0.7,1.9-1.3,3.1-2.2C542.3,212.8,542.3,212.8,539.8,213.2z M596.4,205.2c-1.2,1-2.3,2-3.5,3.1
	C593,207,593.8,206.2,596.4,205.2z M667.7,117.6c0.3-0.2,0.5-0.3,1-0.6c1.2,0.2,1.3,0.9,0.2,3C668.3,118.8,668.1,118.2,667.7,117.6z
	 M555.5,193.3c-1.1,0-2.2,0-3.3,0.1C554.3,191.8,555.3,191.7,555.5,193.3z M679.6,58.4c-0.3-1-0.7-1.9-1.2-3.3
	C680.2,55.6,680.7,56.5,679.6,58.4z M539.2,211.3c1.6-1.9,1.6-1.9,3.4-1.5C541.6,210.2,540.6,210.6,539.2,211.3z M506.7,239.1
	c-1.1,0-1.8,0-2.7,0C506.2,237,506.2,237,506.7,239.1z M537,220.5c-0.1-0.1-0.1-0.1,0-0.2C537.1,220.3,537.1,220.3,537,220.5
	L537,220.5c0.9,0.4,0.9,0.4,0.1,1.9c-0.6,0-1.3,0-1.9,0c0-0.1,0.2-0.4,0.2-0.4C536,221.3,536.4,221,537,220.5z M637,176.8
	c0,0.2-0.2,0.4-0.2,0.6c-0.8,0.2-1.5,0.4-2.5,0.7C635.3,176,636.2,176.6,637,176.8z M634.5,176c0.9-1.5,1.4-2.2,2-3.2
	c0.4,0.4,0.7,0.9,1,1.4C636.6,174.8,635.9,175.2,634.5,176z M556.9,228.5c0.6-0.7,1.5-1.4,2.2-2.2C559,228.1,559,228.1,556.9,228.5z
	 M527.1,228.5c0.6-0.9,1.2-1.7,1.9-2.7C529.6,227.4,529.6,227.4,527.1,228.5z M455.7,274.8c-0.1-1-0.2-1.7-0.3-2.3
	c0.2-0.1,0.4-0.3,0.7-0.4C457,272.6,457.6,273.1,455.7,274.8z M680.7,70.7c0.2-0.1,0.3-0.3,0.8-0.7c0.9,0.2,0.7,1.3,1,1.8
	c-0.2,0.1-0.3,0.3-0.6,0.5C681.5,71.9,681,71.3,680.7,70.7z M640.1,162.1c-0.6,0.9-1.4,2-1.9,2.9c-0.2-0.2-0.6-0.1-0.7-0.2
	c0.7-1,1.4-1.9,2.1-2.9C639.8,161.9,640,162,640.1,162.1z M592.2,145.9c0.6,0.5,1.1,0.9,2,1.8C592.3,147.9,592.3,146.8,592.2,145.9z
	 M481.5,251.1c0.1,0.5,0,1,0,1.6c0,0-0.5,0.3-0.5,0.2c-0.3-0.4-0.6-0.7-0.7-1.1C480.7,251.4,481.1,251.4,481.5,251.1z M636.4,172.8
	c-0.1-0.1,0-0.3,0-0.4c1.1-1,2-2.1,3-0.8C638.5,172.5,637.4,172.6,636.4,172.8z M523.6,211.5c-0.5-0.1-0.9-0.4-1.4-0.5
	c0.3-0.3,0.5-0.6,0.7-0.9c0.5,0.2,0.8,0.4,1.2,0.6C524.1,210.7,523.8,211.1,523.6,211.5z M495.9,247.7c1.2-1,1.7-1.5,2.7-2.3
	C498.4,247.1,497.6,247.4,495.9,247.7z M512.4,261.7c-0.3,0-0.4,0-0.7-0.1c0.2-0.5,0.4-1.1,0.7-1.7c0.4,0,0.7,0.1,0.8,0.1
	C513.1,260.6,512.8,261.1,512.4,261.7z M496.7,263.5c0.8-0.3,1.5-0.6,2.1-0.8c0,0.2,0,0.4,0,0.7c-0.8,0.3-1.4,0.5-2.2,0.8
	C496.6,263.8,496.6,263.6,496.7,263.5z M586.9,209.5c-1.1,1-1.6,1.5-2.3,2.1C584.4,210.3,585.1,209.9,586.9,209.5z M526.6,209.7
	c0.3,0.7,0.6,1.4,0.9,2.4C525.5,212.2,526.6,210.7,526.6,209.7z M598.1,130.9c-1-0.1-1.6,0-2.3-0.1C597,129.7,597,129.7,598.1,130.9
	z M498.4,252.6c0.2-0.5,0.2-1,0.4-1.6c0.2-0.1,0.5-0.2,0.7-0.2c0,0.3,0.1,0.6-0.1,0.9c-0.1,0.3-0.4,0.6-0.5,0.8
	C498.8,252.5,498.7,252.6,498.4,252.6z M514.4,246.1c-0.1,0-0.3-0.1-0.5-0.1c0.5-0.7,0.9-1.3,1.5-2c0.2,0.2,0.3,0.2,0.5,0.3
	C515.4,244.9,514.9,245.5,514.4,246.1z M467.8,274.8c0.1-0.6,0.1-1.1,0.2-1.7C469.6,273.3,469.6,273.3,467.8,274.8z M478.2,268.9
	c0,0.2-0.2,0.5-0.1,0.7c-0.5,0-1.2,0.3-1.8,0.4c0-0.3,0.2-0.5,0.1-0.7C477,269.1,477.7,269,478.2,268.9z M680.3,102.2
	c0.1,0.8,0.3,1.3,0.5,2.2C679.3,104.3,679,103.7,680.3,102.2z M523.8,235.8c0-0.3,0-0.4-0.1-0.7c0.6-0.3,1.3-0.6,2-0.9
	c0,0.2,0.2,0.3,0.1,0.5C525.2,235.1,524.4,235.4,523.8,235.8z M652.6,153.4c0.3-0.8,0.6-1.7,0.9-2.4c0.2-0.1,0.4,0,0.5,0
	c-0.1,0.7-0.4,1.6-0.5,2.3C653,153.3,652.8,153.3,652.6,153.4z M656.7,135.3c0.3-0.9,0.7-1.8,1-2.7c0.3,0,0.4,0,0.6,0
	c-0.4,1-0.9,2-1.2,2.9C657,135.4,656.9,135.4,656.7,135.3z M583.1,142.2c0.5-0.6,0.9-1.3,1.9-2.4C585,141.7,584.2,142,583.1,142.2z
	 M675.4,94.2c0.5-0.3,1.3-0.8,1.8-1.2c0.6,0.9-0.5,1.5-1.3,1.9C675.7,95,675.6,94.3,675.4,94.2z M590.7,126.6c0,0.1-0.9,0.1-0.8-0.2
	c0-0.4,0.4-0.8,0.8-1.4c0.5,0.2,1.1,0.3,1,0.4C591.4,125.9,591,126.3,590.7,126.6z M533.2,245c-0.1-0.1,0.3-0.5,0.6-0.9
	c0.4,0.3,0.6,0.4,0.6,0.6c0,0.2-0.3,0.5-0.7,0.8C533.7,245.3,533.4,245.2,533.2,245z M458.8,269.6c-0.2,0.1-0.5,0.5-0.7,0.6
	c-0.3-0.4-0.7-0.6-1-0.9c0.2-0.1,0.4-0.4,0.5-0.5C458.1,269,458.3,269.4,458.8,269.6z M509,252.3c0-0.4-0.2-0.8-0.2-1.3
	c0.3-0.1,0.5-0.2,0.9-0.4c0,0.5,0.1,0.9,0,1.4C509.5,252,509.2,252.2,509,252.3z M530.9,245.5c0.6,0.4,1.5,0.6-0.1,2.2
	C530.8,246.7,530.7,246.2,530.9,245.5z M671.7,106.4c-0.1-0.5,0-1,0-1.5c0.2-0.1,0.5-0.2,0.8-0.3c-0.1,0.6-0.2,1-0.1,1.5
	C672.3,106.2,671.7,106.4,671.7,106.4z M580.4,217.8c0.6-0.5,1.2-1,1.8-1.5c0.1,0,0.2,0.2,0.4,0.3c-0.5,0.5-1.2,1.1-1.7,1.6
	C580.7,218.1,580.6,217.9,580.4,217.8z M500.8,255.6c0.3-0.3,0.6-0.7,0.9-0.7c0.2-0.1,0.5,0.1,0.5,0.3c-0.3,0.3-0.5,0.6-0.7,0.6
	C501.3,255.9,501.1,255.8,500.8,255.6z M545.8,237.1c0.2-0.4,0.4-0.6,0.6-0.9c0.1,0,0.4,0,0.5,0.1c0,0.3-0.2,0.6-0.4,1.2
	C546.1,237.2,545.8,237.1,545.8,237.1z M537,220.3c-0.3-0.7-0.6-1.2-0.6-1.8C537.7,218.3,537.2,219.5,537,220.3z M629.6,185.8
	c0.2-0.5,0.4-1.1,0.7-1.6c0.3,0,0.4,0,0.5,0c-0.2,0.5-0.4,1.1-0.7,1.6C629.8,185.7,629.7,185.7,629.6,185.8z M455.2,268.6
	c-0.1,0.3-0.2,0.4-0.2,0.5c-0.5,0-1.1,0-1.7,0c0.1-0.3,0.2-0.4,0.2-0.5C454,268.6,454.7,268.6,455.2,268.6z M517.4,225.5
	c-0.3,0.3-0.5,0.6-0.8,0.8c-0.1,0.1-0.4,0-1-0.1C516.7,225.8,517,225.7,517.4,225.5z M536.1,218.4c-0.7,0.2-1.3,0.3-2.1,0.6
	C535.3,217.2,535.8,217.9,536.1,218.4z M432.4,270.6c-0.3,0-0.4-0.3-0.5-0.4c0.3-0.3,0.5-0.6,0.6-0.7c0.2,0.2,0.4,0.3,0.5,0.6
	C433.1,270.1,432.6,270.5,432.4,270.6z M640.1,159.2c0,0.2-0.4,0.6-0.6,0.6c-0.1,0.1-0.3-0.1-0.7-0.2c0.5-0.5,0.6-0.7,1-0.9
	C640,158.9,640.1,159.1,640.1,159.2z M516.9,237.1c-0.2,0.4-0.5,0.6-0.9,1.2c-0.1-0.4-0.3-0.6-0.3-0.7c0.1-0.3,0.3-0.5,0.7-0.8
	C516.6,236.9,516.9,237,516.9,237.1z M523.8,239.5c-0.1,0-0.2-0.2-0.2-0.2c0.3-0.3,0.9-0.7,1.3-1.1c0.1,0,0,0.2,0.2,0.2
	C524.5,238.8,524.1,239.2,523.8,239.5z M486.7,251c-0.1-0.1,0.1-0.3,0.2-0.4c0.5,0,0.9-0.1,1.5-0.2c-0.1,0.3-0.2,0.4-0.4,0.7
	C487.7,251,487.2,251,486.7,251z M506.7,251.4c0,0.5-0.1,0.9-0.1,1.3c-0.2,0.1-0.3,0.1-0.6,0.2c0-0.5,0.1-0.9,0.1-1.3
	C506.3,251.5,506.7,251.4,506.7,251.4z M443.8,264.2c0.1,0.1-0.3,0.5-0.5,0.5c-0.3-0.1-0.5-0.2-0.9-0.4c0.5-0.5,0.7-0.6,0.9-0.7
	C443.6,263.8,443.8,263.9,443.8,264.2z M589.8,128.1c-0.2,0.1-0.4,0.4-0.5,0.5c-0.4-0.3-0.6-0.5-0.9-0.8c0-0.1,0.3-0.3,0.5-0.5
	C589,127.6,589.4,127.8,589.8,128.1z M519,212.1c-0.1,0.1-0.3-0.2-0.4-0.3c0.1-0.3,0.3-0.5,0.6-0.8c0.2,0.2,0.4,0.4,0.3,0.7
	C519.6,211.8,519.1,212,519,212.1z M532.7,217.8c-0.1-0.1-0.2-0.3-0.2-0.3c0.4-0.3,0.9-0.6,1.3-0.8c0,0.2,0.1,0.2,0,0.4
	C533.6,217.4,533.1,217.6,532.7,217.8z M437.7,248.2c0,0.1-0.3,0.3-0.6,0.5c-0.2-0.2-0.4-0.3-0.6-0.3c0-0.1,0.5-0.5,0.5-0.5
	C437.2,248,437.4,248.2,437.7,248.2z M681,77.4c0-0.1,0.3-0.2,0.5-0.3c0.2,0.3,0.3,0.7,0.3,1c0,0.1-0.3,0.2-0.3,0.3
	C681.2,78.1,681,77.8,681,77.4z M499.5,236.5c0.3,0,0.5,0.1,0.6,0.2c0,0.1-0.4,0.4-0.5,0.5s-0.3-0.1-0.5-0.1
	C499.3,236.8,499.4,236.7,499.5,236.5z M587.3,144.4c-0.2,0.1-0.5,0.3-0.7,0.4c-0.1,0.1-0.1-0.2-0.2-0.5c0.3-0.1,0.5-0.2,0.9-0.4
	C587.3,144,587.4,144.2,587.3,144.4z M529.4,224.3c-0.4,0-0.8,0-1.1-0.1c0.2-0.1,0.5-0.3,0.9-0.4
	C529.3,223.8,529.2,224.1,529.4,224.3z M488.6,236.6c0.3-0.3,0.5-0.5,0.8-0.7c0.1-0.1,0.3,0.2,0.4,0.3c-0.2,0.1-0.5,0.3-0.9,0.6
	C488.9,236.9,488.8,236.8,488.6,236.6z M538.1,216c0.2,0.2,0.4,0.4,0.5,0.6c0.1,0.1-0.5,0.5-0.9,0.7c-0.2-0.2-0.5-0.5-0.4-0.9
	C537.4,216.5,537.9,216.1,538.1,216z M672.4,100.3c0.2-0.1,0.5-0.2,0.8-0.4c0.2,0.3,0.1,0.7,0.1,1c-0.1,0.1-0.3,0.2-0.4,0.3
	C672.6,100.8,672.7,100.4,672.4,100.3z M599.7,96.2c-0.6,0.2-1.4,0.7-1.7,0.5c-1.1-0.8-1.9-1.8-2.9-2.6c0.3-0.3,0.5-0.6,0.7-0.7
	c1.3,0.4,2.9,0.7,4,1.3C600.2,94.5,599.7,95.5,599.7,96.2z"/>
<path class="st2" d="M604.9,164.4c-0.6,1-0.9,1.8-1.3,2.7c-0.4,0.8-1.8,1.9-0.3,2.1c0.7-1.1,1.2-2.1,2-2.9s2-1.1,3.5-1.8
	c-0.5-1.7,0.4-2.9,2-4.6c1.7-1.6,4-3.6,3.7-5.7c0-0.4,0.5-1.1,0.8-1.7c0.2,0.2,0.5,0.2,0.6,0.4c0.1,0.7,0.1,1.3,0.1,2.5
	c3.3-3,4.8-6.4,8.8-8.9c-0.6,1-0.8,1.6-1.3,2.3c-0.9,1.1-2,2.2-2.6,3.3c-2.4,4.5-5,9-9.3,13.1c-0.3,0.3-0.7,0.6-0.8,0.8
	c-0.5,2.3-2.8,4.3-4.5,6.2c-3,3.2-5.4,6.9-8.6,9.1c-0.9,1.6-1.2,3.1-2.3,4c-2.6,2.3-5.4,4.3-8.3,6.5c-0.8-1.5,1.1-4.1-0.9-4.8
	c-1.2,1.2-2.4,2.3-3.8,3.6c-0.4,0.4-0.9,1.1-0.9,1.3c0.6,1.3-0.6,1.9-2,2.9c-1,0.6-1.7,1.6-2.6,2.4c0.7,0.2,1.3,0.3,1.5,0.4
	c1.1-0.9,2.2-1.6,3.2-2.3c0,0.2,0.3,0.2,0.4,0.3c0.6-1.4,1.1-2.7,1.7-4c0.7,0.5,1.3,0.8,1.9,1.4c0.3,0.4,0.7,0.9,0.5,1.3
	c-0.8,1.5-1.9,3.6-3.2,4.4c-1.8,1.2-3.2,2.6-4.6,4c-0.2,0.1-0.3,0.3-0.7,0.7c0.8-0.2,1.4-0.3,1.8-0.3c0.3,1.3,0.5,2.5,0.7,3.8
	c-0.9,0.4-2,0.8-2.8,1.2c-0.2,0.6-0.5,1.2-0.6,1.9c-1.4,0.7-2.4,1-3.1,0.1c-0.3-0.4-1.1-0.3-1.7-0.4l-0.6,4.9
	c-1.8,0.6-3.7-0.5-5.1,2.2c0.1,0.4,0.6,0.7,0.6,1.2c-1.5,0.8-2.7,1.8-2.8,0.1c-0.1-1.3-1.2-1.1-2.5,0c-0.1,1.1-0.1,2.2-0.3,3.2
	c-0.3,1-1,2.1-1.5,3.1c-0.6,1,0.1,2.2-2,3.1c0.5-1.7,0.8-3.3-2-2.9c0.3,1.6,0.2,3.2,0.8,4.2c0.3,0.5,1.9-0.1,3.2-0.3
	c0.1,0.5,0,1.3,0.1,1.8c-0.4,0.3-0.7,0.4-0.9,0.4c-2.2-0.3-4.2,1.8-6.3,2.8c-0.2,0.1-0.6,0.6-0.7,0.8c0.5,1.1-0.7,1.6-1.5,1.9
	c-1.1,0.6-2.3,1-3.2,1.5c0,1,0.1,1.9-0.1,3c0.1,0.1-0.3,0.3-0.9,0.7c-0.2-0.5-0.3-1.2-0.4-1.6c-2.4,0.7-3.1,1.1-3.1,2.2
	c0.1,1.3,0.5,2.3,0.7,3.8c0.9-1.3,1.6-2.2,2.2-3.1c0.1-0.1,0.4,0,0.4,0c-0.2,1-0.4,2.1-0.8,3.6c-2.9,0.8-5.5,4.2-8.5,3.3
	c-0.3-0.1-1.3,0.7-2.4,1.3c1.3,1.1,2.4,2.1,3.8,3.3c0.6-1.3,0.9-2.2,1.5-3.2c1.9-1.2,4-2.7,6.7-4.3c-0.6,1.2-0.9,1.8-1.5,2.8
	c1.4-0.4,2.6-0.6,4-1.1c-0.5,0.6-0.7,1-1,1.5c1.2-0.1,2.4-1,2.7-2c0.5-1.4,1.8-1.8,2.9-2.2c0-0.5,0.2-1,0.3-1.5
	c0.8-1.4,2.6-2.2,3.4-1.7c1.4,1,2.1,0.8,3.6-0.8c0.8-0.9,1.6-1.8,2.4-2.7c2.5-0.4,4.9-1.5,6.6-3.4c2.2-2.6,4.8-4,7.4-5.2
	c1.6-0.7,3.3-1.5,4.7-2.7c1.9-1.8,3.5-2.6,5.1-1.7c0.6-2.3,2.6-4.6,5.1-5.5c1.6-0.6,2.7-1.4,3.8-2.6c2.9-2.8,6-5.6,9.1-8.1
	c1.5-1.3,1.8-1.2,2.1,0.3c1-0.1,0.7,0.8,0.5,1.5c2.1-0.6,3.9-1.5,5.6-3.4c-0.4,1.1-0.9,2-1.3,3.1c1,0.1,1.9,0.1,2.9,0.3
	c-0.5,0.6-0.7,0.9-0.9,1.3c-0.2,0.3-0.4,0.6-0.6,1c2-0.1,2.4-1.8,3.3-2.7c2.9-2.5,5.6-5.4,8-8.6c1-1.4,2.5-2.5,3.9-3.9
	c0.5-0.5,0.8-0.9,1.2-1.3c0.9-1.1,1.9-2.3,2.9-3.5c1.2-1.4,2.3-2.7,3.1-3.6c1.6-0.9,3-1.4,3.9-2.2c1.5-1.4,0.5-2.3-0.1-3
	c0.6-0.8,1-1.5,1.5-2.1c0.3-0.3,0.6-0.5,0.7-0.7c0.3,0.4,0.6,0.7,0.8,1c1.5-0.7,1.4-1.3,1.3-2.3c-0.3-1.7,0.8-3,3.3-4.3
	c0.2-0.4,0.1-0.7,0.2-1.1c1.3,0,2.5-0.2,4-0.3c-0.6-1.4,1.5-3.9-1.9-3.3c2.2-2.7,4.1-5.1,5.9-7.5c0.9-1.1,1.9-2.2,2.6-3.3
	c1.9-2.9,3.7-5.7,5.5-8.5c0.7-1,2.1-2.2,2.3-3c0.1-2.3,1.8-4.7,2.6-6.9c-0.1-0.1,0.3-0.3,0.6-0.5c0.5,0.1,1,0.2,1.4,0.3
	c2.8-2.2,0.5-3.5,1.9-5.5c0.8-0.2,1.7-0.5,2.9-0.8l0.7-7.2c0,0,0,0-0.1,0.1c0,0,0,0-0.1-0.1c-1.1,0-1.1-0.6-0.4-1.8
	c0.9,0.4,1.3,0.7,0.4,1.8l0,0l0,0c0.5-0.2,0.8-0.4,1.1-0.5c0.5-1.2,0.6-2.8,1.4-3.4c1.7-1.2,1.7-2.7,2.9-3.8
	c0.4-0.4,0.6-1.2,0.5-1.5c-0.1-0.2-1-0.1-1.3-0.1c0.1-1.5,0.3-2.6,0.4-4c0.1-1.2,0-2.3,0.2-3.5c0.1-1.2,0.9-1.9,2.1-1.9
	c0.5,0,0.9,0.2,1.5,0.1c0.8-2.1,0.8-2.1-0.2-3.5c-1.6-1.9-0.1-4.8,3.2-6.6c0.7-0.4,1.3-1.4,2.1-2.3c-2.3-0.1-3.2-1.6-2.5-3.2
	c1.7-4.1,1.8-7.7,1.9-11.4c0-0.7-0.1-1.2,0.1-1.8c1.1-3.1,2.2-6.2,0.5-8.4c0.9-0.4,1.5-0.6,1.9-0.9s0.9-0.7,1.2-0.9
	c-0.6-1.5-1.9,0.6-2.9,0.6c0.7-1.9,2.9-4,1.6-5.4c-0.6,0-1.2,0.1-2.2,0.2c2-1.7,1.7-3.3,1.3-3.9c-1.4-1.3-2.2-2.6-0.6-5.3
	c0.6-1.1,0.7-2.2,0.9-3.4c0.2-1,0.4-2.1,0.7-3.4c1.3-0.3,2.4-0.5,3.8-0.9c0.2-1,0.9-2.4,0.6-3.1c-0.8-2.5-2-4.7-3-7.1
	c-1.1-2.3-2-4.7-3.2-7.1c-1.3-2.4-2.7-4.9-4.3-7.2c-2.4-3.3-4.9-6.6-8.9-8.4c-2.5-1.2-5.7-1.6-7-4.1c-0.3-0.7-1.5-0.6-2.2-1.1
	c-1.8-1.2-5.6-0.8-5-4.3c-0.1-0.1-0.2-0.2-0.4-0.3c-2.4-0.3-3.3-1.9-4.4-3.3c-1.7-2-4.9-1.4-7.8-1.4c-0.5,0-1.6,0.9-2.3,1.5
	c-0.6,0.5-1.1,1.2-1.7,1.8c-1.4-0.1-2.7-0.2-4.1-0.2c-0.4,1.6-0.7,2.9-1.1,4.3c-0.2,0.5-0.7,1.3-1.1,1.5c-0.4,0.3-1.1,0-1.4-0.3
	c-1-2-3.3-2.7-6.2-2.8c-1.2,2.5-3.6,4-6,5.5c0,1.4,0,2.7,0.1,3.9c-0.2,0.1-0.4,0.3-0.6,0.3c-0.6-1.8-1.2-3.6-1.9-5.7
	c-0.8,1.3-1.5,2.2-2.3,3.4c-2.1-1.1-3.7-2.7-7.4-0.4c-0.1,3-0.1,6.1-0.2,9.2c0.1,0.1,0,0.2,0.1,0.2c0.2,1.1,0.5,2.3,0.4,3.5
	c-0.1,3.6-0.1,7.3-0.5,10.9c-0.3,2.3-1.1,4.9-2.5,7.5c-1.1,2.2-2.2,4.4-2.5,6.6c0,0.5-0.2,0.9-0.3,1.4c0.1,0,0.3,0,0.2,0.2
	c2.2,7.4,2.7,15.8,2.7,24.3c0.1-0.1,0.1-0.1,0.2-0.1c0.1,0.4,0.6,0.7,0.7,1.1c0.7,3.2,1.5,6.2,2.4,9.4c0.4,1.1,0.7,2.1,1.1,3.1
	c0.6,1.3,2.1,2.1,0.5,4.5c-0.2,0.4,0.1,0.7,0.1,1c0.6,2.5,1.3,5,1.9,7.5c-1.7,1.6-3.3,3.1-4.8,4.5c0.1,1.4-0.6,3-1.2,4.6
	c-0.7,1.4-1.1,2.7-1.5,3.9c0.3-0.5,0.9-1,1.3-1.5c1.6,1,1.5,1.4-0.7,3c0.3,0.7,0.5,1.4,0.8,2.5c-1,0.1-1.7,0-2.3-0.1
	c-0.3,2-0.6,3.9-1.5,5.8c1.9,0.3,1.5,2.4,3,3c0.7,0.3,0.9,0.9,1.4,1.4c1-2.4,2.9-1.1,4.4-3.1c-0.3,1.2-0.4,1.6-0.5,2.3
	c1.1,0,3.4-1.3,2.7,1.1c-0.2,0.1-0.5,0.2-0.8,0.4c-0.3,0.2-0.7,0.4-1.4,0.8c3.7-0.2,4.7-1.3,5.7-5.9c1.8,1.2,0.1,3.3-0.8,5.3
	c2.9-1.9,3.6-4.4,5.1-6.6c0.2,1.3-0.5,2.6-1.4,4c-0.9,1.3-2,2.9-2.2,4c-0.2,1.7-1,2.7-2.8,3.9c-1,0.6-2.3,1.1-2.1,2.5
	c1.5-0.5,2.5-0.3,2.5,1.2c-2.8,3.1-3.2,7.2-7.6,9.6c-0.4,1.2-0.1,2.4-0.8,3.3C610.6,158.9,608.4,162.3,604.9,164.4z M549.1,241.7
	c0-0.2-0.4-0.3-0.3-0.6s0.2-0.5,0.6-1.2c0.1,0.7,0.4,0.9,0.3,1.1C549.6,241.4,549.3,241.5,549.1,241.7z M553,240.1
	c-1.5-0.2-1.5-0.9,0-2.3C553,238.7,553.2,239.2,553,240.1z M562.7,220.4c0.4-0.4,0.7-0.8,0.8-0.8c0.4,0,0.7,0.1,0.9,0.2
	c-0.2,0.3-0.5,0.6-0.6,0.9C563.4,220.7,563.1,220.6,562.7,220.4z M618,203.8c-0.3,0.3-0.7,0.8-0.9,0.9c-0.2,0.1-0.6-0.1-1.2-0.3
	c0.6-0.5,0.9-0.8,1.1-0.9C617.4,203.6,617.6,203.8,618,203.8z M609.2,207.3c-0.4-1.5,0.9-2.1,1.7-2.8c0.3,0,0.3,0.2,0.5,0.2
	C610.9,205.3,610.2,206.1,609.2,207.3z M615.1,203.3c-0.2,0.4-0.6,0.9-0.8,1.3c-0.3,0-0.5-0.1-0.6-0.2c0.3-0.5,0.7-1,1.1-1.4
	C614.8,203.2,615.1,203.2,615.1,203.3z M570.4,219.1L570.4,219.1c0,0.1,0,0.1,0,0.1c0.3,0.7,0.5,1.4,0.8,2c-3.4,3.3-5.9,4.1-8.6,2.7
	c2.1-2,3.6-1.7,5.2-1.2c0.9-1.2,1.8-2.4,2.5-3.5l-0.1-0.1C570.3,219.1,570.4,219.1,570.4,219.1c0.5-0.6,1-1.2,2-2.5
	C572.2,218.4,571.2,218.7,570.4,219.1z M582.6,210c-0.6,0.5-0.7,0.7-1.2,1c0-0.2-0.4-0.3-0.4-0.4c0.1-0.3,0.3-0.5,0.6-0.7
	C582,209.8,582.2,209.9,582.6,210z M641.8,176.3c0.1,0.7,0.5,1.2,0.3,1.9c-0.3,1.3-2.9,3.8-4.5,5c1.2-2.3,2.4-4.5,3.5-6.6
	L641.8,176.3z M591.7,192.8c-1.2,2.9-3.9,4.1-6.7,5.8c0.3-3.2,4.9-3.2,4.4-6C590.7,192.6,591.2,192.7,591.7,192.8z M603,178.7
	c-0.6,0.9,0.1,1.9-1.9,2.9c-1.3,0.6-1.3,2.8-3.7,2.7c2-2.2,3.6-4,5.2-5.7C602.8,178.6,602.9,178.7,603,178.7z M606.9,173.9
	c-0.2,0.4-0.3,0.8-0.5,1.1c-0.2,0.3-0.7,0.6-1,0.8c0-0.2-0.2-0.2-0.3-0.4c0.5-0.6,1.1-1.2,1.6-1.8
	C606.6,173.8,606.7,173.9,606.9,173.9z M617.2,37.9c0.1-0.9,0.4-1.9,0.7-2.9c0.2-0.1,0.3-0.1,0.6-0.2l-0.4,2.8
	C618,37.7,617.6,37.8,617.2,37.9z M619.5,147.7c0.5-0.5,0.9-0.7,1.4-1.2c0,0.2,0.4,0.3,0.3,0.4c-0.4,0.4-0.9,0.8-1.2,1.3
	C619.8,148,619.5,147.9,619.5,147.7z M471.7,272.1c0.8-1.5,0.5-3.1,2.3-4.6c0-0.1-0.5-1-0.7-1.6c-0.5,0.5-0.8,0.9-0.7,1.1
	c0.2,0.8-0.3,1.3-1.3,1.6c-1,0.3-1.2-0.2-0.9-1c0.2-0.7,0.8-1.5,1.2-2.3c3.2-0.2,6-0.2,8.5,0.3c0,0.3-0.2,0.5-0.1,0.7
	c-1.3,0.6-2.4,1.3-3.8,1.9c2,0.1,3.9,0.2,6.1,0.2c-0.1-0.7-0.2-1-0.2-1.5c0-0.4,0.2-0.9,0.2-0.9c1.6-0.5,3-1.1,4.3-1.4
	c1.3-0.3,2.6-0.6,4.1-0.9c-0.5-0.9-0.8-1.6-1.1-2.2c-0.6,0.5-1.1,0.9-1.9,1.3c-0.3-2.5-3.8,0-4.7-1.6c-0.5,1.1-0.8,1.6-1.1,2.2
	c-1.1,0.1-2.1,0.2-3.2,0.4c-2.8,0.3-3.1-0.5-1-3.7c2-0.2,4.1-0.2,6.2-0.6c2.2-0.4,4.7-1.2,7.1-1.7c1.2,1.7,1.6,1.6,3.7-0.1
	c0.8-0.7,1.7-1.3,2.7-1.7c1.4-0.7,2.8-0.8,4.2-1.5c3.6-1.6,7-2.7,10.4-2.7c0.4-1.1,0.9-2.2,1.6-3.6c-3.3,1.2-5.8,0-9.3,2
	c-1.3,2.7-1.5,2.9-3.6,3.7c-2.4,1-4.8,1.8-5.5-0.6c-3.5,3.2-6.4,3.3-9.5,3.6c-1.9,0.2-3.7,0.1-5.6,0.8c-2.9,1.3-4.5,0.3-6.7,0.2
	c-0.4,0-0.4-0.7-0.7-1.1c3.7-1.3,6.7-1.4,9.6-1.5c1.1,0,2.7,0,3.3-0.5c1.2-1.1,2-1,2.9-0.8c0.9,0.2,1.7,0.4,3.1-0.4
	c-0.8-1.6-2.9-1.5-4.5-1c-3.2,1-5.4,0.6-7.4-0.5c-0.1,0-0.5,0.2-0.7,0.2c-1,2.9-2.7,4-5.2,3.2c-0.3,0-0.3-0.2-0.5-0.2
	c-0.5-0.6-1.1-0.6-2.3,0c-1.1,0.6-2.3,0.7-3.5,0.8c-4.2,0.5-8.6,1.1-12.8,1.5c-6.9,0.7-12.4-1.1-18-2.5c-0.3-0.1-0.4-0.7-0.5-1
	c1.7,0,2.9,0.5,4.3,0.8c1.4,0.3,2.9-0.1,5-1.2c-1.2,0-2-0.2-2.9-0.3c-1.9-0.3-3.7-0.4-5.5-0.7c-3.7-0.7-7.8-0.8-11.3-1.8
	c-6-1.8-11.7-4.1-17.3-6.5c-7.3-2.9-14.4-5.9-20.5-10.3c-0.9-0.6-2.2-0.5-3.8,0.2c0.4,0.6,0.6,1,1,1.3c4.6,5.9,11.7,9.4,17.9,13.9
	c1.6,1.2,3.7,2.1,5.5,3c2,1.1,3.9,2.1,5.6,3.2c1.8,1,3.3,2,4.9,3c2.1,1.1,3.9,2.4,6.1,3.5c1.8,0.9,3.4,2.1,5.5,2.3
	c2.6,0.2,4.1,1.6,6.4,2.2c0.7,0.2,1.1,1.1,1.3,1.8c0.5,2,2.4,2.7,4.6,3.2c-0.4-1.6-0.8-2.8-1.1-4.4c1-0.3,2-0.8,2.5-0.9
	c2.6,0.4,4.7,1.3,4,4.6c3.3-0.9,5.2-0.2,5.7,2.2c0.2-0.1,0.4-0.3,0.6-0.3c0.3-1.4,0.8-2.7,1.3-4.5c1.8,0.1,3.1,0.3,4.5,0.4
	c1.1,0,1.8,0.2,1.5,1.4c-0.3,1.5,0.7,1.7,2.4,2c-0.4-1.2-1.7-1.7,0.1-3.5c0.1,1.3,0.9,1.6,2.5,1.3c1.1-0.2,2.2,0.5,2.7,1.1
	c0.4,0.3-0.3,1.5-0.6,2.2C470.8,273.8,471.3,272.9,471.7,272.1z M468.5,257.9c0.3-0.3,0.3-0.5,0.6-0.6c0.1-0.1,0.4,0,0.5,0.1
	c0,0.2-0.2,0.4-0.3,0.9C468.9,258,468.7,258,468.5,257.9z M468.5,264.9c-1.9-0.8-5.3,0.4-6.3-1.6c3.1-0.3,6.7-1.4,8.5,0.9
	C469.7,264.4,468.8,265,468.5,264.9z M472.6,263.2c0.2-0.1,0.6-0.5,0.8-0.7c0.3,0.4,0.6,0.6,0.8,1c0,0-0.5,0.5-0.7,0.6
	C473.1,263.9,472.9,263.5,472.6,263.2z M467,268.1c-0.1-0.2-0.1-0.6,0-1.1c1.4-0.3,1.7,0.2,1,1.7C467.4,268.4,467.1,268.4,467,268.1
	z M565.1,211.7c-2.3-0.6-4.6,0.4-9,4.3c0.5-1.2,0.6-2.3-1-1.8c0.2-0.5,0.4-1.1,0.8-2c2.1,1.1,4.1-0.6,6.3-1.8c2.3-1.2,4.4-2.3,7-3.7
	c0.1-0.8,0.2-1.7,0.2-2.9c-0.7,1.1-1.3,2-2.1,3.1c-0.4-0.8-0.6-1.3-1-2.1c-1.3,1.1-2.5,2-3.8,3.1c0.2-0.7,0.5-1.6,0.8-1.8
	c2.7-1.4,5.5-2.8,7.9-4c0.9,1.8,1.7,3.3,2.5,4.8c0.5,0.4,2.5-1.7,2.6-0.1c-1.3,0.8-2.4,1.5-3.8,2.4l0.1-0.1c-0.7-0.5-1.4-1-2.4-1.6
	c-0.6,0.3-2,1-3.1,1.6c-0.4,1.6-0.7,3-1,4.7c-1.1,0.1-2,0.2-3.5,0.3C563.5,213,564.3,212.3,565.1,211.7z M488.2,276.7
	c-0.7,0.4-1.7,0.9-3.1,1.6c-0.4-2.3-0.7-4.4-3.3-4.8c-0.3,0-0.3-0.1-0.6-0.1c-1-0.6-3,0.8-3.8-0.4c-0.5-0.8-1.9-1-3.1-1.5
	c1.6-1.5,3.5-1.4,4.1-0.9c1.4,1.4,3.8,0.7,5.9,0.7c1.4,0,2.4-0.1,3.2,1c0.7,1,2.5,1.1,3.8,1.5c-0.1,0.3-0.2,0.4-0.4,0.7
	c-1.1-0.1-2.2-0.1-3.3-0.2C485.3,276.3,488.9,275.3,488.2,276.7z M663.1,161.7c-0.8,0.9-1.5,1.9-2.3,2.4c-0.6,0.3-1.5-0.2-2.1,0.7
	c-0.5,0.8-0.6,1.7-1,2.6c2.3-1.2,3.6-1,3.4,0.5c-0.1,0.9,0.1,1.4,0.9,1.7c0.3,0.1,0.3,0.7,0.3,1c0.8,0.1,1.4,0.3,2.3,0.4
	c0.2-0.6,0.5-1.4,0.5-1.5c-1.4-0.4-0.6-1.4,0-2.5c0.6-1.2,1.6-2.4,2.5-3.9c-2,0.8-3.5,1.4-5.1,2
	C662.9,163.9,664.1,162.7,663.1,161.7z M663.8,166.3c0,0.2-0.2,0.6-0.4,0.8c0,0.1-0.4,0-0.9,0.1c0.2-0.3,0.4-0.7,0.6-0.8
	C663.2,166.2,663.7,166.3,663.8,166.3z M528.2,256.8c2.3-3,4.7-3.7,6.2-2c0.6,0.5,1.8,0.6,2.7,0.9c-0.1,0.3-0.2,0.4-0.2,0.5
	C534,256.6,529.9,260,528.2,256.8z M594.5,179c-0.1,0.9-0.4,1.9-0.7,2.9c-1.1,0.6-2,1.1-3.3,1.8c1.3-3.6,4.3-6.2,7-9.2
	c1.5,0.7,1.2,1.9,0.5,3.2C596.8,179.5,595.7,178.2,594.5,179z M501.5,269.5c-0.1,1.6,0.1,3.1,1.9,3.3c-2.4,2.8-2.4,2.8-4.6,2.2
	c0.9-0.7,1.6-1.3,2.6-2c-0.9-0.4-1.7-0.5-2.6-0.9C499.8,271.2,500.8,270.3,501.5,269.5z M532.8,249.2c-0.4-0.3-0.8-1.1-0.4-1.8
	c0.2-0.5,1.3-1.5,2-1.7c0.9-0.4,1.8-0.3,3.6-0.6c-1.3,1.5-2,2.5-3.1,3.4C534.3,249,533,249.3,532.8,249.2z M662.2,170.6
	c-0.5,0.7-1,1.5-1.3,2.1c-1.4,0.7-2.8,0.3-4,2.1c-0.2,0.4-2.1,0.8-3.8,1.3C656.1,173.5,658.5,170.6,662.2,170.6z M493,273.3
	c0.7-1,1.3-2,2.1-3.3c0.2,2.2,3.1,2.1,2.1,5.3C495.7,274.5,494.4,274,493,273.3z M551,216c1.3-0.6,2.7-1.2,3.9-1.9
	c-2.1,2.3-4.3,3.4-6.8,4c-0.9-1.3-1.5-2.6-2.3-3.7c0.8,0.2,2.1-0.4,2.1,0.9C547.9,216.6,549.1,216.9,551,216z M529.1,240.4
	c1-1.9,2.1-3.7,2.9-5.4c0.1-0.1,0.3-0.1,0.5-0.2c0.1,1.6,0.2,3.3,0.4,5.2C531.2,240.2,530,240.3,529.1,240.4z M609.3,142.7
	c-3.3,0-3.3-1.8-2.9-4.4C608.7,138.9,608.2,141.2,609.3,142.7z M696.9,75c-0.2-1.8-0.4-3.2-0.6-4.7c2.7-0.8,2.3,1,2.7,2.2
	C699.2,73.5,698.2,74.3,696.9,75z M498.8,266.7c0.9-1.1,1.6-1.9,2-2.5c0.6,0.5,1,0.9,1.6,1.1c0.8,0.1,1.8-0.1,1.4,1.3
	C502.3,266.7,500.7,266.7,498.8,266.7z M618,145.1c-1.5,1-2.4,1.6-3.6,2.3c-1.9-0.1-1.3-2.2-2.2-3.8c0.8,0.2,1.6,0.1,2,0.3
	C615.5,145.5,615.3,145.5,618,145.1z M692.9,96.9c-0.6,1.8-0.9,3.2-1.3,4.4c-1.2,1-2.3,2.1-3.3,3.1c-0.3,0-0.3-0.1-0.6-0.1
	C689.4,102,691,99.8,692.9,96.9z M522.6,242c-0.6,0.1-1.2,0.3-2.3,0.4c1-0.9,1.6-1.4,2.3-1.9c0.7,0.2,1.4,0.6,2.1,0.3
	c0.6-0.2,1.1-1.3,1.6-0.2c-1.7,1.1-3.4,2.2-5,3.2c-0.1,0-0.1-0.2-0.2-0.2C521.5,243.1,522,242.7,522.6,242z M608.1,209.6
	c-0.1,0.7-1.4,2,0.5,1.5c-0.5,0.6-0.9,1.2-1.4,1.9c-1.1-0.1-1.9-0.3-2.7-0.4C605.7,210.3,606,210,608.1,209.6z M540.7,234.6
	c0.1,0.5,0.3,1,0.5,1.5c-0.2,0.1-0.6,0.5-0.8,0.7c-0.3-1-2.7-0.3-1.8-2.2c0.3-0.6,1.4-1.3,2.5-2.2
	C540.9,233.4,540.6,234,540.7,234.6z M648.5,179c-0.4,1.1-1.7,2.4-2.6,3.6c-0.3,0-0.3-0.1-0.6-0.1c0.8-1.6,1.7-3.2,2.4-4.8
	c0.2-0.5,0.2-1.1,0.4-1.6C649.7,176.5,648.9,178.1,648.5,179z M669.7,154.6c0.8-0.1,1.8-0.3,3.3-0.4c-0.9,1-1.3,1.7-2,2.5
	C670.1,156.2,668.7,156.3,669.7,154.6z M652,178.1c0.5,0.5,0.6,1,0.9,1.4c-0.7,0.5-1.3,0.9-2.1,1.4c-0.5,0.3-1.2,0.8-2.2,1.5
	C649.2,180.5,650.6,179.5,652,178.1z M668.4,150.9c-1.3,2-2.1,3.4-3.1,5.1C664.5,153.8,664.7,153.4,668.4,150.9z M603.7,146.4
	c-0.5-0.1-0.8-0.3-1.2-0.4c1.4-1.6,3-2,3.1-1c0.3,0.6-0.5,1.4-1.4,1.7C604.2,146.5,603.8,146.5,603.7,146.4z M562.1,205.4
	c-3.6,2.8-3.7,2.8-3.8,0.8C559.3,206.1,560.3,205.9,562.1,205.4z M542.7,229.2c-1.4,0.4-2.6,0.6-4,1
	C541.8,227.7,541.8,227.7,542.7,229.2z M549.1,222c0.5-1.4,0.9-2.4,1.4-3.9c0.6,0.9,0.9,1.6,1.3,2.3
	C551.1,220.9,550.4,221.3,549.1,222z M504.8,268.2c0.5,0.4,0.9,0.9,1.6,1.6c-2.1,0.8-3,0.9-3-0.3
	C503.5,269.3,504.2,268.8,504.8,268.2z M694,61.3c-0.1-1-0.2-1.8-0.3-2.9c0.7-0.2,1.1-0.3,2.2-0.7C695,59.1,695.9,60,694,61.3z
	 M556.3,220.3c0.9-0.7,1.9-1.3,3.1-2.2C558.8,219.9,558.8,219.9,556.3,220.3z M612.9,212.3c-1.2,1-2.3,2-3.5,3.1
	C609.5,214.1,610.3,213.3,612.9,212.3z M684.2,124.7c0.3-0.2,0.5-0.3,1-0.6c1.2,0.2,1.3,0.9,0.2,3
	C684.8,125.9,684.6,125.3,684.2,124.7z M572,200.4c-1.1,0-2.2,0-3.3,0.1C570.9,198.9,571.8,198.8,572,200.4z M696.2,65.5
	c-0.3-1-0.7-1.9-1.2-3.3C696.7,62.7,697.2,63.6,696.2,65.5z M555.7,218.4c1.6-1.9,1.6-1.9,3.4-1.5
	C558.2,217.3,557.2,217.7,555.7,218.4z M523.2,246.2c-1.1,0-1.8,0-2.7,0C522.8,244.1,522.8,244.1,523.2,246.2z M553.5,227.6
	c-0.1-0.1-0.1-0.1,0-0.2C553.6,227.4,553.6,227.4,553.5,227.6L553.5,227.6c0.9,0.4,0.9,0.4,0.1,1.9c-0.6,0-1.3,0-1.9,0
	c0-0.1,0.2-0.4,0.2-0.4C552.5,228.4,553,228.1,553.5,227.6z M653.5,183.9c0,0.2-0.2,0.4-0.2,0.6c-0.8,0.2-1.5,0.4-2.5,0.7
	C651.9,183.1,652.7,183.7,653.5,183.9z M651.1,183.1c0.9-1.5,1.4-2.2,2-3.2c0.4,0.4,0.7,0.9,1,1.4
	C653.2,181.9,652.5,182.3,651.1,183.1z M573.4,235.6c0.6-0.7,1.5-1.4,2.2-2.2C575.5,235.2,575.5,235.2,573.4,235.6z M543.6,235.6
	c0.6-0.9,1.2-1.7,1.9-2.7C546.2,234.5,546.2,234.5,543.6,235.6z M472.3,281.9c-0.1-1-0.2-1.7-0.3-2.3c0.2-0.1,0.4-0.3,0.7-0.4
	C473.6,279.7,474.1,280.2,472.3,281.9z M697.3,77.8c0.2-0.1,0.3-0.3,0.8-0.7c0.9,0.2,0.7,1.3,1,1.8c-0.2,0.1-0.3,0.3-0.6,0.5
	C698.1,79,697.6,78.4,697.3,77.8z M656.7,169.2c-0.6,0.9-1.4,2-1.9,2.9c-0.2-0.2-0.6-0.1-0.7-0.2c0.7-1,1.4-1.9,2.1-2.9
	C656.4,169,656.5,169.1,656.7,169.2z M608.7,153c0.6,0.5,1.1,0.9,2,1.8C608.8,155,608.9,153.9,608.7,153z M498.1,258.2
	c0.1,0.5,0,1,0,1.6c0,0-0.5,0.3-0.5,0.2c-0.3-0.4-0.6-0.7-0.7-1.1C497.2,258.5,497.6,258.5,498.1,258.2z M652.9,179.9
	c-0.1-0.1,0-0.3,0-0.4c1.1-1,2-2.1,3-0.8C655,179.6,653.9,179.7,652.9,179.9z M540.1,218.6c-0.5-0.1-0.9-0.4-1.4-0.5
	c0.3-0.3,0.5-0.6,0.7-0.9c0.5,0.2,0.8,0.4,1.2,0.6C540.6,217.8,540.3,218.2,540.1,218.6z M512.4,254.8c1.2-1,1.7-1.5,2.7-2.3
	C514.9,254.2,514.2,254.5,512.4,254.8z M528.9,268.8c-0.3,0-0.4,0-0.7-0.1c0.2-0.5,0.4-1.1,0.7-1.7c0.4,0,0.7,0.1,0.8,0.1
	C529.6,267.7,529.4,268.2,528.9,268.8z M513.2,270.6c0.8-0.3,1.5-0.6,2.1-0.8c0,0.2,0,0.4,0,0.7c-0.8,0.3-1.4,0.5-2.2,0.8
	C513.2,270.9,513.2,270.7,513.2,270.6z M603.4,216.6c-1.1,1-1.6,1.5-2.3,2.1C600.9,217.4,601.6,217,603.4,216.6z M543.1,216.8
	c0.3,0.7,0.6,1.4,0.9,2.4C542.1,219.3,543.1,217.8,543.1,216.8z M614.6,138c-1-0.1-1.6,0-2.3-0.1C613.5,136.8,613.5,136.8,614.6,138
	z M514.9,259.7c0.2-0.5,0.2-1,0.4-1.6c0.2-0.1,0.5-0.2,0.7-0.2c0,0.3,0.1,0.6-0.1,0.9c-0.1,0.3-0.4,0.6-0.5,0.8
	C515.4,259.6,515.2,259.7,514.9,259.7z M530.9,253.2c-0.1,0-0.3-0.1-0.5-0.1c0.5-0.7,0.9-1.3,1.5-2c0.2,0.2,0.3,0.2,0.5,0.3
	C531.9,252,531.4,252.6,530.9,253.2z M484.4,281.9c0.1-0.6,0.1-1.1,0.2-1.7C486.1,280.4,486.1,280.4,484.4,281.9z M494.8,276
	c0,0.2-0.2,0.5-0.1,0.7c-0.5,0-1.2,0.3-1.8,0.4c0-0.3,0.2-0.5,0.1-0.7C493.6,276.2,494.2,276.1,494.8,276z M696.9,109.3
	c0.1,0.8,0.3,1.3,0.5,2.2C695.8,111.4,695.5,110.8,696.9,109.3z M540.3,242.9c0-0.3,0-0.4-0.1-0.7c0.6-0.3,1.3-0.6,2-0.9
	c0,0.2,0.2,0.3,0.1,0.5C541.7,242.2,540.9,242.5,540.3,242.9z M669.1,160.5c0.3-0.8,0.6-1.7,0.9-2.4c0.2-0.1,0.4,0,0.5,0
	c-0.1,0.7-0.4,1.6-0.5,2.3C669.6,160.4,669.4,160.4,669.1,160.5z M673.3,142.4c0.3-0.9,0.7-1.8,1-2.7c0.3,0,0.4,0,0.6,0
	c-0.4,1-0.9,2-1.2,2.9C673.5,142.5,673.4,142.5,673.3,142.4z M599.6,149.3c0.5-0.6,0.9-1.3,1.9-2.4
	C601.5,148.8,600.7,149.1,599.6,149.3z M692,101.3c0.5-0.3,1.3-0.8,1.8-1.2c0.6,0.9-0.5,1.5-1.3,1.9
	C692.3,102.1,692.1,101.4,692,101.3z M607.2,133.7c0,0.1-0.9,0.1-0.8-0.2c0-0.4,0.4-0.8,0.8-1.4c0.5,0.2,1.1,0.3,1,0.4
	C608,133,607.6,133.4,607.2,133.7z M549.7,252.1c-0.1-0.1,0.3-0.5,0.6-0.9c0.4,0.3,0.6,0.4,0.6,0.6c0,0.2-0.3,0.5-0.7,0.8
	C550.2,252.4,549.9,252.3,549.7,252.1z M475.3,276.7c-0.2,0.1-0.5,0.5-0.7,0.6c-0.3-0.4-0.7-0.6-1-0.9c0.2-0.1,0.4-0.4,0.5-0.5
	C474.6,276.1,474.8,276.5,475.3,276.7z M525.6,259.4c0-0.4-0.2-0.8-0.2-1.3c0.3-0.1,0.5-0.2,0.9-0.4c0,0.5,0.1,0.9,0,1.4
	C526,259.1,525.7,259.3,525.6,259.4z M547.4,252.6c0.6,0.4,1.5,0.6-0.1,2.2C547.3,253.8,547.3,253.3,547.4,252.6z M688.2,113.5
	c-0.1-0.5,0-1,0-1.5c0.2-0.1,0.5-0.2,0.8-0.3c-0.1,0.6-0.2,1-0.1,1.5C688.8,113.3,688.2,113.5,688.2,113.5z M596.9,224.9
	c0.6-0.5,1.2-1,1.8-1.5c0.1,0,0.2,0.2,0.4,0.3c-0.5,0.5-1.2,1.1-1.7,1.6C597.2,225.2,597.1,225,596.9,224.9z M517.4,262.7
	c0.3-0.3,0.6-0.7,0.9-0.7c0.2-0.1,0.5,0.1,0.5,0.3c-0.3,0.3-0.5,0.6-0.7,0.6C517.8,263,517.7,262.9,517.4,262.7z M562.3,244.2
	c0.2-0.4,0.4-0.6,0.6-0.9c0.1,0,0.4,0,0.5,0.1c0,0.3-0.2,0.6-0.4,1.2C562.7,244.3,562.3,244.2,562.3,244.2z M553.5,227.4
	c-0.3-0.7-0.6-1.2-0.6-1.8C554.2,225.4,553.7,226.6,553.5,227.4z M646.1,192.9c0.2-0.5,0.4-1.1,0.7-1.6c0.3,0,0.4,0,0.5,0
	c-0.2,0.5-0.4,1.1-0.7,1.6C646.3,192.8,646.2,192.8,646.1,192.9z M471.7,275.7c-0.1,0.3-0.2,0.4-0.2,0.5c-0.5,0-1.1,0-1.7,0
	c0.1-0.3,0.2-0.4,0.2-0.5C470.5,275.7,471.2,275.7,471.7,275.7z M534,232.6c-0.3,0.3-0.5,0.6-0.8,0.8c-0.1,0.1-0.4,0-1-0.1
	C533.2,232.9,533.6,232.8,534,232.6z M552.7,225.5c-0.7,0.2-1.3,0.3-2.1,0.6C551.8,224.3,552.3,225,552.7,225.5z M448.9,277.7
	c-0.3,0-0.4-0.3-0.5-0.4c0.3-0.3,0.5-0.6,0.6-0.7c0.2,0.2,0.4,0.3,0.5,0.6C449.7,277.2,449.2,277.6,448.9,277.7z M656.6,166.3
	c0,0.2-0.4,0.6-0.6,0.6c-0.1,0.1-0.3-0.1-0.7-0.2c0.5-0.5,0.6-0.7,1-0.9C656.5,166,656.6,166.2,656.6,166.3z M533.4,244.2
	c-0.2,0.4-0.5,0.6-0.9,1.2c-0.1-0.4-0.3-0.6-0.3-0.7c0.1-0.3,0.3-0.5,0.7-0.8C533.1,244,533.5,244.1,533.4,244.2z M540.3,246.6
	c-0.1,0-0.2-0.2-0.2-0.2c0.3-0.3,0.9-0.7,1.3-1.1c0.1,0,0,0.2,0.2,0.2C541.1,245.9,540.7,246.3,540.3,246.6z M503.2,258.1
	c-0.1-0.1,0.1-0.3,0.2-0.4c0.5,0,0.9-0.1,1.5-0.2c-0.1,0.3-0.2,0.4-0.4,0.7C504.2,258.1,503.7,258.1,503.2,258.1z M523.2,258.5
	c0,0.5-0.1,0.9-0.1,1.3c-0.2,0.1-0.3,0.1-0.6,0.2c0-0.5,0.1-0.9,0.1-1.3C522.9,258.6,523.2,258.5,523.2,258.5z M460.4,271.3
	c0.1,0.1-0.3,0.5-0.5,0.5c-0.3-0.1-0.5-0.2-0.9-0.4c0.5-0.5,0.7-0.6,0.9-0.7C460.2,270.9,460.3,271,460.4,271.3z M606.3,135.2
	c-0.2,0.1-0.4,0.4-0.5,0.5c-0.4-0.3-0.6-0.5-0.9-0.8c0-0.1,0.3-0.3,0.5-0.5C605.5,134.7,605.9,134.9,606.3,135.2z M535.5,219.2
	c-0.1,0.1-0.3-0.2-0.4-0.3c0.1-0.3,0.3-0.5,0.6-0.8c0.2,0.2,0.4,0.4,0.3,0.7C536.2,218.9,535.7,219.1,535.5,219.2z M549.2,224.9
	c-0.1-0.1-0.2-0.3-0.2-0.3c0.4-0.3,0.9-0.6,1.3-0.8c0,0.2,0.1,0.2,0,0.4C550.1,224.5,549.6,224.7,549.2,224.9z M454.3,255.3
	c0,0.1-0.3,0.3-0.6,0.5c-0.2-0.2-0.4-0.3-0.6-0.3c0-0.1,0.5-0.5,0.5-0.5C453.8,255.1,454,255.3,454.3,255.3z M697.6,84.5
	c0-0.1,0.3-0.2,0.5-0.3c0.2,0.3,0.3,0.7,0.3,1c0,0.1-0.3,0.2-0.3,0.3C697.7,85.2,697.6,84.9,697.6,84.5z M516,243.6
	c0.3,0,0.5,0.1,0.6,0.2c0,0.1-0.4,0.4-0.5,0.5s-0.3-0.1-0.5-0.1C515.9,243.9,515.9,243.8,516,243.6z M603.8,151.5
	c-0.2,0.1-0.5,0.3-0.7,0.4c-0.1,0.1-0.1-0.2-0.2-0.5c0.3-0.1,0.5-0.2,0.9-0.4C603.8,151.1,603.9,151.3,603.8,151.5z M546,231.4
	c-0.4,0-0.8,0-1.1-0.1c0.2-0.1,0.5-0.3,0.9-0.4C545.8,230.9,545.8,231.2,546,231.4z M505.2,243.7c0.3-0.3,0.5-0.5,0.8-0.7
	c0.1-0.1,0.3,0.2,0.4,0.3c-0.2,0.1-0.5,0.3-0.9,0.6C505.4,244,505.4,243.9,505.2,243.7z M554.6,223.1c0.2,0.2,0.4,0.4,0.5,0.6
	c0.1,0.1-0.5,0.5-0.9,0.7c-0.2-0.2-0.5-0.5-0.4-0.9C554,223.6,554.5,223.2,554.6,223.1z M689,107.4c0.2-0.1,0.5-0.2,0.8-0.4
	c0.2,0.3,0.1,0.7,0.1,1c-0.1,0.1-0.3,0.2-0.4,0.3C689.1,107.9,689.2,107.5,689,107.4z M616.2,103.3c-0.6,0.2-1.4,0.7-1.7,0.5
	c-1.1-0.8-1.9-1.8-2.9-2.6c0.3-0.3,0.5-0.6,0.7-0.7c1.3,0.4,2.9,0.7,4,1.3C616.7,101.6,616.2,102.6,616.2,103.3z"/>
</svg>
