<?xml version="1.0" encoding="utf-8"?>
<!-- Generator: Adobe Illustrator 22.0.1, SVG Export Plug-In . SVG Version: 6.00 Build 0)  -->
<svg version="1.1" id="master-artboard" xmlns="http://www.w3.org/2000/svg" xmlns:xlink="http://www.w3.org/1999/xlink" x="0px"
	 y="0px" viewBox="0 0 711.6 294.9" style="enable-background:new 0 0 711.6 294.9;" xml:space="preserve">
<style type="text/css">
	.st0{opacity:0.36;fill:#F08B3D;enable-background:new    ;}
	.st1{opacity:0.36;fill:#5A288E;enable-background:new    ;}
	.st2{opacity:0.45;fill:#DA5B4D;enable-background:new    ;}
	.st3{opacity:0.34;fill:#F08B3D;enable-background:new    ;}
	.st4{opacity:0.34;fill:#5A288E;enable-background:new    ;}
	.st5{opacity:0.6;fill:#DA5B4D;enable-background:new    ;}
</style>
<path class="st0" d="M377.7,38c-0.5-0.8,0.7-1.4,2.5-1.6c2.7-0.3,4.6,0.1,6.3,1.1c1.9,1.2,4.8,1.5,6.9,0.8c0.6-0.2,1.3-0.6,1.2-1
	c0-0.3-0.8-0.7-1.4-0.9c-0.5-0.2-1.4,0-2.1-0.1c-3.6-0.3-5.1-1.6-4-3.2c0.3-0.5,0.4-1,0.6-1.7c-5,0.1-9.6,0.2-14.1,0.3
	c-1.6,0-2.8,0-2.9-0.9c3-1.5,6.7-1.7,10.9-1.5c3.2,0.2,6.3,0.3,8.6,1.5c1.4,0.8,3.3,0.8,5.2,0.3c-0.7-0.1-1.2-0.4-0.5-0.7
	c0.7-0.4,1.5-0.7,2.2-1.1c-0.5-0.1-0.8-0.4-0.3-0.7c0.2-0.1,0.4-0.2,0.6-0.3c-0.5-0.1-0.9-0.2-1.3-0.4c-0.6-0.2-0.6-0.6,0-0.8
	c0.4-0.1,0.8-0.2,1.1-0.3c-2-0.2-4-0.5-5.9-0.8v-0.7c2-0.3,3.9-0.5,7-0.9c-3.8-0.9-6.5-1.9-9.6-2.2c-3-0.3-6.3,0.1-9.5,0.1
	c-0.2-0.1-0.4-0.3-0.5-0.4c2.1-1.1,4.2-2.2,6.6-3.4c-1.2-0.1-2.1-0.3-2.7-0.2c-2.7,0.4-5.1,0.3-7.7-0.2c-0.9-0.2-2-0.1-3.1-0.1
	c-0.4,0-0.8,0.3-1.1,0.4c0.5,0.7,0.9,1.3,1.6,2.4c-3-0.3-5.1-0.8-7.2-0.8c-2.4,0-4.7,0.5-7.1,0.7c-1.9,1.6-1.9,1.6-5.6,2.1
	c-4,0.6-8.2,1-12,1.7c-3.5,0.7-6.7,0.7-10.2,0.2c-1.4-0.2-3.3-0.5-4.5-0.2c-4.4,0.9-8.5,0.7-12.3-0.2c-4.5,1.1-8.6,2.1-12.9,3
	c-1.2,0.2-3-0.1-4.4-0.4c-6.1-1.1-12.6-0.8-18.8-1.2c-0.7,0-1.5,0.5-2.3,0.5c-1.3,0-3.1,0.1-3.9-0.2c-3.5-1.4-6.8-3-10.2-4.5
	c-1.6-0.7-2.9-1.6-4.7-2.3c-1.6-0.6-5.1-0.4-5.8,0.2c-1.1,1,0.1,1.7,1.8,2.2c2.9,0.9,5.9,1.7,8.9,2.5c1,0.3,2.1,0.6,2.8,1
	c3.8,2.4,8.4,4.5,13.3,6.4c2.2,0.9,1.9,1.7-0.9,2.1c-6.1,0.9-11.9,2.7-18.8,1.4c-0.6-0.1-1.5,0-2,0.2c-1.5,0.4-1.8,0.9-0.5,1.5
	c2,0.5,4.3-1.3,6.3,0.3c-0.6,0.8-1.2,1.7-1.9,2.9c-1.7-0.3-2.8-0.5-4.8-0.9c2.7,2.4,1,3.7-2.6,4.9c-2.7,0.9-5.5,1.9-7.4,3.7
	c5.2-0.6,8.9,0,12.3,1.4c1,0.4,3,0.6,4.3,0.5c3.8-0.3,7.6-0.8,11.4-1.1c2-0.2,4.1-0.1,6.2-0.4c3.4-0.3,5.9,0.6,8.8,1.4
	c0.5-0.5,0.9-0.9,1.1-1.2c0.2-0.4,0.2-0.9,0.4-1.6c7.1,1.4,13.9,2.5,21.2,1.5c0.9,0.7,1.6,1.3,2.7,2.3c1.5-2.4,4.9-3.2,9.2-3.4
	c1.2-0.1,2.6-0.3,3.3-0.7c3.9-2,9-1.4,13.5-1.7c0.8,0.6,1.3,1,2,1.6c7.3-2.4,14.7-2.8,22.4-0.8c1,0.3,2.4,0.3,3.6,0.4
	c8.2,0.3,16.5,0.5,24.7,0.7c0.2,0,0.5-0.2,0.9-0.4c-1.5-2.2-8.1-0.8-9.4-2.5c-2.7,0-4.7,0.1-6.7,0c-2.1-0.1-4.1-0.4-6.1-0.7
	c-2-0.2-4-0.4-6.8-0.7c0.7-1.1,0.7-2.4,1.9-2.7c2.8-0.8,4.5,0.6,6.4,1.4c5.2-1.4,10.1-0.6,14.8,0.3c3.7,0.7,6.5,0.2,8.4-1.4
	c-4.9-0.4-9.8-0.8-14.7-1.2C379.4,39,377.9,38.4,377.7,38z M276.7,29.3c-0.6,0.1-1.3-0.2-2.4-0.3c1.6-0.6,2.1-0.8,2.6-1
	c0.4,0.2,1.1,0.5,1.1,0.7C277.9,28.9,277.3,29.2,276.7,29.3z"/>
<path class="st1" d="M260.3,151.8c-2.3-1.7-7-0.8-6.7-4.2c1.7,0.3,3.2,0.5,4.7,0.7c-0.7-1.7-1.3-3-1.8-4.4c-0.6-1.6-1.5-2.7-4.2-2.8
	c-1.3-0.1-2.6-0.5-3.9-0.8c-2.6-0.6-5.3-1.6-7.9-1.6c-9.1-0.2-18.2-0.2-27.4-0.2c-2.4,0-4.9-0.1-7.3,0.2c-2.1,0.2-4,0.9-3.4,3
	c0.2,0.6-0.6,1.9-1.5,2.1c-3.5,1.1-4.6,3.3-5.7,5.5c-0.3,0.7-0.6,1.6-1.4,1.9c-1,0.5-2.6,0.9-3.7,0.7c-1.4-0.2-2.1-1.2-1.3-2.4
	c0.6-0.8,1.4-1.9-1.1-2.4c-0.4,1-0.8,2-1.4,3.3c-2.3-0.7-4.4-1.3-7.4-2.3c3.2-1.2,5.4-2,7.7-2.8c-1.8-1.8-3.4-3.6-5.2-5.2
	c-0.4-0.3-1.2-0.6-1.8-0.7c-3.4-0.2-6.3-2.1-10-1.5c-1.2,0.2-2.7-0.3-4.1-0.6c-3.1-0.7-6.2-1.6-9.3-2.3c-4.1-1-8.2-2.1-12.5-2.8
	c-5.1-0.9-9.9-2.8-15.8-1.8c-3.1,0.5-7.3-0.8-8.5-3.4c-1.1-2.3-3.3-3.1-6.1-3.4c-4-0.5-8-1.1-12-1.4c-1.9-0.1-4.6,0.1-5.8,0.9
	c-1.7,1.2-6.1,1.2-4.7,4.1c0.1,0.2-0.4,0.6-0.7,0.8c-2.8,1.9-5.6,3.7-8.6,5.7c1.7,1.1,2.9,1.8,3.8,2.4c-0.8,2.4-1.5,4.5-2.2,6.6
	c-0.5,1.7-1.6,2.6-4.3,2.5c-2.6-0.1-5.1,0.1-5.4-2.5c1.3-0.5,2.6-0.9,4.5-1.6c-5.2-1.6-9.9-3-14.5-4.5c0.1-0.2,0.2-0.4,0.3-0.7
	c1.6,0.1,3.1,0.3,5.8,0.5c-3.1-1.5-5.3-2.6-7.8-3.8c-2.3,2.5-4.6,4.8-2.9,7.7c-3.5,2-6.7,3.9-9.5,5.5c-0.1,3.9,5,7,0.6,10.4
	c2.9,2.4,8.7-0.1,10.5,3.5c-3.8,0.2-4,0.3-5.6,1.6c-1.5-0.5-3-0.9-4.9-1.5c0.3,1.3,0.8,2.2,0.5,3c-0.3,0.9-1.4,1.6-2.2,2.4
	c0.8,1,1.5,1.9,2,2.6c-1.3,2.1-2.5,4-3.7,5.9c-1-0.1-2.4-0.2-3.7-0.3c-0.1,0.2-0.2,0.4-0.2,0.6c1.5,0.9,3.1,1.7,4.4,2.5
	c-1.5,1.2-3.9,2.1-3.9,3.1c0,2.3-0.4,5.3,2.5,6.7c2.5,1.2,6.4,1.8,9.4,1.5c3.4-0.4,6.7-0.1,9.2,0.9c3.2,1.3,6.3,1.2,9.5,1.5
	c2.8,0.2,5.5,0.6,8.3,1c3.5,0.5,6.9,1.5,10.3,1.5c5.5,0.1,10.3,1.3,15,3c5.6,2,11.4,4,18,1.9c0.3-0.1,0.7,0,1.1,0.1
	c0.1,0.4,0.3,0.9,0.4,1.2c5.3,0.3,10.6,0.6,16,1c0.8-1.8-0.6-2.4-2.6-2.4c-6.2,0-12.2-1-18.2-2.1c-8.1-1.5-16.4-2.7-24.6-4.1
	c-1-0.2-1.9-0.5-2.8-0.8c3.6-0.2,7-0.2,10.4,0.3c5.8,0.7,11.6,1.6,17.4,2.6c8.1,1.4,16.3,1.8,24.6,1.7c4-0.1,8,0.6,12,1.1
	c1.7,0.2,2.2,1.1,0.5,2.3c-3.6-1.1-7-1.3-9,1.3c1.9,2.2,3.5,4.2,5.3,6.3c2.1-1,3.6-2.6,6.3-1.1c0.6,0.3,2,0,3-0.1
	c4.2-0.7,8.3-0.7,12.6-0.3c3.1,0.3,6.3,0,9.4,0.1c1,0,2.5-0.1,3.1,0.3c3.5,2.5,8.3,1.5,11.1,2.3c2.3-0.8,3.7-1.3,5.2-1.8
	c-3.6-0.5-7-1.7-10.6,0.1c-0.9-0.9-1.9-1.8-3.3-3.1c-2.3,2.7-5.8-0.8-8.4,1.2c-1.8-1.9-5.2-1.6-8.2-2.9c7.7-2,14.6-0.7,21.5,0
	c7.7,0.8,15.2,2.2,22.8,3.3c2.1,0.3,4.2,0.3,6.3,0.4c1.9,0.1,2.3-0.8,2.2-1.9c0,0-0.1,0-0.1,0.1c-0.1-0.1-0.1-0.1-0.2-0.1
	c-1.2-0.1-2.5-0.3-4-0.5c2.5-0.8,2.6-0.8,4,0.5c0.1,0,0.2,0,0.3,0l0,0c2.4-1,4.6-1.9,7.6-1.8c1.8,0.1,3.5-0.7,3.2-2.3
	c-0.4-2.1,1.4-2.6,3.7-2.8c2.7-0.2,4.7-0.9,5.5-2.8c-1.1-2.5-7-2.6-6.3-6.3c4.5,0.6,8.7,1.3,14,2c-1-1.9-1.3-3.1-2.3-4
	c-1.5-1.3-3.3-2.5-5.3-3.5c-2.2-1.1-1.5-1.9-0.1-3.2c1.5,0.5,2.8,0.9,4.2,1.3c0.9-2.4,0.8-2.9-1.9-3.3c-3.4-0.5-6.8-0.5-10.4-0.8
	c-0.3-1.6-0.6-3.2-0.8-4.6c3.2-1.8,6.4-3.5,9.7-5.3c-0.6-0.7-2.4-2.3-2.3-2.4c2.4-1.5-1.1-2.7-0.2-4.2c3.5-0.3,6.9-0.6,9.9-0.9
	c2.3-1.9,1-3.4-0.5-4.8C257.8,152.3,258.8,152.1,260.3,151.8z M63.3,187.1c-0.1-0.3-0.1-0.5-0.2-0.8c2.4-0.9,2.4-0.9,6.1,0.3
	C66.6,186.8,64.9,187,63.3,187.1z M63.2,164.7c0.6-0.4,0.8-0.6,1-0.6c1.5,0.2,2.9,0.4,2.4,2.1C65.4,165.7,64.3,165.2,63.2,164.7z
	 M69.2,162.2c1.7,0.7,3.4,1.1,4.3,2c0.8,0.8,0.8,2.1,1.1,3.1C69,167,68.5,166.5,69.2,162.2z M70.6,185.8c3.2-1.2,4.8,0.1,7.7,1.3
	C74.8,187.5,72.6,188,70.6,185.8z M73.8,157.1c0.7,0.8,1.3,1.5,2.3,2.6c-5.1,0.2-8.7-0.9-12.6-2.2c2.5-2.3,5-1,7.6-0.6
	c1.9-1.3,4.1-2.7,7.5-0.9C77,156.3,75.5,156.7,73.8,157.1z M89.1,189.6c-1.2-0.2-2.5-0.3-3.7-0.5c0.1-0.2,0.2-0.5,0.3-0.7
	c1.2,0.2,2.4,0.5,3.6,0.7C89.2,189.3,89.1,189.4,89.1,189.6z M186.4,156.5c-0.2-0.5-0.5-0.8-0.5-1.2c0-0.1,1-0.4,1.2-0.3
	c0.4,0.2,0.6,0.6,0.9,1C187.6,156.1,187.1,156.2,186.4,156.5z M75.7,137.6c-1.3-0.3-2.7-0.7-4-1c0.1-0.2,0.2-0.4,0.3-0.5
	c1.3,0.3,2.7,0.7,4,1C75.9,137.2,75.8,137.4,75.7,137.6z M100.6,196.1c0.9,0.2,1.9,0.3,2.8,0.5c-0.1,0.3-0.2,0.6-0.3,0.8
	c-0.9-0.2-1.9-0.5-2.8-0.7C100.4,196.5,100.5,196.3,100.6,196.1z"/>
<path class="st2" d="M609.5,123.4c0,0.9,0.3,1.6,0.5,2.3c0.1,0.7-0.6,2.1,1.1,1.4c0-1.1-0.1-1.9,0.2-2.8c0.4-0.9,1.4-1.8,2.4-2.8
	c-1.7-0.8-1.6-2-1-3.9c0.6-1.8,1.8-4.2,0.1-5.4c-0.3-0.3-0.1-0.9-0.3-1.5c0.3,0,0.6-0.1,0.9-0.1c0.5,0.5,1,0.8,1.8,1.5
	c1.4-3.5,0.8-6.4,3.2-9.9c0,0.9,0.3,1.3,0.2,2c-0.2,1.1-0.6,2.3-0.6,3.4c0.5,3.9,0.9,8-0.8,12.7c-0.1,0.3-0.3,0.7-0.3,0.9
	c1,1.7,0,4-0.5,6.1c-0.9,3.5-1,6.9-2.9,10c0.2,1.4,0.9,2.6,0.4,3.6c-1.2,2.7-2.8,5.4-4.4,8.2c-1.8-0.5-1.7-3-4.2-2.4
	c-0.4,1.3-1.1,2.7-1.4,4.1c-0.1,0.4-0.2,1.1-0.1,1.2c1.5,0.5,0.7,1.5-0.2,2.8c-0.6,0.8-0.6,1.8-1,2.8c0.9-0.2,1.5-0.5,1.9-0.6
	c0.6-1.1,1.2-2.1,1.8-3.1c0.2,0.1,0.4-0.1,0.6,0c-0.4-1.1-0.7-2.2-1.1-3.3c1.1,0,2-0.2,2.9-0.1c0.6,0.1,1.3,0.2,1.4,0.6
	c0.1,1.4,0.5,3.2-0.3,4.3c-1.1,1.7-1.6,3.2-2.1,4.8c-0.2,0.2-0.2,0.4-0.4,0.9c0.7-0.6,1.4-0.9,1.7-1.2c1.3,0.6,2.2,1.3,3.4,1.9
	c-0.8,0.7-1.5,1.5-2.2,2.2c0.2,0.4,0.3,1,0.7,1.5c-1.1,1.2-1.9,1.8-3.2,1.6c-0.6-0.1-1.3,0.3-2,0.6l2.8,3.2c-1.5,1.3-4.2,1.6-3.9,4
	c0.4,0.2,1,0.2,1.5,0.4c-1,1.2-1.6,2.4-2.9,1.5c-0.9-0.7-2-0.1-2.6,1.3c0.6,0.7,1.5,1.3,2,2.1c0.4,0.8,0.4,1.8,0.5,2.7
	c0,0.9,1.6,1.3,0,3c-0.7-1.2-1.3-2.4-4.1-0.8c1.4,0.8,2.5,1.8,3.8,2.2c0.7,0.1,1.9-1.1,3.4-1.9c0.4,0.3,0.9,0.8,1.4,1
	c-0.3,0.4-0.5,0.7-0.7,0.7c-2.5,1-3.2,3.3-4.8,5c-0.3,0.2-0.2,0.7-0.2,0.8c1.2,0.4,0.3,1.4-0.3,2c-0.8,0.9-1.7,1.8-2.4,2.6
	c0.7,0.6,1.3,1.2,1.9,1.9c0.1,0-0.2,0.4-0.6,0.9c-0.6-0.2-1.2-0.6-1.6-0.8c-2.1,1.7-2.5,2.3-1.8,2.9c0.9,0.7,2.2,1.1,3.4,1.9
	c0.1-1.3,0.2-2.2,0.2-3c0-0.1,0.4-0.2,0.4-0.2c0.5,0.7,1,1.5,1.7,2.5c-2.5,1.9-2.9,5.3-6.8,6.4c-0.3,0.1-0.9,1.1-1.6,2
	c2.1,0,4,0,6.3,0.1c-0.3-1.1-0.6-1.8-0.6-2.7c1.2-1.7,2.5-3.7,4.1-6.1c0.2,1.1,0.3,1.6,0.4,2.5c1.3-1,2.4-1.7,3.5-2.7
	c-0.1,0.6-0.1,1-0.1,1.4c1.3-0.7,1.9-1.8,1.5-2.6c-0.4-1.2,0.6-2,1.5-2.8c-0.2-0.4-0.5-0.7-0.7-1.1c-0.1-1.3,1.3-2.7,2.5-2.8
	c2.2-0.1,2.7-0.6,3.3-2.4c0.3-1,0.5-1.9,0.7-2.9c2.4-1.5,4.2-3.5,4.6-5.4c0.6-2.7,2.3-4.9,4.3-7c1.2-1.2,2.6-2.7,3.1-4
	c0.8-2,1.8-3.3,4.3-3.7c-0.9-1.7-0.3-4.2,1.6-6c1.3-1.2,1.9-2.2,2.2-3.5c1.2-3.2,2.5-6.5,4.1-9.6c0.7-1.5,1.1-1.7,2.4-0.9
	c1-0.6,1.3,0.1,1.6,0.6c1.8-1.4,3.2-2.9,3.6-4.9c0.3,0.9,0.4,1.7,0.8,2.5c1.1-0.4,2.1-0.9,3.2-1.3c-0.1,0.6-0.2,0.9-0.1,1.3
	c0,0.3,0,0.5,0,0.9c2.1-1.1,1.3-2.3,1.7-3.4c1.3-3,2.3-6.2,2.5-9.3c0-1.3,0.9-2.8,1.4-4.3c0.2-0.5,0.3-1,0.5-1.4
	c0.2-1.1,0.5-2.4,0.7-3.6c0.4-1.5,0.6-2.8,0.8-3.7c1.2-1.4,2.1-2.3,2.5-3.3c0.5-1.6-1.1-1.6-2.2-1.7c0.1-0.8,0.1-1.5,0.1-2
	c0.1-0.3,0.3-0.6,0.4-0.9c0.6,0.1,1.1,0.1,1.5,0.2c1.1-1.3,0.6-1.5-0.2-2c-1.4-0.9-1.2-2.2,0.6-4.3c-0.1-0.3-0.3-0.5-0.5-0.8
	c1.4-0.7,2.6-1.4,4.1-2.3c-1.6-0.5-1.1-3.2-4.3-1c0.5-2.8,0.8-5.2,1.2-7.6c0.2-1.1,0.4-2.3,0.6-3.4c0-2.7-0.1-5.3,0-8
	c0-1,0.8-2.4,0.3-3c-1.4-1.5-1.3-3.7-2-5.5c-0.1,0,0.1-0.3,0.3-0.6c0.6-0.2,1.3-0.4,1.7-0.5c1.4-2.7-1.9-2.4-1.9-4.3
	c0.7-0.6,1.6-1.2,2.5-1.9l-4.2-4.8c0,0,0,0,0,0.1c0,0,0,0-0.1,0c-1.1,0.5-1.6,0.2-1.7-0.8c1.2-0.2,1.9-0.2,1.7,0.8l0,0l0,0
	c0.3-0.3,0.5-0.6,0.9-0.9c-0.3-1-1.4-2-0.9-2.8c0.9-1.6,0-2.5,0.4-3.8c0.1-0.4-0.2-1.1-0.5-1.2c-0.3-0.1-1.1,0.4-1.4,0.6
	c-0.9-1-1.6-1.7-2.3-2.7c-0.7-0.8-1.6-1.4-2.1-2.2c-0.7-0.8-0.4-1.6,1-2.3c0.5-0.3,1.2-0.4,1.7-0.7c-0.5-1.7-0.5-1.7-2.6-2
	c-3-0.4-3.4-2.8-1.2-5.6c0.4-0.6,0.4-1.6,0.7-2.4c-2.5,1.1-4.6,0.7-5-0.6c-0.9-3.4-3.5-5.6-5.8-7.9c-0.4-0.4-1.1-0.6-1.2-1.1
	c-0.9-2.5-1.9-5-5.3-5.4c0.8-0.7,1.1-1.1,1.4-1.5c0.3-0.4,0.6-0.9,0.7-1.2c-1.6-0.7-1.6,1.3-2.7,1.9c-0.5-1.6,0.3-3.9-2-4.1
	c-0.6,0.3-1.3,0.7-2.2,1.2c0.9-2.1-0.4-2.9-1.4-3c-2.4-0.1-4.1-0.4-4.3-2.9c-0.1-1-0.8-1.7-1.4-2.5c-0.5-0.7-1-1.5-1.6-2.4
	c1.2-0.9,2.2-1.6,3.5-2.5c-0.5-0.7-0.7-1.9-1.4-2.2c-2.6-1.1-5.4-1.8-8.1-2.7c-2.7-0.9-5.4-1.8-8.4-2.6c-3.1-0.8-6.3-1.5-9.6-2.1
	c-4.8-0.7-9.7-1.5-15.3-0.5c-3.5,0.6-7.2,2-10.2,1.1c-0.7-0.3-2,0.4-3.1,0.5c-2.8,0.2-6.5,2.4-8.3,0c-0.1,0-0.4,0-0.5,0
	c-2.7,1-4.8,0.5-7,0.3c-3.3-0.3-6.2,1.7-9.2,3.1c-0.5,0.3-1.2,1.4-1.4,2.1c-0.3,0.6-0.3,1.2-0.5,2c-1.5,0.6-3,1.3-4.6,2
	c0.7,1.2,1.3,2.1,1.7,3.2c0.1,0.4,0.1,1.2-0.2,1.5c-0.3,0.4-1.2,0.6-1.7,0.5c-2.5-0.6-5.3,0.1-8.5,1.5c0.5,2.1-1,4.3-2.6,6.5
	c0.9,0.9,1.9,1.6,2.7,2.4c-0.3,0.2-0.3,0.4-0.5,0.5c-1.9-0.8-3.8-1.5-6-2.5c0,1.2,0,2.1-0.1,3.2c-3,0.4-5.8,0.2-8.2,3.6
	c1.9,1.9,4.1,3.7,6.1,5.7c0.1,0,0.2,0.1,0.3,0.1c1,0.6,2,1.2,2.8,1.9c2.5,2.2,4.9,4.5,7,6.9c1.3,1.6,2.2,3.6,2.6,5.8
	c0.3,1.9,0.8,3.8,1.9,5.3c0.2,0.4,0.4,0.6,0.6,1c0.1-0.1,0.3-0.1,0.3,0c7.4,3.4,13.8,8.2,19.7,13.3c0-0.1,0-0.1,0.3-0.2
	c0.4,0.2,1,0.2,1.5,0.3c3,1.6,5.9,3,9,4.5c1.1,0.5,2.1,1,3.4,1.3c1.5,0.5,3.6,0.2,3.6,2.5c0.1,0.3,0.5,0.5,0.8,0.6
	c2.4,1.2,4.9,2.3,7.2,3.5c-0.6,1.8-1.4,3.6-2,5.2c1.1,0.8,1.5,2.1,1.8,3.5c0.2,1.2,0.7,2.2,1.1,3.2c0-0.5,0.2-1,0.3-1.6
	c2.4-0.3,2.6,0.1,1.4,2.1c0.7,0.3,1.5,0.6,2.6,1.1c-1,0.6-1.9,0.9-2.4,1.1c1,1.4,2,2.7,2.4,4.3c2.1-0.7,3.3,0.7,5.3,0.3
	c0.8-0.1,1.5,0.1,2.5,0.1c-0.6-2,2.3-2.1,2.5-4.1c0.6,0.8,0.7,1.2,1,1.7c1.2-0.6,2.7-2.6,3.6-0.7c-0.3,0.2-0.5,0.4-0.5,0.6
	c-0.2,0.3-0.4,0.6-0.9,1.2c3.7-2,4.1-3.3,2-6.5c2.8-0.2,2.3,1.9,2.9,3.6c1.8-2.7,0.7-4.5,1-6.6c1.1,0.7,1.3,1.8,1.3,3.1
	c-0.1,1.2-0.2,2.8,0.4,3.5c1,1.1,0.8,2.2-0.3,3.8c-0.6,0.8-1.8,1.9-0.5,2.6c1.2-1.1,2.5-1.6,3.5-0.6c-0.9,3.3,1.5,6-1.5,9.7
	c0.4,0.9,1.5,1.5,1.3,2.4C611.8,117.1,611.8,120.3,609.5,123.4z M603.6,198.9c-0.2-0.1-0.5,0-0.7-0.2c-0.2-0.2-0.1-0.4-0.2-1.1
	c0.5,0.4,0.9,0.4,1,0.5C603.8,198.5,603.7,198.7,603.6,198.9z M606.6,195.9c-1.7,0.6-2.2,0.2-1.6-1.4
	C605.6,195.1,606.1,195.4,606.6,195.9z M603.4,179c0.1-0.4,0.2-0.8,0.3-0.9c0.4-0.2,0.7-0.3,1.2-0.4c0,0.3-0.1,0.6-0.1,0.9
	C604.2,178.9,603.9,178.9,603.4,179z M650.7,140.5c-0.1,0.3-0.2,0.8-0.4,1.1c-0.3,0.2-0.6,0.2-1.4,0.4c0.3-0.6,0.4-0.9,0.6-1.1
	C649.9,140.7,650.2,140.7,650.7,140.5z M643.9,147.1c-1.5-0.7-0.5-1.8-0.2-2.5c0.3-0.1,0.4-0.1,0.6-0.1
	C644.2,145.1,644.1,145.9,643.9,147.1z M647.2,141.7c0,0.4-0.1,0.9,0,1.2c-0.3,0.1-0.6,0.2-0.8,0.2c0-0.5,0.1-1,0.2-1.4
	C646.9,141.8,647,141.7,647.2,141.7z M610.7,174.3L610.7,174.3c0.1,0.1,0.1,0.1,0.1,0.1c0.7,0.3,1.5,0.6,2.3,0.8
	c-1.3,3.8-3.4,5.5-7.3,6.1c0.8-2.2,2.7-2.9,4.7-3.4c0.2-1.2,0.2-2.3,0.3-3.5h-0.1C610.5,174.4,610.7,174.3,610.7,174.3
	c0.1-0.6,0.2-1.3,0.4-2.5C612,172.9,611.1,173.6,610.7,174.3z M617.3,162.5c-0.3,0.6-0.4,0.9-0.6,1.2c-0.2-0.1-0.6,0-0.7,0
	c0-0.3,0-0.5,0.2-0.8C616.6,162.6,616.8,162.7,617.3,162.5z M657,111.6c0.5,0.4,1.3,0.4,1.6,1c0.5,1-0.4,3.8-1.4,5.4
	c-0.3-2-0.5-3.9-0.7-5.9L657,111.6z M615.2,147.3c0.7,2.4-1.4,4.5-3.1,7c-2-2,3-4.4,0.6-5.9C613.9,147.7,614.5,147.5,615.2,147.3z
	 M617.4,133c-0.1,0.9,1.3,1.2,0,2.7c-1,1,0.6,2.3-2.1,3.6c0.6-2.3,1.1-4.2,1.5-6.1C617.1,133.1,617.3,133.1,617.4,133z M618.3,128.1
	c0.1,0.3,0.3,0.6,0.2,1c0,0.3-0.3,0.7-0.5,1c-0.2-0.1-0.3,0-0.6-0.1c0.1-0.6,0.3-1.2,0.5-1.9C617.9,128.2,617.9,128.3,618.3,128.1z
	 M535.4,40.3c-0.4-0.7-0.9-1.3-1.3-2.1c0.3-0.2,0.3-0.3,0.6-0.4l1.5,1.9C536,39.9,535.7,40.1,535.4,40.3z M613.6,105.8
	c0.2-0.5,0.5-0.9,0.7-1.5c0.2,0.1,0.5,0,0.6,0.1c-0.1,0.4-0.4,0.9-0.5,1.4C614.1,105.8,613.8,105.8,613.6,105.8z M542.1,257.2
	c-0.2-1.3-1.6-2.1-0.7-4c-0.1-0.1-1.2-0.4-1.9-0.6c-0.2,0.6-0.3,1,0,1.1c0.8,0.3,0.5,1-0.2,1.6c-0.9,0.8-1.4,0.5-1.6-0.2
	c-0.2-0.6-0.2-1.3-0.3-2.1c3.2-1.8,6.2-3.3,9.2-4.2c0.2,0.2,0.1,0.4,0.4,0.5c-1,1-1.7,2-2.7,3.1c2.2-1,4.2-1.8,6.6-3
	c-0.5-0.5-0.9-0.5-1.2-0.8c-0.2-0.2-0.4-0.6-0.4-0.6c1.4-1.2,2.5-2.2,3.6-3.1c1.2-0.9,2.3-1.7,3.8-2.7c-1.2-0.3-1.9-0.5-2.7-0.7
	c-0.3,0.6-0.6,1.1-1.1,1.8c-2-1.4-4,1.9-6.2,1.4c0.1,0.9,0.3,1.3,0.3,1.9c-1.2,0.7-2.1,1.2-3.2,1.9c-2.7,1.6-3.6,1.3-3.6-1.7
	c2-1.1,4.2-2.2,6.1-3.5c2.1-1.4,4.1-3.1,6.4-4.7c2.4,0.5,2.8,0.2,3.9-2c0.4-0.8,1-1.7,1.7-2.4c1.1-1.2,2.4-2,3.5-3.1
	c2.7-2.8,5.6-5.2,9.2-7c-0.3-0.9-0.6-1.8-0.8-2.9c-2.7,2.4-6.2,3-8.5,6c0.5,2.3,0.5,2.5-1.2,4.1c-1.9,1.8-3.8,3.6-6.3,2.5
	c-1.4,3.7-4.5,5.3-7.6,7c-1.8,1.1-3.9,2-5.4,3.4c-2.2,2.3-4.6,2.5-7,3.6c-0.4,0.2-0.9-0.2-1.5-0.3c3.1-2.7,6.1-4.3,9.2-5.9
	c1.1-0.5,2.9-1.4,3.2-2c0.7-1.4,1.4-1.6,2.5-1.9c1.1-0.3,2-0.6,3-1.9c-2-0.6-4.1,0.5-5.5,1.7c-2.7,2.2-5.3,3.1-8.2,3.4
	c-0.1,0.1-0.3,0.3-0.6,0.5c0.9,2.3-0.1,3.8-3.2,4.6c-0.3,0.1-0.4,0.1-0.6,0.1c-1-0.1-1.6,0.2-2.5,1.2c-0.8,0.9-2,1.6-3.2,2.3
	c-4.2,2.5-8.3,5.1-12.6,7.5c-6.9,4-13.9,5.7-20.8,7.7c-0.3,0.1-0.9-0.2-1.2-0.4c1.9-0.9,3.5-1.2,5.1-1.7c1.7-0.5,3.1-1.6,4.5-3.3
	c-1.3,0.6-2.3,0.9-3.2,1.3c-2.1,0.7-4.1,1.6-6.3,2.4c-4.4,1.4-8.9,3.5-13.3,4.7c-7.7,2.1-15.2,3.5-22.9,5c-9.7,2-19.4,3.8-28.8,4.3
	c-1.3,0.1-2.6,0.8-3.9,2.1c0.8,0.2,1.4,0.3,1.9,0.3c8.9,1.2,19-0.3,28.6-0.7c2.5-0.1,5.4-0.7,7.9-1c2.8-0.3,5.5-0.7,8.3-1
	c2.5-0.3,4.9-0.5,7.3-0.7c3-0.4,5.8-0.6,8.9-1c2.4-0.3,5-0.4,7.5-1.4c2.9-1.2,5.4-1.1,8.4-1.9c0.9-0.2,1.9,0.2,2.6,0.4
	c1.9,0.9,4.3,0.4,7.1-0.4c-1.6-0.8-2.8-1.2-4.3-2.1c0.9-0.8,1.6-1.6,2.1-1.8c3-1.1,5.8-1.6,7.4,0.8c2.9-2.3,5.3-2.8,7.5-1.6
	c0.3-0.2,0.3-0.4,0.5-0.5c-0.6-1-1-2-1.7-3.4c1.9-0.8,3.5-1.4,5-2.1c1.1-0.5,2-0.8,2.6,0.1c0.7,1,1.9,0.7,3.9,0
	c-1.3-0.5-2.9-0.2-2.3-2.2c1,0.8,2.1,0.5,3.5-0.4c1.1-0.7,2.6-0.8,3.6-0.7c0.5,0,0.7,1.1,1,1.6C542.4,258.7,542.2,257.9,542.1,257.2
	z M528.9,250.2c0.1-0.3,0-0.5,0.2-0.7c0-0.1,0.5-0.2,0.6-0.2c0.1,0.2,0.1,0.3,0.2,0.7C529.4,250.1,529.2,250.1,528.9,250.2z
	 M533.8,254.5c-2.6,0.4-5.4,3-7.8,2.2c3.1-1.8,6.1-4.3,9.6-3.7C534.8,253.5,534.1,254.4,533.8,254.5z M536.9,251.3
	c0.2-0.2,0.3-0.6,0.4-0.8c0.6,0.1,1,0,1.5,0.2c0,0-0.2,0.5-0.3,0.7C537.9,251.5,537.4,251.4,536.9,251.3z M534.4,257.2
	c-0.3-0.1-0.5-0.3-0.7-0.7c1.4-0.9,2-0.8,2.3,0.5C535,257.2,534.7,257.3,534.4,257.2z M599.8,172.5c-2.8,0.8-4.5,2.6-6.6,7.3
	c-0.3-1-0.9-1.7-2.4-0.6c-0.1-0.4-0.3-0.9-0.6-1.6c3-0.4,4-2.5,5.4-4.3c1.7-1.9,3.1-3.6,4.8-5.8c-0.5-0.5-1-1.1-1.7-1.9
	c0,1.1,0,1.8-0.1,3c-1-0.3-1.5-0.5-2.5-0.8c-0.6,1.3-1.2,2.5-2,3.9c-0.2-0.6-0.6-1.2-0.4-1.5c1.9-2.3,3.9-4.5,5.6-6.5
	c2.2,0.6,4.1,1.1,5.9,1.7c0.9,0,1.5-2.3,2.8-1.4c-0.8,1.1-1.6,2.2-2.4,3.4l0-0.1c-1.1,0-2.2,0.1-3.7,0.2c-0.5,0.5-1.4,1.6-2.2,2.5
	c0.7,1.2,1.4,2.1,2.2,3.4c-1.2,0.7-2,1.1-3.5,2C599,174.1,599.5,173.3,599.8,172.5z M562.9,251.5c-0.5,0.7-1.2,1.5-2.2,2.5
	c-2-1.2-3.8-2.3-6.8-1.3c-0.3,0.1-0.3,0.1-0.6,0.2c-1.4,0.1-2.7,2-4.4,1.7c-1.1-0.2-2.8,0.4-4.4,0.7c0.7-1.8,2.8-2.7,3.8-2.7
	c2.5,0.1,4.5-1.5,6.7-2.6c1.5-0.7,2.5-1.3,4.1-1.1c1.4,0.2,3.4-0.6,5.1-1c0,0.3,0,0.4,0.1,0.6c-1.2,0.5-2.3,1-3.6,1.6
	C559.6,252.7,562.6,250.3,562.9,251.5z M669.7,91.7c-0.3,1-0.3,2-0.8,2.6c-0.5,0.5-1.7,0.6-1.8,1.5c0,0.7,0.5,1.3,0.8,2
	c1.7-1.9,3.1-2.4,3.9-1.4c0.4,0.7,1.1,0.8,2.1,0.6c0.3-0.1,0.7,0.3,1,0.4c0.8-0.3,1.7-0.5,2.8-1c-0.2-0.4-0.4-1.2-0.5-1.2
	c-1.8,0.5-1.6-0.5-1.7-1.5c-0.2-1.1,0-2.2-0.1-3.6c-1.5,1.5-2.6,2.6-4,3.8C670.9,93.3,671.5,91.8,669.7,91.7z M673.5,94.3
	c0.1,0.2,0.2,0.4,0.1,0.7c0.1,0.1-0.4,0.2-0.9,0.5c0-0.3-0.1-0.6,0.1-0.8C672.8,94.5,673.4,94.2,673.5,94.3z M591.8,218.8
	c0.4-3,2.5-4.7,5.2-4.4c0.9,0,2.3-0.5,3.4-0.8c0,0.3,0,0.4,0.1,0.4C597.7,215.8,595.6,220,591.8,218.8z M608.5,137.6
	c0.4,0.7,0.9,1.3,1.3,2.1c-0.7,0.9-1.4,1.8-2.3,2.8c-1.2-2.8,0.4-6,1.1-9.2c2-0.3,2.6,0.5,2.9,1.6
	C611.5,136.7,609.3,136.4,608.5,137.6z M572.1,240.2c1,1,2.3,1.8,4.3,1c-0.6,2.9-0.6,2.9-3.4,3.7c0.5-0.9,0.8-1.6,1.4-2.5
	c-1.2,0.2-2.1,0.5-3.3,0.7C571.5,242.2,571.8,241.2,572.1,240.2z M591.4,211.9c-0.6,0-1.6-0.3-1.7-0.8c-0.1-0.4,0.3-1.6,0.9-2.1
	c0.8-0.7,1.7-1.1,3.5-2.2c-0.3,1.6-0.4,2.5-0.8,3.6C592.7,211,591.7,211.8,591.4,211.9z M674.8,97.7c-0.1,0.7-0.1,1.5,0,2
	c-1.1,1.2-2.7,1.6-2.8,3.3c0,0.4-1.7,1.5-3.1,2.8C670.2,102.6,670.9,99.6,674.8,97.7z M565.6,246.9c0-1,0-1.8-0.1-3.1
	c1.7,1.2,4.8-0.3,6,2.1C569.3,246.3,567.6,246.6,565.6,246.9z M587.8,182.4c1-1.1,2-2.1,2.8-3.1c-0.7,2.4-2.2,4.3-4.5,5.9
	c-1.8-0.4-3.5-0.8-5.1-1.1c1-0.3,1.9-1.3,2.8-0.5C584.9,184.5,586.4,183.9,587.8,182.4z M581.3,208.5c-0.2-1.7-0.3-3.3-0.6-4.8
	c0-0.1,0.3-0.3,0.3-0.3c1.2,0.9,2.5,1.9,3.9,2.9C583.4,207.2,582.3,207.9,581.3,208.5z M599.3,108c-3.5,1.7-4.8,0.6-6.2-1.2
	C596,105.9,597,107.6,599.3,108z M645.8,21.8c-1.5-1-2.7-1.7-3.9-2.6c2.4-1.9,3.1-0.6,4.4-0.1C647.1,19.8,646.6,20.8,645.8,21.8z
	 M567.3,240c0.2-1.1,0.4-1.9,0.4-2.5c0.9,0,1.7,0.1,2.4-0.1c1-0.4,1.9-1,2.4,0.1C571,238.2,569.3,239,567.3,240z M610.1,104.9
	c-1,1.4-1.5,2.2-2.2,3.3c-2.1,0.9-2.9-0.7-5-1.1c1-0.3,1.7-0.8,2.3-0.8C607.7,106.5,607.5,106.6,610.1,104.9z M656.6,37.2
	c0.6,1.4,1.2,2.4,1.8,3.3c-0.6,1.2-1,2.4-1.4,3.6c-0.3,0.1-0.3,0.1-0.6,0.2C656.5,42,656.6,39.9,656.6,37.2z M575.5,212.8
	c-0.6,0.4-1.1,0.8-2.2,1.5c0.4-1,0.8-1.7,1.2-2.4c0.9-0.2,1.9-0.4,2.4-0.9c0.6-0.4,0.3-1.4,1.6-1c-1,1.5-2.1,3.1-3.1,4.5
	c-0.1,0.1-0.3-0.1-0.4,0C575.1,214,575.4,213.5,575.5,212.8z M644.2,149.1c0.3,0.5-0.1,1.9,1.6,0.6c-0.1,0.6-0.2,1.2-0.2,1.9
	c-1.2,0.5-2.2,0.8-3.2,1.2C642,150.8,642.3,150.4,644.2,149.1z M589.8,198.9c0.4,0.3,1,0.4,1.6,0.6c-0.2,0.2-0.3,0.6-0.4,0.8
	c-1-0.4-3,1.2-3.4-0.4c-0.1-0.5,0.6-1.5,1.1-2.6C589.1,198.1,589.2,198.6,589.8,198.9z M666.1,109.8c0.3,0.9-0.1,2.3-0.2,3.5
	c-0.3,0.1-0.3,0.1-0.6,0.2c-0.3-1.3-0.5-2.8-0.8-4.1c-0.1-0.4-0.5-0.8-0.7-1.2C665.6,107.7,665.9,109,666.1,109.8z M671.8,84.1
	c0.8-0.5,1.7-1.1,3.3-1.9c-0.2,1-0.2,1.7-0.4,2.5C673.3,84.8,671.8,85.7,671.8,84.1z M669.1,107.5c0.8,0.1,1.4,0.3,1.9,0.4
	c-0.4,0.7-0.8,1.3-1.3,2c-0.4,0.5-0.7,1.1-1.3,2C667.9,110.3,668.6,109,669.1,107.5z M667.8,82.6c0,1.9,0.1,3.1,0.3,4.6
	C665.7,86.3,665.7,85.9,667.8,82.6z M595.8,113.1c-0.6,0.2-1,0.2-1.6,0.4c0.4-1.7,1.7-2.7,2.6-2.3c0.7,0.2,0.5,1.1-0.3,1.7
	C596.4,112.9,596,113.1,595.8,113.1z M592.3,170.3c-1.9,3.5-1.9,3.6-3.5,2.4C589.9,172,590.8,171.4,592.3,170.3z M588.1,194.6
	c-1.3,1-2.4,1.7-3.5,2.6C586.1,194.2,586.1,194.2,588.1,194.6z M589.9,187c-0.4-1.2-0.8-1.9-1.2-3.1c1.2,0.2,2.1,0.5,2.9,0.7
	C591.2,185.3,590.8,185.9,589.9,187z M574.7,237.8c0.9,0,1.5,0.1,2.8,0.2c-1.7,1.5-2.6,2.1-3.4,1.4
	C574,239.1,574.5,238.5,574.7,237.8z M633.2,15c-0.8-0.6-1.5-1-2.4-1.6c0.6-0.5,1-0.8,1.9-1.6C632.7,13.2,634.3,13.3,633.2,15z
	 M596.3,182.3c0.6-0.9,1.1-1.8,1.8-2.9C598.9,180.7,598.9,180.7,596.3,182.3z M651.1,148.2c-0.6,1.2-1.1,2.4-1.6,3.7
	C648.8,151.1,649,150.2,651.1,148.2z M666.5,58.6c0.2-0.3,0.4-0.5,0.6-0.8c1.4-0.5,1.9-0.1,2.3,1.7
	C668.1,58.9,667.4,58.7,666.5,58.6z M599.5,162.1c-1.2,0.6-2.3,1.1-3.5,1.8C597.2,161.8,598.1,161.3,599.5,162.1z M638.4,16.5
	c-1-0.4-2.1-0.8-3.5-1.4C637.1,14.5,638.3,14.8,638.4,16.5z M594.5,181.4c0.4-1.9,0.4-1.9,2.6-2.6
	C596.4,179.5,595.5,180.3,594.5,181.4z M579,215c-1.2,0.6-2,0.9-2.9,1.4C577.2,213.9,577.2,213.9,579,215z M598.5,188.1
	c-0.1,0-0.1,0-0.1-0.2C598.5,188,598.5,188,598.5,188.1L598.5,188.1c1.2-0.2,1.2-0.2,1.5,1.1c-0.6,0.3-1.4,0.7-2,1
	c-0.1-0.1-0.1-0.3,0-0.4C598,189.1,598.3,188.7,598.5,188.1z M674.7,110.2c0.1,0.2,0.1,0.3,0.2,0.4c-0.7,0.5-1.3,1.1-2.2,1.7
	C672.4,110.6,673.8,110.5,674.7,110.2z M671.6,111c0-1.4-0.1-2.1-0.1-2.9c0.7,0,1.3,0.2,2.1,0.3C672.9,109.2,672.5,109.7,671.6,111z
	 M625.1,182.8c0.2-0.8,0.5-1.6,0.8-2.5C627.1,181.4,627.1,181.4,625.1,182.8z M593.4,198c0.1-0.9,0.1-1.7,0.1-2.6
	C595.3,196.1,595.3,196.1,593.4,198z M549.5,262.8c-0.8-0.6-1.3-0.9-1.8-1.2c0.2-0.2,0.3-0.4,0.5-0.7
	C549.3,260.8,550.3,260.8,549.5,262.8z M648.1,23.3c0.2-0.2,0.2-0.4,0.4-0.8c1.2-0.4,1.6,0.4,2.4,0.6c-0.2,0.2-0.2,0.4-0.3,0.6
	C649.7,23.7,648.9,23.5,648.1,23.3z M668,99.6c-0.1,0.9-0.1,1.9-0.1,2.8c-0.3,0-0.6,0.2-0.9,0.2c0.1-1,0.2-1.9,0.3-2.9
	C667.4,99.7,667.7,99.7,668,99.6z M605.8,114.4c0.9,0,1.8,0,3.4,0C607.2,115.6,606.5,115,605.8,114.4z M560.6,235.2
	c0.4,0.3,0.7,0.6,1.1,0.9c0,0-0.4,0.5-0.5,0.4c-0.6-0.1-1-0.2-1.5-0.3C560,235.8,560.3,235.6,560.6,235.2z M671.4,108
	c-0.1,0-0.2-0.2-0.2-0.2c0.5-1.2,0.6-2.3,2.6-2C673.3,106.9,672.2,107.4,671.4,108z M578.1,189.5c-0.6,0.2-1.2,0.2-1.8,0.4
	c0.1-0.3,0.1-0.6,0.2-0.9c0.6-0.1,1.1-0.2,1.7-0.3C578,188.8,578,189.2,578.1,189.5z M573.5,225.8c0.6-1.2,0.8-1.8,1.2-2.8
	C575.9,224.1,575.1,224.7,573.5,225.8z M600.8,225.7c-0.3,0.1-0.5,0.2-0.7,0.3c-0.1-0.4-0.3-0.9-0.4-1.4c0.4-0.2,0.7-0.3,1-0.4
	C600.8,224.7,600.8,225.1,600.8,225.7z M585.3,234.9c0.6-0.6,1.1-1.1,1.7-1.5c0.1,0.2,0.2,0.2,0.4,0.4c-0.6,0.6-1.2,1-1.8,1.6
	C585.4,235.1,585.3,235,585.3,234.9z M644,155.8c-0.5,1.2-0.7,1.8-1,2.4C641.9,157.5,642.4,157,644,155.8z M580,186.9
	c0.7,0.3,1.6,0.5,2.7,1C580.6,189,580.7,187.5,580,186.9z M601.6,102.4c-1.1,0.4-1.6,0.8-2.4,1.1
	C599.7,102.2,599.7,102.2,601.6,102.4z M579.6,227.4c-0.1-0.4-0.5-0.7-0.7-1.2c0.3-0.2,0.3-0.3,0.6-0.5c0.2,0.2,0.5,0.3,0.6,0.6
	c0,0.3,0,0.5,0,0.7C580.1,227.1,579.9,227.2,579.6,227.4z M592.1,215.3c-0.1,0.1-0.3,0.1-0.6,0.2c0.1-0.7,0.1-1.3,0.2-2
	c0.3,0,0.4-0.1,0.7-0.1C592.3,214,592.3,214.6,592.1,215.3z M562.3,256.6c-0.3-0.4-0.6-0.7-1-1.1
	C563.1,254.8,563.1,254.8,562.3,256.6z M569.4,247.7c0.1,0.2,0.1,0.4,0.3,0.5c-0.5,0.3-1.1,0.8-1.7,1.2c-0.2-0.2-0.1-0.4-0.4-0.5
	C568.3,248.4,568.9,248,569.4,247.7z M669.3,42.7c0.6,0.4,1.3,0.6,2.1,1.1C669.7,44.4,669,44.3,669.3,42.7z M594.9,204.2
	c-0.2-0.2-0.3-0.3-0.5-0.5c0.5-0.5,1-1.1,1.5-1.6c0.1,0.2,0.4,0.1,0.4,0.3C595.9,203.1,595.4,203.6,594.9,204.2z M675.2,87.9
	c-0.3-0.6-0.5-1.3-0.8-1.9c0.3-0.2,0.4-0.2,0.5-0.3c0.4,0.5,0.7,1.2,1,1.7C675.7,87.6,675.4,87.8,675.2,87.9z M667.1,74.9
	c-0.3-0.7-0.5-1.4-0.8-2.2c0.3-0.1,0.4-0.2,0.6-0.3c0.3,0.8,0.4,1.7,0.7,2.4C667.5,74.8,667.3,74.9,667.1,74.9z M593.5,117
	c0.1-0.6,0.1-1.3,0.4-2.4C595.2,115.6,594.5,116.3,593.5,117z M658.7,40.3c0.4-0.5,0.8-1.1,1.1-1.6c1.2,0.2,0.5,1.2-0.1,1.8
	C659.5,40.7,659,40.3,658.7,40.3z M590.8,103.6c0.1,0.1-0.9,0.5-1,0.3c-0.2-0.2-0.1-0.7-0.1-1.3c0.6-0.1,1.3-0.3,1.4-0.3
	C591.2,102.7,591,103.2,590.8,103.6z M611.4,204.9c-0.1,0,0-0.5,0.1-0.9c0.5,0,0.9-0.1,1,0c0.1,0.2,0,0.5-0.2,0.8
	C612.1,204.8,611.7,204.9,611.4,204.9z M549.1,258.1c-0.2,0.2-0.2,0.5-0.3,0.7c-0.6-0.1-1.2,0-1.7-0.1c0.2-0.2,0.1-0.4,0.2-0.6
	C548,258.1,548.6,258.2,549.1,258.1z M590.7,221.8c-0.3-0.3-0.7-0.4-1.1-0.7c0.3-0.3,0.5-0.4,0.8-0.7c0.2,0.4,0.7,0.5,0.9,0.9
	C590.9,221.4,590.9,221.6,590.7,221.8z M609.3,206.4c0.9-0.1,2-0.4,1.5,1.3C610,207.2,609.6,206.9,609.3,206.4z M663.1,49.6
	c-0.4-0.3-0.7-0.6-1-0.9c0.3-0.2,0.3-0.3,0.6-0.6c0.3,0.4,0.5,0.7,0.9,1C663.6,49.2,663.1,49.6,663.1,49.6z M642.9,164.1
	c0.3-0.6,0.6-1.2,0.9-1.8c0.1-0.1,0.3,0,0.5,0c-0.2,0.6-0.5,1.3-0.6,1.8C643.3,164.2,643,164.2,642.9,164.1z M584.2,228
	c0.2-0.4,0.2-0.8,0.5-0.9c0.3-0.2,0.6-0.2,0.7-0.1c-0.1,0.3-0.1,0.6-0.3,0.7C584.9,227.9,584.7,227.9,584.2,228z M619.3,193.6
	c-0.1-0.3,0-0.5,0.1-0.9c0.1-0.1,0.5-0.2,0.6-0.2c0.2,0.2,0.2,0.4,0.4,0.9C619.7,193.5,619.3,193.7,619.3,193.6z M598.4,187.9
	c-0.7-0.3-1.4-0.5-2-0.8C597.7,186.4,598,187.4,598.4,187.9z M673.1,119.4c-0.1-0.4-0.3-0.9-0.4-1.3c0.3-0.1,0.4-0.2,0.5-0.3
	c0.1,0.4,0.3,0.9,0.3,1.4C673.3,119.3,673.1,119.4,673.1,119.4z M544.6,259.3c0,0.3,0.1,0.3,0.1,0.4c-0.5,0.3-1.1,0.5-1.9,0.9
	c0-0.3-0.1-0.3-0.1-0.4C543.3,260,544.1,259.6,544.6,259.3z M581.2,201.1c-0.1,0.3-0.1,0.6-0.3,0.9c0,0.1-0.4,0.2-1.1,0.4
	C580.6,201.8,580.9,201.5,581.2,201.1z M596.1,187.3c-0.6,0.5-1.2,0.9-1.9,1.5C594.5,187,595.4,187.2,596.1,187.3z M521.8,272.3
	c-0.3,0.1-0.5,0-0.9,0c0.1-0.3,0.1-0.6,0.2-0.8c0.3,0,0.6,0,1,0.1C522.2,271.6,521.9,272.1,521.8,272.3z M665.9,97.9
	c0.1,0.2,0,0.5-0.2,0.7c0,0.1-0.3,0.1-0.9,0.2c0.2-0.5,0.2-0.8,0.4-1C665.6,97.8,665.9,97.8,665.9,97.9z M588.6,208.5
	c0.1,0.3-0.1,0.6-0.2,1.2c-0.4-0.2-0.7-0.2-0.7-0.3c0-0.3,0-0.5,0.2-0.8C588.1,208.5,588.6,208.4,588.6,208.5z M597.6,206.4
	c-0.1,0.1-0.3,0-0.4,0c0.2-0.4,0.5-0.9,0.6-1.3c0.1-0.1,0.2,0.1,0.3,0C597.9,205.6,597.7,206,597.6,206.4z M566,232.5
	c-0.1,0,0-0.3-0.1-0.3c0.5-0.3,0.9-0.6,1.5-0.9c0,0.3,0,0.4,0.1,0.6C567,232,566.5,232.3,566,232.5z M587.5,222.4
	c0.2,0.4,0.6,0.6,0.8,0.8c-0.3,0.2-0.3,0.3-0.6,0.4c-0.2-0.4-0.6-0.6-0.8-0.8C587.2,222.7,587.5,222.4,587.5,222.4z M529.5,262.5
	c0.1,0,0,0.5-0.2,0.5c-0.3,0.1-0.6,0.1-1.2,0.2c0.2-0.5,0.3-0.7,0.5-0.9C529,262.4,529.3,262.4,529.5,262.5z M590.9,105
	c-0.2,0.2-0.1,0.4-0.2,0.6c-0.5,0-0.9,0-1.5,0c-0.1-0.1,0.1-0.3,0.2-0.5C589.8,105,590.3,105,590.9,105z M573.5,192.3
	c0,0.1-0.4,0.1-0.5,0c0-0.3,0-0.5,0.1-0.8c0.4,0,0.7,0,0.7,0.3C574.1,191.7,573.7,192.1,573.5,192.3z M592.1,188.7
	c-0.1,0-0.4-0.1-0.4-0.1c0.3-0.4,0.5-0.8,0.8-1.1c0.1,0.2,0.3,0.1,0.3,0.3C592.8,188,592.4,188.3,592.1,188.7z M511.9,256
	c0.1,0.1-0.1,0.3-0.3,0.6c-0.3,0-0.5,0-0.8,0.1c-0.1-0.1,0.2-0.5,0.2-0.5C511.3,256.1,511.7,256.1,511.9,256z M653,27.3
	c-0.1-0.1,0.2-0.3,0.4-0.5c0.4,0.1,0.7,0.3,1,0.4c0.1,0.1-0.2,0.3-0.2,0.4C653.7,27.6,653.3,27.5,653,27.3z M569.6,217.1
	c0.3-0.1,0.6-0.2,0.8-0.2c0.1,0.1-0.1,0.4-0.2,0.5c0,0.1-0.3,0.1-0.6,0.2C569.6,217.4,569.6,217.3,569.6,217.1z M599.5,116.1
	c-0.2,0.2-0.4,0.5-0.5,0.7c0,0.1-0.3-0.1-0.5-0.2c0.3-0.3,0.5-0.4,0.8-0.7C599.2,115.9,599.5,115.9,599.5,116.1z M593.1,194.3
	c-0.5,0.2-0.9,0.4-1.2,0.5c0.2-0.2,0.4-0.5,0.7-0.7C592.6,194.1,592.8,194.2,593.1,194.3z M558.2,222.7c0.1-0.3,0.2-0.6,0.4-0.8
	c0-0.1,0.4-0.1,0.6,0c-0.2,0.2-0.4,0.5-0.5,0.8C558.7,222.8,558.5,222.7,558.2,222.7z M596.6,184.9c0.3,0,0.7,0,1,0.1
	c0.1,0-0.2,0.5-0.5,0.9c-0.4,0-0.8-0.1-0.9-0.4C596.3,185.5,596.5,184.9,596.6,184.9z M659.7,45.5c0.3-0.2,0.5-0.4,0.5-0.6
	c0.4,0.1,0.5,0.5,0.9,0.6c0,0.1-0.2,0.3-0.3,0.4C660.3,45.8,659.9,45.6,659.7,45.5z M579.4,80.5c-0.6,0.4-1.1,1.2-1.6,1.2
	c-1.7,0-3.4-0.1-5,0c0.1-0.3,0.1-0.6,0.4-0.9c1.7-0.4,3.5-1,5.2-1.2C578.8,79.3,579,80.1,579.4,80.5z"/>
<path class="st2" d="M613.8,139c0,0.9,0.3,1.6,0.5,2.3c0.1,0.7-0.6,2.1,1.1,1.4c0-1.1-0.1-1.9,0.2-2.8c0.4-0.9,1.4-1.8,2.4-2.8
	c-1.7-0.8-1.6-2-1-3.9c0.6-1.8,1.8-4.2,0.1-5.4c-0.3-0.3-0.1-0.9-0.3-1.5c0.3,0,0.6-0.1,0.9-0.1c0.5,0.5,1,0.8,1.8,1.5
	c1.4-3.5,0.8-6.4,3.2-9.9c0,0.9,0.3,1.3,0.2,2c-0.2,1.1-0.6,2.3-0.6,3.4c0.5,3.9,0.9,8-0.8,12.7c-0.1,0.3-0.3,0.7-0.3,0.9
	c1,1.7,0,4-0.5,6.1c-0.9,3.5-1,6.9-2.9,10c0.2,1.4,0.9,2.6,0.4,3.6c-1.2,2.7-2.8,5.4-4.4,8.2c-1.8-0.5-1.7-3-4.2-2.4
	c-0.4,1.3-1.1,2.7-1.4,4.1c-0.1,0.4-0.2,1.1-0.1,1.2c1.5,0.5,0.7,1.5-0.2,2.8c-0.6,0.8-0.6,1.8-1,2.8c0.9-0.2,1.5-0.5,1.9-0.6
	c0.6-1.1,1.2-2.1,1.8-3.1c0.2,0.1,0.4-0.1,0.6,0c-0.4-1.1-0.7-2.2-1.1-3.3c1.1,0,2-0.2,2.9-0.1c0.6,0.1,1.3,0.2,1.4,0.6
	c0.1,1.4,0.5,3.2-0.3,4.3c-1.1,1.7-1.6,3.2-2.1,4.8c-0.2,0.2-0.2,0.4-0.4,0.9c0.7-0.6,1.4-0.9,1.7-1.2c1.3,0.6,2.2,1.3,3.4,1.9
	c-0.8,0.7-1.5,1.5-2.2,2.2c0.2,0.4,0.3,1,0.7,1.5c-1.1,1.2-1.9,1.8-3.2,1.6c-0.6-0.1-1.3,0.3-2,0.6l2.8,3.2c-1.5,1.3-4.2,1.6-3.9,4
	c0.4,0.2,1,0.2,1.5,0.4c-1,1.2-1.6,2.4-2.9,1.5c-0.9-0.7-2-0.1-2.6,1.3c0.6,0.7,1.5,1.3,2,2.1c0.4,0.8,0.4,1.8,0.5,2.7
	c0,0.9,1.6,1.3,0,3c-0.7-1.2-1.3-2.4-4.1-0.8c1.4,0.8,2.5,1.8,3.8,2.2c0.7,0.1,1.9-1.1,3.4-1.9c0.4,0.3,0.9,0.8,1.4,1
	c-0.3,0.4-0.5,0.7-0.7,0.7c-2.5,1-3.2,3.3-4.8,5c-0.3,0.2-0.2,0.7-0.2,0.8c1.2,0.4,0.3,1.4-0.3,2c-0.8,0.9-1.7,1.8-2.4,2.6
	c0.7,0.6,1.3,1.2,1.9,1.9c0.1,0-0.2,0.4-0.6,0.9c-0.6-0.2-1.2-0.6-1.6-0.8c-2.1,1.7-2.5,2.3-1.8,2.9c0.9,0.7,2.2,1.1,3.4,1.9
	c0.1-1.3,0.2-2.2,0.2-3c0-0.1,0.4-0.2,0.4-0.2c0.5,0.7,1,1.5,1.7,2.5c-2.5,1.9-2.9,5.3-6.8,6.4c-0.3,0.1-0.9,1.1-1.6,2
	c2.1,0,4,0,6.3,0.1c-0.3-1.1-0.6-1.8-0.6-2.7c1.2-1.7,2.5-3.7,4.1-6.1c0.2,1.1,0.3,1.6,0.4,2.5c1.3-1,2.4-1.7,3.5-2.7
	c-0.1,0.6-0.1,1-0.1,1.4c1.3-0.7,1.9-1.8,1.5-2.6c-0.4-1.2,0.6-2,1.5-2.8c-0.2-0.4-0.5-0.7-0.7-1.1c-0.1-1.3,1.3-2.7,2.5-2.8
	c2.2-0.1,2.7-0.6,3.3-2.4c0.3-1,0.5-1.9,0.7-2.9c2.4-1.5,4.2-3.5,4.6-5.4c0.6-2.7,2.3-4.9,4.3-7c1.2-1.2,2.6-2.7,3.1-4
	c0.8-2,1.8-3.3,4.3-3.7c-0.9-1.7-0.3-4.2,1.6-6c1.3-1.2,1.9-2.2,2.2-3.5c1.2-3.2,2.5-6.5,4.1-9.6c0.7-1.5,1.1-1.7,2.4-0.9
	c1-0.6,1.3,0.1,1.6,0.6c1.8-1.4,3.2-2.9,3.6-4.9c0.3,0.9,0.4,1.7,0.8,2.5c1.1-0.4,2.1-0.9,3.2-1.3c-0.1,0.6-0.2,0.9-0.1,1.3
	c0,0.3,0,0.5,0,0.9c2.1-1.1,1.3-2.3,1.7-3.4c1.3-3,2.3-6.2,2.5-9.3c0-1.3,0.9-2.8,1.4-4.3c0.2-0.5,0.3-1,0.5-1.4
	c0.2-1.1,0.5-2.4,0.7-3.6c0.4-1.5,0.6-2.8,0.8-3.7c1.2-1.4,2.1-2.3,2.5-3.3c0.5-1.6-1.1-1.6-2.2-1.7c0.1-0.8,0.1-1.5,0.1-2
	c0.1-0.3,0.3-0.6,0.4-0.9c0.6,0.1,1.1,0.1,1.5,0.2c1.1-1.3,0.6-1.5-0.2-2c-1.4-0.9-1.2-2.2,0.6-4.3c-0.1-0.3-0.3-0.5-0.5-0.8
	c1.4-0.7,2.6-1.4,4.1-2.3c-1.6-0.5-1.1-3.2-4.3-1c0.5-2.8,0.8-5.2,1.2-7.6c0.2-1.1,0.4-2.3,0.6-3.4c0-2.7-0.1-5.3,0-8
	c0-1,0.8-2.4,0.3-3c-1.4-1.5-1.3-3.7-2-5.5c-0.1,0,0.1-0.3,0.3-0.6c0.6-0.2,1.3-0.4,1.7-0.5c1.4-2.7-1.9-2.4-1.9-4.3
	c0.7-0.6,1.6-1.2,2.5-1.9l-4.2-4.8c0,0,0,0,0,0.1c0,0,0,0-0.1,0c-1.1,0.5-1.6,0.2-1.7-0.8c1.2-0.2,1.9-0.2,1.7,0.8l0,0l0,0
	c0.3-0.3,0.5-0.6,0.9-0.9c-0.3-1-1.4-2-0.9-2.8c0.9-1.6,0-2.5,0.4-3.8c0.1-0.4-0.2-1.1-0.5-1.2c-0.3-0.1-1.1,0.4-1.4,0.6
	c-0.9-1-1.6-1.7-2.3-2.7c-0.7-0.8-1.6-1.4-2.1-2.2c-0.7-0.8-0.4-1.6,1-2.3c0.5-0.3,1.2-0.4,1.7-0.7c-0.5-1.7-0.5-1.7-2.6-2
	c-3-0.4-3.4-2.8-1.2-5.6c0.4-0.6,0.4-1.6,0.7-2.4c-2.5,1.1-4.6,0.7-5-0.6c-0.9-3.4-3.5-5.6-5.8-7.9c-0.4-0.4-1.1-0.6-1.2-1.1
	c-0.9-2.5-1.9-5-5.3-5.4c0.8-0.7,1.1-1.1,1.4-1.5c0.3-0.4,0.6-0.9,0.7-1.2c-1.6-0.7-1.6,1.3-2.7,1.9c-0.5-1.6,0.3-3.9-2-4.1
	c-0.6,0.3-1.3,0.7-2.2,1.2c0.9-2.1-0.4-2.9-1.4-3c-2.4-0.1-4.1-0.4-4.3-2.9c-0.1-1-0.8-1.7-1.4-2.5c-0.5-0.7-1-1.5-1.6-2.4
	c1.2-0.9,2.2-1.6,3.5-2.5c-0.5-0.7-0.7-1.9-1.4-2.2c-2.6-1.1-5.4-1.8-8.1-2.7c-2.7-0.9-5.4-1.8-8.4-2.6c-3.1-0.8-6.3-1.5-9.6-2.1
	c-4.8-0.7-9.7-1.5-15.3-0.5c-3.5,0.6-7.2,2-10.2,1.1c-0.7-0.3-2,0.4-3.1,0.5c-2.8,0.2-6.5,2.4-8.3,0c-0.1,0-0.4,0-0.5,0
	c-2.7,1-4.8,0.5-7,0.3c-3.3-0.3-6.2,1.7-9.2,3.1c-0.5,0.3-1.2,1.4-1.4,2.1c-0.3,0.6-0.3,1.2-0.5,2c-1.5,0.6-3,1.3-4.6,2
	c0.7,1.2,1.3,2.1,1.7,3.2c0.1,0.4,0.1,1.2-0.2,1.5c-0.3,0.4-1.2,0.6-1.7,0.5c-2.5-0.6-5.3,0.1-8.5,1.5c0.5,2.1-1,4.3-2.6,6.5
	c0.9,0.9,1.9,1.6,2.7,2.4c-0.3,0.2-0.3,0.4-0.5,0.5c-1.9-0.8-3.8-1.5-6-2.5c0,1.2,0,2.1-0.1,3.2c-3,0.4-5.8,0.2-8.2,3.6
	c1.9,1.9,4.1,3.7,6.1,5.7c0.1,0,0.2,0.1,0.3,0.1c1,0.6,2,1.2,2.8,1.9c2.5,2.2,4.9,4.5,7,6.9c1.3,1.6,2.2,3.6,2.6,5.8
	c0.3,1.9,0.8,3.8,1.9,5.3c0.2,0.4,0.4,0.6,0.6,1c0.1-0.1,0.3-0.1,0.3,0c7.4,3.4,13.8,8.2,19.7,13.3c0-0.1,0-0.1,0.3-0.2
	c0.4,0.2,1,0.2,1.5,0.3c3,1.6,5.9,3,9,4.5c1.1,0.5,2.1,1,3.4,1.3c1.5,0.5,3.6,0.2,3.6,2.5c0.1,0.3,0.5,0.5,0.8,0.6
	c2.4,1.2,4.9,2.3,7.2,3.5c-0.6,1.8-1.4,3.6-2,5.2c1.1,0.8,1.5,2.1,1.8,3.5c0.2,1.2,0.7,2.2,1.1,3.2c0-0.5,0.2-1,0.3-1.6
	c2.4-0.3,2.6,0.1,1.4,2.1c0.7,0.3,1.5,0.6,2.6,1.1c-1,0.6-1.9,0.9-2.4,1.1c1,1.4,2,2.7,2.4,4.3c2.1-0.7,3.3,0.7,5.3,0.3
	c0.8-0.1,1.5,0.1,2.5,0.1c-0.6-2,2.3-2.1,2.5-4.1c0.6,0.8,0.7,1.2,1,1.7c1.2-0.6,2.7-2.6,3.6-0.7c-0.3,0.2-0.5,0.4-0.5,0.6
	c-0.2,0.3-0.4,0.6-0.9,1.2c3.7-2,4.1-3.3,2-6.5c2.8-0.2,2.3,1.9,2.9,3.6c1.8-2.7,0.7-4.5,1-6.6c1.1,0.7,1.3,1.8,1.3,3.1
	c-0.1,1.2-0.2,2.8,0.4,3.5c1,1.1,0.8,2.2-0.3,3.8c-0.6,0.8-1.8,1.9-0.5,2.6c1.2-1.1,2.5-1.6,3.5-0.6c-0.9,3.3,1.5,6-1.5,9.7
	c0.4,0.9,1.5,1.5,1.3,2.4C616.2,132.7,616.2,135.9,613.8,139z M607.9,214.5c-0.2-0.1-0.5,0-0.7-0.2c-0.2-0.2-0.1-0.4-0.2-1.1
	c0.5,0.4,0.9,0.4,1,0.5C608.2,214.1,608,214.3,607.9,214.5z M610.9,211.5c-1.7,0.6-2.2,0.2-1.6-1.4C610,210.7,610.4,211,610.9,211.5
	z M607.7,194.6c0.1-0.4,0.2-0.8,0.3-0.9c0.4-0.2,0.7-0.3,1.2-0.4c0,0.3-0.1,0.6-0.1,0.9C608.6,194.5,608.3,194.5,607.7,194.6z
	 M655.1,156.1c-0.1,0.3-0.2,0.8-0.4,1.1c-0.3,0.2-0.6,0.2-1.4,0.4c0.3-0.6,0.4-0.9,0.6-1.1C654.3,156.3,654.6,156.3,655.1,156.1z
	 M648.2,162.7c-1.5-0.7-0.5-1.8-0.2-2.5c0.3-0.1,0.4-0.1,0.6-0.1C648.5,160.7,648.4,161.5,648.2,162.7z M651.6,157.3
	c0,0.4-0.1,0.9,0,1.2c-0.3,0.1-0.6,0.2-0.8,0.2c0-0.5,0.1-1,0.2-1.4C651.3,157.4,651.4,157.3,651.6,157.3z M615,189.9L615,189.9
	c0.1,0.1,0.1,0.1,0.1,0.1c0.7,0.3,1.5,0.6,2.3,0.8c-1.3,3.8-3.4,5.5-7.3,6.1c0.8-2.2,2.7-2.9,4.7-3.4c0.2-1.2,0.2-2.3,0.3-3.5h-0.1
	C614.9,190,615,189.9,615,189.9c0.1-0.6,0.2-1.3,0.4-2.5C616.4,188.5,615.5,189.2,615,189.9z M621.6,178.1c-0.3,0.6-0.4,0.9-0.6,1.2
	c-0.2-0.1-0.6,0-0.7,0c0-0.3,0-0.5,0.2-0.8C620.9,178.2,621.2,178.3,621.6,178.1z M661.4,127.2c0.5,0.4,1.3,0.4,1.6,1
	c0.5,1-0.4,3.8-1.4,5.4c-0.3-2-0.5-3.9-0.7-5.9L661.4,127.2z M619.5,162.9c0.7,2.4-1.4,4.5-3.1,7c-2-2,3-4.4,0.6-5.9
	C618.3,163.3,618.9,163.1,619.5,162.9z M621.8,148.6c-0.1,0.9,1.3,1.2,0,2.7c-1,1,0.6,2.3-2.1,3.6c0.6-2.3,1.1-4.2,1.5-6.1
	C621.4,148.7,621.6,148.7,621.8,148.6z M622.7,143.7c0.1,0.3,0.3,0.6,0.2,1c0,0.3-0.3,0.7-0.5,1c-0.2-0.1-0.3,0-0.6-0.1
	c0.1-0.6,0.3-1.2,0.5-1.9C622.2,143.8,622.3,143.9,622.7,143.7z M539.7,55.9c-0.4-0.7-0.9-1.3-1.3-2.1c0.3-0.2,0.3-0.3,0.6-0.4
	l1.5,1.9C540.4,55.5,540.1,55.7,539.7,55.9z M617.9,121.4c0.2-0.5,0.5-0.9,0.7-1.5c0.2,0.1,0.5,0,0.6,0.1c-0.1,0.4-0.4,0.9-0.5,1.4
	C618.4,121.4,618.1,121.4,617.9,121.4z M546.4,272.8c-0.2-1.3-1.6-2.1-0.7-4c-0.1-0.1-1.2-0.4-1.9-0.6c-0.2,0.6-0.3,1,0,1.1
	c0.8,0.3,0.5,1-0.2,1.6c-0.9,0.8-1.4,0.5-1.6-0.2c-0.2-0.6-0.2-1.3-0.3-2.1c3.2-1.8,6.2-3.3,9.2-4.2c0.2,0.2,0.1,0.4,0.4,0.5
	c-1,1-1.7,2-2.7,3.1c2.2-1,4.2-1.8,6.6-3c-0.5-0.5-0.9-0.5-1.2-0.8c-0.2-0.2-0.4-0.6-0.4-0.6c1.4-1.2,2.5-2.2,3.6-3.1
	c1.2-0.9,2.3-1.7,3.8-2.7c-1.2-0.3-1.9-0.5-2.7-0.7c-0.3,0.6-0.6,1.1-1.1,1.8c-2-1.4-4,1.9-6.2,1.4c0.1,0.9,0.3,1.3,0.3,1.9
	c-1.2,0.7-2.1,1.2-3.2,1.9c-2.7,1.6-3.6,1.3-3.6-1.7c2-1.1,4.2-2.2,6.1-3.5c2.1-1.4,4.1-3.1,6.4-4.7c2.4,0.5,2.8,0.2,3.9-2
	c0.4-0.8,1-1.7,1.7-2.4c1.1-1.2,2.4-2,3.5-3.1c2.7-2.8,5.6-5.2,9.2-7c-0.3-0.9-0.6-1.8-0.8-2.9c-2.7,2.4-6.2,3-8.5,6
	c0.5,2.3,0.5,2.5-1.2,4.1c-1.9,1.8-3.8,3.6-6.3,2.5c-1.4,3.7-4.5,5.3-7.6,7c-1.8,1.1-3.9,2-5.4,3.4c-2.2,2.3-4.6,2.5-7,3.6
	c-0.4,0.2-0.9-0.2-1.5-0.3c3.1-2.7,6.1-4.3,9.2-5.9c1.1-0.5,2.9-1.4,3.2-2c0.7-1.4,1.4-1.6,2.5-1.9c1.1-0.3,2-0.6,3-1.9
	c-2-0.6-4.1,0.5-5.5,1.7c-2.7,2.2-5.3,3.1-8.2,3.4c-0.1,0.1-0.3,0.3-0.6,0.5c0.9,2.3-0.1,3.8-3.2,4.6c-0.3,0.1-0.4,0.1-0.6,0.1
	c-1-0.1-1.6,0.2-2.5,1.2c-0.8,0.9-2,1.6-3.2,2.3c-4.2,2.5-8.3,5.1-12.6,7.5c-6.9,4-13.9,5.7-20.8,7.7c-0.3,0.1-0.9-0.2-1.2-0.4
	c1.9-0.9,3.5-1.2,5.1-1.7c1.7-0.5,3.1-1.6,4.5-3.3c-1.3,0.6-2.3,0.9-3.2,1.3c-2.1,0.7-4.1,1.6-6.3,2.4c-4.4,1.4-8.9,3.5-13.3,4.7
	c-7.7,2.1-15.2,3.5-22.9,5c-9.7,2-19.4,3.8-28.8,4.3c-1.3,0.1-2.6,0.8-3.9,2.1c0.8,0.2,1.4,0.3,1.9,0.3c8.9,1.2,19-0.3,28.6-0.7
	c2.5-0.1,5.4-0.7,7.9-1c2.8-0.3,5.5-0.7,8.3-1c2.5-0.3,4.9-0.5,7.3-0.7c3-0.4,5.8-0.6,8.9-1c2.4-0.3,5-0.4,7.5-1.4
	c2.9-1.2,5.4-1.1,8.4-1.9c0.9-0.2,1.9,0.2,2.6,0.4c1.9,0.9,4.3,0.4,7.1-0.4c-1.6-0.8-2.8-1.2-4.3-2.1c0.9-0.8,1.6-1.6,2.1-1.8
	c3-1.1,5.8-1.6,7.4,0.8c2.9-2.3,5.3-2.8,7.5-1.6c0.3-0.2,0.3-0.4,0.5-0.5c-0.6-1-1-2-1.7-3.4c1.9-0.8,3.5-1.4,5-2.1
	c1.1-0.5,2-0.8,2.6,0.1c0.7,1,1.9,0.7,3.9,0c-1.3-0.5-2.9-0.2-2.3-2.2c1,0.8,2.1,0.5,3.5-0.4c1.1-0.7,2.6-0.8,3.6-0.7
	c0.5,0,0.7,1.1,1,1.6C546.7,274.3,546.5,273.5,546.4,272.8z M533.2,265.8c0.1-0.3,0-0.5,0.2-0.7c0-0.1,0.5-0.2,0.6-0.2
	c0.1,0.2,0.1,0.3,0.2,0.7C533.8,265.7,533.6,265.7,533.2,265.8z M538.1,270.1c-2.6,0.4-5.4,3-7.8,2.2c3.1-1.8,6.1-4.3,9.6-3.7
	C539.1,269.1,538.4,270,538.1,270.1z M541.3,266.9c0.2-0.2,0.3-0.6,0.4-0.8c0.6,0.1,1,0,1.5,0.2c0,0-0.2,0.5-0.3,0.7
	C542.2,267.1,541.7,267,541.3,266.9z M538.7,272.8c-0.3-0.1-0.5-0.3-0.7-0.7c1.4-0.9,2-0.8,2.3,0.5
	C539.3,272.8,539.1,272.9,538.7,272.8z M604.1,188.1c-2.8,0.8-4.5,2.6-6.6,7.3c-0.3-1-0.9-1.7-2.4-0.6c-0.1-0.4-0.3-0.9-0.6-1.6
	c3-0.4,4-2.5,5.4-4.3c1.7-1.9,3.1-3.6,4.8-5.8c-0.5-0.5-1-1.1-1.7-1.9c0,1.1,0,1.8-0.1,3c-1-0.3-1.5-0.5-2.5-0.8
	c-0.6,1.3-1.2,2.5-2,3.9c-0.2-0.6-0.6-1.2-0.4-1.5c1.9-2.3,3.9-4.5,5.6-6.5c2.2,0.6,4.1,1.1,5.9,1.7c0.9,0,1.5-2.3,2.8-1.4
	c-0.8,1.1-1.6,2.2-2.4,3.4l0-0.1c-1.1,0-2.2,0.1-3.7,0.2c-0.5,0.5-1.4,1.6-2.2,2.5c0.7,1.2,1.4,2.1,2.2,3.4c-1.2,0.7-2,1.1-3.5,2
	C603.4,189.7,603.8,188.9,604.1,188.1z M567.2,267.1c-0.5,0.7-1.2,1.5-2.2,2.5c-2-1.2-3.8-2.3-6.8-1.3c-0.3,0.1-0.3,0.1-0.6,0.2
	c-1.4,0.1-2.7,2-4.4,1.7c-1.1-0.2-2.8,0.4-4.4,0.7c0.7-1.8,2.8-2.7,3.8-2.7c2.5,0.1,4.5-1.5,6.7-2.6c1.5-0.7,2.5-1.3,4.1-1.1
	c1.4,0.2,3.4-0.6,5.1-1c0,0.3,0,0.4,0.1,0.6c-1.2,0.5-2.3,1-3.6,1.6C563.9,268.3,567,265.9,567.2,267.1z M674.1,107.3
	c-0.3,1-0.3,2-0.8,2.6c-0.5,0.5-1.7,0.6-1.8,1.5c0,0.7,0.5,1.3,0.8,2c1.7-1.9,3.1-2.4,3.9-1.4c0.4,0.7,1.1,0.8,2.1,0.6
	c0.3-0.1,0.7,0.3,1,0.4c0.8-0.3,1.7-0.5,2.8-1c-0.2-0.4-0.4-1.2-0.5-1.2c-1.8,0.5-1.6-0.5-1.7-1.5c-0.2-1.1,0-2.2-0.1-3.6
	c-1.5,1.5-2.6,2.6-4,3.8C675.2,108.9,675.8,107.4,674.1,107.3z M677.8,109.9c0.1,0.2,0.2,0.4,0.1,0.7c0.1,0.1-0.4,0.2-0.9,0.5
	c0-0.3-0.1-0.6,0.1-0.8C677.1,110.1,677.8,109.8,677.8,109.9z M596.1,234.4c0.4-3,2.5-4.7,5.2-4.4c0.9,0,2.3-0.5,3.4-0.8
	c0,0.3,0,0.4,0.1,0.4C602,231.4,600,235.6,596.1,234.4z M612.8,153.2c0.4,0.7,0.9,1.3,1.3,2.1c-0.7,0.9-1.4,1.8-2.3,2.8
	c-1.2-2.8,0.4-6,1.1-9.2c2-0.3,2.6,0.5,2.9,1.6C615.8,152.3,613.6,152,612.8,153.2z M576.4,255.8c1,1,2.3,1.8,4.3,1
	c-0.6,2.9-0.6,2.9-3.4,3.7c0.5-0.9,0.8-1.6,1.4-2.5c-1.2,0.2-2.1,0.5-3.3,0.7C575.8,257.8,576.1,256.8,576.4,255.8z M595.7,227.5
	c-0.6,0-1.6-0.3-1.7-0.8c-0.1-0.4,0.3-1.6,0.9-2.1c0.8-0.7,1.7-1.1,3.5-2.2c-0.3,1.6-0.4,2.5-0.8,3.6
	C597.1,226.6,596,227.4,595.7,227.5z M679.2,113.3c-0.1,0.7-0.1,1.5,0,2c-1.1,1.2-2.7,1.6-2.8,3.3c0,0.4-1.7,1.5-3.1,2.8
	C674.6,118.2,675.2,115.2,679.2,113.3z M570,262.5c0-1,0-1.8-0.1-3.1c1.7,1.2,4.8-0.3,6,2.1C573.7,261.9,572,262.2,570,262.5z
	 M592.2,198c1-1.1,2-2.1,2.8-3.1c-0.7,2.4-2.2,4.3-4.5,5.9c-1.8-0.4-3.5-0.8-5.1-1.1c1-0.3,1.9-1.3,2.8-0.5
	C589.2,200.1,590.7,199.5,592.2,198z M585.7,224.1c-0.2-1.7-0.3-3.3-0.6-4.8c0-0.1,0.3-0.3,0.3-0.3c1.2,0.9,2.5,1.9,3.9,2.9
	C587.8,222.8,586.6,223.5,585.7,224.1z M603.6,123.6c-3.5,1.7-4.8,0.6-6.2-1.2C600.4,121.5,601.4,123.2,603.6,123.6z M650.1,37.4
	c-1.5-1-2.7-1.7-3.9-2.6c2.4-1.9,3.1-0.6,4.4-0.1C651.4,35.4,650.9,36.4,650.1,37.4z M571.6,255.6c0.2-1.1,0.4-1.9,0.4-2.5
	c0.9,0,1.7,0.1,2.4-0.1c1-0.4,1.9-1,2.4,0.1C575.3,253.8,573.6,254.6,571.6,255.6z M614.5,120.5c-1,1.4-1.5,2.2-2.2,3.3
	c-2.1,0.9-2.9-0.7-5-1.1c1-0.3,1.7-0.8,2.3-0.8C612,122.1,611.9,122.2,614.5,120.5z M661,52.8c0.6,1.4,1.2,2.4,1.8,3.3
	c-0.6,1.2-1,2.4-1.4,3.6c-0.3,0.1-0.3,0.1-0.6,0.2C660.8,57.6,661,55.5,661,52.8z M579.8,228.4c-0.6,0.4-1.1,0.8-2.2,1.5
	c0.4-1,0.8-1.7,1.2-2.4c0.9-0.2,1.9-0.4,2.4-0.9c0.6-0.4,0.3-1.4,1.6-1c-1,1.5-2.1,3.1-3.1,4.5c-0.1,0.1-0.3-0.1-0.4,0
	C579.5,229.6,579.8,229.1,579.8,228.4z M648.5,164.7c0.3,0.5-0.1,1.9,1.6,0.6c-0.1,0.6-0.2,1.2-0.2,1.9c-1.2,0.5-2.2,0.8-3.2,1.2
	C646.3,166.4,646.6,166,648.5,164.7z M594.1,214.5c0.4,0.3,1,0.4,1.6,0.6c-0.2,0.2-0.3,0.6-0.4,0.8c-1-0.4-3,1.2-3.4-0.4
	c-0.1-0.5,0.6-1.5,1.1-2.6C593.4,213.7,593.5,214.2,594.1,214.5z M670.4,125.4c0.3,0.9-0.1,2.3-0.2,3.5c-0.3,0.1-0.3,0.1-0.6,0.2
	c-0.3-1.3-0.5-2.8-0.8-4.1c-0.1-0.4-0.5-0.8-0.7-1.2C669.9,123.3,670.2,124.6,670.4,125.4z M676.1,99.7c0.8-0.5,1.7-1.1,3.3-1.9
	c-0.2,1-0.2,1.7-0.4,2.5C677.6,100.4,676.2,101.3,676.1,99.7z M673.4,123.1c0.8,0.1,1.4,0.3,1.9,0.4c-0.4,0.7-0.8,1.3-1.3,2
	c-0.4,0.5-0.7,1.1-1.3,2C672.2,125.9,672.9,124.6,673.4,123.1z M672.1,98.2c0,1.9,0.1,3.1,0.3,4.6C670,101.9,670,101.5,672.1,98.2z
	 M600.2,128.7c-0.6,0.2-1,0.2-1.6,0.4c0.4-1.7,1.7-2.7,2.6-2.3c0.7,0.2,0.5,1.1-0.3,1.7C600.8,128.5,600.4,128.7,600.2,128.7z
	 M596.6,185.9c-1.9,3.5-1.9,3.6-3.5,2.4C594.2,187.6,595.2,187,596.6,185.9z M592.5,210.2c-1.3,1-2.4,1.7-3.5,2.6
	C590.4,209.8,590.4,209.8,592.5,210.2z M594.2,202.6c-0.4-1.2-0.8-1.9-1.2-3.1c1.2,0.2,2.1,0.5,2.9,0.7
	C595.6,200.9,595.1,201.5,594.2,202.6z M579,253.4c0.9,0,1.5,0.1,2.8,0.2c-1.7,1.5-2.6,2.1-3.4,1.4
	C578.4,254.7,578.8,254.1,579,253.4z M637.6,30.6c-0.8-0.6-1.5-1-2.4-1.6c0.6-0.5,1-0.8,1.9-1.6C637.1,28.8,638.7,28.9,637.6,30.6z
	 M600.7,197.9c0.6-0.9,1.1-1.8,1.8-2.9C603.2,196.3,603.2,196.3,600.7,197.9z M655.5,163.8c-0.6,1.2-1.1,2.4-1.6,3.7
	C653.1,166.7,653.4,165.8,655.5,163.8z M670.9,74.2c0.2-0.3,0.4-0.5,0.6-0.8c1.4-0.5,1.9-0.1,2.3,1.7
	C672.4,74.5,671.7,74.3,670.9,74.2z M603.8,177.7c-1.2,0.6-2.3,1.1-3.5,1.8C601.5,177.4,602.4,176.9,603.8,177.7z M642.8,32.1
	c-1-0.4-2.1-0.8-3.5-1.4C641.5,30.1,642.7,30.4,642.8,32.1z M598.9,197c0.4-1.9,0.4-1.9,2.6-2.6C600.7,195.1,599.9,195.9,598.9,197z
	 M583.4,230.6c-1.2,0.6-2,0.9-2.9,1.4C581.5,229.5,581.5,229.5,583.4,230.6z M602.9,203.7c-0.1,0-0.1,0-0.1-0.2
	C602.8,203.6,602.8,203.6,602.9,203.7L602.9,203.7c1.2-0.2,1.2-0.2,1.5,1.1c-0.6,0.3-1.4,0.7-2,1c-0.1-0.1-0.1-0.3,0-0.4
	C602.4,204.7,602.6,204.3,602.9,203.7z M679,125.8c0.1,0.2,0.1,0.3,0.2,0.4c-0.7,0.5-1.3,1.1-2.2,1.7
	C676.8,126.2,678.1,126.1,679,125.8z M675.9,126.6c0-1.4-0.1-2.1-0.1-2.9c0.7,0,1.3,0.2,2.1,0.3
	C677.2,124.8,676.8,125.3,675.9,126.6z M629.5,198.4c0.2-0.8,0.5-1.6,0.8-2.5C631.5,197,631.5,197,629.5,198.4z M597.8,213.6
	c0.1-0.9,0.1-1.7,0.1-2.6C599.6,211.7,599.6,211.7,597.8,213.6z M553.9,278.4c-0.8-0.6-1.3-0.9-1.8-1.2c0.2-0.2,0.3-0.4,0.5-0.7
	C553.7,276.4,554.7,276.4,553.9,278.4z M652.4,38.9c0.2-0.2,0.2-0.4,0.4-0.8c1.2-0.4,1.6,0.4,2.4,0.6c-0.2,0.2-0.2,0.4-0.3,0.6
	C654.1,39.3,653.3,39.1,652.4,38.9z M672.3,115.2c-0.1,0.9-0.1,1.9-0.1,2.8c-0.3,0-0.6,0.2-0.9,0.2c0.1-1,0.2-1.9,0.3-2.9
	C671.8,115.3,672.1,115.3,672.3,115.2z M610.2,130c0.9,0,1.8,0,3.4,0C611.6,131.2,610.8,130.6,610.2,130z M564.9,250.8
	c0.4,0.3,0.7,0.6,1.1,0.9c0,0-0.4,0.5-0.5,0.4c-0.6-0.1-1-0.2-1.5-0.3C564.3,251.4,564.7,251.2,564.9,250.8z M675.7,123.6
	c-0.1,0-0.2-0.2-0.2-0.2c0.5-1.2,0.6-2.3,2.6-2C677.7,122.5,676.6,123,675.7,123.6z M582.4,205.1c-0.6,0.2-1.2,0.2-1.8,0.4
	c0.1-0.3,0.1-0.6,0.2-0.9c0.6-0.1,1.1-0.2,1.7-0.3C582.4,204.4,582.3,204.8,582.4,205.1z M577.8,241.4c0.6-1.2,0.8-1.8,1.2-2.8
	C580.2,239.7,579.5,240.3,577.8,241.4z M605.2,241.3c-0.3,0.1-0.5,0.2-0.7,0.3c-0.1-0.4-0.3-0.9-0.4-1.4c0.4-0.2,0.7-0.3,1-0.4
	C605.2,240.3,605.1,240.7,605.2,241.3z M589.7,250.5c0.6-0.6,1.1-1.1,1.7-1.5c0.1,0.2,0.2,0.2,0.4,0.4c-0.6,0.6-1.2,1-1.8,1.6
	C589.8,250.7,589.6,250.6,589.7,250.5z M648.3,171.4c-0.5,1.2-0.7,1.8-1,2.4C646.2,173.1,646.8,172.6,648.3,171.4z M584.3,202.5
	c0.7,0.3,1.6,0.5,2.7,1C584.9,204.6,585,203.1,584.3,202.5z M606,118c-1.1,0.4-1.6,0.8-2.4,1.1C604.1,117.8,604.1,117.8,606,118z
	 M584,243c-0.1-0.4-0.5-0.7-0.7-1.2c0.3-0.2,0.3-0.3,0.6-0.5c0.2,0.2,0.5,0.3,0.6,0.6c0,0.3,0,0.5,0,0.7
	C584.4,242.7,584.3,242.8,584,243z M596.4,230.9c-0.1,0.1-0.3,0.1-0.6,0.2c0.1-0.7,0.1-1.3,0.2-2c0.3,0,0.4-0.1,0.7-0.1
	C596.7,229.6,596.6,230.2,596.4,230.9z M566.7,272.2c-0.3-0.4-0.6-0.7-1-1.1C567.5,270.4,567.5,270.4,566.7,272.2z M573.7,263.3
	c0.1,0.2,0.1,0.4,0.3,0.5c-0.5,0.3-1.1,0.8-1.7,1.2c-0.2-0.2-0.1-0.4-0.4-0.5C572.6,264,573.2,263.6,573.7,263.3z M673.6,58.3
	c0.6,0.4,1.3,0.6,2.1,1.1C674.1,60,673.3,59.9,673.6,58.3z M599.3,219.8c-0.2-0.2-0.3-0.3-0.5-0.5c0.5-0.5,1-1.1,1.5-1.6
	c0.1,0.2,0.4,0.1,0.4,0.3C600.2,218.7,599.7,219.2,599.3,219.8z M679.6,103.5c-0.3-0.6-0.5-1.3-0.8-1.9c0.3-0.2,0.4-0.2,0.5-0.3
	c0.4,0.5,0.7,1.2,1,1.7C680,103.2,679.7,103.4,679.6,103.5z M671.4,90.5c-0.3-0.7-0.5-1.4-0.8-2.2c0.3-0.1,0.4-0.2,0.6-0.3
	c0.3,0.8,0.4,1.7,0.7,2.4C671.9,90.4,671.6,90.5,671.4,90.5z M597.8,132.6c0.1-0.6,0.1-1.3,0.4-2.4
	C599.6,131.2,598.9,131.9,597.8,132.6z M663,55.9c0.4-0.5,0.8-1.1,1.1-1.6c1.2,0.2,0.5,1.2-0.1,1.8C663.9,56.3,663.3,55.9,663,55.9z
	 M595.2,119.2c0.1,0.1-0.9,0.5-1,0.3c-0.2-0.2-0.1-0.7-0.1-1.3c0.6-0.1,1.3-0.3,1.4-0.3C595.6,118.3,595.4,118.8,595.2,119.2z
	 M615.7,220.5c-0.1,0,0-0.5,0.1-0.9c0.5,0,0.9-0.1,1,0c0.1,0.2,0,0.5-0.2,0.8C616.5,220.4,616,220.5,615.7,220.5z M553.5,273.7
	c-0.2,0.2-0.2,0.5-0.3,0.7c-0.6-0.1-1.2,0-1.7-0.1c0.2-0.2,0.1-0.4,0.2-0.6C552.4,273.7,552.9,273.8,553.5,273.7z M595,237.4
	c-0.3-0.3-0.7-0.4-1.1-0.7c0.3-0.3,0.5-0.4,0.8-0.7c0.2,0.4,0.7,0.5,0.9,0.9C595.3,237,595.2,237.2,595,237.4z M613.6,222
	c0.9-0.1,2-0.4,1.5,1.3C614.4,222.8,613.9,222.5,613.6,222z M667.5,65.2c-0.4-0.3-0.7-0.6-1-0.9c0.3-0.2,0.3-0.3,0.6-0.6
	c0.3,0.4,0.5,0.7,0.9,1C667.9,64.8,667.5,65.2,667.5,65.2z M647.2,179.7c0.3-0.6,0.6-1.2,0.9-1.8c0.1-0.1,0.3,0,0.5,0
	c-0.2,0.6-0.5,1.3-0.6,1.8C647.7,179.8,647.4,179.8,647.2,179.7z M588.5,243.6c0.2-0.4,0.2-0.8,0.5-0.9c0.3-0.2,0.6-0.2,0.7-0.1
	c-0.1,0.3-0.1,0.6-0.3,0.7C589.3,243.5,589.1,243.5,588.5,243.6z M623.7,209.2c-0.1-0.3,0-0.5,0.1-0.9c0.1-0.1,0.5-0.2,0.6-0.2
	c0.2,0.2,0.2,0.4,0.4,0.9C624.1,209.1,623.6,209.3,623.7,209.2z M602.7,203.5c-0.7-0.3-1.4-0.5-2-0.8C602,202,602.3,203,602.7,203.5
	z M677.4,135c-0.1-0.4-0.3-0.9-0.4-1.3c0.3-0.1,0.4-0.2,0.5-0.3c0.1,0.4,0.3,0.9,0.3,1.4C677.7,134.9,677.4,135,677.4,135z
	 M549,274.9c0,0.3,0.1,0.3,0.1,0.4c-0.5,0.3-1.1,0.5-1.9,0.9c0-0.3-0.1-0.3-0.1-0.4C547.7,275.6,548.5,275.2,549,274.9z
	 M585.5,216.7c-0.1,0.3-0.1,0.6-0.3,0.9c0,0.1-0.4,0.2-1.1,0.4C585,217.4,585.3,217.1,585.5,216.7z M600.5,202.9
	c-0.6,0.5-1.2,0.9-1.9,1.5C598.8,202.6,599.7,202.8,600.5,202.9z M526.2,287.9c-0.3,0.1-0.5,0-0.9,0c0.1-0.3,0.1-0.6,0.2-0.8
	c0.3,0,0.6,0,1,0.1C526.5,287.2,526.2,287.7,526.2,287.9z M670.3,113.5c0.1,0.2,0,0.5-0.2,0.7c0,0.1-0.3,0.1-0.9,0.2
	c0.2-0.5,0.2-0.8,0.4-1C669.9,113.4,670.2,113.4,670.3,113.5z M593,224.1c0.1,0.3-0.1,0.6-0.2,1.2c-0.4-0.2-0.7-0.2-0.7-0.3
	c0-0.3,0-0.5,0.2-0.8C592.5,224.1,592.9,224,593,224.1z M601.9,222c-0.1,0.1-0.3,0-0.4,0c0.2-0.4,0.5-0.9,0.6-1.3
	c0.1-0.1,0.2,0.1,0.3,0C602.2,221.2,602.1,221.6,601.9,222z M570.3,248.1c-0.1,0,0-0.3-0.1-0.3c0.5-0.3,0.9-0.6,1.5-0.9
	c0,0.3,0,0.4,0.1,0.6C571.3,247.6,570.8,247.9,570.3,248.1z M591.9,238c0.2,0.4,0.6,0.6,0.8,0.8c-0.3,0.2-0.3,0.3-0.6,0.4
	c-0.2-0.4-0.6-0.6-0.8-0.8C591.6,238.3,591.9,238,591.9,238z M533.9,278.1c0.1,0,0,0.5-0.2,0.5c-0.3,0.1-0.6,0.1-1.2,0.2
	c0.2-0.5,0.3-0.7,0.5-0.9C533.3,278,533.6,278,533.9,278.1z M595.2,120.6c-0.2,0.2-0.1,0.4-0.2,0.6c-0.5,0-0.9,0-1.5,0
	c-0.1-0.1,0.1-0.3,0.2-0.5C594.1,120.6,594.6,120.6,595.2,120.6z M577.9,207.9c0,0.1-0.4,0.1-0.5,0c0-0.3,0-0.5,0.1-0.8
	c0.4,0,0.7,0,0.7,0.3C578.4,207.3,578.1,207.7,577.9,207.9z M596.4,204.3c-0.1,0-0.4-0.1-0.4-0.1c0.3-0.4,0.5-0.8,0.8-1.1
	c0.1,0.2,0.3,0.1,0.3,0.3C597.1,203.6,596.8,203.9,596.4,204.3z M516.3,271.6c0.1,0.1-0.1,0.3-0.3,0.6c-0.3,0-0.5,0-0.8,0.1
	c-0.1-0.1,0.2-0.5,0.2-0.5C515.7,271.7,516.1,271.7,516.3,271.6z M657.3,42.9c-0.1-0.1,0.2-0.3,0.4-0.5c0.4,0.1,0.7,0.3,1,0.4
	c0.1,0.1-0.2,0.3-0.2,0.4C658,43.2,657.7,43.1,657.3,42.9z M573.9,232.7c0.3-0.1,0.6-0.2,0.8-0.2c0.1,0.1-0.1,0.4-0.2,0.5
	c0,0.1-0.3,0.1-0.6,0.2C574,233,573.9,232.9,573.9,232.7z M603.9,131.7c-0.2,0.2-0.4,0.5-0.5,0.7c0,0.1-0.3-0.1-0.5-0.2
	c0.3-0.3,0.5-0.4,0.8-0.7C603.6,131.5,603.9,131.5,603.9,131.7z M597.5,209.9c-0.5,0.2-0.9,0.4-1.2,0.5c0.2-0.2,0.4-0.5,0.7-0.7
	C597,209.7,597.1,209.8,597.5,209.9z M562.6,238.3c0.1-0.3,0.2-0.6,0.4-0.8c0-0.1,0.4-0.1,0.6,0c-0.2,0.2-0.4,0.5-0.5,0.8
	C563,238.4,562.9,238.3,562.6,238.3z M600.9,200.5c0.3,0,0.7,0,1,0.1c0.1,0-0.2,0.5-0.5,0.9c-0.4,0-0.8-0.1-0.9-0.4
	C600.6,201.1,600.8,200.5,600.9,200.5z M664,61.1c0.3-0.2,0.5-0.4,0.5-0.6c0.4,0.1,0.5,0.5,0.9,0.6c0,0.1-0.2,0.3-0.3,0.4
	C664.6,61.4,664.3,61.2,664,61.1z M583.8,96.1c-0.6,0.4-1.1,1.2-1.6,1.2c-1.7,0-3.4-0.1-5,0c0.1-0.3,0.1-0.6,0.4-0.9
	c1.7-0.4,3.5-1,5.2-1.2C583.2,94.9,583.3,95.7,583.8,96.1z"/>
<path class="st3" d="M345.7-241c-0.5-0.8,0.7-1.4,2.5-1.6c2.7-0.3,4.6,0.1,6.3,1.1c1.9,1.2,4.8,1.5,6.9,0.8c0.6-0.2,1.3-0.6,1.2-1
	c0-0.3-0.8-0.7-1.4-0.9c-0.5-0.2-1.4,0-2.1-0.1c-3.6-0.3-5.1-1.6-4-3.2c0.3-0.5,0.4-1,0.6-1.7c-5,0.1-9.6,0.2-14.1,0.3
	c-1.6,0-2.8,0-2.9-0.9c3-1.5,6.7-1.7,10.9-1.5c3.2,0.2,6.3,0.3,8.6,1.5c1.4,0.8,3.3,0.8,5.2,0.3c-0.7-0.1-1.2-0.4-0.5-0.7
	c0.7-0.4,1.5-0.7,2.2-1.1c-0.5-0.1-0.8-0.4-0.3-0.7c0.2-0.1,0.4-0.2,0.6-0.3c-0.5-0.1-0.9-0.2-1.3-0.4c-0.6-0.2-0.6-0.6,0-0.8
	c0.4-0.1,0.8-0.2,1.1-0.3c-2-0.2-4-0.5-5.9-0.8v-0.7c2-0.3,3.9-0.5,7-0.9c-3.8-0.9-6.5-1.9-9.6-2.2c-3-0.3-6.3,0.1-9.5,0.1
	c-0.2-0.1-0.4-0.3-0.5-0.4c2.1-1.1,4.2-2.2,6.6-3.4c-1.2-0.1-2.1-0.3-2.7-0.2c-2.7,0.4-5.1,0.3-7.7-0.2c-0.9-0.2-2-0.1-3.1-0.1
	c-0.4,0-0.8,0.3-1.1,0.4c0.5,0.7,0.9,1.3,1.6,2.4c-3-0.3-5.1-0.8-7.2-0.8c-2.4,0-4.7,0.5-7.1,0.7c-1.9,1.6-1.9,1.6-5.6,2.1
	c-4,0.6-8.2,1-12,1.7c-3.5,0.7-6.7,0.7-10.2,0.2c-1.4-0.2-3.3-0.5-4.5-0.2c-4.4,0.9-8.5,0.7-12.3-0.2c-4.5,1.1-8.6,2.1-12.9,3
	c-1.2,0.2-3-0.1-4.4-0.4c-6.1-1.1-12.6-0.8-18.8-1.2c-0.7,0-1.5,0.5-2.3,0.5c-1.3,0-3.1,0.1-3.9-0.2c-3.5-1.4-6.8-3-10.2-4.5
	c-1.6-0.7-2.9-1.6-4.7-2.3c-1.6-0.6-5.1-0.4-5.8,0.2c-1.1,1,0.1,1.7,1.8,2.2c2.9,0.9,5.9,1.7,8.9,2.5c1,0.3,2.1,0.6,2.8,1
	c3.8,2.4,8.4,4.5,13.3,6.4c2.2,0.9,1.9,1.7-0.9,2.1c-6.1,0.9-11.9,2.7-18.8,1.4c-0.6-0.1-1.5,0-2,0.2c-1.5,0.4-1.8,0.9-0.5,1.5
	c2,0.5,4.3-1.3,6.3,0.3c-0.6,0.8-1.2,1.7-1.9,2.9c-1.7-0.3-2.8-0.5-4.8-0.9c2.7,2.4,1,3.7-2.6,4.9c-2.7,0.9-5.5,1.9-7.4,3.7
	c5.2-0.6,8.9,0,12.3,1.4c1,0.4,3,0.6,4.3,0.5c3.8-0.3,7.6-0.8,11.4-1.1c2-0.2,4.1-0.1,6.2-0.4c3.4-0.3,5.9,0.6,8.8,1.4
	c0.5-0.5,0.9-0.9,1.1-1.2c0.2-0.4,0.2-0.9,0.4-1.6c7.1,1.4,13.9,2.5,21.2,1.5c0.9,0.7,1.6,1.3,2.7,2.3c1.5-2.4,4.9-3.2,9.2-3.4
	c1.2-0.1,2.6-0.3,3.3-0.7c3.9-2,9-1.4,13.5-1.7c0.8,0.6,1.3,1,2,1.6c7.3-2.4,14.7-2.8,22.4-0.8c1,0.3,2.4,0.3,3.6,0.4
	c8.2,0.3,16.5,0.5,24.7,0.7c0.2,0,0.5-0.2,0.9-0.4c-1.5-2.2-8.1-0.8-9.4-2.5c-2.7,0-4.7,0.1-6.7,0c-2.1-0.1-4.1-0.4-6.1-0.7
	c-2-0.2-4-0.4-6.8-0.7c0.7-1.1,0.7-2.4,1.9-2.7c2.8-0.8,4.5,0.6,6.4,1.4c5.2-1.4,10.1-0.6,14.8,0.3c3.7,0.7,6.5,0.2,8.4-1.4
	c-4.9-0.4-9.8-0.8-14.7-1.2C347.4-240,345.9-240.6,345.7-241z M244.7-249.7c-0.6,0.1-1.3-0.2-2.4-0.3c1.6-0.6,2.1-0.8,2.6-1
	c0.4,0.2,1.1,0.5,1.1,0.7C245.9-250.1,245.3-249.8,244.7-249.7z"/>
<path class="st4" d="M228.3-127.2c-2.3-1.7-7-0.8-6.7-4.2c1.7,0.3,3.2,0.5,4.7,0.7c-0.7-1.7-1.3-3-1.8-4.4c-0.6-1.6-1.5-2.7-4.2-2.8
	c-1.3-0.1-2.6-0.5-3.9-0.8c-2.6-0.6-5.3-1.6-7.9-1.6c-9.1-0.2-18.2-0.2-27.4-0.2c-2.4,0-4.9-0.1-7.3,0.2c-2.1,0.2-4,0.9-3.4,3
	c0.2,0.6-0.6,1.9-1.5,2.1c-3.5,1.1-4.6,3.3-5.7,5.5c-0.3,0.7-0.6,1.6-1.4,1.9c-1,0.5-2.6,0.9-3.7,0.7c-1.4-0.2-2.1-1.2-1.3-2.4
	c0.6-0.8,1.4-1.9-1.1-2.4c-0.4,1-0.8,2-1.4,3.3c-2.3-0.7-4.4-1.3-7.4-2.3c3.2-1.2,5.4-2,7.7-2.8c-1.8-1.8-3.4-3.6-5.2-5.2
	c-0.4-0.3-1.2-0.6-1.8-0.7c-3.4-0.2-6.3-2.1-10-1.5c-1.2,0.2-2.7-0.3-4.1-0.6c-3.1-0.7-6.2-1.6-9.3-2.3c-4.1-1-8.2-2.1-12.5-2.8
	c-5.1-0.9-9.9-2.8-15.8-1.8c-3.1,0.5-7.3-0.8-8.5-3.4c-1.1-2.3-3.3-3.1-6.1-3.4c-4-0.5-8-1.1-12-1.4c-1.9-0.1-4.6,0.1-5.8,0.9
	c-1.7,1.2-6.1,1.2-4.7,4.1c0.1,0.2-0.4,0.6-0.7,0.8c-2.8,1.9-5.6,3.7-8.6,5.7c1.7,1.1,2.9,1.8,3.8,2.4c-0.8,2.4-1.5,4.5-2.2,6.6
	c-0.5,1.7-1.6,2.6-4.3,2.5c-2.6-0.1-5.1,0.1-5.4-2.5c1.3-0.5,2.6-0.9,4.5-1.6c-5.2-1.6-9.9-3-14.5-4.5c0.1-0.2,0.2-0.4,0.3-0.7
	c1.6,0.1,3.1,0.3,5.8,0.5c-3.1-1.5-5.3-2.6-7.8-3.8c-2.3,2.5-4.6,4.8-2.9,7.7c-3.5,2-6.7,3.9-9.5,5.5c-0.1,3.9,5,7,0.6,10.4
	c2.9,2.4,8.7-0.1,10.5,3.5c-3.8,0.2-4,0.3-5.6,1.6c-1.5-0.5-3-0.9-4.9-1.5c0.3,1.3,0.8,2.2,0.5,3c-0.3,0.9-1.4,1.6-2.2,2.4
	c0.8,1,1.5,1.9,2,2.6c-1.3,2.1-2.5,4-3.7,5.9c-1-0.1-2.4-0.2-3.7-0.3c-0.1,0.2-0.2,0.4-0.2,0.6c1.5,0.9,3.1,1.7,4.4,2.5
	c-1.5,1.2-3.9,2.1-3.9,3.1c0,2.3-0.4,5.3,2.5,6.7c2.5,1.2,6.4,1.8,9.4,1.5c3.4-0.4,6.7-0.1,9.2,0.9c3.2,1.3,6.3,1.2,9.5,1.5
	c2.8,0.2,5.5,0.6,8.3,1c3.5,0.5,6.9,1.5,10.3,1.5c5.5,0.1,10.3,1.3,15,3c5.6,2,11.4,4,18,1.9c0.3-0.1,0.7,0,1.1,0.1
	c0.1,0.4,0.3,0.9,0.4,1.2c5.3,0.3,10.6,0.6,16,1c0.8-1.8-0.6-2.4-2.6-2.4c-6.2,0-12.2-1-18.2-2.1c-8.1-1.5-16.4-2.7-24.6-4.1
	c-1-0.2-1.9-0.5-2.8-0.8c3.6-0.2,7-0.2,10.4,0.3c5.8,0.7,11.6,1.6,17.4,2.6c8.1,1.4,16.3,1.8,24.6,1.7c4-0.1,8,0.6,12,1.1
	c1.7,0.2,2.2,1.1,0.5,2.3c-3.6-1.1-7-1.3-9,1.3c1.9,2.2,3.5,4.2,5.3,6.3c2.1-1,3.6-2.6,6.3-1.1c0.6,0.3,2,0,3-0.1
	c4.2-0.7,8.3-0.7,12.6-0.3c3.1,0.3,6.3,0,9.4,0.1c1,0,2.5-0.1,3.1,0.3c3.5,2.5,8.3,1.5,11.1,2.3c2.3-0.8,3.7-1.3,5.2-1.8
	c-3.6-0.5-7-1.7-10.6,0.1c-0.9-0.9-1.9-1.8-3.3-3.1c-2.3,2.7-5.8-0.8-8.4,1.2c-1.8-1.9-5.2-1.6-8.2-2.9c7.7-2,14.6-0.7,21.5,0
	c7.7,0.8,15.2,2.2,22.8,3.3c2.1,0.3,4.2,0.3,6.3,0.4c1.9,0.1,2.3-0.8,2.2-1.9c0,0-0.1,0-0.1,0.1c-0.1-0.1-0.1-0.1-0.2-0.1
	c-1.2-0.1-2.5-0.3-4-0.5c2.5-0.8,2.6-0.8,4,0.5c0.1,0,0.2,0,0.3,0l0,0c2.4-1,4.6-1.9,7.6-1.8c1.8,0.1,3.5-0.7,3.2-2.3
	c-0.4-2.1,1.4-2.6,3.7-2.8c2.7-0.2,4.7-0.9,5.5-2.8c-1.1-2.5-7-2.6-6.3-6.3c4.5,0.6,8.7,1.3,14,2c-1-1.9-1.3-3.1-2.3-4
	c-1.5-1.3-3.3-2.5-5.3-3.5c-2.2-1.1-1.5-1.9-0.1-3.2c1.5,0.5,2.8,0.9,4.2,1.3c0.9-2.4,0.8-2.9-1.9-3.3c-3.4-0.5-6.8-0.5-10.4-0.8
	c-0.3-1.6-0.6-3.2-0.8-4.6c3.2-1.8,6.4-3.5,9.7-5.3c-0.6-0.7-2.4-2.3-2.3-2.4c2.4-1.5-1.1-2.7-0.2-4.2c3.5-0.3,6.9-0.6,9.9-0.9
	c2.3-1.9,1-3.4-0.5-4.8C225.8-126.7,226.8-126.9,228.3-127.2z M31.3-91.9c-0.1-0.3-0.1-0.5-0.2-0.8c2.4-0.9,2.4-0.9,6.1,0.3
	C34.6-92.2,32.9-92,31.3-91.9z M31.2-114.3c0.6-0.4,0.8-0.6,1-0.6c1.5,0.2,2.9,0.4,2.4,2.1C33.4-113.3,32.3-113.8,31.2-114.3z
	 M37.2-116.8c1.7,0.7,3.4,1.1,4.3,2c0.8,0.8,0.8,2.1,1.1,3.1C37-112,36.5-112.5,37.2-116.8z M38.6-93.2c3.2-1.2,4.8,0.1,7.7,1.3
	C42.8-91.5,40.6-91,38.6-93.2z M41.8-121.9c0.7,0.8,1.3,1.5,2.3,2.6c-5.1,0.2-8.7-0.9-12.6-2.2c2.5-2.3,5-1,7.6-0.6
	c1.9-1.3,4.1-2.7,7.5-0.9C45-122.7,43.5-122.3,41.8-121.9z M57.1-89.4c-1.2-0.2-2.5-0.3-3.7-0.5c0.1-0.2,0.2-0.5,0.3-0.7
	c1.2,0.2,2.4,0.5,3.6,0.7C57.2-89.7,57.1-89.6,57.1-89.4z M154.4-122.5c-0.2-0.5-0.5-0.8-0.5-1.2c0-0.1,1-0.4,1.2-0.3
	c0.4,0.2,0.6,0.6,0.9,1C155.6-122.9,155.1-122.8,154.4-122.5z M43.7-141.4c-1.3-0.3-2.7-0.7-4-1c0.1-0.2,0.2-0.4,0.3-0.5
	c1.3,0.3,2.7,0.7,4,1C43.9-141.8,43.8-141.6,43.7-141.4z M68.6-82.9c0.9,0.2,1.9,0.3,2.8,0.5c-0.1,0.3-0.2,0.6-0.3,0.8
	c-0.9-0.2-1.9-0.5-2.8-0.7C68.4-82.5,68.5-82.7,68.6-82.9z"/>
<path class="st5" d="M556.4-121.7c-0.6,1-0.9,1.8-1.3,2.7c-0.4,0.8-1.8,1.9-0.3,2.1c0.7-1.1,1.2-2.1,2-2.9s2-1.1,3.5-1.8
	c-0.5-1.7,0.4-2.9,2-4.6c1.7-1.6,4-3.6,3.7-5.7c0-0.4,0.5-1.1,0.8-1.7c0.2,0.2,0.5,0.2,0.6,0.4c0.1,0.7,0.1,1.3,0.1,2.5
	c3.3-3,4.8-6.4,8.8-8.9c-0.6,1-0.8,1.6-1.3,2.3c-0.9,1.1-2,2.2-2.6,3.3c-2.4,4.5-5,9-9.3,13.1c-0.3,0.3-0.7,0.6-0.8,0.8
	c-0.5,2.3-2.8,4.3-4.5,6.2c-3,3.2-5.4,6.9-8.6,9.1c-0.9,1.6-1.2,3.1-2.3,4c-2.6,2.3-5.4,4.3-8.3,6.5c-0.8-1.5,1.1-4.1-0.9-4.8
	c-1.2,1.2-2.4,2.3-3.8,3.6c-0.4,0.4-0.9,1.1-0.9,1.3c0.6,1.3-0.6,1.9-2,2.9c-1,0.6-1.7,1.6-2.6,2.4c0.7,0.2,1.3,0.3,1.5,0.4
	c1.1-0.9,2.2-1.6,3.2-2.3c0,0.2,0.3,0.2,0.4,0.3c0.6-1.4,1.1-2.7,1.7-4c0.7,0.5,1.3,0.8,1.9,1.4c0.3,0.4,0.7,0.9,0.5,1.3
	c-0.8,1.5-1.9,3.6-3.2,4.4c-1.8,1.2-3.2,2.6-4.6,4c-0.2,0.1-0.3,0.3-0.7,0.7c0.8-0.2,1.4-0.3,1.8-0.3c0.3,1.3,0.5,2.5,0.7,3.8
	c-0.9,0.4-2,0.8-2.8,1.2c-0.2,0.6-0.5,1.2-0.6,1.9c-1.4,0.7-2.4,1-3.1,0.1c-0.3-0.4-1.1-0.3-1.7-0.4l-0.6,4.9
	c-1.8,0.6-3.7-0.5-5.1,2.2c0.1,0.4,0.6,0.7,0.6,1.2c-1.5,0.8-2.7,1.8-2.8,0.1c-0.1-1.3-1.2-1.1-2.5,0c-0.1,1.1-0.1,2.2-0.3,3.2
	c-0.3,1-1,2.1-1.5,3.1c-0.6,1,0.1,2.2-2,3.1c0.5-1.7,0.8-3.3-2-2.9c0.3,1.6,0.2,3.2,0.8,4.2c0.3,0.5,1.9-0.1,3.2-0.3
	c0.1,0.5,0,1.3,0.1,1.8c-0.4,0.3-0.7,0.4-0.9,0.4c-2.2-0.3-4.2,1.8-6.3,2.8c-0.2,0.1-0.6,0.6-0.7,0.8c0.5,1.1-0.7,1.6-1.5,1.9
	c-1.1,0.6-2.3,1-3.2,1.5c0,1,0.1,1.9-0.1,3c0.1,0.1-0.3,0.3-0.9,0.7c-0.2-0.5-0.3-1.2-0.4-1.6c-2.4,0.7-3.1,1.1-3.1,2.2
	c0.1,1.3,0.5,2.3,0.7,3.8c0.9-1.3,1.6-2.2,2.2-3.1c0.1-0.1,0.4,0,0.4,0c-0.2,1-0.4,2.1-0.8,3.6c-2.9,0.8-5.5,4.2-8.5,3.3
	c-0.3-0.1-1.3,0.7-2.4,1.3c1.3,1.1,2.4,2.1,3.8,3.3c0.6-1.3,0.9-2.2,1.5-3.2c1.9-1.2,4-2.7,6.7-4.3c-0.6,1.2-0.9,1.8-1.5,2.8
	c1.4-0.4,2.6-0.6,4-1.1c-0.5,0.6-0.7,1-1,1.5c1.2-0.1,2.4-1,2.7-2c0.5-1.4,1.8-1.8,2.9-2.2c0-0.5,0.2-1,0.3-1.5
	c0.8-1.4,2.6-2.2,3.4-1.7c1.4,1,2.1,0.8,3.6-0.8c0.8-0.9,1.6-1.8,2.4-2.7c2.5-0.4,4.9-1.5,6.6-3.4c2.2-2.6,4.8-4,7.4-5.2
	c1.6-0.7,3.3-1.5,4.7-2.7c1.9-1.8,3.5-2.6,5.1-1.7c0.6-2.3,2.6-4.6,5.1-5.5c1.6-0.6,2.7-1.4,3.8-2.6c2.9-2.8,6-5.6,9.1-8.1
	c1.5-1.3,1.8-1.2,2.1,0.3c1-0.1,0.7,0.8,0.5,1.5c2.1-0.6,3.9-1.5,5.6-3.4c-0.4,1.1-0.9,2-1.3,3.1c1,0.1,1.9,0.1,2.9,0.3
	c-0.5,0.6-0.7,0.9-0.9,1.3c-0.2,0.3-0.4,0.6-0.6,1c2-0.1,2.4-1.8,3.3-2.7c2.9-2.5,5.6-5.4,8-8.6c1-1.4,2.5-2.5,3.9-3.9
	c0.5-0.5,0.8-0.9,1.2-1.3c0.9-1.1,1.9-2.3,2.9-3.5c1.2-1.4,2.3-2.7,3.1-3.6c1.6-0.9,3-1.4,3.9-2.2c1.5-1.4,0.5-2.3-0.1-3
	c0.6-0.8,1-1.5,1.5-2.1c0.3-0.3,0.6-0.5,0.7-0.7c0.3,0.4,0.6,0.7,0.8,1c1.5-0.7,1.4-1.3,1.3-2.3c-0.3-1.7,0.8-3,3.3-4.3
	c0.2-0.4,0.1-0.7,0.2-1.1c1.3,0,2.5-0.2,4-0.3c-0.6-1.4,1.5-3.9-1.9-3.3c2.2-2.7,4.1-5.1,5.9-7.5c0.9-1.1,1.9-2.2,2.6-3.3
	c1.9-2.9,3.7-5.7,5.5-8.5c0.7-1,2.1-2.2,2.3-3c0.1-2.3,1.8-4.7,2.6-6.9c-0.1-0.1,0.3-0.3,0.6-0.5c0.5,0.1,1,0.2,1.4,0.3
	c2.8-2.2,0.5-3.5,1.9-5.5c0.8-0.2,1.7-0.5,2.9-0.8l0.7-7.2c0,0,0,0-0.1,0.1c0,0,0,0-0.1-0.1c-1.1,0-1.1-0.6-0.4-1.8
	c0.9,0.4,1.3,0.7,0.4,1.8l0,0l0,0c0.5-0.2,0.8-0.4,1.1-0.5c0.5-1.2,0.6-2.8,1.4-3.4c1.7-1.2,1.7-2.7,2.9-3.8
	c0.4-0.4,0.6-1.2,0.5-1.5c-0.1-0.2-1-0.1-1.3-0.1c0.1-1.5,0.3-2.6,0.4-4c0.1-1.2,0-2.3,0.2-3.5c0.1-1.2,0.9-1.9,2.1-1.9
	c0.5,0,0.9,0.2,1.5,0.1c0.8-2.1,0.8-2.1-0.2-3.5c-1.6-1.9-0.1-4.8,3.2-6.6c0.7-0.4,1.3-1.4,2.1-2.3c-2.3-0.1-3.2-1.6-2.5-3.2
	c1.7-4.1,1.8-7.7,1.9-11.4c0-0.7-0.1-1.2,0.1-1.8c1.1-3.1,2.2-6.2,0.5-8.4c0.9-0.4,1.5-0.6,1.9-0.9s0.9-0.7,1.2-0.9
	c-0.6-1.5-1.9,0.6-2.9,0.6c0.7-1.9,2.9-4,1.6-5.4c-0.6,0-1.2,0.1-2.2,0.2c2-1.7,1.7-3.3,1.3-3.9c-1.4-1.3-2.2-2.6-0.6-5.3
	c0.6-1.1,0.7-2.2,0.9-3.4c0.2-1,0.4-2.1,0.7-3.4c1.3-0.3,2.4-0.5,3.8-0.9c0.2-1,0.9-2.4,0.6-3.1c-0.8-2.5-2-4.7-3-7.1
	c-1.1-2.3-2-4.7-3.2-7.1c-1.3-2.4-2.7-4.9-4.3-7.2c-2.4-3.3-4.9-6.6-8.9-8.4c-2.5-1.2-5.7-1.6-7-4.1c-0.3-0.7-1.5-0.6-2.2-1.1
	c-1.8-1.2-5.6-0.8-5-4.3c-0.1-0.1-0.2-0.2-0.4-0.3c-2.4-0.3-3.3-1.9-4.4-3.3c-1.7-2-4.9-1.4-7.8-1.4c-0.5,0-1.6,0.9-2.3,1.5
	c-0.6,0.5-1.1,1.2-1.7,1.8c-1.4-0.1-2.7-0.2-4.1-0.2c-0.4,1.6-0.7,2.9-1.1,4.3c-0.2,0.5-0.7,1.3-1.1,1.5c-0.4,0.3-1.1,0-1.4-0.3
	c-1-2-3.3-2.7-6.2-2.8c-1.2,2.5-3.6,4-6,5.5c0,1.4,0,2.7,0.1,3.9c-0.2,0.1-0.4,0.3-0.6,0.3c-0.6-1.8-1.2-3.6-1.9-5.7
	c-0.8,1.3-1.5,2.2-2.3,3.4c-2.1-1.1-3.7-2.7-7.4-0.4c-0.1,3-0.1,6.1-0.2,9.2c0.1,0.1,0,0.2,0.1,0.2c0.2,1.1,0.5,2.3,0.4,3.5
	c-0.1,3.6-0.1,7.3-0.5,10.9c-0.3,2.3-1.1,4.9-2.5,7.5c-1.1,2.2-2.2,4.4-2.5,6.6c0,0.5-0.2,0.9-0.3,1.4c0.1,0,0.3,0,0.2,0.2
	c2.2,7.4,2.7,15.8,2.7,24.3c0.1-0.1,0.1-0.1,0.2-0.1c0.1,0.4,0.6,0.7,0.7,1.1c0.7,3.2,1.5,6.2,2.4,9.4c0.4,1.1,0.7,2.1,1.1,3.1
	c0.6,1.3,2.1,2.1,0.5,4.5c-0.2,0.4,0.1,0.7,0.1,1c0.6,2.5,1.3,5,1.9,7.5c-1.7,1.6-3.3,3.1-4.8,4.5c0.1,1.4-0.6,3-1.2,4.6
	c-0.7,1.4-1.1,2.7-1.5,3.9c0.3-0.5,0.9-1,1.3-1.5c1.6,1,1.5,1.4-0.7,3c0.3,0.7,0.5,1.4,0.8,2.5c-1,0.1-1.7,0-2.3-0.1
	c-0.3,2-0.6,3.9-1.5,5.8c1.9,0.3,1.5,2.4,3,3c0.7,0.3,0.9,0.9,1.4,1.4c1-2.4,2.9-1.1,4.4-3.1c-0.3,1.2-0.4,1.6-0.5,2.3
	c1.1,0,3.4-1.3,2.7,1.1c-0.2,0.1-0.5,0.2-0.8,0.4c-0.3,0.2-0.7,0.4-1.4,0.8c3.7-0.2,4.7-1.3,5.7-5.9c1.8,1.2,0.1,3.3-0.8,5.3
	c2.9-1.9,3.6-4.4,5.1-6.6c0.2,1.3-0.5,2.6-1.4,4c-0.9,1.3-2,2.9-2.2,4c-0.2,1.7-1,2.7-2.8,3.9c-1,0.6-2.3,1.1-2.1,2.5
	c1.5-0.5,2.5-0.3,2.5,1.2c-2.8,3.1-3.2,7.2-7.6,9.6c-0.4,1.2-0.1,2.4-0.8,3.3C562.1-127.2,559.9-123.8,556.4-121.7z M500.6-44.4
	c0-0.2-0.4-0.3-0.3-0.6c0-0.3,0.2-0.5,0.6-1.2c0.1,0.7,0.4,0.9,0.3,1.1C501-44.7,500.8-44.6,500.6-44.4z M504.5-46
	c-1.5-0.2-1.5-0.9,0-2.3C504.5-47.4,504.6-46.9,504.5-46z M514.2-65.7c0.4-0.4,0.7-0.8,0.8-0.8c0.4,0,0.7,0.1,0.9,0.2
	c-0.2,0.3-0.5,0.6-0.6,0.9C514.9-65.4,514.6-65.5,514.2-65.7z M569.4-82.3c-0.3,0.3-0.7,0.8-0.9,0.9c-0.2,0.1-0.6-0.1-1.2-0.3
	c0.6-0.5,0.9-0.8,1.1-0.9C568.8-82.5,569-82.3,569.4-82.3z M560.7-78.8c-0.4-1.5,0.9-2.1,1.7-2.8c0.3,0,0.3,0.2,0.5,0.2
	C562.4-80.8,561.7-80,560.7-78.8z M566.6-82.8c-0.2,0.4-0.6,0.9-0.8,1.3c-0.3,0-0.5-0.1-0.6-0.2c0.3-0.5,0.7-1,1.1-1.4
	C566.2-82.9,566.5-82.9,566.6-82.8z M521.8-67L521.8-67c0,0.1,0,0.1,0,0.1c0.3,0.7,0.5,1.4,0.8,2c-3.4,3.3-5.9,4.1-8.6,2.7
	c2.1-2,3.6-1.7,5.2-1.2c0.9-1.2,1.8-2.4,2.5-3.5l-0.1-0.1C521.7-67,521.8-67,521.8-67c0.5-0.6,1-1.2,2-2.5
	C523.7-67.7,522.6-67.4,521.8-67z M534.1-76.1c-0.6,0.5-0.7,0.7-1.2,1c0-0.2-0.4-0.3-0.4-0.4c0.1-0.3,0.3-0.5,0.6-0.7
	C533.5-76.3,533.6-76.2,534.1-76.1z M593.3-109.8c0.1,0.7,0.5,1.2,0.3,1.9c-0.3,1.3-2.9,3.8-4.5,5c1.2-2.3,2.4-4.5,3.5-6.6
	L593.3-109.8z M543.2-93.3c-1.2,2.9-3.9,4.1-6.7,5.8c0.3-3.2,4.9-3.2,4.4-6C542.2-93.5,542.7-93.4,543.2-93.3z M554.5-107.4
	c-0.6,0.9,0.1,1.9-1.9,2.9c-1.3,0.6-1.3,2.8-3.7,2.7c2-2.2,3.6-4,5.2-5.7C554.2-107.5,554.4-107.4,554.5-107.4z M558.3-112.2
	c-0.2,0.4-0.3,0.8-0.5,1.1c-0.2,0.3-0.7,0.6-1,0.8c0-0.2-0.2-0.2-0.3-0.4c0.5-0.6,1.1-1.2,1.6-1.8
	C558.1-112.3,558.1-112.2,558.3-112.2z M568.6-248.2c0.1-0.9,0.4-1.9,0.7-2.9c0.2-0.1,0.3-0.1,0.6-0.2l-0.4,2.8
	C569.4-248.4,569.1-248.3,568.6-248.2z M570.9-138.4c0.5-0.5,0.9-0.7,1.4-1.2c0,0.2,0.4,0.3,0.3,0.4c-0.4,0.4-0.9,0.8-1.2,1.3
	C571.3-138.1,571-138.2,570.9-138.4z M423.1-14c0.8-1.5,0.5-3.1,2.3-4.6c0-0.1-0.5-1-0.7-1.6c-0.5,0.5-0.8,0.9-0.7,1.1
	c0.2,0.8-0.3,1.3-1.3,1.6c-1,0.3-1.2-0.2-0.9-1c0.2-0.7,0.8-1.5,1.2-2.3c3.2-0.2,6-0.2,8.5,0.3c0,0.3-0.2,0.5-0.1,0.7
	c-1.3,0.6-2.4,1.3-3.8,1.9c2,0.1,3.9,0.2,6.1,0.2c-0.1-0.7-0.2-1-0.2-1.5c0-0.4,0.2-0.9,0.2-0.9c1.6-0.5,3-1.1,4.3-1.4
	c1.3-0.3,2.6-0.6,4.1-0.9c-0.5-0.9-0.8-1.6-1.1-2.2c-0.6,0.5-1.1,0.9-1.9,1.3c-0.3-2.5-3.8,0-4.7-1.6c-0.5,1.1-0.8,1.6-1.1,2.2
	c-1.1,0.1-2.1,0.2-3.2,0.4c-2.8,0.3-3.1-0.5-1-3.7c2-0.2,4.1-0.2,6.2-0.6c2.2-0.4,4.7-1.2,7.1-1.7c1.2,1.7,1.6,1.6,3.7-0.1
	c0.8-0.7,1.7-1.3,2.7-1.7c1.4-0.7,2.8-0.8,4.2-1.5c3.6-1.6,7-2.7,10.4-2.7c0.4-1.1,0.9-2.2,1.6-3.6c-3.3,1.2-5.8,0-9.3,2
	c-1.3,2.7-1.5,2.9-3.6,3.7c-2.4,1-4.8,1.8-5.5-0.6c-3.5,3.2-6.4,3.3-9.5,3.6c-1.9,0.2-3.7,0.1-5.6,0.8c-2.9,1.3-4.5,0.3-6.7,0.2
	c-0.4,0-0.4-0.7-0.7-1.1c3.7-1.3,6.7-1.4,9.6-1.5c1.1,0,2.7,0,3.3-0.5c1.2-1.1,2-1,2.9-0.8c0.9,0.2,1.7,0.4,3.1-0.4
	c-0.8-1.6-2.9-1.5-4.5-1c-3.2,1-5.4,0.6-7.4-0.5c-0.1,0-0.5,0.2-0.7,0.2c-1,2.9-2.7,4-5.2,3.2c-0.3,0-0.3-0.2-0.5-0.2
	c-0.5-0.6-1.1-0.6-2.3,0c-1.1,0.6-2.3,0.7-3.5,0.8c-4.2,0.5-8.6,1.1-12.8,1.5c-6.9,0.7-12.4-1.1-18-2.5c-0.3-0.1-0.4-0.7-0.5-1
	c1.7,0,2.9,0.5,4.3,0.8c1.4,0.3,2.9-0.1,5-1.2c-1.2,0-2-0.2-2.9-0.3c-1.9-0.3-3.7-0.4-5.5-0.7c-3.7-0.7-7.8-0.8-11.3-1.8
	c-6-1.8-11.7-4.1-17.3-6.5c-7.3-2.9-14.4-5.9-20.5-10.3c-0.9-0.6-2.2-0.5-3.8,0.2c0.4,0.6,0.6,1,1,1.3c4.6,5.9,11.7,9.4,17.9,13.9
	c1.6,1.2,3.7,2.1,5.5,3c2,1.1,3.9,2.1,5.6,3.2c1.8,1,3.3,2,4.9,3c2.1,1.1,3.9,2.4,6.1,3.5c1.8,0.9,3.4,2.1,5.5,2.3
	c2.6,0.2,4.1,1.6,6.4,2.2c0.7,0.2,1.1,1.1,1.3,1.8c0.5,2,2.4,2.7,4.6,3.2c-0.4-1.6-0.8-2.8-1.1-4.4c1-0.3,2-0.8,2.5-0.9
	c2.6,0.4,4.7,1.3,4,4.6c3.3-0.9,5.2-0.2,5.7,2.2c0.2-0.1,0.4-0.3,0.6-0.3c0.3-1.4,0.8-2.7,1.3-4.5c1.8,0.1,3.1,0.3,4.5,0.4
	c1.1,0,1.8,0.2,1.5,1.4c-0.3,1.5,0.7,1.7,2.4,2c-0.4-1.2-1.7-1.7,0.1-3.5c0.1,1.3,0.9,1.6,2.5,1.3c1.1-0.2,2.2,0.5,2.7,1.1
	c0.4,0.3-0.3,1.5-0.6,2.2C422.3-12.3,422.7-13.2,423.1-14z M420-28.2c0.3-0.3,0.3-0.5,0.6-0.6c0.1-0.1,0.4,0,0.5,0.1
	c0,0.2-0.2,0.4-0.3,0.9C420.3-28.1,420.1-28.1,420-28.2z M420-21.2c-1.9-0.8-5.3,0.4-6.3-1.6c3.1-0.3,6.7-1.4,8.5,0.9
	C421.2-21.7,420.3-21.1,420-21.2z M424.1-22.9c0.2-0.1,0.6-0.5,0.8-0.7c0.3,0.4,0.6,0.6,0.8,1c0,0-0.5,0.5-0.7,0.6
	C424.5-22.2,424.3-22.6,424.1-22.9z M418.5-18c-0.1-0.2-0.1-0.6,0-1.1c1.4-0.3,1.7,0.2,1,1.7C418.8-17.7,418.5-17.7,418.5-18z
	 M516.6-74.4c-2.3-0.6-4.6,0.4-9,4.3c0.5-1.2,0.6-2.3-1-1.8c0.2-0.5,0.4-1.1,0.8-2c2.1,1.1,4.1-0.6,6.3-1.8c2.3-1.2,4.4-2.3,7-3.7
	c0.1-0.8,0.2-1.7,0.2-2.9c-0.7,1.1-1.3,2-2.1,3.1c-0.4-0.8-0.6-1.3-1-2.1c-1.3,1.1-2.5,2-3.8,3.1c0.2-0.7,0.5-1.6,0.8-1.8
	c2.7-1.4,5.5-2.8,7.9-4c0.9,1.8,1.7,3.3,2.5,4.8c0.5,0.4,2.5-1.7,2.6-0.1c-1.3,0.8-2.4,1.5-3.8,2.4L524-77c-0.7-0.5-1.4-1-2.4-1.6
	c-0.6,0.3-2,1-3.1,1.6c-0.4,1.6-0.7,3-1,4.7c-1.1,0.1-2,0.2-3.5,0.3C514.9-73.1,515.8-73.8,516.6-74.4z M439.7-9.4
	c-0.7,0.4-1.7,0.9-3.1,1.6c-0.4-2.3-0.7-4.4-3.3-4.8c-0.3,0-0.3-0.1-0.6-0.1c-1-0.6-3,0.8-3.8-0.4c-0.5-0.8-1.9-1-3.1-1.5
	c1.6-1.5,3.5-1.4,4.1-0.9c1.4,1.4,3.8,0.7,5.9,0.7c1.4,0,2.4-0.1,3.2,1c0.7,1,2.5,1.1,3.8,1.5c-0.1,0.3-0.2,0.4-0.4,0.7
	c-1.1-0.1-2.2-0.1-3.3-0.2C436.8-9.8,440.4-10.8,439.7-9.4z M614.6-124.4c-0.8,0.9-1.5,1.9-2.3,2.4c-0.6,0.3-1.5-0.2-2.1,0.7
	c-0.5,0.8-0.6,1.7-1,2.6c2.3-1.2,3.6-1,3.4,0.5c-0.1,0.9,0.1,1.4,0.9,1.7c0.3,0.1,0.3,0.7,0.3,1c0.8,0.1,1.4,0.3,2.3,0.4
	c0.2-0.6,0.5-1.4,0.5-1.5c-1.4-0.4-0.6-1.4,0-2.5c0.6-1.2,1.6-2.4,2.5-3.9c-2,0.8-3.5,1.4-5.1,2
	C614.3-122.2,615.6-123.4,614.6-124.4z M615.3-119.8c0,0.2-0.2,0.6-0.4,0.8c0,0.1-0.4,0-0.9,0.1c0.2-0.3,0.4-0.7,0.6-0.8
	C614.7-119.9,615.2-119.8,615.3-119.8z M479.7-29.3c2.3-3,4.7-3.7,6.2-2c0.6,0.5,1.8,0.6,2.7,0.9c-0.1,0.3-0.2,0.4-0.2,0.5
	C485.5-29.5,481.4-26.1,479.7-29.3z M545.9-107.1c-0.1,0.9-0.4,1.9-0.7,2.9c-1.1,0.6-2,1.1-3.3,1.8c1.3-3.6,4.3-6.2,7-9.2
	c1.5,0.7,1.2,1.9,0.5,3.2C548.3-106.6,547.1-107.9,545.9-107.1z M453-16.6c-0.1,1.6,0.1,3.1,1.9,3.3c-2.4,2.8-2.4,2.8-4.6,2.2
	c0.9-0.7,1.6-1.3,2.6-2c-0.9-0.4-1.7-0.5-2.6-0.9C451.3-14.9,452.2-15.8,453-16.6z M484.2-36.9c-0.4-0.3-0.8-1.1-0.4-1.8
	c0.2-0.5,1.3-1.5,2-1.7c0.9-0.4,1.8-0.3,3.6-0.6c-1.3,1.5-2,2.5-3.1,3.4C485.7-37.1,484.5-36.8,484.2-36.9z M613.7-115.5
	c-0.5,0.7-1,1.5-1.3,2.1c-1.4,0.7-2.8,0.3-4,2.1c-0.2,0.4-2.1,0.8-3.8,1.3C607.5-112.6,610-115.5,613.7-115.5z M444.5-12.8
	c0.7-1,1.3-2,2.1-3.3c0.2,2.2,3.1,2.1,2.1,5.3C447.2-11.6,445.9-12.1,444.5-12.8z M502.5-70.1c1.3-0.6,2.7-1.2,3.9-1.9
	c-2.1,2.3-4.3,3.4-6.8,4c-0.9-1.3-1.5-2.6-2.3-3.7c0.8,0.2,2.1-0.4,2.1,0.9C499.4-69.5,500.5-69.2,502.5-70.1z M480.5-45.7
	c1-1.9,2.1-3.7,2.9-5.4c0.1-0.1,0.3-0.1,0.5-0.2c0.1,1.6,0.2,3.3,0.4,5.2C482.6-45.9,481.5-45.8,480.5-45.7z M560.8-143.4
	c-3.3,0-3.3-1.8-2.9-4.4C560.2-147.2,559.6-144.9,560.8-143.4z M648.4-211.1c-0.2-1.8-0.4-3.2-0.6-4.7c2.7-0.8,2.3,1,2.7,2.2
	C650.6-212.6,649.6-211.8,648.4-211.1z M450.3-19.4c0.9-1.1,1.6-1.9,2-2.5c0.6,0.5,1,0.9,1.6,1.1c0.8,0.1,1.8-0.1,1.4,1.3
	C453.8-19.4,452.2-19.4,450.3-19.4z M569.4-141c-1.5,1-2.4,1.6-3.6,2.3c-1.9-0.1-1.3-2.2-2.2-3.8c0.8,0.2,1.6,0.1,2,0.3
	C566.9-140.6,566.7-140.6,569.4-141z M644.4-189.2c-0.6,1.8-0.9,3.2-1.3,4.4c-1.2,1-2.3,2.1-3.3,3.1c-0.3,0-0.3-0.1-0.6-0.1
	C640.9-184.1,642.5-186.3,644.4-189.2z M474.1-44.1c-0.6,0.1-1.2,0.3-2.3,0.4c1-0.9,1.6-1.4,2.3-1.9c0.7,0.2,1.4,0.6,2.1,0.3
	c0.6-0.2,1.1-1.3,1.6-0.2c-1.7,1.1-3.4,2.2-5,3.2c-0.1,0-0.1-0.2-0.2-0.2C473-43,473.5-43.4,474.1-44.1z M559.6-76.5
	c-0.1,0.7-1.4,2,0.5,1.5c-0.5,0.6-0.9,1.2-1.4,1.9c-1.1-0.1-1.9-0.3-2.7-0.4C557.1-75.8,557.5-76.1,559.6-76.5z M492.2-51.5
	c0.1,0.5,0.3,1,0.5,1.5c-0.2,0.1-0.6,0.5-0.8,0.7c-0.3-1-2.7-0.3-1.8-2.2c0.3-0.6,1.4-1.3,2.5-2.2C492.4-52.7,492.1-52.1,492.2-51.5
	z M599.9-107.1c-0.4,1.1-1.7,2.4-2.6,3.6c-0.3,0-0.3-0.1-0.6-0.1c0.8-1.6,1.7-3.2,2.4-4.8c0.2-0.5,0.2-1.1,0.4-1.6
	C601.2-109.6,600.4-108,599.9-107.1z M621.2-131.5c0.8-0.1,1.8-0.3,3.3-0.4c-0.9,1-1.3,1.7-2,2.5
	C621.6-129.9,620.1-129.8,621.2-131.5z M603.5-108c0.5,0.5,0.6,1,0.9,1.4c-0.7,0.5-1.3,0.9-2.1,1.4c-0.5,0.3-1.2,0.8-2.2,1.5
	C600.7-105.6,602.1-106.6,603.5-108z M619.9-135.2c-1.3,2-2.1,3.4-3.1,5.1C616-132.3,616.2-132.7,619.9-135.2z M555.2-139.7
	c-0.5-0.1-0.8-0.3-1.2-0.4c1.4-1.6,3-2,3.1-1c0.3,0.6-0.5,1.4-1.4,1.7C555.6-139.6,555.2-139.6,555.2-139.7z M513.5-80.7
	c-3.6,2.8-3.7,2.8-3.8,0.8C510.8-80,511.8-80.2,513.5-80.7z M494.2-56.9c-1.4,0.4-2.6,0.6-4,1C493.2-58.4,493.2-58.4,494.2-56.9z
	 M500.5-64.1c0.5-1.4,0.9-2.4,1.4-3.9c0.6,0.9,0.9,1.6,1.3,2.3C502.6-65.2,501.9-64.8,500.5-64.1z M456.2-17.9
	c0.5,0.4,0.9,0.9,1.6,1.6c-2.1,0.8-3,0.9-3-0.3C455-16.8,455.7-17.3,456.2-17.9z M645.5-224.8c-0.1-1-0.2-1.8-0.3-2.9
	c0.7-0.2,1.1-0.3,2.2-0.7C646.5-227,647.3-226.1,645.5-224.8z M507.8-65.8c0.9-0.7,1.9-1.3,3.1-2.2
	C510.3-66.2,510.3-66.2,507.8-65.8z M564.4-73.8c-1.2,1-2.3,2-3.5,3.1C561-72,561.8-72.8,564.4-73.8z M635.7-161.4
	c0.3-0.2,0.5-0.3,1-0.6c1.2,0.2,1.3,0.9,0.2,3C636.3-160.2,636.1-160.8,635.7-161.4z M523.5-85.7c-1.1,0-2.2,0-3.3,0.1
	C522.3-87.2,523.3-87.3,523.5-85.7z M647.6-220.6c-0.3-1-0.7-1.9-1.2-3.3C648.2-223.4,648.7-222.5,647.6-220.6z M507.2-67.7
	c1.6-1.9,1.6-1.9,3.4-1.5C509.6-68.8,508.6-68.4,507.2-67.7z M474.7-39.9c-1.1,0-1.8,0-2.7,0C474.2-42,474.2-42,474.7-39.9z
	 M505-58.5c-0.1-0.1-0.1-0.1,0-0.2C505.1-58.7,505.1-58.7,505-58.5L505-58.5c0.9,0.4,0.9,0.4,0.1,1.9c-0.6,0-1.3,0-1.9,0
	c0-0.1,0.2-0.4,0.2-0.4C504-57.7,504.4-58,505-58.5z M605-102.2c0,0.2-0.2,0.4-0.2,0.6c-0.8,0.2-1.5,0.4-2.5,0.7
	C603.3-103,604.2-102.4,605-102.2z M602.5-103c0.9-1.5,1.4-2.2,2-3.2c0.4,0.4,0.7,0.9,1,1.4C604.6-104.2,603.9-103.8,602.5-103z
	 M524.9-50.5c0.6-0.7,1.5-1.4,2.2-2.2C527-50.9,527-50.9,524.9-50.5z M495.1-50.5c0.6-0.9,1.2-1.7,1.9-2.7
	C497.6-51.6,497.6-51.6,495.1-50.5z M423.7-4.2c-0.1-1-0.2-1.7-0.3-2.3c0.2-0.1,0.4-0.3,0.7-0.4C425-6.4,425.6-5.9,423.7-4.2z
	 M648.7-208.3c0.2-0.1,0.3-0.3,0.8-0.7c0.9,0.2,0.7,1.3,1,1.8c-0.2,0.1-0.3,0.3-0.6,0.5C649.5-207.1,649-207.7,648.7-208.3z
	 M608.1-116.9c-0.6,0.9-1.4,2-1.9,2.9c-0.2-0.2-0.6-0.1-0.7-0.2c0.7-1,1.4-1.9,2.1-2.9C607.8-117.1,608-117,608.1-116.9z
	 M560.2-133.1c0.6,0.5,1.1,0.9,2,1.8C560.3-131.1,560.3-132.2,560.2-133.1z M449.5-27.9c0.1,0.5,0,1,0,1.6c0,0-0.5,0.3-0.5,0.2
	c-0.3-0.4-0.6-0.7-0.7-1.1C448.7-27.6,449.1-27.6,449.5-27.9z M604.4-106.2c-0.1-0.1,0-0.3,0-0.4c1.1-1,2-2.1,3-0.8
	C606.5-106.5,605.4-106.4,604.4-106.2z M491.6-67.5c-0.5-0.1-0.9-0.4-1.4-0.5c0.3-0.3,0.5-0.6,0.7-0.9c0.5,0.2,0.8,0.4,1.2,0.6
	C492.1-68.3,491.8-67.9,491.6-67.5z M463.9-31.3c1.2-1,1.7-1.5,2.7-2.3C466.4-31.9,465.6-31.6,463.9-31.3z M480.4-17.3
	c-0.3,0-0.4,0-0.7-0.1c0.2-0.5,0.4-1.1,0.7-1.7c0.4,0,0.7,0.1,0.8,0.1C481.1-18.4,480.8-17.9,480.4-17.3z M464.7-15.5
	c0.8-0.3,1.5-0.6,2.1-0.8c0,0.2,0,0.4,0,0.7c-0.8,0.3-1.4,0.5-2.2,0.8C464.6-15.2,464.6-15.4,464.7-15.5z M554.9-69.5
	c-1.1,1-1.6,1.5-2.3,2.1C552.4-68.7,553.1-69.1,554.9-69.5z M494.6-69.3c0.3,0.7,0.6,1.4,0.9,2.4C493.5-66.8,494.6-68.3,494.6-69.3z
	 M566.1-148.1c-1-0.1-1.6,0-2.3-0.1C565-149.3,565-149.3,566.1-148.1z M466.4-26.4c0.2-0.5,0.2-1,0.4-1.6c0.2-0.1,0.5-0.2,0.7-0.2
	c0,0.3,0.1,0.6-0.1,0.9c-0.1,0.3-0.4,0.6-0.5,0.8C466.8-26.5,466.7-26.4,466.4-26.4z M482.4-32.9c-0.1,0-0.3-0.1-0.5-0.1
	c0.5-0.7,0.9-1.3,1.5-2c0.2,0.2,0.3,0.2,0.5,0.3C483.4-34.1,482.9-33.5,482.4-32.9z M435.8-4.2c0.1-0.6,0.1-1.1,0.2-1.7
	C437.6-5.7,437.6-5.7,435.8-4.2z M446.2-10.1c0,0.2-0.2,0.5-0.1,0.7c-0.5,0-1.2,0.3-1.8,0.4c0-0.3,0.2-0.5,0.1-0.7
	C445-9.9,445.7-10,446.2-10.1z M648.3-176.8c0.1,0.8,0.3,1.3,0.5,2.2C647.3-174.7,647-175.3,648.3-176.8z M491.8-43.2
	c0-0.3,0-0.4-0.1-0.7c0.6-0.3,1.3-0.6,2-0.9c0,0.2,0.2,0.3,0.1,0.5C493.2-43.9,492.4-43.6,491.8-43.2z M620.6-125.6
	c0.3-0.8,0.6-1.7,0.9-2.4c0.2-0.1,0.4,0,0.5,0c-0.1,0.7-0.4,1.6-0.5,2.3C621-125.7,620.8-125.7,620.6-125.6z M624.7-143.7
	c0.3-0.9,0.7-1.8,1-2.7c0.3,0,0.4,0,0.6,0c-0.4,1-0.9,2-1.2,2.9C625-143.6,624.9-143.6,624.7-143.7z M551.1-136.8
	c0.5-0.6,0.9-1.3,1.9-2.4C553-137.3,552.2-137,551.1-136.8z M643.4-184.8c0.5-0.3,1.3-0.8,1.8-1.2c0.6,0.9-0.5,1.5-1.3,1.9
	C643.7-184,643.6-184.7,643.4-184.8z M558.7-152.4c0,0.1-0.9,0.1-0.8-0.2c0-0.4,0.4-0.8,0.8-1.4c0.5,0.2,1.1,0.3,1,0.4
	C559.4-153.1,559-152.7,558.7-152.4z M501.2-34c-0.1-0.1,0.3-0.5,0.6-0.9c0.4,0.3,0.6,0.4,0.6,0.6c0,0.2-0.3,0.5-0.7,0.8
	C501.7-33.7,501.4-33.8,501.2-34z M426.8-9.4c-0.2,0.1-0.5,0.5-0.7,0.6c-0.3-0.4-0.7-0.6-1-0.9c0.2-0.1,0.4-0.4,0.5-0.5
	C426.1-10,426.3-9.6,426.8-9.4z M477-26.7c0-0.4-0.2-0.8-0.2-1.3c0.3-0.1,0.5-0.2,0.9-0.4c0,0.5,0.1,0.9,0,1.4
	C477.5-27,477.2-26.8,477-26.7z M498.9-33.5c0.6,0.4,1.5,0.6-0.1,2.2C498.8-32.3,498.7-32.8,498.9-33.5z M639.7-172.6
	c-0.1-0.5,0-1,0-1.5c0.2-0.1,0.5-0.2,0.8-0.3c-0.1,0.6-0.2,1-0.1,1.5C640.3-172.8,639.7-172.6,639.7-172.6z M548.4-61.2
	c0.6-0.5,1.2-1,1.8-1.5c0.1,0,0.2,0.2,0.4,0.3c-0.5,0.5-1.2,1.1-1.7,1.6C548.7-60.9,548.6-61.1,548.4-61.2z M468.8-23.4
	c0.3-0.3,0.6-0.7,0.9-0.7c0.2-0.1,0.5,0.1,0.5,0.3c-0.3,0.3-0.5,0.6-0.7,0.6C469.3-23.1,469.1-23.2,468.8-23.4z M513.8-41.9
	c0.2-0.4,0.4-0.6,0.6-0.9c0.1,0,0.4,0,0.5,0.1c0,0.3-0.2,0.6-0.4,1.2C514.1-41.8,513.8-41.9,513.8-41.9z M505-58.7
	c-0.3-0.7-0.6-1.2-0.6-1.8C505.7-60.7,505.2-59.5,505-58.7z M597.6-93.2c0.2-0.5,0.4-1.1,0.7-1.6c0.3,0,0.4,0,0.5,0
	c-0.2,0.5-0.4,1.1-0.7,1.6C597.8-93.3,597.7-93.3,597.6-93.2z M423.2-10.4c-0.1,0.3-0.2,0.4-0.2,0.5c-0.5,0-1.1,0-1.7,0
	c0.1-0.3,0.2-0.4,0.2-0.5C422-10.4,422.7-10.4,423.2-10.4z M485.4-53.5c-0.3,0.3-0.5,0.6-0.8,0.8c-0.1,0.1-0.4,0-1-0.1
	C484.7-53.2,485-53.3,485.4-53.5z M504.1-60.6c-0.7,0.2-1.3,0.3-2.1,0.6C503.3-61.8,503.8-61.1,504.1-60.6z M400.4-8.4
	c-0.3,0-0.4-0.3-0.5-0.4c0.3-0.3,0.5-0.6,0.6-0.7c0.2,0.2,0.4,0.3,0.5,0.6C401.1-8.9,400.6-8.5,400.4-8.4z M608.1-119.8
	c0,0.2-0.4,0.6-0.6,0.6c-0.1,0.1-0.3-0.1-0.7-0.2c0.5-0.5,0.6-0.7,1-0.9C608-120.1,608.1-119.9,608.1-119.8z M484.9-41.9
	c-0.2,0.4-0.5,0.6-0.9,1.2c-0.1-0.4-0.3-0.6-0.3-0.7c0.1-0.3,0.3-0.5,0.7-0.8C484.6-42.1,484.9-42,484.9-41.9z M491.8-39.5
	c-0.1,0-0.2-0.2-0.2-0.2c0.3-0.3,0.9-0.7,1.3-1.1c0.1,0,0,0.2,0.2,0.2C492.5-40.2,492.1-39.8,491.8-39.5z M454.7-28
	c-0.1-0.1,0.1-0.3,0.2-0.4c0.5,0,0.9-0.1,1.5-0.2c-0.1,0.3-0.2,0.4-0.4,0.7C455.7-28,455.2-28,454.7-28z M474.7-27.6
	c0,0.5-0.1,0.9-0.1,1.3c-0.2,0.1-0.3,0.1-0.6,0.2c0-0.5,0.1-0.9,0.1-1.3C474.3-27.5,474.7-27.6,474.7-27.6z M411.8-14.8
	c0.1,0.1-0.3,0.5-0.5,0.5c-0.3-0.1-0.5-0.2-0.9-0.4c0.5-0.5,0.7-0.6,0.9-0.7C411.6-15.2,411.8-15.1,411.8-14.8z M557.8-150.9
	c-0.2,0.1-0.4,0.4-0.5,0.5c-0.4-0.3-0.6-0.5-0.9-0.8c0-0.1,0.3-0.3,0.5-0.5C557-151.4,557.4-151.2,557.8-150.9z M487-66.9
	c-0.1,0.1-0.3-0.2-0.4-0.3c0.1-0.3,0.3-0.5,0.6-0.8c0.2,0.2,0.4,0.4,0.3,0.7C487.6-67.2,487.1-67,487-66.9z M500.7-61.2
	c-0.1-0.1-0.2-0.3-0.2-0.3c0.4-0.3,0.9-0.6,1.3-0.8c0,0.2,0.1,0.2,0,0.4C501.6-61.6,501.1-61.4,500.7-61.2z M405.7-30.8
	c0,0.1-0.3,0.3-0.6,0.5c-0.2-0.2-0.4-0.3-0.6-0.3c0-0.1,0.5-0.5,0.5-0.5C405.2-31,405.4-30.8,405.7-30.8z M649-201.6
	c0-0.1,0.3-0.2,0.5-0.3c0.2,0.3,0.3,0.7,0.3,1c0,0.1-0.3,0.2-0.3,0.3C649.2-200.9,649-201.2,649-201.6z M467.5-42.5
	c0.3,0,0.5,0.1,0.6,0.2c0,0.1-0.4,0.4-0.5,0.5s-0.3-0.1-0.5-0.1C467.3-42.2,467.4-42.3,467.5-42.5z M555.3-134.6
	c-0.2,0.1-0.5,0.3-0.7,0.4c-0.1,0.1-0.1-0.2-0.2-0.5c0.3-0.1,0.5-0.2,0.9-0.4C555.3-135,555.4-134.8,555.3-134.6z M497.4-54.7
	c-0.4,0-0.8,0-1.1-0.1c0.2-0.1,0.5-0.3,0.9-0.4C497.3-55.2,497.2-54.9,497.4-54.7z M456.6-42.4c0.3-0.3,0.5-0.5,0.8-0.7
	c0.1-0.1,0.3,0.2,0.4,0.3c-0.2,0.1-0.5,0.3-0.9,0.6C456.9-42.1,456.8-42.2,456.6-42.4z M506.1-63c0.2,0.2,0.4,0.4,0.5,0.6
	c0.1,0.1-0.5,0.5-0.9,0.7c-0.2-0.2-0.5-0.5-0.4-0.9C505.4-62.5,505.9-62.9,506.1-63z M640.4-178.7c0.2-0.1,0.5-0.2,0.8-0.4
	c0.2,0.3,0.1,0.7,0.1,1c-0.1,0.1-0.3,0.2-0.4,0.3C640.6-178.2,640.7-178.6,640.4-178.7z M567.7-182.8c-0.6,0.2-1.4,0.7-1.7,0.5
	c-1.1-0.8-1.9-1.8-2.9-2.6c0.3-0.3,0.5-0.6,0.7-0.7c1.3,0.4,2.9,0.7,4,1.3C568.2-184.5,567.7-183.5,567.7-182.8z"/>
<path class="st5" d="M572.9-114.6c-0.6,1-0.9,1.8-1.3,2.7c-0.4,0.8-1.8,1.9-0.3,2.1c0.7-1.1,1.2-2.1,2-2.9s2-1.1,3.5-1.8
	c-0.5-1.7,0.4-2.9,2-4.6c1.7-1.6,4-3.6,3.7-5.7c0-0.4,0.5-1.1,0.8-1.7c0.2,0.2,0.5,0.2,0.6,0.4c0.1,0.7,0.1,1.3,0.1,2.5
	c3.3-3,4.8-6.4,8.8-8.9c-0.6,1-0.8,1.6-1.3,2.3c-0.9,1.1-2,2.2-2.6,3.3c-2.4,4.5-5,9-9.3,13.1c-0.3,0.3-0.7,0.6-0.8,0.8
	c-0.5,2.3-2.8,4.3-4.5,6.2c-3,3.2-5.4,6.9-8.6,9.1c-0.9,1.6-1.2,3.1-2.3,4c-2.6,2.3-5.4,4.3-8.3,6.5c-0.8-1.5,1.1-4.1-0.9-4.8
	c-1.2,1.2-2.4,2.3-3.8,3.6c-0.4,0.4-0.9,1.1-0.9,1.3c0.6,1.3-0.6,1.9-2,2.9c-1,0.6-1.7,1.6-2.6,2.4c0.7,0.2,1.3,0.3,1.5,0.4
	c1.1-0.9,2.2-1.6,3.2-2.3c0,0.2,0.3,0.2,0.4,0.3c0.6-1.4,1.1-2.7,1.7-4c0.7,0.5,1.3,0.8,1.9,1.4c0.3,0.4,0.7,0.9,0.5,1.3
	c-0.8,1.5-1.9,3.6-3.2,4.4c-1.8,1.2-3.2,2.6-4.6,4c-0.2,0.1-0.3,0.3-0.7,0.7c0.8-0.2,1.4-0.3,1.8-0.3c0.3,1.3,0.5,2.5,0.7,3.8
	c-0.9,0.4-2,0.8-2.8,1.2c-0.2,0.6-0.5,1.2-0.6,1.9c-1.4,0.7-2.4,1-3.1,0.1c-0.3-0.4-1.1-0.3-1.7-0.4l-0.6,4.9
	c-1.8,0.6-3.7-0.5-5.1,2.2c0.1,0.4,0.6,0.7,0.6,1.2c-1.5,0.8-2.7,1.8-2.8,0.1c-0.1-1.3-1.2-1.1-2.5,0c-0.1,1.1-0.1,2.2-0.3,3.2
	c-0.3,1-1,2.1-1.5,3.1c-0.6,1,0.1,2.2-2,3.1c0.5-1.7,0.8-3.3-2-2.9c0.3,1.6,0.2,3.2,0.8,4.2c0.3,0.5,1.9-0.1,3.2-0.3
	c0.1,0.5,0,1.3,0.1,1.8c-0.4,0.3-0.7,0.4-0.9,0.4c-2.2-0.3-4.2,1.8-6.3,2.8c-0.2,0.1-0.6,0.6-0.7,0.8c0.5,1.1-0.7,1.6-1.5,1.9
	c-1.1,0.6-2.3,1-3.2,1.5c0,1,0.1,1.9-0.1,3c0.1,0.1-0.3,0.3-0.9,0.7c-0.2-0.5-0.3-1.2-0.4-1.6c-2.4,0.7-3.1,1.1-3.1,2.2
	c0.1,1.3,0.5,2.3,0.7,3.8c0.9-1.3,1.6-2.2,2.2-3.1c0.1-0.1,0.4,0,0.4,0c-0.2,1-0.4,2.1-0.8,3.6c-2.9,0.8-5.5,4.2-8.5,3.3
	c-0.3-0.1-1.3,0.7-2.4,1.3c1.3,1.1,2.4,2.1,3.8,3.3c0.6-1.3,0.9-2.2,1.5-3.2c1.9-1.2,4-2.7,6.7-4.3c-0.6,1.2-0.9,1.8-1.5,2.8
	c1.4-0.4,2.6-0.6,4-1.1c-0.5,0.6-0.7,1-1,1.5c1.2-0.1,2.4-1,2.7-2c0.5-1.4,1.8-1.8,2.9-2.2c0-0.5,0.2-1,0.3-1.5
	c0.8-1.4,2.6-2.2,3.4-1.7c1.4,1,2.1,0.8,3.6-0.8c0.8-0.9,1.6-1.8,2.4-2.7c2.5-0.4,4.9-1.5,6.6-3.4c2.2-2.6,4.8-4,7.4-5.2
	c1.6-0.7,3.3-1.5,4.7-2.7c1.9-1.8,3.5-2.6,5.1-1.7c0.6-2.3,2.6-4.6,5.1-5.5c1.6-0.6,2.7-1.4,3.8-2.6c2.9-2.8,6-5.6,9.1-8.1
	c1.5-1.3,1.8-1.2,2.1,0.3c1-0.1,0.7,0.8,0.5,1.5c2.1-0.6,3.9-1.5,5.6-3.4c-0.4,1.1-0.9,2-1.3,3.1c1,0.1,1.9,0.1,2.9,0.3
	c-0.5,0.6-0.7,0.9-0.9,1.3c-0.2,0.3-0.4,0.6-0.6,1c2-0.1,2.4-1.8,3.3-2.7c2.9-2.5,5.6-5.4,8-8.6c1-1.4,2.5-2.5,3.9-3.9
	c0.5-0.5,0.8-0.9,1.2-1.3c0.9-1.1,1.9-2.3,2.9-3.5c1.2-1.4,2.3-2.7,3.1-3.6c1.6-0.9,3-1.4,3.9-2.2c1.5-1.4,0.5-2.3-0.1-3
	c0.6-0.8,1-1.5,1.5-2.1c0.3-0.3,0.6-0.5,0.7-0.7c0.3,0.4,0.6,0.7,0.8,1c1.5-0.7,1.4-1.3,1.3-2.3c-0.3-1.7,0.8-3,3.3-4.3
	c0.2-0.4,0.1-0.7,0.2-1.1c1.3,0,2.5-0.2,4-0.3c-0.6-1.4,1.5-3.9-1.9-3.3c2.2-2.7,4.1-5.1,5.9-7.5c0.9-1.1,1.9-2.2,2.6-3.3
	c1.9-2.9,3.7-5.7,5.5-8.5c0.7-1,2.1-2.2,2.3-3c0.1-2.3,1.8-4.7,2.6-6.9c-0.1-0.1,0.3-0.3,0.6-0.5c0.5,0.1,1,0.2,1.4,0.3
	c2.8-2.2,0.5-3.5,1.9-5.5c0.8-0.2,1.7-0.5,2.9-0.8l0.7-7.2c0,0,0,0-0.1,0.1c0,0,0,0-0.1-0.1c-1.1,0-1.1-0.6-0.4-1.8
	c0.9,0.4,1.3,0.7,0.4,1.8l0,0l0,0c0.5-0.2,0.8-0.4,1.1-0.5c0.5-1.2,0.6-2.8,1.4-3.4c1.7-1.2,1.7-2.7,2.9-3.8
	c0.4-0.4,0.6-1.2,0.5-1.5c-0.1-0.2-1-0.1-1.3-0.1c0.1-1.5,0.3-2.6,0.4-4c0.1-1.2,0-2.3,0.2-3.5c0.1-1.2,0.9-1.9,2.1-1.9
	c0.5,0,0.9,0.2,1.5,0.1c0.8-2.1,0.8-2.1-0.2-3.5c-1.6-1.9-0.1-4.8,3.2-6.6c0.7-0.4,1.3-1.4,2.1-2.3c-2.3-0.1-3.2-1.6-2.5-3.2
	c1.7-4.1,1.8-7.7,1.9-11.4c0-0.7-0.1-1.2,0.1-1.8c1.1-3.1,2.2-6.2,0.5-8.4c0.9-0.4,1.5-0.6,1.9-0.9s0.9-0.7,1.2-0.9
	c-0.6-1.5-1.9,0.6-2.9,0.6c0.7-1.9,2.9-4,1.6-5.4c-0.6,0-1.2,0.1-2.2,0.2c2-1.7,1.7-3.3,1.3-3.9c-1.4-1.3-2.2-2.6-0.6-5.3
	c0.6-1.1,0.7-2.2,0.9-3.4c0.2-1,0.4-2.1,0.7-3.4c1.3-0.3,2.4-0.5,3.8-0.9c0.2-1,0.9-2.4,0.6-3.1c-0.8-2.5-2-4.7-3-7.1
	c-1.1-2.3-2-4.7-3.2-7.1c-1.3-2.4-2.7-4.9-4.3-7.2c-2.4-3.3-4.9-6.6-8.9-8.4c-2.5-1.2-5.7-1.6-7-4.1c-0.3-0.7-1.5-0.6-2.2-1.1
	c-1.8-1.2-5.6-0.8-5-4.3c-0.1-0.1-0.2-0.2-0.4-0.3c-2.4-0.3-3.3-1.9-4.4-3.3c-1.7-2-4.9-1.4-7.8-1.4c-0.5,0-1.6,0.9-2.3,1.5
	c-0.6,0.5-1.1,1.2-1.7,1.8c-1.4-0.1-2.7-0.2-4.1-0.2c-0.4,1.6-0.7,2.9-1.1,4.3c-0.2,0.5-0.7,1.3-1.1,1.5c-0.4,0.3-1.1,0-1.4-0.3
	c-1-2-3.3-2.7-6.2-2.8c-1.2,2.5-3.6,4-6,5.5c0,1.4,0,2.7,0.1,3.9c-0.2,0.1-0.4,0.3-0.6,0.3c-0.6-1.8-1.2-3.6-1.9-5.7
	c-0.8,1.3-1.5,2.2-2.3,3.4c-2.1-1.1-3.7-2.7-7.4-0.4c-0.1,3-0.1,6.1-0.2,9.2c0.1,0.1,0,0.2,0.1,0.2c0.2,1.1,0.5,2.3,0.4,3.5
	c-0.1,3.6-0.1,7.3-0.5,10.9c-0.3,2.3-1.1,4.9-2.5,7.5c-1.1,2.2-2.2,4.4-2.5,6.6c0,0.5-0.2,0.9-0.3,1.4c0.1,0,0.3,0,0.2,0.2
	c2.2,7.4,2.7,15.8,2.7,24.3c0.1-0.1,0.1-0.1,0.2-0.1c0.1,0.4,0.6,0.7,0.7,1.1c0.7,3.2,1.5,6.2,2.4,9.4c0.4,1.1,0.7,2.1,1.1,3.1
	c0.6,1.3,2.1,2.1,0.5,4.5c-0.2,0.4,0.1,0.7,0.1,1c0.6,2.5,1.3,5,1.9,7.5c-1.7,1.6-3.3,3.1-4.8,4.5c0.1,1.4-0.6,3-1.2,4.6
	c-0.7,1.4-1.1,2.7-1.5,3.9c0.3-0.5,0.9-1,1.3-1.5c1.6,1,1.5,1.4-0.7,3c0.3,0.7,0.5,1.4,0.8,2.5c-1,0.1-1.7,0-2.3-0.1
	c-0.3,2-0.6,3.9-1.5,5.8c1.9,0.3,1.5,2.4,3,3c0.7,0.3,0.9,0.9,1.4,1.4c1-2.4,2.9-1.1,4.4-3.1c-0.3,1.2-0.4,1.6-0.5,2.3
	c1.1,0,3.4-1.3,2.7,1.1c-0.2,0.1-0.5,0.2-0.8,0.4c-0.3,0.2-0.7,0.4-1.4,0.8c3.7-0.2,4.7-1.3,5.7-5.9c1.8,1.2,0.1,3.3-0.8,5.3
	c2.9-1.9,3.6-4.4,5.1-6.6c0.2,1.3-0.5,2.6-1.4,4c-0.9,1.3-2,2.9-2.2,4c-0.2,1.7-1,2.7-2.8,3.9c-1,0.6-2.3,1.1-2.1,2.5
	c1.5-0.5,2.5-0.3,2.5,1.2c-2.8,3.1-3.2,7.2-7.6,9.6c-0.4,1.2-0.1,2.4-0.8,3.3C578.6-120.1,576.4-116.7,572.9-114.6z M517.1-37.3
	c0-0.2-0.4-0.3-0.3-0.6s0.2-0.5,0.6-1.2c0.1,0.7,0.4,0.9,0.3,1.1C517.6-37.6,517.3-37.5,517.1-37.3z M521-38.9
	c-1.5-0.2-1.5-0.9,0-2.3C521-40.3,521.2-39.8,521-38.9z M530.7-58.6c0.4-0.4,0.7-0.8,0.8-0.8c0.4,0,0.7,0.1,0.9,0.2
	c-0.2,0.3-0.5,0.6-0.6,0.9C531.4-58.3,531.1-58.4,530.7-58.6z M586-75.2c-0.3,0.3-0.7,0.8-0.9,0.9c-0.2,0.1-0.6-0.1-1.2-0.3
	c0.6-0.5,0.9-0.8,1.1-0.9C585.4-75.4,585.6-75.2,586-75.2z M577.2-71.7c-0.4-1.5,0.9-2.1,1.7-2.8c0.3,0,0.3,0.2,0.5,0.2
	C578.9-73.7,578.2-72.9,577.2-71.7z M583.1-75.7c-0.2,0.4-0.6,0.9-0.8,1.3c-0.3,0-0.5-0.1-0.6-0.2c0.3-0.5,0.7-1,1.1-1.4
	C582.8-75.8,583.1-75.8,583.1-75.7z M538.4-59.9L538.4-59.9c0,0.1,0,0.1,0,0.1c0.3,0.7,0.5,1.4,0.8,2c-3.4,3.3-5.9,4.1-8.6,2.7
	c2.1-2,3.6-1.7,5.2-1.2c0.9-1.2,1.8-2.4,2.5-3.5l-0.1-0.1C538.3-59.9,538.4-59.9,538.4-59.9c0.5-0.6,1-1.2,2-2.5
	C540.2-60.6,539.2-60.3,538.4-59.9z M550.6-69c-0.6,0.5-0.7,0.7-1.2,1c0-0.2-0.4-0.3-0.4-0.4c0.1-0.3,0.3-0.5,0.6-0.7
	C550-69.2,550.2-69.1,550.6-69z M609.8-102.7c0.1,0.7,0.5,1.2,0.3,1.9c-0.3,1.3-2.9,3.8-4.5,5c1.2-2.3,2.4-4.5,3.5-6.6L609.8-102.7z
	 M559.7-86.2c-1.2,2.9-3.9,4.1-6.7,5.8c0.3-3.2,4.9-3.2,4.4-6C558.7-86.4,559.2-86.3,559.7-86.2z M571-100.3
	c-0.6,0.9,0.1,1.9-1.9,2.9c-1.3,0.6-1.3,2.8-3.7,2.7c2-2.2,3.6-4,5.2-5.7C570.8-100.4,570.9-100.3,571-100.3z M574.9-105.1
	c-0.2,0.4-0.3,0.8-0.5,1.1c-0.2,0.3-0.7,0.6-1,0.8c0-0.2-0.2-0.2-0.3-0.4c0.5-0.6,1.1-1.2,1.6-1.8
	C574.6-105.2,574.7-105.1,574.9-105.1z M585.2-241.1c0.1-0.9,0.4-1.9,0.7-2.9c0.2-0.1,0.3-0.1,0.6-0.2l-0.4,2.8
	C586-241.3,585.6-241.2,585.2-241.1z M587.5-131.3c0.5-0.5,0.9-0.7,1.4-1.2c0,0.2,0.4,0.3,0.3,0.4c-0.4,0.4-0.9,0.8-1.2,1.3
	C587.8-131,587.5-131.1,587.5-131.3z M439.7-6.9c0.8-1.5,0.5-3.1,2.3-4.6c0-0.1-0.5-1-0.7-1.6c-0.5,0.5-0.8,0.9-0.7,1.1
	c0.2,0.8-0.3,1.3-1.3,1.6c-1,0.3-1.2-0.2-0.9-1c0.2-0.7,0.8-1.5,1.2-2.3c3.2-0.2,6-0.2,8.5,0.3c0,0.3-0.2,0.5-0.1,0.7
	c-1.3,0.6-2.4,1.3-3.8,1.9c2,0.1,3.9,0.2,6.1,0.2c-0.1-0.7-0.2-1-0.2-1.5c0-0.4,0.2-0.9,0.2-0.9c1.6-0.5,3-1.1,4.3-1.4
	c1.3-0.3,2.6-0.6,4.1-0.9c-0.5-0.9-0.8-1.6-1.1-2.2c-0.6,0.5-1.1,0.9-1.9,1.3c-0.3-2.5-3.8,0-4.7-1.6c-0.5,1.1-0.8,1.6-1.1,2.2
	c-1.1,0.1-2.1,0.2-3.2,0.4c-2.8,0.3-3.1-0.5-1-3.7c2-0.2,4.1-0.2,6.2-0.6c2.2-0.4,4.7-1.2,7.1-1.7c1.2,1.7,1.6,1.6,3.7-0.1
	c0.8-0.7,1.7-1.3,2.7-1.7c1.4-0.7,2.8-0.8,4.2-1.5c3.6-1.6,7-2.7,10.4-2.7c0.4-1.1,0.9-2.2,1.6-3.6c-3.3,1.2-5.8,0-9.3,2
	c-1.3,2.7-1.5,2.9-3.6,3.7c-2.4,1-4.8,1.8-5.5-0.6c-3.5,3.2-6.4,3.3-9.5,3.6c-1.9,0.2-3.7,0.1-5.6,0.8c-2.9,1.3-4.5,0.3-6.7,0.2
	c-0.4,0-0.4-0.7-0.7-1.1c3.7-1.3,6.7-1.4,9.6-1.5c1.1,0,2.7,0,3.3-0.5c1.2-1.1,2-1,2.9-0.8c0.9,0.2,1.7,0.4,3.1-0.4
	c-0.8-1.6-2.9-1.5-4.5-1c-3.2,1-5.4,0.6-7.4-0.5c-0.1,0-0.5,0.2-0.7,0.2c-1,2.9-2.7,4-5.2,3.2c-0.3,0-0.3-0.2-0.5-0.2
	c-0.5-0.6-1.1-0.6-2.3,0c-1.1,0.6-2.3,0.7-3.5,0.8c-4.2,0.5-8.6,1.1-12.8,1.5c-6.9,0.7-12.4-1.1-18-2.5c-0.3-0.1-0.4-0.7-0.5-1
	c1.7,0,2.9,0.5,4.3,0.8c1.4,0.3,2.9-0.1,5-1.2c-1.2,0-2-0.2-2.9-0.3c-1.9-0.3-3.7-0.4-5.5-0.7c-3.7-0.7-7.8-0.8-11.3-1.8
	c-6-1.8-11.7-4.1-17.3-6.5c-7.3-2.9-14.4-5.9-20.5-10.3c-0.9-0.6-2.2-0.5-3.8,0.2c0.4,0.6,0.6,1,1,1.3c4.6,5.9,11.7,9.4,17.9,13.9
	c1.6,1.2,3.7,2.1,5.5,3c2,1.1,3.9,2.1,5.6,3.2c1.8,1,3.3,2,4.9,3c2.1,1.1,3.9,2.4,6.1,3.5c1.8,0.9,3.4,2.1,5.5,2.3
	c2.6,0.2,4.1,1.6,6.4,2.2c0.7,0.2,1.1,1.1,1.3,1.8c0.5,2,2.4,2.7,4.6,3.2c-0.4-1.6-0.8-2.8-1.1-4.4c1-0.3,2-0.8,2.5-0.9
	c2.6,0.4,4.7,1.3,4,4.6c3.3-0.9,5.2-0.2,5.7,2.2c0.2-0.1,0.4-0.3,0.6-0.3c0.3-1.4,0.8-2.7,1.3-4.5c1.8,0.1,3.1,0.3,4.5,0.4
	c1.1,0,1.8,0.2,1.5,1.4c-0.3,1.5,0.7,1.7,2.4,2c-0.4-1.2-1.7-1.7,0.1-3.5c0.1,1.3,0.9,1.6,2.5,1.3c1.1-0.2,2.2,0.5,2.7,1.1
	c0.4,0.3-0.3,1.5-0.6,2.2C438.8-5.2,439.3-6.1,439.7-6.9z M436.5-21.1c0.3-0.3,0.3-0.5,0.6-0.6c0.1-0.1,0.4,0,0.5,0.1
	c0,0.2-0.2,0.4-0.3,0.9C436.9-21,436.7-21,436.5-21.1z M436.5-14.1c-1.9-0.8-5.3,0.4-6.3-1.6c3.1-0.3,6.7-1.4,8.5,0.9
	C437.7-14.6,436.8-14,436.5-14.1z M440.6-15.8c0.2-0.1,0.6-0.5,0.8-0.7c0.3,0.4,0.6,0.6,0.8,1c0,0-0.5,0.5-0.7,0.6
	C441.1-15.1,440.9-15.5,440.6-15.8z M435-10.9c-0.1-0.2-0.1-0.6,0-1.1c1.4-0.3,1.7,0.2,1,1.7C435.4-10.6,435.1-10.6,435-10.9z
	 M533.1-67.3c-2.3-0.6-4.6,0.4-9,4.3c0.5-1.2,0.6-2.3-1-1.8c0.2-0.5,0.4-1.1,0.8-2c2.1,1.1,4.1-0.6,6.3-1.8c2.3-1.2,4.4-2.3,7-3.7
	c0.1-0.8,0.2-1.7,0.2-2.9c-0.7,1.1-1.3,2-2.1,3.1c-0.4-0.8-0.6-1.3-1-2.1c-1.3,1.1-2.5,2-3.8,3.1c0.2-0.7,0.5-1.6,0.8-1.8
	c2.7-1.4,5.5-2.8,7.9-4c0.9,1.8,1.7,3.3,2.5,4.8c0.5,0.4,2.5-1.7,2.6-0.1c-1.3,0.8-2.4,1.5-3.8,2.4l0.1-0.1c-0.7-0.5-1.4-1-2.4-1.6
	c-0.6,0.3-2,1-3.1,1.6c-0.4,1.6-0.7,3-1,4.7c-1.1,0.1-2,0.2-3.5,0.3C531.5-66,532.3-66.7,533.1-67.3z M456.2-2.3
	c-0.7,0.4-1.7,0.9-3.1,1.6c-0.4-2.3-0.7-4.4-3.3-4.8c-0.3,0-0.3-0.1-0.6-0.1c-1-0.6-3,0.8-3.8-0.4c-0.5-0.8-1.9-1-3.1-1.5
	c1.6-1.5,3.5-1.4,4.1-0.9c1.4,1.4,3.8,0.7,5.9,0.7c1.4,0,2.4-0.1,3.2,1c0.7,1,2.5,1.1,3.8,1.5c-0.1,0.3-0.2,0.4-0.4,0.7
	c-1.1-0.1-2.2-0.1-3.3-0.2C453.3-2.7,456.9-3.7,456.2-2.3z M631.1-117.3c-0.8,0.9-1.5,1.9-2.3,2.4c-0.6,0.3-1.5-0.2-2.1,0.7
	c-0.5,0.8-0.6,1.7-1,2.6c2.3-1.2,3.6-1,3.4,0.5c-0.1,0.9,0.1,1.4,0.9,1.7c0.3,0.1,0.3,0.7,0.3,1c0.8,0.1,1.4,0.3,2.3,0.4
	c0.2-0.6,0.5-1.4,0.5-1.5c-1.4-0.4-0.6-1.4,0-2.5c0.6-1.2,1.6-2.4,2.5-3.9c-2,0.8-3.5,1.4-5.1,2
	C630.9-115.1,632.1-116.3,631.1-117.3z M631.8-112.7c0,0.2-0.2,0.6-0.4,0.8c0,0.1-0.4,0-0.9,0.1c0.2-0.3,0.4-0.7,0.6-0.8
	C631.2-112.8,631.7-112.7,631.8-112.7z M496.2-22.2c2.3-3,4.7-3.7,6.2-2c0.6,0.5,1.8,0.6,2.7,0.9c-0.1,0.3-0.2,0.4-0.2,0.5
	C502-22.4,497.9-19,496.2-22.2z M562.5-100c-0.1,0.9-0.4,1.9-0.7,2.9c-1.1,0.6-2,1.1-3.3,1.8c1.3-3.6,4.3-6.2,7-9.2
	c1.5,0.7,1.2,1.9,0.5,3.2C564.8-99.5,563.7-100.8,562.5-100z M469.5-9.5c-0.1,1.6,0.1,3.1,1.9,3.3c-2.4,2.8-2.4,2.8-4.6,2.2
	c0.9-0.7,1.6-1.3,2.6-2c-0.9-0.4-1.7-0.5-2.6-0.9C467.8-7.8,468.8-8.7,469.5-9.5z M500.8-29.8c-0.4-0.3-0.8-1.1-0.4-1.8
	c0.2-0.5,1.3-1.5,2-1.7c0.9-0.4,1.8-0.3,3.6-0.6c-1.3,1.5-2,2.5-3.1,3.4C502.3-30,501-29.7,500.8-29.8z M630.2-108.4
	c-0.5,0.7-1,1.5-1.3,2.1c-1.4,0.7-2.8,0.3-4,2.1c-0.2,0.4-2.1,0.8-3.8,1.3C624.1-105.5,626.5-108.4,630.2-108.4z M461-5.7
	c0.7-1,1.3-2,2.1-3.3c0.2,2.2,3.1,2.1,2.1,5.3C463.7-4.5,462.4-5,461-5.7z M519-63c1.3-0.6,2.7-1.2,3.9-1.9c-2.1,2.3-4.3,3.4-6.8,4
	c-0.9-1.3-1.5-2.6-2.3-3.7c0.8,0.2,2.1-0.4,2.1,0.9C515.9-62.4,517.1-62.1,519-63z M497.1-38.6c1-1.9,2.1-3.7,2.9-5.4
	c0.1-0.1,0.3-0.1,0.5-0.2c0.1,1.6,0.2,3.3,0.4,5.2C499.2-38.8,498-38.7,497.1-38.6z M577.3-136.3c-3.3,0-3.3-1.8-2.9-4.4
	C576.7-140.1,576.2-137.8,577.3-136.3z M664.9-204c-0.2-1.8-0.4-3.2-0.6-4.7c2.7-0.8,2.3,1,2.7,2.2
	C667.2-205.5,666.2-204.7,664.9-204z M466.8-12.3c0.9-1.1,1.6-1.9,2-2.5c0.6,0.5,1,0.9,1.6,1.1c0.8,0.1,1.8-0.1,1.4,1.3
	C470.3-12.3,468.7-12.3,466.8-12.3z M586-133.9c-1.5,1-2.4,1.6-3.6,2.3c-1.9-0.1-1.3-2.2-2.2-3.8c0.8,0.2,1.6,0.1,2,0.3
	C583.5-133.5,583.3-133.5,586-133.9z M660.9-182.1c-0.6,1.8-0.9,3.2-1.3,4.4c-1.2,1-2.3,2.1-3.3,3.1c-0.3,0-0.3-0.1-0.6-0.1
	C657.4-177,659-179.2,660.9-182.1z M490.6-37c-0.6,0.1-1.2,0.3-2.3,0.4c1-0.9,1.6-1.4,2.3-1.9c0.7,0.2,1.4,0.6,2.1,0.3
	c0.6-0.2,1.1-1.3,1.6-0.2c-1.7,1.1-3.4,2.2-5,3.2c-0.1,0-0.1-0.2-0.2-0.2C489.5-35.9,490-36.3,490.6-37z M576.1-69.4
	c-0.1,0.7-1.4,2,0.5,1.5c-0.5,0.6-0.9,1.2-1.4,1.9c-1.1-0.1-1.9-0.3-2.7-0.4C573.7-68.7,574-69,576.1-69.4z M508.7-44.4
	c0.1,0.5,0.3,1,0.5,1.5c-0.2,0.1-0.6,0.5-0.8,0.7c-0.3-1-2.7-0.3-1.8-2.2c0.3-0.6,1.4-1.3,2.5-2.2C508.9-45.6,508.6-45,508.7-44.4z
	 M616.5-100c-0.4,1.1-1.7,2.4-2.6,3.6c-0.3,0-0.3-0.1-0.6-0.1c0.8-1.6,1.7-3.2,2.4-4.8c0.2-0.5,0.2-1.1,0.4-1.6
	C617.7-102.5,616.9-100.9,616.5-100z M637.7-124.4c0.8-0.1,1.8-0.3,3.3-0.4c-0.9,1-1.3,1.7-2,2.5
	C638.1-122.8,636.7-122.7,637.7-124.4z M620-100.9c0.5,0.5,0.6,1,0.9,1.4c-0.7,0.5-1.3,0.9-2.1,1.4c-0.5,0.3-1.2,0.8-2.2,1.5
	C617.2-98.5,618.6-99.5,620-100.9z M636.4-128.1c-1.3,2-2.1,3.4-3.1,5.1C632.5-125.2,632.7-125.6,636.4-128.1z M571.7-132.6
	c-0.5-0.1-0.8-0.3-1.2-0.4c1.4-1.6,3-2,3.1-1c0.3,0.6-0.5,1.4-1.4,1.7C572.2-132.5,571.8-132.5,571.7-132.6z M530.1-73.6
	c-3.6,2.8-3.7,2.8-3.8,0.8C527.3-72.9,528.3-73.1,530.1-73.6z M510.7-49.8c-1.4,0.4-2.6,0.6-4,1C509.8-51.3,509.8-51.3,510.7-49.8z
	 M517.1-57c0.5-1.4,0.9-2.4,1.4-3.9c0.6,0.9,0.9,1.6,1.3,2.3C519.1-58.1,518.4-57.7,517.1-57z M472.8-10.8c0.5,0.4,0.9,0.9,1.6,1.6
	c-2.1,0.8-3,0.9-3-0.3C471.5-9.7,472.2-10.2,472.8-10.8z M662-217.7c-0.1-1-0.2-1.8-0.3-2.9c0.7-0.2,1.1-0.3,2.2-0.7
	C663-219.9,663.9-219,662-217.7z M524.3-58.7c0.9-0.7,1.9-1.3,3.1-2.2C526.8-59.1,526.8-59.1,524.3-58.7z M580.9-66.7
	c-1.2,1-2.3,2-3.5,3.1C577.5-64.9,578.3-65.7,580.9-66.7z M652.2-154.3c0.3-0.2,0.5-0.3,1-0.6c1.2,0.2,1.3,0.9,0.2,3
	C652.8-153.1,652.6-153.7,652.2-154.3z M540-78.6c-1.1,0-2.2,0-3.3,0.1C538.9-80.1,539.8-80.2,540-78.6z M664.2-213.5
	c-0.3-1-0.7-1.9-1.2-3.3C664.7-216.3,665.2-215.4,664.2-213.5z M523.7-60.6c1.6-1.9,1.6-1.9,3.4-1.5
	C526.2-61.7,525.2-61.3,523.7-60.6z M491.2-32.8c-1.1,0-1.8,0-2.7,0C490.8-34.9,490.8-34.9,491.2-32.8z M521.5-51.4
	c-0.1-0.1-0.1-0.1,0-0.2C521.6-51.6,521.6-51.6,521.5-51.4L521.5-51.4c0.9,0.4,0.9,0.4,0.1,1.9c-0.6,0-1.3,0-1.9,0
	c0-0.1,0.2-0.4,0.2-0.4C520.5-50.6,521-50.9,521.5-51.4z M621.5-95.1c0,0.2-0.2,0.4-0.2,0.6c-0.8,0.2-1.5,0.4-2.5,0.7
	C619.9-95.9,620.7-95.3,621.5-95.1z M619.1-95.9c0.9-1.5,1.4-2.2,2-3.2c0.4,0.4,0.7,0.9,1,1.4C621.2-97.1,620.5-96.7,619.1-95.9z
	 M541.4-43.4c0.6-0.7,1.5-1.4,2.2-2.2C543.5-43.8,543.5-43.8,541.4-43.4z M511.6-43.4c0.6-0.9,1.2-1.7,1.9-2.7
	C514.2-44.5,514.2-44.5,511.6-43.4z M440.3,2.9c-0.1-1-0.2-1.7-0.3-2.3c0.2-0.1,0.4-0.3,0.7-0.4C441.6,0.7,442.1,1.2,440.3,2.9z
	 M665.3-201.2c0.2-0.1,0.3-0.3,0.8-0.7c0.9,0.2,0.7,1.3,1,1.8c-0.2,0.1-0.3,0.3-0.6,0.5C666.1-200,665.6-200.6,665.3-201.2z
	 M624.7-109.8c-0.6,0.9-1.4,2-1.9,2.9c-0.2-0.2-0.6-0.1-0.7-0.2c0.7-1,1.4-1.9,2.1-2.9C624.4-110,624.5-109.9,624.7-109.8z
	 M576.7-126c0.6,0.5,1.1,0.9,2,1.8C576.8-124,576.9-125.1,576.7-126z M466.1-20.8c0.1,0.5,0,1,0,1.6c0,0-0.5,0.3-0.5,0.2
	c-0.3-0.4-0.6-0.7-0.7-1.1C465.2-20.5,465.6-20.5,466.1-20.8z M620.9-99.1c-0.1-0.1,0-0.3,0-0.4c1.1-1,2-2.1,3-0.8
	C623-99.4,621.9-99.3,620.9-99.1z M508.1-60.4c-0.5-0.1-0.9-0.4-1.4-0.5c0.3-0.3,0.5-0.6,0.7-0.9c0.5,0.2,0.8,0.4,1.2,0.6
	C508.6-61.2,508.3-60.8,508.1-60.4z M480.4-24.2c1.2-1,1.7-1.5,2.7-2.3C482.9-24.8,482.2-24.5,480.4-24.2z M496.9-10.2
	c-0.3,0-0.4,0-0.7-0.1c0.2-0.5,0.4-1.1,0.7-1.7c0.4,0,0.7,0.1,0.8,0.1C497.6-11.3,497.4-10.8,496.9-10.2z M481.2-8.4
	c0.8-0.3,1.5-0.6,2.1-0.8c0,0.2,0,0.4,0,0.7c-0.8,0.3-1.4,0.5-2.2,0.8C481.2-8.1,481.2-8.3,481.2-8.4z M571.4-62.4
	c-1.1,1-1.6,1.5-2.3,2.1C568.9-61.6,569.6-62,571.4-62.4z M511.1-62.2c0.3,0.7,0.6,1.4,0.9,2.4C510.1-59.7,511.1-61.2,511.1-62.2z
	 M582.6-141c-1-0.1-1.6,0-2.3-0.1C581.5-142.2,581.5-142.2,582.6-141z M482.9-19.3c0.2-0.5,0.2-1,0.4-1.6c0.2-0.1,0.5-0.2,0.7-0.2
	c0,0.3,0.1,0.6-0.1,0.9c-0.1,0.3-0.4,0.6-0.5,0.8C483.4-19.4,483.2-19.3,482.9-19.3z M498.9-25.8c-0.1,0-0.3-0.1-0.5-0.1
	c0.5-0.7,0.9-1.3,1.5-2c0.2,0.2,0.3,0.2,0.5,0.3C499.9-27,499.4-26.4,498.9-25.8z M452.4,2.9c0.1-0.6,0.1-1.1,0.2-1.7
	C454.1,1.4,454.1,1.4,452.4,2.9z M462.8-3c0,0.2-0.2,0.5-0.1,0.7c-0.5,0-1.2,0.3-1.8,0.4c0-0.3,0.2-0.5,0.1-0.7
	C461.6-2.8,462.2-2.9,462.8-3z M664.9-169.7c0.1,0.8,0.3,1.3,0.5,2.2C663.8-167.6,663.5-168.2,664.9-169.7z M508.3-36.1
	c0-0.3,0-0.4-0.1-0.7c0.6-0.3,1.3-0.6,2-0.9c0,0.2,0.2,0.3,0.1,0.5C509.7-36.8,508.9-36.5,508.3-36.1z M637.1-118.5
	c0.3-0.8,0.6-1.7,0.9-2.4c0.2-0.1,0.4,0,0.5,0c-0.1,0.7-0.4,1.6-0.5,2.3C637.6-118.6,637.4-118.6,637.1-118.5z M641.3-136.6
	c0.3-0.9,0.7-1.8,1-2.7c0.3,0,0.4,0,0.6,0c-0.4,1-0.9,2-1.2,2.9C641.5-136.5,641.4-136.5,641.3-136.6z M567.6-129.7
	c0.5-0.6,0.9-1.3,1.9-2.4C569.5-130.2,568.7-129.9,567.6-129.7z M660-177.7c0.5-0.3,1.3-0.8,1.8-1.2c0.6,0.9-0.5,1.5-1.3,1.9
	C660.3-176.9,660.1-177.6,660-177.7z M575.2-145.3c0,0.1-0.9,0.1-0.8-0.2c0-0.4,0.4-0.8,0.8-1.4c0.5,0.2,1.1,0.3,1,0.4
	C576-146,575.6-145.6,575.2-145.3z M517.7-26.9c-0.1-0.1,0.3-0.5,0.6-0.9c0.4,0.3,0.6,0.4,0.6,0.6c0,0.2-0.3,0.5-0.7,0.8
	C518.2-26.6,517.9-26.7,517.7-26.9z M443.3-2.3c-0.2,0.1-0.5,0.5-0.7,0.6c-0.3-0.4-0.7-0.6-1-0.9c0.2-0.1,0.4-0.4,0.5-0.5
	C442.6-2.9,442.8-2.5,443.3-2.3z M493.6-19.6c0-0.4-0.2-0.8-0.2-1.3c0.3-0.1,0.5-0.2,0.9-0.4c0,0.5,0.1,0.9,0,1.4
	C494-19.9,493.7-19.7,493.6-19.6z M515.4-26.4c0.6,0.4,1.5,0.6-0.1,2.2C515.3-25.2,515.3-25.7,515.4-26.4z M656.2-165.5
	c-0.1-0.5,0-1,0-1.5c0.2-0.1,0.5-0.2,0.8-0.3c-0.1,0.6-0.2,1-0.1,1.5C656.8-165.7,656.2-165.5,656.2-165.5z M564.9-54.1
	c0.6-0.5,1.2-1,1.8-1.5c0.1,0,0.2,0.2,0.4,0.3c-0.5,0.5-1.2,1.1-1.7,1.6C565.2-53.8,565.1-54,564.9-54.1z M485.4-16.3
	c0.3-0.3,0.6-0.7,0.9-0.7c0.2-0.1,0.5,0.1,0.5,0.3c-0.3,0.3-0.5,0.6-0.7,0.6C485.8-16,485.7-16.1,485.4-16.3z M530.3-34.8
	c0.2-0.4,0.4-0.6,0.6-0.9c0.1,0,0.4,0,0.5,0.1c0,0.3-0.2,0.6-0.4,1.2C530.7-34.7,530.3-34.8,530.3-34.8z M521.5-51.6
	c-0.3-0.7-0.6-1.2-0.6-1.8C522.2-53.6,521.7-52.4,521.5-51.6z M614.1-86.1c0.2-0.5,0.4-1.1,0.7-1.6c0.3,0,0.4,0,0.5,0
	c-0.2,0.5-0.4,1.1-0.7,1.6C614.3-86.2,614.2-86.2,614.1-86.1z M439.7-3.3c-0.1,0.3-0.2,0.4-0.2,0.5c-0.5,0-1.1,0-1.7,0
	c0.1-0.3,0.2-0.4,0.2-0.5C438.5-3.3,439.2-3.3,439.7-3.3z M502-46.4c-0.3,0.3-0.5,0.6-0.8,0.8c-0.1,0.1-0.4,0-1-0.1
	C501.2-46.1,501.6-46.2,502-46.4z M520.7-53.5c-0.7,0.2-1.3,0.3-2.1,0.6C519.8-54.7,520.3-54,520.7-53.5z M416.9-1.3
	c-0.3,0-0.4-0.3-0.5-0.4c0.3-0.3,0.5-0.6,0.6-0.7c0.2,0.2,0.4,0.3,0.5,0.6C417.7-1.8,417.2-1.4,416.9-1.3z M624.6-112.7
	c0,0.2-0.4,0.6-0.6,0.6c-0.1,0.1-0.3-0.1-0.7-0.2c0.5-0.5,0.6-0.7,1-0.9C624.5-113,624.6-112.8,624.6-112.7z M501.4-34.8
	c-0.2,0.4-0.5,0.6-0.9,1.2c-0.1-0.4-0.3-0.6-0.3-0.7c0.1-0.3,0.3-0.5,0.7-0.8C501.1-35,501.5-34.9,501.4-34.8z M508.3-32.4
	c-0.1,0-0.2-0.2-0.2-0.2c0.3-0.3,0.9-0.7,1.3-1.1c0.1,0,0,0.2,0.2,0.2C509.1-33.1,508.7-32.7,508.3-32.4z M471.2-20.9
	c-0.1-0.1,0.1-0.3,0.2-0.4c0.5,0,0.9-0.1,1.5-0.2c-0.1,0.3-0.2,0.4-0.4,0.7C472.2-20.9,471.7-20.9,471.2-20.9z M491.2-20.5
	c0,0.5-0.1,0.9-0.1,1.3c-0.2,0.1-0.3,0.1-0.6,0.2c0-0.5,0.1-0.9,0.1-1.3C490.9-20.4,491.2-20.5,491.2-20.5z M428.4-7.7
	c0.1,0.1-0.3,0.5-0.5,0.5c-0.3-0.1-0.5-0.2-0.9-0.4c0.5-0.5,0.7-0.6,0.9-0.7C428.2-8.1,428.3-8,428.4-7.7z M574.3-143.8
	c-0.2,0.1-0.4,0.4-0.5,0.5c-0.4-0.3-0.6-0.5-0.9-0.8c0-0.1,0.3-0.3,0.5-0.5C573.5-144.3,573.9-144.1,574.3-143.8z M503.5-59.8
	c-0.1,0.1-0.3-0.2-0.4-0.3c0.1-0.3,0.3-0.5,0.6-0.8c0.2,0.2,0.4,0.4,0.3,0.7C504.2-60.1,503.7-59.9,503.5-59.8z M517.2-54.1
	c-0.1-0.1-0.2-0.3-0.2-0.3c0.4-0.3,0.9-0.6,1.3-0.8c0,0.2,0.1,0.2,0,0.4C518.1-54.5,517.6-54.3,517.2-54.1z M422.3-23.7
	c0,0.1-0.3,0.3-0.6,0.5c-0.2-0.2-0.4-0.3-0.6-0.3c0-0.1,0.5-0.5,0.5-0.5C421.8-23.9,422-23.7,422.3-23.7z M665.6-194.5
	c0-0.1,0.3-0.2,0.5-0.3c0.2,0.3,0.3,0.7,0.3,1c0,0.1-0.3,0.2-0.3,0.3C665.7-193.8,665.6-194.1,665.6-194.5z M484-35.4
	c0.3,0,0.5,0.1,0.6,0.2c0,0.1-0.4,0.4-0.5,0.5s-0.3-0.1-0.5-0.1C483.9-35.1,483.9-35.2,484-35.4z M571.8-127.5
	c-0.2,0.1-0.5,0.3-0.7,0.4c-0.1,0.1-0.1-0.2-0.2-0.5c0.3-0.1,0.5-0.2,0.9-0.4C571.8-127.9,571.9-127.7,571.8-127.5z M514-47.6
	c-0.4,0-0.8,0-1.1-0.1c0.2-0.1,0.5-0.3,0.9-0.4C513.8-48.1,513.8-47.8,514-47.6z M473.2-35.3c0.3-0.3,0.5-0.5,0.8-0.7
	c0.1-0.1,0.3,0.2,0.4,0.3c-0.2,0.1-0.5,0.3-0.9,0.6C473.4-35,473.4-35.1,473.2-35.3z M522.6-55.9c0.2,0.2,0.4,0.4,0.5,0.6
	c0.1,0.1-0.5,0.5-0.9,0.7c-0.2-0.2-0.5-0.5-0.4-0.9C522-55.4,522.5-55.8,522.6-55.9z M657-171.6c0.2-0.1,0.5-0.2,0.8-0.4
	c0.2,0.3,0.1,0.7,0.1,1c-0.1,0.1-0.3,0.2-0.4,0.3C657.1-171.1,657.2-171.5,657-171.6z M584.2-175.7c-0.6,0.2-1.4,0.7-1.7,0.5
	c-1.1-0.8-1.9-1.8-2.9-2.6c0.3-0.3,0.5-0.6,0.7-0.7c1.3,0.4,2.9,0.7,4,1.3C584.7-177.4,584.2-176.4,584.2-175.7z"/>
</svg>
