<?xml version="1.0" encoding="utf-8"?>
<!-- Generator: Adobe Illustrator 22.0.1, SVG Export Plug-In . SVG Version: 6.00 Build 0)  -->
<svg version="1.1" id="master-artboard" xmlns="http://www.w3.org/2000/svg" xmlns:xlink="http://www.w3.org/1999/xlink" x="0px"
	 y="0px" viewBox="0 0 711.6 294.9" style="enable-background:new 0 0 711.6 294.9;" xml:space="preserve">
<style type="text/css">
	.st0{opacity:0.32;fill:#F08B3D;enable-background:new    ;}
	.st1{opacity:0.32;fill:#5A288E;enable-background:new    ;}
	.st2{opacity:0.45;fill:#DA5B4D;enable-background:new    ;}
	.st3{opacity:0.34;fill:#F08B3D;enable-background:new    ;}
	.st4{opacity:0.34;fill:#5A288E;enable-background:new    ;}
	.st5{opacity:0.6;fill:#DA5B4D;enable-background:new    ;}
</style>
<path class="st0" d="M377.7,38c-0.5-0.8,0.7-1.4,2.5-1.6c2.7-0.3,4.6,0.1,6.3,1.1c1.9,1.2,4.8,1.5,6.9,0.8c0.6-0.2,1.3-0.6,1.2-1
	c0-0.3-0.8-0.7-1.4-0.9c-0.5-0.2-1.4,0-2.1-0.1c-3.6-0.3-5.1-1.6-4-3.2c0.3-0.5,0.4-1,0.6-1.7c-5,0.1-9.6,0.2-14.1,0.3
	c-1.6,0-2.8,0-2.9-0.9c3-1.5,6.7-1.7,10.9-1.5c3.2,0.2,6.3,0.3,8.6,1.5c1.4,0.8,3.3,0.8,5.2,0.3c-0.7-0.1-1.2-0.4-0.5-0.7
	c0.7-0.4,1.5-0.7,2.2-1.1c-0.5-0.1-0.8-0.4-0.3-0.7c0.2-0.1,0.4-0.2,0.6-0.3c-0.5-0.1-0.9-0.2-1.3-0.4c-0.6-0.2-0.6-0.6,0-0.8
	c0.4-0.1,0.8-0.2,1.1-0.3c-2-0.2-4-0.5-5.9-0.8v-0.7c2-0.3,3.9-0.5,7-0.9c-3.8-0.9-6.5-1.9-9.6-2.2c-3-0.3-6.3,0.1-9.5,0.1
	c-0.2-0.1-0.4-0.3-0.5-0.4c2.1-1.1,4.2-2.2,6.6-3.4c-1.2-0.1-2.1-0.3-2.7-0.2c-2.7,0.4-5.1,0.3-7.7-0.2c-0.9-0.2-2-0.1-3.1-0.1
	c-0.4,0-0.8,0.3-1.1,0.4c0.5,0.7,0.9,1.3,1.6,2.4c-3-0.3-5.1-0.8-7.2-0.8c-2.4,0-4.7,0.5-7.1,0.7c-1.9,1.6-1.9,1.6-5.6,2.1
	c-4,0.6-8.2,1-12,1.7c-3.5,0.7-6.7,0.7-10.2,0.2c-1.4-0.2-3.3-0.5-4.5-0.2c-4.4,0.9-8.5,0.7-12.3-0.2c-4.5,1.1-8.6,2.1-12.9,3
	c-1.2,0.2-3-0.1-4.4-0.4c-6.1-1.1-12.6-0.8-18.8-1.2c-0.7,0-1.5,0.5-2.3,0.5c-1.3,0-3.1,0.1-3.9-0.2c-3.5-1.4-6.8-3-10.2-4.5
	c-1.6-0.7-2.9-1.6-4.7-2.3c-1.6-0.6-5.1-0.4-5.8,0.2c-1.1,1,0.1,1.7,1.8,2.2c2.9,0.9,5.9,1.7,8.9,2.5c1,0.3,2.1,0.6,2.8,1
	c3.8,2.4,8.4,4.5,13.3,6.4c2.2,0.9,1.9,1.7-0.9,2.1c-6.1,0.9-11.9,2.7-18.8,1.4c-0.6-0.1-1.5,0-2,0.2c-1.5,0.4-1.8,0.9-0.5,1.5
	c2,0.5,4.3-1.3,6.3,0.3c-0.6,0.8-1.2,1.7-1.9,2.9c-1.7-0.3-2.8-0.5-4.8-0.9c2.7,2.4,1,3.7-2.6,4.9c-2.7,0.9-5.5,1.9-7.4,3.7
	c5.2-0.6,8.9,0,12.3,1.4c1,0.4,3,0.6,4.3,0.5c3.8-0.3,7.6-0.8,11.4-1.1c2-0.2,4.1-0.1,6.2-0.4c3.4-0.3,5.9,0.6,8.8,1.4
	c0.5-0.5,0.9-0.9,1.1-1.2c0.2-0.4,0.2-0.9,0.4-1.6c7.1,1.4,13.9,2.5,21.2,1.5c0.9,0.7,1.6,1.3,2.7,2.3c1.5-2.4,4.9-3.2,9.2-3.4
	c1.2-0.1,2.6-0.3,3.3-0.7c3.9-2,9-1.4,13.5-1.7c0.8,0.6,1.3,1,2,1.6c7.3-2.4,14.7-2.8,22.4-0.8c1,0.3,2.4,0.3,3.6,0.4
	c8.2,0.3,16.5,0.5,24.7,0.7c0.2,0,0.5-0.2,0.9-0.4c-1.5-2.2-8.1-0.8-9.4-2.5c-2.7,0-4.7,0.1-6.7,0c-2.1-0.1-4.1-0.4-6.1-0.7
	c-2-0.2-4-0.4-6.8-0.7c0.7-1.1,0.7-2.4,1.9-2.7c2.8-0.8,4.5,0.6,6.4,1.4c5.2-1.4,10.1-0.6,14.8,0.3c3.7,0.7,6.5,0.2,8.4-1.4
	c-4.9-0.4-9.8-0.8-14.7-1.2C379.4,39,377.9,38.4,377.7,38z M276.7,29.3c-0.6,0.1-1.3-0.2-2.4-0.3c1.6-0.6,2.1-0.8,2.6-1
	c0.4,0.2,1.1,0.5,1.1,0.7C277.9,28.9,277.3,29.2,276.7,29.3z"/>
<path class="st1" d="M260.3,151.8c-2.3-1.7-7-0.8-6.7-4.2c1.7,0.3,3.2,0.5,4.7,0.7c-0.7-1.7-1.3-3-1.8-4.4c-0.6-1.6-1.5-2.7-4.2-2.8
	c-1.3-0.1-2.6-0.5-3.9-0.8c-2.6-0.6-5.3-1.6-7.9-1.6c-9.1-0.2-18.2-0.2-27.4-0.2c-2.4,0-4.9-0.1-7.3,0.2c-2.1,0.2-4,0.9-3.4,3
	c0.2,0.6-0.6,1.9-1.5,2.1c-3.5,1.1-4.6,3.3-5.7,5.5c-0.3,0.7-0.6,1.6-1.4,1.9c-1,0.5-2.6,0.9-3.7,0.7c-1.4-0.2-2.1-1.2-1.3-2.4
	c0.6-0.8,1.4-1.9-1.1-2.4c-0.4,1-0.8,2-1.4,3.3c-2.3-0.7-4.4-1.3-7.4-2.3c3.2-1.2,5.4-2,7.7-2.8c-1.8-1.8-3.4-3.6-5.2-5.2
	c-0.4-0.3-1.2-0.6-1.8-0.7c-3.4-0.2-6.3-2.1-10-1.5c-1.2,0.2-2.7-0.3-4.1-0.6c-3.1-0.7-6.2-1.6-9.3-2.3c-4.1-1-8.2-2.1-12.5-2.8
	c-5.1-0.9-9.9-2.8-15.8-1.8c-3.1,0.5-7.3-0.8-8.5-3.4c-1.1-2.3-3.3-3.1-6.1-3.4c-4-0.5-8-1.1-12-1.4c-1.9-0.1-4.6,0.1-5.8,0.9
	c-1.7,1.2-6.1,1.2-4.7,4.1c0.1,0.2-0.4,0.6-0.7,0.8c-2.8,1.9-5.6,3.7-8.6,5.7c1.7,1.1,2.9,1.8,3.8,2.4c-0.8,2.4-1.5,4.5-2.2,6.6
	c-0.5,1.7-1.6,2.6-4.3,2.5c-2.6-0.1-5.1,0.1-5.4-2.5c1.3-0.5,2.6-0.9,4.5-1.6c-5.2-1.6-9.9-3-14.5-4.5c0.1-0.2,0.2-0.4,0.3-0.7
	c1.6,0.1,3.1,0.3,5.8,0.5c-3.1-1.5-5.3-2.6-7.8-3.8c-2.3,2.5-4.6,4.8-2.9,7.7c-3.5,2-6.7,3.9-9.5,5.5c-0.1,3.9,5,7,0.6,10.4
	c2.9,2.4,8.7-0.1,10.5,3.5c-3.8,0.2-4,0.3-5.6,1.6c-1.5-0.5-3-0.9-4.9-1.5c0.3,1.3,0.8,2.2,0.5,3c-0.3,0.9-1.4,1.6-2.2,2.4
	c0.8,1,1.5,1.9,2,2.6c-1.3,2.1-2.5,4-3.7,5.9c-1-0.1-2.4-0.2-3.7-0.3c-0.1,0.2-0.2,0.4-0.2,0.6c1.5,0.9,3.1,1.7,4.4,2.5
	c-1.5,1.2-3.9,2.1-3.9,3.1c0,2.3-0.4,5.3,2.5,6.7c2.5,1.2,6.4,1.8,9.4,1.5c3.4-0.4,6.7-0.1,9.2,0.9c3.2,1.3,6.3,1.2,9.5,1.5
	c2.8,0.2,5.5,0.6,8.3,1c3.5,0.5,6.9,1.5,10.3,1.5c5.5,0.1,10.3,1.3,15,3c5.6,2,11.4,4,18,1.9c0.3-0.1,0.7,0,1.1,0.1
	c0.1,0.4,0.3,0.9,0.4,1.2c5.3,0.3,10.6,0.6,16,1c0.8-1.8-0.6-2.4-2.6-2.4c-6.2,0-12.2-1-18.2-2.1c-8.1-1.5-16.4-2.7-24.6-4.1
	c-1-0.2-1.9-0.5-2.8-0.8c3.6-0.2,7-0.2,10.4,0.3c5.8,0.7,11.6,1.6,17.4,2.6c8.1,1.4,16.3,1.8,24.6,1.7c4-0.1,8,0.6,12,1.1
	c1.7,0.2,2.2,1.1,0.5,2.3c-3.6-1.1-7-1.3-9,1.3c1.9,2.2,3.5,4.2,5.3,6.3c2.1-1,3.6-2.6,6.3-1.1c0.6,0.3,2,0,3-0.1
	c4.2-0.7,8.3-0.7,12.6-0.3c3.1,0.3,6.3,0,9.4,0.1c1,0,2.5-0.1,3.1,0.3c3.5,2.5,8.3,1.5,11.1,2.3c2.3-0.8,3.7-1.3,5.2-1.8
	c-3.6-0.5-7-1.7-10.6,0.1c-0.9-0.9-1.9-1.8-3.3-3.1c-2.3,2.7-5.8-0.8-8.4,1.2c-1.8-1.9-5.2-1.6-8.2-2.9c7.7-2,14.6-0.7,21.5,0
	c7.7,0.8,15.2,2.2,22.8,3.3c2.1,0.3,4.2,0.3,6.3,0.4c1.9,0.1,2.3-0.8,2.2-1.9c0,0-0.1,0-0.1,0.1c-0.1-0.1-0.1-0.1-0.2-0.1
	c-1.2-0.1-2.5-0.3-4-0.5c2.5-0.8,2.6-0.8,4,0.5c0.1,0,0.2,0,0.3,0l0,0c2.4-1,4.6-1.9,7.6-1.8c1.8,0.1,3.5-0.7,3.2-2.3
	c-0.4-2.1,1.4-2.6,3.7-2.8c2.7-0.2,4.7-0.9,5.5-2.8c-1.1-2.5-7-2.6-6.3-6.3c4.5,0.6,8.7,1.3,14,2c-1-1.9-1.3-3.1-2.3-4
	c-1.5-1.3-3.3-2.5-5.3-3.5c-2.2-1.1-1.5-1.9-0.1-3.2c1.5,0.5,2.8,0.9,4.2,1.3c0.9-2.4,0.8-2.9-1.9-3.3c-3.4-0.5-6.8-0.5-10.4-0.8
	c-0.3-1.6-0.6-3.2-0.8-4.6c3.2-1.8,6.4-3.5,9.7-5.3c-0.6-0.7-2.4-2.3-2.3-2.4c2.4-1.5-1.1-2.7-0.2-4.2c3.5-0.3,6.9-0.6,9.9-0.9
	c2.3-1.9,1-3.4-0.5-4.8C257.8,152.3,258.8,152.1,260.3,151.8z M63.3,187.1c-0.1-0.3-0.1-0.5-0.2-0.8c2.4-0.9,2.4-0.9,6.1,0.3
	C66.6,186.8,64.9,187,63.3,187.1z M63.2,164.7c0.6-0.4,0.8-0.6,1-0.6c1.5,0.2,2.9,0.4,2.4,2.1C65.4,165.7,64.3,165.2,63.2,164.7z
	 M69.2,162.2c1.7,0.7,3.4,1.1,4.3,2c0.8,0.8,0.8,2.1,1.1,3.1C69,167,68.5,166.5,69.2,162.2z M70.6,185.8c3.2-1.2,4.8,0.1,7.7,1.3
	C74.8,187.5,72.6,188,70.6,185.8z M73.8,157.1c0.7,0.8,1.3,1.5,2.3,2.6c-5.1,0.2-8.7-0.9-12.6-2.2c2.5-2.3,5-1,7.6-0.6
	c1.9-1.3,4.1-2.7,7.5-0.9C77,156.3,75.5,156.7,73.8,157.1z M89.1,189.6c-1.2-0.2-2.5-0.3-3.7-0.5c0.1-0.2,0.2-0.5,0.3-0.7
	c1.2,0.2,2.4,0.5,3.6,0.7C89.2,189.3,89.1,189.4,89.1,189.6z M186.4,156.5c-0.2-0.5-0.5-0.8-0.5-1.2c0-0.1,1-0.4,1.2-0.3
	c0.4,0.2,0.6,0.6,0.9,1C187.6,156.1,187.1,156.2,186.4,156.5z M75.7,137.6c-1.3-0.3-2.7-0.7-4-1c0.1-0.2,0.2-0.4,0.3-0.5
	c1.3,0.3,2.7,0.7,4,1C75.9,137.2,75.8,137.4,75.7,137.6z M100.6,196.1c0.9,0.2,1.9,0.3,2.8,0.5c-0.1,0.3-0.2,0.6-0.3,0.8
	c-0.9-0.2-1.9-0.5-2.8-0.7C100.4,196.5,100.5,196.3,100.6,196.1z"/>
<path class="st2" d="M481.4,127.9c-0.4-1-0.8-1.8-1.3-2.7c-0.4-0.8,0-1.9-1.7-2.1c0.3,1.1,0.8,2.1,0.7,2.9c-0.1,0.7-1,1.1-1.8,1.8
	c2.1,1.7,2.3,2.9,2.3,4.6c-0.1,1.6-0.6,3.6,1.7,5.7c0.4,0.4,0.5,1.1,0.8,1.7c-0.4-0.2-0.7-0.2-1-0.4c-0.7-0.7-1.3-1.3-2.4-2.5
	c-0.3,3,1.2,6.4-0.3,8.9c-0.4-1-0.7-1.6-0.8-2.3c-0.1-1.1-0.1-2.2-0.5-3.3c-1.8-4.5-3.6-9-3.2-13.1c0.1-0.3,0.1-0.6,0-0.8
	c-1.7-2.3-1.3-4.3-1.4-6.2c-0.2-3.2-1.2-6.9,0-9.2c-0.6-1.6-1.7-3.1-1.5-4c0.5-2.3,1.3-4.3,2.1-6.5c2.2,1.5,2.8,4.1,5.3,4.7
	c0.1-1.2,0.3-2.3,0.3-3.6c0-0.4-0.1-1.1-0.4-1.3c-1.8-1.3-1.2-1.9-0.7-2.9c0.4-0.6,0.1-1.6,0.2-2.4c-0.9-0.2-1.5-0.3-1.9-0.4
	c-0.3,0.9-0.7,1.6-1.1,2.3c-0.2-0.2-0.5-0.2-0.6-0.3c0.7,1.4,1.4,2.7,2.2,4c-1.2-0.5-2.1-0.8-3.2-1.4c-0.7-0.4-1.5-0.9-1.7-1.3
	c-0.6-1.6-1.5-3.6-1-4.4c0.7-1.2,0.7-2.6,0.8-4c0.2-0.1,0.1-0.3,0.1-0.7c-0.6,0.2-1.2,0.3-1.5,0.4c-1.6-1.3-2.8-2.5-4.4-3.8
	c0.5-0.4,1.2-0.8,1.7-1.2c-0.4-0.6-0.6-1.2-1.2-1.9c0.8-0.7,1.4-1,3.1-0.1c0.7,0.4,1.3,0.3,2.1,0.4l-4.1-4.8c1.2-0.6,4.1,0.5,3-2.2
	c-0.5-0.4-1.2-0.7-1.7-1.2c0.7-0.8,1-1.8,2.8-0.1c1.3,1.3,2.2,1.1,2.5,0c-0.9-1.1-2-2.1-2.8-3.2c-0.7-1-1-2.1-1.4-3.1
	c-0.4-1-2.2-2.2-1-3.2c1.2,1.7,2.3,3.3,4.7,2.9c-1.8-1.6-3.3-3.2-4.8-4.2c-0.7-0.5-1.9,0.1-3,0.3c-0.5-0.5-1.2-1.3-1.8-1.8
	c0.2-0.3,0.3-0.5,0.5-0.4c2.4,0.3,2.4-1.9,3.6-2.8c0.2-0.1,0-0.6-0.1-0.8c-1.5-1.1-0.8-1.6-0.3-1.9c0.5-0.6,1.3-1,1.8-1.5
	c-1-1-1.9-1.9-2.8-3c-0.1-0.1,0.1-0.3,0.3-0.7c0.7,0.5,1.4,1.2,1.9,1.6c1.8-0.7,2.1-1.1,1-2.2c-1.3-1.3-2.7-2.3-4.4-3.8
	c0.3,1.3,0.5,2.2,0.7,3.1c-0.1,0.1-0.4,0-0.4,0c-0.8-1-1.6-2.1-2.6-3.6c2.1-0.8,1.5-4.2,5.4-3.3c0.3,0.1,0.7-0.7,1.1-1.3
	c-2.3-1.1-4.4-2.1-6.9-3.3c0.6,1.3,1.2,2.2,1.6,3.2c-0.8,1.2-1.5,2.7-2.6,4.4c-0.5-1.2-0.8-1.8-1.2-2.8c-1,0.4-2,0.7-3,1.1
	c-0.1-0.6-0.3-1-0.4-1.5c-1.2,0.1-1.4,1-0.8,2c0.8,1.4-0.1,1.8-0.8,2.2c0.4,0.5,0.8,1,1.1,1.5c0.5,1.4-0.5,2.2-1.8,1.7
	c-2.4-1-2.9-0.8-2.8,0.9c0,0.9,0.1,1.8,0.1,2.7c-2.1,0.4-3.5,1.6-3.3,3.4c0.3,2.6-1,4-2.4,5.3c-1,0.7-1.9,1.6-2.2,2.7
	c-0.2,1.8-0.9,2.6-3.5,1.8c1.5,2.3,1.7,4.7,0.1,5.5c-1,0.6-1.4,1.4-1.3,2.6c-0.2,2.9-0.7,5.6-1.3,8.2c-0.3,1.3-0.7,1.2-2.3-0.3
	c-1,0.1-1.5-0.8-1.9-1.5c-1.5,0.6-2.5,1.5-2.4,3.4c-0.6-1.1-1-2-1.6-3.1c-1-0.1-1.9-0.1-3.1-0.3c-0.1-0.6-0.1-0.9-0.3-1.3
	c0-0.3-0.3-0.6-0.4-1c-2,0.1-0.7,1.8-0.8,2.7c-0.4,2.6-0.5,5.4,0.2,8.6c0.3,1.4-0.2,2.5-0.2,3.9c-0.1,0.5,0,0.9,0,1.3
	c0.1,1.1,0.2,2.3,0.4,3.5c0.1,1.4,0.2,2.7,0.3,3.6c-0.8,0.9-1.6,1.4-1.7,2.2c-0.2,1.4,1.6,2.2,3,3c0.2,0.8,0.4,1.5,0.5,2.1
	c-0.1,0.3-0.2,0.5-0.1,0.7c-0.7-0.4-1.2-0.6-1.8-1c-0.8,0.8-0.1,1.3,0.8,2.3c1.9,1.7,2.1,3,0.8,4.3c0.2,0.4,0.5,0.7,0.8,1.1
	c-1.3,0-2.3,0.2-3.8,0.3c1.9,1.4,2.2,3.9,5.1,3.3c0.3,2.7,0.7,5.1,1.2,7.5c0.1,1.1,0.2,2.2,0.5,3.3c0.8,2.9,1.8,5.7,2.6,8.5
	c0.3,1.1,0,2.2,0.7,3c2,2.3,2.6,4.7,3.9,6.9c0.1,0.1-0.1,0.3-0.2,0.5c-0.5-0.1-1.2-0.2-1.6-0.3c-0.7,2.2,2.9,3.5,3.4,5.5
	c-0.6,0.2-1.3,0.5-2.1,0.8l6.1,7.2c0,0,0,0,0.1-0.1c0,0,0,0,0.1,0.1c1.1,0,1.6,0.5,2.1,1.7c-1.3-0.4-1.9-0.7-2.1-1.7l0,0l0,0
	c-0.3,0.2-0.4,0.4-0.7,0.5c0.6,1.2,2.1,2.8,1.8,3.4c-0.6,1.2,0.8,2.7,0.7,3.8c0,0.4,0.5,1.2,0.9,1.5c0.3,0.2,1,0.1,1.3,0
	c1.3,1.5,2.3,2.6,3.4,4c1,1.2,2.2,2.3,3.1,3.5c1,1.2,1,1.9-0.3,2c-0.5,0-1.2-0.2-1.6-0.1c1.2,2.1,1.2,2.1,3.5,3.5
	c3.4,1.9,4.5,4.7,3.1,6.6c-0.3,0.4,0,1.4,0,2.3c2.3,0.1,4.8,1.5,5.6,3.2c2.2,4.1,5.5,7.7,8.9,11.4c0.6,0.7,1.3,1.2,1.6,1.8
	c1.8,3.1,3.6,6.2,7.5,8.4c-0.5,0.4-0.9,0.6-1.1,0.9c-0.2,0.3-0.3,0.7-0.4,0.9c2,1.5,1.3-0.6,2.3-0.6c1.1,1.9,0.9,4,3.5,5.4
	c0.6,0,1.2-0.1,2-0.2c-0.3,1.7,1.4,3.3,2.5,3.9c2.6,1.3,4.7,2.6,5.6,5.2c0.4,1.1,1.4,2.2,2.3,3.4c0.8,1,1.6,2.1,2.5,3.3
	c-1.1,0.3-2,0.5-3,0.9c0.8,1,1.4,2.4,2.3,3.1c3.2,2.4,6.5,4.7,9.8,7c3.2,2.3,6.5,4.7,9.9,7c3.7,2.4,7.3,4.8,11,7.1
	c5.6,3.3,11.1,6.5,16.9,8.3c3.6,1.2,7.2,1.5,10.8,4c0.9,0.7,2.1,0.6,3.2,1.1c3,1.2,6.3,0.7,9,4.2c0.1,0.1,0.4,0.2,0.6,0.3
	c2.6,0.3,5.1,1.9,7.5,3.3c3.6,2,6.2,1.3,9.1,1.4c0.5,0,0.8-0.9,0.9-1.5c0.2-0.5,0-1.2,0-1.8c1.4,0.1,2.9,0.2,4.3,0.2
	c-1.1-1.6-2-2.9-3-4.3c-0.2-0.5-0.6-1.3-0.3-1.5c0.2-0.3,1.1,0,1.6,0.3c2.9,1.9,5.8,2.7,8.9,2.8c-1.1-2.5-0.4-4.1,0.8-5.5
	c-1.3-1.4-2.5-2.7-3.8-3.9c0.2-0.1,0.2-0.3,0.4-0.3c2.3,1.8,4.6,3.6,7.3,5.7c-0.4-1.3-0.6-2.2-0.9-3.4c3.1,1.1,6.2,2.7,7.8,0.4
	c-2.8-3-5.7-6.1-8.5-9.2c-0.1-0.1-0.2-0.2-0.3-0.2c-1.2-1.1-2.6-2.3-3.6-3.4c-3.4-3.6-6.8-7.3-9.9-10.9c-1.8-2.3-3.5-4.9-4.6-7.5
	c-1-2.2-2.1-4.4-3.7-6.6c-0.4-0.5-0.6-0.9-1-1.4c-0.1,0-0.3,0-0.4-0.2c-9.2-7.4-17.6-15.7-25.8-24.2c-0.1,0.1-0.1,0.1-0.2,0.1
	c-0.5-0.4-1.2-0.7-1.7-1.1c-3.8-3.2-7.4-6.2-11.3-9.4c-1.4-1.1-2.7-2.1-4-3.1c-1.8-1.3-4.1-2.1-4.7-4.5c-0.2-0.4-0.7-0.7-1.1-1
	c-2.9-2.5-6-4.9-9-7.4c0.1-1.6,0.4-3.1,0.6-4.5c-1.4-1.4-2.4-3-3.1-4.6c-0.6-1.4-1.4-2.7-2.2-3.9c0.1,0.5,0.1,1,0.1,1.5
	c-2.6-1-2.8-1.4-2.2-3c-0.9-0.7-1.8-1.4-3.2-2.4c1-0.1,1.7,0,2.3,0c-1.6-2-3.1-3.9-4-5.8c-2.1-0.3-3.8-2.4-5.9-3
	c-0.9-0.3-1.7-0.9-2.7-1.4c1.3,2.4-1.9,1.1-1.5,3.1c-0.8-1.2-1.1-1.6-1.7-2.3c-1.1,0-2.2,1.3-3.7-1.1c0.2-0.1,0.3-0.2,0.4-0.4
	c0.1-0.2,0.3-0.4,0.6-0.8c-3.5,0.3-3.5,1.4-0.1,5.9c-3-1.2-3.2-3.3-4.2-5.3c-1.1,2,0.6,4.4,1.1,6.6c-1.4-1.3-2-2.6-2.4-4
	c-0.4-1.3-0.7-2.9-1.6-4c-1.4-1.7-1.5-2.7-0.9-3.9c0.4-0.6,1.3-1.1-0.2-2.5c-1.1,0.5-2.2,0.4-3.6-1.2c-0.1-3.1-3.6-7.2-1.5-9.6
	c-0.8-1.2-2.2-2.4-2.3-3.3C480.9,133.4,479.8,130.1,481.4,127.9z M463.6,50.5c0.2,0.2,0.6,0.3,0.8,0.5c0.2,0.3,0.2,0.5,0.5,1.2
	c-0.7-0.7-1.2-0.9-1.3-1.1C463.5,50.8,463.6,50.7,463.6,50.5z M461.3,52.2c1.7,0.2,2.3,0.9,2.2,2.3C462.6,53.6,462,53,461.3,52.2z
	 M470.3,71.8c0,0.4,0.1,0.8,0,0.8c-0.4,0-0.7-0.1-1.2-0.2c0-0.3-0.1-0.6-0.3-0.9C469.3,71.5,469.7,71.6,470.3,71.8z M430.9,88.7
	c0.1-0.3-0.1-0.8,0-1c0.2-0.1,0.6,0,1.4,0.2c-0.2,0.5-0.1,0.8-0.3,0.9C431.7,88.9,431.3,88.7,430.9,88.7z M436.3,85.2
	c1.8,1.5,1.1,2.1,1.1,2.8c-0.3,0-0.5-0.2-0.7-0.2C436.6,87.2,436.4,86.4,436.3,85.2z M434.3,89.2c-0.2-0.4-0.3-0.9-0.4-1.3
	c0.3,0,0.5,0.1,0.8,0.2c0.1,0.5,0.3,1,0.2,1.4C434.7,89.3,434.5,89.3,434.3,89.2z M463.8,73.1L463.8,73.1
	C463.8,73,463.8,73,463.8,73.1c-1-0.8-1.9-1.5-2.8-2.1c0.3-3.3,1.9-4.1,6-2.8c-0.2,2-2,1.7-4.1,1.2c0.2,1.2,0.5,2.4,0.8,3.6l0.1,0.1
	C464,73.2,463.8,73.1,463.8,73.1c0.1,0.6,0.1,1.2,0.3,2.5C462.7,73.9,463.5,73.6,463.8,73.1z M460.4,82.4c0.2-0.5,0.1-0.7,0.2-1
	c0.2,0.2,0.6,0.3,0.8,0.4c0.1,0.3,0.1,0.5,0,0.7C461.2,82.6,460.8,82.4,460.4,82.4z M433.3,116.3c-0.7-0.7-1.6-1.2-2.1-1.9
	c-0.9-1.3-0.7-3.8-0.2-5c1,2.3,1.8,4.5,2.7,6.6L433.3,116.3z M467.5,99.5c-1.5-2.9,0-4.1,1.2-5.8c2.9,3.2-1.8,3.2,1.4,6.1
	C468.7,99.8,468.3,99.7,467.5,99.5z M469.6,113.7c-0.3-0.9-1.9-1.9-0.8-2.9c0.7-0.6-1.4-2.8,1.2-2.7c0.1,2.2,0.2,4,0.3,5.8
	C470.1,113.8,469.7,113.7,469.6,113.7z M470.3,118.4c-0.2-0.4-0.5-0.8-0.5-1.1c0-0.3,0.1-0.6,0.2-0.8c0.2,0.2,0.4,0.2,0.7,0.4
	c0.1,0.6,0,1.2,0.1,1.8C470.7,118.5,470.6,118.5,470.3,118.4z M589.1,254.2c0.7,0.9,1.4,1.9,2,2.9c-0.2,0.1-0.3,0.1-0.4,0.2
	l-2.3-2.8C588.5,254.3,588.8,254.2,589.1,254.2z M482.6,144.7c-0.1,0.5-0.3,0.7-0.3,1.2c-0.2-0.2-0.6-0.3-0.7-0.4
	c0-0.4,0.1-0.8,0-1.3C482.1,144.4,482.4,144.5,482.6,144.7z M512,19.7c0.6,1.5,2.4,3.1,2.1,4.6c0,0.1,1.5,1,2.2,1.6
	c0.1-0.5,0-0.9-0.3-1.1c-1-0.8-0.9-1.3-0.2-1.6c0.7-0.4,1.4,0.2,1.9,1c0.4,0.7,0.6,1.5,0.9,2.3c-3,0.2-5.8,0.3-8.7-0.2
	c-0.2-0.3-0.2-0.5-0.5-0.7c0.7-0.6,1.2-1.3,2-1.9c-2-0.1-4.1-0.2-6.3-0.2c0.7,0.7,1.2,1,1.6,1.5c0.4,0.4,0.6,0.9,0.6,0.9
	c-1.2,0.5-2,1.1-2.9,1.5c-1.1,0.3-1.9,0.6-3.3,0.9c1.3,0.9,2.3,1.6,3.2,2.2c0.2-0.5,0.3-0.9,0.6-1.3c2.6,2.5,3.8,0,6.2,1.6
	c-0.5-1.1-0.7-1.6-1-2.2c1.1-0.1,1.9-0.3,2.8-0.5c2.5-0.3,3.5,0.5,4.4,3.6c-1.8,0.2-3.9,0.2-5.6,0.6c-1.8,0.4-3.6,1.2-5.5,1.7
	c-2.8-1.7-3.1-1.6-3.7,0.1c-0.2,0.7-0.5,1.3-1,1.7c-0.8,0.7-2,0.9-2.8,1.5c-2.1,1.6-4.5,2.7-7.7,2.8c0.6,1.1,1.2,2.2,1.9,3.6
	c2.2-1.2,5.8-0.1,7.3-2.1c-1.3-2.7-1.3-2.9,0-3.7c1.4-1,3-1.9,6.1,0.6c0.3-3.3,3.3-3.4,6.1-3.6c1.7-0.2,3.7-0.1,4.8-0.8
	c1.7-1.3,4.3-0.3,6.5-0.2c0.4,0,1,0.7,1.7,1.1c-2.5,1.3-5.2,1.5-8.2,1.6c-1.1,0-2.7,0.1-2.9,0.5c-0.2,1.1-1,1-2.1,0.8
	c-1.1-0.2-2.1-0.4-2.7,0.5c2.3,1.6,4.3,1.5,5.5,1c2.2-1,4.8-0.6,7.8,0.5c0.1,0,0.3-0.2,0.5-0.2c-1.7-2.9-1.1-4,2-3.2
	c0.3,0,0.5,0.2,0.7,0.2c1.1,0.6,1.6,0.5,2.3,0c0.5-0.6,1.7-0.7,2.7-0.8c3.8-0.5,7.5-1.2,11.4-1.5c6.3-0.7,13.4,1,20.3,2.4
	c0.3,0.1,1,0.7,1.5,1c-1.7,0-3.4-0.5-5.1-0.8s-2.9,0.1-3.8,1.3c1.2,0,2.2,0.2,3.1,0.3c2.1,0.3,4.1,0.4,6.1,0.6
	c4.3,0.7,8.6,0.8,13,1.7c7.8,1.7,15.5,4,23.4,6.4c10,2.9,19.9,5.8,30.1,10.1c1.5,0.6,2.6,0.5,3.6-0.3c-1-0.6-1.6-1-2.2-1.3
	c-9.9-5.8-20.4-9.3-30.9-13.8c-2.7-1.2-5.6-2-8.4-3c-3-1.1-5.8-2-8.8-3.2c-2.8-1-5.2-2-7.8-3c-3.1-1.1-6.1-2.3-9.4-3.5
	c-2.6-0.9-5.4-2.1-7.6-2.3c-2.8-0.2-5.6-1.6-8.5-2.2c-0.9-0.2-2.1-1.1-3-1.8c-2.4-2-4.9-2.7-7.6-3.1c1.9,1.6,3.4,2.7,5.3,4.4
	c-0.7,0.4-1.2,0.9-1.7,0.9c-3-0.4-5.9-1.3-8.3-4.6c-2.3,1-5,0.2-7.8-2.1c-0.2,0.1-0.2,0.3-0.4,0.3c1,1.4,1.8,2.7,2.9,4.5
	c-1.8-0.1-3.3-0.3-4.8-0.3c-1.1,0-2-0.2-2.8-1.4c-1.1-1.5-2.4-1.7-4.3-2c1.5,1.2,3.3,1.7,3.2,3.5c-1.3-1.3-2.4-1.6-3.7-1.3
	c-0.9,0.2-2.6-0.5-3.7-1.1c-0.6-0.3-1.1-1.5-1.5-2.2C511.3,18,511.7,19,512,19.7z M528.7,33.9c-0.1,0.3,0.1,0.5,0,0.6
	c-0.1,0.1-0.4,0-0.5-0.1c-0.2-0.2-0.2-0.4-0.5-0.9C528.3,33.8,528.5,33.9,528.7,33.9z M522,26.9c2.7,0.8,4.9-0.4,7.8,1.6
	c-2.9,0.3-5.2,1.5-9.3-0.9C521.2,27.4,521.7,26.8,522,26.9z M519.6,28.6c-0.2,0.1-0.2,0.5-0.2,0.7c-0.7-0.4-1.2-0.6-1.8-1
	c0,0,0.1-0.5,0.1-0.6C518.5,28,519.1,28.3,519.6,28.6z M520.6,23.7c0.3,0.2,0.7,0.6,1,1.1c-1.2,0.3-1.9-0.2-2.6-1.7
	C519.8,23.4,520.1,23.4,520.6,23.7z M476.3,80.6c2.9,0.6,4.2-0.4,4.9-4.4c0.6,1.2,1.5,2.3,2.7,1.8c0.2,0.5,0.6,1.1,1.2,2
	c-3.1-1.1-3.5,0.6-4.6,1.8c-1.2,1.2-2.3,2.3-3.4,3.7c0.7,0.8,1.4,1.7,2.5,2.9c-0.3-1.1-0.6-2-0.8-3.1c1.2,0.8,1.8,1.3,3,2.1
	c0.3-1.1,0.5-2,0.9-3.1c0.4,0.7,1,1.6,0.9,1.8c-1.3,1.5-2.8,2.8-4.1,4c-2.6-1.8-4.8-3.3-7-4.8c-0.9-0.4-0.9,1.7-2.6,0.1
	c0.5-0.8,1-1.6,1.4-2.4l-0.1,0.1c1.2,0.5,2.4,1,3.9,1.6c0.4-0.3,1-1,1.6-1.6c-1.1-1.6-2.2-3-3.5-4.7c1.1-0.1,1.8-0.2,3.2-0.4
	C476.5,79.2,476.4,79.9,476.3,80.6z M491.2,15.2c0.3-0.5,0.8-1,1.6-1.6c2.5,2.3,4.9,4.4,7.8,4.8c0.3,0,0.3,0.1,0.6,0
	c1.6,0.6,2.2-0.8,4.2,0.4c1.3,0.8,2.9,1,4.6,1.5c-0.2,1.6-2.1,1.5-3.3,0.9c-2.7-1.4-4.4-0.7-6.5-0.7c-1.4,0-2.4,0.1-4.2-1
	c-1.7-1-3.5-1.1-5.3-1.5c-0.1-0.3-0.2-0.4-0.2-0.7c1.1,0.1,2.2,0.1,3.4,0.1C494.5,15.6,491.9,16.7,491.2,15.2z M425.8,131
	c0-0.9-0.3-1.9,0-2.4c0.4-0.3,1.7,0.2,1.5-0.7c-0.3-0.8-1-1.7-1.5-2.6c-1.2,1.2-2.6,1-3.8-0.5c-0.7-0.9-1.4-1.4-2.5-1.7
	c-0.3-0.1-0.9-0.7-1.3-1c-0.8-0.1-1.6-0.3-2.7-0.4c0.4,0.6,0.8,1.4,0.9,1.5c1.7,0.3,1.9,1.4,2.3,2.5c0.5,1.2,0.8,2.4,1.3,3.9
	c1.2-0.8,2.1-1.4,3.2-2C424.1,128.7,423.8,130,425.8,131z M420.8,126.4c-0.2-0.2-0.4-0.6-0.4-0.8c0-0.1,0.4,0,0.9-0.1
	c0,0.3,0.2,0.7,0.2,0.8C421.6,126.5,420.9,126.4,420.8,126.4z M470.2,35.4c0.6,3.1-1.2,3.7-4.3,2c-1-0.5-2.4-0.6-3.5-0.9
	c-0.1-0.3-0.2-0.4-0.2-0.5C464.6,35.6,465.5,32.1,470.2,35.4z M477.9,113.3c-0.7-0.9-1.4-1.9-2-2.9c0.5-0.6,1-1.1,1.6-1.8
	c2.1,3.6,1.5,6.2,1.8,9.2c-2.1-0.7-3-1.9-3.6-3.2C475,112.8,477.5,114.2,477.9,113.3z M484.8,22.6c-1.4-1.6-3.1-3-5.1-3.3
	c-0.3-2.8-0.3-2.8,2.5-2.2c-0.3,0.7-0.4,1.3-0.7,2c1.3,0.4,2.1,0.5,3.4,0.9C484.8,20.8,484.8,21.7,484.8,22.6z M472.8,42.9
	c0.6,0.3,1.8,1.1,2.1,1.7c0.2,0.5,0.1,1.5-0.3,1.7c-0.5,0.4-1.6,0.3-3,0.6c-0.1-1.5-0.3-2.5-0.2-3.4
	C471.6,43.2,472.5,42.8,472.8,42.9z M418.4,122.1c-0.1-0.7-0.4-1.5-0.7-2.1c0.8-0.7,2.5-0.3,1.9-2.1c-0.2-0.4,1.3-0.8,2.6-1.4
	C421.7,119.2,422.1,122.1,418.4,122.1z M489.7,18.7c0.3,1.1,0.6,2,1,3.3c-2.3-2.2-5.1-2.1-7.1-5.3C485.8,17.5,487.6,18,489.7,18.7z
	 M486.1,76.1c-0.7,0.6-1.6,1.2-2.1,1.9c0-2.3,1.1-3.4,2.9-4.1c2.1,1.3,4,2.6,5.9,3.7c-0.9-0.1-1.7,0.4-2.9-0.9
	C488.7,75.4,487.3,75.3,486.1,76.1z M484.9,51.7c0.8,1.9,1.4,3.7,2.2,5.4c-0.1,0.1-0.3,0.1-0.3,0.2c-1.6-1.6-3.4-3.3-5.2-5.1
	C483,52,484.1,51.8,484.9,51.7z M497.6,149.6c3.3,0,5,1.8,7.2,4.4C501.7,153.4,500.1,151.1,497.6,149.6z M474.3,217.6
	c1.9,1.8,3.6,3.2,5,4.7c-1.9,0.8-3.3-1-4.8-2.2C473.6,219.1,473.8,218.3,474.3,217.6z M490.1,25.3c0.1,1.1,0.2,1.9,0.3,2.5
	c-1-0.5-1.8-0.9-2.6-1.1c-0.8-0.1-1.8,0.1-2.6-1.3C486.6,25.3,488.2,25.3,490.1,25.3z M486.6,147.3c0.5-1,0.9-1.6,1.5-2.3
	c1.9,0.1,3.4,2.2,5.8,3.8c-0.9-0.1-1.6-0.1-2.2-0.3C488.8,146.9,488.9,146.9,486.6,147.3z M457.6,195.8c-1.1-1.8-2.2-3.2-3-4.4
	c0.2-1,0.2-2.1,0.4-3.1c0.3,0,0.3,0.1,0.6,0C456.3,190.7,456.8,192.9,457.6,195.8z M489.9,50.1c0.6-0.1,1-0.3,1.9-0.5
	c-0.2,0.9-0.3,1.4-0.5,1.9c-0.9-0.2-2-0.6-2.3-0.3c-0.4,0.2,0.1,1.3-1.4,0.2c0.7-1.1,1.3-2.2,1.9-3.3c0.1,0,0.3,0.2,0.4,0.2
	C489.9,49,489.8,49.4,489.9,50.1z M435.3,82.9c-0.5-0.7-0.5-2-1.9-1.5c-0.1-0.6-0.2-1.2-0.5-1.9c1.1,0.1,2.1,0.2,3.1,0.4
	C437.1,82.2,437,82.5,435.3,82.9z M478.8,57.6c-0.5-0.5-1.3-1-1.9-1.5c0.2-0.1,0.2-0.5,0.2-0.7c1.3,1,2.9,0.2,3.9,2.2
	c0.3,0.6-0.1,1.3-0.4,2.2C479.7,58.8,479.5,58.2,478.8,57.6z M424.1,113.6c-0.6-1.1-0.6-2.4-0.9-3.6c0.3,0,0.3,0.1,0.6,0
	c0.7,1.6,1.4,3.2,2.2,4.8c0.2,0.5,0.8,1.1,1.1,1.6C425.2,116.1,424.4,114.6,424.1,113.6z M426,138.1c-0.8,0.1-1.6,0.3-2.9,0.4
	c-0.1-1-0.3-1.7-0.3-2.5C424.1,136.5,425.5,136.4,426,138.1z M421.4,114.5c-0.9-0.5-1.6-1-2.2-1.4c0.3-0.5,0.5-0.9,0.8-1.4
	c0.3-0.3,0.4-0.8,0.8-1.5C421.8,112.2,421.5,113.2,421.4,114.5z M430.9,141.7c-0.7-2-1.1-3.4-1.7-5.1
	C432,138.9,432.2,139.3,430.9,141.7z M499.6,145.8c0.5,0.1,1,0.3,1.6,0.4c0.1,1.6-1,2-2.1,1.1c-0.8-0.5-0.8-1.4-0.2-1.7
	C499,145.8,499.4,145.8,499.6,145.8z M485.2,86.8c0.9-2.8,1-2.9,3-0.8C487.3,86.1,486.5,86.3,485.2,86.8z M482,63c1-0.4,2-0.7,3-1
	C484.3,64.4,484.3,64.4,482,63z M482.4,70.2c0.8,1.4,1.5,2.4,2.3,3.9c-1.4-0.9-2.4-1.6-3.4-2.3C481.4,71.3,481.7,70.9,482.4,70.2z
	 M482.7,23.8c-0.9-0.4-1.7-0.9-3.1-1.6c1.3-0.8,2.2-0.9,3.2,0.3C483,22.7,482.7,23.2,482.7,23.8z M490.3,231.3c1.1,1,1.9,1.8,3,2.8
	c-0.5,0.2-0.9,0.3-1.6,0.7C491.3,233.4,489.7,232.6,490.3,231.3z M476.9,71.9c-0.3,0.7-0.6,1.3-1,2.2
	C474.7,72.3,474.7,72.3,476.9,71.9z M427.9,80.3c0.2-1,0.4-2,0.6-3.1C429.6,78.4,429.6,79.2,427.9,80.3z M439.9,168
	c-0.1,0.2-0.3,0.3-0.4,0.6c-1.4-0.2-2.1-0.9-3.1-3C438.2,166.8,439,167.4,439.9,168z M480,91.8c1.1,0,2.2,0,3.3-0.1
	C482.5,93.3,481.8,93.4,480,91.8z M484.1,227.1c1.3,1,2.5,1.9,4.3,3.3C486.2,229.9,484.9,229,484.1,227.1z M479.2,73.8
	c0.2,1.9,0.2,1.9-2,1.5C477.8,74.9,478.4,74.5,479.2,73.8z M485.3,45.9c1.1,0,1.8,0,2.7-0.1C487.7,48,487.7,48,485.3,45.9z
	 M472.7,64.6c0.1,0.1,0.1,0.1,0.2,0.2C472.8,64.8,472.8,64.8,472.7,64.6L472.7,64.6c-1.3-0.4-1.3-0.4-1.9-1.9c0.6,0,1.3,0,1.9-0.1
	c0,0.1,0.2,0.4,0.2,0.4C472.8,63.8,472.8,64.1,472.7,64.6z M414.4,108.8c-0.2-0.2-0.2-0.4-0.4-0.6c0.6-0.2,1.1-0.5,1.9-0.7
	C416.8,109.6,415.4,109,414.4,108.8z M417.6,109.6c0.5,1.5,0.7,2.2,1.2,3.2c-0.8-0.4-1.5-0.9-2.3-1.4
	C416.7,110.8,416.9,110.4,417.6,109.6z M445.3,56.7c0,0.7-0.2,1.4-0.1,2.2C443.5,57.2,443.5,57.2,445.3,56.7z M474.9,56.6
	c0.3,0.9,0.4,1.7,0.6,2.7C473.5,57.7,473.5,57.7,474.9,56.6z M502.1,10c1.1,1,1.7,1.6,2.4,2.2c-0.2,0.1-0.2,0.3-0.3,0.5
	C503,12.2,501.9,11.7,502.1,10z M471.5,214.9c-0.2,0.1-0.1,0.3-0.2,0.7c-1.2-0.2-1.8-1.2-2.7-1.8c0.2-0.1,0.1-0.3,0.2-0.5
	C469.5,213.7,470.5,214.2,471.5,214.9z M425.2,123.5c-0.3-0.9-0.5-2-0.8-2.9c0.4,0.2,0.6,0,0.9,0.2c0.3,1,0.5,1.9,0.6,2.9
	C425.7,123.7,425.4,123.6,425.2,123.5z M488.4,139.4c-1-0.5-2-0.9-3.7-1.7C486.4,137.4,487.4,138.4,488.4,139.4z M499,33.8
	c-0.5-0.5-1-1-1.5-1.6c0,0,0.3-0.3,0.3-0.2c0.7,0.4,1.2,0.7,1.7,1.1C499.4,33.5,499.1,33.5,499,33.8z M418.8,112.8
	c0.1,0.1,0.2,0.3,0.4,0.4c-0.1,1,0,2.1-2.2,0.8C417.1,113.1,418,113,418.8,112.8z M494.5,73.5c0.5,0.1,1.3,0.4,1.8,0.5
	c-0.1,0.3,0.1,0.6,0.1,0.9c-0.7-0.2-1.2-0.4-1.8-0.6C494.8,74.3,494.8,73.9,494.5,73.5z M487.8,37.2c-0.2,1-0.3,1.5-0.4,2.4
	C485.9,37.8,486.3,37.5,487.8,37.2z M458.1,23.4c0.3,0,0.4,0,0.7,0.1c0.2,0.5,0.6,1.1,0.9,1.7c-0.4,0-0.7-0.1-0.8-0.1
	C458.4,24.5,458.2,24,458.1,23.4z M472.1,21.5c-0.6,0.3-0.9,0.6-1.3,0.8c-0.2-0.2-0.4-0.4-0.6-0.7c0.6-0.3,1-0.5,1.4-0.8
	C471.8,21.2,472,21.4,472.1,21.5z M433.3,75.9c0.1-1,0.2-1.6,0.2-2.1C435.1,75.1,434.7,75.4,433.3,75.9z M493.3,75.3
	c-0.9-0.7-1.9-1.4-3.2-2.4C491.9,72.8,492.4,74.4,493.3,75.3z M496.7,154.3c1,0.1,1.6,0,2.3,0C499,155.5,499,155.5,496.7,154.3z
	 M480.6,32.4c0.2,0.5,0.8,1,1.1,1.6c-0.2,0.1-0.3,0.2-0.5,0.2c-0.2-0.3-0.7-0.6-0.8-0.9c-0.1-0.3-0.3-0.6-0.3-0.8
	C480.4,32.5,480.4,32.4,480.6,32.4z M471,38.9c0.1,0,0.3,0.1,0.5,0.1c0.1,0.7,0.3,1.3,0.4,2c-0.4-0.2-0.5-0.2-0.7-0.3
	C471.2,40.2,471,39.6,471,38.9z M490.2,10.1c0.5,0.6,0.9,1.1,1.4,1.7C489.9,11.6,489.9,11.6,490.2,10.1z M485.4,16
	c-0.2-0.2-0.2-0.5-0.5-0.7c0.5,0,1-0.3,1.4-0.4c0.2,0.3,0.2,0.5,0.5,0.7C486.3,15.8,485.8,15.9,485.4,16z M442,183.4
	c-0.9-0.8-1.6-1.3-2.6-2.2C441,181.4,441.9,181.9,442,183.4z M471.3,49.3c0.2,0.3,0.4,0.4,0.7,0.7c-0.4,0.3-0.7,0.6-1.2,0.9
	c-0.2-0.2-0.4-0.3-0.5-0.5C470.6,50,471,49.7,471.3,49.3z M421,132.3c0.5,0.8,1,1.7,1.5,2.4c-0.2,0.1-0.4,0-0.5,0
	c-0.5-0.7-1.1-1.6-1.7-2.3C420.6,132.4,420.8,132.3,421,132.3z M434.1,150.3c0.5,0.9,1,1.8,1.5,2.7c-0.3,0-0.4,0-0.6,0
	c-0.6-1-1-2-1.5-2.9C433.7,150.2,433.8,150.2,434.1,150.3z M500.9,142.9c0.1,0.6,0.3,1.3,0.4,2.4C499.5,143.5,500,143.1,500.9,142.9
	z M454.4,191.4c-0.3,0.3-0.5,0.8-0.7,1.2c-1.4-0.9-0.9-1.5-0.5-1.9C453.3,190.6,454.1,191.3,454.4,191.4z M508.2,158.6
	c0-0.1,0.9-0.1,0.9,0.1c0.4,0.4,0.4,0.8,0.5,1.4c-0.7-0.2-1.3-0.3-1.4-0.4C508.1,159.3,508.1,158.9,508.2,158.6z M453.2,40.2
	c0.1,0.1,0.1,0.5,0.3,0.9c-0.6-0.3-1-0.4-1.2-0.6c-0.2-0.2-0.1-0.5-0.1-0.8C452.4,39.9,452.8,40,453.2,40.2z M504.1,15.2
	c0.2-0.1,0.1-0.5,0.1-0.6c0.7,0.4,1.3,0.6,1.8,0.9c-0.2,0.1,0,0.4-0.1,0.5C505.4,15.8,504.8,15.4,504.1,15.2z M470.4,32.7
	c0.4,0.4,1,0.8,1.4,1.3c-0.3,0.1-0.3,0.2-0.5,0.4c-0.4-0.5-0.9-0.9-1.3-1.4C470.2,33,470.3,32.9,470.4,32.7z M455,39.7
	c-1-0.4-2.1-0.6-2-2.1C454,38.4,454.5,39,455,39.7z M446.5,179.2c0.5,0.5,1,1,1.4,1.5c-0.2,0.1-0.3,0.2-0.6,0.3
	c-0.5-0.6-0.8-1-1.3-1.5C446.1,179.4,446.5,179.2,446.5,179.2z M431.9,67.6c-0.2,0.5-0.2,1-0.4,1.5c-0.1,0-0.4-0.2-0.6-0.3
	c0.1-0.5,0.2-1.1,0.1-1.6C431.4,67.3,431.7,67.5,431.9,67.6z M475.5,29.4c-0.1,0.3,0,0.7-0.3,0.7c-0.2,0.1-0.5-0.1-0.7-0.3
	c0.1-0.3-0.1-0.6,0.1-0.6C474.7,29.1,475,29.2,475.5,29.4z M448.1,48.2c0.2,0.4,0.3,0.6,0.3,0.9c-0.1,0-0.4,0-0.5-0.1
	c-0.2-0.3-0.4-0.6-0.8-1.2C447.8,48.1,448.2,48.1,448.1,48.2z M472.8,64.9c0.9,0.7,1.7,1.2,2.3,1.8
	C474.1,66.8,473.5,65.7,472.8,64.9z M413.2,99.8c0.2,0.5,0.6,1.1,0.9,1.6c-0.3,0-0.4,0-0.5,0c-0.2-0.5-0.6-1.1-0.8-1.6
	C413,99.8,413.2,99.8,413.2,99.8z M508.7,16.2c-0.1-0.3-0.2-0.4-0.2-0.5c0.5,0,1.1,0,1.7,0c0.1,0.3,0.2,0.4,0.2,0.5
	C509.7,16.1,509.2,16.2,508.7,16.2z M487.4,59.6c0.1-0.3-0.1-0.6,0-0.8c0.1-0.1,0.4,0,1,0.1C487.8,59.2,487.6,59.3,487.4,59.6z
	 M475.5,66.7c0.5-0.2,1.1-0.3,1.5-0.6C477.4,67.9,476.4,67.2,475.5,66.7z M529.5,14.1c0.3,0,0.6,0.3,0.9,0.4c-0.1,0.3,0.1,0.6,0,0.7
	c-0.4-0.2-0.6-0.3-1.1-0.6C529.2,14.6,529.3,14.2,529.5,14.1z M428,126.3c-0.2-0.2-0.3-0.6,0-0.6c0.1-0.1,0.3,0.1,0.9,0.2
	c-0.1,0.5,0,0.7-0.2,0.9C428.4,126.6,428.1,126.5,428,126.3z M476.9,48c-0.2-0.4-0.1-0.6-0.2-1.2c0.5,0.4,0.8,0.5,0.9,0.7
	c0.1,0.3,0.1,0.5,0.1,0.8C477.4,48.2,477.1,48.1,476.9,48z M467.8,45.6c0.1,0,0.4,0.2,0.4,0.2c-0.1,0.3-0.3,0.7-0.3,1.1
	c-0.1,0-0.2-0.2-0.4-0.2C467.8,46.3,467.7,45.9,467.8,45.6z M493.8,33.9c0.1,0.1,0.1,0.3,0.2,0.4c-0.5,0-0.9,0.1-1.3,0.2
	c-0.1-0.3-0.2-0.4-0.2-0.7C492.9,33.9,493.4,33.9,493.8,33.9z M473.6,33.6c-0.4-0.5-0.8-0.9-1.1-1.3c0.2-0.1,0.3-0.1,0.4-0.2
	c0.4,0.5,0.8,0.9,1.1,1.3C473.8,33.5,473.6,33.6,473.6,33.6z M524.1,20.5c-0.1-0.1-0.1-0.5,0.1-0.5c0.3,0.1,0.7,0.2,1.3,0.4
	c-0.1,0.5-0.1,0.6-0.3,0.7C524.7,20.9,524.4,20.7,524.1,20.5z M507.7,157.1c0.2-0.1,0-0.4,0.1-0.5c0.6,0.3,1,0.5,1.6,0.7
	c0,0.1-0.1,0.3-0.1,0.5C508.9,157.6,508.3,157.3,507.7,157.1z M498.6,72.9c0.1-0.1,0.5,0.2,0.6,0.3c0.1,0.3,0.1,0.5,0.2,0.8
	c-0.4-0.2-0.8-0.4-0.9-0.7C498.2,73.2,498.5,73,498.6,72.9z M479.5,67.2c0.1,0.1,0.4,0.3,0.4,0.3c-0.2,0.3-0.2,0.6-0.5,0.8
	c-0.2-0.2-0.3-0.2-0.4-0.4C479,67.7,479.3,67.5,479.5,67.2z M545.3,36.4c0-0.1,0.1-0.3,0.2-0.5c0.4,0.2,0.6,0.3,0.8,0.3
	c0,0.1-0.1,0.5-0.1,0.5C546,36.6,545.6,36.4,545.3,36.4z M464.7,208.1c0,0.1-0.1,0.2-0.3,0.3c-0.4-0.3-0.9-0.7-1.3-1
	c0-0.1,0.1-0.2,0.1-0.3C463.9,207.5,464.4,207.8,464.7,208.1z M494.9,48.4c-0.3,0-0.5-0.1-0.8-0.2c0-0.1,0-0.4,0.1-0.5
	c0.1-0.1,0.3,0.1,0.5,0.1C494.8,48.1,494.9,48.3,494.9,48.4z M494.7,140.8c0.2-0.1,0.3-0.3,0.3-0.5c0.1-0.1,0.3,0.2,0.6,0.5
	c-0.3,0.1-0.3,0.2-0.5,0.4C495,141.2,494.8,141,494.7,140.8z M476.6,60.8c0.4,0,0.8,0,1.1,0.1c-0.2,0.1-0.3,0.3-0.5,0.4
	C477.1,61.2,477,61,476.6,60.8z M505.6,48.3c-0.1,0.3-0.1,0.5-0.2,0.7c-0.1,0.1-0.5-0.2-0.6-0.3c0.2-0.1,0.3-0.3,0.2-0.6
	C505,47.9,505.2,48.1,505.6,48.3z M475.8,69.1c-0.4-0.2-0.8-0.4-1.1-0.6c-0.1-0.1,0.1-0.5,0.3-0.7c0.4,0.2,0.9,0.5,1.2,0.9
	C476,68.6,475.9,69,475.8,69.1z M451.6,185.3c-0.2,0.1-0.3,0.2-0.4,0.4c-0.4-0.3-0.7-0.7-1.1-1c0.1-0.1,0.1-0.2,0.2-0.3
	C450.9,184.8,451.2,185.1,451.6,185.3z M528.1,188.9c0.4-0.2,0.8-0.7,1.3-0.5c1.9,0.8,3.6,1.8,5.5,2.6c-0.1,0.3,0.1,0.6-0.1,0.7
	c-1.7-0.4-3.5-0.7-5.2-1.3C529.1,190.6,528.7,189.6,528.1,188.9z"/>
<path class="st3" d="M335.7-248c-0.5-0.8,0.7-1.4,2.5-1.6c2.7-0.3,4.6,0.1,6.3,1.1c1.9,1.2,4.8,1.5,6.9,0.8c0.6-0.2,1.3-0.6,1.2-1
	c0-0.3-0.8-0.7-1.4-0.9c-0.5-0.2-1.4,0-2.1-0.1c-3.6-0.3-5.1-1.6-4-3.2c0.3-0.5,0.4-1,0.6-1.7c-5,0.1-9.6,0.2-14.1,0.3
	c-1.6,0-2.8,0-2.9-0.9c3-1.5,6.7-1.7,10.9-1.5c3.2,0.2,6.3,0.3,8.6,1.5c1.4,0.8,3.3,0.8,5.2,0.3c-0.7-0.1-1.2-0.4-0.5-0.7
	c0.7-0.4,1.5-0.7,2.2-1.1c-0.5-0.1-0.8-0.4-0.3-0.7c0.2-0.1,0.4-0.2,0.6-0.3c-0.5-0.1-0.9-0.2-1.3-0.4c-0.6-0.2-0.6-0.6,0-0.8
	c0.4-0.1,0.8-0.2,1.1-0.3c-2-0.2-4-0.5-5.9-0.8v-0.7c2-0.3,3.9-0.5,7-0.9c-3.8-0.9-6.5-1.9-9.6-2.2c-3-0.3-6.3,0.1-9.5,0.1
	c-0.2-0.1-0.4-0.3-0.5-0.4c2.1-1.1,4.2-2.2,6.6-3.4c-1.2-0.1-2.1-0.3-2.7-0.2c-2.7,0.4-5.1,0.3-7.7-0.2c-0.9-0.2-2-0.1-3.1-0.1
	c-0.4,0-0.8,0.3-1.1,0.4c0.5,0.7,0.9,1.3,1.6,2.4c-3-0.3-5.1-0.8-7.2-0.8c-2.4,0-4.7,0.5-7.1,0.7c-1.9,1.6-1.9,1.6-5.6,2.1
	c-4,0.6-8.2,1-12,1.7c-3.5,0.7-6.7,0.7-10.2,0.2c-1.4-0.2-3.3-0.5-4.5-0.2c-4.4,0.9-8.5,0.7-12.3-0.2c-4.5,1.1-8.6,2.1-12.9,3
	c-1.2,0.2-3-0.1-4.4-0.4c-6.1-1.1-12.6-0.8-18.8-1.2c-0.7,0-1.5,0.5-2.3,0.5c-1.3,0-3.1,0.1-3.9-0.2c-3.5-1.4-6.8-3-10.2-4.5
	c-1.6-0.7-2.9-1.6-4.7-2.3c-1.6-0.6-5.1-0.4-5.8,0.2c-1.1,1,0.1,1.7,1.8,2.2c2.9,0.9,5.9,1.7,8.9,2.5c1,0.3,2.1,0.6,2.8,1
	c3.8,2.4,8.4,4.5,13.3,6.4c2.2,0.9,1.9,1.7-0.9,2.1c-6.1,0.9-11.9,2.7-18.8,1.4c-0.6-0.1-1.5,0-2,0.2c-1.5,0.4-1.8,0.9-0.5,1.5
	c2,0.5,4.3-1.3,6.3,0.3c-0.6,0.8-1.2,1.7-1.9,2.9c-1.7-0.3-2.8-0.5-4.8-0.9c2.7,2.4,1,3.7-2.6,4.9c-2.7,0.9-5.5,1.9-7.4,3.7
	c5.2-0.6,8.9,0,12.3,1.4c1,0.4,3,0.6,4.3,0.5c3.8-0.3,7.6-0.8,11.4-1.1c2-0.2,4.1-0.1,6.2-0.4c3.4-0.3,5.9,0.6,8.8,1.4
	c0.5-0.5,0.9-0.9,1.1-1.2c0.2-0.4,0.2-0.9,0.4-1.6c7.1,1.4,13.9,2.5,21.2,1.5c0.9,0.7,1.6,1.3,2.7,2.3c1.5-2.4,4.9-3.2,9.2-3.4
	c1.2-0.1,2.6-0.3,3.3-0.7c3.9-2,9-1.4,13.5-1.7c0.8,0.6,1.3,1,2,1.6c7.3-2.4,14.7-2.8,22.4-0.8c1,0.3,2.4,0.3,3.6,0.4
	c8.2,0.3,16.5,0.5,24.7,0.7c0.2,0,0.5-0.2,0.9-0.4c-1.5-2.2-8.1-0.8-9.4-2.5c-2.7,0-4.7,0.1-6.7,0c-2.1-0.1-4.1-0.4-6.1-0.7
	c-2-0.2-4-0.4-6.8-0.7c0.7-1.1,0.7-2.4,1.9-2.7c2.8-0.8,4.5,0.6,6.4,1.4c5.2-1.4,10.1-0.6,14.8,0.3c3.7,0.7,6.5,0.2,8.4-1.4
	c-4.9-0.4-9.8-0.8-14.7-1.2C337.4-247,335.9-247.6,335.7-248z M234.7-256.7c-0.6,0.1-1.3-0.2-2.4-0.3c1.6-0.6,2.1-0.8,2.6-1
	c0.4,0.2,1.1,0.5,1.1,0.7C235.9-257.1,235.3-256.8,234.7-256.7z"/>
<path class="st4" d="M218.3-134.2c-2.3-1.7-7-0.8-6.7-4.2c1.7,0.3,3.2,0.5,4.7,0.7c-0.7-1.7-1.3-3-1.8-4.4c-0.6-1.6-1.5-2.7-4.2-2.8
	c-1.3-0.1-2.6-0.5-3.9-0.8c-2.6-0.6-5.3-1.6-7.9-1.6c-9.1-0.2-18.2-0.2-27.4-0.2c-2.4,0-4.9-0.1-7.3,0.2c-2.1,0.2-4,0.9-3.4,3
	c0.2,0.6-0.6,1.9-1.5,2.1c-3.5,1.1-4.6,3.3-5.7,5.5c-0.3,0.7-0.6,1.6-1.4,1.9c-1,0.5-2.6,0.9-3.7,0.7c-1.4-0.2-2.1-1.2-1.3-2.4
	c0.6-0.8,1.4-1.9-1.1-2.4c-0.4,1-0.8,2-1.4,3.3c-2.3-0.7-4.4-1.3-7.4-2.3c3.2-1.2,5.4-2,7.7-2.8c-1.8-1.8-3.4-3.6-5.2-5.2
	c-0.4-0.3-1.2-0.6-1.8-0.7c-3.4-0.2-6.3-2.1-10-1.5c-1.2,0.2-2.7-0.3-4.1-0.6c-3.1-0.7-6.2-1.6-9.3-2.3c-4.1-1-8.2-2.1-12.5-2.8
	c-5.1-0.9-9.9-2.8-15.8-1.8c-3.1,0.5-7.3-0.8-8.5-3.4c-1.1-2.3-3.3-3.1-6.1-3.4c-4-0.5-8-1.1-12-1.4c-1.9-0.1-4.6,0.1-5.8,0.9
	c-1.7,1.2-6.1,1.2-4.7,4.1c0.1,0.2-0.4,0.6-0.7,0.8c-2.8,1.9-5.6,3.7-8.6,5.7c1.7,1.1,2.9,1.8,3.8,2.4c-0.8,2.4-1.5,4.5-2.2,6.6
	c-0.5,1.7-1.6,2.6-4.3,2.5c-2.6-0.1-5.1,0.1-5.4-2.5c1.3-0.5,2.6-0.9,4.5-1.6c-5.2-1.6-9.9-3-14.5-4.5c0.1-0.2,0.2-0.4,0.3-0.7
	c1.6,0.1,3.1,0.3,5.8,0.5c-3.1-1.5-5.3-2.6-7.8-3.8c-2.3,2.5-4.6,4.8-2.9,7.7c-3.5,2-6.7,3.9-9.5,5.5c-0.1,3.9,5,7,0.6,10.4
	c2.9,2.4,8.7-0.1,10.5,3.5c-3.8,0.2-4,0.3-5.6,1.6c-1.5-0.5-3-0.9-4.9-1.5c0.3,1.3,0.8,2.2,0.5,3c-0.3,0.9-1.4,1.6-2.2,2.4
	c0.8,1,1.5,1.9,2,2.6c-1.3,2.1-2.5,4-3.7,5.9c-1-0.1-2.4-0.2-3.7-0.3c-0.1,0.2-0.2,0.4-0.2,0.6c1.5,0.9,3.1,1.7,4.4,2.5
	c-1.5,1.2-3.9,2.1-3.9,3.1c0,2.3-0.4,5.3,2.5,6.7c2.5,1.2,6.4,1.8,9.4,1.5c3.4-0.4,6.7-0.1,9.2,0.9c3.2,1.3,6.3,1.2,9.5,1.5
	c2.8,0.2,5.5,0.6,8.3,1c3.5,0.5,6.9,1.5,10.3,1.5c5.5,0.1,10.3,1.3,15,3c5.6,2,11.4,4,18,1.9c0.3-0.1,0.7,0,1.1,0.1
	c0.1,0.4,0.3,0.9,0.4,1.2c5.3,0.3,10.6,0.6,16,1c0.8-1.8-0.6-2.4-2.6-2.4c-6.2,0-12.2-1-18.2-2.1c-8.1-1.5-16.4-2.7-24.6-4.1
	c-1-0.2-1.9-0.5-2.8-0.8c3.6-0.2,7-0.2,10.4,0.3c5.8,0.7,11.6,1.6,17.4,2.6c8.1,1.4,16.3,1.8,24.6,1.7c4-0.1,8,0.6,12,1.1
	c1.7,0.2,2.2,1.1,0.5,2.3c-3.6-1.1-7-1.3-9,1.3c1.9,2.2,3.5,4.2,5.3,6.3c2.1-1,3.6-2.6,6.3-1.1c0.6,0.3,2,0,3-0.1
	c4.2-0.7,8.3-0.7,12.6-0.3c3.1,0.3,6.3,0,9.4,0.1c1,0,2.5-0.1,3.1,0.3c3.5,2.5,8.3,1.5,11.1,2.3c2.3-0.8,3.7-1.3,5.2-1.8
	c-3.6-0.5-7-1.7-10.6,0.1c-0.9-0.9-1.9-1.8-3.3-3.1c-2.3,2.7-5.8-0.8-8.4,1.2c-1.8-1.9-5.2-1.6-8.2-2.9c7.7-2,14.6-0.7,21.5,0
	c7.7,0.8,15.2,2.2,22.8,3.3c2.1,0.3,4.2,0.3,6.3,0.4c1.9,0.1,2.3-0.8,2.2-1.9c0,0-0.1,0-0.1,0.1c-0.1-0.1-0.1-0.1-0.2-0.1
	c-1.2-0.1-2.5-0.3-4-0.5c2.5-0.8,2.6-0.8,4,0.5c0.1,0,0.2,0,0.3,0l0,0c2.4-1,4.6-1.9,7.6-1.8c1.8,0.1,3.5-0.7,3.2-2.3
	c-0.4-2.1,1.4-2.6,3.7-2.8c2.7-0.2,4.7-0.9,5.5-2.8c-1.1-2.5-7-2.6-6.3-6.3c4.5,0.6,8.7,1.3,14,2c-1-1.9-1.3-3.1-2.3-4
	c-1.5-1.3-3.3-2.5-5.3-3.5c-2.2-1.1-1.5-1.9-0.1-3.2c1.5,0.5,2.8,0.9,4.2,1.3c0.9-2.4,0.8-2.9-1.9-3.3c-3.4-0.5-6.8-0.5-10.4-0.8
	c-0.3-1.6-0.6-3.2-0.8-4.6c3.2-1.8,6.4-3.5,9.7-5.3c-0.6-0.7-2.4-2.3-2.3-2.4c2.4-1.5-1.1-2.7-0.2-4.2c3.5-0.3,6.9-0.6,9.9-0.9
	c2.3-1.9,1-3.4-0.5-4.8C215.8-133.7,216.8-133.9,218.3-134.2z M21.3-98.9c-0.1-0.3-0.1-0.5-0.2-0.8c2.4-0.9,2.4-0.9,6.1,0.3
	C24.6-99.2,22.9-99,21.3-98.9z M21.2-121.3c0.6-0.4,0.8-0.6,1-0.6c1.5,0.2,2.9,0.4,2.4,2.1C23.4-120.3,22.3-120.8,21.2-121.3z
	 M27.2-123.8c1.7,0.7,3.4,1.1,4.3,2c0.8,0.8,0.8,2.1,1.1,3.1C27-119,26.5-119.5,27.2-123.8z M28.6-100.2c3.2-1.2,4.8,0.1,7.7,1.3
	C32.8-98.5,30.6-98,28.6-100.2z M31.8-128.9c0.7,0.8,1.3,1.5,2.3,2.6c-5.1,0.2-8.7-0.9-12.6-2.2c2.5-2.3,5-1,7.6-0.6
	c1.9-1.3,4.1-2.7,7.5-0.9C35-129.7,33.5-129.3,31.8-128.9z M47.1-96.4c-1.2-0.2-2.5-0.3-3.7-0.5c0.1-0.2,0.2-0.5,0.3-0.7
	c1.2,0.2,2.4,0.5,3.6,0.7C47.2-96.7,47.1-96.6,47.1-96.4z M144.4-129.5c-0.2-0.5-0.5-0.8-0.5-1.2c0-0.1,1-0.4,1.2-0.3
	c0.4,0.2,0.6,0.6,0.9,1C145.6-129.9,145.1-129.8,144.4-129.5z M33.7-148.4c-1.3-0.3-2.7-0.7-4-1c0.1-0.2,0.2-0.4,0.3-0.5
	c1.3,0.3,2.7,0.7,4,1C33.9-148.8,33.8-148.6,33.7-148.4z M58.6-89.9c0.9,0.2,1.9,0.3,2.8,0.5c-0.1,0.3-0.2,0.6-0.3,0.8
	c-0.9-0.2-1.9-0.5-2.8-0.7C58.4-89.5,58.5-89.7,58.6-89.9z"/>
<path class="st5" d="M472.2-186.3c0.8-0.9,1.4-1.7,1.9-2.5c0.5-0.7,2.1-1.4,0.9-2.2c-1,0.9-1.7,1.8-2.6,2.3s-2,0.4-3.3,0.5
	c-0.3,2.1-1.3,3.1-3.2,4.3c-1.9,1.1-4.3,2.3-4.9,4.8c-0.2,0.5-0.8,1-1.2,1.5c-0.1-0.3-0.3-0.4-0.4-0.7c0.3-0.8,0.4-1.5,0.8-2.8
	c-3.6,2-5.9,5.1-9.9,6.2c0.8-0.9,1.2-1.4,1.8-2c1.1-0.8,2.2-1.6,3.2-2.6c3.3-4,6.9-7.9,11.6-10.7c0.4-0.2,0.7-0.4,0.9-0.6
	c1.2-2.4,3.7-3.6,5.6-5c3.4-2.3,6.5-5.4,9.9-6.5c1.3-1.4,2.1-3,3.2-3.5c2.8-1.4,5.6-2.5,8.6-3.7c0,2-2.3,4.1-1,5.7
	c1.3-0.8,2.7-1.5,4.1-2.4c0.4-0.3,1.1-0.8,1.1-1c0-1.7,1.1-1.9,2.6-2.3c1-0.2,1.9-1.1,2.8-1.6c-0.5-0.5-0.9-0.8-1-1.1
	c-1.2,0.5-2.3,0.8-3.3,1.2c0-0.2-0.2-0.3-0.1-0.5c-0.9,1.3-1.8,2.5-2.7,3.8c-0.3-0.9-0.7-1.4-1-2.3c-0.1-0.6-0.3-1.3,0.1-1.6
	c1.2-1.3,2.7-3.2,4-3.5c1.8-0.6,3.3-1.6,4.9-2.5c0.2-0.1,0.5-0.2,0.9-0.5c-0.8-0.1-1.2-0.3-1.6-0.4c0.2-1.6,0.5-3,0.7-4.5
	c0.8,0,1.7-0.1,2.6-0.2c0.4-0.6,0.8-1.1,1.1-1.9c1.3-0.1,2.2-0.1,2.4,1.2c0.1,0.6,0.6,0.8,1.1,1.1l2.1-5.2c1.6,0.1,2.7,2.1,4.7-0.3
	c0.1-0.5-0.2-1-0.1-1.6c1.4-0.2,2.7-0.8,2.2,1.1c-0.4,1.4,0.5,1.7,1.8,1.1c0.5-1.2,0.8-2.4,1.4-3.5c0.6-1,1.4-1.9,2.2-2.8
	c0.8-0.9,0.7-2.4,2.7-2.6c-1,1.7-1.8,3.3,0.4,4.1c0.3-1.9,0.9-3.7,0.9-5.1c-0.1-0.7-1.5-0.7-2.6-1.1c0.1-0.6,0.5-1.5,0.6-2
	c0.4-0.1,0.8-0.2,0.8-0.1c1.6,1.2,3.9-0.3,5.9-0.5c0.2,0,0.6-0.4,0.8-0.6c0-1.4,1.1-1.5,1.9-1.5c1.1-0.2,2-0.1,3-0.3
	c0.4-1.1,0.6-2.2,1.1-3.3c0-0.1,0.5-0.2,0.9-0.3c0,0.7-0.2,1.5-0.3,2c2.1,0.2,2.8,0.1,3.1-1.1c0.4-1.4,0.4-2.8,0.7-4.5
	c-1.3,1.1-2,1.8-2.7,2.5c-0.1,0-0.3-0.1-0.3-0.1c0.5-1.1,1.1-2.2,1.8-3.7c2.5,0.3,5.7-2.3,7.6-0.1c0.2,0.2,1.3-0.2,2.4-0.5
	c-0.6-1.8-1.1-3.3-1.7-5.3c-0.9,1.2-1.5,2.1-2.3,2.9c-1.9,0.6-4,1.3-6.7,2c0.9-1.1,1.4-1.7,2.1-2.5c-1.2-0.2-2.3-0.4-3.4-0.5
	c0.5-0.4,0.9-0.8,1.3-1.2c-1-0.4-2.2,0.1-2.8,1.1c-1,1.4-1.9,1.2-3,1.2c-0.3,0.5-0.5,1.1-0.8,1.5c-1.1,1.2-2.7,1.3-3.2,0.4
	c-0.7-1.7-1.3-1.8-3.1-0.6c-1,0.6-1.8,1.3-2.9,2c-2-0.6-4.3-0.4-6.1,1c-2.7,2-5,2.5-7.5,2.7c-1.4,0.1-3.1,0.3-4.5,1
	c-2.1,1.2-3.5,1.4-4.5-0.2c-1.3,2.3-3.6,4-5.8,4c-1.5,0-2.5,0.4-3.8,1.3c-3.2,1.9-6.5,3.7-9.7,5.2c-1.6,0.8-1.8,0.6-1.5-1.2
	c-0.8-0.4-0.2-1.2,0.1-1.8c-1.7-0.2-3.5,0-5.5,1.4c0.6-1,1.3-1.9,2.1-2.9c-0.7-0.5-1.4-0.9-2.1-1.5c0.5-0.4,0.8-0.7,1.3-1.1
	c0.3-0.3,0.5-0.5,0.8-0.9c-1.7-0.7-2.4,1-3.5,1.6c-3.1,1.6-6.2,3.6-9.1,6.2c-1.2,1.2-2.8,1.7-4.3,2.7c-0.5,0.3-1,0.6-1.4,0.9
	c-1.1,0.8-2.3,1.8-3.5,2.7c-1.4,1-2.8,2-3.6,2.7c-1.6,0.3-2.7,0.3-3.7,0.8c-1.6,1-1.2,2.3-0.9,3.4c-0.7,0.7-1.3,1.3-1.9,1.7
	c-0.4,0.2-0.7,0.3-0.9,0.5c-0.1-0.6-0.3-1-0.2-1.5c-1.5,0.2-1.5,0.8-1.8,2c-0.5,2-1.7,3-4,3.4c-0.2,0.3-0.3,0.7-0.6,1.1
	c-1-0.5-2-0.8-3.2-1.4c0,1.8-2.6,3.8,0.3,4.5c-2.6,2.1-4.9,4-7.1,5.8c-1.1,0.8-2.2,1.7-3.2,2.6c-2.4,2.4-4.8,4.8-7.2,7.2
	c-0.9,0.9-2.4,1.5-2.8,2.4c-0.9,2.5-3,4.4-4.4,6.6c0,0.1-0.4,0.2-0.7,0.3c-0.3-0.3-0.7-0.7-1-0.9c-2.9,1.3-1.6,3.7-3.4,5.4
	c-0.8-0.1-1.5-0.2-2.5-0.3l-3.1,7.7c0,0,0,0,0.1,0c0,0,0,0,0,0.1c0.8,0.5,0.6,1.1-0.2,2.2c-0.5-0.8-0.8-1.3,0.2-2.2l0,0l0,0
	c-0.4,0-0.7,0.1-1,0.1c-0.8,1.1-1.5,2.9-2.3,3.2c-1.7,0.6-2.3,2.3-3.5,3c-0.4,0.3-0.9,1.1-0.9,1.5c0,0.3,0.7,0.5,1,0.6
	c-0.6,1.6-1.1,2.8-1.7,4.3c-0.5,1.3-0.8,2.6-1.4,3.8c-0.5,1.3-1.4,1.8-2.3,1.2c-0.4-0.2-0.7-0.6-1-0.8c-1.4,2-1.4,2-1.1,4
	c0.6,2.8-1.6,5.3-4.7,6c-0.7,0.2-1.5,1-2.3,1.6c1.7,1.1,2,3.1,0.9,4.6c-2.8,3.8-4,7.8-5.4,11.9c-0.2,0.7-0.3,1.4-0.7,2
	c-2,3-3.9,6-3.3,9.2c-0.8,0-1.3,0-1.7,0.1c-0.4,0.1-0.9,0.3-1.3,0.5c-0.1,1.9,1.6,0.2,2.4,0.5c-1.3,1.8-3.6,3.3-3.2,5.3
	c0.5,0.3,1,0.4,1.8,0.7c-2.2,1.1-2.5,3-2.4,3.8c0.6,2,0.7,3.8-1.3,6.1c-0.9,1-1.2,2.2-1.8,3.4c-0.5,1.1-1.1,2.2-1.7,3.5
	c-1.1-0.2-2-0.5-3.3-0.6c-0.5,1.1-1.5,2.3-1.5,3.1c-0.2,3.1-0.1,6.1,0,9.1c0,3-0.1,6.1,0,9.2c0.2,3.3,0.4,6.6,0.8,9.8
	c0.7,4.7,1.5,9.3,4,13.1c1.5,2.4,3.9,4.2,3.9,7.5c-0.1,0.9,1,1.3,1.3,2.2c1,2.1,4,3.2,2.3,6.8c0,0.1,0.1,0.4,0.2,0.4
	c1.7,1.3,1.8,3.5,2.3,5.5c0.6,3,3.3,3.6,5.5,4.8c0.4,0.2,1.6-0.3,2.3-0.7c0.7-0.3,1.2-0.9,1.9-1.3c1,0.7,2,1.3,3,2
	c0.8-1.6,1.6-2.9,2.3-4.3c0.4-0.5,1-1.2,1.4-1.2c0.4-0.1,0.9,0.4,1,0.9c0.1,2.6,1.5,4.4,3.8,5.7c1.8-2.2,4.1-3,6.6-3.6
	c0.5-1.6,0.9-3,1.4-4.4c0.2,0,0.4-0.1,0.6-0.1c-0.1,2.2-0.3,4.5-0.6,7.2c1.1-1.1,1.9-1.8,2.8-2.8c1.2,2.1,1.9,4.6,5.5,3.6
	c1.1-3.3,2.2-6.7,3.4-10.1c0-0.1,0-0.2,0-0.3c0.3-1.3,0.5-2.8,0.9-4c1.3-4,2.6-8.1,4.2-12c1.1-2.5,2.6-5,4.5-7.3
	c1.6-2,3.1-4,4.3-6.3c0.3-0.5,0.5-0.9,0.7-1.4c-0.1-0.1-0.2-0.1-0.1-0.3c1-9.2,3.4-18.7,6.3-28.2c-0.1,0-0.1,0-0.2,0
	c0.1-0.5-0.2-1-0.1-1.5c0.6-3.8,1-7.6,1.5-11.5c0.1-1.4,0.3-2.6,0.2-4c0-1.7-0.8-3.2,1.1-5.2c0.2-0.3,0.3-0.8,0.3-1.1
	c0.4-3,0.7-6.1,1.1-9.1c1.9-1.1,3.7-2,5.3-3c0.4-1.6,1.4-3.1,2.5-4.6c1-1.3,1.8-2.5,2.6-3.8c-0.4,0.4-0.9,0.7-1.5,1.1
	c-0.9-1.8-0.7-2.2,1.5-3c0.1-0.9,0.1-1.7,0.2-3.1c0.8,0.4,1.3,0.7,1.7,1c1-2.1,1.9-4.1,3.1-5.8c-1.2-1.1-0.3-3.3-1.3-4.6
	c-0.4-0.6-0.4-1.3-0.6-2.1c-1.6,2.3-2.6,0-4.4,1.6c0.6-1.2,0.8-1.6,1.2-2.4c-0.9-0.4-3.1,0-1.6-2.4c0.2,0,0.5,0,0.7-0.1
	c0.3-0.1,0.7-0.2,1.4-0.3c-2.9-1.3-4.1-0.5-6.4,4.1c-1-2.1,1-3.7,2.4-5.5c-3,0.9-4.2,3.4-6.2,5.1c0.3-1.5,1.2-2.7,2.5-3.8
	c1.1-1,2.6-2.3,3.1-3.5c0.7-1.8,1.8-2.6,3.5-3.1c1-0.2,2.2-0.3,2.5-1.8c-1.4-0.1-2.2-0.7-1.5-2.4c3.2-2.2,5-6.6,9.2-7.5
	c0.7-1.2,0.9-2.6,1.8-3.3C465.9-182.5,468.7-185.4,472.2-186.3z M541.8-248.8c0,0.2,0.2,0.4,0.1,0.7c-0.1,0.3-0.4,0.5-0.9,1.1
	c0.2-0.8,0.1-1.2,0.2-1.3C541.4-248.6,541.6-248.7,541.8-248.8z M538.3-248.6c1.1,0.9,0.9,1.6-0.8,2.6
	C537.8-247.1,537.9-247.7,538.3-248.6z M524-230.9c-0.4,0.3-0.8,0.6-0.9,0.6c-0.3-0.1-0.5-0.4-0.7-0.6c0.3-0.3,0.5-0.4,0.8-0.8
	C523.6-231.4,523.8-231.2,524-230.9z M475.9-235.6c0.4-0.2,0.8-0.6,1.1-0.6c0.2,0,0.4,0.3,0.7,0.8c-0.7,0.3-1,0.5-1.2,0.5
	C476.2-235.2,476.2-235.4,475.9-235.6z M483.7-235.9c-0.2,1.9-1.5,2-2.2,2.4c-0.2-0.1-0.2-0.3-0.3-0.4
	C481.7-234.3,482.5-234.9,483.7-235.9z M477.9-233.9c0.3-0.4,0.8-0.8,1.1-1.1c0.2,0.1,0.3,0.3,0.3,0.5c-0.4,0.4-0.9,0.8-1.4,1.1
	C478.1-233.6,477.9-233.7,477.9-233.9z M517.7-232.7L517.7-232.7c0.1-0.1,0.1-0.1,0.1-0.1c0.1-0.9,0.1-1.7,0.1-2.6
	c3.8-2.3,5.9-2.1,7.6,0.6c-2.2,1.3-3.3,0.3-4.4-0.8c-1.1,0.9-2.2,1.9-3.2,2.9l0,0.1C517.8-232.6,517.7-232.7,517.7-232.7
	c-0.5,0.4-1.2,1-2.4,1.9C516-232.5,516.9-232.5,517.7-232.7z M505.1-227.6c0.7-0.3,0.9-0.5,1.3-0.6c0,0.2,0.1,0.5,0.2,0.6
	c-0.2,0.2-0.4,0.4-0.8,0.5C505.5-227.1,505.4-227.4,505.1-227.6z M448-215c0.2-0.8,0-1.5,0.4-2.2c0.7-1.3,3.5-3,5.2-3.7
	c-1.7,2-3.3,4-5.1,5.9H448z M492.1-212.3c1.9-2.8,4.5-2.9,7.2-3.7c-1.2,3.4-4.9,1.5-5.5,4.9C492.8-211.6,492.5-212,492.1-212.3z
	 M478.6-201.4c0.8-0.8,0.6-2.2,2.4-2.4c1.1-0.1,2-2.6,3.8-1.4c-2.2,1.6-4.2,2.9-6,4.2C478.7-201.2,478.7-201.3,478.6-201.4z
	 M474-197.7c0.2-0.3,0.5-0.8,0.7-1c0.3-0.3,0.7-0.4,1.1-0.5c0,0.2,0.1,0.3,0.1,0.6c-0.5,0.4-1.2,0.9-1.8,1.3
	C474.2-197.5,474.2-197.6,474-197.7z M418.9-50.6c-0.5,1-0.9,1.9-1.6,2.9c-0.2,0-0.3,0-0.5-0.1l1.2-3
	C418.3-50.8,418.5-50.7,418.9-50.6z M455.3-173.8c-0.5,0.3-0.9,0.4-1.4,0.7c0-0.2-0.2-0.4-0.1-0.6c0.4-0.3,1-0.5,1.4-0.9
	C455.1-174.3,455.2-174,455.3-173.8z M611.8-250c-1.1,1.3-1.5,3.2-3.4,4.2c-0.1,0.1,0.1,1.3,0,2.1c0.6-0.3,1-0.6,1-0.9
	c0-1,0.7-1.3,1.5-1.2c0.9,0.1,0.9,0.7,0.3,1.5c-0.4,0.7-1.1,1.3-1.8,2.1c-2.5-1.1-4.7-2.3-6.4-3.9c0.1-0.3,0.4-0.5,0.4-0.8
	c1.1-0.1,2.3-0.4,3.6-0.5c-1.5-1-2.9-1.9-4.6-2.8c-0.3,0.8-0.2,1.2-0.5,1.7c-0.1,0.4-0.5,0.9-0.5,0.9c-1.5-0.1-2.7-0.1-3.8-0.2
	c-1.1-0.2-2.2-0.4-3.4-0.8c0,1.2,0.1,2.1,0.1,2.9c0.7-0.3,1.2-0.5,1.9-0.7c-0.7,2.9,2.9,1.6,3,3.8c0.8-1,1.2-1.4,1.6-2
	c0.9,0.3,1.7,0.6,2.6,0.9c2.2,0.9,2.2,1.8-0.5,4.5c-1.6-0.7-3.2-1.5-5-1.9c-1.8-0.5-4-0.6-6-1.1c-0.3-2.4-0.7-2.5-2.9-1.5
	c-0.8,0.4-1.8,0.7-2.6,0.7c-1.3,0.1-2.5-0.3-3.9-0.1c-3.3,0.2-6.3,0-9-1.3c-0.6,1-1.5,2.1-2.4,3.3c2.9,0.1,4.5,2.4,7.8,1.7
	c1.9-2.5,2.2-2.6,4-2.6c2.2-0.1,4.3,0,4,3c3.7-2.2,6-1,8.5,0c1.5,0.6,2.9,1.5,4.5,1.5c2.7-0.2,3.6,1.6,5.2,2.6
	c0.3,0.1,0.1,0.9,0.1,1.5c-3.3-0.1-5.6-1.2-7.9-2.3c-0.8-0.5-2.1-1.1-2.7-0.9c-1.4,0.7-1.9,0.3-2.5-0.3c-0.6-0.6-1.1-1.1-2.5-0.8
	c0.1,2.2,1.6,2.9,3.1,3c2.8,0.3,4.4,1.6,5.5,3.7c0.1,0.1,0.4,0,0.6,0c1.8-2.8,3.4-3.3,5.1-1.4c0.2,0.1,0.2,0.3,0.3,0.4
	c0.2,0.9,0.6,1.1,1.8,1c1.1-0.2,2,0.3,3,0.6c3.5,1.3,7,2.4,10.3,3.8c5.6,2.2,9.1,6.4,12.9,10.3c0.2,0.2,0.1,0.9,0.1,1.3
	c-1.3-0.7-2-1.8-3-2.7s-2.3-1.1-4.2-0.8c0.9,0.5,1.4,1.1,2.1,1.5c1.2,1.1,2.6,2,3.9,3c2.5,2.3,5.7,4.2,8,6.8
	c4.1,4.5,7.5,9.5,11.1,14.5c4.5,6.3,9,12.6,12.2,20c0.5,1,1.4,1.4,3,1.4c0-0.8-0.1-1.4-0.3-1.8c-1.5-8.5-5.7-15.4-8.9-23
	c-0.8-2-2.1-3.9-3.1-5.7c-1.1-2-2.2-3.9-3.2-6c-1-1.8-1.8-3.6-2.7-5.4c-1.2-2.1-2.2-4.3-3.4-6.5c-1-1.7-1.9-3.7-3.4-4.9
	c-1.9-1.3-2.5-3.6-4.1-5.2c-0.5-0.5-0.4-1.7-0.3-2.6c0.3-2.4-0.9-4-2.5-5.5c-0.3,2-0.3,3.4-0.7,5.4c-0.9-0.1-1.8,0.1-2.3-0.1
	c-1.9-1.5-3.1-3.4-1.4-6.8c-2.9-0.3-4-2-3.6-4.8c-0.2,0-0.4,0.1-0.6,0.1c-0.7,1.4-1.5,2.7-2.6,4.4c-1.3-0.8-2.3-1.6-3.3-2.3
	c-0.8-0.5-1.3-1-0.7-2.2c0.7-1.5,0-2.2-1.1-3.2c-0.1,1.5,0.6,2.6-1.3,3.8c0.4-1.5-0.2-2.1-1.4-2.5c-0.9-0.3-1.4-1.4-1.7-2.3
	c-0.2-0.4,0.8-1.5,1.2-2.2C613-251.5,612.4-250.7,611.8-250z M609.2-232.8c-0.4,0.2-0.4,0.4-0.6,0.4c-0.1,0-0.3-0.2-0.3-0.3
	c0.1-0.2,0.2-0.3,0.6-0.8C609.1-233.2,609.2-233,609.2-232.8z M611.7-240.7c1.1,1.7,4.2,1.8,4.2,4.5c-2.6-1-5.6-1.2-6.1-4.6
	C610.6-240.7,611.5-240.9,611.7-240.7z M608-240.5c-0.2,0.1-0.7,0.3-0.8,0.4c-0.1-0.6-0.2-0.9-0.2-1.5c0,0,0.5-0.3,0.7-0.4
	C607.9-241.4,607.9-241,608-240.5z M614-243.6c0,0.3-0.1,0.7-0.4,1.2c-1.2-0.3-1.3-0.9-0.1-2.3C613.9-244.1,614-244,614-243.6z
	 M519.2-222.1c1.6,1.6,3.6,1.5,8.4-1c-0.8,1.1-1.3,2.3,0.2,2.4c-0.4,0.5-0.6,1-1.2,1.9c-1.2-2.1-3.3-1.1-5.5-0.7
	c-2.2,0.3-4.2,0.6-6.6,1.1c-0.4,0.9-0.7,1.8-1.3,3.2c1-0.9,1.6-1.6,2.8-2.6c0.1,1,0,1.7,0,2.8c1.4-0.6,2.6-1.2,4-1.8
	c-0.4,0.7-0.9,1.6-1.2,1.6c-2.7,0.5-5.2,0.8-7.4,1.2c0-2.4-0.2-4.3-0.2-6.4c-0.3-0.7-2.6,0.8-2-1c1.3-0.3,2.4-0.7,3.7-1.1h-0.1
	c0.3,0.9,0.7,1.7,1.3,2.8c0.6-0.1,1.9-0.3,2.9-0.4c0.8-1.6,1.5-3,2.4-4.9c0.9,0.3,1.6,0.7,2.8,1.1
	C520.8-222.9,520-222.5,519.2-222.1z M600.7-262.1c0.8-0.2,1.7-0.3,2.9-0.4c-0.5,2.7-0.9,5.2,0.8,6.7c0.2,0.1,0.2,0.2,0.4,0.3
	c0.5,1.1,2.6,0.4,2.8,2.1c0.1,1.1,1.2,1.9,1.9,3c-1.8,1-3.2,0.1-3.4-0.8c-0.6-2.1-2.6-2.4-4.2-3.2c-1.1-0.6-1.9-1-2.1-2.4
	c-0.2-1.4-1.5-2.3-2.4-3.3c0.2-0.2,0.3-0.4,0.6-0.6c0.8,0.6,1.6,1,2.5,1.6C602.8-260.4,599.7-260.8,600.7-262.1z M426.5-207.8
	c1-0.6,1.9-1.5,2.6-1.7c0.6-0.1,1.1,0.9,1.9,0.1c0.7-0.6,1-1.6,1.6-2.5c-2.2,0.3-3.1-0.4-2.3-2c0.5-1,0.4-1.6,0-2.3
	c-0.2-0.2,0.1-0.9,0.1-1.3c-0.4-0.5-1-0.9-1.6-1.4c-0.4,0.6-1,1.4-0.9,1.5c1,1,0,1.8-0.9,2.8c-0.9,1.1-2,2-3.2,3.3
	c1.7-0.1,3.1-0.1,4.5-0.1C427.6-210.1,426.1-209.3,426.5-207.8z M427.7-213.2c0.1-0.2,0.4-0.6,0.5-0.7c0.1-0.1,0.3,0.1,0.7,0.3
	c-0.3,0.3-0.6,0.6-0.7,0.7C428.1-212.8,427.7-213.1,427.7-213.2z M563-256.8c-2.8,2.4-4.9,2.2-5.5-0.4c-0.2-0.8-1.1-1.4-1.7-2.1
	c0.2-0.2,0.3-0.4,0.4-0.5C558.6-259,563-261.1,563-256.8z M485.3-198.1c0.5-1,0.9-1.9,1.6-2.9c1.1-0.3,2-0.4,3.2-0.6
	c-2.2,3.5-5.5,5.1-8.5,7.3c-0.8-1.4-0.2-2.6,0.7-3.8C483.6-199.7,484-197.7,485.3-198.1z M587.9-259.7c0.6-1.8,1-3.5-0.3-4.5
	c2.8-2.1,2.8-2.1,4.3-0.5c-0.9,0.4-1.7,0.7-2.7,1.1c0.5,0.8,1.1,1.3,1.6,2.1C589.8-260.9,588.9-260.3,587.9-259.7z M557-250.3
	c0.1,0.5,0.2,1.6-0.2,2.2c-0.4,0.5-1.5,1.1-2.2,1.1c-0.8,0-1.5-0.5-2.9-0.9c1.5-1.1,2.4-1.9,3.5-2.5
	C555.7-250.6,556.8-250.5,557-250.3z M430.5-217.3c0.7-0.5,1.3-1.3,1.8-1.8c1.3-0.1,2.2,0.9,3.8-0.6c0.3-0.4,1.9,0,3.4,0.1
	C436.1-217.9,433.2-215.7,430.5-217.3z M595.8-260.3c-0.9,0.9-1.6,1.6-2.7,2.8c0.5-2.5-1.6-3.7,0.3-6.8
	C594.3-262.8,595-261.7,595.8-260.3z M531.5-221c-1.2,0.1-2.5,0.2-3.6,0.4c2.3-1.6,4.5-2,6.6-1.6c0.2,1.9,0.3,3.5,0.5,5.1
	c-0.6-0.5-1.8-0.4-1.2-1.9C534.2-220.5,533.3-221.2,531.5-221z M556.7-238.9c-1.5,1.7-2.9,3.2-4.2,4.7c-0.1,0-0.3,0-0.4,0
	c0.4-1.8,1-3.8,1.6-5.9C555-239.5,555.9-239.2,556.7-238.9z M461.3-164c2.5,1.4,2,3.4,0.7,6.2C460.4-159.5,461.6-161.8,461.3-164z
	 M370.5-125.5c-0.4,2.1-0.8,3.8-1.2,5.5c-2.4-0.3-1.4-2.1-1.3-3.6C368.3-124.8,369.3-125.2,370.5-125.5z M589.2-255.5
	c-1.1,0.8-1.9,1.4-2.4,1.9c-0.2-0.8-0.4-1.4-0.8-1.9c-0.6-0.4-1.4-0.7-0.6-2C586.4-256.9,587.6-256.2,589.2-255.5z M455.5-170.3
	c1.5-0.5,2.5-0.8,3.6-1.1c1.4,0.9,0.2,3,0.4,5.1c-0.6-0.5-1.1-0.8-1.4-1.2C457.6-169.6,457.7-169.6,455.5-170.3z M381.3-148.2
	c1.1-1.8,1.8-3.2,2.5-4.4c1.3-0.6,2.5-1.4,3.7-2c0.2,0.1,0.2,0.2,0.4,0.3C385.7-152.4,383.7-150.6,381.3-148.2z M562.3-238
	c0.5,0.2,1,0.2,1.9,0.5c-1.1,0.5-1.7,0.9-2.5,1.2c-0.5-0.5-0.9-1.2-1.5-1.2c-0.5-0.1-1.3,1-1.4-0.4c1.7-0.5,3.3-1,5-1.5
	c0.1,0.1,0,0.3,0.1,0.4C563.5-238.7,562.9-238.5,562.3-238z M485.4-237.9c0.3-0.7,1.8-1.7,0.1-1.8c0.5-0.4,1.1-0.9,1.7-1.6
	c0.8,0.6,1.3,1.1,2,1.6C487.5-237.7,487.2-237.5,485.4-237.9z M545.8-237.4c0.1-0.6,0.1-1.3,0.1-1.8c0.2-0.1,0.7-0.3,0.8-0.4
	c-0.1,1.3,1.9,1.4,0.6,3.2c-0.5,0.6-1.5,0.8-2.7,1.4C545.2-236.1,545.7-236.7,545.8-237.4z M443.9-220.9c0.6-1,2-1.9,3.2-3
	c0.2,0.1,0.2,0.2,0.4,0.3c-1.2,1.4-2.4,2.9-3.5,4.3c-0.4,0.5-0.6,1.1-0.8,1.6C442-218.6,443.2-220,443.9-220.9z M419-202.6
	c-0.7-0.2-1.5-0.5-2.7-1c0.9-0.7,1.7-1.4,2.4-1.9C419.3-204.6,420.5-204.1,419-202.6z M440.8-221.4c-0.2-0.7-0.1-1.4-0.1-2
	c0.8-0.3,1.3-0.4,2.1-0.7c0.5-0.1,1.1-0.4,2.2-0.7C443.7-222.8,442.3-222.3,440.8-221.4z M418.9-198c1.7-1.7,2.8-2.9,4.1-4.3
	C422.8-199.5,422.5-199.2,418.9-198z M467-165.8c0.3,0.3,0.5,0.6,0.8,1c-1.6,1.2-2.9,1-2.7-0.2c-0.1-0.7,0.8-1.3,1.6-1.3
	C466.6-166,466.8-165.8,467-165.8z M519.4-213.9c3.7-1.6,3.8-1.6,3.2,0.7C521.6-213.5,520.8-213.6,519.4-213.9z M542.4-232.1
	c1.2,0.2,2.3,0.4,3.4,0.6C542.6-230.1,542.6-230.1,542.4-232.1z M534.9-226.8c-1,1.4-1.5,2.4-2.4,3.7c-0.1-1.2-0.2-2.1-0.2-3.1
	C533.1-226.5,533.8-226.6,534.9-226.8z M585-259.6c-0.3-0.7-0.4-1.3-0.7-2.5c1.9,0,2.7,0.3,2.2,1.6
	C586.4-260.3,585.7-260.1,585-259.6z M368.1-109c-0.3,1.1-0.4,2.1-0.7,3.3c-0.6,0-1.1-0.1-1.9-0.2
	C366.5-107.1,366.3-108.4,368.1-109z M528.9-228c-0.9,0.3-1.9,0.7-3.1,1.1C526.8-228.6,526.8-228.6,528.9-228z M482.7-242.9
	c1.3-0.6,2.4-1.3,3.8-2C485.9-243.5,485-242.9,482.7-242.9z M397.6-175.5c-0.3,0.1-0.5,0.1-1,0.2c-0.9-0.7-0.6-1.6,0.8-3.4
	C397.5-177.1,397.5-176.3,397.6-175.5z M509.9-212.5c0.9,0.4,1.7,0.9,2.6,1.4C510.3-210.3,509.6-210.6,509.9-212.5z M367.9-114.6
	c-0.1,1.3-0.2,2.4-0.3,4.2C366.5-111.8,366.4-113,367.9-114.6z M528.7-225.7c-1.9,1.4-1.9,1.4-3.2,0.2
	C526.4-225.5,527.3-225.5,528.7-225.7z M563.3-242.9c0.9,0.4,1.4,0.8,2.1,1.1C562.9-240.3,562.9-240.3,563.3-242.9z M533.5-234.9
	c0,0.1,0,0.1-0.1,0.2C533.4-234.8,533.4-234.8,533.5-234.9L533.5-234.9c-0.5-0.8-0.5-0.8,0.5-2.1c0.5,0.3,1,0.5,1.5,0.8
	c-0.1,0.1-0.2,0.3-0.3,0.4C534.6-235.5,534.2-235.3,533.5-234.9z M441.7-228.4c0.1-0.2,0.2-0.3,0.4-0.6c0.7,0.1,1.4,0.1,2.2,0.3
	C442.7-226.9,442.2-227.9,441.7-228.4z M443.2-226.5c-1.2,1.2-1.9,1.9-2.6,2.7c-0.2-0.6-0.3-1.3-0.3-2
	C441.3-226,441.9-226.2,443.2-226.5z M521.2-252.2c-0.8,0.5-1.6,1-2.5,1.6C519.3-252.6,519.3-252.6,521.2-252.2z M543.9-239.7
	c-0.8,0.8-1.6,1.4-2.4,2.2C541.6-239.5,541.6-239.5,543.9-239.7z M614.7-261.2c-0.3,1.1-0.4,1.9-0.6,2.6c-0.2,0.1-0.4,0.1-0.8,0.2
	C613-259.2,612.6-260,614.7-261.2z M371.3-128.7c-0.2,0.1-0.5,0.2-0.8,0.4c-0.7-0.6-0.1-1.7-0.2-2.4c0.2-0.1,0.5-0.2,0.7-0.3
	C371.1-130.4,371.2-129.6,371.3-128.7z M434.2-213.4c0.8-0.8,1.8-1.7,2.5-2.4c0.1,0.3,0.4,0.3,0.5,0.5c-0.9,0.8-1.7,1.6-2.7,2.4
	C434.4-213,434.2-213.2,434.2-213.4z M465.3-175.1c-0.2-0.8-0.5-1.5-1-2.8C465.9-177.4,465.6-176.3,465.3-175.1z M586.7-245.7
	c0.1-0.6,0.4-1.1,0.5-1.7c0,0,0.5-0.1,0.5,0c0.1,0.6,0.2,1,0.1,1.5C587.5-245.7,587.1-245.8,586.7-245.7z M440.7-223.7
	c0,0.1-0.1,0.3-0.1,0.4c-1.2,0.7-2.3,1.5-2.6-0.3C439.1-224.3,439.9-223.9,440.7-223.7z M540.7-219.3c0.3,0.3,0.5,0.8,0.8,1.1
	c-0.4,0.2-0.5,0.4-0.8,0.7c-0.3-0.4-0.5-0.7-0.7-1.1C540-218.6,540.4-218.9,540.7-219.3z M574.5-247.9c-1.3,0.6-1.8,0.9-2.9,1.5
	C572.4-248.3,573.2-248.3,574.5-247.9z M566.7-270.4c0.2,0.1,0.3,0.2,0.5,0.4c-0.4,0.5-0.6,1-1.1,1.6c-0.3-0.1-0.5-0.4-0.6-0.4
	C565.8-269.6,566.1-269.9,566.7-270.4z M579.5-265.8c-0.7,0-1.3,0-1.9,0c0.1-0.2,0.1-0.4,0.2-0.7c0.7,0,1.3,0.1,2,0.1
	C579.6-266.2,579.4-265.9,579.5-265.8z M491.4-243.7c1.2-0.7,1.8-1,2.5-1.4C493.7-243.5,493.1-243.5,491.4-243.7z M537.8-218.6
	c0.1-0.9,0-1.8,0.1-3.1C539.5-220.9,538.1-219.6,537.8-218.6z M455.7-161c0.7,0.5,1.2,0.7,1.7,1C456-159.2,456-159.2,455.7-161z
	 M574.3-254.4c-0.4,0.5-0.5,1.1-0.8,1.6c-0.2,0-0.4,0-0.6,0c0.1-0.3,0.1-0.7,0.4-0.9c0.2-0.2,0.5-0.5,0.7-0.6
	C573.9-254.5,574-254.5,574.3-254.4z M559.8-253.9c0.1,0.1,0.2,0.2,0.3,0.3c-0.7,0.5-1.3,1.1-1.8,1.6c-0.1-0.3-0.2-0.3-0.2-0.5
	C558.6-253,559.2-253.5,559.8-253.9z M605.4-266.2c-0.2,0.6-0.5,1.2-0.7,1.8C603.6-265.3,603.6-265.3,605.4-266.2z M595.5-264.1
	c0.1-0.2,0.4-0.5,0.3-0.7c0.4,0.2,1,0.2,1.5,0.3c-0.1,0.3-0.4,0.5-0.4,0.8C596.4-263.8,595.9-264,595.5-264.1z M382.6-163.6
	c0.2-0.9,0.2-1.6,0.4-2.7C384-165.5,384.1-164.8,382.6-163.6z M549-246.4c-0.1,0.3-0.2,0.5-0.3,0.8c-0.6,0.1-1.2,0.1-1.9,0.2
	c0.1-0.2,0-0.4,0.1-0.6C547.8-246.2,548.4-246.3,549-246.4z M421.5-208.9c-0.5,0.8-1,1.6-1.5,2.4c-0.2,0-0.3-0.1-0.4-0.2
	c0.4-0.8,0.8-1.6,1.2-2.4C421.1-209,421.3-209,421.5-208.9z M412.1-190.6c-0.6,0.9-1.2,1.7-1.8,2.6c-0.2-0.1-0.3-0.1-0.5-0.3
	c0.7-0.9,1.3-1.9,1.9-2.8C412-190.8,412.1-190.7,412.1-190.6z M471.1-167.2c-0.5,0.4-1.3,1.1-2.3,1.9
	C469.4-167.5,470.2-167.5,471.1-167.2z M383.6-152.7c-0.5,0.1-1.3,0.3-1.8,0.5c-0.1-1.2,0.9-1.5,1.6-1.5
	C383.6-153.7,383.4-152.9,383.6-152.7z M459.8-153.1c0.1-0.1,0.7,0.3,0.6,0.5c-0.1,0.4-0.5,0.7-1.1,1.2c-0.3-0.4-0.6-0.8-0.7-0.9
	C458.9-152.6,459.4-152.9,459.8-153.1z M544.9-260.6c0,0.1-0.4,0.4-0.8,0.8c-0.2-0.4-0.4-0.7-0.2-0.9c0.1-0.2,0.4-0.4,0.8-0.6
	C544.7-261.1,544.8-260.9,544.9-260.6z M610.6-256.6c0.2-0.1,0.5-0.3,0.7-0.4c0.1,0.6,0.4,1,0.4,1.4c-0.2,0.1-0.4,0.3-0.6,0.3
	C611-255.7,610.9-256.2,610.6-256.6z M566.1-258.6c-0.2,0.5-0.1,1-0.3,1.5c-0.3,0-0.5,0-0.8,0c0.3-0.5,0.2-1,0.5-1.6
	C565.6-258.5,565.8-258.5,566.1-258.6z M546.9-260.2c-0.4-0.7-1-1.3,0.8-2.4C547.3-261.5,547.2-260.9,546.9-260.2z M390.6-164.7
	c-0.1,0.6-0.4,1.1-0.5,1.6c-0.2,0-0.4,0-0.7,0c0.2-0.6,0.5-1.1,0.7-1.7C390-164.7,390.6-164.7,390.6-164.7z M499.3-250.2
	c-0.7,0.3-1.3,0.6-1.9,0.8c-0.1-0.1-0.1-0.3-0.2-0.4c0.6-0.3,1.3-0.7,1.9-1.1C499.2-250.7,499.3-250.4,499.3-250.2z M573.5-258.8
	c-0.5,0.2-0.8,0.5-0.9,0.4c-0.2-0.1-0.3-0.3-0.2-0.5c0.4-0.2,0.5-0.4,0.7-0.4C573.2-259.3,573.3-259.1,573.5-258.8z M532.5-257.1
	c-0.2,0.3-0.5,0.5-0.8,0.8c-0.1-0.1-0.3-0.2-0.3-0.3c0.1-0.3,0.4-0.6,0.7-1.2C532.4-257.4,532.6-257.1,532.5-257.1z M533.5-234.7
	c-0.1,0.9,0,1.6-0.2,2.3C532.2-232.8,533.1-233.9,533.5-234.7z M450.5-235.3c-0.4,0.5-0.6,1-1,1.5c-0.2-0.1-0.3-0.1-0.4-0.2
	c0.4-0.5,0.6-1,1.1-1.5C450.3-235.4,450.4-235.3,450.5-235.3z M613.1-254c0.2-0.2,0.2-0.3,0.4-0.5c0.4,0.2,0.8,0.5,1.3,0.7
	c-0.2,0.2-0.2,0.3-0.4,0.5C613.9-253.6,613.4-253.8,613.1-254z M550.3-232.3c0.4-0.2,0.5-0.4,0.9-0.6c0.1,0,0.3,0.1,0.7,0.5
	C551-232.4,550.7-232.4,550.3-232.3z M533.5-232.3c0.6,0,1.1,0.2,1.8,0.2C533.7-230.6,533.6-231.5,533.5-232.3z M631.2-246.7
	c0.2,0.1,0.2,0.4,0.3,0.7c-0.4,0.2-0.5,0.4-0.8,0.5c-0.1-0.3-0.1-0.5-0.2-0.9C630.4-246.4,631-246.6,631.2-246.7z M433.2-210.2
	c0.1-0.2,0.5-0.5,0.6-0.4c0.1,0,0.2,0.2,0.5,0.5c-0.5,0.3-0.8,0.5-1.1,0.5C433.2-209.8,433.1-210.1,433.2-210.2z M554.7-245
	c0.2-0.3,0.5-0.4,1.1-0.9c-0.1,0.5,0.1,0.7-0.1,0.9s-0.4,0.4-0.8,0.6C554.8-244.6,554.7-244.9,554.7-245z M550.3-250.5
	c0.1,0.1,0.1,0.3,0.1,0.4c-0.5,0.2-0.9,0.4-1.4,0.6c-0.1-0.1,0-0.2-0.1-0.3C549.4-250,549.8-250.3,550.3-250.5z M582.7-247.7
	c0,0.1-0.2,0.2-0.2,0.3c-0.4-0.2-0.8-0.3-1.2-0.4c0.2-0.2,0.3-0.4,0.6-0.6C582-248.1,582.4-247.9,582.7-247.7z M567.6-256.6
	c0.3-0.5,0.4-0.9,0.6-1.4c0.2,0,0.3,0,0.5,0.1c-0.3,0.5-0.4,0.9-0.6,1.4C567.9-256.5,567.6-256.6,567.6-256.6z M620.1-244.3
	c0-0.1,0.4-0.4,0.5-0.3c0.2,0.2,0.3,0.4,0.5,0.8c-0.5,0.3-0.7,0.4-0.9,0.4C620.3-243.8,620.2-244.1,620.1-244.3z M461-154.3
	c0.2-0.1,0.4-0.3,0.6-0.3c0.2,0.4,0.2,0.8,0.4,1.2c-0.1,0.1-0.4,0.2-0.5,0.3C461.4-153.5,461.1-153.9,461-154.3z M544.4-218
	c0.1,0,0.2,0.3,0.2,0.4c-0.2,0.2-0.4,0.4-0.7,0.7c-0.1-0.4-0.2-0.6,0.1-0.9C543.8-218,544.2-218,544.4-218z M536-230.2
	c0,0.1,0,0.4,0,0.4c-0.4,0.1-0.8,0.3-1.3,0.3c0.1-0.2,0-0.3,0.2-0.5C535.1-230.1,535.5-230.1,536-230.2z M619.4-224
	c0.1-0.1,0.4-0.2,0.7-0.3c0.1,0.3,0.2,0.4,0.3,0.6c-0.1,0.1-0.5,0.3-0.5,0.3C619.7-223.6,619.5-223.8,619.4-224z M373.4-136.4
	c-0.1,0.1-0.3,0.1-0.5,0.1c0-0.4,0.1-0.9,0.1-1.3c0.1-0.1,0.3-0.1,0.5-0.2C373.5-137.2,373.5-136.8,373.4-136.4z M567.9-237
	c-0.2-0.1-0.3-0.3-0.3-0.5c0.1-0.1,0.4-0.3,0.5-0.3c0.1,0,0.2,0.2,0.3,0.3C568.2-237.2,568-237.1,567.9-237z M468.6-171.5
	c0.2-0.1,0.5-0.1,0.8-0.2c0.1,0,0,0.3,0,0.6c-0.3,0-0.5,0-0.8,0C468.4-171,468.4-171.3,468.6-171.5z M540.7-236
	c0.3,0.2,0.6,0.3,0.8,0.6c-0.2,0.1-0.5,0.1-0.8,0.1C540.6-235.4,540.8-235.6,540.7-236z M576.2-232.5c-0.4,0.2-0.6,0.3-0.8,0.4
	c-0.1,0-0.2-0.3-0.1-0.5c0.2-0.1,0.5-0.1,0.8-0.3C576.2-233,576.1-232.8,576.2-232.5z M531.2-230.5c-0.1-0.3-0.2-0.6-0.2-0.9
	c0-0.1,0.5-0.3,0.9-0.4c0.1,0.4,0.2,0.7-0.1,1.2C531.8-230.7,531.3-230.5,531.2-230.5z M387.9-158.2c-0.2,0-0.5,0-0.7,0.1
	c0-0.4,0.3-0.8,0.3-1.2c0.1,0,0.3-0.1,0.4-0.1C387.9-158.9,387.8-158.5,387.9-158.2z M442.3-123c0.5,0.1,1.3-0.1,1.5,0.2
	c0.5,1.4,0.9,2.8,1.4,4.1c-0.4,0.2-0.5,0.4-0.9,0.5c-0.9-1-1.9-2-2.5-3.2C441.4-121.4,442.1-122.3,442.3-123z"/>
<path class="st5" d="M491.9-193c0.8-0.9,1.4-1.7,1.9-2.5c0.5-0.7,2.1-1.4,0.9-2.2c-1,0.9-1.7,1.8-2.6,2.3c-0.9,0.5-2,0.4-3.3,0.5
	c-0.3,2.1-1.3,3.1-3.2,4.3c-1.9,1.1-4.3,2.3-4.9,4.8c-0.2,0.5-0.8,1-1.2,1.5c-0.1-0.3-0.3-0.4-0.4-0.7c0.3-0.8,0.4-1.5,0.8-2.8
	c-3.6,2-5.9,5.1-9.9,6.2c0.8-0.9,1.2-1.4,1.8-2c1.1-0.8,2.2-1.6,3.2-2.6c3.3-4,6.9-7.9,11.6-10.7c0.4-0.2,0.7-0.4,0.9-0.6
	c1.2-2.4,3.7-3.6,5.6-5c3.4-2.3,6.5-5.4,9.9-6.5c1.3-1.4,2.1-3,3.2-3.5c2.8-1.4,5.6-2.5,8.6-3.7c0,2-2.3,4.1-1,5.7
	c1.3-0.8,2.7-1.5,4.1-2.4c0.4-0.3,1.1-0.8,1.1-1c0-1.7,1.1-1.9,2.6-2.3c1-0.2,1.9-1.1,2.8-1.6c-0.5-0.5-0.9-0.8-1-1.1
	c-1.2,0.5-2.3,0.8-3.3,1.2c0-0.2-0.2-0.3-0.1-0.5c-0.9,1.3-1.8,2.5-2.7,3.8c-0.3-0.9-0.7-1.4-1-2.3c-0.1-0.6-0.3-1.3,0.1-1.6
	c1.2-1.3,2.7-3.2,4-3.5c1.8-0.6,3.3-1.6,4.9-2.5c0.2-0.1,0.5-0.2,0.9-0.5c-0.8-0.1-1.2-0.3-1.6-0.4c0.2-1.6,0.5-3,0.7-4.5
	c0.8,0,1.7-0.1,2.6-0.2c0.4-0.6,0.8-1.1,1.1-1.9c1.3-0.1,2.2-0.1,2.4,1.2c0.1,0.6,0.6,0.8,1.1,1.1l2.1-5.2c1.6,0.1,2.7,2.1,4.7-0.3
	c0.1-0.5-0.2-1-0.1-1.6c1.4-0.2,2.7-0.8,2.2,1.1c-0.4,1.4,0.5,1.7,1.8,1.1c0.5-1.2,0.8-2.4,1.4-3.5c0.6-1,1.4-1.9,2.2-2.8
	c0.8-0.9,0.7-2.4,2.7-2.6c-1,1.7-1.8,3.3,0.4,4.1c0.3-1.9,0.9-3.7,0.9-5.1c-0.1-0.7-1.5-0.7-2.6-1.1c0.1-0.6,0.5-1.5,0.6-2
	c0.4-0.1,0.8-0.2,0.8-0.1c1.6,1.2,3.9-0.3,5.9-0.5c0.2,0,0.6-0.4,0.8-0.6c0-1.4,1.1-1.5,1.9-1.5c1.1-0.2,2-0.1,3-0.3
	c0.4-1.1,0.6-2.2,1.1-3.3c0-0.1,0.5-0.2,0.9-0.3c0,0.7-0.2,1.5-0.3,2c2.1,0.2,2.8,0.1,3.1-1.1c0.4-1.4,0.4-2.8,0.7-4.5
	c-1.3,1.1-2,1.8-2.7,2.5c-0.1,0-0.3-0.1-0.3-0.1c0.5-1.1,1.1-2.2,1.8-3.7c2.5,0.3,5.7-2.3,7.6-0.1c0.2,0.2,1.3-0.2,2.4-0.5
	c-0.6-1.8-1.1-3.3-1.7-5.3c-0.9,1.2-1.5,2.1-2.3,2.9c-1.9,0.6-4,1.3-6.7,2c0.9-1.1,1.4-1.7,2.1-2.5c-1.2-0.2-2.3-0.4-3.4-0.5
	c0.5-0.4,0.9-0.8,1.3-1.2c-1-0.4-2.2,0.1-2.8,1.1c-1,1.4-1.9,1.2-3,1.2c-0.3,0.5-0.5,1.1-0.8,1.5c-1.1,1.2-2.7,1.3-3.2,0.4
	c-0.7-1.7-1.3-1.8-3.1-0.6c-1,0.6-1.8,1.3-2.9,2c-2-0.6-4.3-0.4-6.1,1c-2.7,2-5,2.5-7.5,2.7c-1.4,0.1-3.1,0.3-4.5,1
	c-2.1,1.2-3.5,1.4-4.5-0.2c-1.3,2.3-3.6,4-5.8,4c-1.5,0-2.5,0.4-3.8,1.3c-3.2,1.9-6.5,3.7-9.7,5.2c-1.6,0.8-1.8,0.6-1.5-1.2
	c-0.8-0.4-0.2-1.2,0.1-1.8c-1.7-0.2-3.5,0-5.5,1.4c0.6-1,1.3-1.9,2.1-2.9c-0.7-0.5-1.4-0.9-2.1-1.5c0.5-0.4,0.8-0.7,1.3-1.1
	c0.3-0.3,0.5-0.5,0.8-0.9c-1.7-0.7-2.4,1-3.5,1.6c-3.1,1.6-6.2,3.6-9.1,6.2c-1.2,1.2-2.8,1.7-4.3,2.7c-0.5,0.3-1,0.6-1.4,0.9
	c-1.1,0.8-2.3,1.8-3.5,2.7c-1.4,1-2.8,2-3.6,2.7c-1.6,0.3-2.7,0.3-3.7,0.8c-1.6,1-1.2,2.3-0.9,3.4c-0.7,0.7-1.3,1.3-1.9,1.7
	c-0.4,0.2-0.7,0.3-0.9,0.5c-0.1-0.6-0.3-1-0.2-1.5c-1.5,0.2-1.5,0.8-1.8,2c-0.5,2-1.7,3-4,3.4c-0.2,0.3-0.3,0.7-0.6,1.1
	c-1-0.5-2-0.8-3.2-1.4c0,1.8-2.6,3.8,0.3,4.5c-2.6,2.1-4.9,4-7.1,5.8c-1.1,0.8-2.2,1.7-3.2,2.6c-2.4,2.4-4.8,4.8-7.2,7.2
	c-0.9,0.9-2.4,1.5-2.8,2.4c-0.9,2.5-3,4.4-4.4,6.6c0,0.1-0.4,0.2-0.7,0.3c-0.3-0.3-0.7-0.7-1-0.9c-2.9,1.3-1.6,3.7-3.4,5.4
	c-0.8-0.1-1.5-0.2-2.5-0.3l-3.1,7.7c0,0,0,0,0.1,0c0,0,0,0,0,0.1c0.8,0.5,0.6,1.1-0.2,2.2c-0.5-0.8-0.8-1.3,0.2-2.2l0,0l0,0
	c-0.4,0-0.7,0.1-1,0.1c-0.8,1.1-1.5,2.9-2.3,3.2c-1.7,0.6-2.3,2.3-3.5,3c-0.4,0.3-0.9,1.1-0.9,1.5c0,0.3,0.7,0.5,1,0.6
	c-0.6,1.6-1.1,2.8-1.7,4.3c-0.5,1.3-0.8,2.6-1.4,3.8c-0.5,1.3-1.4,1.8-2.3,1.2c-0.4-0.2-0.7-0.6-1-0.8c-1.4,2-1.4,2-1.1,4
	c0.6,2.8-1.6,5.3-4.7,6c-0.7,0.2-1.5,1-2.3,1.6c1.7,1.1,2,3.1,0.9,4.6c-2.8,3.8-4,7.8-5.4,11.9c-0.2,0.7-0.3,1.4-0.7,2
	c-2,3-3.9,6-3.3,9.2c-0.8,0-1.3,0-1.7,0.1c-0.4,0.1-0.9,0.3-1.3,0.5c-0.1,1.9,1.6,0.2,2.4,0.5c-1.3,1.8-3.6,3.3-3.2,5.3
	c0.5,0.3,1,0.4,1.8,0.7c-2.2,1.1-2.5,3-2.4,3.8c0.6,2,0.7,3.8-1.3,6.1c-0.9,1-1.2,2.2-1.8,3.4c-0.5,1.1-1.1,2.2-1.7,3.5
	c-1.1-0.2-2-0.5-3.3-0.6c-0.5,1.1-1.5,2.3-1.5,3.1c-0.2,3.1-0.1,6.1,0,9.1c0,3-0.1,6.1,0,9.2c0.2,3.3,0.4,6.6,0.8,9.8
	c0.7,4.7,1.5,9.3,4,13.1c1.5,2.4,3.9,4.2,3.9,7.5c-0.1,0.9,1,1.3,1.3,2.2c1,2.1,4,3.2,2.3,6.8c0,0.1,0.1,0.4,0.2,0.4
	c1.7,1.3,1.8,3.5,2.3,5.5c0.6,3,3.3,3.6,5.5,4.8c0.4,0.2,1.6-0.3,2.3-0.7c0.7-0.3,1.2-0.9,1.9-1.3c1,0.7,2,1.3,3,2
	c0.8-1.6,1.6-2.9,2.3-4.3c0.4-0.5,1-1.2,1.4-1.2c0.4-0.1,0.9,0.4,1,0.9c0.1,2.6,1.5,4.4,3.8,5.7c1.8-2.2,4.1-3,6.6-3.6
	c0.5-1.6,0.9-3,1.4-4.4c0.2,0,0.4-0.1,0.6-0.1c-0.1,2.2-0.3,4.5-0.6,7.2c1.1-1.1,1.9-1.8,2.8-2.8c1.2,2.1,1.9,4.6,5.5,3.6
	c1.1-3.3,2.2-6.7,3.4-10.1c0-0.1,0-0.2,0-0.3c0.3-1.3,0.5-2.8,0.9-4c1.3-4,2.6-8.1,4.2-12c1.1-2.5,2.6-5,4.5-7.3
	c1.6-2,3.1-4,4.3-6.3c0.3-0.5,0.5-0.9,0.7-1.4c-0.1-0.1-0.2-0.1-0.1-0.3c1-9.2,3.4-18.7,6.3-28.2c-0.1,0-0.1,0-0.2,0
	c0.1-0.5-0.2-1-0.1-1.5c0.6-3.8,1-7.6,1.5-11.5c0.1-1.4,0.3-2.6,0.2-4c0-1.7-0.8-3.2,1.1-5.2c0.2-0.3,0.3-0.8,0.3-1.1
	c0.4-3,0.7-6.1,1.1-9.1c1.9-1.1,3.7-2,5.3-3c0.4-1.6,1.4-3.1,2.5-4.6c1-1.3,1.8-2.5,2.6-3.8c-0.4,0.4-0.9,0.7-1.5,1.1
	c-0.9-1.8-0.7-2.2,1.5-3c0.1-0.9,0.1-1.7,0.2-3.1c0.8,0.4,1.3,0.7,1.7,1c1-2.1,1.9-4.1,3.1-5.8c-1.2-1.1-0.3-3.3-1.3-4.6
	c-0.4-0.6-0.4-1.3-0.6-2.1c-1.6,2.3-2.6,0-4.4,1.6c0.6-1.2,0.8-1.6,1.2-2.4c-0.9-0.4-3.1,0-1.6-2.4c0.2,0,0.5,0,0.7-0.1
	c0.3-0.1,0.7-0.2,1.4-0.3c-2.9-1.3-4.1-0.5-6.4,4.1c-1-2.1,1-3.7,2.4-5.5c-3,0.9-4.2,3.4-6.2,5.1c0.3-1.5,1.2-2.7,2.5-3.8
	c1.1-1,2.6-2.3,3.1-3.5c0.7-1.8,1.8-2.6,3.5-3.1c1-0.2,2.2-0.3,2.5-1.8c-1.4-0.1-2.2-0.7-1.5-2.4c3.2-2.2,5-6.6,9.2-7.5
	c0.7-1.2,0.9-2.6,1.8-3.3C485.7-189.2,488.4-192.1,491.9-193z M561.6-255.5c0,0.2,0.2,0.4,0.1,0.7c-0.1,0.3-0.4,0.5-0.9,1.1
	c0.2-0.8,0.1-1.2,0.2-1.3C561.1-255.3,561.3-255.4,561.6-255.5z M558-255.3c1.1,0.9,0.9,1.6-0.8,2.6
	C557.5-253.8,557.6-254.4,558-255.3z M543.7-237.6c-0.4,0.3-0.8,0.6-0.9,0.6c-0.3-0.1-0.5-0.4-0.7-0.6c0.3-0.3,0.5-0.4,0.8-0.8
	C543.3-238.1,543.5-237.9,543.7-237.6z M495.6-242.3c0.4-0.2,0.8-0.6,1.1-0.6c0.2,0,0.4,0.3,0.7,0.8c-0.7,0.3-1,0.5-1.2,0.5
	C495.9-241.9,495.9-242.1,495.6-242.3z M503.5-242.6c-0.2,1.9-1.5,2-2.2,2.4c-0.2-0.1-0.2-0.3-0.3-0.4
	C501.4-241,502.2-241.6,503.5-242.6z M497.6-240.6c0.3-0.4,0.8-0.8,1.1-1.1c0.2,0.1,0.3,0.3,0.3,0.5c-0.4,0.4-0.9,0.8-1.4,1.1
	C497.8-240.3,497.6-240.4,497.6-240.6z M537.4-239.4L537.4-239.4c0.1-0.1,0.1-0.1,0.1-0.1c0.1-0.9,0.1-1.7,0.1-2.6
	c3.8-2.3,5.9-2.1,7.6,0.6c-2.2,1.3-3.3,0.3-4.4-0.8c-1.1,0.9-2.2,1.9-3.2,2.9l0,0.1C537.5-239.3,537.4-239.4,537.4-239.4
	c-0.5,0.4-1.2,1-2.4,1.9C535.7-239.2,536.6-239.2,537.4-239.4z M524.8-234.3c0.7-0.3,0.9-0.5,1.3-0.6c0,0.2,0.1,0.5,0.2,0.6
	c-0.2,0.2-0.4,0.4-0.8,0.5C525.3-233.8,525.2-234.1,524.8-234.3z M467.7-221.7c0.2-0.8,0-1.5,0.4-2.2c0.7-1.3,3.5-3,5.2-3.7
	c-1.7,2-3.3,4-5.1,5.9H467.7z M511.8-219c1.9-2.8,4.5-2.9,7.2-3.7c-1.2,3.4-4.9,1.5-5.5,4.9C512.5-218.3,512.2-218.7,511.8-219z
	 M498.3-208.1c0.8-0.8,0.6-2.2,2.4-2.4c1.1-0.1,2-2.6,3.8-1.4c-2.2,1.6-4.2,2.9-6,4.2C498.5-207.9,498.4-208,498.3-208.1z
	 M493.7-204.4c0.2-0.3,0.5-0.8,0.7-1c0.3-0.3,0.7-0.4,1.1-0.5c0,0.2,0.1,0.3,0.1,0.6c-0.5,0.4-1.2,0.9-1.8,1.3
	C493.9-204.2,494-204.3,493.7-204.4z M438.6-57.3c-0.5,1-0.9,1.9-1.6,2.9c-0.2,0-0.3,0-0.5-0.1l1.2-3
	C438-57.5,438.2-57.4,438.6-57.3z M475-180.5c-0.5,0.3-0.9,0.4-1.4,0.7c0-0.2-0.2-0.4-0.1-0.6c0.4-0.3,1-0.5,1.4-0.9
	C474.8-181,474.9-180.7,475-180.5z M631.5-256.7c-1.1,1.3-1.5,3.2-3.4,4.2c-0.1,0.1,0.1,1.3,0,2.1c0.6-0.3,1-0.6,1-0.9
	c0-1,0.7-1.3,1.5-1.2c0.9,0.1,0.9,0.7,0.3,1.5c-0.4,0.7-1.1,1.3-1.8,2.1c-2.5-1.1-4.7-2.3-6.4-3.9c0.1-0.3,0.4-0.5,0.4-0.8
	c1.1-0.1,2.3-0.4,3.6-0.5c-1.5-1-2.9-1.9-4.6-2.8c-0.3,0.8-0.2,1.2-0.5,1.7c-0.1,0.4-0.5,0.9-0.5,0.9c-1.5-0.1-2.7-0.1-3.8-0.2
	c-1.1-0.2-2.2-0.4-3.4-0.8c0,1.2,0.1,2.1,0.1,2.9c0.7-0.3,1.2-0.5,1.9-0.7c-0.7,2.9,2.9,1.6,3,3.8c0.8-1,1.2-1.4,1.6-2
	c0.9,0.3,1.7,0.6,2.6,0.9c2.2,0.9,2.2,1.8-0.5,4.5c-1.6-0.7-3.2-1.5-5-1.9c-1.8-0.5-4-0.6-6-1.1c-0.3-2.4-0.7-2.5-2.9-1.5
	c-0.8,0.4-1.8,0.7-2.6,0.7c-1.3,0.1-2.5-0.3-3.9-0.1c-3.3,0.2-6.3,0-9-1.3c-0.6,1-1.5,2.1-2.4,3.3c2.9,0.1,4.5,2.4,7.8,1.7
	c1.9-2.5,2.2-2.6,4-2.6c2.2-0.1,4.3,0,4,3c3.7-2.2,6-1,8.5,0c1.5,0.6,2.9,1.5,4.5,1.5c2.7-0.2,3.6,1.6,5.2,2.6
	c0.3,0.1,0.1,0.9,0.1,1.5c-3.3-0.1-5.6-1.2-7.9-2.3c-0.8-0.5-2.1-1.1-2.7-0.9c-1.4,0.7-1.9,0.3-2.5-0.3c-0.6-0.6-1.1-1.1-2.5-0.8
	c0.1,2.2,1.6,2.9,3.1,3c2.8,0.3,4.4,1.6,5.5,3.7c0.1,0.1,0.4,0,0.6,0c1.8-2.8,3.4-3.3,5.1-1.4c0.2,0.1,0.2,0.3,0.3,0.4
	c0.2,0.9,0.6,1.1,1.8,1c1.1-0.2,2,0.3,3,0.6c3.5,1.3,7,2.4,10.3,3.8c5.6,2.2,9.1,6.4,12.9,10.3c0.2,0.2,0.1,0.9,0.1,1.3
	c-1.3-0.7-2-1.8-3-2.7s-2.3-1.1-4.2-0.8c0.9,0.5,1.4,1.1,2.1,1.5c1.2,1.1,2.6,2,3.9,3c2.5,2.3,5.7,4.2,8,6.8
	c4.1,4.5,7.5,9.5,11.1,14.5c4.5,6.3,9,12.6,12.2,20c0.5,1,1.4,1.4,3,1.4c0-0.8-0.1-1.4-0.3-1.8c-1.5-8.5-5.7-15.4-8.9-23
	c-0.8-2-2.1-3.9-3.1-5.7c-1.1-2-2.2-3.9-3.2-6c-1-1.8-1.8-3.6-2.7-5.4c-1.2-2.1-2.2-4.3-3.4-6.5c-1-1.7-1.9-3.7-3.4-4.9
	c-1.9-1.3-2.5-3.6-4.1-5.2c-0.5-0.5-0.4-1.7-0.3-2.6c0.3-2.4-0.9-4-2.5-5.5c-0.3,2-0.3,3.4-0.7,5.4c-0.9-0.1-1.8,0.1-2.3-0.1
	c-1.9-1.5-3.1-3.4-1.4-6.8c-2.9-0.3-4-2-3.6-4.8c-0.2,0-0.4,0.1-0.6,0.1c-0.7,1.4-1.5,2.7-2.6,4.4c-1.3-0.8-2.3-1.6-3.3-2.3
	c-0.8-0.5-1.3-1-0.7-2.2c0.7-1.5,0-2.2-1.1-3.2c-0.1,1.5,0.6,2.6-1.3,3.8c0.4-1.5-0.2-2.1-1.4-2.5c-0.9-0.3-1.4-1.4-1.7-2.3
	c-0.2-0.4,0.8-1.5,1.2-2.2C632.7-258.2,632.1-257.4,631.5-256.7z M628.9-239.5c-0.4,0.2-0.4,0.4-0.6,0.4c-0.1,0-0.3-0.2-0.3-0.3
	c0.1-0.2,0.2-0.3,0.6-0.8C628.8-239.9,628.9-239.7,628.9-239.5z M631.5-247.4c1.1,1.7,4.2,1.8,4.2,4.5c-2.6-1-5.6-1.2-6.1-4.6
	C630.4-247.4,631.2-247.6,631.5-247.4z M627.7-247.2c-0.2,0.1-0.7,0.3-0.8,0.4c-0.1-0.6-0.2-0.9-0.2-1.5c0,0,0.5-0.3,0.7-0.4
	C627.6-248.1,627.7-247.7,627.7-247.2z M633.7-250.3c0,0.3-0.1,0.7-0.4,1.2c-1.2-0.3-1.3-0.9-0.1-2.3
	C633.6-250.8,633.8-250.7,633.7-250.3z M538.9-228.8c1.6,1.6,3.6,1.5,8.4-1c-0.8,1.1-1.3,2.3,0.2,2.4c-0.4,0.5-0.6,1-1.2,1.9
	c-1.2-2.1-3.3-1.1-5.5-0.7c-2.2,0.3-4.2,0.6-6.6,1.1c-0.4,0.9-0.7,1.8-1.3,3.2c1-0.9,1.6-1.6,2.8-2.6c0.1,1,0,1.7,0,2.8
	c1.4-0.6,2.6-1.2,4-1.8c-0.4,0.7-0.9,1.6-1.2,1.6c-2.7,0.5-5.2,0.8-7.4,1.2c0-2.4-0.2-4.3-0.2-6.4c-0.3-0.7-2.6,0.8-2-1
	c1.3-0.3,2.4-0.7,3.7-1.1h-0.1c0.3,0.9,0.7,1.7,1.3,2.8c0.6-0.1,1.9-0.3,2.9-0.4c0.8-1.6,1.5-3,2.4-4.9c0.9,0.3,1.6,0.7,2.8,1.1
	C540.6-229.6,539.7-229.2,538.9-228.8z M620.5-268.8c0.8-0.2,1.7-0.3,2.9-0.4c-0.5,2.7-0.9,5.2,0.8,6.7c0.2,0.1,0.2,0.2,0.4,0.3
	c0.5,1.1,2.6,0.4,2.8,2.1c0.1,1.1,1.2,1.9,1.9,3c-1.8,1-3.2,0.1-3.4-0.8c-0.6-2.1-2.6-2.4-4.2-3.2c-1.1-0.6-1.9-1-2.1-2.4
	c-0.2-1.4-1.5-2.3-2.4-3.3c0.2-0.2,0.3-0.4,0.6-0.6c0.8,0.6,1.6,1,2.5,1.6C622.5-267.1,619.4-267.5,620.5-268.8z M446.3-214.5
	c1-0.6,1.9-1.5,2.6-1.7c0.6-0.1,1.1,0.9,1.9,0.1c0.7-0.6,1-1.6,1.6-2.5c-2.2,0.3-3.1-0.4-2.3-2c0.5-1,0.4-1.6,0-2.3
	c-0.2-0.2,0.1-0.9,0.1-1.3c-0.4-0.5-1-0.9-1.6-1.4c-0.4,0.6-1,1.4-0.9,1.5c1,1,0,1.8-0.9,2.8c-0.9,1.1-2,2-3.2,3.3
	c1.7-0.1,3.1-0.1,4.5-0.1C447.3-216.8,445.8-216,446.3-214.5z M447.4-219.9c0.1-0.2,0.4-0.6,0.5-0.7c0.1-0.1,0.3,0.1,0.7,0.3
	c-0.3,0.3-0.6,0.6-0.7,0.7C447.8-219.5,447.4-219.8,447.4-219.9z M582.7-263.5c-2.8,2.4-4.9,2.2-5.5-0.4c-0.2-0.8-1.1-1.4-1.7-2.1
	c0.2-0.2,0.3-0.4,0.4-0.5C578.3-265.7,582.7-267.8,582.7-263.5z M505-204.8c0.5-1,0.9-1.9,1.6-2.9c1.1-0.3,2-0.4,3.2-0.6
	c-2.2,3.5-5.5,5.1-8.5,7.3c-0.8-1.4-0.2-2.6,0.7-3.8C503.4-206.4,503.7-204.4,505-204.8z M607.7-266.4c0.6-1.8,1-3.5-0.3-4.5
	c2.8-2.1,2.8-2.1,4.3-0.5c-0.9,0.4-1.7,0.7-2.7,1.1c0.5,0.8,1.1,1.3,1.6,2.1C609.6-267.6,608.7-267,607.7-266.4z M576.7-257
	c0.1,0.5,0.2,1.6-0.2,2.2c-0.4,0.5-1.5,1.1-2.2,1.1c-0.8,0-1.5-0.5-2.9-0.9c1.5-1.1,2.4-1.9,3.5-2.5
	C575.4-257.3,576.5-257.2,576.7-257z M450.2-224c0.7-0.5,1.3-1.3,1.8-1.8c1.3-0.1,2.2,0.9,3.8-0.6c0.3-0.4,1.9,0,3.4,0.1
	C455.8-224.6,453-222.4,450.2-224z M615.6-267c-0.9,0.9-1.6,1.6-2.7,2.8c0.5-2.5-1.6-3.7,0.3-6.8C614-269.5,614.7-268.4,615.6-267z
	 M551.2-227.7c-1.2,0.1-2.5,0.2-3.6,0.4c2.3-1.6,4.5-2,6.6-1.6c0.2,1.9,0.3,3.5,0.5,5.1c-0.6-0.5-1.8-0.4-1.2-1.9
	C554-227.2,553-227.9,551.2-227.7z M576.5-245.6c-1.5,1.7-2.9,3.2-4.2,4.7c-0.1,0-0.3,0-0.4,0c0.4-1.8,1-3.8,1.6-5.9
	C574.8-246.2,575.7-245.9,576.5-245.6z M481-170.7c2.5,1.4,2,3.4,0.7,6.2C480.1-166.2,481.3-168.5,481-170.7z M390.3-132.2
	c-0.4,2.1-0.8,3.8-1.2,5.5c-2.4-0.3-1.4-2.1-1.3-3.6C388-131.5,389.1-131.9,390.3-132.2z M608.9-262.2c-1.1,0.8-1.9,1.4-2.4,1.9
	c-0.2-0.8-0.4-1.4-0.8-1.9c-0.6-0.4-1.4-0.7-0.6-2C606.1-263.6,607.3-262.9,608.9-262.2z M475.2-177c1.5-0.5,2.5-0.8,3.6-1.1
	c1.4,0.9,0.2,3,0.4,5.1c-0.6-0.5-1.1-0.8-1.4-1.2C477.3-176.3,477.4-176.3,475.2-177z M401-154.9c1.1-1.8,1.8-3.2,2.5-4.4
	c1.3-0.6,2.5-1.4,3.7-2c0.2,0.1,0.2,0.2,0.4,0.3C405.4-159.1,403.4-157.3,401-154.9z M582.1-244.7c0.5,0.2,1,0.2,1.9,0.5
	c-1.1,0.5-1.7,0.9-2.5,1.2c-0.5-0.5-0.9-1.2-1.5-1.2c-0.5-0.1-1.3,1-1.4-0.4c1.7-0.5,3.3-1,5-1.5c0.1,0.1,0,0.3,0.1,0.4
	C583.2-245.4,582.6-245.2,582.1-244.7z M505.1-244.6c0.3-0.7,1.8-1.7,0.1-1.8c0.5-0.4,1.1-0.9,1.7-1.6c0.8,0.6,1.3,1.1,2,1.6
	C507.3-244.4,506.9-244.2,505.1-244.6z M565.6-244.1c0.1-0.6,0.1-1.3,0.1-1.8c0.2-0.1,0.7-0.3,0.8-0.4c-0.1,1.3,1.9,1.4,0.6,3.2
	c-0.5,0.6-1.5,0.8-2.7,1.4C564.9-242.8,565.4-243.4,565.6-244.1z M463.6-227.6c0.6-1,2-1.9,3.2-3c0.2,0.1,0.2,0.2,0.4,0.3
	c-1.2,1.4-2.4,2.9-3.5,4.3c-0.4,0.5-0.6,1.1-0.8,1.6C461.7-225.3,462.9-226.7,463.6-227.6z M438.7-209.3c-0.7-0.2-1.5-0.5-2.7-1
	c0.9-0.7,1.7-1.4,2.4-1.9C439-211.3,440.2-210.8,438.7-209.3z M460.6-228.1c-0.2-0.7-0.1-1.4-0.1-2c0.8-0.3,1.3-0.4,2.1-0.7
	c0.5-0.1,1.1-0.4,2.2-0.7C463.4-229.5,462.1-229,460.6-228.1z M438.6-204.7c1.7-1.7,2.8-2.9,4.1-4.3
	C442.5-206.2,442.2-205.9,438.6-204.7z M486.7-172.5c0.3,0.3,0.5,0.6,0.8,1c-1.6,1.2-2.9,1-2.7-0.2c-0.1-0.7,0.8-1.3,1.6-1.3
	C486.3-172.7,486.5-172.5,486.7-172.5z M539.1-220.6c3.7-1.6,3.8-1.6,3.2,0.7C541.3-220.2,540.5-220.3,539.1-220.6z M562.1-238.8
	c1.2,0.2,2.3,0.4,3.4,0.6C562.3-236.8,562.3-236.8,562.1-238.8z M554.7-233.5c-1,1.4-1.5,2.4-2.4,3.7c-0.1-1.2-0.2-2.1-0.2-3.1
	C552.9-233.2,553.5-233.3,554.7-233.5z M604.7-266.3c-0.3-0.7-0.4-1.3-0.7-2.5c1.9,0,2.7,0.3,2.2,1.6
	C606.2-267,605.4-266.8,604.7-266.3z M387.8-115.7c-0.3,1.1-0.4,2.1-0.7,3.3c-0.6,0-1.1-0.1-1.9-0.2
	C386.2-113.8,386-115.1,387.8-115.7z M548.7-234.7c-0.9,0.3-1.9,0.7-3.1,1.1C546.6-235.3,546.6-235.3,548.7-234.7z M502.4-249.6
	c1.3-0.6,2.4-1.3,3.8-2C505.6-250.2,504.7-249.6,502.4-249.6z M417.3-182.2c-0.3,0.1-0.5,0.1-1,0.2c-0.9-0.7-0.6-1.6,0.8-3.4
	C417.3-183.8,417.2-183,417.3-182.2z M529.6-219.2c0.9,0.4,1.7,0.9,2.6,1.4C530-217,529.3-217.3,529.6-219.2z M387.6-121.3
	c-0.1,1.3-0.2,2.4-0.3,4.2C386.2-118.5,386.1-119.7,387.6-121.3z M548.4-232.4c-1.9,1.4-1.9,1.4-3.2,0.2
	C546.1-232.2,547-232.2,548.4-232.4z M583-249.6c0.9,0.4,1.4,0.8,2.1,1.1C582.6-247,582.6-247,583-249.6z M553.2-241.6
	c0,0.1,0,0.1-0.1,0.2C553.1-241.5,553.1-241.5,553.2-241.6L553.2-241.6c-0.5-0.8-0.5-0.8,0.5-2.1c0.5,0.3,1,0.5,1.5,0.8
	c-0.1,0.1-0.2,0.3-0.3,0.4C554.3-242.2,553.9-242,553.2-241.6z M461.4-235.1c0.1-0.2,0.2-0.3,0.4-0.6c0.7,0.1,1.4,0.1,2.2,0.3
	C462.4-233.6,461.9-234.6,461.4-235.1z M463-233.2c-1.2,1.2-1.9,1.9-2.6,2.7c-0.2-0.6-0.3-1.3-0.3-2
	C461-232.7,461.7-232.9,463-233.2z M540.9-258.9c-0.8,0.5-1.6,1-2.5,1.6C539-259.3,539-259.3,540.9-258.9z M563.6-246.4
	c-0.8,0.8-1.6,1.4-2.4,2.2C561.4-246.2,561.4-246.2,563.6-246.4z M634.5-267.9c-0.3,1.1-0.4,1.9-0.6,2.6c-0.2,0.1-0.4,0.1-0.8,0.2
	C632.7-265.9,632.4-266.7,634.5-267.9z M391-135.4c-0.2,0.1-0.5,0.2-0.8,0.4c-0.7-0.6-0.1-1.7-0.2-2.4c0.2-0.1,0.5-0.2,0.7-0.3
	C390.8-137.1,390.9-136.3,391-135.4z M453.9-220.1c0.8-0.8,1.8-1.7,2.5-2.4c0.1,0.3,0.4,0.3,0.5,0.5c-0.9,0.8-1.7,1.6-2.7,2.4
	C454.1-219.7,453.9-219.9,453.9-220.1z M485-181.8c-0.2-0.8-0.5-1.5-1-2.8C485.7-184.1,485.3-183,485-181.8z M606.4-252.4
	c0.1-0.6,0.4-1.1,0.5-1.7c0,0,0.5-0.1,0.5,0c0.1,0.6,0.2,1,0.1,1.5C607.2-252.4,606.9-252.5,606.4-252.4z M460.4-230.4
	c0,0.1-0.1,0.3-0.1,0.4c-1.2,0.7-2.3,1.5-2.6-0.3C458.8-231,459.6-230.6,460.4-230.4z M560.5-226c0.3,0.3,0.5,0.8,0.8,1.1
	c-0.4,0.2-0.5,0.4-0.8,0.7c-0.3-0.4-0.5-0.7-0.7-1.1C559.7-225.3,560.1-225.6,560.5-226z M594.3-254.6c-1.3,0.6-1.8,0.9-2.9,1.5
	C592.1-255,592.9-255,594.3-254.6z M586.4-277.1c0.2,0.1,0.3,0.2,0.5,0.4c-0.4,0.5-0.6,1-1.1,1.6c-0.3-0.1-0.5-0.4-0.6-0.4
	C585.6-276.3,585.9-276.6,586.4-277.1z M599.2-272.5c-0.7,0-1.3,0-1.9,0c0.1-0.2,0.1-0.4,0.2-0.7c0.7,0,1.3,0.1,2,0.1
	C599.3-272.9,599.1-272.6,599.2-272.5z M511.2-250.4c1.2-0.7,1.8-1,2.5-1.4C513.4-250.2,512.8-250.2,511.2-250.4z M557.5-225.3
	c0.1-0.9,0-1.8,0.1-3.1C559.2-227.6,557.9-226.3,557.5-225.3z M475.4-167.7c0.7,0.5,1.2,0.7,1.7,1
	C475.7-165.9,475.7-165.9,475.4-167.7z M594-261.1c-0.4,0.5-0.5,1.1-0.8,1.6c-0.2,0-0.4,0-0.6,0c0.1-0.3,0.1-0.7,0.4-0.9
	c0.2-0.2,0.5-0.5,0.7-0.6C593.6-261.2,593.7-261.2,594-261.1z M579.5-260.6c0.1,0.1,0.2,0.2,0.3,0.3c-0.7,0.5-1.3,1.1-1.8,1.6
	c-0.1-0.3-0.2-0.3-0.2-0.5C578.3-259.7,578.9-260.2,579.5-260.6z M625.1-272.9c-0.2,0.6-0.5,1.2-0.7,1.8
	C623.3-272,623.3-272,625.1-272.9z M615.2-270.8c0.1-0.2,0.4-0.5,0.3-0.7c0.4,0.2,1,0.2,1.5,0.3c-0.1,0.3-0.4,0.5-0.4,0.8
	C616.1-270.5,615.6-270.7,615.2-270.8z M402.3-170.3c0.2-0.9,0.2-1.6,0.4-2.7C403.7-172.2,403.8-171.5,402.3-170.3z M568.8-253.1
	c-0.1,0.3-0.2,0.5-0.3,0.8c-0.6,0.1-1.2,0.1-1.9,0.2c0.1-0.2,0-0.4,0.1-0.6C567.5-252.9,568.1-253,568.8-253.1z M441.2-215.6
	c-0.5,0.8-1,1.6-1.5,2.4c-0.2,0-0.3-0.1-0.4-0.2c0.4-0.8,0.8-1.6,1.2-2.4C440.8-215.7,441-215.7,441.2-215.6z M431.8-197.3
	c-0.6,0.9-1.2,1.7-1.8,2.6c-0.2-0.1-0.3-0.1-0.5-0.3c0.7-0.9,1.3-1.9,1.9-2.8C431.7-197.5,431.8-197.4,431.8-197.3z M490.8-173.9
	c-0.5,0.4-1.3,1.1-2.3,1.9C489.1-174.2,489.9-174.2,490.8-173.9z M403.3-159.4c-0.5,0.1-1.3,0.3-1.8,0.5c-0.1-1.2,0.9-1.5,1.6-1.5
	C403.3-160.4,403.1-159.6,403.3-159.4z M479.5-159.8c0.1-0.1,0.7,0.3,0.6,0.5c-0.1,0.4-0.5,0.7-1.1,1.2c-0.3-0.4-0.6-0.8-0.7-0.9
	C478.6-159.3,479.1-159.6,479.5-159.8z M564.7-267.3c0,0.1-0.4,0.4-0.8,0.8c-0.2-0.4-0.4-0.7-0.2-0.9c0.1-0.2,0.4-0.4,0.8-0.6
	C564.4-267.8,564.6-267.6,564.7-267.3z M630.3-263.3c0.2-0.1,0.5-0.3,0.7-0.4c0.1,0.6,0.4,1,0.4,1.4c-0.2,0.1-0.4,0.3-0.6,0.3
	C630.7-262.4,630.6-262.9,630.3-263.3z M585.8-265.3c-0.2,0.5-0.1,1-0.3,1.5c-0.3,0-0.5,0-0.8,0c0.3-0.5,0.2-1,0.5-1.6
	C585.4-265.2,585.6-265.2,585.8-265.3z M566.6-266.9c-0.4-0.7-1-1.3,0.8-2.4C567.1-268.2,567-267.6,566.6-266.9z M410.4-171.4
	c-0.1,0.6-0.4,1.1-0.5,1.6c-0.2,0-0.4,0-0.7,0c0.2-0.6,0.5-1.1,0.7-1.7C409.8-171.4,410.4-171.4,410.4-171.4z M519-256.9
	c-0.7,0.3-1.3,0.6-1.9,0.8c-0.1-0.1-0.1-0.3-0.2-0.4c0.6-0.3,1.3-0.7,1.9-1.1C518.9-257.4,519-257.1,519-256.9z M593.3-265.5
	c-0.5,0.2-0.8,0.5-0.9,0.4s-0.3-0.3-0.2-0.5c0.4-0.2,0.5-0.4,0.7-0.4C592.9-266,593.1-265.8,593.3-265.5z M552.2-263.8
	c-0.2,0.3-0.5,0.5-0.8,0.8c-0.1-0.1-0.3-0.2-0.3-0.3c0.1-0.3,0.4-0.6,0.7-1.2C552.1-264.1,552.3-263.8,552.2-263.8z M553.2-241.4
	c-0.1,0.9,0,1.6-0.2,2.3C551.9-239.5,552.8-240.6,553.2-241.4z M470.2-242c-0.4,0.5-0.6,1-1,1.5c-0.2-0.1-0.3-0.1-0.4-0.2
	c0.4-0.5,0.6-1,1.1-1.5C470-242.1,470.1-242,470.2-242z M632.8-260.7c0.2-0.2,0.2-0.3,0.4-0.5c0.4,0.2,0.8,0.5,1.3,0.7
	c-0.2,0.2-0.2,0.3-0.4,0.5C633.6-260.3,633.1-260.5,632.8-260.7z M570-239c0.4-0.2,0.5-0.4,0.9-0.6c0.1,0,0.3,0.1,0.7,0.5
	C570.7-239.1,570.4-239.1,570-239z M553.2-239c0.6,0,1.1,0.2,1.8,0.2C553.4-237.3,553.3-238.2,553.2-239z M651-253.4
	c0.2,0.1,0.2,0.4,0.3,0.7c-0.4,0.2-0.5,0.4-0.8,0.5c-0.1-0.3-0.1-0.5-0.2-0.9C650.2-253.1,650.7-253.3,651-253.4z M452.9-216.9
	c0.1-0.2,0.5-0.5,0.6-0.4c0.1,0,0.2,0.2,0.5,0.5c-0.5,0.3-0.8,0.5-1.1,0.5C452.9-216.5,452.8-216.8,452.9-216.9z M574.4-251.7
	c0.2-0.3,0.5-0.4,1.1-0.9c-0.1,0.5,0.1,0.7-0.1,0.9c-0.2,0.2-0.4,0.4-0.8,0.6C574.6-251.3,574.5-251.6,574.4-251.7z M570-257.2
	c0.1,0.1,0.1,0.3,0.1,0.4c-0.5,0.2-0.9,0.4-1.4,0.6c-0.1-0.1,0-0.2-0.1-0.3C569.1-256.7,569.5-257,570-257.2z M602.4-254.4
	c0,0.1-0.2,0.2-0.2,0.3c-0.4-0.2-0.8-0.3-1.2-0.4c0.2-0.2,0.3-0.4,0.6-0.6C601.7-254.8,602.2-254.6,602.4-254.4z M587.3-263.3
	c0.3-0.5,0.4-0.9,0.6-1.4c0.2,0,0.3,0,0.5,0.1c-0.3,0.5-0.4,0.9-0.6,1.4C587.6-263.2,587.3-263.3,587.3-263.3z M639.9-251
	c0-0.1,0.4-0.4,0.5-0.3c0.2,0.2,0.3,0.4,0.5,0.8c-0.5,0.3-0.7,0.4-0.9,0.4C640-250.5,639.9-250.8,639.9-251z M480.7-161
	c0.2-0.1,0.4-0.3,0.6-0.3c0.2,0.4,0.2,0.8,0.4,1.2c-0.1,0.1-0.4,0.2-0.5,0.3C481.1-160.2,480.9-160.6,480.7-161z M564.1-224.7
	c0.1,0,0.2,0.3,0.2,0.4c-0.2,0.2-0.4,0.4-0.7,0.7c-0.1-0.4-0.2-0.6,0.1-0.9C563.5-224.7,563.9-224.7,564.1-224.7z M555.7-236.9
	c0,0.1,0,0.4,0,0.4c-0.4,0.1-0.8,0.3-1.3,0.3c0.1-0.2,0-0.3,0.2-0.5C554.8-236.8,555.2-236.8,555.7-236.9z M639.1-230.7
	c0.1-0.1,0.4-0.2,0.7-0.3c0.1,0.3,0.2,0.4,0.3,0.6c-0.1,0.1-0.5,0.3-0.5,0.3C639.4-230.3,639.3-230.5,639.1-230.7z M393.2-143.1
	c-0.1,0.1-0.3,0.1-0.5,0.1c0-0.4,0.1-0.9,0.1-1.3c0.1-0.1,0.3-0.1,0.5-0.2C393.2-143.9,393.2-143.5,393.2-143.1z M587.6-243.7
	c-0.2-0.1-0.3-0.3-0.3-0.5c0.1-0.1,0.4-0.3,0.5-0.3c0.1,0,0.2,0.2,0.3,0.3C587.9-243.9,587.8-243.8,587.6-243.7z M488.3-178.2
	c0.2-0.1,0.5-0.1,0.8-0.2c0.1,0,0,0.3,0,0.6c-0.3,0-0.5,0-0.8,0C488.1-177.7,488.1-178,488.3-178.2z M560.4-242.7
	c0.3,0.2,0.6,0.3,0.8,0.6c-0.2,0.1-0.5,0.1-0.8,0.1C560.3-242.1,560.5-242.3,560.4-242.7z M595.9-239.2c-0.4,0.2-0.6,0.3-0.8,0.4
	c-0.1,0-0.2-0.3-0.1-0.5c0.2-0.1,0.5-0.1,0.8-0.3C595.9-239.7,595.8-239.5,595.9-239.2z M550.9-237.2c-0.1-0.3-0.2-0.6-0.2-0.9
	c0-0.1,0.5-0.3,0.9-0.4c0.1,0.4,0.2,0.7-0.1,1.2C551.5-237.4,551-237.2,550.9-237.2z M407.6-164.9c-0.2,0-0.5,0-0.7,0.1
	c0-0.4,0.3-0.8,0.3-1.2c0.1,0,0.3-0.1,0.4-0.1C407.6-165.6,407.5-165.2,407.6-164.9z M462-129.7c0.5,0.1,1.3-0.1,1.5,0.2
	c0.5,1.4,0.9,2.8,1.4,4.1c-0.4,0.2-0.5,0.4-0.9,0.5c-0.9-1-1.9-2-2.5-3.2C461.1-128.1,461.8-129,462-129.7z"/>
</svg>
