<?xml version="1.0" encoding="utf-8"?>
<!-- Generator: Adobe Illustrator 22.0.1, SVG Export Plug-In . SVG Version: 6.00 Build 0)  -->
<svg version="1.1" id="master-artboard" xmlns="http://www.w3.org/2000/svg" xmlns:xlink="http://www.w3.org/1999/xlink" x="0px"
	 y="0px" viewBox="0 0 711.6 294.9" style="enable-background:new 0 0 711.6 294.9;" xml:space="preserve">
<style type="text/css">
	.st0{opacity:0.31;fill:#F08B3D;enable-background:new    ;}
	.st1{opacity:0.31;fill:#5A288E;enable-background:new    ;}
	.st2{opacity:0.45;fill:#DA5B4D;enable-background:new    ;}
	.st3{opacity:0.69;fill:#DA5B4D;enable-background:new    ;}
	.st4{opacity:0.32;fill:#F08B3D;enable-background:new    ;}
	.st5{opacity:0.32;fill:#5A288E;enable-background:new    ;}
</style>
<path class="st0" d="M377.7,38c-0.5-0.8,0.7-1.4,2.5-1.6c2.7-0.3,4.6,0.1,6.3,1.1c1.9,1.2,4.8,1.5,6.9,0.8c0.6-0.2,1.3-0.6,1.2-1
	c0-0.3-0.8-0.7-1.4-0.9c-0.5-0.2-1.4,0-2.1-0.1c-3.6-0.3-5.1-1.6-4-3.2c0.3-0.5,0.4-1,0.6-1.7c-5,0.1-9.6,0.2-14.1,0.3
	c-1.6,0-2.8,0-2.9-0.9c3-1.5,6.7-1.7,10.9-1.5c3.2,0.2,6.3,0.3,8.6,1.5c1.4,0.8,3.3,0.8,5.2,0.3c-0.7-0.1-1.2-0.4-0.5-0.7
	c0.7-0.4,1.5-0.7,2.2-1.1c-0.5-0.1-0.8-0.4-0.3-0.7c0.2-0.1,0.4-0.2,0.6-0.3c-0.5-0.1-0.9-0.2-1.3-0.4c-0.6-0.2-0.6-0.6,0-0.8
	c0.4-0.1,0.8-0.2,1.1-0.3c-2-0.2-4-0.5-5.9-0.8v-0.7c2-0.3,3.9-0.5,7-0.9c-3.8-0.9-6.5-1.9-9.6-2.2c-3-0.3-6.3,0.1-9.5,0.1
	c-0.2-0.1-0.4-0.3-0.5-0.4c2.1-1.1,4.2-2.2,6.6-3.4c-1.2-0.1-2.1-0.3-2.7-0.2c-2.7,0.4-5.1,0.3-7.7-0.2c-0.9-0.2-2-0.1-3.1-0.1
	c-0.4,0-0.8,0.3-1.1,0.4c0.5,0.7,0.9,1.3,1.6,2.4c-3-0.3-5.1-0.8-7.2-0.8c-2.4,0-4.7,0.5-7.1,0.7c-1.9,1.6-1.9,1.6-5.6,2.1
	c-4,0.6-8.2,1-12,1.7c-3.5,0.7-6.7,0.7-10.2,0.2c-1.4-0.2-3.3-0.5-4.5-0.2c-4.4,0.9-8.5,0.7-12.3-0.2c-4.5,1.1-8.6,2.1-12.9,3
	c-1.2,0.2-3-0.1-4.4-0.4c-6.1-1.1-12.6-0.8-18.8-1.2c-0.7,0-1.5,0.5-2.3,0.5c-1.3,0-3.1,0.1-3.9-0.2c-3.5-1.4-6.8-3-10.2-4.5
	c-1.6-0.7-2.9-1.6-4.7-2.3c-1.6-0.6-5.1-0.4-5.8,0.2c-1.1,1,0.1,1.7,1.8,2.2c2.9,0.9,5.9,1.7,8.9,2.5c1,0.3,2.1,0.6,2.8,1
	c3.8,2.4,8.4,4.5,13.3,6.4c2.2,0.9,1.9,1.7-0.9,2.1c-6.1,0.9-11.9,2.7-18.8,1.4c-0.6-0.1-1.5,0-2,0.2c-1.5,0.4-1.8,0.9-0.5,1.5
	c2,0.5,4.3-1.3,6.3,0.3c-0.6,0.8-1.2,1.7-1.9,2.9c-1.7-0.3-2.8-0.5-4.8-0.9c2.7,2.4,1,3.7-2.6,4.9c-2.7,0.9-5.5,1.9-7.4,3.7
	c5.2-0.6,8.9,0,12.3,1.4c1,0.4,3,0.6,4.3,0.5c3.8-0.3,7.6-0.8,11.4-1.1c2-0.2,4.1-0.1,6.2-0.4c3.4-0.3,5.9,0.6,8.8,1.4
	c0.5-0.5,0.9-0.9,1.1-1.2c0.2-0.4,0.2-0.9,0.4-1.6c7.1,1.4,13.9,2.5,21.2,1.5c0.9,0.7,1.6,1.3,2.7,2.3c1.5-2.4,4.9-3.2,9.2-3.4
	c1.2-0.1,2.6-0.3,3.3-0.7c3.9-2,9-1.4,13.5-1.7c0.8,0.6,1.3,1,2,1.6c7.3-2.4,14.7-2.8,22.4-0.8c1,0.3,2.4,0.3,3.6,0.4
	c8.2,0.3,16.5,0.5,24.7,0.7c0.2,0,0.5-0.2,0.9-0.4c-1.5-2.2-8.1-0.8-9.4-2.5c-2.7,0-4.7,0.1-6.7,0c-2.1-0.1-4.1-0.4-6.1-0.7
	c-2-0.2-4-0.4-6.8-0.7c0.7-1.1,0.7-2.4,1.9-2.7c2.8-0.8,4.5,0.6,6.4,1.4c5.2-1.4,10.1-0.6,14.8,0.3c3.7,0.7,6.5,0.2,8.4-1.4
	c-4.9-0.4-9.8-0.8-14.7-1.2C379.4,39,377.9,38.4,377.7,38z M276.7,29.3c-0.6,0.1-1.3-0.2-2.4-0.3c1.6-0.6,2.1-0.8,2.6-1
	c0.4,0.2,1.1,0.5,1.1,0.7C277.9,28.9,277.3,29.2,276.7,29.3z"/>
<path class="st1" d="M260.3,151.8c-2.3-1.7-7-0.8-6.7-4.2c1.7,0.3,3.2,0.5,4.7,0.7c-0.7-1.7-1.3-3-1.8-4.4c-0.6-1.6-1.5-2.7-4.2-2.8
	c-1.3-0.1-2.6-0.5-3.9-0.8c-2.6-0.6-5.3-1.6-7.9-1.6c-9.1-0.2-18.2-0.2-27.4-0.2c-2.4,0-4.9-0.1-7.3,0.2c-2.1,0.2-4,0.9-3.4,3
	c0.2,0.6-0.6,1.9-1.5,2.1c-3.5,1.1-4.6,3.3-5.7,5.5c-0.3,0.7-0.6,1.6-1.4,1.9c-1,0.5-2.6,0.9-3.7,0.7c-1.4-0.2-2.1-1.2-1.3-2.4
	c0.6-0.8,1.4-1.9-1.1-2.4c-0.4,1-0.8,2-1.4,3.3c-2.3-0.7-4.4-1.3-7.4-2.3c3.2-1.2,5.4-2,7.7-2.8c-1.8-1.8-3.4-3.6-5.2-5.2
	c-0.4-0.3-1.2-0.6-1.8-0.7c-3.4-0.2-6.3-2.1-10-1.5c-1.2,0.2-2.7-0.3-4.1-0.6c-3.1-0.7-6.2-1.6-9.3-2.3c-4.1-1-8.2-2.1-12.5-2.8
	c-5.1-0.9-9.9-2.8-15.8-1.8c-3.1,0.5-7.3-0.8-8.5-3.4c-1.1-2.3-3.3-3.1-6.1-3.4c-4-0.5-8-1.1-12-1.4c-1.9-0.1-4.6,0.1-5.8,0.9
	c-1.7,1.2-6.1,1.2-4.7,4.1c0.1,0.2-0.4,0.6-0.7,0.8c-2.8,1.9-5.6,3.7-8.6,5.7c1.7,1.1,2.9,1.8,3.8,2.4c-0.8,2.4-1.5,4.5-2.2,6.6
	c-0.5,1.7-1.6,2.6-4.3,2.5c-2.6-0.1-5.1,0.1-5.4-2.5c1.3-0.5,2.6-0.9,4.5-1.6c-5.2-1.6-9.9-3-14.5-4.5c0.1-0.2,0.2-0.4,0.3-0.7
	c1.6,0.1,3.1,0.3,5.8,0.5c-3.1-1.5-5.3-2.6-7.8-3.8c-2.3,2.5-4.6,4.8-2.9,7.7c-3.5,2-6.7,3.9-9.5,5.5c-0.1,3.9,5,7,0.6,10.4
	c2.9,2.4,8.7-0.1,10.5,3.5c-3.8,0.2-4,0.3-5.6,1.6c-1.5-0.5-3-0.9-4.9-1.5c0.3,1.3,0.8,2.2,0.5,3c-0.3,0.9-1.4,1.6-2.2,2.4
	c0.8,1,1.5,1.9,2,2.6c-1.3,2.1-2.5,4-3.7,5.9c-1-0.1-2.4-0.2-3.7-0.3c-0.1,0.2-0.2,0.4-0.2,0.6c1.5,0.9,3.1,1.7,4.4,2.5
	c-1.5,1.2-3.9,2.1-3.9,3.1c0,2.3-0.4,5.3,2.5,6.7c2.5,1.2,6.4,1.8,9.4,1.5c3.4-0.4,6.7-0.1,9.2,0.9c3.2,1.3,6.3,1.2,9.5,1.5
	c2.8,0.2,5.5,0.6,8.3,1c3.5,0.5,6.9,1.5,10.3,1.5c5.5,0.1,10.3,1.3,15,3c5.6,2,11.4,4,18,1.9c0.3-0.1,0.7,0,1.1,0.1
	c0.1,0.4,0.3,0.9,0.4,1.2c5.3,0.3,10.6,0.6,16,1c0.8-1.8-0.6-2.4-2.6-2.4c-6.2,0-12.2-1-18.2-2.1c-8.1-1.5-16.4-2.7-24.6-4.1
	c-1-0.2-1.9-0.5-2.8-0.8c3.6-0.2,7-0.2,10.4,0.3c5.8,0.7,11.6,1.6,17.4,2.6c8.1,1.4,16.3,1.8,24.6,1.7c4-0.1,8,0.6,12,1.1
	c1.7,0.2,2.2,1.1,0.5,2.3c-3.6-1.1-7-1.3-9,1.3c1.9,2.2,3.5,4.2,5.3,6.3c2.1-1,3.6-2.6,6.3-1.1c0.6,0.3,2,0,3-0.1
	c4.2-0.7,8.3-0.7,12.6-0.3c3.1,0.3,6.3,0,9.4,0.1c1,0,2.5-0.1,3.1,0.3c3.5,2.5,8.3,1.5,11.1,2.3c2.3-0.8,3.7-1.3,5.2-1.8
	c-3.6-0.5-7-1.7-10.6,0.1c-0.9-0.9-1.9-1.8-3.3-3.1c-2.3,2.7-5.8-0.8-8.4,1.2c-1.8-1.9-5.2-1.6-8.2-2.9c7.7-2,14.6-0.7,21.5,0
	c7.7,0.8,15.2,2.2,22.8,3.3c2.1,0.3,4.2,0.3,6.3,0.4c1.9,0.1,2.3-0.8,2.2-1.9c0,0-0.1,0-0.1,0.1c-0.1-0.1-0.1-0.1-0.2-0.1
	c-1.2-0.1-2.5-0.3-4-0.5c2.5-0.8,2.6-0.8,4,0.5c0.1,0,0.2,0,0.3,0l0,0c2.4-1,4.6-1.9,7.6-1.8c1.8,0.1,3.5-0.7,3.2-2.3
	c-0.4-2.1,1.4-2.6,3.7-2.8c2.7-0.2,4.7-0.9,5.5-2.8c-1.1-2.5-7-2.6-6.3-6.3c4.5,0.6,8.7,1.3,14,2c-1-1.9-1.3-3.1-2.3-4
	c-1.5-1.3-3.3-2.5-5.3-3.5c-2.2-1.1-1.5-1.9-0.1-3.2c1.5,0.5,2.8,0.9,4.2,1.3c0.9-2.4,0.8-2.9-1.9-3.3c-3.4-0.5-6.8-0.5-10.4-0.8
	c-0.3-1.6-0.6-3.2-0.8-4.6c3.2-1.8,6.4-3.5,9.7-5.3c-0.6-0.7-2.4-2.3-2.3-2.4c2.4-1.5-1.1-2.7-0.2-4.2c3.5-0.3,6.9-0.6,9.9-0.9
	c2.3-1.9,1-3.4-0.5-4.8C257.8,152.3,258.8,152.1,260.3,151.8z M63.3,187.1c-0.1-0.3-0.1-0.5-0.2-0.8c2.4-0.9,2.4-0.9,6.1,0.3
	C66.6,186.8,64.9,187,63.3,187.1z M63.2,164.7c0.6-0.4,0.8-0.6,1-0.6c1.5,0.2,2.9,0.4,2.4,2.1C65.4,165.7,64.3,165.2,63.2,164.7z
	 M69.2,162.2c1.7,0.7,3.4,1.1,4.3,2c0.8,0.8,0.8,2.1,1.1,3.1C69,167,68.5,166.5,69.2,162.2z M70.6,185.8c3.2-1.2,4.8,0.1,7.7,1.3
	C74.8,187.5,72.6,188,70.6,185.8z M73.8,157.1c0.7,0.8,1.3,1.5,2.3,2.6c-5.1,0.2-8.7-0.9-12.6-2.2c2.5-2.3,5-1,7.6-0.6
	c1.9-1.3,4.1-2.7,7.5-0.9C77,156.3,75.5,156.7,73.8,157.1z M89.1,189.6c-1.2-0.2-2.5-0.3-3.7-0.5c0.1-0.2,0.2-0.5,0.3-0.7
	c1.2,0.2,2.4,0.5,3.6,0.7C89.2,189.3,89.1,189.4,89.1,189.6z M186.4,156.5c-0.2-0.5-0.5-0.8-0.5-1.2c0-0.1,1-0.4,1.2-0.3
	c0.4,0.2,0.6,0.6,0.9,1C187.6,156.1,187.1,156.2,186.4,156.5z M75.7,137.6c-1.3-0.3-2.7-0.7-4-1c0.1-0.2,0.2-0.4,0.3-0.5
	c1.3,0.3,2.7,0.7,4,1C75.9,137.2,75.8,137.4,75.7,137.6z M100.6,196.1c0.9,0.2,1.9,0.3,2.8,0.5c-0.1,0.3-0.2,0.6-0.3,0.8
	c-0.9-0.2-1.9-0.5-2.8-0.7C100.4,196.5,100.5,196.3,100.6,196.1z"/>
<path class="st2" d="M555.1,181.6c-1.2-0.2-2.2-0.3-3.3-0.4c-0.9-0.1-2.3-1-2.6,0.3c1.3,0.4,2.5,0.5,3.4,0.9s1.4,1.4,2.1,2.4
	c2-0.8,3.6-0.4,5.6,0.5c1.9,1,4.3,2.4,6.9,1.6c0.5-0.1,1.3,0.2,2.1,0.3c-0.2,0.2-0.2,0.4-0.4,0.6c-0.9,0.2-1.6,0.4-3,0.7
	c3.6,1.9,7.7,2.4,10.7,5c-1.2-0.2-1.9-0.2-2.7-0.5c-1.3-0.5-2.6-1.1-4-1.3c-5.4-0.8-10.8-1.8-15.7-4.4c-0.3-0.2-0.7-0.4-1-0.4
	c-2.8,0.2-5.1-1.3-7.4-2.2c-3.9-1.6-8.2-2.7-10.9-4.9c-2-0.3-3.8-0.2-4.8-0.8c-2.7-1.6-5.2-3.4-7.7-5.2c1.8-1,4.9-0.1,5.8-1.9
	c-1.4-0.7-2.7-1.5-4.3-2.2c-0.5-0.2-1.3-0.5-1.5-0.4c-1.6,0.8-2.4,0-3.4-0.9c-0.7-0.7-1.9-1-2.9-1.5c-0.3,0.7-0.3,1.1-0.5,1.4
	c1,0.7,1.9,1.4,2.7,2.1c-0.2,0.1-0.2,0.3-0.4,0.4c1.6,0.1,3.3,0.3,4.8,0.3c-0.6,0.7-1,1.3-1.7,1.9c-0.5,0.3-1.1,0.8-1.6,0.7
	c-1.9-0.3-4.4-0.6-5.3-1.5c-1.5-1.2-3.1-1.9-4.8-2.8c-0.2-0.1-0.4-0.3-0.9-0.5c0.3,0.6,0.4,1.1,0.4,1.4c-1.6,0.6-3,1-4.6,1.6
	c-0.4-0.7-0.9-1.4-1.4-2c-0.7,0-1.5-0.1-2.4,0c-0.8-1-1.1-1.7,0-2.5c0.5-0.3,0.4-0.9,0.5-1.5l-5.9,0.8c-0.7-1.3,0.7-3.2-2.6-3.7
	c-0.5,0.2-0.9,0.6-1.4,0.9c-0.9-1-2.1-1.7-0.1-2.3c1.5-0.4,1.3-1.2,0.1-2.1c-1.3,0.2-2.6,0.5-3.9,0.6c-1.2,0-2.5-0.3-3.8-0.5
	c-1.2-0.2-2.6,0.6-3.8-0.9c2,0,3.9-0.1,3.6-2.3c-1.9,0.6-3.9,1-5.2,1.7c-0.6,0.4,0.1,1.6,0.3,2.6c-0.6,0.2-1.6,0.3-2.2,0.5
	c-0.3-0.3-0.5-0.5-0.5-0.6c0.4-1.9-2.2-3-3.3-4.5c-0.1-0.2-0.7-0.3-0.9-0.3c-1.3,0.7-2-0.2-2.3-0.8c-0.7-0.8-1.1-1.6-1.7-2.3
	c-1.3,0.2-2.3,0.5-3.7,0.7c-0.1,0-0.4-0.3-0.8-0.6c0.7-0.3,1.5-0.5,1.9-0.8c-0.8-1.9-1.3-2.3-2.6-2c-1.5,0.4-2.8,1-4.6,1.6
	c1.6,0.5,2.7,0.7,3.7,1c0.1,0.1,0,0.3,0,0.3c-1.2,0.1-2.6,0.2-4.3,0.3c-0.9-2.2-5-3.5-3.8-6.2c0.1-0.3-0.8-0.9-1.6-1.7
	c-1.3,1.3-2.6,2.5-4.1,3.9c1.5,0.2,2.7,0.2,3.9,0.4c1.5,1.3,3.2,2.7,5.2,4.4c-1.5-0.2-2.2-0.3-3.4-0.5c0.4,1.1,0.7,2,1.3,3.1
	c-0.7-0.2-1.2-0.3-1.8-0.5c0.1,1,1.1,1.7,2.4,1.7c1.7,0.1,2.1,1,2.6,1.8c0.6-0.1,1.2-0.1,1.8-0.1c1.7,0.3,2.6,1.6,2,2.4
	c-1.3,1.4-1,1.9,1,2.8c1.1,0.5,2.1,0.9,3.3,1.3c0.4,2,1.8,3.7,4,4.5c3.1,1.2,4.8,2.9,6.2,4.8c0.8,1.1,1.8,2.4,3.2,3.2
	c2.1,1.1,3.1,2.2,2,3.8c2.8-0.1,5.6,1,6.6,2.8c0.7,1.2,1.6,1.8,3.1,2.5c3.4,1.7,6.7,3.6,9.7,5.4c1.5,0.9,1.5,1.2-0.4,1.8
	c0,0.8-1,0.8-1.8,0.8c0.6,1.5,1.7,2.9,4,3.8c-1.3-0.1-2.4-0.2-3.7-0.3c-0.1,0.8-0.2,1.6-0.4,2.4c-0.7-0.2-1.1-0.4-1.6-0.5
	c-0.4-0.1-0.7-0.1-1.2-0.2c0.1,1.7,2.1,1.5,3.3,2.1c3,1.7,6.5,3.3,10.3,4.4c1.7,0.4,3,1.4,4.6,2.2c0.6,0.3,1.1,0.5,1.5,0.7
	c1.3,0.5,2.8,1,4.2,1.6c1.6,0.7,3.2,1.2,4.3,1.6c1,1.1,1.6,2.1,2.6,2.6c1.7,0.8,2.7-0.1,3.6-0.9c1,0.3,1.8,0.5,2.5,0.7
	c0.3,0.2,0.5,0.4,0.9,0.5c-0.5,0.3-0.8,0.7-1.3,0.9c0.9,1.1,1.5,0.8,2.7,0.5c2.1-0.6,3.6-0.1,5.2,1.7c0.4,0,0.8,0,1.3,0
	c0,1.1,0.2,2,0.3,3.3c1.7-0.9,4.8,0.2,4-2.4c3.2,1.1,6.1,2.1,9,3c1.3,0.5,2.6,1,4,1.3c3.5,0.8,6.8,1.6,10.3,2.4
	c1.3,0.3,2.6,1.2,3.6,1.1c2.8-0.5,5.6,0.3,8.3,0.4c0.1,0,0.3,0.2,0.5,0.4c-0.1,0.4-0.3,0.9-0.4,1.2c2.6,1.7,4.3-0.5,6.7,0.1
	c0.3,0.6,0.6,1.3,0.9,2.2l8.7-1.2c0,0,0,0-0.1-0.1c0,0,0,0,0.1,0c0-0.9,0.7-1.1,2.1-0.8c-0.5,0.9-0.9,1.2-2.1,0.8l0,0l0,0
	c0.2,0.3,0.4,0.6,0.6,0.8c1.5,0.1,3.4-0.2,4.1,0.3c1.4,1.1,3.2,0.7,4.6,1.4c0.5,0.2,1.5,0.2,1.8,0c0.3-0.1,0.1-0.8,0.1-1.1
	c1.8-0.3,3.2-0.5,4.9-0.7c1.4-0.2,2.8-0.6,4.2-0.7c1.4-0.2,2.3,0.3,2.3,1.3c0,0.4-0.2,0.8-0.2,1.3c2.5,0.2,2.5,0.2,4.3-1
	c2.4-1.8,5.8-1.3,8,1c0.5,0.4,1.7,0.7,2.7,1.2c0.2-1.9,2-3.1,3.9-2.9c4.9,0.4,9.3-0.5,13.8-1.3c0.8-0.1,1.5-0.4,2.2-0.4
	c3.7,0.2,7.5,0.3,10.2-1.7c0.4,0.7,0.7,1.1,1,1.4c0.3,0.3,0.8,0.6,1.1,0.8c1.9-0.8-0.7-1.4-0.7-2.3c2.3,0.1,4.8,1.4,6.5,0
	c0-0.5-0.1-1-0.2-1.7c2.1,1.2,4,0.6,4.7,0.1c1.6-1.5,3.2-2.5,6.4-1.9c1.4,0.3,2.7,0,4.1-0.1c1.2-0.1,2.6-0.2,4.1-0.3
	c0.4,1,0.6,1.9,1,3c1.2-0.1,2.9,0.1,3.7-0.3c3-1.3,5.8-2.9,8.6-4.3c2.8-1.5,5.8-2.9,8.6-4.5c3-1.7,5.9-3.5,8.8-5.4
	c4-2.8,8-5.7,10.4-9.5c1.5-2.4,2-5.2,5.1-6.8c0.8-0.4,0.7-1.4,1.4-2.1c1.5-1.8,1-4.8,5.3-5.2c0.1,0,0.3-0.2,0.3-0.4
	c0.4-2,2.4-3.2,4.1-4.5c2.5-2,1.7-4.4,1.8-6.8c0-0.4-1-1.1-1.8-1.6c-0.5-0.4-1.4-0.6-2.2-0.9c0.2-1.1,0.3-2.3,0.4-3.5
	c-1.9,0.1-3.5,0.2-5.2,0.2c-0.6-0.1-1.6-0.2-1.8-0.6c-0.3-0.3,0-0.9,0.4-1.2c2.4-1.4,3.3-3.4,3.5-5.8c-3-0.4-4.9-1.9-6.6-3.6
	c-1.7,0.3-3.2,0.7-4.8,1c-0.1-0.2-0.3-0.3-0.4-0.5c2.2-1,4.4-1.9,7-3c-1.6-0.4-2.6-0.7-4-1c1.4-2,3.4-3.7,0.6-6.3
	c-3.7,0.7-7.4,1.4-11.2,2.2c-0.1,0-0.2,0.1-0.3,0.1c-1.4,0.4-2.8,0.9-4.2,1.2c-4.4,0.9-8.8,1.8-13.3,2.3c-2.8,0.3-6,0.3-9-0.2
	c-2.7-0.3-5.3-0.6-8-0.4c-0.6,0.1-1.1,0-1.7,0.1c0,0.1,0,0.2-0.2,0.2c-9,3.7-19.2,6.3-29.5,8.5c0.1,0.1,0.1,0.1,0.1,0.2
	c-0.5,0.2-0.9,0.6-1.3,0.8c-3.9,1.4-7.6,2.8-11.5,4.3c-1.3,0.6-2.6,1-3.8,1.7c-1.6,0.8-2.6,2.2-5.5,1.6c-0.4,0-0.9,0.2-1.2,0.3
	c-3.1,1.1-6,2.3-9.1,3.5c-1.9-1-3.7-2-5.4-2.8c-1.7,0.4-3.6,0.3-5.6,0.1c-1.7-0.2-3.3-0.3-4.8-0.2c0.6,0.2,1.2,0.5,1.8,0.7
	c-1.2,1.6-1.7,1.6-3.6,0.2c-0.8,0.4-1.7,0.7-3,1.3c0-0.8,0-1.4,0.1-1.9c-2.5,0.2-4.7,0.5-7,0.2c-0.4,1.6-3,1.9-3.7,3.3
	c-0.4,0.6-1.1,0.9-1.7,1.5c2.9,0.2,1.2,2.1,3.7,2.9c-1.4,0.1-1.9,0.1-2.8,0.2c0,0.9,1.5,2.5-1.4,2.4c-0.1-0.2-0.3-0.4-0.4-0.6
	c-0.2-0.2-0.5-0.4-1-1c0.2,3,1.5,3.6,7,3.2c-1.5,1.8-4,0.9-6.4,0.7c2.3,2,5.3,1.8,7.9,2.6c-1.6,0.5-3.1,0.3-4.8-0.1
	c-1.5-0.4-3.4-0.9-4.8-0.8c-2,0.3-3.3-0.1-4.7-1.3c-0.7-0.7-1.3-1.7-3-1.1c0.6,1.1,0.4,2.1-1.5,2.4c-3.7-1.6-8.7-0.9-11.5-3.9
	c-1.5,0-2.9,0.5-3.9,0.1C561.6,184.9,557.6,184,555.1,181.6z M462.1,155.1c0.2-0.1,0.3-0.4,0.7-0.4c0.4-0.1,0.6,0.1,1.5,0.2
	c-0.8,0.3-1.1,0.5-1.3,0.5C462.5,155.4,462.3,155.2,462.1,155.1z M464,157.9c0.3-1.3,1.1-1.4,2.8-0.6
	C465.7,157.6,465.1,157.7,464,157.9z M487.7,161c0.5,0.2,0.9,0.3,1,0.4c0,0.3-0.1,0.6-0.2,0.8c-0.4-0.1-0.7-0.2-1.1-0.3
	C487.4,161.6,487.5,161.3,487.7,161z M507,202.4c-0.3-0.2-0.9-0.3-1.1-0.6c-0.1-0.2,0.1-0.5,0.3-1c0.5,0.4,1,0.5,1,0.7
	C507.3,201.9,507.1,202.1,507,202.4z M502.9,196.1c1.9-0.7,2.6,0.2,3.4,0.6c0,0.2-0.2,0.3-0.2,0.4
	C505.3,197,504.4,196.6,502.9,196.1z M507.7,199.9c-0.5-0.1-1.1-0.3-1.6-0.4c0-0.2,0.1-0.4,0.3-0.5c0.6,0.2,1.2,0.3,1.7,0.5
	C507.8,199.6,507.8,199.8,507.7,199.9z M489.2,167L489.2,167c-0.2,0-0.2,0-0.2,0c-0.8,0.4-1.7,0.7-2.5,1.2c-4-2-4.9-3.8-3.2-6.5
	c2.3,1.2,2,2.5,1.4,4c1.4,0.4,2.8,0.9,4.3,1.2l0.1,0C489.2,166.9,489.2,167,489.2,167c0.7,0.2,1.5,0.5,3,1
	C490.1,168.3,489.7,167.5,489.2,167z M500.1,174.7c-0.5-0.4-0.9-0.5-1.2-0.8c0.2-0.1,0.4-0.4,0.5-0.4c0.3,0.1,0.6,0.2,0.8,0.4
	C500.4,174.2,500.1,174.4,500.1,174.7z M540,215.2c-0.8,0.3-1.4,0.7-2.3,0.7c-1.6,0.1-4.6-1.4-6-2.5c2.7,0.4,5.4,0.8,8,1.3
	L540,215.2z M520.8,178c-3.5-0.2-4.9-2.2-7-4.1c3.8-0.6,3.8,3.2,7.3,2.1C521.1,177.1,521,177.5,520.8,178z M537.7,183.7
	c-1.1-0.3-2.3,0.5-3.5-0.8c-0.6-0.9-3.4-0.3-3.2-2.4c2.6,1.1,4.8,2,6.9,2.8C537.8,183.5,537.7,183.6,537.7,183.7z M543.4,185.7
	c-0.4,0-1,0-1.4-0.1c-0.4-0.1-0.7-0.4-0.9-0.6c0.2-0.1,0.2-0.2,0.5-0.3c0.7,0.2,1.4,0.6,2.1,0.9
	C543.6,185.4,543.5,185.4,543.4,185.7z M708.4,159.7c1.1-0.1,2.3-0.2,3.5-0.2c0.1,0.2,0.1,0.3,0.2,0.4l-3.4,0.4
	C708.6,160.2,708.5,160,708.4,159.7z M575.1,189.4c0.6,0.3,0.9,0.6,1.4,0.9c-0.2,0.1-0.3,0.4-0.5,0.3c-0.5-0.2-1-0.5-1.5-0.7
	C574.7,189.8,574.9,189.5,575.1,189.4z M426.5,98.7c1.8,0.3,3.7-0.4,5.6,0.7c0.2,0,1.2-0.7,2-1c-0.6-0.4-1.1-0.5-1.3-0.4
	c-0.9,0.4-1.6,0.1-1.9-0.7c-0.4-0.8,0.3-1.1,1.3-1c0.9,0,1.8,0.3,2.8,0.5c0.2,2.6,0.2,4.9-0.5,7c-0.4,0.1-0.6-0.1-0.9,0.1
	c-0.6-0.9-1.5-1.7-2.2-2.7c-0.2,1.7-0.3,3.2-0.3,5.1c0.9-0.2,1.2-0.4,1.8-0.5c0.5-0.1,1.1,0,1.1,0c0.6,1.2,1.2,2.2,1.7,3.2
	c0.4,1,0.7,2,1,3.2c1.1-0.6,1.9-1.1,2.7-1.5c-0.5-0.4-1-0.7-1.6-1.2c3.1-0.8,0-3.1,2.1-4.3c-1.3-0.2-1.9-0.2-2.7-0.3
	c-0.1-0.9-0.3-1.7-0.5-2.6c-0.3-2.2,0.7-2.6,4.5-1.8c0.2,1.6,0.2,3.3,0.6,5c0.4,1.7,1.4,3.6,2,5.4c-2.1,1.4-2,1.7,0.1,3.1
	c0.8,0.5,1.6,1.1,2,1.8c0.8,1,1,2.1,1.8,3.2c1.9,2.6,3.1,5.1,3.1,7.9c1.3,0.1,2.7,0.2,4.3,0.3c-1.4-2.4,0-4.8-2.3-7.2
	c-3.3-0.4-3.5-0.5-4.4-2c-1.1-1.7-2.2-3.5,0.8-4.7c-3.9-2-3.9-4.5-4.2-6.9c-0.2-1.5-0.1-3.1-0.9-4.4c-1.5-2.1-0.3-3.7-0.1-5.5
	c0-0.3,0.9-0.5,1.3-0.8c1.5,2.8,1.7,5.1,1.7,7.6c0,0.9,0,2.2,0.6,2.6c1.4,0.8,1.2,1.4,0.9,2.2c-0.3,0.8-0.5,1.5,0.5,2.5
	c2-1.1,1.9-2.8,1.3-4c-1.1-2.4-0.6-4.3,0.8-6.2c0-0.1-0.2-0.3-0.3-0.5c-3.6-0.1-4.8-1.2-3.8-3.4c0-0.2,0.2-0.3,0.2-0.4
	c0.8-0.6,0.7-1.1,0-1.9c-0.7-0.8-0.8-1.8-0.9-2.7c-0.5-3.4-1.2-6.8-1.6-10.2c-0.7-5.6,1.5-10.5,3.3-15.5c0.1-0.3,0.9-0.5,1.2-0.7
	c0,1.4-0.7,2.5-1,3.8c-0.4,1.2,0.1,2.4,1.4,3.9c0.1-1,0.3-1.7,0.4-2.4c0.4-1.6,0.6-3.1,0.9-4.7c0.9-3.2,1.1-6.7,2.4-9.8
	c2.2-5.5,5.1-10.7,8.1-16c3.7-6.7,7.4-13.4,12.8-19.5c0.7-0.9,0.6-1.9-0.2-3.1c-0.8,0.4-1.3,0.8-1.6,1.1
	c-7.2,5.3-11.6,12.1-17.2,18.3c-1.5,1.6-2.6,3.6-3.8,5.3c-1.3,1.9-2.6,3.7-4,5.5c-1.2,1.7-2.5,3.2-3.7,4.8c-1.4,2-3,3.9-4.4,5.9
	c-1.1,1.7-2.6,3.3-2.9,5.1c-0.3,2.2-2.1,3.8-2.8,5.8c-0.3,0.7-1.4,1.2-2.2,1.5c-2.4,1-3.3,2.6-3.9,4.6c1.9-0.8,3.4-1.4,5.4-2.1
	c0.4,0.8,1,1.5,1,1.9c-0.5,2.3-1.7,4.2-5.7,4.4c1.1,2.5,0.1,4.2-2.7,5.3c0.1,0.2,0.3,0.3,0.4,0.5c1.7-0.1,3.2,0,5.4,0
	c-0.1,1.4-0.4,2.6-0.5,3.9c0,0.9-0.3,1.5-1.7,1.6c-1.8,0.1-2.1,1-2.5,2.5c1.5-0.7,2.1-1.8,4.2-0.8c-1.6,0.4-1.9,1.2-1.7,2.3
	c0.2,0.9-0.6,1.9-1.3,2.5c-0.3,0.4-1.8,0.1-2.6,0.1C424.4,98.4,425.5,98.6,426.5,98.7z M443.8,92.5c0.3,0.2,0.6,0.2,0.7,0.3
	c0.1,0.1-0.1,0.3-0.1,0.4c-0.3,0-0.4,0-1-0.1C443.6,92.8,443.7,92.7,443.8,92.5z M435.3,94.3c1.1-1.7-0.4-4.3,2.1-5.6
	c0.3,2.5,1.7,5.1-1.3,7.2C435.8,95.2,435.1,94.5,435.3,94.3z M437.2,97.2c0.2,0.1,0.5,0.4,0.8,0.5c-0.5,0.3-0.7,0.6-1.3,0.9
	c0,0-0.6-0.3-0.7-0.4C436.5,97.8,436.9,97.5,437.2,97.2z M431.4,93.8c0.3-0.1,0.7-0.2,1.4-0.3c0.4,1.1-0.2,1.5-2.1,1.3
	C431,94.2,431,94,431.4,93.8z M498.3,160.7c0.8-2-0.4-3.7-5.1-6.4c1.5,0.1,2.8-0.1,2.2-1.3c0.6,0.1,1.3,0.1,2.4,0.1
	c-1.4,2,0.6,3.2,2.1,4.7c1.4,1.6,2.7,3.1,4.3,4.8c1-0.1,2-0.3,3.6-0.5c-1.3-0.4-2.4-0.6-3.8-1c1-0.5,1.6-0.8,2.6-1.3
	c-1.3-0.8-2.4-1.5-3.7-2.4c0.9,0,1.9,0,2.1,0.2c1.7,1.9,3.3,3.8,4.7,5.5c-2.2,1.2-4,2.2-5.9,3.3c-0.5,0.6,2,1.7,0,2.1
	c-0.9-0.9-1.8-1.6-2.8-2.5l0.1,0.1c0.6-0.7,1.3-1.4,2-2.4c-0.4-0.5-1.2-1.4-1.8-2.2c-1.9,0.1-3.6,0.2-5.7,0.4
	c-0.1-0.9-0.2-1.6-0.3-2.8C496.7,159.7,497.5,160.2,498.3,160.7z M420.6,113.6c-0.5-0.5-1.1-1.2-1.8-2.2c2.8-0.9,5.3-1.7,5.9-3.9
	c0-0.2,0.1-0.3,0.1-0.5c0.8-1-0.9-2.3,0.6-3.3c1-0.6,1.2-1.8,1.9-3c1.9,1,1.7,2.6,1,3.2c-1.7,1.5-0.9,3.3-0.9,5c0,1.2,0,2-1.2,2.9
	c-1.2,0.8-1.4,2.3-1.9,3.5c-0.3-0.1-0.5-0.1-0.8-0.2c0.1-0.9,0.2-1.8,0.3-2.8C421.2,111.1,422.3,113.8,420.6,113.6z M557.4,229.2
	c-1.1-0.5-2.3-0.8-2.9-1.3c-0.4-0.5,0.3-1.3-0.8-1.6c-0.9-0.2-2-0.1-3.1-0.1c1.4,1.6,1.2,2.7-0.7,2.9c-1.1,0.1-1.7,0.4-2.1,1.1
	c-0.1,0.3-0.8,0.4-1.2,0.5c-0.2,0.6-0.4,1.2-0.5,2c0.7,0,1.7,0.1,1.8,0c0.5-1.3,1.7-0.9,3.1-0.6c1.5,0.2,2.9,0.7,4.6,1
	c-0.9-1.4-1.6-2.5-2.3-3.7C554.7,229.4,556.2,230.2,557.4,229.2z M551.8,230.8c-0.3,0-0.7,0-0.9-0.1c-0.2,0,0-0.3-0.1-0.7
	c0.4,0.1,0.8,0.2,1,0.3C551.9,230.3,551.9,230.8,551.8,230.8z M444.2,141.7c3.7,1.2,4.4,3,2.3,4.6c-0.6,0.6-0.8,1.6-1.2,2.4
	c-0.3-0.1-0.5-0.1-0.6-0.1C444.3,146.4,440.2,143.8,444.2,141.7z M537.5,176.7c-1.1,0.1-2.3,0.2-3.5,0.2c-0.8-0.7-1.4-1.4-2.1-2.3
	c4.3,0.1,7.5,2,11.1,3.4c-0.9,1.4-2.3,1.5-3.9,1.3C536.8,178.8,538.5,177.5,537.5,176.7z M429.2,122.8c-2,0.3-3.7,0.9-4,2.4
	c-3.4-1.3-3.4-1.3-2.6-3.2c0.9,0.6,1.5,1,2.4,1.6c0.5-0.9,0.7-1.5,1.1-2.3C427.1,121.8,428.2,122.3,429.2,122.8z M453.3,143.4
	c0.4-0.4,1.4-0.9,2.1-0.8c0.6,0.1,1.8,0.7,2.1,1.2c0.4,0.7,0.3,1.5,0.6,2.8c-1.8-0.7-3-1-4-1.6C453.5,144.6,453.1,143.7,453.3,143.4
	z M546.6,230.5c-0.8-0.3-1.8-0.5-2.5-0.6c-0.8-1-0.3-2.2-2.5-2.8c-0.5-0.1-0.9-1.5-1.6-2.8C543.2,226.3,546.7,227.5,546.6,230.5z
	 M424.7,116.6c1.3,0.3,2.4,0.6,4,0.9c-2.6,0.7-2.7,3.1-6.5,3.1C423.1,119.2,423.8,118,424.7,116.6z M493.2,150.1
	c0.7,1,1.4,1.9,2.2,2.8c-2.7-1.2-4-2.7-4.8-4.6c1.6-1,3.2-1.9,4.5-2.9c-0.2,0.7,0.4,1.6-1.2,1.9
	C492.4,147.6,492.2,148.7,493.2,150.1z M464,138.1c2.3,0.4,4.4,0.8,6.5,1.1c0.1,0.1,0.1,0.3,0.2,0.3c-1.9,0.5-4,1-6.3,1.6
	C464.3,139.8,464.2,138.9,464,138.1z M581.3,179.7c0.1-2.7,2.2-3.2,5.4-3.6C585.9,178.3,583.2,178.4,581.3,179.7z M662.1,235.1
	c2.2-0.7,3.9-1.2,5.8-1.7c0.9,2.1-1.3,2.2-2.7,2.8C663.9,236.5,662.9,235.9,662.1,235.1z M432.5,119.8c1.3,0.5,2.2,0.8,3,1
	c-0.6,0.6-1.1,1-1.4,1.6c-0.1,0.7,0,1.5-1.6,1.5C432.5,122.7,432.6,121.4,432.5,119.8z M578.3,187.5c-1.2-1-1.9-1.6-2.8-2.4
	c0.2-1.6,2.7-1.6,4.6-2.8c-0.2,0.7-0.1,1.3-0.4,1.7C577.8,185.5,577.9,185.4,578.3,187.5z M635.6,237.3c-2.2,0-3.9,0.1-5.3,0.1
	c-1.2-0.8-2.5-1.4-3.7-2c0-0.2,0.1-0.3,0.1-0.5C629.4,235.7,632.1,236.5,635.6,237.3z M462.2,133.2c-0.1-0.5-0.3-0.9-0.5-1.8
	c1,0.6,1.7,1,2.3,1.4c-0.3,0.7-0.7,1.3-0.4,1.8c0.2,0.4,1.6,0.6,0.2,1.3c-1.3-1.1-2.6-2.3-3.9-3.3c0-0.1,0.3-0.1,0.3-0.2
	C460.9,132.6,461.3,132.9,462.2,133.2z M500.2,195.7c-0.8,0-2.4-0.6-1.8,0.8c-0.7-0.2-1.4-0.4-2.3-0.7c0.1-0.9,0.3-1.6,0.5-2.4
	C499.3,193.9,499.7,194.1,500.2,195.7z M470.9,146.3c-0.6,0.2-1.2,0.5-1.8,0.8c-0.2-0.1-0.5-0.4-0.8-0.5c1.2-0.5,0.4-2.3,2.7-2
	c0.8,0.1,1.5,0.8,2.6,1.5C472.4,146.2,471.6,146.1,470.9,146.3z M536.6,221.4c-1.3-0.1-2.8-0.8-4.4-1.2c0-0.2,0.1-0.3,0.1-0.5
	c1.9,0.2,3.8,0.5,5.7,0.8c0.6,0.1,1.3,0,1.9-0.1C539.6,221.8,537.7,221.5,536.6,221.4z M565.9,232.8c0.2,0.7,0.3,1.5,0.4,2.6
	c-1.2-0.5-2.1-0.7-3-1C564,233.5,563.8,232.3,565.9,232.8z M537.6,224c-0.6,0.5-1.3,0.8-1.7,1.1c-0.6-0.5-1.1-0.9-1.7-1.4
	c-0.4-0.4-0.9-0.8-1.8-1.5C534.8,222.4,536,223.3,537.6,224z M570.4,230.7c-2.5-0.5-4.1-0.9-6.1-1.3
	C567,228.2,567.5,228.3,570.4,230.7z M576.9,176c0.1-0.4,0.4-0.7,0.5-1.1c1.9,0.8,2.4,1.9,1.2,2.3c-0.7,0.4-1.7,0-2-0.7
	C576.8,176.5,576.8,176.1,576.9,176z M505.9,156.6c-3.3-2.3-3.4-2.3-0.9-2.9C505.2,154.5,505.4,155.3,505.9,156.6z M477.5,146.6
	c-0.4-1.1-0.7-2-1.1-3C479.2,145.4,479.2,145.4,477.5,146.6z M486.1,150.1c1.7,0.1,3,0.1,4.7,0.2c-1.1,0.7-1.9,1.2-2.8,1.7
	C487.4,151.4,486.9,151,486.1,150.1z M430.7,125.1c-0.5,0.6-1.1,0.9-2,1.7c-0.9-1.5-1-2.3,0.4-2.5
	C429.3,124.3,429.9,124.8,430.7,125.1z M678.8,229.2c1.2-0.3,2.2-0.7,3.5-1c0.3,0.5,0.4,0.9,0.8,1.7
	C681.4,229.4,680.3,230.3,678.8,229.2z M488,155.5c0.8,0.6,1.6,1.2,2.6,2C488.4,157.6,488.4,157.6,488,155.5z M496.8,200.4
	c-1.2-0.8-2.4-1.4-3.7-2.1C494.7,198.1,495.7,198.5,496.8,200.4z M601.9,237.1c0.2,0.2,0.4,0.4,0.7,0.7c-0.3,1.1-1.2,1.3-3.6,1
	C600.5,238,601.2,237.6,601.9,237.1z M511.8,163.6c0-0.9,0-1.8,0-2.8C513.7,162.2,513.8,162.9,511.8,163.6z M673.6,232
	c1.2-0.5,2.3-1,4-1.8C677,231.8,675.8,232.4,673.6,232z M490.3,154.6c2.2,0.8,2.2,0.8,1.7,2.4C491.6,156.4,491.1,155.7,490.3,154.6z
	 M457.1,134.8c0-0.9,0.1-1.5,0-2.2C459.7,133.9,459.7,133.9,457.1,134.8z M479.2,155.1c0.1,0,0.1,0,0.3,0
	C479.4,155.2,479.4,155.2,479.2,155.1L479.2,155.1c-0.5,0.9-0.5,0.9-2.3,0.6c0-0.5,0-1.1,0-1.6c0.2,0,0.4,0,0.5,0.1
	C478.2,154.5,478.6,154.8,479.2,155.1z M530.6,226.8c-0.3,0-0.4,0-0.7,0c-0.2-0.6-0.5-1.2-0.8-1.9
	C531.6,225.2,530.8,226.1,530.6,226.8z M531.6,224.6c1.8,0.4,2.7,0.6,3.8,0.8c-0.5,0.4-1.1,0.8-1.8,1.2
	C533,225.9,532.6,225.5,531.6,224.6z M469.1,173.6c0.8,0.4,1.7,0.8,2.7,1.3C469.6,175.3,469.6,175.3,469.1,173.6z M469.7,149
	c1.1,0.3,2.1,0.6,3.3,0.9C471,150.8,471,150.8,469.7,149z M414.6,101.7c1.2-0.3,2-0.6,2.7-0.8c0.2,0.1,0.3,0.3,0.5,0.5
	C417.3,102.2,416.7,102.8,414.6,101.7z M658.7,236c0.2,0.1,0.4,0.3,0.8,0.5c-0.2,0.8-1.5,0.9-2.2,1.3c-0.2-0.1-0.4-0.3-0.5-0.4
	C657.3,237,657.9,236.5,658.7,236z M548.5,225.6c-1.1-0.3-2.4-0.6-3.5-0.9c0.2-0.2,0.1-0.5,0.3-0.7c1.2,0.3,2.3,0.7,3.5,1
	C548.7,225.3,548.6,225.5,548.5,225.6z M568.9,181.9c-0.6,0.6-1.1,1.1-2.2,2.1C566.4,182.4,567.7,182.2,568.9,181.9z M442.9,117
	c-0.6,0.2-1.3,0.2-1.9,0.4c0,0-0.4-0.4-0.3-0.4c0.5-0.3,0.9-0.6,1.3-0.8C442.6,116.4,442.6,116.8,442.9,117z M535.5,225.3
	c0.1,0,0.4-0.1,0.5-0.1c1.2,0.6,2.5,1.1,1,2.2C535.8,226.9,535.7,226,535.5,225.3z M490.3,141.8c0.1-0.4,0.5-0.9,0.6-1.2
	c0.3,0.2,0.7,0.2,1.1,0.4c-0.2,0.4-0.5,0.7-0.7,1.2C491.3,142,490.8,141.8,490.3,141.8z M446.8,128c1.2,0.8,1.8,1,2.8,1.6
	C447.5,130,447.1,129.4,446.8,128z M429.6,145.3c0-0.2,0.1-0.3,0.1-0.6c0.6,0.1,1.3,0.1,2.1,0.2c0,0.3-0.1,0.6-0.1,0.7
	C430.9,145.6,430.3,145.5,429.6,145.3z M427.6,132.7c0.3,0.6,0.7,1.1,0.9,1.5c-0.3,0-0.5,0.1-0.8,0.1c-0.3-0.6-0.5-1-0.9-1.6
	C427.2,132.7,427.5,132.7,427.6,132.7z M491.7,193.6c-1.2-0.6-1.9-1-2.5-1.4C490.8,191.8,491.2,192.2,491.7,193.6z M492.5,143.8
	c-0.8,0.4-1.7,0.9-2.9,1.4C489.4,143.6,491.3,144,492.5,143.8z M586.9,182.9c0.1-0.8,0-1.3,0.1-1.9
	C588.4,181.7,588.4,181.7,586.9,182.9z M440.9,131.4c0.6,0.1,1.2-0.1,1.9-0.1c0.1,0.2,0.2,0.3,0.3,0.5c-0.4,0.1-0.7,0.2-1.1,0.2
	c-0.3-0.1-0.7-0.1-0.9-0.2C440.9,131.7,440.9,131.6,440.9,131.4z M448.5,142.9c0-0.1,0.1-0.3,0.1-0.4c0.8,0.3,1.6,0.5,2.4,0.7
	c-0.2,0.2-0.2,0.3-0.3,0.5C449.9,143.4,449.2,143.2,448.5,142.9z M414.4,111.7c0.7-0.1,1.3-0.2,2-0.3
	C416.2,112.7,416.2,112.7,414.4,111.7z M421.4,118.8c-0.3,0-0.6-0.1-0.8,0c0-0.4-0.3-0.9-0.5-1.4c0.4-0.1,0.6,0.1,0.9-0.1
	C421.1,117.9,421.2,118.4,421.4,118.8z M620.5,243.7c-0.9,0.3-1.6,0.6-2.7,1C618,243.4,618.6,243,620.5,243.7z M460.8,148.1
	c0.4-0.1,0.5-0.1,0.9-0.2c0.4,0.5,0.7,1,1.1,1.4c-0.3,0-0.4,0.2-0.6,0.2C461.6,149,461.3,148.5,460.8,148.1z M558.8,233.8
	c1,0,2,0.1,3,0.1c0.1,0.2,0,0.3,0,0.4c-0.9,0.1-1.9,0.1-2.8,0.2C558.9,234.1,558.9,234,558.8,233.8z M580.6,232.6
	c1.1,0,2.2,0.1,3.3,0.1c0,0.2,0,0.3,0,0.5c-1.2-0.1-2.4-0.2-3.5-0.2C580.5,232.8,580.5,232.7,580.6,232.6z M573.4,173.4
	c0.7,0.2,1.6,0.5,2.9,1C574.1,174.9,573.6,174.2,573.4,173.4z M630.3,237.6c0.4,0.4,0.9,0.9,1.4,1.2c-1.1,0.7-1.8,0-2.3-0.6
	C629.3,238.1,630.1,237.8,630.3,237.6z M592.3,175.7c-0.2,0-0.1-0.7,0.2-0.7c0.5-0.1,0.9,0.1,1.7,0.3c-0.2,0.4-0.4,0.9-0.5,1
	C593.1,176.2,592.7,176,592.3,175.7z M449.5,158.2c0.1,0,0.6,0.2,1.1,0.3c-0.3,0.4-0.4,0.6-0.7,0.6c-0.3,0-0.6-0.2-0.9-0.3
	C449.2,158.7,449.3,158.4,449.5,158.2z M420.8,102.9c-0.2-0.1-0.6-0.3-0.7-0.4c0.5-0.3,0.7-0.7,1.1-1c0.2,0.1,0.5,0.2,0.6,0.4
	C421.6,102.1,421.1,102.5,420.8,102.9z M441,140.1c0.5-0.1,1-0.3,1.6-0.5c0.1,0.3,0.3,0.4,0.4,0.7c-0.6,0.1-1.1,0.3-1.7,0.3
	C441.3,140.4,441.2,140.2,441,140.1z M449,156.4c-0.4,0.6-0.7,1.4-2.6,0.5C447.5,156.7,448.1,156.5,449,156.4z M615.5,237.6
	c0.6-0.2,1.3-0.2,1.8-0.4c0.1,0.2,0.2,0.3,0.3,0.6c-0.7,0.1-1.2,0.1-1.9,0.3C615.7,238.1,615.5,237.6,615.5,237.6z M481.8,190.4
	c0.5,0.4,1.2,0.8,1.7,1.2c0,0.1-0.2,0.2-0.3,0.4c-0.6-0.4-1.3-0.7-1.9-1C481.4,190.7,481.6,190.5,481.8,190.4z M437.2,134.1
	c0.4,0.3,0.8,0.4,0.9,0.6c0.1,0.2-0.1,0.4-0.3,0.5c-0.3-0.2-0.7-0.2-0.7-0.4C436.8,134.6,436.9,134.4,437.2,134.1z M458.9,166.7
	c0.4,0,0.7,0.1,1.1,0.3c0,0.1-0.1,0.3-0.1,0.4c-0.4,0.1-0.7,0-1.5,0C458.8,166.9,458.9,166.6,458.9,166.7z M479.5,155.1
	c0.8-0.4,1.5-0.8,2.2-1C481.8,155.2,480.4,155,479.5,155.1z M519.8,222.9c0.6,0.1,1.3,0.1,1.9,0.1c0,0.2,0,0.3,0,0.4
	c-0.6-0.1-1.3-0.1-2-0.2C519.9,223.1,519.9,223,519.8,222.9z M422.1,99.7c-0.3-0.1-0.4,0-0.6-0.1c0-0.4,0-0.9,0-1.4
	c0.3,0.1,0.4,0,0.6,0.1C422.1,98.7,422.1,99.2,422.1,99.7z M473.5,140.3c-0.3-0.2-0.7-0.2-1-0.4c-0.1-0.1,0-0.3,0.1-0.8
	C473,139.7,473.2,140,473.5,140.3z M481.7,153.9c-0.3-0.5-0.4-1-0.7-1.6C483.2,152.9,482.3,153.4,481.7,153.9z M420.1,81.3
	c0-0.2,0.3-0.4,0.5-0.6c0.3,0.2,0.7,0.2,0.8,0.4c-0.2,0.2-0.4,0.4-0.8,0.6C420.7,81.8,420.2,81.5,420.1,81.3z M551.9,224.9
	c-0.3,0-0.7-0.1-0.7-0.3c-0.1-0.1,0.1-0.3,0.3-0.7c0.6,0.3,0.8,0.4,1,0.6C552.3,224.7,552.1,224.9,551.9,224.9z M459.4,142.8
	c-0.4,0-0.7-0.2-1.4-0.4c0.5-0.2,0.7-0.4,0.8-0.4c0.3,0.1,0.6,0.2,0.9,0.3C459.6,142.5,459.5,142.7,459.4,142.8z M456.3,149
	c0-0.1,0.2-0.2,0.3-0.2c0.4,0.3,0.9,0.6,1.3,0.8c0,0.1-0.2,0.1-0.2,0.2C457.2,149.5,456.7,149.3,456.3,149z M443,121.3
	c0.1,0,0.3,0.1,0.4,0c0,0.4,0.1,0.8,0.3,1.2c-0.3-0.1-0.5-0.1-0.8-0.2C442.9,122.1,442.9,121.6,443,121.3z M442.2,137.9
	c-0.6,0.1-1.1,0.2-1.5,0.2c-0.1-0.2-0.1-0.3-0.2-0.4c0.6-0.1,1.1-0.2,1.5-0.2C442,137.6,442.2,137.9,442.2,137.9z M427.7,89.2
	c-0.1,0-0.6-0.2-0.6-0.3c0.1-0.3,0.2-0.4,0.5-0.9c0.6,0.3,0.7,0.4,0.9,0.6C428.2,88.9,427.9,89.1,427.7,89.2z M590.5,175.3
	c-0.2-0.1-0.5-0.2-0.6-0.4c0.3-0.4,0.6-0.6,0.9-0.9c0.2,0,0.3,0.2,0.6,0.3C591.1,174.6,590.8,175,590.5,175.3z M489.7,138.1
	c-0.1-0.1,0.2-0.3,0.3-0.4c0.3,0.1,0.6,0.2,1,0.3c-0.3,0.2-0.5,0.4-0.8,0.4C490,138.6,489.8,138.3,489.7,138.1z M482.5,150.9
	c0.1,0,0.4-0.2,0.4-0.2c0.3,0.3,0.7,0.5,0.9,0.9c-0.3,0-0.3,0.1-0.5,0.1C483,151.5,482.8,151.2,482.5,150.9z M447.1,80
	c-0.2,0-0.3-0.2-0.5-0.4c0.2-0.2,0.3-0.4,0.4-0.5c0.2,0,0.6,0.3,0.6,0.3C447.4,79.6,447.2,79.8,447.1,80z M650.5,238
	c0.2,0,0.2,0.2,0.4,0.4c-0.4,0.2-0.8,0.4-1.2,0.5c-0.2,0-0.2-0.2-0.4-0.3C649.7,238.3,650.1,238.1,650.5,238z M460.3,128.1
	c0,0.2-0.1,0.4-0.3,0.5c-0.2,0-0.5-0.2-0.6-0.3c-0.1-0.1,0.1-0.3,0.1-0.4C460,128.1,460.2,128.1,460.3,128.1z M570.7,177.5
	c-0.2-0.1-0.4-0.4-0.5-0.5c-0.1-0.1,0.3-0.1,0.6-0.2c0.1,0.3,0.3,0.4,0.4,0.7C571.2,177.3,571,177.4,570.7,177.5z M474.7,149.9
	c0.1-0.3,0-0.6,0.1-0.9c0.2,0.1,0.4,0.4,0.5,0.6C475.3,149.6,475,149.6,474.7,149.9z M460.4,119.3c0.3,0.2,0.6,0.4,0.8,0.5
	c0.1,0.1-0.2,0.3-0.4,0.4c-0.2-0.1-0.4-0.4-0.7-0.5C460,119.5,460.2,119.4,460.4,119.3z M484.6,154.9c-0.2,0.2-0.5,0.4-0.8,0.6
	c-0.1,0-0.6-0.3-0.9-0.6c0.3-0.2,0.6-0.5,1.1-0.5C484,154.5,484.5,154.8,484.6,154.9z M622.9,236.7c0.1,0.2,0.3,0.4,0.4,0.6
	c-0.4,0.2-0.9,0.2-1.3,0.4c-0.1-0.1-0.2-0.2-0.3-0.3C622.3,237,622.7,236.9,622.9,236.7z M629,175.5c-0.2-0.4-0.8-1-0.6-1.3
	c1-1.1,2.2-2.1,3.2-3.1c0.3,0.2,0.7,0.2,0.9,0.5c-0.5,1.2-0.9,2.5-1.7,3.6C631,175.4,629.8,175.3,629,175.5z"/>
<path class="st3" d="M560.1,196.6c-1.2-0.2-2.2-0.3-3.3-0.4c-0.9-0.1-2.3-1-2.6,0.3c1.3,0.4,2.5,0.5,3.4,0.9
	c0.9,0.5,1.4,1.4,2.1,2.4c2-0.8,3.6-0.4,5.6,0.5c1.9,1,4.3,2.4,6.9,1.6c0.5-0.1,1.3,0.2,2.1,0.3c-0.2,0.2-0.2,0.4-0.4,0.6
	c-0.9,0.2-1.6,0.4-3,0.7c3.6,1.9,7.7,2.4,10.7,5c-1.2-0.2-1.9-0.2-2.7-0.5c-1.3-0.5-2.6-1.1-4-1.3c-5.4-0.8-10.8-1.8-15.7-4.4
	c-0.3-0.2-0.7-0.4-1-0.4c-2.8,0.2-5.1-1.3-7.4-2.2c-3.9-1.6-8.2-2.7-10.9-4.9c-2-0.3-3.8-0.2-4.8-0.8c-2.7-1.6-5.2-3.4-7.7-5.2
	c1.8-1,4.9-0.1,5.8-1.9c-1.4-0.7-2.7-1.5-4.3-2.2c-0.5-0.2-1.3-0.5-1.5-0.4c-1.6,0.8-2.4,0-3.4-0.9c-0.7-0.7-1.9-1-2.9-1.5
	c-0.3,0.7-0.3,1.1-0.5,1.4c1,0.7,1.9,1.4,2.7,2.1c-0.2,0.1-0.2,0.3-0.4,0.4c1.6,0.1,3.3,0.3,4.8,0.3c-0.6,0.7-1,1.3-1.7,1.9
	c-0.5,0.3-1.1,0.8-1.6,0.7c-1.9-0.3-4.4-0.6-5.3-1.5c-1.5-1.2-3.1-1.9-4.8-2.8c-0.2-0.1-0.4-0.3-0.9-0.5c0.3,0.6,0.4,1.1,0.4,1.4
	c-1.6,0.6-3,1-4.6,1.6c-0.4-0.7-0.9-1.4-1.4-2c-0.7,0-1.5-0.1-2.4,0c-0.8-1-1.1-1.7,0-2.5c0.5-0.3,0.4-0.9,0.5-1.5l-5.9,0.8
	c-0.7-1.3,0.7-3.2-2.6-3.7c-0.5,0.2-0.9,0.6-1.4,0.9c-0.9-1-2.1-1.7-0.1-2.3c1.5-0.4,1.3-1.2,0.1-2.1c-1.3,0.2-2.6,0.5-3.9,0.6
	c-1.2,0-2.5-0.3-3.8-0.5c-1.2-0.2-2.6,0.6-3.8-0.9c2,0,3.9-0.1,3.6-2.3c-1.9,0.6-3.9,1-5.2,1.7c-0.6,0.4,0.1,1.6,0.3,2.6
	c-0.6,0.2-1.6,0.3-2.2,0.5c-0.3-0.3-0.5-0.5-0.5-0.6c0.4-1.9-2.2-3-3.3-4.5c-0.1-0.2-0.7-0.3-0.9-0.3c-1.3,0.7-2-0.2-2.3-0.8
	c-0.7-0.8-1.1-1.6-1.7-2.3c-1.3,0.2-2.3,0.5-3.7,0.7c-0.1,0-0.4-0.3-0.8-0.6c0.7-0.3,1.5-0.5,1.9-0.8c-0.8-1.9-1.3-2.3-2.6-2
	c-1.5,0.4-2.8,1-4.6,1.6c1.6,0.5,2.7,0.7,3.7,1c0.1,0.1,0,0.3,0,0.3c-1.2,0.1-2.6,0.2-4.3,0.3c-0.9-2.2-5-3.5-3.8-6.2
	c0.1-0.3-0.8-0.9-1.6-1.7c-1.3,1.3-2.6,2.5-4.1,3.9c1.5,0.2,2.7,0.2,3.9,0.4c1.5,1.3,3.2,2.7,5.2,4.4c-1.5-0.2-2.2-0.3-3.4-0.5
	c0.4,1.1,0.7,2,1.3,3.1c-0.7-0.2-1.2-0.3-1.8-0.5c0.1,1,1.1,1.7,2.4,1.7c1.7,0.1,2.1,1,2.6,1.8c0.6-0.1,1.2-0.1,1.8-0.1
	c1.7,0.3,2.6,1.6,2,2.4c-1.3,1.4-1,1.9,1,2.8c1.1,0.5,2.1,0.9,3.3,1.3c0.4,2,1.8,3.7,4,4.5c3.1,1.2,4.8,2.9,6.2,4.8
	c0.8,1.1,1.8,2.4,3.2,3.2c2.1,1.1,3.1,2.2,2,3.8c2.8-0.1,5.6,1,6.6,2.8c0.7,1.2,1.6,1.8,3.1,2.5c3.4,1.7,6.7,3.6,9.7,5.4
	c1.5,0.9,1.5,1.2-0.4,1.8c0,0.8-1,0.8-1.8,0.8c0.6,1.5,1.7,2.9,4,3.8c-1.3-0.1-2.4-0.2-3.7-0.3c-0.1,0.8-0.2,1.6-0.4,2.4
	c-0.7-0.2-1.1-0.4-1.6-0.5c-0.4-0.1-0.7-0.1-1.2-0.2c0.1,1.7,2.1,1.5,3.3,2.1c3,1.7,6.5,3.3,10.3,4.4c1.7,0.4,3,1.4,4.6,2.2
	c0.6,0.3,1.1,0.5,1.5,0.7c1.3,0.5,2.8,1,4.2,1.6c1.6,0.7,3.2,1.2,4.3,1.6c1,1.1,1.6,2.1,2.6,2.6c1.7,0.8,2.7-0.1,3.6-0.9
	c1,0.3,1.8,0.5,2.5,0.7c0.3,0.2,0.5,0.4,0.9,0.5c-0.5,0.3-0.8,0.7-1.3,0.9c0.9,1.1,1.5,0.8,2.7,0.5c2.1-0.6,3.6-0.1,5.2,1.7
	c0.4,0,0.8,0,1.3,0c0,1.1,0.2,2,0.3,3.3c1.7-0.9,4.8,0.2,4-2.4c3.2,1.1,6.1,2.1,9,3c1.3,0.5,2.6,1,4,1.3c3.5,0.8,6.8,1.6,10.3,2.4
	c1.3,0.3,2.6,1.2,3.6,1.1c2.8-0.5,5.6,0.3,8.3,0.4c0.1,0,0.3,0.2,0.5,0.4c-0.1,0.4-0.3,0.9-0.4,1.2c2.6,1.7,4.3-0.5,6.7,0.1
	c0.3,0.6,0.6,1.3,0.9,2.2l8.7-1.2c0,0,0,0-0.1-0.1c0,0,0,0,0.1,0c0-0.9,0.7-1.1,2.1-0.8c-0.5,0.9-0.9,1.2-2.1,0.8l0,0l0,0
	c0.2,0.3,0.4,0.6,0.6,0.8c1.5,0.1,3.4-0.2,4.1,0.3c1.4,1.1,3.2,0.7,4.6,1.4c0.5,0.2,1.5,0.2,1.8,0c0.3-0.1,0.1-0.8,0.1-1.1
	c1.8-0.3,3.2-0.5,4.9-0.7c1.4-0.2,2.8-0.6,4.2-0.7c1.4-0.2,2.3,0.3,2.3,1.3c0,0.4-0.2,0.8-0.2,1.3c2.5,0.2,2.5,0.2,4.3-1
	c2.4-1.8,5.8-1.3,8,1c0.5,0.4,1.7,0.7,2.7,1.2c0.2-1.9,2-3.1,3.9-2.9c4.9,0.4,9.3-0.5,13.8-1.3c0.8-0.1,1.5-0.4,2.2-0.4
	c3.7,0.2,7.5,0.3,10.2-1.7c0.4,0.7,0.7,1.1,1,1.4c0.3,0.3,0.8,0.6,1.1,0.8c1.9-0.8-0.7-1.4-0.7-2.3c2.3,0.1,4.8,1.4,6.5,0
	c0-0.5-0.1-1-0.2-1.7c2.1,1.2,4,0.6,4.7,0.1c1.6-1.5,3.2-2.5,6.4-1.9c1.4,0.3,2.7,0,4.1-0.1c1.2-0.1,2.6-0.2,4.1-0.3
	c0.4,1,0.6,1.9,1,3c1.2-0.1,2.9,0.1,3.7-0.3c3-1.3,5.8-2.9,8.6-4.3c2.8-1.5,5.8-2.9,8.6-4.5c3-1.7,5.9-3.5,8.8-5.4
	c4-2.8,8-5.7,10.4-9.5c1.5-2.4,2-5.2,5.1-6.8c0.8-0.4,0.7-1.4,1.4-2.1c1.5-1.8,1-4.8,5.3-5.2c0.1,0,0.3-0.2,0.3-0.4
	c0.4-2,2.4-3.2,4.1-4.5c2.5-2,1.7-4.4,1.8-6.8c0-0.4-1-1.1-1.8-1.6c-0.5-0.4-1.4-0.6-2.2-0.9c0.2-1.1,0.3-2.3,0.4-3.5
	c-1.9,0.1-3.5,0.2-5.2,0.2c-0.6-0.1-1.6-0.2-1.8-0.6c-0.3-0.3,0-0.9,0.4-1.2c2.4-1.4,3.3-3.4,3.5-5.8c-3-0.4-4.9-1.9-6.6-3.6
	c-1.7,0.3-3.2,0.7-4.8,1c-0.1-0.2-0.3-0.3-0.4-0.5c2.2-1,4.4-1.9,7-3c-1.6-0.4-2.6-0.7-4-1c1.4-2,3.4-3.7,0.6-6.3
	c-3.7,0.7-7.4,1.4-11.2,2.2c-0.1,0-0.2,0.1-0.3,0.1c-1.4,0.4-2.8,0.9-4.2,1.2c-4.4,0.9-8.8,1.8-13.3,2.3c-2.8,0.3-6,0.3-9-0.2
	c-2.7-0.3-5.3-0.6-8-0.4c-0.6,0.1-1.1,0-1.7,0.1c0,0.1,0,0.2-0.2,0.2c-9,3.7-19.2,6.3-29.5,8.5c0.1,0.1,0.1,0.1,0.1,0.2
	c-0.5,0.2-0.9,0.6-1.3,0.8c-3.9,1.4-7.6,2.8-11.5,4.3c-1.3,0.6-2.6,1-3.8,1.7c-1.6,0.8-2.6,2.2-5.5,1.6c-0.4,0-0.9,0.2-1.2,0.3
	c-3.1,1.1-6,2.3-9.1,3.5c-1.9-1-3.7-2-5.4-2.8c-1.7,0.4-3.6,0.3-5.6,0.1c-1.7-0.2-3.3-0.3-4.8-0.2c0.6,0.2,1.2,0.5,1.8,0.7
	c-1.2,1.6-1.7,1.6-3.6,0.2c-0.8,0.4-1.7,0.7-3,1.3c0-0.8,0-1.4,0.1-1.9c-2.5,0.2-4.7,0.5-7,0.2c-0.4,1.6-3,1.9-3.7,3.3
	c-0.4,0.6-1.1,0.9-1.7,1.5c2.9,0.2,1.2,2.1,3.7,2.9c-1.4,0.1-1.9,0.1-2.8,0.2c0,0.9,1.5,2.5-1.4,2.4c-0.1-0.2-0.3-0.4-0.4-0.6
	c-0.2-0.2-0.5-0.4-1-1c0.2,3,1.5,3.6,7,3.2c-1.5,1.8-4,0.9-6.4,0.7c2.3,2,5.3,1.8,7.9,2.6c-1.6,0.5-3.1,0.3-4.8-0.1
	c-1.5-0.4-3.4-0.9-4.8-0.8c-2,0.3-3.3-0.1-4.7-1.3c-0.7-0.7-1.3-1.7-3-1.1c0.6,1.1,0.4,2.1-1.5,2.4c-3.7-1.6-8.7-0.9-11.5-3.9
	c-1.5,0-2.9,0.5-3.9,0.1C566.7,199.9,562.6,199,560.1,196.6z M467.2,170.1c0.2-0.1,0.3-0.4,0.7-0.4c0.4-0.1,0.6,0.1,1.5,0.2
	c-0.8,0.3-1.1,0.5-1.3,0.5C467.6,170.4,467.4,170.2,467.2,170.1z M469.1,172.9c0.3-1.3,1.1-1.4,2.8-0.6
	C470.8,172.6,470.2,172.8,469.1,172.9z M492.8,176c0.5,0.2,0.9,0.3,1,0.4c0,0.3-0.1,0.6-0.2,0.8c-0.4-0.1-0.7-0.2-1.1-0.3
	C492.4,176.6,492.6,176.3,492.8,176z M512.1,217.4c-0.3-0.2-0.9-0.3-1.1-0.6c-0.1-0.2,0.1-0.5,0.3-1c0.5,0.4,1,0.5,1,0.7
	C512.3,216.9,512.1,217.1,512.1,217.4z M508,211.1c1.9-0.7,2.6,0.2,3.4,0.6c0,0.2-0.2,0.3-0.2,0.4C510.4,212,509.5,211.7,508,211.1z
	 M512.7,214.9c-0.5-0.1-1.1-0.3-1.6-0.4c0-0.2,0.1-0.4,0.3-0.5c0.6,0.2,1.2,0.3,1.7,0.5C512.9,214.6,512.9,214.8,512.7,214.9z
	 M494.2,182L494.2,182c-0.2,0-0.2,0-0.2,0c-0.8,0.4-1.7,0.7-2.5,1.2c-4-2-4.9-3.8-3.2-6.5c2.3,1.2,2,2.5,1.4,4
	c1.4,0.4,2.8,0.9,4.3,1.2l0.1,0C494.3,181.9,494.2,182,494.2,182c0.7,0.2,1.5,0.5,3,1C495.2,183.3,494.8,182.5,494.2,182z
	 M505.2,189.7c-0.5-0.4-0.9-0.5-1.2-0.8c0.2-0.1,0.4-0.4,0.5-0.4c0.3,0.1,0.6,0.2,0.8,0.4C505.4,189.2,505.2,189.4,505.2,189.7z
	 M545.1,230.2c-0.8,0.3-1.4,0.7-2.3,0.7c-1.6,0.1-4.6-1.4-6-2.5c2.7,0.4,5.4,0.8,8,1.3L545.1,230.2z M525.9,193
	c-3.5-0.2-4.9-2.2-7-4.1c3.8-0.6,3.8,3.2,7.3,2.1C526.2,192.1,526,192.5,525.9,193z M542.8,198.7c-1.1-0.3-2.3,0.5-3.5-0.8
	c-0.6-0.9-3.4-0.3-3.2-2.4c2.6,1.1,4.8,2,6.9,2.8C542.9,198.5,542.8,198.6,542.8,198.7z M548.5,200.7c-0.4,0-1,0-1.4-0.1
	c-0.4-0.1-0.7-0.4-0.9-0.6c0.2-0.1,0.2-0.2,0.5-0.3c0.7,0.2,1.4,0.6,2.1,0.9C548.6,200.4,548.5,200.5,548.5,200.7z M713.5,174.7
	c1.1-0.1,2.3-0.2,3.5-0.2c0.1,0.2,0.1,0.3,0.2,0.4l-3.4,0.4C713.7,175.2,713.5,175,713.5,174.7z M580.1,204.4
	c0.6,0.3,0.9,0.6,1.4,0.9c-0.2,0.1-0.3,0.4-0.5,0.3c-0.5-0.2-1-0.5-1.5-0.7C579.8,204.8,579.9,204.5,580.1,204.4z M431.5,113.7
	c1.8,0.3,3.7-0.4,5.6,0.7c0.2,0,1.2-0.7,2-1c-0.6-0.4-1.1-0.5-1.3-0.4c-0.9,0.4-1.6,0.1-1.9-0.7c-0.4-0.8,0.3-1.1,1.3-1
	c0.9,0,1.8,0.3,2.8,0.5c0.2,2.6,0.2,4.9-0.5,7c-0.4,0.1-0.6-0.1-0.9,0.1c-0.6-0.9-1.5-1.7-2.2-2.7c-0.2,1.7-0.3,3.2-0.3,5.1
	c0.9-0.2,1.2-0.4,1.8-0.5c0.5-0.1,1.1,0,1.1,0c0.6,1.2,1.2,2.2,1.7,3.2c0.4,1,0.7,2,1,3.2c1.1-0.6,1.9-1.1,2.7-1.5
	c-0.5-0.4-1-0.7-1.6-1.2c3.1-0.8,0-3.1,2.1-4.3c-1.3-0.2-1.9-0.2-2.7-0.3c-0.1-0.9-0.3-1.7-0.5-2.6c-0.3-2.2,0.7-2.6,4.5-1.8
	c0.2,1.6,0.2,3.3,0.6,5c0.4,1.7,1.4,3.6,2,5.4c-2.1,1.4-2,1.7,0.1,3.1c0.8,0.5,1.6,1.1,2,1.8c0.8,1,1,2.1,1.8,3.2
	c1.9,2.6,3.1,5.1,3.1,7.9c1.3,0.1,2.7,0.2,4.3,0.3c-1.4-2.4,0-4.8-2.3-7.2c-3.3-0.4-3.5-0.5-4.4-2c-1.1-1.7-2.2-3.5,0.8-4.7
	c-3.9-2-3.9-4.5-4.2-6.9c-0.2-1.5-0.1-3.1-0.9-4.4c-1.5-2.1-0.3-3.7-0.1-5.5c0-0.3,0.9-0.5,1.3-0.8c1.5,2.8,1.7,5.1,1.7,7.6
	c0,0.9,0,2.2,0.6,2.6c1.4,0.8,1.2,1.4,0.9,2.2c-0.3,0.8-0.5,1.5,0.5,2.5c2-1.1,1.9-2.8,1.3-4c-1.1-2.4-0.6-4.3,0.8-6.2
	c0-0.1-0.2-0.3-0.3-0.5c-3.6-0.1-4.8-1.2-3.8-3.4c0-0.2,0.2-0.3,0.2-0.4c0.8-0.6,0.7-1.1,0-1.9c-0.7-0.8-0.8-1.8-0.9-2.7
	c-0.5-3.4-1.2-6.8-1.6-10.2c-0.7-5.6,1.5-10.5,3.3-15.5c0.1-0.3,0.9-0.5,1.2-0.7c0,1.4-0.7,2.5-1,3.8c-0.4,1.2,0.1,2.4,1.4,3.9
	c0.1-1,0.3-1.7,0.4-2.4c0.4-1.6,0.6-3.1,0.9-4.7c0.9-3.2,1.1-6.7,2.4-9.8c2.2-5.5,5.1-10.7,8.1-16c3.7-6.7,7.4-13.4,12.8-19.5
	c0.7-0.9,0.6-1.9-0.2-3.1c-0.8,0.4-1.3,0.8-1.6,1.1c-7.2,5.3-11.6,12.1-17.2,18.3c-1.5,1.6-2.6,3.6-3.8,5.3c-1.3,1.9-2.6,3.7-4,5.5
	c-1.2,1.7-2.5,3.2-3.7,4.8c-1.4,2-3,3.9-4.4,5.9c-1.1,1.7-2.6,3.3-2.9,5.1c-0.3,2.2-2.1,3.8-2.8,5.8c-0.3,0.7-1.4,1.2-2.2,1.5
	c-2.4,1-3.3,2.6-3.9,4.6c1.9-0.8,3.4-1.4,5.4-2.1c0.4,0.8,1,1.5,1,1.9c-0.5,2.3-1.7,4.2-5.7,4.4c1.1,2.5,0.1,4.2-2.7,5.3
	c0.1,0.2,0.3,0.3,0.4,0.5c1.7-0.1,3.2,0,5.4,0c-0.1,1.4-0.4,2.6-0.5,3.9c0,0.9-0.3,1.5-1.7,1.6c-1.8,0.1-2.1,1-2.5,2.5
	c1.5-0.7,2.1-1.8,4.2-0.8c-1.6,0.4-1.9,1.2-1.7,2.3c0.2,0.9-0.6,1.9-1.3,2.5c-0.3,0.4-1.8,0.1-2.6,0.1
	C429.5,113.4,430.6,113.6,431.5,113.7z M448.9,107.5c0.3,0.2,0.6,0.2,0.7,0.3c0.1,0.1-0.1,0.3-0.1,0.4c-0.3,0-0.4,0-1-0.1
	C448.7,107.8,448.8,107.7,448.9,107.5z M440.3,109.3c1.1-1.7-0.4-4.3,2.1-5.6c0.3,2.5,1.7,5.1-1.3,7.2
	C440.9,110.2,440.2,109.5,440.3,109.3z M442.3,112.2c0.2,0.1,0.5,0.4,0.8,0.5c-0.5,0.3-0.7,0.6-1.3,0.9c0,0-0.6-0.3-0.7-0.4
	C441.5,112.8,441.9,112.5,442.3,112.2z M436.5,108.8c0.3-0.1,0.7-0.2,1.4-0.3c0.4,1.1-0.2,1.5-2.1,1.3
	C436.1,109.2,436.1,109,436.5,108.8z M503.4,175.7c0.8-2-0.4-3.7-5.1-6.4c1.5,0.1,2.8-0.1,2.2-1.3c0.6,0.1,1.3,0.1,2.4,0.1
	c-1.4,2,0.6,3.2,2.1,4.7c1.4,1.6,2.7,3.1,4.3,4.8c1-0.1,2-0.3,3.6-0.5c-1.3-0.4-2.4-0.6-3.8-1c1-0.5,1.6-0.8,2.6-1.3
	c-1.3-0.8-2.4-1.5-3.7-2.4c0.9,0,1.9,0,2.1,0.2c1.7,1.9,3.3,3.8,4.7,5.5c-2.2,1.2-4,2.2-5.9,3.3c-0.5,0.6,2,1.7,0,2.1
	c-0.9-0.9-1.8-1.6-2.8-2.5l0.1,0.1c0.6-0.7,1.3-1.4,2-2.4c-0.4-0.5-1.2-1.4-1.8-2.2c-1.9,0.1-3.6,0.2-5.7,0.4
	c-0.1-0.9-0.2-1.6-0.3-2.8C501.8,174.7,502.6,175.2,503.4,175.7z M425.7,128.6c-0.5-0.5-1.1-1.2-1.8-2.2c2.8-0.9,5.3-1.7,5.9-3.9
	c0-0.2,0.1-0.3,0.1-0.5c0.8-1-0.9-2.3,0.6-3.3c1-0.6,1.2-1.8,1.9-3c1.9,1,1.7,2.6,1,3.2c-1.7,1.5-0.9,3.3-0.9,5c0,1.2,0,2-1.2,2.9
	c-1.2,0.8-1.4,2.3-1.9,3.5c-0.3-0.1-0.5-0.1-0.8-0.2c0.1-0.9,0.2-1.8,0.3-2.8C426.2,126.1,427.4,128.8,425.7,128.6z M562.5,244.2
	c-1.1-0.5-2.3-0.8-2.9-1.3c-0.4-0.5,0.3-1.3-0.8-1.6c-0.9-0.2-2-0.1-3.1-0.1c1.4,1.6,1.2,2.7-0.7,2.9c-1.1,0.1-1.7,0.4-2.1,1.1
	c-0.1,0.3-0.8,0.4-1.2,0.5c-0.2,0.6-0.4,1.2-0.5,2c0.7,0,1.7,0.1,1.8,0c0.5-1.3,1.7-0.9,3.1-0.6c1.5,0.2,2.9,0.7,4.6,1
	c-0.9-1.4-1.6-2.5-2.3-3.7C559.7,244.4,561.3,245.2,562.5,244.2z M556.8,245.8c-0.3,0-0.7,0-0.9-0.1c-0.2,0,0-0.3-0.1-0.7
	c0.4,0.1,0.8,0.2,1,0.3C557,245.3,556.9,245.8,556.8,245.8z M449.3,156.7c3.7,1.2,4.4,3,2.3,4.6c-0.6,0.6-0.8,1.6-1.2,2.4
	c-0.3-0.1-0.5-0.1-0.6-0.1C449.3,161.4,445.3,158.8,449.3,156.7z M542.6,191.7c-1.1,0.1-2.3,0.2-3.5,0.2c-0.8-0.7-1.4-1.4-2.1-2.3
	c4.3,0.1,7.5,2,11.1,3.4c-0.9,1.4-2.3,1.5-3.9,1.3C541.9,193.8,543.6,192.5,542.6,191.7z M434.3,137.8c-2,0.3-3.7,0.9-4,2.4
	c-3.4-1.3-3.4-1.3-2.6-3.2c0.9,0.6,1.5,1,2.4,1.6c0.5-0.9,0.7-1.5,1.1-2.3C432.2,136.8,433.2,137.3,434.3,137.8z M458.3,158.5
	c0.4-0.4,1.4-0.9,2.1-0.8c0.6,0.1,1.8,0.7,2.1,1.2c0.4,0.7,0.3,1.5,0.6,2.8c-1.8-0.7-3-1-4-1.6C458.6,159.6,458.2,158.7,458.3,158.5
	z M551.6,245.5c-0.8-0.3-1.8-0.5-2.5-0.6c-0.8-1-0.3-2.2-2.5-2.8c-0.5-0.1-0.9-1.5-1.6-2.8C548.3,241.3,551.8,242.5,551.6,245.5z
	 M429.8,131.7c1.3,0.3,2.4,0.6,4,0.9c-2.6,0.7-2.7,3.1-6.5,3.1C428.2,134.2,428.9,133,429.8,131.7z M498.3,165.1
	c0.7,1,1.4,1.9,2.2,2.8c-2.7-1.2-4-2.7-4.8-4.6c1.6-1,3.2-1.9,4.5-2.9c-0.2,0.7,0.4,1.6-1.2,1.9
	C497.5,162.6,497.3,163.7,498.3,165.1z M469.1,153.2c2.3,0.4,4.4,0.8,6.5,1.1c0.1,0.1,0.1,0.3,0.2,0.3c-1.9,0.5-4,1-6.3,1.6
	C469.4,154.9,469.2,154,469.1,153.2z M586.3,194.7c0.1-2.7,2.2-3.2,5.4-3.6C591,193.3,588.3,193.4,586.3,194.7z M667.2,250.1
	c2.2-0.7,3.9-1.2,5.8-1.7c0.9,2.1-1.3,2.2-2.7,2.8C668.9,251.5,668,250.9,667.2,250.1z M437.6,134.8c1.3,0.5,2.2,0.8,3,1
	c-0.6,0.6-1.1,1-1.4,1.6c-0.1,0.7,0,1.5-1.6,1.5C437.6,137.7,437.6,136.4,437.6,134.8z M583.4,202.6c-1.2-1-1.9-1.6-2.8-2.4
	c0.2-1.6,2.7-1.6,4.6-2.8c-0.2,0.7-0.1,1.3-0.4,1.7C582.9,200.5,582.9,200.4,583.4,202.6z M640.6,252.3c-2.2,0-3.9,0.1-5.3,0.1
	c-1.2-0.8-2.5-1.4-3.7-2c0-0.2,0.1-0.3,0.1-0.5C634.5,250.7,637.2,251.5,640.6,252.3z M467.2,148.2c-0.1-0.5-0.3-0.9-0.5-1.8
	c1,0.6,1.7,1,2.3,1.4c-0.3,0.7-0.7,1.3-0.4,1.8c0.2,0.4,1.6,0.6,0.2,1.3c-1.3-1.1-2.6-2.3-3.9-3.3c0-0.1,0.3-0.1,0.3-0.2
	C465.9,147.6,466.4,147.9,467.2,148.2z M505.2,210.7c-0.8,0-2.4-0.6-1.8,0.8c-0.7-0.2-1.4-0.4-2.3-0.7c0.1-0.9,0.3-1.6,0.5-2.4
	C504.4,208.9,504.8,209.1,505.2,210.7z M475.9,161.3c-0.6,0.2-1.2,0.5-1.8,0.8c-0.2-0.1-0.5-0.4-0.8-0.5c1.2-0.5,0.4-2.3,2.7-2
	c0.8,0.1,1.5,0.8,2.6,1.5C477.4,161.2,476.7,161.1,475.9,161.3z M541.7,236.4c-1.3-0.1-2.8-0.8-4.4-1.2c0-0.2,0.1-0.3,0.1-0.5
	c1.9,0.2,3.8,0.5,5.7,0.8c0.6,0.1,1.3,0,1.9-0.1C544.7,236.8,542.8,236.5,541.7,236.4z M571,247.8c0.2,0.7,0.3,1.5,0.4,2.6
	c-1.2-0.5-2.1-0.7-3-1C569.1,248.5,568.9,247.3,571,247.8z M542.7,239c-0.6,0.5-1.3,0.8-1.7,1.1c-0.6-0.5-1.1-0.9-1.7-1.4
	c-0.4-0.4-0.9-0.8-1.8-1.5C539.9,237.4,541.1,238.3,542.7,239z M575.4,245.7c-2.5-0.5-4.1-0.9-6.1-1.3
	C572.1,243.2,572.6,243.3,575.4,245.7z M581.9,191c0.1-0.4,0.4-0.7,0.5-1.1c1.9,0.8,2.4,1.9,1.2,2.3c-0.7,0.4-1.7,0-2-0.7
	C581.9,191.5,581.9,191.1,581.9,191z M511,171.6c-3.3-2.3-3.4-2.3-0.9-2.9C510.3,169.5,510.5,170.3,511,171.6z M482.5,161.6
	c-0.4-1.1-0.7-2-1.1-3C484.3,160.4,484.3,160.4,482.5,161.6z M491.2,165.1c1.7,0.1,3,0.1,4.7,0.2c-1.1,0.7-1.9,1.2-2.8,1.7
	C492.4,166.4,492,166,491.2,165.1z M435.8,140.1c-0.5,0.6-1.1,0.9-2,1.7c-0.9-1.5-1-2.3,0.4-2.5C434.4,139.4,435,139.8,435.8,140.1z
	 M683.9,244.2c1.2-0.3,2.2-0.7,3.5-1c0.3,0.5,0.4,0.9,0.8,1.7C686.4,244.4,685.3,245.3,683.9,244.2z M493,170.6
	c0.8,0.6,1.6,1.2,2.6,2C493.5,172.6,493.5,172.6,493,170.6z M501.9,215.4c-1.2-0.8-2.4-1.4-3.7-2.1
	C499.7,213.1,500.7,213.5,501.9,215.4z M607,252.1c0.2,0.2,0.4,0.4,0.7,0.7c-0.3,1.1-1.2,1.3-3.6,1C605.5,253,606.3,252.7,607,252.1
	z M516.9,178.6c0-0.9,0-1.8,0-2.8C518.8,177.2,518.9,177.9,516.9,178.6z M678.7,247c1.2-0.5,2.3-1,4-1.8
	C682.1,246.8,680.9,247.4,678.7,247z M495.3,169.6c2.2,0.8,2.2,0.8,1.7,2.4C496.6,171.4,496.1,170.7,495.3,169.6z M462.2,149.8
	c0-0.9,0.1-1.5,0-2.2C464.8,148.9,464.8,148.9,462.2,149.8z M484.3,170.2c0.1,0,0.1,0,0.3,0C484.4,170.2,484.4,170.2,484.3,170.2
	L484.3,170.2c-0.5,0.9-0.5,0.9-2.3,0.6c0-0.5,0-1.1,0-1.6c0.2,0,0.4,0,0.5,0.1C483.2,169.5,483.6,169.8,484.3,170.2z M535.7,241.8
	c-0.3,0-0.4,0-0.7,0c-0.2-0.6-0.5-1.2-0.8-1.9C536.7,240.2,535.9,241.1,535.7,241.8z M536.7,239.6c1.8,0.4,2.7,0.6,3.8,0.8
	c-0.5,0.4-1.1,0.8-1.8,1.2C538.1,241,537.7,240.5,536.7,239.6z M474.2,188.6c0.8,0.4,1.7,0.8,2.7,1.3
	C474.7,190.3,474.7,190.3,474.2,188.6z M474.7,164c1.1,0.3,2.1,0.6,3.3,0.9C476,165.8,476,165.8,474.7,164z M419.6,116.7
	c1.2-0.3,2-0.6,2.7-0.8c0.2,0.1,0.3,0.3,0.5,0.5C422.4,117.2,421.7,117.8,419.6,116.7z M663.8,251c0.2,0.1,0.4,0.3,0.8,0.5
	c-0.2,0.8-1.5,0.9-2.2,1.3c-0.2-0.1-0.4-0.3-0.5-0.4C662.3,252,663,251.5,663.8,251z M553.5,240.7c-1.1-0.3-2.4-0.6-3.5-0.9
	c0.2-0.2,0.1-0.5,0.3-0.7c1.2,0.3,2.3,0.7,3.5,1C553.7,240.3,553.6,240.5,553.5,240.7z M574,196.9c-0.6,0.6-1.1,1.1-2.2,2.1
	C571.5,197.4,572.8,197.2,574,196.9z M448,132.1c-0.6,0.2-1.3,0.2-1.9,0.4c0,0-0.4-0.4-0.3-0.4c0.5-0.3,0.9-0.6,1.3-0.8
	C447.6,131.5,447.7,131.8,448,132.1z M540.6,240.3c0.1,0,0.4-0.1,0.5-0.1c1.2,0.6,2.5,1.1,1,2.2C540.9,241.9,540.8,241,540.6,240.3z
	 M495.4,156.8c0.1-0.4,0.5-0.9,0.6-1.2c0.3,0.2,0.7,0.2,1.1,0.4c-0.2,0.4-0.5,0.7-0.7,1.2C496.3,157,495.8,156.8,495.4,156.8z
	 M451.9,143c1.2,0.8,1.8,1,2.8,1.6C452.5,145,452.2,144.4,451.9,143z M434.7,160.3c0-0.2,0.1-0.3,0.1-0.6c0.6,0.1,1.3,0.1,2.1,0.2
	c0,0.3-0.1,0.6-0.1,0.7C435.9,160.6,435.4,160.5,434.7,160.3z M432.7,147.7c0.3,0.6,0.7,1.1,0.9,1.5c-0.3,0-0.5,0.1-0.8,0.1
	c-0.3-0.6-0.5-1-0.9-1.6C432.3,147.7,432.6,147.7,432.7,147.7z M496.8,208.6c-1.2-0.6-1.9-1-2.5-1.4
	C495.9,206.8,496.3,207.2,496.8,208.6z M497.5,158.8c-0.8,0.4-1.7,0.9-2.9,1.4C494.5,158.6,496.4,159,497.5,158.8z M591.9,197.9
	c0.1-0.8,0-1.3,0.1-1.9C593.4,196.7,593.4,196.7,591.9,197.9z M446,146.4c0.6,0.1,1.2-0.1,1.9-0.1c0.1,0.2,0.2,0.3,0.3,0.5
	c-0.4,0.1-0.7,0.2-1.1,0.2s-0.7-0.1-0.9-0.2C446,146.7,445.9,146.6,446,146.4z M453.5,157.9c0-0.1,0.1-0.3,0.1-0.4
	c0.8,0.3,1.6,0.5,2.4,0.7c-0.2,0.2-0.2,0.3-0.3,0.5C455,158.4,454.3,158.2,453.5,157.9z M419.5,126.7c0.7-0.1,1.3-0.2,2-0.3
	C421.3,127.8,421.3,127.8,419.5,126.7z M426.4,133.8c-0.3,0-0.6-0.1-0.8,0c0-0.4-0.3-0.9-0.5-1.4c0.4-0.1,0.6,0.1,0.9-0.1
	C426.2,132.9,426.3,133.4,426.4,133.8z M625.5,258.7c-0.9,0.3-1.6,0.6-2.7,1C623,258.4,623.7,258,625.5,258.7z M465.9,163.1
	c0.4-0.1,0.5-0.1,0.9-0.2c0.4,0.5,0.7,1,1.1,1.4c-0.3,0-0.4,0.2-0.6,0.2C466.7,164,466.4,163.6,465.9,163.1z M563.9,248.8
	c1,0,2,0.1,3,0.1c0.1,0.2,0,0.3,0,0.4c-0.9,0.1-1.9,0.1-2.8,0.2C564,249.2,563.9,249,563.9,248.8z M585.7,247.6
	c1.1,0,2.2,0.1,3.3,0.1c0,0.2,0,0.3,0,0.5c-1.2-0.1-2.4-0.2-3.5-0.2C585.6,247.8,585.6,247.7,585.7,247.6z M578.5,188.4
	c0.7,0.2,1.6,0.5,2.9,1C579.1,189.9,578.7,189.2,578.5,188.4z M635.4,252.6c0.4,0.4,0.9,0.9,1.4,1.2c-1.1,0.7-1.8,0-2.3-0.6
	C634.3,253.1,635.2,252.8,635.4,252.6z M597.3,190.7c-0.2,0-0.1-0.7,0.2-0.7c0.5-0.1,0.9,0.1,1.7,0.3c-0.2,0.4-0.4,0.9-0.5,1
	C598.2,191.2,597.7,191,597.3,190.7z M454.6,173.3c0.1,0,0.6,0.2,1.1,0.3c-0.3,0.4-0.4,0.6-0.7,0.6c-0.3,0-0.6-0.2-0.9-0.3
	C454.2,173.7,454.4,173.5,454.6,173.3z M425.9,117.9c-0.2-0.1-0.6-0.3-0.7-0.4c0.5-0.3,0.7-0.7,1.1-1c0.2,0.1,0.5,0.2,0.6,0.4
	C426.6,117.1,426.2,117.5,425.9,117.9z M446.1,155.1c0.5-0.1,1-0.3,1.6-0.5c0.1,0.3,0.3,0.4,0.4,0.7c-0.6,0.1-1.1,0.3-1.7,0.3
	C446.4,155.4,446.3,155.3,446.1,155.1z M454.1,171.5c-0.4,0.6-0.7,1.4-2.6,0.5C452.5,171.7,453.2,171.5,454.1,171.5z M620.6,252.6
	c0.6-0.2,1.3-0.2,1.8-0.4c0.1,0.2,0.2,0.3,0.3,0.6c-0.7,0.1-1.2,0.1-1.9,0.3C620.8,253.1,620.6,252.6,620.6,252.6z M486.9,205.4
	c0.5,0.4,1.2,0.8,1.7,1.2c0,0.1-0.2,0.2-0.3,0.4c-0.6-0.4-1.3-0.7-1.9-1C486.5,205.7,486.7,205.5,486.9,205.4z M442.2,149.1
	c0.4,0.3,0.8,0.4,0.9,0.6c0.1,0.2-0.1,0.4-0.3,0.5c-0.3-0.2-0.7-0.2-0.7-0.4C441.9,149.6,442,149.4,442.2,149.1z M464,181.7
	c0.4,0,0.7,0.1,1.1,0.3c0,0.1-0.1,0.3-0.1,0.4c-0.4,0.1-0.7,0-1.5,0C463.9,182,463.9,181.6,464,181.7z M484.5,170.1
	c0.8-0.4,1.5-0.8,2.2-1C486.9,170.2,485.5,170,484.5,170.1z M524.9,237.9c0.6,0.1,1.3,0.1,1.9,0.1c0,0.2,0,0.3,0,0.4
	c-0.6-0.1-1.3-0.1-2-0.2C524.9,238.1,525,238,524.9,237.9z M427.2,114.7c-0.3-0.1-0.4,0-0.6-0.1c0-0.4,0-0.9,0-1.4
	c0.3,0.1,0.4,0,0.6,0.1C427.2,113.7,427.2,114.2,427.2,114.7z M478.5,155.3c-0.3-0.2-0.7-0.2-1-0.4c-0.1-0.1,0-0.3,0.1-0.8
	C478.1,154.7,478.2,155,478.5,155.3z M486.8,168.9c-0.3-0.5-0.4-1-0.7-1.6C488.3,168,487.4,168.4,486.8,168.9z M425.1,96.3
	c0-0.2,0.3-0.4,0.5-0.6c0.3,0.2,0.7,0.2,0.8,0.4c-0.2,0.2-0.4,0.4-0.8,0.6C425.8,96.8,425.3,96.5,425.1,96.3z M557,239.9
	c-0.3,0-0.7-0.1-0.7-0.3c-0.1-0.1,0.1-0.3,0.3-0.7c0.6,0.3,0.8,0.4,1,0.6C557.3,239.7,557.1,239.9,557,239.9z M464.5,157.8
	c-0.4,0-0.7-0.2-1.4-0.4c0.5-0.2,0.7-0.4,0.8-0.4c0.3,0.1,0.6,0.2,0.9,0.3C464.7,157.5,464.5,157.7,464.5,157.8z M461.4,164
	c0-0.1,0.2-0.2,0.3-0.2c0.4,0.3,0.9,0.6,1.3,0.8c0,0.1-0.2,0.1-0.2,0.2C462.3,164.5,461.8,164.3,461.4,164z M448,136.3
	c0.1,0,0.3,0.1,0.4,0c0,0.4,0.1,0.8,0.3,1.2c-0.3-0.1-0.5-0.1-0.8-0.2C448,137.1,448,136.6,448,136.3z M447.2,152.9
	c-0.6,0.1-1.1,0.2-1.5,0.2c-0.1-0.2-0.1-0.3-0.2-0.4c0.6-0.1,1.1-0.2,1.5-0.2C447.1,152.6,447.2,152.9,447.2,152.9z M432.7,104.2
	c-0.1,0-0.6-0.2-0.6-0.3c0.1-0.3,0.2-0.4,0.5-0.9c0.6,0.3,0.7,0.4,0.9,0.6C433.2,103.9,433,104.1,432.7,104.2z M595.6,190.3
	c-0.2-0.1-0.5-0.2-0.6-0.4c0.3-0.4,0.6-0.6,0.9-0.9c0.2,0,0.3,0.2,0.6,0.3C596.2,189.6,595.9,190,595.6,190.3z M494.7,153.1
	c-0.1-0.1,0.2-0.3,0.3-0.4c0.3,0.1,0.6,0.2,1,0.3c-0.3,0.2-0.5,0.4-0.8,0.4C495.1,153.6,494.9,153.3,494.7,153.1z M487.5,165.9
	c0.1,0,0.4-0.2,0.4-0.2c0.3,0.3,0.7,0.5,0.9,0.9c-0.3,0-0.3,0.1-0.5,0.1C488.1,166.6,487.8,166.2,487.5,165.9z M452.2,95.1
	c-0.2,0-0.3-0.2-0.5-0.4c0.2-0.2,0.3-0.4,0.4-0.5c0.2,0,0.6,0.3,0.6,0.3C452.4,94.6,452.2,94.8,452.2,95.1z M655.5,253
	c0.2,0,0.2,0.2,0.4,0.4c-0.4,0.2-0.8,0.4-1.2,0.5c-0.2,0-0.2-0.2-0.4-0.3C654.8,253.3,655.2,253.1,655.5,253z M465.4,143.2
	c0,0.2-0.1,0.4-0.3,0.5c-0.2,0-0.5-0.2-0.6-0.3c-0.1-0.1,0.1-0.3,0.1-0.4C465.1,143.1,465.2,143.1,465.4,143.2z M575.8,192.5
	c-0.2-0.1-0.4-0.4-0.5-0.5c-0.1-0.1,0.3-0.1,0.6-0.2c0.1,0.3,0.3,0.4,0.4,0.7C576.3,192.3,576,192.5,575.8,192.5z M479.8,164.9
	c0.1-0.3,0-0.6,0.1-0.9c0.2,0.1,0.4,0.4,0.5,0.6C480.3,164.6,480.1,164.6,479.8,164.9z M465.5,134.3c0.3,0.2,0.6,0.4,0.8,0.5
	c0.1,0.1-0.2,0.3-0.4,0.4c-0.2-0.1-0.4-0.4-0.7-0.5C465.1,134.5,465.2,134.5,465.5,134.3z M489.6,169.9c-0.2,0.2-0.5,0.4-0.8,0.6
	c-0.1,0-0.6-0.3-0.9-0.6c0.3-0.2,0.6-0.5,1.1-0.5C489.1,169.5,489.6,169.8,489.6,169.9z M628,251.7c0.1,0.2,0.3,0.4,0.4,0.6
	c-0.4,0.2-0.9,0.2-1.3,0.4c-0.1-0.1-0.2-0.2-0.3-0.3C627.3,252,627.8,251.9,628,251.7z M634.1,190.5c-0.2-0.4-0.8-1-0.6-1.3
	c1-1.1,2.2-2.1,3.2-3.1c0.3,0.2,0.7,0.2,0.9,0.5c-0.5,1.2-0.9,2.5-1.7,3.6C636.1,190.4,634.9,190.3,634.1,190.5z"/>
<path class="st4" d="M349.7-314c-0.5-0.8,0.7-1.4,2.5-1.6c2.7-0.3,4.6,0.1,6.3,1.1c1.9,1.2,4.8,1.5,6.9,0.8c0.6-0.2,1.3-0.6,1.2-1
	c0-0.3-0.8-0.7-1.4-0.9c-0.5-0.2-1.4,0-2.1-0.1c-3.6-0.3-5.1-1.6-4-3.2c0.3-0.5,0.4-1,0.6-1.7c-5,0.1-9.6,0.2-14.1,0.3
	c-1.6,0-2.8,0-2.9-0.9c3-1.5,6.7-1.7,10.9-1.5c3.2,0.2,6.3,0.3,8.6,1.5c1.4,0.8,3.3,0.8,5.2,0.3c-0.7-0.1-1.2-0.4-0.5-0.7
	c0.7-0.4,1.5-0.7,2.2-1.1c-0.5-0.1-0.8-0.4-0.3-0.7c0.2-0.1,0.4-0.2,0.6-0.3c-0.5-0.1-0.9-0.2-1.3-0.4c-0.6-0.2-0.6-0.6,0-0.8
	c0.4-0.1,0.8-0.2,1.1-0.3c-2-0.2-4-0.5-5.9-0.8v-0.7c2-0.3,3.9-0.5,7-0.9c-3.8-0.9-6.5-1.9-9.6-2.2c-3-0.3-6.3,0.1-9.5,0.1
	c-0.2-0.1-0.4-0.3-0.5-0.4c2.1-1.1,4.2-2.2,6.6-3.4c-1.2-0.1-2.1-0.3-2.7-0.2c-2.7,0.4-5.1,0.3-7.7-0.2c-0.9-0.2-2-0.1-3.1-0.1
	c-0.4,0-0.8,0.3-1.1,0.4c0.5,0.7,0.9,1.3,1.6,2.4c-3-0.3-5.1-0.8-7.2-0.8c-2.4,0-4.7,0.5-7.1,0.7c-1.9,1.6-1.9,1.6-5.6,2.1
	c-4,0.6-8.2,1-12,1.7c-3.5,0.7-6.7,0.7-10.2,0.2c-1.4-0.2-3.3-0.5-4.5-0.2c-4.4,0.9-8.5,0.7-12.3-0.2c-4.5,1.1-8.6,2.1-12.9,3
	c-1.2,0.2-3-0.1-4.4-0.4c-6.1-1.1-12.6-0.8-18.8-1.2c-0.7,0-1.5,0.5-2.3,0.5c-1.3,0-3.1,0.1-3.9-0.2c-3.5-1.4-6.8-3-10.2-4.5
	c-1.6-0.7-2.9-1.6-4.7-2.3c-1.6-0.6-5.1-0.4-5.8,0.2c-1.1,1,0.1,1.7,1.8,2.2c2.9,0.9,5.9,1.7,8.9,2.5c1,0.3,2.1,0.6,2.8,1
	c3.8,2.4,8.4,4.5,13.3,6.4c2.2,0.9,1.9,1.7-0.9,2.1c-6.1,0.9-11.9,2.7-18.8,1.4c-0.6-0.1-1.5,0-2,0.2c-1.5,0.4-1.8,0.9-0.5,1.5
	c2,0.5,4.3-1.3,6.3,0.3c-0.6,0.8-1.2,1.7-1.9,2.9c-1.7-0.3-2.8-0.5-4.8-0.9c2.7,2.4,1,3.7-2.6,4.9c-2.7,0.9-5.5,1.9-7.4,3.7
	c5.2-0.6,8.9,0,12.3,1.4c1,0.4,3,0.6,4.3,0.5c3.8-0.3,7.6-0.8,11.4-1.1c2-0.2,4.1-0.1,6.2-0.4c3.4-0.3,5.9,0.6,8.8,1.4
	c0.5-0.5,0.9-0.9,1.1-1.2c0.2-0.4,0.2-0.9,0.4-1.6c7.1,1.4,13.9,2.5,21.2,1.5c0.9,0.7,1.6,1.3,2.7,2.3c1.5-2.4,4.9-3.2,9.2-3.4
	c1.2-0.1,2.6-0.3,3.3-0.7c3.9-2,9-1.4,13.5-1.7c0.8,0.6,1.3,1,2,1.6c7.3-2.4,14.7-2.8,22.4-0.8c1,0.3,2.4,0.3,3.6,0.4
	c8.2,0.3,16.5,0.5,24.7,0.7c0.2,0,0.5-0.2,0.9-0.4c-1.5-2.2-8.1-0.8-9.4-2.5c-2.7,0-4.7,0.1-6.7,0c-2.1-0.1-4.1-0.4-6.1-0.7
	c-2-0.2-4-0.4-6.8-0.7c0.7-1.1,0.7-2.4,1.9-2.7c2.8-0.8,4.5,0.6,6.4,1.4c5.2-1.4,10.1-0.6,14.8,0.3c3.7,0.7,6.5,0.2,8.4-1.4
	c-4.9-0.4-9.8-0.8-14.7-1.2C351.4-313,349.9-313.6,349.7-314z M248.7-322.7c-0.6,0.1-1.3-0.2-2.4-0.3c1.6-0.6,2.1-0.8,2.6-1
	c0.4,0.2,1.1,0.5,1.1,0.7C249.9-323.1,249.3-322.8,248.7-322.7z"/>
<path class="st5" d="M232.3-200.2c-2.3-1.7-7-0.8-6.7-4.2c1.7,0.3,3.2,0.5,4.7,0.7c-0.7-1.7-1.3-3-1.8-4.4c-0.6-1.6-1.5-2.7-4.2-2.8
	c-1.3-0.1-2.6-0.5-3.9-0.8c-2.6-0.6-5.3-1.6-7.9-1.6c-9.1-0.2-18.2-0.2-27.4-0.2c-2.4,0-4.9-0.1-7.3,0.2c-2.1,0.2-4,0.9-3.4,3
	c0.2,0.6-0.6,1.9-1.5,2.1c-3.5,1.1-4.6,3.3-5.7,5.5c-0.3,0.7-0.6,1.6-1.4,1.9c-1,0.5-2.6,0.9-3.7,0.7c-1.4-0.2-2.1-1.2-1.3-2.4
	c0.6-0.8,1.4-1.9-1.1-2.4c-0.4,1-0.8,2-1.4,3.3c-2.3-0.7-4.4-1.3-7.4-2.3c3.2-1.2,5.4-2,7.7-2.8c-1.8-1.8-3.4-3.6-5.2-5.2
	c-0.4-0.3-1.2-0.6-1.8-0.7c-3.4-0.2-6.3-2.1-10-1.5c-1.2,0.2-2.7-0.3-4.1-0.6c-3.1-0.7-6.2-1.6-9.3-2.3c-4.1-1-8.2-2.1-12.5-2.8
	c-5.1-0.9-9.9-2.8-15.8-1.8c-3.1,0.5-7.3-0.8-8.5-3.4c-1.1-2.3-3.3-3.1-6.1-3.4c-4-0.5-8-1.1-12-1.4c-1.9-0.1-4.6,0.1-5.8,0.9
	c-1.7,1.2-6.1,1.2-4.7,4.1c0.1,0.2-0.4,0.6-0.7,0.8c-2.8,1.9-5.6,3.7-8.6,5.7c1.7,1.1,2.9,1.8,3.8,2.4c-0.8,2.4-1.5,4.5-2.2,6.6
	c-0.5,1.7-1.6,2.6-4.3,2.5c-2.6-0.1-5.1,0.1-5.4-2.5c1.3-0.5,2.6-0.9,4.5-1.6c-5.2-1.6-9.9-3-14.5-4.5c0.1-0.2,0.2-0.4,0.3-0.7
	c1.6,0.1,3.1,0.3,5.8,0.5c-3.1-1.5-5.3-2.6-7.8-3.8c-2.3,2.5-4.6,4.8-2.9,7.7c-3.5,2-6.7,3.9-9.5,5.5c-0.1,3.9,5,7,0.6,10.4
	c2.9,2.4,8.7-0.1,10.5,3.5c-3.8,0.2-4,0.3-5.6,1.6c-1.5-0.5-3-0.9-4.9-1.5c0.3,1.3,0.8,2.2,0.5,3c-0.3,0.9-1.4,1.6-2.2,2.4
	c0.8,1,1.5,1.9,2,2.6c-1.3,2.1-2.5,4-3.7,5.9c-1-0.1-2.4-0.2-3.7-0.3c-0.1,0.2-0.2,0.4-0.2,0.6c1.5,0.9,3.1,1.7,4.4,2.5
	c-1.5,1.2-3.9,2.1-3.9,3.1c0,2.3-0.4,5.3,2.5,6.7c2.5,1.2,6.4,1.8,9.4,1.5c3.4-0.4,6.7-0.1,9.2,0.9c3.2,1.3,6.3,1.2,9.5,1.5
	c2.8,0.2,5.5,0.6,8.3,1c3.5,0.5,6.9,1.5,10.3,1.5c5.5,0.1,10.3,1.3,15,3c5.6,2,11.4,4,18,1.9c0.3-0.1,0.7,0,1.1,0.1
	c0.1,0.4,0.3,0.9,0.4,1.2c5.3,0.3,10.6,0.6,16,1c0.8-1.8-0.6-2.4-2.6-2.4c-6.2,0-12.2-1-18.2-2.1c-8.1-1.5-16.4-2.7-24.6-4.1
	c-1-0.2-1.9-0.5-2.8-0.8c3.6-0.2,7-0.2,10.4,0.3c5.8,0.7,11.6,1.6,17.4,2.6c8.1,1.4,16.3,1.8,24.6,1.7c4-0.1,8,0.6,12,1.1
	c1.7,0.2,2.2,1.1,0.5,2.3c-3.6-1.1-7-1.3-9,1.3c1.9,2.2,3.5,4.2,5.3,6.3c2.1-1,3.6-2.6,6.3-1.1c0.6,0.3,2,0,3-0.1
	c4.2-0.7,8.3-0.7,12.6-0.3c3.1,0.3,6.3,0,9.4,0.1c1,0,2.5-0.1,3.1,0.3c3.5,2.5,8.3,1.5,11.1,2.3c2.3-0.8,3.7-1.3,5.2-1.8
	c-3.6-0.5-7-1.7-10.6,0.1c-0.9-0.9-1.9-1.8-3.3-3.1c-2.3,2.7-5.8-0.8-8.4,1.2c-1.8-1.9-5.2-1.6-8.2-2.9c7.7-2,14.6-0.7,21.5,0
	c7.7,0.8,15.2,2.2,22.8,3.3c2.1,0.3,4.2,0.3,6.3,0.4c1.9,0.1,2.3-0.8,2.2-1.9c0,0-0.1,0-0.1,0.1c-0.1-0.1-0.1-0.1-0.2-0.1
	c-1.2-0.1-2.5-0.3-4-0.5c2.5-0.8,2.6-0.8,4,0.5c0.1,0,0.2,0,0.3,0l0,0c2.4-1,4.6-1.9,7.6-1.8c1.8,0.1,3.5-0.7,3.2-2.3
	c-0.4-2.1,1.4-2.6,3.7-2.8c2.7-0.2,4.7-0.9,5.5-2.8c-1.1-2.5-7-2.6-6.3-6.3c4.5,0.6,8.7,1.3,14,2c-1-1.9-1.3-3.1-2.3-4
	c-1.5-1.3-3.3-2.5-5.3-3.5c-2.2-1.1-1.5-1.9-0.1-3.2c1.5,0.5,2.8,0.9,4.2,1.3c0.9-2.4,0.8-2.9-1.9-3.3c-3.4-0.5-6.8-0.5-10.4-0.8
	c-0.3-1.6-0.6-3.2-0.8-4.6c3.2-1.8,6.4-3.5,9.7-5.3c-0.6-0.7-2.4-2.3-2.3-2.4c2.4-1.5-1.1-2.7-0.2-4.2c3.5-0.3,6.9-0.6,9.9-0.9
	c2.3-1.9,1-3.4-0.5-4.8C229.8-199.7,230.8-199.9,232.3-200.2z M35.3-164.9c-0.1-0.3-0.1-0.5-0.2-0.8c2.4-0.9,2.4-0.9,6.1,0.3
	C38.6-165.2,36.9-165,35.3-164.9z M35.2-187.3c0.6-0.4,0.8-0.6,1-0.6c1.5,0.2,2.9,0.4,2.4,2.1C37.4-186.3,36.3-186.8,35.2-187.3z
	 M41.2-189.8c1.7,0.7,3.4,1.1,4.3,2c0.8,0.8,0.8,2.1,1.1,3.1C41-185,40.5-185.5,41.2-189.8z M42.6-166.2c3.2-1.2,4.8,0.1,7.7,1.3
	C46.8-164.5,44.6-164,42.6-166.2z M45.8-194.9c0.7,0.8,1.3,1.5,2.3,2.6c-5.1,0.2-8.7-0.9-12.6-2.2c2.5-2.3,5-1,7.6-0.6
	c1.9-1.3,4.1-2.7,7.5-0.9C49-195.7,47.5-195.3,45.8-194.9z M61.1-162.4c-1.2-0.2-2.5-0.3-3.7-0.5c0.1-0.2,0.2-0.5,0.3-0.7
	c1.2,0.2,2.4,0.5,3.6,0.7C61.2-162.7,61.1-162.6,61.1-162.4z M158.4-195.5c-0.2-0.5-0.5-0.8-0.5-1.2c0-0.1,1-0.4,1.2-0.3
	c0.4,0.2,0.6,0.6,0.9,1C159.6-195.9,159.1-195.8,158.4-195.5z M47.7-214.4c-1.3-0.3-2.7-0.7-4-1c0.1-0.2,0.2-0.4,0.3-0.5
	c1.3,0.3,2.7,0.7,4,1C47.9-214.8,47.8-214.6,47.7-214.4z M72.6-155.9c0.9,0.2,1.9,0.3,2.8,0.5c-0.1,0.3-0.2,0.6-0.3,0.8
	c-0.9-0.2-1.9-0.5-2.8-0.7C72.4-155.5,72.5-155.7,72.6-155.9z"/>
<path class="st2" d="M453.4-224.1c-0.4-1-0.8-1.8-1.3-2.7c-0.4-0.8,0-1.9-1.7-2.1c0.3,1.1,0.8,2.1,0.7,2.9c-0.1,0.7-1,1.1-1.8,1.8
	c2.1,1.7,2.3,2.9,2.3,4.6c-0.1,1.6-0.6,3.6,1.7,5.7c0.4,0.4,0.5,1.1,0.8,1.7c-0.4-0.2-0.7-0.2-1-0.4c-0.7-0.7-1.3-1.3-2.4-2.5
	c-0.3,3,1.2,6.4-0.3,8.9c-0.4-1-0.7-1.6-0.8-2.3c-0.1-1.1-0.1-2.2-0.5-3.3c-1.8-4.5-3.6-9-3.2-13.1c0.1-0.3,0.1-0.6,0-0.8
	c-1.7-2.3-1.3-4.3-1.4-6.2c-0.2-3.2-1.2-6.9,0-9.2c-0.6-1.6-1.7-3.1-1.5-4c0.5-2.3,1.3-4.3,2.1-6.5c2.2,1.5,2.8,4.1,5.3,4.7
	c0.1-1.2,0.3-2.3,0.3-3.6c0-0.4-0.1-1.1-0.4-1.3c-1.8-1.3-1.2-1.9-0.7-2.9c0.4-0.6,0.1-1.6,0.2-2.4c-0.9-0.2-1.5-0.3-1.9-0.4
	c-0.3,0.9-0.7,1.6-1.1,2.3c-0.2-0.2-0.5-0.2-0.6-0.3c0.7,1.4,1.4,2.7,2.2,4c-1.2-0.5-2.1-0.8-3.2-1.4c-0.7-0.4-1.5-0.9-1.7-1.3
	c-0.6-1.6-1.5-3.6-1-4.4c0.7-1.2,0.7-2.6,0.8-4c0.2-0.1,0.1-0.3,0.1-0.7c-0.6,0.2-1.2,0.3-1.5,0.4c-1.6-1.3-2.8-2.5-4.4-3.8
	c0.5-0.4,1.2-0.8,1.7-1.2c-0.4-0.6-0.6-1.2-1.2-1.9c0.8-0.7,1.4-1,3.1-0.1c0.7,0.4,1.3,0.3,2.1,0.4l-4.1-4.8c1.2-0.6,4.1,0.5,3-2.2
	c-0.5-0.4-1.2-0.7-1.7-1.2c0.7-0.8,1-1.8,2.8-0.1c1.3,1.3,2.2,1.1,2.5,0c-0.9-1.1-2-2.1-2.8-3.2c-0.7-1-1-2.1-1.4-3.1
	c-0.4-1-2.2-2.2-1-3.2c1.2,1.7,2.3,3.3,4.7,2.9c-1.8-1.6-3.3-3.2-4.8-4.2c-0.7-0.5-1.9,0.1-3,0.3c-0.5-0.5-1.2-1.3-1.8-1.8
	c0.2-0.3,0.3-0.5,0.5-0.4c2.4,0.3,2.4-1.9,3.6-2.8c0.2-0.1,0-0.6-0.1-0.8c-1.5-1.1-0.8-1.6-0.3-1.9c0.5-0.6,1.3-1,1.8-1.5
	c-1-1-1.9-1.9-2.8-3c-0.1-0.1,0.1-0.3,0.3-0.7c0.7,0.5,1.4,1.2,1.9,1.6c1.8-0.7,2.1-1.1,1-2.2c-1.3-1.3-2.7-2.3-4.4-3.8
	c0.3,1.3,0.5,2.2,0.7,3.1c-0.1,0.1-0.4,0-0.4,0c-0.8-1-1.6-2.1-2.6-3.6c2.1-0.8,1.5-4.2,5.4-3.3c0.3,0.1,0.7-0.7,1.1-1.3
	c-2.3-1.1-4.4-2.1-6.9-3.3c0.6,1.3,1.2,2.2,1.6,3.2c-0.8,1.2-1.5,2.7-2.6,4.4c-0.5-1.2-0.8-1.8-1.2-2.8c-1,0.4-2,0.7-3,1.1
	c-0.1-0.6-0.3-1-0.4-1.5c-1.2,0.1-1.4,1-0.8,2c0.8,1.4-0.1,1.8-0.8,2.2c0.4,0.5,0.8,1,1.1,1.5c0.5,1.4-0.5,2.2-1.8,1.7
	c-2.4-1-2.9-0.8-2.8,0.9c0,0.9,0.1,1.8,0.1,2.7c-2.1,0.4-3.5,1.6-3.3,3.4c0.3,2.6-1,4-2.4,5.3c-1,0.7-1.9,1.6-2.2,2.7
	c-0.2,1.8-0.9,2.6-3.5,1.8c1.5,2.3,1.7,4.7,0.1,5.5c-1,0.6-1.4,1.4-1.3,2.6c-0.2,2.9-0.7,5.6-1.3,8.2c-0.3,1.3-0.7,1.2-2.3-0.3
	c-1,0.1-1.5-0.8-1.9-1.5c-1.5,0.6-2.5,1.5-2.4,3.4c-0.6-1.1-1-2-1.6-3.1c-1-0.1-1.9-0.1-3.1-0.3c-0.1-0.6-0.1-0.9-0.3-1.3
	c0-0.3-0.3-0.6-0.4-1c-2,0.1-0.7,1.8-0.8,2.7c-0.4,2.6-0.5,5.4,0.2,8.6c0.3,1.4-0.2,2.5-0.2,3.9c-0.1,0.5,0,0.9,0,1.3
	c0.1,1.1,0.2,2.3,0.4,3.5c0.1,1.4,0.2,2.7,0.3,3.6c-0.8,0.9-1.6,1.4-1.7,2.2c-0.2,1.4,1.6,2.2,3,3c0.2,0.8,0.4,1.5,0.5,2.1
	c-0.1,0.3-0.2,0.5-0.1,0.7c-0.7-0.4-1.2-0.6-1.8-1c-0.8,0.8-0.1,1.3,0.8,2.3c1.9,1.7,2.1,3,0.8,4.3c0.2,0.4,0.5,0.7,0.8,1.1
	c-1.3,0-2.3,0.2-3.8,0.3c1.9,1.4,2.2,3.9,5.1,3.3c0.3,2.7,0.7,5.1,1.2,7.5c0.1,1.1,0.2,2.2,0.5,3.3c0.8,2.9,1.8,5.7,2.6,8.5
	c0.3,1.1,0,2.2,0.7,3c2,2.3,2.6,4.7,3.9,6.9c0.1,0.1-0.1,0.3-0.2,0.5c-0.5-0.1-1.2-0.2-1.6-0.3c-0.7,2.2,2.9,3.5,3.4,5.5
	c-0.6,0.2-1.3,0.5-2.1,0.8l6.1,7.2c0,0,0,0,0.1-0.1c0,0,0,0,0.1,0.1c1.1,0,1.6,0.5,2.1,1.7c-1.3-0.4-1.9-0.7-2.1-1.7l0,0l0,0
	c-0.3,0.2-0.4,0.4-0.7,0.5c0.6,1.2,2.1,2.8,1.8,3.4c-0.6,1.2,0.8,2.7,0.7,3.8c0,0.4,0.5,1.2,0.9,1.5c0.3,0.2,1,0.1,1.3,0
	c1.3,1.5,2.3,2.6,3.4,4c1,1.2,2.2,2.3,3.1,3.5c1,1.2,1,1.9-0.3,2c-0.5,0-1.2-0.2-1.6-0.1c1.2,2.1,1.2,2.1,3.5,3.5
	c3.4,1.9,4.5,4.7,3.1,6.6c-0.3,0.4,0,1.4,0,2.3c2.3,0.1,4.8,1.5,5.6,3.2c2.2,4.1,5.5,7.7,8.9,11.4c0.6,0.7,1.3,1.2,1.6,1.8
	c1.8,3.1,3.6,6.2,7.5,8.4c-0.5,0.4-0.9,0.6-1.1,0.9c-0.2,0.3-0.3,0.7-0.4,0.9c2,1.5,1.3-0.6,2.3-0.6c1.1,1.9,0.9,4,3.5,5.4
	c0.6,0,1.2-0.1,2-0.2c-0.3,1.7,1.4,3.3,2.5,3.9c2.6,1.3,4.7,2.6,5.6,5.2c0.4,1.1,1.4,2.2,2.3,3.4c0.8,1,1.6,2.1,2.5,3.3
	c-1.1,0.3-2,0.5-3,0.9c0.8,1,1.4,2.4,2.3,3.1c3.2,2.4,6.5,4.7,9.8,7c3.2,2.3,6.5,4.7,9.9,7c3.7,2.4,7.3,4.8,11,7.1
	c5.6,3.3,11.1,6.5,16.9,8.3c3.6,1.2,7.2,1.5,10.8,4c0.9,0.7,2.1,0.6,3.2,1.1c3,1.2,6.3,0.7,9,4.2c0.1,0.1,0.4,0.2,0.6,0.3
	c2.6,0.3,5.1,1.9,7.5,3.3c3.6,2,6.2,1.3,9.1,1.4c0.5,0,0.8-0.9,0.9-1.5c0.2-0.5,0-1.2,0-1.8c1.4,0.1,2.9,0.2,4.3,0.2
	c-1.1-1.6-2-2.9-3-4.3c-0.2-0.5-0.6-1.3-0.3-1.5c0.2-0.3,1.1,0,1.6,0.3c2.9,1.9,5.8,2.7,8.9,2.8c-1.1-2.5-0.4-4.1,0.8-5.5
	c-1.3-1.4-2.5-2.7-3.8-3.9c0.2-0.1,0.2-0.3,0.4-0.3c2.3,1.8,4.6,3.6,7.3,5.7c-0.4-1.3-0.6-2.2-0.9-3.4c3.1,1.1,6.2,2.7,7.8,0.4
	c-2.8-3-5.7-6.1-8.5-9.2c-0.1-0.1-0.2-0.2-0.3-0.2c-1.2-1.1-2.6-2.3-3.6-3.4c-3.4-3.6-6.8-7.3-9.9-10.9c-1.8-2.3-3.5-4.9-4.6-7.5
	c-1-2.2-2.1-4.4-3.7-6.6c-0.4-0.5-0.6-0.9-1-1.4c-0.1,0-0.3,0-0.4-0.2c-9.2-7.4-17.6-15.7-25.8-24.2c-0.1,0.1-0.1,0.1-0.2,0.1
	c-0.5-0.4-1.2-0.7-1.7-1.1c-3.8-3.2-7.4-6.2-11.3-9.4c-1.4-1.1-2.7-2.1-4-3.1c-1.8-1.3-4.1-2.1-4.7-4.5c-0.2-0.4-0.7-0.7-1.1-1
	c-2.9-2.5-6-4.9-9-7.4c0.1-1.6,0.4-3.1,0.6-4.5c-1.4-1.4-2.4-3-3.1-4.6c-0.6-1.4-1.4-2.7-2.2-3.9c0.1,0.5,0.1,1,0.1,1.5
	c-2.6-1-2.8-1.4-2.2-3c-0.9-0.7-1.8-1.4-3.2-2.4c1-0.1,1.7,0,2.3,0c-1.6-2-3.1-3.9-4-5.8c-2.1-0.3-3.8-2.4-5.9-3
	c-0.9-0.3-1.7-0.9-2.7-1.4c1.3,2.4-1.9,1.1-1.5,3.1c-0.8-1.2-1.1-1.6-1.7-2.3c-1.1,0-2.2,1.3-3.7-1.1c0.2-0.1,0.3-0.2,0.4-0.4
	c0.1-0.2,0.3-0.4,0.6-0.8c-3.5,0.3-3.5,1.4-0.1,5.9c-3-1.2-3.2-3.3-4.2-5.3c-1.1,2,0.6,4.4,1.1,6.6c-1.4-1.3-2-2.6-2.4-4
	c-0.4-1.3-0.7-2.9-1.6-4c-1.4-1.7-1.5-2.7-0.9-3.9c0.4-0.6,1.3-1.1-0.2-2.5c-1.1,0.5-2.2,0.4-3.6-1.2c-0.1-3.1-3.6-7.2-1.5-9.6
	c-0.8-1.2-2.2-2.4-2.3-3.3C452.9-218.6,451.8-221.9,453.4-224.1z M435.6-301.5c0.2,0.2,0.6,0.3,0.8,0.5c0.2,0.3,0.2,0.5,0.5,1.2
	c-0.7-0.7-1.2-0.9-1.3-1.1C435.5-301.2,435.6-301.3,435.6-301.5z M433.3-299.8c1.7,0.2,2.3,0.9,2.2,2.3
	C434.6-298.4,434-299,433.3-299.8z M442.3-280.2c0,0.4,0.1,0.8,0,0.8c-0.4,0-0.7-0.1-1.2-0.2c0-0.3-0.1-0.6-0.3-0.9
	C441.3-280.5,441.7-280.4,442.3-280.2z M402.9-263.3c0.1-0.3-0.1-0.8,0-1c0.2-0.1,0.6,0,1.4,0.2c-0.2,0.5-0.1,0.8-0.3,0.9
	C403.7-263.1,403.3-263.3,402.9-263.3z M408.3-266.8c1.8,1.5,1.1,2.1,1.1,2.8c-0.3,0-0.5-0.2-0.7-0.2
	C408.6-264.8,408.4-265.6,408.3-266.8z M406.3-262.8c-0.2-0.4-0.3-0.9-0.4-1.3c0.3,0,0.5,0.1,0.8,0.2c0.1,0.5,0.3,1,0.2,1.4
	C406.7-262.7,406.5-262.7,406.3-262.8z M435.8-278.9L435.8-278.9c0-0.1,0-0.1,0-0.1c-0.9-0.7-1.8-1.4-2.7-2c0.3-3.3,1.9-4.1,6-2.8
	c-0.2,2-2,1.7-4.1,1.2c0.2,1.2,0.5,2.4,0.8,3.6l0.1,0.1C436-278.8,435.8-278.9,435.8-278.9c0.1,0.6,0.1,1.2,0.3,2.5
	C434.7-278.1,435.5-278.4,435.8-278.9z M432.4-269.6c0.2-0.5,0.1-0.7,0.2-1c0.2,0.2,0.6,0.3,0.8,0.4c0.1,0.3,0.1,0.5,0,0.7
	C433.2-269.4,432.8-269.6,432.4-269.6z M405.3-235.7c-0.7-0.7-1.6-1.2-2.1-1.9c-0.9-1.3-0.7-3.8-0.2-5c1,2.3,1.8,4.5,2.7,6.6
	L405.3-235.7z M439.5-252.5c-1.5-2.9,0-4.1,1.2-5.8c2.9,3.2-1.8,3.2,1.4,6.1C440.7-252.2,440.3-252.3,439.5-252.5z M441.6-238.3
	c-0.3-0.9-1.9-1.9-0.8-2.9c0.7-0.6-1.4-2.8,1.2-2.7c0.1,2.2,0.2,4,0.3,5.8C442.1-238.2,441.7-238.3,441.6-238.3z M442.3-233.6
	c-0.2-0.4-0.5-0.8-0.5-1.1c0-0.3,0.1-0.6,0.2-0.8c0.2,0.2,0.4,0.2,0.7,0.4c0.1,0.6,0,1.2,0.1,1.8
	C442.7-233.5,442.6-233.5,442.3-233.6z M561.1-97.8c0.7,0.9,1.4,1.9,2,2.9c-0.2,0.1-0.3,0.1-0.4,0.2l-2.3-2.8
	C560.5-97.7,560.8-97.8,561.1-97.8z M454.6-207.3c-0.1,0.5-0.3,0.7-0.3,1.2c-0.2-0.2-0.6-0.3-0.7-0.4c0-0.4,0.1-0.8,0-1.3
	C454.1-207.6,454.4-207.5,454.6-207.3z M484-332.3c0.6,1.5,2.4,3.1,2.1,4.6c0,0.1,1.5,1,2.2,1.6c0.1-0.5,0-0.9-0.3-1.1
	c-1-0.8-0.9-1.3-0.2-1.6c0.7-0.4,1.4,0.2,1.9,1c0.4,0.7,0.6,1.5,0.9,2.3c-3,0.2-5.8,0.3-8.7-0.2c-0.2-0.3-0.2-0.5-0.5-0.7
	c0.7-0.6,1.2-1.3,2-1.9c-2-0.1-4.1-0.2-6.3-0.2c0.7,0.7,1.2,1,1.6,1.5c0.4,0.4,0.6,0.9,0.6,0.9c-1.2,0.5-2,1.1-2.9,1.5
	c-1.1,0.3-1.9,0.6-3.3,0.9c1.3,0.9,2.3,1.6,3.2,2.2c0.2-0.5,0.3-0.9,0.6-1.3c2.6,2.5,3.8,0,6.2,1.6c-0.5-1.1-0.7-1.6-1-2.2
	c1.1-0.1,1.9-0.3,2.8-0.5c2.5-0.3,3.5,0.5,4.4,3.6c-1.8,0.2-3.9,0.2-5.6,0.6c-1.8,0.4-3.6,1.2-5.5,1.7c-2.8-1.7-3.1-1.6-3.7,0.1
	c-0.2,0.7-0.5,1.3-1,1.7c-0.8,0.7-2,0.9-2.8,1.5c-2.1,1.6-4.5,2.7-7.7,2.8c0.6,1.1,1.2,2.2,1.9,3.6c2.2-1.2,5.8-0.1,7.3-2.1
	c-1.3-2.7-1.3-2.9,0-3.7c1.4-1,3-1.9,6.1,0.6c0.3-3.3,3.3-3.4,6.1-3.6c1.7-0.2,3.7-0.1,4.8-0.8c1.7-1.3,4.3-0.3,6.5-0.2
	c0.4,0,1,0.7,1.7,1.1c-2.5,1.3-5.2,1.5-8.2,1.6c-1.1,0-2.7,0.1-2.9,0.5c-0.2,1.1-1,1-2.1,0.8c-1.1-0.2-2.1-0.4-2.7,0.5
	c2.3,1.6,4.3,1.5,5.5,1c2.2-1,4.8-0.6,7.8,0.5c0.1,0,0.3-0.2,0.5-0.2c-1.7-2.9-1.1-4,2-3.2c0.3,0,0.5,0.2,0.7,0.2
	c1.1,0.6,1.6,0.5,2.3,0c0.5-0.6,1.7-0.7,2.7-0.8c3.8-0.5,7.5-1.2,11.4-1.5c6.3-0.7,13.4,1,20.3,2.4c0.3,0.1,1,0.7,1.5,1
	c-1.7,0-3.4-0.5-5.1-0.8s-2.9,0.1-3.8,1.3c1.2,0,2.2,0.2,3.1,0.3c2.1,0.3,4.1,0.4,6.1,0.6c4.3,0.7,8.6,0.8,13,1.7
	c7.8,1.7,15.5,4,23.4,6.4c10,2.9,19.9,5.8,30.1,10.1c1.5,0.6,2.6,0.5,3.6-0.3c-1-0.6-1.6-1-2.2-1.3c-9.9-5.8-20.4-9.3-30.9-13.8
	c-2.7-1.2-5.6-2-8.4-3c-3-1.1-5.8-2-8.8-3.2c-2.8-1-5.2-2-7.8-3c-3.1-1.1-6.1-2.3-9.4-3.5c-2.6-0.9-5.4-2.1-7.6-2.3
	c-2.8-0.2-5.6-1.6-8.5-2.2c-0.9-0.2-2.1-1.1-3-1.8c-2.4-2-4.9-2.7-7.6-3.1c1.9,1.6,3.4,2.7,5.3,4.4c-0.7,0.4-1.2,0.9-1.7,0.9
	c-3-0.4-5.9-1.3-8.3-4.6c-2.3,1-5,0.2-7.8-2.1c-0.2,0.1-0.2,0.3-0.4,0.3c1,1.4,1.8,2.7,2.9,4.5c-1.8-0.1-3.3-0.3-4.8-0.3
	c-1.1,0-2-0.2-2.8-1.4c-1.1-1.5-2.4-1.7-4.3-2c1.5,1.2,3.3,1.7,3.2,3.5c-1.3-1.3-2.4-1.6-3.7-1.3c-0.9,0.2-2.6-0.5-3.7-1.1
	c-0.6-0.3-1.1-1.5-1.5-2.2C483.3-334,483.7-333,484-332.3z M500.7-318.1c-0.1,0.3,0.1,0.5,0,0.6c-0.1,0.1-0.4,0-0.5-0.1
	c-0.2-0.2-0.2-0.4-0.5-0.9C500.3-318.2,500.5-318.1,500.7-318.1z M494-325.1c2.7,0.8,4.9-0.4,7.8,1.6c-2.9,0.3-5.2,1.5-9.3-0.9
	C493.2-324.6,493.7-325.2,494-325.1z M491.6-323.4c-0.2,0.1-0.2,0.5-0.2,0.7c-0.7-0.4-1.2-0.6-1.8-1c0,0,0.1-0.5,0.1-0.6
	C490.5-324,491.1-323.7,491.6-323.4z M492.6-328.3c0.3,0.2,0.7,0.6,1,1.1c-1.2,0.3-1.9-0.2-2.6-1.7
	C491.8-328.6,492.1-328.6,492.6-328.3z M448.3-271.4c2.9,0.6,4.2-0.4,4.9-4.4c0.6,1.2,1.5,2.3,2.7,1.8c0.2,0.5,0.6,1.1,1.2,2
	c-3.1-1.1-3.5,0.6-4.6,1.8c-1.2,1.2-2.3,2.3-3.4,3.7c0.7,0.8,1.4,1.7,2.5,2.9c-0.3-1.1-0.6-2-0.8-3.1c1.2,0.8,1.8,1.3,3,2.1
	c0.3-1.1,0.5-2,0.9-3.1c0.4,0.7,1,1.6,0.9,1.8c-1.3,1.5-2.8,2.8-4.1,4c-2.6-1.8-4.8-3.3-7-4.8c-0.9-0.4-0.9,1.7-2.6,0.1
	c0.5-0.8,1-1.6,1.4-2.4l-0.1,0.1c1.2,0.5,2.4,1,3.9,1.6c0.4-0.3,1-1,1.6-1.6c-1.1-1.6-2.2-3-3.5-4.7c1.1-0.1,1.8-0.2,3.2-0.4
	C448.5-272.8,448.4-272.1,448.3-271.4z M463.2-336.8c0.3-0.5,0.8-1,1.6-1.6c2.5,2.3,4.9,4.4,7.8,4.8c0.3,0,0.3,0.1,0.6,0
	c1.6,0.6,2.2-0.8,4.2,0.4c1.3,0.8,2.9,1,4.6,1.5c-0.2,1.6-2.1,1.5-3.3,0.9c-2.7-1.4-4.4-0.7-6.5-0.7c-1.4,0-2.4,0.1-4.2-1
	c-1.7-1-3.5-1.1-5.3-1.5c-0.1-0.3-0.2-0.4-0.2-0.7c1.1,0.1,2.2,0.1,3.4,0.1C466.5-336.4,463.9-335.3,463.2-336.8z M397.8-221
	c0-0.9-0.3-1.9,0-2.4c0.4-0.3,1.7,0.2,1.5-0.7c-0.3-0.8-1-1.7-1.5-2.6c-1.2,1.2-2.6,1-3.8-0.5c-0.7-0.9-1.4-1.4-2.5-1.7
	c-0.3-0.1-0.9-0.7-1.3-1c-0.8-0.1-1.6-0.3-2.7-0.4c0.4,0.6,0.8,1.4,0.9,1.5c1.7,0.3,1.9,1.4,2.3,2.5c0.5,1.2,0.8,2.4,1.3,3.9
	c1.2-0.8,2.1-1.4,3.2-2C396.1-223.3,395.8-222,397.8-221z M392.8-225.6c-0.2-0.2-0.4-0.6-0.4-0.8c0-0.1,0.4,0,0.9-0.1
	c0,0.3,0.2,0.7,0.2,0.8C393.6-225.5,392.9-225.6,392.8-225.6z M442.2-316.6c0.6,3.1-1.2,3.7-4.3,2c-1-0.5-2.4-0.6-3.5-0.9
	c-0.1-0.3-0.2-0.4-0.2-0.5C436.6-316.4,437.5-319.9,442.2-316.6z M449.9-238.7c-0.7-0.9-1.4-1.9-2-2.9c0.5-0.6,1-1.1,1.6-1.8
	c2.1,3.6,1.5,6.2,1.8,9.2c-2.1-0.7-3-1.9-3.6-3.2C447-239.2,449.5-237.8,449.9-238.7z M456.8-329.4c-1.4-1.6-3.1-3-5.1-3.3
	c-0.3-2.8-0.3-2.8,2.5-2.2c-0.3,0.7-0.4,1.3-0.7,2c1.3,0.4,2.1,0.5,3.4,0.9C456.8-331.2,456.8-330.3,456.8-329.4z M444.8-309.1
	c0.6,0.3,1.8,1.1,2.1,1.7c0.2,0.5,0.1,1.5-0.3,1.7c-0.5,0.4-1.6,0.3-3,0.6c-0.1-1.5-0.3-2.5-0.2-3.4
	C443.6-308.8,444.5-309.2,444.8-309.1z M390.4-229.9c-0.1-0.7-0.4-1.5-0.7-2.1c0.8-0.7,2.5-0.3,1.9-2.1c-0.2-0.4,1.3-0.8,2.6-1.4
	C393.7-232.8,394.1-229.9,390.4-229.9z M461.7-333.3c0.3,1.1,0.6,2,1,3.3c-2.3-2.2-5.1-2.1-7.1-5.3
	C457.8-334.5,459.6-334,461.7-333.3z M458.1-275.9c-0.7,0.6-1.6,1.2-2.1,1.9c0-2.3,1.1-3.4,2.9-4.1c2.1,1.3,4,2.6,5.9,3.7
	c-0.9-0.1-1.7,0.4-2.9-0.9C460.7-276.6,459.3-276.7,458.1-275.9z M456.9-300.3c0.8,1.9,1.4,3.7,2.2,5.4c-0.1,0.1-0.3,0.1-0.3,0.2
	c-1.6-1.6-3.4-3.3-5.2-5.1C455-300,456.1-300.2,456.9-300.3z M469.6-202.4c3.3,0,5,1.8,7.2,4.4C473.7-198.6,472.1-200.9,469.6-202.4
	z M446.3-134.4c1.9,1.8,3.6,3.2,5,4.7c-1.9,0.8-3.3-1-4.8-2.2C445.6-132.9,445.8-133.7,446.3-134.4z M462.1-326.7
	c0.1,1.1,0.2,1.9,0.3,2.5c-1-0.5-1.8-0.9-2.6-1.1c-0.8-0.1-1.8,0.1-2.6-1.3C458.6-326.7,460.2-326.7,462.1-326.7z M458.6-204.7
	c0.5-1,0.9-1.6,1.5-2.3c1.9,0.1,3.4,2.2,5.8,3.8c-0.9-0.1-1.6-0.1-2.2-0.3C460.8-205.1,460.9-205.1,458.6-204.7z M429.6-156.2
	c-1.1-1.8-2.2-3.2-3-4.4c0.2-1,0.2-2.1,0.4-3.1c0.3,0,0.3,0.1,0.6,0C428.3-161.3,428.8-159.1,429.6-156.2z M461.9-301.9
	c0.6-0.1,1-0.3,1.9-0.5c-0.2,0.9-0.3,1.4-0.5,1.9c-0.9-0.2-2-0.6-2.3-0.3c-0.4,0.2,0.1,1.3-1.4,0.2c0.7-1.1,1.3-2.2,1.9-3.3
	c0.1,0,0.3,0.2,0.4,0.2C461.9-303,461.8-302.6,461.9-301.9z M407.3-269.1c-0.5-0.7-0.5-2-1.9-1.5c-0.1-0.6-0.2-1.2-0.5-1.9
	c1.1,0.1,2.1,0.2,3.1,0.4C409.1-269.8,409-269.5,407.3-269.1z M450.8-294.4c-0.5-0.5-1.3-1-1.9-1.5c0.2-0.1,0.2-0.5,0.2-0.7
	c1.3,1,2.9,0.2,3.9,2.2c0.3,0.6-0.1,1.3-0.4,2.2C451.7-293.2,451.5-293.8,450.8-294.4z M396.1-238.4c-0.6-1.1-0.6-2.4-0.9-3.6
	c0.3,0,0.3,0.1,0.6,0c0.7,1.6,1.4,3.2,2.2,4.8c0.2,0.5,0.8,1.1,1.1,1.6C397.2-235.9,396.4-237.4,396.1-238.4z M398-213.9
	c-0.8,0.1-1.6,0.3-2.9,0.4c-0.1-1-0.3-1.7-0.3-2.5C396.1-215.5,397.5-215.6,398-213.9z M393.4-237.5c-0.9-0.5-1.6-1-2.2-1.4
	c0.3-0.5,0.5-0.9,0.8-1.4c0.3-0.3,0.4-0.8,0.8-1.5C393.8-239.8,393.5-238.8,393.4-237.5z M402.9-210.3c-0.7-2-1.1-3.4-1.7-5.1
	C404-213.1,404.2-212.7,402.9-210.3z M471.6-206.2c0.5,0.1,1,0.3,1.6,0.4c0.1,1.6-1,2-2.1,1.1c-0.8-0.5-0.8-1.4-0.2-1.7
	C471-206.2,471.4-206.2,471.6-206.2z M457.2-265.2c0.9-2.8,1-2.9,3-0.8C459.3-265.9,458.5-265.7,457.2-265.2z M454-289
	c1-0.4,2-0.7,3-1C456.3-287.6,456.3-287.6,454-289z M454.4-281.8c0.8,1.4,1.5,2.4,2.3,3.9c-1.4-0.9-2.4-1.6-3.4-2.3
	C453.4-280.7,453.7-281.1,454.4-281.8z M454.7-328.2c-0.9-0.4-1.7-0.9-3.1-1.6c1.3-0.8,2.2-0.9,3.2,0.3
	C455-329.3,454.7-328.8,454.7-328.2z M462.3-120.7c1.1,1,1.9,1.8,3,2.8c-0.5,0.2-0.9,0.3-1.6,0.7
	C463.3-118.6,461.7-119.4,462.3-120.7z M448.9-280.1c-0.3,0.7-0.6,1.3-1,2.2C446.7-279.7,446.7-279.7,448.9-280.1z M399.9-271.7
	c0.2-1,0.4-2,0.6-3.1C401.6-273.6,401.6-272.8,399.9-271.7z M411.9-184c-0.1,0.2-0.3,0.3-0.4,0.6c-1.4-0.2-2.1-0.9-3.1-3
	C410.2-185.2,411-184.6,411.9-184z M452-260.2c1.1,0,2.2,0,3.3-0.1C454.5-258.7,453.8-258.6,452-260.2z M456.1-124.9
	c1.3,1,2.5,1.9,4.3,3.3C458.2-122.1,456.9-123,456.1-124.9z M451.2-278.2c0.2,1.9,0.2,1.9-2,1.5
	C449.8-277.1,450.4-277.5,451.2-278.2z M457.3-306.1c1.1,0,1.8,0,2.7-0.1C459.7-304,459.7-304,457.3-306.1z M444.7-287.4
	c0.1,0.1,0.1,0.1,0.2,0.2C444.8-287.2,444.8-287.2,444.7-287.4L444.7-287.4c-1.3-0.4-1.3-0.4-1.9-1.9c0.6,0,1.3,0,1.9-0.1
	c0,0.1,0.2,0.4,0.2,0.4C444.8-288.2,444.8-287.9,444.7-287.4z M386.4-243.2c-0.2-0.2-0.2-0.4-0.4-0.6c0.6-0.2,1.1-0.5,1.9-0.7
	C388.8-242.4,387.4-243,386.4-243.2z M389.6-242.4c0.5,1.5,0.7,2.2,1.2,3.2c-0.8-0.4-1.5-0.9-2.3-1.4
	C388.7-241.2,388.9-241.6,389.6-242.4z M417.3-295.3c0,0.7-0.2,1.4-0.1,2.2C415.5-294.8,415.5-294.8,417.3-295.3z M446.9-295.4
	c0.3,0.9,0.4,1.7,0.6,2.7C445.5-294.3,445.5-294.3,446.9-295.4z M474.1-342c1.1,1,1.7,1.6,2.4,2.2c-0.2,0.1-0.2,0.3-0.3,0.5
	C475-339.8,473.9-340.3,474.1-342z M443.5-137.1c-0.2,0.1-0.1,0.3-0.2,0.7c-1.2-0.2-1.8-1.2-2.7-1.8c0.2-0.1,0.1-0.3,0.2-0.5
	C441.5-138.3,442.5-137.8,443.5-137.1z M397.2-228.5c-0.3-0.9-0.5-2-0.8-2.9c0.4,0.2,0.6,0,0.9,0.2c0.3,1,0.5,1.9,0.6,2.9
	C397.7-228.3,397.4-228.4,397.2-228.5z M460.4-212.6c-1-0.5-2-0.9-3.7-1.7C458.4-214.6,459.4-213.6,460.4-212.6z M471-318.2
	c-0.5-0.5-1-1-1.5-1.6c0,0,0.3-0.3,0.3-0.2c0.7,0.4,1.2,0.7,1.7,1.1C471.4-318.5,471.1-318.5,471-318.2z M390.8-239.2
	c0.1,0.1,0.2,0.3,0.4,0.4c-0.1,1,0,2.1-2.2,0.8C389.1-238.9,390-239,390.8-239.2z M466.5-278.5c0.5,0.1,1.3,0.4,1.8,0.5
	c-0.1,0.3,0.1,0.6,0.1,0.9c-0.7-0.2-1.2-0.4-1.8-0.6C466.8-277.7,466.8-278.1,466.5-278.5z M459.8-314.8c-0.2,1-0.3,1.5-0.4,2.4
	C457.9-314.2,458.3-314.5,459.8-314.8z M430.1-328.6c0.3,0,0.4,0,0.7,0.1c0.2,0.5,0.6,1.1,0.9,1.7c-0.4,0-0.7-0.1-0.8-0.1
	C430.4-327.5,430.2-328,430.1-328.6z M444.1-330.5c-0.6,0.3-0.9,0.6-1.3,0.8c-0.2-0.2-0.4-0.4-0.6-0.7c0.6-0.3,1-0.5,1.4-0.8
	C443.8-330.8,444-330.6,444.1-330.5z M405.3-276.1c0.1-1,0.2-1.6,0.2-2.1C407.1-276.9,406.7-276.6,405.3-276.1z M465.3-276.7
	c-0.9-0.7-1.9-1.4-3.2-2.4C463.9-279.2,464.4-277.6,465.3-276.7z M468.7-197.7c1,0.1,1.6,0,2.3,0C471-196.5,471-196.5,468.7-197.7z
	 M452.6-319.6c0.2,0.5,0.8,1,1.1,1.6c-0.2,0.1-0.3,0.2-0.5,0.2c-0.2-0.3-0.7-0.6-0.8-0.9c-0.1-0.3-0.3-0.6-0.3-0.8
	C452.4-319.5,452.4-319.6,452.6-319.6z M443-313.1c0.1,0,0.3,0.1,0.5,0.1c0.1,0.7,0.3,1.3,0.4,2c-0.4-0.2-0.5-0.2-0.7-0.3
	C443.2-311.8,443-312.4,443-313.1z M462.2-341.9c0.5,0.6,0.9,1.1,1.4,1.7C461.9-340.4,461.9-340.4,462.2-341.9z M457.4-336
	c-0.2-0.2-0.2-0.5-0.5-0.7c0.5,0,1-0.3,1.4-0.4c0.2,0.3,0.2,0.5,0.5,0.7C458.3-336.2,457.8-336.1,457.4-336z M414-168.6
	c-0.9-0.8-1.6-1.3-2.6-2.2C413-170.6,413.9-170.1,414-168.6z M443.3-302.7c0.2,0.3,0.4,0.4,0.7,0.7c-0.4,0.3-0.7,0.6-1.2,0.9
	c-0.2-0.2-0.4-0.3-0.5-0.5C442.6-302,443-302.3,443.3-302.7z M393-219.7c0.5,0.8,1,1.7,1.5,2.4c-0.2,0.1-0.4,0-0.5,0
	c-0.5-0.7-1.1-1.6-1.7-2.3C392.6-219.6,392.8-219.7,393-219.7z M406.1-201.7c0.5,0.9,1,1.8,1.5,2.7c-0.3,0-0.4,0-0.6,0
	c-0.6-1-1-2-1.5-2.9C405.7-201.8,405.8-201.8,406.1-201.7z M472.9-209.1c0.1,0.6,0.3,1.3,0.4,2.4C471.5-208.5,472-208.9,472.9-209.1
	z M426.4-160.6c-0.3,0.3-0.5,0.8-0.7,1.2c-1.4-0.9-0.9-1.5-0.5-1.9C425.3-161.4,426.1-160.7,426.4-160.6z M480.2-193.4
	c0-0.1,0.9-0.1,0.9,0.1c0.4,0.4,0.4,0.8,0.5,1.4c-0.7-0.2-1.3-0.3-1.4-0.4C480.1-192.7,480.1-193.1,480.2-193.4z M425.2-311.8
	c0.1,0.1,0.1,0.5,0.3,0.9c-0.6-0.3-1-0.4-1.2-0.6c-0.2-0.2-0.1-0.5-0.1-0.8C424.4-312.1,424.8-312,425.2-311.8z M476.1-336.8
	c0.2-0.1,0.1-0.5,0.1-0.6c0.7,0.4,1.3,0.6,1.8,0.9c-0.2,0.1,0,0.4-0.1,0.5C477.4-336.2,476.8-336.6,476.1-336.8z M442.4-319.3
	c0.4,0.4,1,0.8,1.4,1.3c-0.3,0.1-0.3,0.2-0.5,0.4c-0.4-0.5-0.9-0.9-1.3-1.4C442.2-319,442.3-319.1,442.4-319.3z M427-312.3
	c-1-0.4-2.1-0.6-2-2.1C426-313.6,426.5-313,427-312.3z M418.5-172.8c0.5,0.5,1,1,1.4,1.5c-0.2,0.1-0.3,0.2-0.6,0.3
	c-0.5-0.6-0.8-1-1.3-1.5C418.1-172.6,418.5-172.8,418.5-172.8z M403.9-284.4c-0.2,0.5-0.2,1-0.4,1.5c-0.1,0-0.4-0.2-0.6-0.3
	c0.1-0.5,0.2-1.1,0.1-1.6C403.4-284.7,403.7-284.5,403.9-284.4z M447.5-322.6c-0.1,0.3,0,0.7-0.3,0.7c-0.2,0.1-0.5-0.1-0.7-0.3
	c0.1-0.3-0.1-0.6,0.1-0.6C446.7-322.9,447-322.8,447.5-322.6z M420.1-303.8c0.2,0.4,0.3,0.6,0.3,0.9c-0.1,0-0.4,0-0.5-0.1
	c-0.2-0.3-0.4-0.6-0.8-1.2C419.8-303.9,420.2-303.9,420.1-303.8z M444.8-287.1c0.9,0.7,1.7,1.2,2.3,1.8
	C446.1-285.2,445.5-286.3,444.8-287.1z M385.2-252.2c0.2,0.5,0.6,1.1,0.9,1.6c-0.3,0-0.4,0-0.5,0c-0.2-0.5-0.6-1.1-0.8-1.6
	C385-252.2,385.2-252.2,385.2-252.2z M480.7-335.8c-0.1-0.3-0.2-0.4-0.2-0.5c0.5,0,1.1,0,1.7,0c0.1,0.3,0.2,0.4,0.2,0.5
	C481.7-335.9,481.2-335.8,480.7-335.8z M459.4-292.4c0.1-0.3-0.1-0.6,0-0.8c0.1-0.1,0.4,0,1,0.1
	C459.8-292.8,459.6-292.7,459.4-292.4z M447.5-285.3c0.5-0.2,1.1-0.3,1.5-0.6C449.4-284.1,448.4-284.8,447.5-285.3z M501.5-337.9
	c0.3,0,0.6,0.3,0.9,0.4c-0.1,0.3,0.1,0.6,0,0.7c-0.4-0.2-0.6-0.3-1.1-0.6C501.2-337.4,501.3-337.8,501.5-337.9z M400-225.7
	c-0.2-0.2-0.3-0.6,0-0.6c0.1-0.1,0.3,0.1,0.9,0.2c-0.1,0.5,0,0.7-0.2,0.9C400.4-225.4,400.1-225.5,400-225.7z M448.9-304
	c-0.2-0.4-0.1-0.6-0.2-1.2c0.5,0.4,0.8,0.5,0.9,0.7c0.1,0.3,0.1,0.5,0.1,0.8C449.4-303.8,449.1-303.9,448.9-304z M439.8-306.4
	c0.1,0,0.4,0.2,0.4,0.2c-0.1,0.3-0.3,0.7-0.3,1.1c-0.1,0-0.2-0.2-0.4-0.2C439.8-305.7,439.7-306.1,439.8-306.4z M465.8-318.1
	c0.1,0.1,0.1,0.3,0.2,0.4c-0.5,0-0.9,0.1-1.3,0.2c-0.1-0.3-0.2-0.4-0.2-0.7C464.9-318.1,465.4-318.1,465.8-318.1z M445.6-318.4
	c-0.4-0.5-0.8-0.9-1.1-1.3c0.2-0.1,0.3-0.1,0.4-0.2c0.4,0.5,0.8,0.9,1.1,1.3C445.8-318.5,445.6-318.4,445.6-318.4z M496.1-331.5
	c-0.1-0.1-0.1-0.5,0.1-0.5c0.3,0.1,0.7,0.2,1.3,0.4c-0.1,0.5-0.1,0.6-0.3,0.7C496.7-331.1,496.4-331.3,496.1-331.5z M479.7-194.9
	c0.2-0.1,0-0.4,0.1-0.5c0.6,0.3,1,0.5,1.6,0.7c0,0.1-0.1,0.3-0.1,0.5C480.9-194.4,480.3-194.7,479.7-194.9z M470.6-279.1
	c0.1-0.1,0.5,0.2,0.6,0.3c0.1,0.3,0.1,0.5,0.2,0.8c-0.4-0.2-0.8-0.4-0.9-0.7C470.2-278.8,470.5-279,470.6-279.1z M451.5-284.8
	c0.1,0.1,0.4,0.3,0.4,0.3c-0.2,0.3-0.2,0.6-0.5,0.8c-0.2-0.2-0.3-0.2-0.4-0.4C451-284.3,451.3-284.5,451.5-284.8z M517.3-315.6
	c0-0.1,0.1-0.3,0.2-0.5c0.4,0.2,0.6,0.3,0.8,0.3c0,0.1-0.1,0.5-0.1,0.5C518-315.4,517.6-315.6,517.3-315.6z M436.7-143.9
	c0,0.1-0.1,0.2-0.3,0.3c-0.4-0.3-0.9-0.7-1.3-1c0-0.1,0.1-0.2,0.1-0.3C435.9-144.5,436.4-144.2,436.7-143.9z M466.9-303.6
	c-0.3,0-0.5-0.1-0.8-0.2c0-0.1,0-0.4,0.1-0.5c0.1-0.1,0.3,0.1,0.5,0.1C466.8-303.9,466.9-303.7,466.9-303.6z M466.7-211.2
	c0.2-0.1,0.3-0.3,0.3-0.5c0.1-0.1,0.3,0.2,0.6,0.5c-0.3,0.1-0.3,0.2-0.5,0.4C467-210.8,466.8-211,466.7-211.2z M448.6-291.2
	c0.4,0,0.8,0,1.1,0.1c-0.2,0.1-0.3,0.3-0.5,0.4C449.1-290.8,449-291,448.6-291.2z M477.6-303.7c-0.1,0.3-0.1,0.5-0.2,0.7
	c-0.1,0.1-0.5-0.2-0.6-0.3c0.2-0.1,0.3-0.3,0.2-0.6C477-304.1,477.2-303.9,477.6-303.7z M447.8-282.9c-0.4-0.2-0.8-0.4-1.1-0.6
	c-0.1-0.1,0.1-0.5,0.3-0.7c0.4,0.2,0.9,0.5,1.2,0.9C448-283.4,447.9-283,447.8-282.9z M423.6-166.7c-0.2,0.1-0.3,0.2-0.4,0.4
	c-0.4-0.3-0.7-0.7-1.1-1c0.1-0.1,0.1-0.2,0.2-0.3C422.9-167.2,423.2-166.9,423.6-166.7z M500.1-163.1c0.4-0.2,0.8-0.7,1.3-0.5
	c1.9,0.8,3.6,1.8,5.5,2.6c-0.1,0.3,0.1,0.6-0.1,0.7c-1.7-0.4-3.5-0.7-5.2-1.3C501.1-161.4,500.7-162.4,500.1-163.1z"/>
</svg>
