<?xml version="1.0" encoding="utf-8"?>
<!-- Generator: Adobe Illustrator 22.0.1, SVG Export Plug-In . SVG Version: 6.00 Build 0)  -->
<svg version="1.1" id="master-artboard" xmlns="http://www.w3.org/2000/svg" xmlns:xlink="http://www.w3.org/1999/xlink" x="0px"
	 y="0px" viewBox="0 0 711.6 294.9" style="enable-background:new 0 0 711.6 294.9;" xml:space="preserve">
<style type="text/css">
	.st0{opacity:0.38;fill:#F08B3D;enable-background:new    ;}
	.st1{opacity:0.38;fill:#5A288E;enable-background:new    ;}
	.st2{opacity:0.6;fill:#DA5B4D;enable-background:new    ;}
	.st3{opacity:0.4;fill:#F08B3D;enable-background:new    ;}
	.st4{opacity:0.4;fill:#5A288E;enable-background:new    ;}
	.st5{opacity:0.45;fill:#DA5B4D;enable-background:new    ;}
</style>
<path class="st0" d="M377.7,38c-0.5-0.8,0.7-1.4,2.5-1.6c2.7-0.3,4.6,0.1,6.3,1.1c1.9,1.2,4.8,1.5,6.9,0.8c0.6-0.2,1.3-0.6,1.2-1
	c0-0.3-0.8-0.7-1.4-0.9c-0.5-0.2-1.4,0-2.1-0.1c-3.6-0.3-5.1-1.6-4-3.2c0.3-0.5,0.4-1,0.6-1.7c-5,0.1-9.6,0.2-14.1,0.3
	c-1.6,0-2.8,0-2.9-0.9c3-1.5,6.7-1.7,10.9-1.5c3.2,0.2,6.3,0.3,8.6,1.5c1.4,0.8,3.3,0.8,5.2,0.3c-0.7-0.1-1.2-0.4-0.5-0.7
	c0.7-0.4,1.5-0.7,2.2-1.1c-0.5-0.1-0.8-0.4-0.3-0.7c0.2-0.1,0.4-0.2,0.6-0.3c-0.5-0.1-0.9-0.2-1.3-0.4c-0.6-0.2-0.6-0.6,0-0.8
	c0.4-0.1,0.8-0.2,1.1-0.3c-2-0.2-4-0.5-5.9-0.8v-0.7c2-0.3,3.9-0.5,7-0.9c-3.8-0.9-6.5-1.9-9.6-2.2c-3-0.3-6.3,0.1-9.5,0.1
	c-0.2-0.1-0.4-0.3-0.5-0.4c2.1-1.1,4.2-2.2,6.6-3.4c-1.2-0.1-2.1-0.3-2.7-0.2c-2.7,0.4-5.1,0.3-7.7-0.2c-0.9-0.2-2-0.1-3.1-0.1
	c-0.4,0-0.8,0.3-1.1,0.4c0.5,0.7,0.9,1.3,1.6,2.4c-3-0.3-5.1-0.8-7.2-0.8c-2.4,0-4.7,0.5-7.1,0.7c-1.9,1.6-1.9,1.6-5.6,2.1
	c-4,0.6-8.2,1-12,1.7c-3.5,0.7-6.7,0.7-10.2,0.2c-1.4-0.2-3.3-0.5-4.5-0.2c-4.4,0.9-8.5,0.7-12.3-0.2c-4.5,1.1-8.6,2.1-12.9,3
	c-1.2,0.2-3-0.1-4.4-0.4c-6.1-1.1-12.6-0.8-18.8-1.2c-0.7,0-1.5,0.5-2.3,0.5c-1.3,0-3.1,0.1-3.9-0.2c-3.5-1.4-6.8-3-10.2-4.5
	c-1.6-0.7-2.9-1.6-4.7-2.3c-1.6-0.6-5.1-0.4-5.8,0.2c-1.1,1,0.1,1.7,1.8,2.2c2.9,0.9,5.9,1.7,8.9,2.5c1,0.3,2.1,0.6,2.8,1
	c3.8,2.4,8.4,4.5,13.3,6.4c2.2,0.9,1.9,1.7-0.9,2.1c-6.1,0.9-11.9,2.7-18.8,1.4c-0.6-0.1-1.5,0-2,0.2c-1.5,0.4-1.8,0.9-0.5,1.5
	c2,0.5,4.3-1.3,6.3,0.3c-0.6,0.8-1.2,1.7-1.9,2.9c-1.7-0.3-2.8-0.5-4.8-0.9c2.7,2.4,1,3.7-2.6,4.9c-2.7,0.9-5.5,1.9-7.4,3.7
	c5.2-0.6,8.9,0,12.3,1.4c1,0.4,3,0.6,4.3,0.5c3.8-0.3,7.6-0.8,11.4-1.1c2-0.2,4.1-0.1,6.2-0.4c3.4-0.3,5.9,0.6,8.8,1.4
	c0.5-0.5,0.9-0.9,1.1-1.2c0.2-0.4,0.2-0.9,0.4-1.6c7.1,1.4,13.9,2.5,21.2,1.5c0.9,0.7,1.6,1.3,2.7,2.3c1.5-2.4,4.9-3.2,9.2-3.4
	c1.2-0.1,2.6-0.3,3.3-0.7c3.9-2,9-1.4,13.5-1.7c0.8,0.6,1.3,1,2,1.6c7.3-2.4,14.7-2.8,22.4-0.8c1,0.3,2.4,0.3,3.6,0.4
	c8.2,0.3,16.5,0.5,24.7,0.7c0.2,0,0.5-0.2,0.9-0.4c-1.5-2.2-8.1-0.8-9.4-2.5c-2.7,0-4.7,0.1-6.7,0c-2.1-0.1-4.1-0.4-6.1-0.7
	c-2-0.2-4-0.4-6.8-0.7c0.7-1.1,0.7-2.4,1.9-2.7c2.8-0.8,4.5,0.6,6.4,1.4c5.2-1.4,10.1-0.6,14.8,0.3c3.7,0.7,6.5,0.2,8.4-1.4
	c-4.9-0.4-9.8-0.8-14.7-1.2C379.4,39,377.9,38.4,377.7,38z M276.7,29.3c-0.6,0.1-1.3-0.2-2.4-0.3c1.6-0.6,2.1-0.8,2.6-1
	c0.4,0.2,1.1,0.5,1.1,0.7C277.9,28.9,277.3,29.2,276.7,29.3z"/>
<path class="st1" d="M260.3,151.8c-2.3-1.7-7-0.8-6.7-4.2c1.7,0.3,3.2,0.5,4.7,0.7c-0.7-1.7-1.3-3-1.8-4.4c-0.6-1.6-1.5-2.7-4.2-2.8
	c-1.3-0.1-2.6-0.5-3.9-0.8c-2.6-0.6-5.3-1.6-7.9-1.6c-9.1-0.2-18.2-0.2-27.4-0.2c-2.4,0-4.9-0.1-7.3,0.2c-2.1,0.2-4,0.9-3.4,3
	c0.2,0.6-0.6,1.9-1.5,2.1c-3.5,1.1-4.6,3.3-5.7,5.5c-0.3,0.7-0.6,1.6-1.4,1.9c-1,0.5-2.6,0.9-3.7,0.7c-1.4-0.2-2.1-1.2-1.3-2.4
	c0.6-0.8,1.4-1.9-1.1-2.4c-0.4,1-0.8,2-1.4,3.3c-2.3-0.7-4.4-1.3-7.4-2.3c3.2-1.2,5.4-2,7.7-2.8c-1.8-1.8-3.4-3.6-5.2-5.2
	c-0.4-0.3-1.2-0.6-1.8-0.7c-3.4-0.2-6.3-2.1-10-1.5c-1.2,0.2-2.7-0.3-4.1-0.6c-3.1-0.7-6.2-1.6-9.3-2.3c-4.1-1-8.2-2.1-12.5-2.8
	c-5.1-0.9-9.9-2.8-15.8-1.8c-3.1,0.5-7.3-0.8-8.5-3.4c-1.1-2.3-3.3-3.1-6.1-3.4c-4-0.5-8-1.1-12-1.4c-1.9-0.1-4.6,0.1-5.8,0.9
	c-1.7,1.2-6.1,1.2-4.7,4.1c0.1,0.2-0.4,0.6-0.7,0.8c-2.8,1.9-5.6,3.7-8.6,5.7c1.7,1.1,2.9,1.8,3.8,2.4c-0.8,2.4-1.5,4.5-2.2,6.6
	c-0.5,1.7-1.6,2.6-4.3,2.5c-2.6-0.1-5.1,0.1-5.4-2.5c1.3-0.5,2.6-0.9,4.5-1.6c-5.2-1.6-9.9-3-14.5-4.5c0.1-0.2,0.2-0.4,0.3-0.7
	c1.6,0.1,3.1,0.3,5.8,0.5c-3.1-1.5-5.3-2.6-7.8-3.8c-2.3,2.5-4.6,4.8-2.9,7.7c-3.5,2-6.7,3.9-9.5,5.5c-0.1,3.9,5,7,0.6,10.4
	c2.9,2.4,8.7-0.1,10.5,3.5c-3.8,0.2-4,0.3-5.6,1.6c-1.5-0.5-3-0.9-4.9-1.5c0.3,1.3,0.8,2.2,0.5,3c-0.3,0.9-1.4,1.6-2.2,2.4
	c0.8,1,1.5,1.9,2,2.6c-1.3,2.1-2.5,4-3.7,5.9c-1-0.1-2.4-0.2-3.7-0.3c-0.1,0.2-0.2,0.4-0.2,0.6c1.5,0.9,3.1,1.7,4.4,2.5
	c-1.5,1.2-3.9,2.1-3.9,3.1c0,2.3-0.4,5.3,2.5,6.7c2.5,1.2,6.4,1.8,9.4,1.5c3.4-0.4,6.7-0.1,9.2,0.9c3.2,1.3,6.3,1.2,9.5,1.5
	c2.8,0.2,5.5,0.6,8.3,1c3.5,0.5,6.9,1.5,10.3,1.5c5.5,0.1,10.3,1.3,15,3c5.6,2,11.4,4,18,1.9c0.3-0.1,0.7,0,1.1,0.1
	c0.1,0.4,0.3,0.9,0.4,1.2c5.3,0.3,10.6,0.6,16,1c0.8-1.8-0.6-2.4-2.6-2.4c-6.2,0-12.2-1-18.2-2.1c-8.1-1.5-16.4-2.7-24.6-4.1
	c-1-0.2-1.9-0.5-2.8-0.8c3.6-0.2,7-0.2,10.4,0.3c5.8,0.7,11.6,1.6,17.4,2.6c8.1,1.4,16.3,1.8,24.6,1.7c4-0.1,8,0.6,12,1.1
	c1.7,0.2,2.2,1.1,0.5,2.3c-3.6-1.1-7-1.3-9,1.3c1.9,2.2,3.5,4.2,5.3,6.3c2.1-1,3.6-2.6,6.3-1.1c0.6,0.3,2,0,3-0.1
	c4.2-0.7,8.3-0.7,12.6-0.3c3.1,0.3,6.3,0,9.4,0.1c1,0,2.5-0.1,3.1,0.3c3.5,2.5,8.3,1.5,11.1,2.3c2.3-0.8,3.7-1.3,5.2-1.8
	c-3.6-0.5-7-1.7-10.6,0.1c-0.9-0.9-1.9-1.8-3.3-3.1c-2.3,2.7-5.8-0.8-8.4,1.2c-1.8-1.9-5.2-1.6-8.2-2.9c7.7-2,14.6-0.7,21.5,0
	c7.7,0.8,15.2,2.2,22.8,3.3c2.1,0.3,4.2,0.3,6.3,0.4c1.9,0.1,2.3-0.8,2.2-1.9c0,0-0.1,0-0.1,0.1c-0.1-0.1-0.1-0.1-0.2-0.1
	c-1.2-0.1-2.5-0.3-4-0.5c2.5-0.8,2.6-0.8,4,0.5c0.1,0,0.2,0,0.3,0l0,0c2.4-1,4.6-1.9,7.6-1.8c1.8,0.1,3.5-0.7,3.2-2.3
	c-0.4-2.1,1.4-2.6,3.7-2.8c2.7-0.2,4.7-0.9,5.5-2.8c-1.1-2.5-7-2.6-6.3-6.3c4.5,0.6,8.7,1.3,14,2c-1-1.9-1.3-3.1-2.3-4
	c-1.5-1.3-3.3-2.5-5.3-3.5c-2.2-1.1-1.5-1.9-0.1-3.2c1.5,0.5,2.8,0.9,4.2,1.3c0.9-2.4,0.8-2.9-1.9-3.3c-3.4-0.5-6.8-0.5-10.4-0.8
	c-0.3-1.6-0.6-3.2-0.8-4.6c3.2-1.8,6.4-3.5,9.7-5.3c-0.6-0.7-2.4-2.3-2.3-2.4c2.4-1.5-1.1-2.7-0.2-4.2c3.5-0.3,6.9-0.6,9.9-0.9
	c2.3-1.9,1-3.4-0.5-4.8C257.8,152.3,258.8,152.1,260.3,151.8z M63.3,187.1c-0.1-0.3-0.1-0.5-0.2-0.8c2.4-0.9,2.4-0.9,6.1,0.3
	C66.6,186.8,64.9,187,63.3,187.1z M63.2,164.7c0.6-0.4,0.8-0.6,1-0.6c1.5,0.2,2.9,0.4,2.4,2.1C65.4,165.7,64.3,165.2,63.2,164.7z
	 M69.2,162.2c1.7,0.7,3.4,1.1,4.3,2c0.8,0.8,0.8,2.1,1.1,3.1C69,167,68.5,166.5,69.2,162.2z M70.6,185.8c3.2-1.2,4.8,0.1,7.7,1.3
	C74.8,187.5,72.6,188,70.6,185.8z M73.8,157.1c0.7,0.8,1.3,1.5,2.3,2.6c-5.1,0.2-8.7-0.9-12.6-2.2c2.5-2.3,5-1,7.6-0.6
	c1.9-1.3,4.1-2.7,7.5-0.9C77,156.3,75.5,156.7,73.8,157.1z M89.1,189.6c-1.2-0.2-2.5-0.3-3.7-0.5c0.1-0.2,0.2-0.5,0.3-0.7
	c1.2,0.2,2.4,0.5,3.6,0.7C89.2,189.3,89.1,189.4,89.1,189.6z M186.4,156.5c-0.2-0.5-0.5-0.8-0.5-1.2c0-0.1,1-0.4,1.2-0.3
	c0.4,0.2,0.6,0.6,0.9,1C187.6,156.1,187.1,156.2,186.4,156.5z M75.7,137.6c-1.3-0.3-2.7-0.7-4-1c0.1-0.2,0.2-0.4,0.3-0.5
	c1.3,0.3,2.7,0.7,4,1C75.9,137.2,75.8,137.4,75.7,137.6z M100.6,196.1c0.9,0.2,1.9,0.3,2.8,0.5c-0.1,0.3-0.2,0.6-0.3,0.8
	c-0.9-0.2-1.9-0.5-2.8-0.7C100.4,196.5,100.5,196.3,100.6,196.1z"/>
<path class="st2" d="M579.6,89.2c1,0,1.9-0.2,3-0.4c0.9-0.1,1.6,0.6,2.6-1c-1-0.1-2.2,0.1-2.8-0.2c-0.6-0.3-0.4-1.4-0.7-2.3
	c-2.4,1.5-3.7,1.4-5.1,0.8c-1.3-0.6-2.7-1.7-5.7-0.2c-0.6,0.3-1.2,0.1-1.8,0.2c0.3-0.3,0.5-0.6,0.8-0.9c1-0.5,1.8-0.9,3.3-1.6
	c-2.4-1.3-6-0.8-7.4-3.2c1,0,1.6-0.2,2.4-0.1c1,0.2,1.9,0.6,3,0.6c4.7-0.4,9.4-0.6,12.7,1.1c0.2,0.1,0.5,0.3,0.8,0.2
	c2.8-0.9,4.2,0.2,5.9,0.6c2.8,0.9,6.5,1,7.7,3c1.7-0.1,3.5-0.7,4.1-0.2c1.7,1.2,3,2.7,4.5,4.2c-2.4,1.7-4.8,1.4-6.7,3.8
	c0.9,0.4,1.9,1,2.9,1.5c0.3,0.1,1,0.2,1.2,0.1c2-1.4,2.3-0.6,2.8,0.2c0.3,0.6,1.3,0.6,2,1c0.7-0.9,1-1.4,1.2-1.8
	c-0.5-0.6-1-1.2-1.5-1.8c0.2-0.1,0.4-0.4,0.7-0.6c-1.5,0.3-3,0.5-4.5,0.9c1-1,1.7-1.8,2.7-2.7c0.6-0.5,1.5-1.2,1.9-1.3
	c1.7-0.1,3.9-0.4,4.2,0.4c0.8,1,1.9,1.5,3,2.1c0,0.1,0.3,0.2,0.6,0.3c0.1-0.7,0.3-1.3,0.4-1.6c1.9-1.1,3.5-2,5.3-3.1
	c0.1,0.7,0.1,1.4,0.2,2.1c0.7-0.2,1.4-0.3,2.3-0.6c0.2,1,0.1,1.8-1.4,3c-0.6,0.5-1,1.2-1.3,1.9l6.2-2.5c-0.1,1.4-2.5,4,0.4,3.7
	c0.6-0.4,1.2-0.9,1.9-1.4c0.3,1,1.1,1.5-1.2,2.7c-1.7,0.8-1.9,1.8-1.3,2.5c1.3-0.5,2.8-1.3,4.1-1.7c1.2-0.3,2.2-0.3,3.4-0.4
	c1,0,2.9-1.4,3.1,0.1c-2,0.6-3.9,1.2-4.8,3.7c2.2-1.3,4.3-2.2,5.9-3.4c0.8-0.6,0.7-1.8,1.2-3.1c0.8-0.4,1.7-0.8,2.4-1.2
	c0.1,0.3,0.2,0.5,0.1,0.6c-1.4,2.3,0.4,3,0.7,4.5c0,0.2,0.5,0.2,0.7,0.2c1.7-1.2,1.8-0.3,1.8,0.3c0.3,0.7,0.2,1.6,0.4,2.3
	c1.4-0.6,2.6-1.2,3.9-1.8c0.2-0.1,0.3,0.2,0.4,0.5c-0.8,0.5-1.7,1-2.3,1.4c-0.3,2,0,2.4,1.3,1.7c1.7-0.8,3.2-1.9,5.3-3.1
	c-1.3-0.2-2.2-0.2-2.9-0.3c0-0.1,0.2-0.4,0.2-0.4c1.3-0.5,2.6-0.9,4.3-1.5c-0.4,2.4,2.8,2.8,0.2,6.4c-0.4,0.4,0.2,0.9,0.6,1.6
	c2-1.9,3.9-3.7,6.2-5.8c-1.4,0.2-2.5,0.5-3.5,0.5c-0.7-1.1-1.6-2.3-2.4-4c1.3-0.1,1.9-0.2,3-0.3c0.3-1.2,0.5-2.2,0.5-3.3
	c0.5,0.1,0.9,0.1,1.4,0.1c0.5-1.2-0.1-1.8-1.3-1.5c-1.6,0.3-1.5-0.6-1.5-1.5c-0.6,0.2-1.3,0.5-1.9,0.6c-1.5,0.1-1.6-1.2-0.5-2.4
	c2.1-2,2.1-2.6,0.6-3.1c-0.7-0.3-1.6-0.5-2.5-0.7c0.7-2.2,0.4-3.9-1.2-4.4c-2.3-0.6-2.9-2.2-3.2-4.1c0-1.2-0.4-2.4-1.2-3
	c-1.4-0.8-1.7-1.8,0.2-4c-2.7,0.8-4.8,0.2-4.7-1.7c0-1.2-0.5-1.8-1.6-2.1c-2.3-1.1-4.4-2.5-6.2-3.9c-1-0.7-0.8-1,1.4-2.2
	c0.4-1,1.5-1.2,2.2-1.4c0.3-1.7,0-3-1.8-3.4c1.3-0.3,2.3-0.4,3.4-0.6c0.6-1,1-1.9,1.8-3c0.5,0.1,0.8,0.2,1.3,0.2c0.3,0.1,0.6,0,1,0
	c0.9-2-1.2-1.3-2-1.6c-1.9-1.3-4.4-2.3-7.4-2.6c-1.3-0.1-2.1-0.9-3.2-1.4c-0.4-0.2-0.7-0.3-1.1-0.4c-1-0.2-2.1-0.5-3.1-0.8
	c-1.1-0.4-2.4-0.7-3.2-0.8c-0.3-1.1-0.3-2.1-1-2.4c-1.1-0.6-2.8,0.9-4,2c-0.8-0.1-1.5-0.1-2-0.2c-0.2-0.1-0.3-0.3-0.6-0.3
	c0.6-0.5,1.1-1,1.8-1.4c-0.2-1.1-1-0.6-2.4,0.1c-2.4,1.3-3.5,1-4-0.7c-0.5,0.1-0.7,0.2-1.3,0.4c0.6-1.3,1-2.4,1.7-3.9
	c-2.1,1.5-4.5,0.9-5.3,3.9c-2.5-0.5-4.7-0.9-6.9-1.2c-1-0.2-2-0.5-3-0.6c-2.8-0.1-5.6-0.1-8.5-0.2c-1.1,0-1.9-0.7-2.8-0.4
	c-2.9,1.3-5.3,1.1-7.8,1.7c-0.2,0.1-0.2-0.1-0.3-0.3c0.3-0.5,0.8-1.1,1.1-1.6c-1.5-1.4-4.4,1.7-6.4,1.6c0.1-0.7,0.2-1.5,0.4-2.4
	l-9.1,3.7c0,0,0,0,0,0.1c0,0,0,0-0.2,0.1c-0.6,1.1-1.3,1.4-2.6,1.6c0.9-1.1,1.6-1.7,2.6-1.6l0,0l0,0c0-0.3-0.1-0.5-0.1-0.8
	c-1.4,0.3-3.5,1.2-3.8,0.7c-0.7-0.9-2.7,0-3.6-0.5c-0.3-0.1-1.3,0.1-1.8,0.4c-0.3,0.2-0.6,1-0.7,1.3c-1.9,0.8-3.4,1.4-5.1,2.1
	c-1.5,0.6-3,1.4-4.4,1.9c-1.5,0.6-2.1,0.3-1.5-1c0.2-0.5,0.7-1.1,0.9-1.6c-2.3,0.4-2.3,0.4-4.6,2.3c-3.4,2.8-6.3,3-7.1,0.9
	c-0.1-0.4-1.2-0.4-2-0.7c-1.2,2.3-3.6,4.2-5.4,4.5c-4.5,0.8-9.3,3-14.1,5.2c-0.9,0.4-1.7,0.9-2.4,1.1c-3.5,0.8-7.1,1.6-10.9,4.7
	c-0.1-0.7-0.1-1.1-0.2-1.4c-0.1-0.3-0.4-0.5-0.6-0.7c-2.3,1.5-0.1,1.5-0.6,2.5c-2.2,0.4-3.8-0.4-6.3,1.7c-0.3,0.6-0.5,1.2-0.9,2
	c-1.3-0.9-3.6,0.4-4.6,1.2c-2.4,2.2-4.5,3.8-7.3,3.9c-1.2,0.1-2.6,0.7-4.1,1.2c-1.3,0.5-2.6,0.9-4.1,1.4c0.2-1.1,0.5-2.1,0.8-3.3
	c-1.3,0.5-2.7,0.6-3.7,1.3c-3.7,2.4-7.2,4.9-10.8,7.4c-3.6,2.5-7.2,4.9-10.9,7.6c-3.9,2.9-7.7,5.7-11.6,8.7c-5.5,4.4-11,8.9-15.4,14
	c-2.8,3.2-4.9,6.7-8.8,9.5c-1,0.7-1.5,1.9-2.5,2.9c-2.5,2.6-3.7,6-8.1,7.6c-0.2,0.1-0.5,0.4-0.5,0.5c-1.6,2.5-4.2,4.4-6.5,6.4
	c-3.5,3-4.2,5.7-5.7,8.6c-0.2,0.5,0.3,1.1,0.8,1.4c0.3,0.3,1,0.3,1.5,0.6c-0.8,1.4-1.6,2.8-2.3,4.2c1.9-0.6,3.5-1.1,5-1.5
	c0.6-0.1,1.4-0.1,1.5,0.2c0.1,0.3-0.5,1.1-1.1,1.6c-3.1,2.3-5.1,4.9-6.8,7.9c2.7-0.3,3.6,1,4.3,2.6c1.8-0.8,3.6-1.7,5.2-2.5
	c0,0.2,0.1,0.3,0.1,0.5c-2.7,1.7-5.4,3.5-8.5,5.4c1.3,0,2.1,0.1,3.3,0.1c-2.4,2.7-5.3,5.3-4.2,7.6c3.9-1.8,7.9-3.6,12-5.5
	c0.2-0.1,0.2-0.1,0.3-0.2c1.5-0.8,3.3-1.9,4.7-2.5c4.8-2.2,9.5-4.4,14.2-6.3c2.9-1.1,5.9-1.9,8.7-2.2c2.4-0.3,4.8-0.6,7.4-1.6
	c0.6-0.2,1-0.3,1.7-0.6c0.1-0.1,0.2-0.3,0.3-0.3c10.8-6.7,22.1-12.5,33.3-17.8c0-0.1,0-0.1,0-0.2c0.6-0.4,1.2-0.9,1.7-1.3
	c4.6-2.7,8.9-5.3,13.6-8.2c1.5-1,3.1-1.9,4.7-3c2-1.4,3.8-3.3,6.2-3.3c0.5-0.1,1-0.5,1.3-0.7c3.6-2.2,7.2-4.4,10.7-6.5
	c1.3,0.6,2.4,1.4,3.5,2c1.9-1,3.6-1.3,5.5-1.6c1.5-0.2,3-0.5,4.5-0.9c-0.5,0-0.9-0.2-1.3-0.4c2.1-2.2,2.6-2.4,3.6-1.2
	c1-0.7,2-1.3,3.7-2.4c-0.4,1-0.9,1.7-1.2,2.3c2.5-0.9,4.8-1.8,6.9-2.1c1.4-2,4-3,5.4-4.8c0.7-0.8,1.6-1.4,2.5-2.2
	c-2.7,0.5,0-2.2-1.8-2.5c1.4-0.5,1.9-0.6,2.8-0.9c0.5-1.1-0.1-2.6,2.8-3.3c0,0.2,0,0.4,0.1,0.5c0.1,0.2,0.1,0.4,0.4,0.9
	c1.5-3.5,0.6-3.9-4.9-2c2.5-2.6,4.3-2.1,6.6-2.5c-1.1-1.7-4.1-0.8-6.2-1c1.8-1,3.2-1.2,4.5-1.1c1.2,0.1,2.8,0.2,4.1-0.3
	c2.1-0.8,3.1-0.7,3.7,0.4c0.3,0.6,0.3,1.6,2.2,0.6c0.1-1.2,0.8-2.4,2.8-3.2c2.6,0.9,7.9-1.2,8.9,1.6c1.5-0.4,3.1-1.4,3.9-1.2
	C575.2,87,578.6,87,579.6,89.2z M654,96.6c-0.2,0.1-0.5,0.5-0.9,0.7c-0.4,0.2-0.6,0.1-1.3,0.1c0.9-0.5,1.4-0.9,1.6-0.9
	C653.8,96.4,653.8,96.6,654,96.6z M653.7,93.8c-1,1.6-1.9,2-3,1.4C651.9,94.6,652.6,94.3,653.7,93.8z M632.6,96.3
	c-0.3-0.1-0.7-0.2-0.8-0.2c0.2-0.4,0.4-0.7,0.7-1.1c0.3,0.1,0.5,0.1,0.9,0C633.4,95.5,633,95.9,632.6,96.3z M637.8,51.9
	c0.2,0.1,0.7,0.2,0.7,0.4c0,0.2-0.4,0.6-0.9,1.3c-0.3-0.3-0.6-0.4-0.5-0.6C637.2,52.6,637.5,52.3,637.8,51.9z M638.1,58.3
	c-2.2,1.3-2.4,0.4-2.9,0.1c0.2-0.3,0.4-0.4,0.5-0.6C636.3,57.9,637,58.1,638.1,58.3z M635.7,55.1c0.4,0,0.9,0,1.3,0
	c-0.2,0.3-0.3,0.5-0.5,0.7c-0.5,0-0.9-0.1-1.3-0.2C635.5,55.4,635.5,55.2,635.7,55.1z M634.7,89.5L634.7,89.5
	C634.8,89.5,634.8,89.5,634.7,89.5c1.1-0.7,2.1-1.3,3.1-2.1c2.7,1.3,2.5,3.3-0.6,6.9c-1.6-0.8-0.4-2.5,1-4.4
	C637.1,89.7,636,89.6,634.7,89.5l-0.1,0.2C634.6,89.7,634.7,89.5,634.7,89.5c-0.5-0.1-1.2-0.2-2.3-0.5
	C634.5,88.2,634.5,89.1,634.7,89.5z M628.6,83.1c0.3,0.3,0.6,0.3,0.7,0.6c-0.2,0.1-0.7,0.6-0.7,0.7c-0.3,0-0.5,0-0.5-0.3
	C628.1,83.8,628.4,83.5,628.6,83.1z M613.3,45.3c0.9-0.5,1.8-1.2,2.6-1.4c1.6-0.5,3.6,0.5,4.3,1.4c-2.4,0.2-4.7,0.4-7,0.6
	L613.3,45.3z M610.4,84.7c3.3-0.6,3.4,1.4,4.4,3c-4.1,1.8-1.8-2.9-5.8-0.6C609.6,85.8,610.1,85.3,610.4,84.7z M597.5,82.2
	c0.9,0,2.6-1.2,2.8,0.1c0.1,0.9,3-0.5,1.7,2.1c-1.9-0.6-3.5-1.1-5-1.6C597.2,82.5,597.4,82.3,597.5,82.2z M593.2,81.3
	c0.5-0.1,0.9-0.2,1.2-0.2c0.3,0.1,0.5,0.3,0.6,0.5c-0.2,0.1-0.3,0.3-0.6,0.5c-0.5-0.1-1-0.3-1.6-0.5C592.8,81.7,593,81.6,593.2,81.3
	z M419.4,155.3c-1.2,0.4-2.3,0.8-3.5,1.1c0-0.2,0-0.3,0.1-0.5l3.5-1.4C419.4,154.7,419.5,154.9,419.4,155.3z M564.8,85.1
	c-0.4-0.2-0.5-0.5-0.9-0.6c0.2-0.1,0.5-0.5,0.6-0.5c0.3,0.1,0.6,0.4,1.1,0.4C565.3,84.6,565.1,85,564.8,85.1z M656,154.7
	c-1.6,0.1-3.8,1.4-5,0.6c-0.1,0-1.6,1.1-2.5,1.7c0.4,0.3,0.7,0.3,1,0.1c1.1-0.7,1.6-0.5,1.4,0.3c0,0.8-0.8,1.3-1.8,1.5
	c-0.8,0.2-1.6,0.1-2.4,0.2c1.3-3,2.6-5.8,4.4-8.5c0.4-0.2,0.6-0.1,0.9-0.3c0.1,0.9,0.5,1.6,0.6,2.6c1.1-2,2.2-3.9,3.2-6.1
	c-1,0.5-1.4,0.8-2.1,1.1c-0.4,0.2-1,0.3-1,0.3c0.1-1.3,0-2.3,0.2-3.4c0.2-1.1,0.5-2.2,0.8-3.5c-1.4,1-2.4,1.8-3.5,2.5
	c0.3,0.3,0.5,0.6,0.8,1.1c-3.4,1.8-1.8,3.7-4.5,5.7c1.2-0.1,1.6-0.2,2.4-0.3c-0.4,1.1-0.8,2-1,2.9c-1,2.6-2.2,3.3-5.4,3.3
	c0.8-1.9,1.8-3.9,2.2-5.7c0.6-2,0.8-3.9,1.3-6c2.9-2.2,2.9-2.6,1.7-3.7c-0.4-0.4-0.9-0.9-0.9-1.6c-0.2-1,0.2-2.3,0.1-3.3
	c-0.4-2.6-0.1-5.3,1.5-8.6c-1.3,0.3-2.5,0.5-3.9,0.7c-0.1,2.5-2.8,5.8-1.9,8c3-0.4,3.1-0.3,3.1,1.2c0.1,1.8,0.1,3.6-3.5,5.9
	c2.6,1.4,1.2,4.3,0.1,7.2c-0.7,1.8-1.7,3.7-1.6,5c0.3,2.1-1.8,4.3-3,6.5c-0.2,0.4-1.1,0.8-1.7,1.3c0.1-2.9,1.4-5.7,2.7-8.6
	c0.6-1.1,1.3-2.7,1-3c-0.8-0.6-0.3-1.4,0.4-2.4s1.3-1.9,1-2.8c-2.5,1.8-3.4,3.8-3.5,5.1c-0.3,2.6-1.8,5-4.3,7.6
	c-0.1,0.1,0,0.3-0.1,0.6c3.4-0.8,3.9,0.2,1.8,3.1c-0.2,0.3-0.4,0.4-0.5,0.6c-1.1,0.9-1.3,1.4-1.1,2.3c0.3,0.7-0.3,1.9-0.7,3
	c-1.5,3.9-2.7,7.8-4.3,11.8c-2.4,6.4-7.5,12.9-12,19.3c-0.4,0.4-1.1,0.8-1.6,1.1c0.9-1.7,2.1-3.2,3.1-4.7s1.3-2.9,0.8-4.2
	c-0.7,1.2-1.2,2.1-1.8,3c-1.4,2-2.4,3.9-3.5,5.8c-2.7,4-4.9,8.3-7.9,12.3c-5.3,7.1-11.1,14.1-17,21.2c-7.4,9-14.8,17.9-23.4,26.6
	c-1.2,1.2-1.7,2.4-1.6,3.6c0.9-0.7,1.7-1.2,2.2-1.7c10-8.2,18.1-17.4,27-26.3c2.3-2.3,4.5-4.9,6.7-7.3c2.3-2.6,4.6-5.1,7-7.6
	c2.2-2.4,4.2-4.5,6.3-6.7c2.4-2.7,5.1-5.4,7.7-8.2c2-2.3,4.4-4.6,5.7-6.9c1.6-2.7,4.2-5.1,6-7.7c0.7-0.9,2-1.7,3-2.4
	c2.9-1.8,4.7-4,6.4-6.5c-2.3,1.4-4,2.5-6.4,3.9c0-0.8-0.2-1.5,0.1-2c1.8-2.8,4-5.4,7.9-6.7c0.4-2.7,2.2-5,5.6-7
	c0-0.2-0.1-0.3-0.1-0.5c-1.7,0.6-3.2,0.9-5.2,1.5c1-1.8,1.9-3.2,2.7-4.7c0.6-1.1,1.2-1.9,2.6-2.4c1.8-0.6,2.6-1.8,3.8-3.6
	c-1.9,1.2-3.1,2.7-4.5,2.1c1.8-0.9,2.5-1.9,2.9-3.2c0.3-1,1.7-2.4,2.7-3.4c0.5-0.5,1.9-0.6,2.6-0.8
	C657.9,154.4,656.9,154.5,656,154.7z M635.8,166.5c-0.2-0.1-0.5,0-0.5-0.2c0-0.1,0.3-0.4,0.3-0.5c0.3-0.1,0.5-0.1,0.9-0.2
	C636.2,166.1,636.1,166.3,635.8,166.5z M645,162.2c-2,2.4-2,5-5.2,7.2c1.1-2.9,1.4-5.7,5.3-8.9C645,161.3,645.3,161.9,645,162.2z
	 M644.8,159.2c0-0.1-0.3-0.3-0.4-0.4c0.6-0.5,1.1-0.9,1.8-1.4c0,0,0.4,0.2,0.5,0.3C645.9,158.3,645.4,158.8,644.8,159.2z
	 M648.5,161.7c-0.3,0.2-0.8,0.4-1.4,0.7c0.3-1.3,1-1.8,2.8-2C649.1,161.1,649,161.4,648.5,161.7z M622.3,99.4
	c-1.8,2.6-1.7,4.3,1.2,6.3c-1.4,0.3-2.7,0.8-2.8,2.1c-0.6,0.1-1.3,0.3-2.3,0.5c2.4-2.7,1.2-3.7,0.7-5.1c-0.4-1.6-0.8-3-1.4-4.6
	c-1.1,0.4-2.1,0.8-3.7,1.5c1,0.1,1.9,0.1,3.1,0.2c-1.3,0.9-2,1.4-3.2,2.3c0.8,0.7,1.4,1.2,2.2,1.9c-0.8,0.2-1.8,0.5-2,0.3
	c-0.6-1.8-1-3.7-1.5-5.3c2.8-2,5.1-3.7,7.5-5.4c0.8-0.8-1-1.5,1.2-2.5c0.4,0.8,0.9,1.5,1.3,2.2l0-0.1c-1,1-2.1,2-3.3,3.4
	c0.1,0.5,0.3,1.4,0.6,2.1c1.9-0.6,3.6-1.2,5.8-2c-0.4,1.1-0.8,1.9-1.3,3.3C623.2,100.2,622.7,99.8,622.3,99.4z M670.2,135.4
	c0.2,0.5,0.3,1.2,0.6,2.1c-3.1,1.8-6.1,3.4-7.9,6.2c-0.2,0.3-0.4,0.4-0.4,0.6c-1.3,1.4-0.5,2.5-2.4,4c-1.3,1-2.3,2.5-3.5,4
	c-1.3-0.7-0.2-2.6,0.8-3.5c2.5-2.2,2.8-4.2,3.8-6.2c0.7-1.4,1.1-2.4,2.9-3.8c1.6-1.3,2.6-3.1,3.9-4.7c0.3,0,0.4,0,0.7,0
	c-0.6,1.1-1.2,2.2-1.8,3.4C668.2,138.5,668.6,135.6,670.2,135.4z M604.6,33.1c0.7,0.3,1.8,0.3,2,0.8c0.1,0.5-1,1.6-0.2,1.7
	c0.8,0,1.9-0.4,2.9-0.7c-0.4-1.6,0.4-2.9,2.4-3.6c1.2-0.4,1.9-1,2.7-1.9c0.4-0.4,1-0.7,1.5-1c0.5-0.8,1.1-1.6,1.6-2.5
	c-0.7,0.2-1.6,0.3-1.8,0.4c-1.1,1.6-2.1,1.5-3.2,1.5c-1.3,0.1-2.4,0-3.9,0c0.1,1.4,0.1,2.5,0.1,3.8
	C607.3,32.1,606.3,31.5,604.6,33.1z M610.9,29.7c0.3-0.1,0.7-0.2,0.9-0.1c0.1,0-0.2,0.4-0.3,0.8c-0.3-0.1-0.7,0-0.8-0.1
	C610.4,30.3,610.7,29.8,610.9,29.7z M663.6,108c-2.8-0.4-2.6-2.4,0.4-4.9c1-0.9,1.6-2.1,2.5-3.2c0.3,0,0.4,0,0.6-0.1
	C666.2,102.4,668.6,104.5,663.6,108z M593.6,90.6c1.2-0.4,2.3-0.8,3.5-1.1c0.3,0.7,0.4,1.4,0.7,2.2c-4.1,1-6-0.5-8.7-1.2
	c1.7-1.9,3-2.3,4.5-2.5C595.5,87.9,593.2,89.8,593.6,90.6z M667.2,126.6c2.1-0.9,4.1-2,5.3-3.9c2.5,0.6,2.5,0.6,0.6,3.2
	c-0.5-0.5-0.8-0.9-1.4-1.3c-0.9,1.1-1.5,1.9-2.4,3.1C668.7,127.3,667.9,126.9,667.2,126.6z M655.8,108.3c-0.7,0.6-1.8,1.5-2.6,1.6
	c-0.6,0.1-1.3-0.4-1.3-0.9c-0.1-0.7,0.6-1.7,1-3.2c1.3,0.4,2.3,0.5,2.9,0.9C656.3,106.9,656.1,107.9,655.8,108.3z M615.7,28.7
	c0.6,0.1,1.5,0.1,2.1,0c0.2,1-1,2.6,0.8,2.7c0.4,0,0,1.6-0.1,3C616.5,32.9,613.9,32.3,615.7,28.7z M667.9,132.8
	c-1.1,0-1.9-0.1-3.2-0.1c3-1.6,4.4-4.4,8-5.4C670.9,129.4,669.6,130.9,667.9,132.8z M621.1,110.7c-0.2-1-0.3-1.9-0.5-2.7
	c2,0.7,2.3,2.2,1.9,4.3c-2.2,1.7-4.1,3.1-6,4.6c0.6-0.9,0.5-1.8,2.2-2.6C620.4,113.5,621.3,112.1,621.1,110.7z M642.4,117.4
	c-2,0.2-3.8,0.2-5.7,0.4c0-0.1,0-0.3,0-0.3c2.1-1.1,4.4-2.3,6.9-3.5C643.1,115.4,642.8,116.5,642.4,117.4z M553.3,98.3
	c-1.6,3.2-4,4.4-7.3,5.7C548,101.2,550.7,100.3,553.3,98.3z M507.1,53.3c-2.4,1.3-4.5,2.5-6.5,3.5c0.3-2.2,2.4-2.9,4.2-4
	C506.2,52,506.7,52.6,507.1,53.3z M662.2,131c-1-0.2-1.6-0.4-2.3-0.5c1-0.9,1.6-1.5,2.2-2.2c0.5-0.8,0.8-1.8,2.4-2.2
	C663.9,127.6,663.2,129.1,662.2,131z M560.5,88.2c0.5,0.9,0.9,1.4,1.3,2.1c-1,1.9-3.5,2.6-6,4.5c0.6-0.9,0.9-1.6,1.3-2.1
	C559.9,90.5,559.8,90.6,560.5,88.2z M533.8,43.8c2.1-0.6,3.8-1.1,5.1-1.5c0.7,0.6,1.6,1,2.4,1.4c-0.2,0.3-0.4,0.4-0.4,0.6
	C538.9,44,536.7,43.8,533.8,43.8z M641.4,122.8c-0.2,0.6-0.2,1-0.6,2c-0.6-0.5-1.1-0.7-1.4-1.1c0.7-0.9,1.4-1.7,1.4-2.2
	c0.1-0.5-1.2-0.3,0.5-1.5c0.6,1,1.2,2,1.8,3c-0.1,0.1-0.3,0.2-0.5,0.4C642.2,123.2,642,122.9,641.4,122.8z M640.6,58.1
	c0.7-0.2,2,0.1,2.2-1.4c0.5,0.1,1.1,0.2,1.9,0.2c-0.6,1.1-1.3,2.1-1.9,3C640.3,60.1,640,59.9,640.6,58.1z M640.5,109.4
	c0.8-0.4,1.5-1,2.2-1.4c0,0.1,0.3,0.3,0.4,0.4c-1.5,1-1.7,2.8-3.7,3.1c-0.7,0.1-1-0.6-1.7-1.1C639,109.9,639.7,109.8,640.5,109.4z
	 M620.1,37c1.3-0.3,2.3,0.2,3.5,0.3c-0.2,0.3-0.4,0.4-0.4,0.6c-1.6,0.2-3.5,0.4-5.1,0.6c-0.6,0.1-1.3,0.4-1.9,0.6
	C617.4,37.3,619.1,37.1,620.1,37z M598.3,31.1c0.3-0.8,0.6-1.7,1.1-3c0.9,0.2,1.6,0.3,2.3,0.5C600.6,29.7,600.1,31.1,598.3,31.1z
	 M620.6,34.1c0.8-0.7,1.7-1.2,2.3-1.8c0.3,0.4,0.5,0.8,0.8,1.2c0.2,0.3,0.5,0.7,0.9,1.3C622.4,35.3,621.7,34.6,620.6,34.1z
	 M592.9,34.7c2.1,0,3.4,0,5.2-0.1C594.8,36.7,594.3,36.7,592.9,34.7z M555.4,101.6c-0.3,0.5-0.8,0.9-1.1,1.4
	c-1.3-0.4-1.2-1.7,0.2-2.5c0.9-0.7,1.6-0.4,1.5,0.3C555.7,101,555.5,101.4,555.4,101.6z M612.6,106.3c2,1.8,1.9,1.9-0.9,3.3
	C612.1,108.6,612.4,107.7,612.6,106.3z M634.3,110.8c-0.3,1.2-0.5,2.2-0.7,3.3C631.9,112.7,631.9,112.7,634.3,110.8z M628,108.9
	c-1.6,0.3-2.8,0.7-4.4,1c1.4-1.1,2.5-1.9,3.6-2.7C627.5,107.6,627.7,108,628,108.9z M667.1,124.2c0.8-0.8,1.6-1.4,2.9-2.6
	c0,1.6-0.4,2.5-1.8,3.1C667.9,124.8,667.6,124.4,667.1,124.2z M487.6,64.7c-1.3,0.7-2.4,1.3-3.9,2.1c0.1-0.6,0.1-1,0.2-1.8
	C485.3,65.1,486.8,63.7,487.6,64.7z M629.3,102.9c-0.4-0.5-0.8-1.1-1.3-1.7C630.1,100.5,630.1,100.5,629.3,102.9z M646.4,51.6
	c0.7,0.6,1.6,1,2.3,1.6C647.2,53.9,646.5,53.6,646.4,51.6z M566.3,35.2c-0.1-0.2-0.2-0.3-0.3-0.6c0.8-1.3,1.8-1.8,4-2.1
	C568.1,33.8,567.2,34.4,566.3,35.2z M610.9,99.5c-0.5,1.1-1.1,2.2-1.6,3.3C608.3,101.6,608.6,100.8,610.9,99.5z M494.2,60
	c-1.5,1-2.8,1.8-4.9,3.2C490.9,61.1,492.3,60.1,494.2,60z M626.5,104.6c-1.6-0.4-1.6-0.4-0.2-2.5
	C626.3,102.8,626.4,103.5,626.5,104.6z M647.1,119.6c-0.5,1.1-0.9,1.8-1.3,2.7C644.1,121.4,644.1,121.4,647.1,119.6z M637.5,101.1
	c-0.2,0.1-0.2,0.1-0.3,0.1C637.3,101.1,637.3,101.1,637.5,101.1L637.5,101.1c0.9-1.1,0.9-1.1,2.5-1.3c-0.3,0.6-0.6,1.3-0.9,1.9
	c-0.1,0-0.5,0.1-0.4,0C638.2,101.5,637.9,101.3,637.5,101.1z M628.9,29c0.3-0.1,0.5-0.1,0.7-0.2c-0.2,0.6-0.2,1.2-0.4,2.1
	C627.1,31.1,628.4,29.9,628.9,29z M626.7,31.9c-1.5,0-2.3,0-3.3,0.1c0.7-0.7,1.5-1.2,2.4-1.9C626.1,30.6,626.4,31,626.7,31.9z
	 M657.8,76.4c-0.5-0.3-1.1-0.6-1.9-0.8C658.2,74.5,658.2,74.5,657.8,76.4z M643.2,105.9c-0.9,0-1.7-0.1-2.7-0.2
	C642.9,104.1,642.9,104.1,643.2,105.9z M669.2,148c-1.3,0.7-2.3,1.2-3.1,1.6c0-0.1-0.1-0.3-0.2-0.5
	C666.9,148.1,667.9,147.2,669.2,148z M510.8,51.3c0-0.1-0.3-0.2-0.4-0.4c0.7-1.1,2-1.5,2.8-2.1c0,0.1,0.3,0.2,0.3,0.3
	C512.8,49.8,511.9,50.6,510.8,51.3z M611.2,35c0.9,0,2,0.1,2.9,0.2c-0.3,0.3-0.4,0.6-0.7,0.9c-0.9-0.1-1.9-0.2-2.8-0.3
	C610.7,35.4,611,35.2,611.2,35z M566.4,92.5c1-0.9,1.8-1.7,3.2-3.1C569.1,91.2,567.8,91.8,566.4,92.5z M650.7,137
	c0.8-0.4,1.4-0.6,2-1c0,0,0.2,0.3,0,0.4c-0.6,0.5-1.2,0.9-1.7,1.3C650.6,137.7,650.8,137.3,650.7,137z M623.5,32
	c-0.2,0.1-0.4,0.2-0.4,0.2c-0.8-0.4-1.8-0.7,0.3-2.4C624.1,30.2,623.6,31.2,623.5,32z M619.1,119.9c-0.3,0.5-0.9,1.1-1.3,1.6
	c-0.2-0.1-0.5-0.1-0.8-0.2c0.5-0.6,0.8-1,1.4-1.6C618.4,119.9,618.8,120,619.1,119.9z M653.2,125c-0.7-0.6-1.1-0.8-1.7-1.2
	C653.7,122.8,653.7,123.4,653.2,125z M679.7,99.9c-0.2,0.3-0.3,0.4-0.4,0.7c-0.6,0.1-1.3,0.3-2,0.4c0.2-0.4,0.4-0.7,0.5-0.8
	C678.6,99.9,679,99.9,679.7,99.9z M674.4,114.4c0-0.6-0.1-1.1,0-1.6c0.3-0.1,0.4-0.2,0.9-0.4c0,0.6-0.1,1.1-0.1,1.7
	C674.7,114.3,674.5,114.3,674.4,114.4z M647.5,58.4c0.8,0.4,1.3,0.7,1.6,1C647.2,60.4,647.2,59.9,647.5,58.4z M618.3,118
	c1-0.7,2.1-1.5,3.6-2.4C621,117.5,619.5,117.5,618.3,118z M549.6,96c-0.6,1-0.7,1.5-1.2,2.3C547.5,97.8,547.5,97.8,549.6,96z
	 M660.8,119.4c-0.6,0.1-1.3,0.5-1.9,0.6c0-0.2,0-0.3,0.1-0.6c0.4-0.2,0.8-0.4,1.1-0.5c0.3,0,0.6,0,0.8,0
	C661,119,661,119.1,660.8,119.4z M660.1,107.7c-0.1,0.1-0.4,0.4-0.3,0.5c-0.6-0.1-1.3-0.2-1.9-0.3c0.3-0.3,0.4-0.4,0.6-0.6
	C659,107.4,659.6,107.5,660.1,107.7z M675.1,136c-0.8,0.3-1.3,0.5-2.1,0.8C674,135.2,674,135.2,675.1,136z M672.4,129.4
	c0.3-0.1,0.6-0.1,0.7-0.2c-0.2,0.5-0.2,1-0.3,1.5c-0.4,0.2-0.6,0.1-0.9,0.3C672.2,130.3,672.3,129.8,672.4,129.4z M552.1,32.2
	c1.1-0.6,1.9-1.1,3.2-1.9C554.3,31.9,553.4,32.6,552.1,32.2z M651.2,104.7c-0.4,0.2-0.6,0.3-1,0.5c-0.1-0.5-0.2-1-0.2-1.4
	c0.3-0.1,0.5-0.3,0.8-0.4C650.9,103.8,651,104.3,651.2,104.7z M605.8,28c-0.9,0.2-1.9,0.4-2.8,0.7c0-0.2,0.2-0.4,0.2-0.5
	c0.9-0.3,1.9-0.6,2.8-0.9C605.9,27.6,605.8,27.8,605.8,28z M584.1,35.1c-1.1,0.3-2.1,0.4-3.1,0.7c0.2-0.3,0.2-0.4,0.3-0.6
	c1.1-0.2,2.3-0.4,3.3-0.6C584.3,34.8,584.3,34.9,584.1,35.1z M557.2,103.8c-0.5-0.1-1.3-0.2-2.2-0.4
	C557.4,102.2,557.5,102.9,557.2,103.8z M539.2,42c-0.2-0.3-0.4-0.8-0.6-1.1c1.4-1.1,1.8-0.4,1.8,0.1C540.4,41.2,539.5,41.7,539.2,42
	z M540.4,105.9c0.1,0-0.3,0.8-0.6,0.9c-0.4,0.2-0.9,0.1-1.5,0.1c0.5-0.6,1-1.2,1-1.3C539.8,105.6,540.1,105.7,540.4,105.9z
	 M668,89.6c-0.2,0.1-0.5,0-0.9,0c0.5-0.5,0.8-0.9,1.1-0.9c0.3-0.1,0.5,0,0.7,0.2C668.4,89,668.2,89.3,668,89.6z M663.8,148.2
	c0,0.1,0.4,0.2,0.5,0.3c-0.6,0.5-1.1,1.1-1.6,1.5c0-0.1-0.3-0.1-0.4-0.3C662.7,149.3,663.4,148.8,663.8,148.2z M665.7,109.1
	c-0.6,0.3-1.1,0.7-1.8,1c0-0.3,0-0.4-0.1-0.7c0.6-0.2,1.2-0.6,1.8-0.8C665.6,108.8,665.6,108.9,665.7,109.1z M667.4,91.6
	c0.8-0.9,1.5-1.9,2.8-1.3C669,90.9,668.3,91.3,667.4,91.6z M553.4,38.2c-0.8,0.4-1.4,0.6-2,0.9c0-0.2,0-0.3,0-0.6
	c0.8-0.3,1.3-0.5,1.9-0.8C553.4,37.7,553.4,38.2,553.4,38.2z M655.2,59.7c-0.3-0.3-0.7-0.6-1-0.9c0.1-0.1,0.3-0.3,0.5-0.5
	c0.4,0.3,0.9,0.5,1.3,0.6C655.8,59.2,655.4,59.5,655.2,59.7z M666,115.2c-0.3-0.2-0.5-0.3-0.5-0.5c0-0.2,0.3-0.5,0.6-0.6
	c0.2,0.1,0.5,0.1,0.5,0.3C666.6,114.5,666.4,114.7,666,115.2z M663.6,82c-0.5,0.1-0.6,0-0.9,0c0.1-0.1,0.3-0.4,0.3-0.5
	c0.4-0.2,0.7-0.2,1.5-0.4C663.9,81.7,663.7,82.1,663.6,82z M637.3,101.1c-1,0.7-1.9,1.3-2.7,1.8
	C635.1,101.7,636.3,101.5,637.3,101.1z M637.1,30.8c-0.6,0.1-1.3,0.3-1.8,0.4c0.2-0.3,0.2-0.4,0.2-0.5c0.6-0.1,1.3-0.3,1.8-0.3
	C637.2,30.6,637.2,30.7,637.1,30.8z M660.8,152.4c0.3,0,0.5-0.1,0.6-0.1c-0.2,0.5-0.6,1.1-0.9,1.7c-0.3,0-0.5,0.1-0.6,0.1
	C660.3,153.5,660.6,152.9,660.8,152.4z M634.5,117.3c0.2,0.1,0.5,0.1,0.8,0.2c0,0.1-0.2,0.4-0.6,1
	C634.6,117.8,634.7,117.6,634.5,117.3z M634.3,103.2c-0.1,0.6-0.2,1.1-0.2,1.7C632.5,104.7,633.6,103.9,634.3,103.2z M652.3,173.7
	c-0.2,0.3-0.5,0.5-0.8,0.8c-0.2-0.1-0.5-0.1-0.5-0.3c0.3-0.3,0.7-0.6,1.1-0.9C652,173.3,652.2,173.5,652.3,173.7z M607.3,36.8
	c0.3-0.1,0.6,0,0.5,0.2c0,0.1-0.4,0.4-0.7,0.9c-0.4-0.2-0.5-0.3-0.6-0.5C607,37.1,607.2,36.8,607.3,36.8z M649.5,110.7
	c0.5-0.1,0.5,0.1,1.1,0.2c-0.6,0.4-0.9,0.7-1,0.7c-0.3,0-0.5,0-0.7-0.2C649.1,111.1,649.4,110.7,649.5,110.7z M656,102.4
	c-0.1,0.1-0.3,0.3-0.5,0.4c-0.3-0.2-0.5-0.5-0.8-0.7c0.1-0.1,0.2-0.1,0.3-0.3C655.5,102.1,655.8,102.2,656,102.4z M653.1,132
	c-0.2,0.1-0.3,0-0.5,0.1c0.2-0.5,0.3-0.9,0.4-1.3c0.3,0,0.4,0,0.7,0C653.5,131.1,653.3,131.6,653.1,132z M663.4,112
	c0.6-0.2,1.1-0.5,1.6-0.7c0,0.2,0,0.3-0.1,0.5c-0.6,0.2-1.1,0.5-1.6,0.7C663.3,112.3,663.4,112,663.4,112z M649.5,166.3
	c0.2-0.1,0.5,0,0.4,0.2c-0.4,0.4-0.5,0.6-0.9,1.1c-0.4-0.2-0.5-0.3-0.5-0.5C648.8,166.8,649.1,166.5,649.5,166.3z M541.9,105.9
	c0,0.1,0.3,0.1,0.4,0.3c-0.5,0.5-1,0.9-1.5,1.4c-0.1,0-0.2-0.1-0.4-0.2C540.9,106.9,541.4,106.4,541.9,105.9z M617.7,124.1
	c0,0.1-0.4,0.4-0.5,0.5c-0.3,0-0.5,0-0.8-0.1c0.5-0.4,0.7-0.7,1-0.7C617.6,123.6,617.7,123.9,617.7,124.1z M632,106.9
	c-0.2,0.1-0.5,0.3-0.5,0.3c-0.1-0.3-0.4-0.5-0.4-0.8c0.3-0.1,0.3-0.2,0.6-0.3C631.9,106.3,631.8,106.7,632,106.9z M625.5,182.3
	c0.1,0,0.2,0.1,0.3,0.3c-0.3,0.3-0.5,0.5-0.7,0.7c-0.1,0-0.4-0.2-0.4-0.2C625,182.8,625.3,182.6,625.5,182.3z M520,46.8
	c-0.1,0-0.1-0.2-0.2-0.3c0.5-0.3,1-0.7,1.5-1c0.1,0,0.1,0.2,0.3,0.2C520.8,46.3,520.4,46.5,520,46.8z M640.3,128.3
	c0.2-0.3,0.3-0.5,0.5-0.7c0.1,0,0.3,0.1,0.4,0.2c0,0.1-0.4,0.4-0.3,0.5C640.5,128.3,640.4,128.3,640.3,128.3z M562.2,98.2
	c0,0.1,0.2,0.3,0.2,0.5c0,0.1-0.3,0.2-0.7,0.4c0-0.3,0-0.4-0.1-0.7C561.6,98.5,561.9,98.3,562.2,98.2z M638.8,106.2
	c-0.3,0.4-0.4,0.8-0.6,1.1c0-0.1-0.2-0.3-0.1-0.6C638.2,106.6,638.4,106.5,638.8,106.2z M635.1,139c-0.2-0.1-0.4-0.3-0.4-0.4
	c0-0.1,0.4-0.4,0.7-0.6c0,0.1,0.2,0.3,0.4,0.5C635.7,138.5,635.4,138.7,635.1,139z M632.2,102.7c0.3-0.3,0.7-0.7,1.1-0.9
	c0.2-0.1,0.4,0.2,0.5,0.5c-0.5,0.4-0.8,0.7-1.4,0.9C632.5,103.1,632.3,102.8,632.2,102.7z M545.7,41.2c0-0.2,0-0.4-0.1-0.5
	c0.5-0.3,1-0.5,1.5-0.8c0,0.1,0.1,0.2,0.1,0.3C546.5,40.7,546.1,40.9,545.7,41.2z M504.8,115.8c-0.1,0.5,0.2,1-0.2,1.5
	c-1.6,1.6-3.3,3-4.8,4.5c-0.2-0.1-0.5-0.1-0.6-0.3c1.2-1.6,2.4-3.3,3.7-4.8C502.8,116.4,503.9,116.2,504.8,115.8z"/>
<path class="st2" d="M592.7,90c1,0,1.9-0.2,3-0.4c0.9-0.1,1.6,0.6,2.6-1c-1-0.1-2.2,0.1-2.8-0.2c-0.6-0.3-0.4-1.4-0.7-2.3
	c-2.4,1.5-3.7,1.4-5.1,0.8c-1.3-0.6-2.7-1.7-5.7-0.2c-0.6,0.3-1.2,0.1-1.8,0.2c0.3-0.3,0.5-0.6,0.8-0.9c1-0.5,1.8-0.9,3.3-1.6
	c-2.4-1.3-6-0.8-7.4-3.2c1,0,1.6-0.2,2.4-0.1c1,0.2,1.9,0.6,3,0.6c4.7-0.4,9.4-0.6,12.7,1.1c0.2,0.1,0.5,0.3,0.8,0.2
	c2.8-0.9,4.2,0.2,5.9,0.6c2.8,0.9,6.5,1,7.7,3c1.7-0.1,3.5-0.7,4.1-0.2c1.7,1.2,3,2.7,4.5,4.2c-2.4,1.7-4.8,1.4-6.7,3.8
	c0.9,0.4,1.9,1,2.9,1.5c0.3,0.1,1,0.2,1.2,0.1c2-1.4,2.3-0.6,2.8,0.2c0.3,0.6,1.3,0.6,2,1c0.7-0.9,1-1.4,1.2-1.8
	c-0.5-0.6-1-1.2-1.5-1.8c0.2-0.1,0.4-0.4,0.7-0.6c-1.5,0.3-3,0.5-4.5,0.9c1-1,1.7-1.8,2.7-2.7c0.6-0.5,1.5-1.2,1.9-1.3
	c1.7-0.1,3.9-0.4,4.2,0.4c0.8,1,1.9,1.5,3,2.1c0,0.1,0.3,0.2,0.6,0.3c0.1-0.7,0.3-1.3,0.4-1.6c1.9-1.1,3.5-2,5.3-3.1
	c0.1,0.7,0.1,1.4,0.2,2.1c0.7-0.2,1.4-0.3,2.3-0.6c0.2,1,0.1,1.8-1.4,3c-0.6,0.5-1,1.2-1.3,1.9l6.2-2.5c-0.1,1.4-2.5,4,0.4,3.7
	c0.6-0.4,1.2-0.9,1.9-1.4c0.3,1,1.1,1.5-1.2,2.7c-1.7,0.8-1.9,1.8-1.3,2.5c1.3-0.5,2.8-1.3,4.1-1.7c1.2-0.3,2.2-0.3,3.4-0.4
	c1,0,2.9-1.4,3.1,0.1c-2,0.6-3.9,1.2-4.8,3.7c2.2-1.3,4.3-2.2,5.9-3.4c0.8-0.6,0.7-1.8,1.2-3.1c0.8-0.4,1.7-0.8,2.4-1.2
	c0.1,0.3,0.2,0.5,0.1,0.6c-1.4,2.3,0.4,3,0.7,4.5c0,0.2,0.5,0.2,0.7,0.2c1.7-1.2,1.8-0.3,1.8,0.3c0.3,0.7,0.2,1.6,0.4,2.3
	c1.4-0.6,2.6-1.2,3.9-1.8c0.2-0.1,0.3,0.2,0.4,0.5c-0.8,0.5-1.7,1-2.3,1.4c-0.3,2,0,2.4,1.3,1.7c1.7-0.8,3.2-1.9,5.3-3.1
	c-1.3-0.2-2.2-0.2-2.9-0.3c0-0.1,0.2-0.4,0.2-0.4c1.3-0.5,2.6-0.9,4.3-1.5c-0.4,2.4,2.8,2.8,0.2,6.4c-0.4,0.4,0.2,0.9,0.6,1.6
	c2-1.9,3.9-3.7,6.2-5.8c-1.4,0.2-2.5,0.5-3.5,0.5c-0.7-1.1-1.6-2.3-2.4-4c1.3-0.1,1.9-0.2,3-0.3c0.3-1.2,0.5-2.2,0.5-3.3
	c0.5,0.1,0.9,0.1,1.4,0.1c0.5-1.2-0.1-1.8-1.3-1.5c-1.6,0.3-1.5-0.6-1.5-1.5c-0.6,0.2-1.3,0.5-1.9,0.6c-1.5,0.1-1.6-1.2-0.5-2.4
	c2.1-2,2.1-2.6,0.6-3.1c-0.7-0.3-1.6-0.5-2.5-0.7c0.7-2.2,0.4-3.9-1.2-4.4c-2.3-0.6-2.9-2.2-3.2-4.1c0-1.2-0.4-2.4-1.2-3
	c-1.4-0.8-1.7-1.8,0.2-4c-2.7,0.8-4.8,0.2-4.7-1.7c0-1.2-0.5-1.8-1.6-2.1c-2.3-1.1-4.4-2.5-6.2-3.9c-1-0.7-0.8-1,1.4-2.2
	c0.4-1,1.5-1.2,2.2-1.4c0.3-1.7,0-3-1.8-3.4c1.3-0.3,2.3-0.4,3.4-0.6c0.6-1,1-1.9,1.8-3c0.5,0.1,0.8,0.2,1.3,0.2c0.3,0.1,0.6,0,1,0
	c0.9-2-1.2-1.3-2-1.6c-1.9-1.3-4.4-2.3-7.4-2.6c-1.3-0.1-2.1-0.9-3.2-1.4c-0.4-0.2-0.7-0.3-1.1-0.4c-1-0.2-2.1-0.5-3.1-0.8
	c-1.1-0.4-2.4-0.7-3.2-0.8c-0.3-1.1-0.3-2.1-1-2.4c-1.1-0.6-2.8,0.9-4,2c-0.8-0.1-1.5-0.1-2-0.2c-0.2-0.1-0.3-0.3-0.6-0.3
	c0.6-0.5,1.1-1,1.8-1.4c-0.2-1.1-1-0.6-2.4,0.1c-2.4,1.3-3.5,1-4-0.7c-0.5,0.1-0.7,0.2-1.3,0.4c0.6-1.3,1-2.4,1.7-3.9
	c-2.1,1.5-4.5,0.9-5.3,3.9c-2.5-0.5-4.7-0.9-6.9-1.2c-1-0.2-2-0.5-3-0.6c-2.8-0.1-5.6-0.1-8.5-0.2c-1.1,0-1.9-0.7-2.8-0.4
	c-2.9,1.3-5.3,1.1-7.8,1.7c-0.2,0.1-0.2-0.1-0.3-0.3c0.3-0.5,0.8-1.1,1.1-1.6c-1.5-1.4-4.4,1.7-6.4,1.6c0.1-0.7,0.2-1.5,0.4-2.4
	l-9.1,3.7c0,0,0,0,0,0.1c0,0,0,0-0.2,0.1c-0.6,1.1-1.3,1.4-2.6,1.6c0.9-1.1,1.6-1.7,2.6-1.6l0,0l0,0c0-0.3-0.1-0.5-0.1-0.8
	c-1.4,0.3-3.5,1.2-3.8,0.7c-0.7-0.9-2.7,0-3.6-0.5c-0.3-0.1-1.3,0.1-1.8,0.4c-0.3,0.2-0.6,1-0.7,1.3c-1.9,0.8-3.4,1.4-5.1,2.1
	c-1.5,0.6-3,1.4-4.4,1.9c-1.5,0.6-2.1,0.3-1.5-1c0.2-0.5,0.7-1.1,0.9-1.6c-2.3,0.4-2.3,0.4-4.6,2.3c-3.4,2.8-6.3,3-7.1,0.9
	c-0.1-0.4-1.2-0.4-2-0.7c-1.2,2.3-3.6,4.2-5.4,4.5c-4.5,0.8-9.3,3-14.1,5.2c-0.9,0.4-1.7,0.9-2.4,1.1c-3.5,0.8-7.1,1.6-10.9,4.7
	c-0.1-0.7-0.1-1.1-0.2-1.4c-0.1-0.3-0.4-0.5-0.6-0.7c-2.3,1.5-0.1,1.5-0.6,2.5c-2.2,0.4-3.8-0.4-6.3,1.7c-0.3,0.6-0.5,1.2-0.9,2
	c-1.3-0.9-3.6,0.4-4.6,1.2c-2.4,2.2-4.5,3.8-7.3,3.9c-1.2,0.1-2.6,0.7-4.1,1.2c-1.3,0.5-2.6,0.9-4.1,1.4c0.2-1.1,0.5-2.1,0.8-3.3
	c-1.3,0.5-2.7,0.6-3.7,1.3c-3.7,2.4-7.2,4.9-10.8,7.4c-3.6,2.5-7.2,4.9-10.9,7.6c-3.9,2.9-7.7,5.7-11.6,8.7c-5.5,4.4-11,8.9-15.4,14
	c-2.8,3.2-4.9,6.7-8.8,9.5c-1,0.7-1.5,1.9-2.5,2.9c-2.5,2.6-3.7,6-8.1,7.6c-0.2,0.1-0.5,0.4-0.5,0.5c-1.6,2.5-4.2,4.4-6.5,6.4
	c-3.5,3-4.2,5.7-5.7,8.6c-0.2,0.5,0.3,1.1,0.8,1.4c0.3,0.3,1,0.3,1.5,0.6c-0.8,1.4-1.6,2.8-2.3,4.2c1.9-0.6,3.5-1.1,5-1.5
	c0.6-0.1,1.4-0.1,1.5,0.2c0.1,0.3-0.5,1.1-1.1,1.6c-3.1,2.3-5.1,4.9-6.8,7.9c2.7-0.3,3.6,1,4.3,2.6c1.8-0.8,3.6-1.7,5.2-2.5
	c0,0.2,0.1,0.3,0.1,0.5c-2.7,1.7-5.4,3.5-8.5,5.4c1.3,0,2.1,0.1,3.3,0.1c-2.4,2.7-5.3,5.3-4.2,7.6c3.9-1.8,7.9-3.6,12-5.5
	c0.2-0.1,0.2-0.1,0.3-0.2c1.5-0.8,3.3-1.9,4.7-2.5c4.8-2.2,9.5-4.4,14.2-6.3c2.9-1.1,5.9-1.9,8.7-2.2c2.4-0.3,4.8-0.6,7.4-1.6
	c0.6-0.2,1-0.3,1.7-0.6c0.1-0.1,0.2-0.3,0.3-0.3c10.8-6.7,22.1-12.5,33.3-17.8c0-0.1,0-0.1,0-0.2c0.6-0.4,1.2-0.9,1.7-1.3
	c4.6-2.7,8.9-5.3,13.6-8.2c1.5-1,3.1-1.9,4.7-3c2-1.4,3.8-3.3,6.2-3.3c0.5-0.1,1-0.5,1.3-0.7c3.6-2.2,7.2-4.4,10.7-6.5
	c1.3,0.6,2.4,1.4,3.5,2c1.9-1,3.6-1.3,5.5-1.6c1.5-0.2,3-0.5,4.5-0.9c-0.5,0-0.9-0.2-1.3-0.4c2.1-2.2,2.6-2.4,3.6-1.2
	c1-0.7,2-1.3,3.7-2.4c-0.4,1-0.9,1.7-1.2,2.3c2.5-0.9,4.8-1.8,6.9-2.1c1.4-2,4-3,5.4-4.8c0.7-0.8,1.6-1.4,2.5-2.2
	c-2.7,0.5,0-2.2-1.8-2.5c1.4-0.5,1.9-0.6,2.8-0.9c0.5-1.1-0.1-2.6,2.8-3.3c0,0.2,0,0.4,0.1,0.5c0.1,0.2,0.1,0.4,0.4,0.9
	c1.5-3.5,0.6-3.9-4.9-2c2.5-2.6,4.3-2.1,6.6-2.5c-1.1-1.7-4.1-0.8-6.2-1c1.8-1,3.2-1.2,4.5-1.1c1.2,0.1,2.8,0.2,4.1-0.3
	c2.1-0.8,3.1-0.7,3.7,0.4c0.3,0.6,0.3,1.6,2.2,0.6c0.1-1.2,0.8-2.4,2.8-3.2c2.6,0.9,7.9-1.2,8.9,1.6c1.5-0.4,3.1-1.4,3.9-1.2
	C588.3,87.8,591.7,87.8,592.7,90z M667.1,97.4c-0.2,0.1-0.5,0.5-0.9,0.7c-0.4,0.2-0.6,0.1-1.3,0.1c0.9-0.5,1.4-0.9,1.6-0.9
	C666.9,97.2,666.9,97.4,667.1,97.4z M666.8,94.6c-1,1.6-1.9,2-3,1.4C665,95.4,665.7,95.1,666.8,94.6z M645.7,97.1
	c-0.3-0.1-0.7-0.2-0.8-0.2c0.2-0.4,0.4-0.7,0.7-1.1c0.3,0.1,0.5,0.1,0.9,0C646.4,96.3,646.1,96.7,645.7,97.1z M650.9,52.7
	c0.2,0.1,0.7,0.2,0.7,0.4c0,0.2-0.4,0.6-0.9,1.3c-0.3-0.3-0.6-0.4-0.5-0.6C650.3,53.4,650.6,53.1,650.9,52.7z M651.2,59.1
	c-2.2,1.3-2.4,0.4-2.9,0.1c0.2-0.3,0.4-0.4,0.5-0.6C649.4,58.7,650.1,58.9,651.2,59.1z M648.8,55.9c0.4,0,0.9,0,1.3,0
	c-0.2,0.3-0.3,0.5-0.5,0.7c-0.5,0-0.9-0.1-1.3-0.2C648.6,56.2,648.6,56,648.8,55.9z M647.8,90.3L647.8,90.3
	C647.9,90.3,647.9,90.3,647.8,90.3c1.1-0.7,2.1-1.3,3.1-2.1c2.7,1.3,2.5,3.3-0.6,6.9c-1.6-0.8-0.4-2.5,1-4.4
	C650.2,90.5,649.1,90.4,647.8,90.3l-0.1,0.2C647.7,90.5,647.8,90.3,647.8,90.3c-0.5-0.1-1.2-0.2-2.3-0.5
	C647.6,89,647.6,89.9,647.8,90.3z M641.7,83.9c0.3,0.3,0.6,0.3,0.7,0.6c-0.2,0.1-0.7,0.6-0.7,0.7c-0.3,0-0.5,0-0.5-0.3
	C641.2,84.6,641.5,84.3,641.7,83.9z M626.4,46.1c0.9-0.5,1.8-1.2,2.6-1.4c1.6-0.5,3.6,0.5,4.3,1.4c-2.4,0.2-4.7,0.4-7,0.6
	L626.4,46.1z M623.5,85.5c3.3-0.6,3.4,1.4,4.4,3c-4.1,1.8-1.8-2.9-5.8-0.6C622.7,86.6,623.2,86.1,623.5,85.5z M610.6,83
	c0.9,0,2.6-1.2,2.8,0.1c0.1,0.9,3-0.5,1.7,2.1c-1.9-0.6-3.5-1.1-5-1.6C610.3,83.3,610.5,83.1,610.6,83z M606.3,82.1
	c0.5-0.1,0.9-0.2,1.2-0.2c0.3,0.1,0.5,0.3,0.6,0.5c-0.2,0.1-0.3,0.3-0.6,0.5c-0.5-0.1-1-0.3-1.6-0.5
	C605.9,82.5,606.1,82.4,606.3,82.1z M432.5,156.1c-1.2,0.4-2.3,0.8-3.5,1.1c0-0.2,0-0.3,0.1-0.5l3.5-1.4
	C432.5,155.5,432.6,155.7,432.5,156.1z M577.9,85.9c-0.4-0.2-0.5-0.5-0.9-0.6c0.2-0.1,0.5-0.5,0.6-0.5c0.3,0.1,0.6,0.4,1.1,0.4
	C578.4,85.4,578.1,85.8,577.9,85.9z M669.1,155.5c-1.6,0.1-3.8,1.4-5,0.6c-0.1,0-1.6,1.1-2.5,1.7c0.4,0.3,0.7,0.3,1,0.1
	c1.1-0.7,1.6-0.5,1.4,0.3c0,0.8-0.8,1.3-1.8,1.5c-0.8,0.2-1.6,0.1-2.4,0.2c1.3-3,2.6-5.8,4.4-8.5c0.4-0.2,0.6-0.1,0.9-0.3
	c0.1,0.9,0.5,1.6,0.6,2.6c1.1-2,2.2-3.9,3.2-6.1c-1,0.5-1.4,0.8-2.1,1.1c-0.4,0.2-1,0.3-1,0.3c0.1-1.3,0-2.3,0.2-3.4
	s0.5-2.2,0.8-3.5c-1.4,1-2.4,1.8-3.5,2.5c0.3,0.3,0.5,0.6,0.8,1.1c-3.4,1.8-1.8,3.7-4.5,5.7c1.2-0.1,1.6-0.2,2.4-0.3
	c-0.4,1.1-0.8,2-1,2.9c-1,2.6-2.2,3.3-5.4,3.3c0.8-1.9,1.8-3.9,2.2-5.7c0.6-2,0.8-3.9,1.3-6c2.9-2.2,2.9-2.6,1.7-3.7
	c-0.4-0.4-0.9-0.9-0.9-1.6c-0.2-1,0.2-2.3,0.1-3.3c-0.4-2.6-0.1-5.3,1.5-8.6c-1.3,0.3-2.5,0.5-3.9,0.7c-0.1,2.5-2.8,5.8-1.9,8
	c3-0.4,3.1-0.3,3.1,1.2c0.1,1.8,0.1,3.6-3.5,5.9c2.6,1.4,1.2,4.3,0.1,7.2c-0.7,1.8-1.7,3.7-1.6,5c0.3,2.1-1.8,4.3-3,6.5
	c-0.2,0.4-1.1,0.8-1.7,1.3c0.1-2.9,1.4-5.7,2.7-8.6c0.6-1.1,1.3-2.7,1-3c-0.8-0.6-0.3-1.4,0.4-2.4c0.7-1,1.3-1.9,1-2.8
	c-2.5,1.8-3.4,3.8-3.5,5.1c-0.3,2.6-1.8,5-4.3,7.6c-0.1,0.1,0,0.3-0.1,0.6c3.4-0.8,3.9,0.2,1.8,3.1c-0.2,0.3-0.4,0.4-0.5,0.6
	c-1.1,0.9-1.3,1.4-1.1,2.3c0.3,0.7-0.3,1.9-0.7,3c-1.5,3.9-2.7,7.8-4.3,11.8c-2.4,6.4-7.5,12.9-12,19.3c-0.4,0.4-1.1,0.8-1.6,1.1
	c0.9-1.7,2.1-3.2,3.1-4.7s1.3-2.9,0.8-4.2c-0.7,1.2-1.2,2.1-1.8,3c-1.4,2-2.4,3.9-3.5,5.8c-2.7,4-4.9,8.3-7.9,12.3
	c-5.3,7.1-11.1,14.1-17,21.2c-7.4,9-14.8,17.9-23.4,26.6c-1.2,1.2-1.7,2.4-1.6,3.6c0.9-0.7,1.7-1.2,2.2-1.7
	c10-8.2,18.1-17.4,27-26.3c2.3-2.3,4.5-4.9,6.7-7.3c2.3-2.6,4.6-5.1,7-7.6c2.2-2.4,4.2-4.5,6.3-6.7c2.4-2.7,5.1-5.4,7.7-8.2
	c2-2.3,4.4-4.6,5.7-6.9c1.6-2.7,4.2-5.1,6-7.7c0.7-0.9,2-1.7,3-2.4c2.9-1.8,4.7-4,6.4-6.5c-2.3,1.4-4,2.5-6.4,3.9
	c0-0.8-0.2-1.5,0.1-2c1.8-2.8,4-5.4,7.9-6.7c0.4-2.7,2.2-5,5.6-7c0-0.2-0.1-0.3-0.1-0.5c-1.7,0.6-3.2,0.9-5.2,1.5
	c1-1.8,1.9-3.2,2.7-4.7c0.6-1.1,1.2-1.9,2.6-2.4c1.8-0.6,2.6-1.8,3.8-3.6c-1.9,1.2-3.1,2.7-4.5,2.1c1.8-0.9,2.5-1.9,2.9-3.2
	c0.3-1,1.7-2.4,2.7-3.4c0.5-0.5,1.9-0.6,2.6-0.8C671,155.2,670,155.3,669.1,155.5z M648.9,167.3c-0.2-0.1-0.5,0-0.5-0.2
	c0-0.1,0.3-0.4,0.3-0.5c0.3-0.1,0.5-0.1,0.9-0.2C649.3,166.9,649.1,167.1,648.9,167.3z M658.1,163c-2,2.4-2,5-5.2,7.2
	c1.1-2.9,1.4-5.7,5.3-8.9C658.1,162.1,658.4,162.7,658.1,163z M657.9,160c0-0.1-0.3-0.3-0.4-0.4c0.6-0.5,1.1-0.9,1.8-1.4
	c0,0,0.4,0.2,0.5,0.3C659,159.1,658.5,159.6,657.9,160z M661.6,162.5c-0.3,0.2-0.8,0.4-1.4,0.7c0.3-1.3,1-1.8,2.8-2
	C662.2,161.9,662.1,162.2,661.6,162.5z M635.4,100.2c-1.8,2.6-1.7,4.3,1.2,6.3c-1.4,0.3-2.7,0.8-2.8,2.1c-0.6,0.1-1.3,0.3-2.3,0.5
	c2.4-2.7,1.2-3.7,0.7-5.1c-0.4-1.6-0.8-3-1.4-4.6c-1.1,0.4-2.1,0.8-3.7,1.5c1,0.1,1.9,0.1,3.1,0.2c-1.3,0.9-2,1.4-3.2,2.3
	c0.8,0.7,1.4,1.2,2.2,1.9c-0.8,0.2-1.8,0.5-2,0.3c-0.6-1.8-1-3.7-1.5-5.3c2.8-2,5.1-3.7,7.5-5.4c0.8-0.8-1-1.5,1.2-2.5
	c0.4,0.8,0.9,1.5,1.3,2.2l0-0.1c-1,1-2.1,2-3.3,3.4c0.1,0.5,0.3,1.4,0.6,2.1c1.9-0.6,3.6-1.2,5.8-2c-0.4,1.1-0.8,1.9-1.3,3.3
	C636.3,101,635.8,100.6,635.4,100.2z M683.3,136.2c0.2,0.5,0.3,1.2,0.6,2.1c-3.1,1.8-6.1,3.4-7.9,6.2c-0.2,0.3-0.4,0.4-0.4,0.6
	c-1.3,1.4-0.5,2.5-2.4,4c-1.3,1-2.3,2.5-3.5,4c-1.3-0.7-0.2-2.6,0.8-3.5c2.5-2.2,2.8-4.2,3.8-6.2c0.7-1.4,1.1-2.4,2.9-3.8
	c1.6-1.3,2.6-3.1,3.9-4.7c0.3,0,0.4,0,0.7,0c-0.6,1.1-1.2,2.2-1.8,3.4C681.3,139.3,681.7,136.4,683.3,136.2z M617.7,33.9
	c0.7,0.3,1.8,0.3,2,0.8c0.1,0.5-1,1.6-0.2,1.7c0.8,0,1.9-0.4,2.9-0.7c-0.4-1.6,0.4-2.9,2.4-3.6c1.2-0.4,1.9-1,2.7-1.9
	c0.4-0.4,1-0.7,1.5-1c0.5-0.8,1.1-1.6,1.6-2.5c-0.7,0.2-1.6,0.3-1.8,0.4c-1.1,1.6-2.1,1.5-3.2,1.5c-1.3,0.1-2.4,0-3.9,0
	c0.1,1.4,0.1,2.5,0.1,3.8C620.4,32.9,619.4,32.3,617.7,33.9z M624,30.5c0.3-0.1,0.7-0.2,0.9-0.1c0.1,0-0.2,0.4-0.3,0.8
	c-0.3-0.1-0.7,0-0.8-0.1C623.5,31.1,623.8,30.6,624,30.5z M676.7,108.8c-2.8-0.4-2.6-2.4,0.4-4.9c1-0.9,1.6-2.1,2.5-3.2
	c0.3,0,0.4,0,0.6-0.1C679.3,103.2,681.7,105.3,676.7,108.8z M606.7,91.4c1.2-0.4,2.3-0.8,3.5-1.1c0.3,0.7,0.4,1.4,0.7,2.2
	c-4.1,1-6-0.5-8.7-1.2c1.7-1.9,3-2.3,4.5-2.5C608.6,88.7,606.3,90.6,606.7,91.4z M680.3,127.4c2.1-0.9,4.1-2,5.3-3.9
	c2.5,0.6,2.5,0.6,0.6,3.2c-0.5-0.5-0.8-0.9-1.4-1.3c-0.9,1.1-1.5,1.9-2.4,3.1C681.8,128.1,681,127.7,680.3,127.4z M668.9,109.1
	c-0.7,0.6-1.8,1.5-2.6,1.6c-0.6,0.1-1.3-0.4-1.3-0.9c-0.1-0.7,0.6-1.7,1-3.2c1.3,0.4,2.3,0.5,2.9,0.9
	C669.4,107.7,669.2,108.7,668.9,109.1z M628.8,29.5c0.6,0.1,1.5,0.1,2.1,0c0.2,1-1,2.6,0.8,2.7c0.4,0,0,1.6-0.1,3
	C629.6,33.7,627,33.1,628.8,29.5z M681,133.6c-1.1,0-1.9-0.1-3.2-0.1c3-1.6,4.4-4.4,8-5.4C684,130.2,682.7,131.7,681,133.6z
	 M634.2,111.5c-0.2-1-0.3-1.9-0.5-2.7c2,0.7,2.3,2.2,1.9,4.3c-2.2,1.7-4.1,3.1-6,4.6c0.6-0.9,0.5-1.8,2.2-2.6
	C633.5,114.3,634.4,112.9,634.2,111.5z M655.5,118.2c-2,0.2-3.8,0.2-5.7,0.4c0-0.1,0-0.3,0-0.3c2.1-1.1,4.4-2.3,6.9-3.5
	C656.2,116.2,655.8,117.3,655.5,118.2z M566.4,99.1c-1.6,3.2-4,4.4-7.3,5.7C561.1,102,563.8,101.1,566.4,99.1z M520.2,54.1
	c-2.4,1.3-4.5,2.5-6.5,3.5c0.3-2.2,2.4-2.9,4.2-4C519.3,52.8,519.8,53.4,520.2,54.1z M675.3,131.8c-1-0.2-1.6-0.4-2.3-0.5
	c1-0.9,1.6-1.5,2.2-2.2c0.5-0.8,0.8-1.8,2.4-2.2C677,128.4,676.3,129.9,675.3,131.8z M573.6,89c0.5,0.9,0.9,1.4,1.3,2.1
	c-1,1.9-3.5,2.6-6,4.5c0.6-0.9,0.9-1.6,1.3-2.1C573,91.3,572.9,91.4,573.6,89z M546.9,44.6c2.1-0.6,3.8-1.1,5.1-1.5
	c0.7,0.6,1.6,1,2.4,1.4c-0.2,0.3-0.4,0.4-0.4,0.6C552,44.8,549.8,44.6,546.9,44.6z M654.5,123.6c-0.2,0.6-0.2,1-0.6,2
	c-0.6-0.5-1.1-0.7-1.4-1.1c0.7-0.9,1.4-1.7,1.4-2.2c0.1-0.5-1.2-0.3,0.5-1.5c0.6,1,1.2,2,1.8,3c-0.1,0.1-0.3,0.2-0.5,0.4
	C655.3,124,655.1,123.7,654.5,123.6z M653.7,58.9c0.7-0.2,2,0.1,2.2-1.4c0.5,0.1,1.1,0.2,1.9,0.2c-0.6,1.1-1.3,2.1-1.9,3
	C653.4,60.9,653.1,60.7,653.7,58.9z M653.6,110.2c0.8-0.4,1.5-1,2.2-1.4c0,0.1,0.3,0.3,0.4,0.4c-1.5,1-1.7,2.8-3.7,3.1
	c-0.7,0.1-1-0.6-1.7-1.1C652.1,110.7,652.8,110.6,653.6,110.2z M633.2,37.8c1.3-0.3,2.3,0.2,3.5,0.3c-0.2,0.3-0.4,0.4-0.4,0.6
	c-1.6,0.2-3.5,0.4-5.1,0.6c-0.6,0.1-1.3,0.4-1.9,0.6C630.5,38.1,632.2,37.9,633.2,37.8z M611.4,31.9c0.3-0.8,0.6-1.7,1.1-3
	c0.9,0.2,1.6,0.3,2.3,0.5C613.7,30.5,613.2,31.9,611.4,31.9z M633.7,34.9c0.8-0.7,1.7-1.2,2.3-1.8c0.3,0.4,0.5,0.8,0.8,1.2
	c0.2,0.3,0.5,0.7,0.9,1.3C635.5,36.1,634.8,35.4,633.7,34.9z M606,35.5c2.1,0,3.4,0,5.2-0.1C607.9,37.5,607.4,37.5,606,35.5z
	 M568.5,102.4c-0.3,0.5-0.8,0.9-1.1,1.4c-1.3-0.4-1.2-1.7,0.2-2.5c0.9-0.7,1.6-0.4,1.5,0.3C568.8,101.8,568.6,102.2,568.5,102.4z
	 M625.7,107.1c2,1.8,1.9,1.9-0.9,3.3C625.2,109.4,625.5,108.5,625.7,107.1z M647.4,111.6c-0.3,1.2-0.5,2.2-0.7,3.3
	C645,113.5,645,113.5,647.4,111.6z M641.1,109.7c-1.6,0.3-2.8,0.7-4.4,1c1.4-1.1,2.5-1.9,3.6-2.7
	C640.6,108.4,640.8,108.8,641.1,109.7z M680.2,125c0.8-0.8,1.6-1.4,2.9-2.6c0,1.6-0.4,2.5-1.8,3.1C681,125.6,680.7,125.2,680.2,125z
	 M500.7,65.5c-1.3,0.7-2.4,1.3-3.9,2.1c0.1-0.6,0.1-1,0.2-1.8C498.4,65.9,499.9,64.5,500.7,65.5z M642.4,103.7
	c-0.4-0.5-0.8-1.1-1.3-1.7C643.2,101.3,643.2,101.3,642.4,103.7z M659.5,52.4c0.7,0.6,1.6,1,2.3,1.6
	C660.3,54.7,659.6,54.4,659.5,52.4z M579.3,36c-0.1-0.2-0.2-0.3-0.3-0.6c0.8-1.3,1.8-1.8,4-2.1C581.2,34.6,580.3,35.2,579.3,36z
	 M624,100.3c-0.5,1.1-1.1,2.2-1.6,3.3C621.4,102.4,621.7,101.6,624,100.3z M507.3,60.8c-1.5,1-2.8,1.8-4.9,3.2
	C504,61.9,505.4,60.9,507.3,60.8z M639.6,105.4c-1.6-0.4-1.6-0.4-0.2-2.5C639.4,103.6,639.5,104.3,639.6,105.4z M660.2,120.4
	c-0.5,1.1-0.9,1.8-1.3,2.7C657.2,122.2,657.2,122.2,660.2,120.4z M650.6,101.9c-0.2,0.1-0.2,0.1-0.3,0.1
	C650.4,101.9,650.4,101.9,650.6,101.9L650.6,101.9c0.9-1.1,0.9-1.1,2.5-1.3c-0.3,0.6-0.6,1.3-0.9,1.9c-0.1,0-0.5,0.1-0.4,0
	C651.3,102.3,651,102.1,650.6,101.9z M642,29.8c0.3-0.1,0.5-0.1,0.7-0.2c-0.2,0.6-0.2,1.2-0.4,2.1C640.2,31.9,641.5,30.7,642,29.8z
	 M639.8,32.7c-1.5,0-2.3,0-3.3,0.1c0.7-0.7,1.5-1.2,2.4-1.9C639.2,31.4,639.5,31.8,639.8,32.7z M670.9,77.2
	c-0.5-0.3-1.1-0.6-1.9-0.8C671.3,75.3,671.3,75.3,670.9,77.2z M656.3,106.7c-0.9,0-1.7-0.1-2.7-0.2C656,104.9,656,104.9,656.3,106.7
	z M682.3,148.8c-1.3,0.7-2.3,1.2-3.1,1.6c0-0.1-0.1-0.3-0.2-0.5C680,148.9,681,148,682.3,148.8z M523.9,52.1c0-0.1-0.3-0.2-0.4-0.4
	c0.7-1.1,2-1.5,2.8-2.1c0,0.1,0.3,0.2,0.3,0.3C525.9,50.6,525,51.4,523.9,52.1z M624.3,35.8c0.9,0,2,0.1,2.9,0.2
	c-0.3,0.3-0.4,0.6-0.7,0.9c-0.9-0.1-1.9-0.2-2.8-0.3C623.8,36.2,624,36,624.3,35.8z M579.5,93.3c1-0.9,1.8-1.7,3.2-3.1
	C582.2,92,580.9,92.6,579.5,93.3z M663.8,137.8c0.8-0.4,1.4-0.6,2-1c0,0,0.2,0.3,0,0.4c-0.6,0.5-1.2,0.9-1.7,1.3
	C663.7,138.5,663.9,138.1,663.8,137.8z M636.6,32.8c-0.2,0.1-0.4,0.2-0.4,0.2c-0.8-0.4-1.8-0.7,0.3-2.4
	C637.2,31,636.7,32,636.6,32.8z M632.2,120.7c-0.3,0.5-0.9,1.1-1.3,1.6c-0.2-0.1-0.5-0.1-0.8-0.2c0.5-0.6,0.8-1,1.4-1.6
	C631.5,120.7,631.8,120.8,632.2,120.7z M666.3,125.8c-0.7-0.6-1.1-0.8-1.7-1.2C666.8,123.6,666.8,124.2,666.3,125.8z M692.8,100.7
	c-0.2,0.3-0.3,0.4-0.4,0.7c-0.6,0.1-1.3,0.3-2,0.4c0.2-0.4,0.4-0.7,0.5-0.8C691.7,100.7,692.1,100.7,692.8,100.7z M687.5,115.2
	c0-0.6-0.1-1.1,0-1.6c0.3-0.1,0.4-0.2,0.9-0.4c0,0.6-0.1,1.1-0.1,1.7C687.8,115.1,687.6,115.1,687.5,115.2z M660.6,59.2
	c0.8,0.4,1.3,0.7,1.6,1C660.3,61.2,660.3,60.7,660.6,59.2z M631.4,118.8c1-0.7,2.1-1.5,3.6-2.4C634.1,118.3,632.6,118.3,631.4,118.8
	z M562.7,96.8c-0.6,1-0.7,1.5-1.2,2.3C560.6,98.6,560.6,98.6,562.7,96.8z M673.9,120.2c-0.6,0.1-1.3,0.5-1.9,0.6
	c0-0.2,0-0.3,0.1-0.6c0.4-0.2,0.8-0.4,1.1-0.5c0.3,0,0.6,0,0.8,0C674.1,119.8,674.1,119.9,673.9,120.2z M673.2,108.5
	c-0.1,0.1-0.4,0.4-0.3,0.5c-0.6-0.1-1.3-0.2-1.9-0.3c0.3-0.3,0.4-0.4,0.6-0.6C672.1,108.2,672.7,108.3,673.2,108.5z M688.2,136.8
	c-0.8,0.3-1.3,0.5-2.1,0.8C687.1,136,687.1,136,688.2,136.8z M685.5,130.2c0.3-0.1,0.6-0.1,0.7-0.2c-0.2,0.5-0.2,1-0.3,1.5
	c-0.4,0.2-0.6,0.1-0.9,0.3C685.3,131.1,685.4,130.6,685.5,130.2z M565.2,33c1.1-0.6,1.9-1.1,3.2-1.9C567.4,32.7,566.5,33.4,565.2,33
	z M664.3,105.5c-0.4,0.2-0.6,0.3-1,0.5c-0.1-0.5-0.2-1-0.2-1.4c0.3-0.1,0.5-0.3,0.8-0.4C664,104.6,664.1,105.1,664.3,105.5z
	 M618.9,28.8c-0.9,0.2-1.9,0.4-2.8,0.7c0-0.2,0.2-0.4,0.2-0.5c0.9-0.3,1.9-0.6,2.8-0.9C619,28.4,618.9,28.6,618.9,28.8z M597.2,35.9
	c-1.1,0.3-2.1,0.4-3.1,0.7c0.2-0.3,0.2-0.4,0.3-0.6c1.1-0.2,2.3-0.4,3.3-0.6C597.4,35.6,597.4,35.7,597.2,35.9z M570.3,104.6
	c-0.5-0.1-1.3-0.2-2.2-0.4C570.5,103,570.6,103.7,570.3,104.6z M552.3,42.8c-0.2-0.3-0.4-0.8-0.6-1.1c1.4-1.1,1.8-0.4,1.8,0.1
	C553.5,42,552.6,42.5,552.3,42.8z M553.5,106.7c0.1,0-0.3,0.8-0.6,0.9c-0.4,0.2-0.9,0.1-1.5,0.1c0.5-0.6,1-1.2,1-1.3
	C552.9,106.4,553.2,106.5,553.5,106.7z M681.1,90.4c-0.2,0.1-0.5,0-0.9,0c0.5-0.5,0.8-0.9,1.1-0.9c0.3-0.1,0.5,0,0.7,0.2
	C681.5,89.8,681.3,90.1,681.1,90.4z M676.9,149c0,0.1,0.4,0.2,0.5,0.3c-0.6,0.5-1.1,1.1-1.6,1.5c0-0.1-0.3-0.1-0.4-0.3
	C675.8,150.1,676.4,149.6,676.9,149z M678.8,109.9c-0.6,0.3-1.1,0.7-1.8,1c0-0.3,0-0.4-0.1-0.7c0.6-0.2,1.2-0.6,1.8-0.8
	C678.7,109.6,678.7,109.7,678.8,109.9z M680.5,92.4c0.8-0.9,1.5-1.9,2.8-1.3C682.1,91.7,681.4,92.1,680.5,92.4z M566.5,39
	c-0.8,0.4-1.4,0.6-2,0.9c0-0.2,0-0.3,0-0.6c0.8-0.3,1.3-0.5,1.9-0.8C566.5,38.5,566.5,39,566.5,39z M668.2,60.5
	c-0.3-0.3-0.7-0.6-1-0.9c0.1-0.1,0.3-0.3,0.5-0.5c0.4,0.3,0.9,0.5,1.3,0.6C668.9,60,668.5,60.3,668.2,60.5z M679.1,116
	c-0.3-0.2-0.5-0.3-0.5-0.5c0-0.2,0.3-0.5,0.6-0.6c0.2,0.1,0.5,0.1,0.5,0.3C679.7,115.3,679.5,115.5,679.1,116z M676.7,82.8
	c-0.5,0.1-0.6,0-0.9,0c0.1-0.1,0.3-0.4,0.3-0.5c0.4-0.2,0.7-0.2,1.5-0.4C677,82.5,676.8,82.9,676.7,82.8z M650.4,101.9
	c-1,0.7-1.9,1.3-2.7,1.8C648.2,102.5,649.4,102.3,650.4,101.9z M650.2,31.6c-0.6,0.1-1.3,0.3-1.8,0.4c0.2-0.3,0.2-0.4,0.2-0.5
	c0.6-0.1,1.3-0.3,1.8-0.3C650.3,31.4,650.3,31.5,650.2,31.6z M673.9,153.2c0.3,0,0.5-0.1,0.6-0.1c-0.2,0.5-0.6,1.1-0.9,1.7
	c-0.3,0-0.5,0.1-0.6,0.1C673.4,154.3,673.7,153.7,673.9,153.2z M647.6,118.1c0.2,0.1,0.5,0.1,0.8,0.2c0,0.1-0.2,0.4-0.6,1
	C647.7,118.6,647.8,118.4,647.6,118.1z M647.4,104c-0.1,0.6-0.2,1.1-0.2,1.7C645.6,105.5,646.7,104.7,647.4,104z M665.4,174.5
	c-0.2,0.3-0.5,0.5-0.8,0.8c-0.2-0.1-0.5-0.1-0.5-0.3c0.3-0.3,0.7-0.6,1.1-0.9C665.1,174.1,665.3,174.3,665.4,174.5z M620.4,37.6
	c0.3-0.1,0.6,0,0.5,0.2c0,0.1-0.4,0.4-0.7,0.9c-0.4-0.2-0.5-0.3-0.6-0.5C620.1,37.9,620.3,37.6,620.4,37.6z M662.6,111.5
	c0.5-0.1,0.5,0.1,1.1,0.2c-0.6,0.4-0.9,0.7-1,0.7c-0.3,0-0.5,0-0.7-0.2C662.2,111.9,662.5,111.5,662.6,111.5z M669.1,103.2
	c-0.1,0.1-0.3,0.3-0.5,0.4c-0.3-0.2-0.5-0.5-0.8-0.7c0.1-0.1,0.2-0.1,0.3-0.3C668.6,102.9,668.9,103,669.1,103.2z M666.2,132.8
	c-0.2,0.1-0.3,0-0.5,0.1c0.2-0.5,0.3-0.9,0.4-1.3c0.3,0,0.4,0,0.7,0C666.6,131.9,666.4,132.4,666.2,132.8z M676.5,112.8
	c0.6-0.2,1.1-0.5,1.6-0.7c0,0.2,0,0.3-0.1,0.5c-0.6,0.2-1.1,0.5-1.6,0.7C676.4,113.1,676.5,112.8,676.5,112.8z M662.5,167.1
	c0.2-0.1,0.5,0,0.4,0.2c-0.4,0.4-0.5,0.6-0.9,1.1c-0.4-0.2-0.5-0.3-0.5-0.5C661.9,167.6,662.2,167.3,662.5,167.1z M555,106.7
	c0,0.1,0.3,0.1,0.4,0.3c-0.5,0.5-1,0.9-1.5,1.4c-0.1,0-0.2-0.1-0.4-0.2C554,107.7,554.5,107.2,555,106.7z M630.8,124.9
	c0,0.1-0.4,0.4-0.5,0.5c-0.3,0-0.5,0-0.8-0.1c0.5-0.4,0.7-0.7,1-0.7C630.7,124.4,630.8,124.7,630.8,124.9z M645.1,107.7
	c-0.2,0.1-0.5,0.3-0.5,0.3c-0.1-0.3-0.4-0.5-0.4-0.8c0.3-0.1,0.3-0.2,0.6-0.3C645,107.1,644.9,107.5,645.1,107.7z M638.6,183.1
	c0.1,0,0.2,0.1,0.3,0.3c-0.3,0.3-0.5,0.5-0.7,0.7c-0.1,0-0.4-0.2-0.4-0.2C638.1,183.6,638.4,183.4,638.6,183.1z M533.1,47.6
	c-0.1,0-0.1-0.2-0.2-0.3c0.5-0.3,1-0.7,1.5-1c0.1,0,0.1,0.2,0.3,0.2C533.9,47.1,533.5,47.3,533.1,47.6z M653.4,129.1
	c0.2-0.3,0.3-0.5,0.5-0.7c0.1,0,0.3,0.1,0.4,0.2c0,0.1-0.4,0.4-0.3,0.5C653.6,129.1,653.5,129.1,653.4,129.1z M575.3,99
	c0,0.1,0.2,0.3,0.2,0.5c0,0.1-0.3,0.2-0.7,0.4c0-0.3,0-0.4-0.1-0.7C574.7,99.3,575,99.1,575.3,99z M651.9,107
	c-0.3,0.4-0.4,0.8-0.6,1.1c0-0.1-0.2-0.3-0.1-0.6C651.3,107.4,651.5,107.3,651.9,107z M648.2,139.8c-0.2-0.1-0.4-0.3-0.4-0.4
	s0.4-0.4,0.7-0.6c0,0.1,0.2,0.3,0.4,0.5C648.8,139.3,648.5,139.5,648.2,139.8z M645.3,103.5c0.3-0.3,0.7-0.7,1.1-0.9
	c0.2-0.1,0.4,0.2,0.5,0.5c-0.5,0.4-0.8,0.7-1.4,0.9C645.6,103.9,645.4,103.6,645.3,103.5z M558.8,42c0-0.2,0-0.4-0.1-0.5
	c0.5-0.3,1-0.5,1.5-0.8c0,0.1,0.1,0.2,0.1,0.3C559.6,41.5,559.2,41.7,558.8,42z M517.9,116.6c-0.1,0.5,0.2,1-0.2,1.5
	c-1.6,1.6-3.3,3-4.8,4.5c-0.2-0.1-0.5-0.1-0.6-0.3c1.2-1.6,2.4-3.3,3.7-4.8C515.9,117.2,517,117,517.9,116.6z"/>
<path class="st3" d="M349.7-368c-0.5-0.8,0.7-1.4,2.5-1.6c2.7-0.3,4.6,0.1,6.3,1.1c1.9,1.2,4.8,1.5,6.9,0.8c0.6-0.2,1.3-0.6,1.2-1
	c0-0.3-0.8-0.7-1.4-0.9c-0.5-0.2-1.4,0-2.1-0.1c-3.6-0.3-5.1-1.6-4-3.2c0.3-0.5,0.4-1,0.6-1.7c-5,0.1-9.6,0.2-14.1,0.3
	c-1.6,0-2.8,0-2.9-0.9c3-1.5,6.7-1.7,10.9-1.5c3.2,0.2,6.3,0.3,8.6,1.5c1.4,0.8,3.3,0.8,5.2,0.3c-0.7-0.1-1.2-0.4-0.5-0.7
	c0.7-0.4,1.5-0.7,2.2-1.1c-0.5-0.1-0.8-0.4-0.3-0.7c0.2-0.1,0.4-0.2,0.6-0.3c-0.5-0.1-0.9-0.2-1.3-0.4c-0.6-0.2-0.6-0.6,0-0.8
	c0.4-0.1,0.8-0.2,1.1-0.3c-2-0.2-4-0.5-5.9-0.8v-0.7c2-0.3,3.9-0.5,7-0.9c-3.8-0.9-6.5-1.9-9.6-2.2c-3-0.3-6.3,0.1-9.5,0.1
	c-0.2-0.1-0.4-0.3-0.5-0.4c2.1-1.1,4.2-2.2,6.6-3.4c-1.2-0.1-2.1-0.3-2.7-0.2c-2.7,0.4-5.1,0.3-7.7-0.2c-0.9-0.2-2-0.1-3.1-0.1
	c-0.4,0-0.8,0.3-1.1,0.4c0.5,0.7,0.9,1.3,1.6,2.4c-3-0.3-5.1-0.8-7.2-0.8c-2.4,0-4.7,0.5-7.1,0.7c-1.9,1.6-1.9,1.6-5.6,2.1
	c-4,0.6-8.2,1-12,1.7c-3.5,0.7-6.7,0.7-10.2,0.2c-1.4-0.2-3.3-0.5-4.5-0.2c-4.4,0.9-8.5,0.7-12.3-0.2c-4.5,1.1-8.6,2.1-12.9,3
	c-1.2,0.2-3-0.1-4.4-0.4c-6.1-1.1-12.6-0.8-18.8-1.2c-0.7,0-1.5,0.5-2.3,0.5c-1.3,0-3.1,0.1-3.9-0.2c-3.5-1.4-6.8-3-10.2-4.5
	c-1.6-0.7-2.9-1.6-4.7-2.3c-1.6-0.6-5.1-0.4-5.8,0.2c-1.1,1,0.1,1.7,1.8,2.2c2.9,0.9,5.9,1.7,8.9,2.5c1,0.3,2.1,0.6,2.8,1
	c3.8,2.4,8.4,4.5,13.3,6.4c2.2,0.9,1.9,1.7-0.9,2.1c-6.1,0.9-11.9,2.7-18.8,1.4c-0.6-0.1-1.5,0-2,0.2c-1.5,0.4-1.8,0.9-0.5,1.5
	c2,0.5,4.3-1.3,6.3,0.3c-0.6,0.8-1.2,1.7-1.9,2.9c-1.7-0.3-2.8-0.5-4.8-0.9c2.7,2.4,1,3.7-2.6,4.9c-2.7,0.9-5.5,1.9-7.4,3.7
	c5.2-0.6,8.9,0,12.3,1.4c1,0.4,3,0.6,4.3,0.5c3.8-0.3,7.6-0.8,11.4-1.1c2-0.2,4.1-0.1,6.2-0.4c3.4-0.3,5.9,0.6,8.8,1.4
	c0.5-0.5,0.9-0.9,1.1-1.2c0.2-0.4,0.2-0.9,0.4-1.6c7.1,1.4,13.9,2.5,21.2,1.5c0.9,0.7,1.6,1.3,2.7,2.3c1.5-2.4,4.9-3.2,9.2-3.4
	c1.2-0.1,2.6-0.3,3.3-0.7c3.9-2,9-1.4,13.5-1.7c0.8,0.6,1.3,1,2,1.6c7.3-2.4,14.7-2.8,22.4-0.8c1,0.3,2.4,0.3,3.6,0.4
	c8.2,0.3,16.5,0.5,24.7,0.7c0.2,0,0.5-0.2,0.9-0.4c-1.5-2.2-8.1-0.8-9.4-2.5c-2.7,0-4.7,0.1-6.7,0c-2.1-0.1-4.1-0.4-6.1-0.7
	c-2-0.2-4-0.4-6.8-0.7c0.7-1.1,0.7-2.4,1.9-2.7c2.8-0.8,4.5,0.6,6.4,1.4c5.2-1.4,10.1-0.6,14.8,0.3c3.7,0.7,6.5,0.2,8.4-1.4
	c-4.9-0.4-9.8-0.8-14.7-1.2C351.4-367,349.9-367.6,349.7-368z M248.7-376.7c-0.6,0.1-1.3-0.2-2.4-0.3c1.6-0.6,2.1-0.8,2.6-1
	c0.4,0.2,1.1,0.5,1.1,0.7C249.9-377.1,249.3-376.8,248.7-376.7z"/>
<path class="st4" d="M232.3-254.2c-2.3-1.7-7-0.8-6.7-4.2c1.7,0.3,3.2,0.5,4.7,0.7c-0.7-1.7-1.3-3-1.8-4.4c-0.6-1.6-1.5-2.7-4.2-2.8
	c-1.3-0.1-2.6-0.5-3.9-0.8c-2.6-0.6-5.3-1.6-7.9-1.6c-9.1-0.2-18.2-0.2-27.4-0.2c-2.4,0-4.9-0.1-7.3,0.2c-2.1,0.2-4,0.9-3.4,3
	c0.2,0.6-0.6,1.9-1.5,2.1c-3.5,1.1-4.6,3.3-5.7,5.5c-0.3,0.7-0.6,1.6-1.4,1.9c-1,0.5-2.6,0.9-3.7,0.7c-1.4-0.2-2.1-1.2-1.3-2.4
	c0.6-0.8,1.4-1.9-1.1-2.4c-0.4,1-0.8,2-1.4,3.3c-2.3-0.7-4.4-1.3-7.4-2.3c3.2-1.2,5.4-2,7.7-2.8c-1.8-1.8-3.4-3.6-5.2-5.2
	c-0.4-0.3-1.2-0.6-1.8-0.7c-3.4-0.2-6.3-2.1-10-1.5c-1.2,0.2-2.7-0.3-4.1-0.6c-3.1-0.7-6.2-1.6-9.3-2.3c-4.1-1-8.2-2.1-12.5-2.8
	c-5.1-0.9-9.9-2.8-15.8-1.8c-3.1,0.5-7.3-0.8-8.5-3.4c-1.1-2.3-3.3-3.1-6.1-3.4c-4-0.5-8-1.1-12-1.4c-1.9-0.1-4.6,0.1-5.8,0.9
	c-1.7,1.2-6.1,1.2-4.7,4.1c0.1,0.2-0.4,0.6-0.7,0.8c-2.8,1.9-5.6,3.7-8.6,5.7c1.7,1.1,2.9,1.8,3.8,2.4c-0.8,2.4-1.5,4.5-2.2,6.6
	c-0.5,1.7-1.6,2.6-4.3,2.5c-2.6-0.1-5.1,0.1-5.4-2.5c1.3-0.5,2.6-0.9,4.5-1.6c-5.2-1.6-9.9-3-14.5-4.5c0.1-0.2,0.2-0.4,0.3-0.7
	c1.6,0.1,3.1,0.3,5.8,0.5c-3.1-1.5-5.3-2.6-7.8-3.8c-2.3,2.5-4.6,4.8-2.9,7.7c-3.5,2-6.7,3.9-9.5,5.5c-0.1,3.9,5,7,0.6,10.4
	c2.9,2.4,8.7-0.1,10.5,3.5c-3.8,0.2-4,0.3-5.6,1.6c-1.5-0.5-3-0.9-4.9-1.5c0.3,1.3,0.8,2.2,0.5,3c-0.3,0.9-1.4,1.6-2.2,2.4
	c0.8,1,1.5,1.9,2,2.6c-1.3,2.1-2.5,4-3.7,5.9c-1-0.1-2.4-0.2-3.7-0.3c-0.1,0.2-0.2,0.4-0.2,0.6c1.5,0.9,3.1,1.7,4.4,2.5
	c-1.5,1.2-3.9,2.1-3.9,3.1c0,2.3-0.4,5.3,2.5,6.7c2.5,1.2,6.4,1.8,9.4,1.5c3.4-0.4,6.7-0.1,9.2,0.9c3.2,1.3,6.3,1.2,9.5,1.5
	c2.8,0.2,5.5,0.6,8.3,1c3.5,0.5,6.9,1.5,10.3,1.5c5.5,0.1,10.3,1.3,15,3c5.6,2,11.4,4,18,1.9c0.3-0.1,0.7,0,1.1,0.1
	c0.1,0.4,0.3,0.9,0.4,1.2c5.3,0.3,10.6,0.6,16,1c0.8-1.8-0.6-2.4-2.6-2.4c-6.2,0-12.2-1-18.2-2.1c-8.1-1.5-16.4-2.7-24.6-4.1
	c-1-0.2-1.9-0.5-2.8-0.8c3.6-0.2,7-0.2,10.4,0.3c5.8,0.7,11.6,1.6,17.4,2.6c8.1,1.4,16.3,1.8,24.6,1.7c4-0.1,8,0.6,12,1.1
	c1.7,0.2,2.2,1.1,0.5,2.3c-3.6-1.1-7-1.3-9,1.3c1.9,2.2,3.5,4.2,5.3,6.3c2.1-1,3.6-2.6,6.3-1.1c0.6,0.3,2,0,3-0.1
	c4.2-0.7,8.3-0.7,12.6-0.3c3.1,0.3,6.3,0,9.4,0.1c1,0,2.5-0.1,3.1,0.3c3.5,2.5,8.3,1.5,11.1,2.3c2.3-0.8,3.7-1.3,5.2-1.8
	c-3.6-0.5-7-1.7-10.6,0.1c-0.9-0.9-1.9-1.8-3.3-3.1c-2.3,2.7-5.8-0.8-8.4,1.2c-1.8-1.9-5.2-1.6-8.2-2.9c7.7-2,14.6-0.7,21.5,0
	c7.7,0.8,15.2,2.2,22.8,3.3c2.1,0.3,4.2,0.3,6.3,0.4c1.9,0.1,2.3-0.8,2.2-1.9c0,0-0.1,0-0.1,0.1c-0.1-0.1-0.1-0.1-0.2-0.1
	c-1.2-0.1-2.5-0.3-4-0.5c2.5-0.8,2.6-0.8,4,0.5c0.1,0,0.2,0,0.3,0l0,0c2.4-1,4.6-1.9,7.6-1.8c1.8,0.1,3.5-0.7,3.2-2.3
	c-0.4-2.1,1.4-2.6,3.7-2.8c2.7-0.2,4.7-0.9,5.5-2.8c-1.1-2.5-7-2.6-6.3-6.3c4.5,0.6,8.7,1.3,14,2c-1-1.9-1.3-3.1-2.3-4
	c-1.5-1.3-3.3-2.5-5.3-3.5c-2.2-1.1-1.5-1.9-0.1-3.2c1.5,0.5,2.8,0.9,4.2,1.3c0.9-2.4,0.8-2.9-1.9-3.3c-3.4-0.5-6.8-0.5-10.4-0.8
	c-0.3-1.6-0.6-3.2-0.8-4.6c3.2-1.8,6.4-3.5,9.7-5.3c-0.6-0.7-2.4-2.3-2.3-2.4c2.4-1.5-1.1-2.7-0.2-4.2c3.5-0.3,6.9-0.6,9.9-0.9
	c2.3-1.9,1-3.4-0.5-4.8C229.8-253.7,230.8-253.9,232.3-254.2z M35.3-218.9c-0.1-0.3-0.1-0.5-0.2-0.8c2.4-0.9,2.4-0.9,6.1,0.3
	C38.6-219.2,36.9-219,35.3-218.9z M35.2-241.3c0.6-0.4,0.8-0.6,1-0.6c1.5,0.2,2.9,0.4,2.4,2.1C37.4-240.3,36.3-240.8,35.2-241.3z
	 M41.2-243.8c1.7,0.7,3.4,1.1,4.3,2c0.8,0.8,0.8,2.1,1.1,3.1C41-239,40.5-239.5,41.2-243.8z M42.6-220.2c3.2-1.2,4.8,0.1,7.7,1.3
	C46.8-218.5,44.6-218,42.6-220.2z M45.8-248.9c0.7,0.8,1.3,1.5,2.3,2.6c-5.1,0.2-8.7-0.9-12.6-2.2c2.5-2.3,5-1,7.6-0.6
	c1.9-1.3,4.1-2.7,7.5-0.9C49-249.7,47.5-249.3,45.8-248.9z M61.1-216.4c-1.2-0.2-2.5-0.3-3.7-0.5c0.1-0.2,0.2-0.5,0.3-0.7
	c1.2,0.2,2.4,0.5,3.6,0.7C61.2-216.7,61.1-216.6,61.1-216.4z M158.4-249.5c-0.2-0.5-0.5-0.8-0.5-1.2c0-0.1,1-0.4,1.2-0.3
	c0.4,0.2,0.6,0.6,0.9,1C159.6-249.9,159.1-249.8,158.4-249.5z M47.7-268.4c-1.3-0.3-2.7-0.7-4-1c0.1-0.2,0.2-0.4,0.3-0.5
	c1.3,0.3,2.7,0.7,4,1C47.9-268.8,47.8-268.6,47.7-268.4z M72.6-209.9c0.9,0.2,1.9,0.3,2.8,0.5c-0.1,0.3-0.2,0.6-0.3,0.8
	c-0.9-0.2-1.9-0.5-2.8-0.7C72.4-209.5,72.5-209.7,72.6-209.9z"/>
<path class="st5" d="M588.2-311.3c0.8,0.2,1.5,0.3,2.4,0.3c0.7,0.1,0.8,1.1,2.6-0.4c-0.7-0.4-1.6-0.5-1.8-1
	c-0.1-0.5,0.6-1.7,1.1-2.8c-2.7,1-3.5,0.6-4.2-0.4c-0.5-1.1-0.7-2.7-4.1-1.7c-0.7,0.2-0.8-0.2-1.5-0.2c0.4-0.2,0.8-0.5,1.2-0.8
	c1.1-0.3,1.9-0.5,3.4-0.9c-0.8-2.2-3.7-2.6-3.1-5.6c0.8,0.2,1.3,0.2,1.7,0.5c0.5,0.5,0.9,1.2,1.7,1.5c3.7,0.8,7.2,1.8,8.3,4.7
	c0,0.2,0,0.5,0.3,0.5c2.7-0.3,2.9,1.3,3.8,2.3c1.4,1.8,3.9,2.9,3.5,5.5c1.3,0.3,3,0.2,3.2,0.8c0.5,1.8,0.3,3.9,0.3,6
	c-2.9,1.3-4.4,0.3-7.5,2.5c0.4,0.8,0.6,1.6,1.1,2.4c0.2,0.2,0.5,0.5,0.8,0.4c2.4-1,2,0,1.8,1c-0.2,0.8,0.5,1.1,0.7,1.7
	c1-0.8,1.7-1.3,2.1-1.7c-0.1-0.8,0.1-1.6,0.2-2.4c0.3-0.1,0.6-0.4,0.9-0.5c-1.3-0.1-2.5-0.2-3.8-0.2c1.4-0.9,2.5-1.6,3.9-2.4
	c0.9-0.4,1.9-1,2.2-0.9c1.1,0.4,3.1,0.6,2.7,1.6c-0.1,1.3,0.3,2.2,0.7,3.2c-0.1,0.2,0,0.3,0.2,0.5c0.6-0.8,1.1-1.3,1.4-1.7
	c2.1-0.8,3.9-1.3,6-2.1c-0.4,0.8-0.9,1.7-1.3,2.4c0.6,0,1.1,0.1,2,0c-0.6,1.2-1.1,2-3,3c-0.9,0.4-1.5,1.1-2.2,1.8l6.1-1.1
	c-1,1.5-4.4,3.8-2.3,4.3c0.7-0.3,1.5-0.8,2.3-1.1c-0.5,1.2-0.3,2-2.8,2.8c-1.8,0.5-2.7,1.5-2.7,2.5c1.3-0.2,2.9-0.7,4.1-0.8
	c1.1-0.1,1.7,0.3,2.7,0.4c0.8,0.2,3-0.8,2.3,0.9c-1.8,0.1-3.6,0.3-6,2.9c2.4-0.8,4.6-1.3,6.7-2.3c1-0.5,1.8-1.9,3.1-3.2
	c0.8-0.2,1.8-0.4,2.5-0.7c-0.1,0.3-0.1,0.6-0.3,0.7c-2.7,2.3-1.8,3.5-2.7,5.3c-0.2,0.2,0.2,0.4,0.3,0.4c2-0.9,1.4,0.2,1,0.9
	c-0.4,0.9-1,1.9-1.4,2.7c1.4-0.3,2.6-0.7,4-0.9c0.2-0.1,0,0.3,0,0.7c-1,0.4-1.9,0.7-2.7,1c-1.6,2.2-1.8,2.7-0.2,2.3
	c1.8-0.5,3.7-1.3,6-2.1c-0.8-0.5-1.4-0.8-1.9-1.1c0-0.1,0.4-0.4,0.4-0.4c1.3-0.2,2.5-0.3,4.2-0.5c-2,2.6,0,4-4.3,7.3
	c-0.4,0.3-0.5,1.1-0.6,1.9c2.8-1.7,5.3-3.1,8.4-4.9c-1.1-0.2-2-0.2-2.8-0.4c0.4-1.5,0.5-3.1,0.9-5.1c1,0.2,1.5,0.3,2.3,0.5
	c1-1.3,1.9-2.4,2.7-3.6c0.2,0.3,0.5,0.4,0.9,0.5c1.2-1.2,1.1-2,0.1-2c-1.4,0-0.6-1.1,0-2.1c-0.6,0.1-1.3,0.2-1.7,0.1
	c-1.1-0.3-0.4-1.8,1.2-2.8c2.8-1.7,3.3-2.4,2.6-3.3c-0.3-0.6-0.8-1-1.2-1.5c2.1-2.3,3.1-4.4,2.1-5.3c-1.3-1.3-0.6-3.3,0.6-5.6
	c0.7-1.3,1.3-2.8,1.2-3.7c-0.5-1.2,0-2.5,3-4.5c-2.6,0.2-3.5-1.1-2.2-3.2c0.9-1.4,0.8-2.1,0.3-2.8c-0.9-1.9-1.5-4-1.9-6.1
	c-0.1-1.1,0.1-1.3,2.5-2.1c1-1,1.7-0.9,2.5-1c1.3-1.8,2.1-3.4,1.2-4.4c1.1,0,1.8,0.2,2.9,0.2c1.1-1,2.1-1.9,3.3-2.9
	c0.2,0.3,0.4,0.4,0.8,0.5c0.2,0.1,0.5,0.1,0.8,0.2c2-2-0.1-1.7-0.2-2.4c-0.5-2-1.5-3.8-3.6-4.9c-0.8-0.5-0.8-1.6-1.3-2.5
	c-0.1-0.3-0.3-0.6-0.5-0.8c-0.5-0.5-1.2-1.1-1.8-1.7c-0.7-0.7-1.2-1.4-1.8-1.8c0.5-1.3,1.2-2.4,0.9-3c-0.4-1-2.6,0.3-4.2,1.1
	c-0.5-0.3-1-0.5-1.3-0.8c0-0.2,0.1-0.5-0.2-0.5c0.9-0.4,1.5-0.8,2.2-1.1c0.6-1.3-0.4-0.9-1.7-0.5c-2.6,0.8-3.2,0.2-2.5-1.8
	c-0.4,0-0.8,0.1-1.2,0.1c1.4-1.3,2.3-2.4,3.8-3.9c-2.6,1.1-3.9-0.1-6.5,3c-1.4-1.2-2.7-2.3-4.1-3.3c-0.5-0.5-1.1-1.1-1.7-1.5
	c-2-0.9-4-1.6-6-2.5c-0.7-0.3-0.8-1.3-1.7-1.2c-3,0.7-4.6-0.1-6.7-0.2c-0.2,0.1,0-0.2,0.1-0.5c0.7-0.5,1.4-1.1,1.9-1.5
	c-0.1-2-4.3,0.7-5.7,0.1c0.6-0.8,1.2-1.6,2-2.6l-9,1.7c0,0,0,0,0,0.1c0,0,0,0-0.2,0.1c-1.1,1-1.9,1.3-2.9,1.1c1.4-1,2.3-1.5,2.9-1.1
	l0,0l0,0c0.3-0.4,0.2-0.6,0.5-1c-1.1-0.1-3.3,0.4-3.2-0.2c0.2-1.3-2-0.7-2.2-1.5c-0.2-0.2-1-0.2-1.5,0c-0.5,0.2-1.1,1-1.4,1.3
	c-1.9,0.4-3.4,0.7-5.1,1c-1.5,0.3-3.1,0.8-4.5,1c-1.5,0.3-1.7-0.2-0.4-1.5c0.5-0.5,1.2-1,1.8-1.5c-2-0.1-2-0.1-5,1.4
	c-4.3,2.2-6.5,1.7-5.7-0.9c0.2-0.5-0.6-0.8-0.9-1.3c-2.6,2.3-5.5,3.8-7.1,3.6c-3.8-0.3-8.7,0.9-13.6,2c-0.9,0.2-1.8,0.6-2.4,0.6
	c-3-0.1-6.2-0.1-11,2.4c0.4-0.8,0.8-1.3,0.9-1.6c0.1-0.3,0-0.7,0-0.9c-2.7,1.1-1.2,1.7-2.3,2.7c-1.8-0.1-2.5-1.5-5.7,0.2
	c-0.6,0.6-1.2,1.2-2,2.1c-0.3-1.4-2.8-0.5-4,0.1c-3.2,1.8-5.8,3.1-8,2.5c-0.8-0.3-2.4,0.1-3.8,0.3c-1.3,0.2-2.5,0.3-4,0.5
	c0.9-1.2,1.8-2.2,2.8-3.5c-1.3,0.2-2.4,0-3.5,0.4c-4.2,1.7-8.6,3.6-12.9,5.5c-4.3,1.9-8.6,3.6-13,5.6c-4.8,2.2-9.5,4.4-14.3,6.7
	c-7,3.5-14,7.1-20.7,11.7c-4.2,2.9-8.1,6.2-12.9,8.4c-1.3,0.5-2.3,1.7-3.9,2.6c-3.6,2.3-6.9,5.8-11,6.4c-0.2,0.1-0.6,0.3-0.7,0.4
	c-2.8,2.4-6,3.9-9.1,5.5c-4.6,2.4-6.9,5.3-10,8.2c-0.5,0.5-0.5,1.3-0.4,1.8c-0.1,0.5,0.6,0.6,0.7,1.1c-1.6,1.4-3.1,2.7-4.6,4.2
	c1.8-0.2,3.3-0.3,4.8-0.4c0.5,0,1.1,0.2,1,0.6c-0.1,0.3-1.1,1.1-1.9,1.5c-3.7,1.7-7.1,4.2-10.2,7.1c2.1,0.4,1.9,2.1,1.3,4.1
	c2-0.5,3.6-0.9,5.5-1.4c-0.2,0.2-0.1,0.3-0.3,0.6c-3.1,1.2-6.3,2.5-9.7,3.8c0.9,0.4,1.5,0.7,2.3,1c-3.6,2.4-7.6,4.6-8.3,7.5
	c4-0.9,8.2-2,12.4-3c0.2-0.1,0.3-0.1,0.5-0.2c1.7-0.5,3.6-1.2,5.2-1.6c4.9-1.2,9.9-2.4,14.5-3.3c2.8-0.4,5.6-0.6,7.7-0.1
	c1.9,0.3,3.9,0.6,6.4,0.2c0.6-0.1,1-0.1,1.6-0.2c0.1-0.1,0.4-0.3,0.4-0.2c12.4-4.7,24.5-8.1,36.2-11.1c0-0.1,0-0.1,0.2-0.2
	c0.7-0.3,1.5-0.8,2.2-1c5.1-1.8,10.1-3.6,15.4-5.6c1.8-0.7,3.5-1.3,5.5-2.2c2.4-1,5-2.7,6.7-2.1c0.4,0,1.1-0.3,1.4-0.4
	c4.1-1.5,8.1-3,12.3-4.5c0.5,1.1,0.7,2.3,1.2,3.2c2-0.6,3.6-0.5,5-0.3c1.2,0.2,2.5,0.2,3.9,0.1c-0.3-0.2-0.4-0.5-0.7-0.8
	c3.1-2,3.5-2,3.5-0.4c1.3-0.5,2.4-1,4.2-1.7c-1,1-1.7,1.7-2.4,2.2c2.5-0.4,4.6-0.7,6.4-0.5c2.3-1.9,4.9-2.3,7.2-4
	c1-0.7,2.1-1.1,3.4-1.9c-2.3-0.1,1.6-2.5,0.4-3.3c1.4-0.2,1.8-0.2,2.7-0.3c1.1-1.1,1.8-3,4.3-3c-0.2,0.2-0.3,0.5-0.2,0.6
	c-0.1,0.3-0.2,0.5-0.3,1.1c3.6-3.6,3-4.2-2.1-3.6c3.6-2.3,4.6-1.2,6.4-1c0.5-2.3-2.4-2-3.7-2.8c1.9-0.6,3.2-0.5,4,0
	c0.8,0.4,1.8,1,3.2,0.8c2.2-0.4,2.6,0.1,2.3,1.5c-0.2,0.8-0.8,1.9,1.1,1.3c0.9-1.3,2.3-2.5,4.2-2.9c1.3,1.8,6.6,0.7,5.3,4.2
	c1.4-0.1,3.1-0.7,3.6-0.3C586.6-315,589-314.1,588.2-311.3z M636.4-282.8c-0.3,0.1-0.7,0.4-1.1,0.5c-0.4,0.1-0.5,0-1-0.2
	c1-0.3,1.5-0.6,1.7-0.6C636.4-283.1,636.3-282.9,636.4-282.8z M638.2-286.1c-1.9,1.6-2.7,1.8-3.1,0.8
	C636.3-285.6,637-285.8,638.2-286.1z M621.4-288.9c-0.2-0.2-0.3-0.4-0.3-0.5c0.4-0.4,0.8-0.7,1.2-1c0.2,0.1,0.2,0.3,0.6,0.3
	C622.3-289.6,621.9-289.3,621.4-288.9z M655.8-337.9c0,0.2,0.3,0.4,0.4,0.6c-0.2,0.2-0.6,0.6-1.5,1.2c0.1-0.5-0.2-0.6-0.1-0.8
	C654.9-337.2,655.3-337.4,655.8-337.9z M651.6-330.5c-2.5,0.9-1.9-0.2-2.3-0.6c0.4-0.3,0.6-0.4,0.8-0.5
	C650.5-331.4,650.9-331,651.6-330.5z M652.1-334.8c0.3,0.1,0.6,0.3,0.9,0.4c-0.4,0.3-0.7,0.5-0.9,0.7c-0.3-0.2-0.5-0.4-0.8-0.6
	C651.7-334.5,651.8-334.7,652.1-334.8z M627.5-296L627.5-296C627.6-296,627.6-296,627.5-296c1.4-0.5,2.5-1,3.7-1.5
	c1,2.2-0.4,4.4-5.3,7.7c-0.5-1.4,1.4-3,3.7-4.7c-0.6-0.5-1.3-1-2.2-1.3l-0.2,0.1C627.3-295.9,627.5-296,627.5-296
	c-0.2-0.3-0.7-0.6-1.4-1.1C628.4-297.6,627.7-296.6,627.5-296z M627.6-305c-0.1,0.5,0.2,0.5,0.1,0.9c-0.3,0.1-0.9,0.5-1,0.5
	c-0.2-0.1-0.3-0.2-0.2-0.4C626.6-304.3,627-304.5,627.6-305z M642.8-351.9c1-0.3,2.1-0.9,2.8-0.9c1.4-0.1,2.2,1.5,2.2,2.8
	c-1.8-0.4-3.7-0.8-5.4-1.2L642.8-351.9z M613.5-308.1c2.7,0.2,1.5,2.5,1,4.6c-4.1,0.9,0.7-3.7-3.7-2.3
	C612.1-307,612.7-307.5,613.5-308.1z M605.9-314.4c0.6,0.3,2.6-0.7,2,0.9c-0.5,1,2.5,0.3-0.2,2.8c-0.9-1.2-1.7-2.2-2.6-3.1
	C605.4-314.1,605.8-314.3,605.9-314.4z M603.4-316.6c0.4,0,0.8,0,1,0.1c0.2,0.1,0,0.5,0.1,0.7c-0.3,0.1-0.4,0.2-0.9,0.4
	c-0.2-0.3-0.6-0.6-0.8-1C602.8-316.2,603-316.3,603.4-316.6z M427.4-279.8c-1.1,0.1-2.3,0.3-3.3,0.3c0.2-0.2,0.2-0.3,0.4-0.5
	l3.4-0.6C427.9-280.4,427.7-280.1,427.4-279.8z M580.4-319.9c-0.1-0.3,0-0.7-0.2-1c0.3-0.1,0.7-0.4,0.9-0.4c0.2,0.2,0.2,0.6,0.5,0.8
	C581.2-320.4,580.6-320,580.4-319.9z M597.6-216.5c-1.2-0.3-3.7,0.6-4-0.7c-0.1,0-1.8,0.8-2.9,1.2c0.1,0.4,0.3,0.6,0.7,0.4
	c1.3-0.5,1.4-0.1,0.9,0.7c-0.6,0.9-1.6,1.3-2.3,1.2c-0.7,0-1.2-0.3-1.8-0.5c3-3.1,6-5.9,9.1-8.4c0.4-0.1,0.5,0,0.9-0.1
	c-0.5,1-0.8,2-1.3,3.1c2.2-2,4.3-3.9,6.6-6.1c-1.1,0.3-1.6,0.5-2.1,0.6c-0.5,0.1-1,0.1-1,0.1c1.1-1.5,1.7-2.6,2.5-3.8s1.8-2.3,3-3.8
	c-1.8,0.8-3,1.3-4.2,1.9c-0.1,0.5,0.1,0.8-0.2,1.4c-3.7,1.1-3.9,3.7-7.2,5.3c0.8,0.2,1.3,0.2,1.9,0.3c-1,1.1-1.8,2-2.8,3.1
	c-2.6,2.7-3.9,3.2-6.1,2.3c1.8-1.9,3.9-4,5.6-5.9c1.8-2.1,3.2-4.2,5-6.4c3.5-1.7,4-2.2,3.8-3.7c-0.1-0.6,0-1.3,0.5-2.1
	c0.6-1.2,1.8-2.5,2.4-3.7c1.5-3,3.5-6,7-9.3c-1.1,0-2-0.2-3.3-0.3c-1.7,2.8-6.1,5.8-6.9,8.5c2.4,0.3,2.4,0.5,1.4,2.2
	c-1.1,2-2.4,4.1-6.6,5.7c0.9,2.3-2.1,5.2-4.9,8.1c-1.7,1.8-3.8,3.7-4.6,5.2c-1.4,2.5-4.3,4.4-6.7,6.6c-0.4,0.4-1.3,0.6-2.2,1
	c2.1-3.2,4.9-6.1,7.9-9c1.1-1,2.8-2.7,2.7-3.1c-0.2-0.9,0.7-1.6,2-2.6c1.2-0.9,2.2-1.8,2.6-2.9c-3.1,1.4-5.1,3.4-6.1,4.8
	c-1.9,2.8-4.7,5.1-8.4,7.5c-0.1,0.1-0.3,0.4-0.4,0.6c3,0,2.6,1.3-0.9,4c-0.4,0.3-0.6,0.4-0.8,0.5c-1.3,0.7-1.9,1.3-2.4,2.3
	c-0.4,0.9-1.5,2.1-2.6,3.2c-3.7,4-7.4,8.1-11.2,12.1c-6.2,6.6-14.3,12.6-22,18.6c-0.4,0.3-1.3,0.6-1.8,0.8c1.7-1.7,3.7-3.1,5.5-4.5
	c1.9-1.5,2.9-2.9,3.6-4.6c-1.3,1.2-2.4,2.1-3.3,2.9c-2.3,1.9-4.4,3.8-6.6,5.6c-4.7,3.8-9.2,8-14.2,11.8c-8.7,6.6-17.7,13-26.8,19.4
	c-11.5,8.2-23,16.3-35.3,23.8c-1.8,1.1-2.9,2.3-3.7,3.7c1.2-0.6,2.1-1,2.8-1.4c12.8-6.6,25.1-14.9,37.6-22.5c3.3-2,6.7-4.4,9.9-6.5
	c3.5-2.3,6.8-4.5,10.3-6.7c3.2-2.1,6.2-4,9.3-5.9c3.6-2.4,7.4-4.7,11.1-7.2c3-2,6.3-4,8.8-6.2c3-2.6,6.5-4.6,9.7-7.1
	c1-0.8,2.6-1.4,3.8-1.9c3.3-1.2,6.2-3.3,9.2-5.7c-2.7,1-4.6,1.8-7.2,2.6c0.6-0.9,0.9-1.7,1.4-2.2c3.3-2.7,6.5-5,10.4-5.5
	c2.2-3,5-5,8.9-6.4c0.2-0.2,0.1-0.3,0.3-0.6c-1.6,0.2-2.9,0.2-4.8,0.2c1.8-1.7,3.6-3.2,5.2-4.6c1.1-1,2.1-1.8,3.5-2
	c1.7-0.2,3.1-1.3,5.3-3.1c-2.1,0.8-4,2.2-4.7,1.1c1.9-0.5,3.2-1.5,4.4-2.9c0.8-1,2.9-2.3,4.3-3.1c0.7-0.4,1.7-0.1,2.4-0.2
	C599.2-216.3,598.3-216.4,597.6-216.5z M574.9-208.5c0-0.2-0.3-0.2-0.2-0.4c0-0.1,0.5-0.4,0.7-0.5c0.2,0,0.4,0,0.8,0.1
	C575.4-208.9,575.2-208.7,574.9-208.5z M584.5-210.9c-3.1,2.1-5,5.2-8.8,6.8c2.8-3,4.9-6.1,10-8.6
	C585.1-212,584.9-211.2,584.5-210.9z M586.4-214.4c0.1-0.2,0.1-0.5-0.1-0.6c0.9-0.4,1.4-0.8,2.2-1.1c0,0,0.1,0.3,0,0.5
	C587.9-215.1,587.1-214.7,586.4-214.4z M587.3-210.5c-0.5,0.2-0.9,0.3-1.6,0.4c1.1-1.3,2-1.8,3.5-1.6
	C588.1-211,588-210.8,587.3-210.5z M611.7-288.2c-3.2,2.5-4.2,4.4-3.5,7.5c-1.1-0.1-2.6,0.2-3.5,1.6c-0.5,0-1.1,0-2,0
	c3.6-2.4,3.5-3.9,4.1-5.6c0.8-1.9,1.5-3.6,2.2-5.6c-1,0.2-2.2,0.4-3.7,0.7c0.7,0.4,1.4,0.6,2,1.1c-1.5,0.7-2.4,1-3.9,1.7
	c0.1,0.9,0.3,1.7,0.3,2.8c-0.7,0-1.7,0.1-1.6-0.2c0.9-2.2,1.8-4.4,2.6-6.4c3.4-1.5,6.2-2.8,9.2-4.1c1.1-0.7,0.3-1.9,2.6-2.5
	c-0.3,1-0.4,1.9-0.6,2.9l0-0.1c-1.4,0.9-2.8,1.7-4.7,2.9c-0.3,0.6-0.7,1.6-1.1,2.5c1.8-0.2,3.5-0.4,5.5-0.7c-1,1.1-1.8,1.9-3.2,3.4
	C611.8-287,611.8-287.6,611.7-288.2z M621.2-234.5c-0.1,0.6-0.5,1.4-1.1,2.5c-3.6,1.2-6.7,2.2-10,4.9c-0.4,0.3-0.4,0.3-0.6,0.6
	c-1.9,1.2-2.1,2.7-4.5,3.9c-1.6,0.8-3.3,2.2-5.3,3.6c-0.4-1.1,1.7-3,3-3.8c3.4-1.9,4.9-4,7-6c1.5-1.4,2.5-2.4,4.7-3.5
	c2-1,4-2.8,6.1-4.3c0.2,0.1,0.3,0.1,0.5,0.2c-1.3,1.1-2.4,2.2-3.6,3.3C617.6-231.5,620-234.7,621.2-234.5z M645-368.1
	c0.3,0.6,1,0.9,0.8,1.5c-0.3,0.6-1.9,1.6-1.2,1.8c0.5,0.2,1.7,0,2.6,0c0.8-1.9,2.3-3.2,4.2-3.5c1.1-0.1,2-0.6,3.2-1.4
	c0.4-0.3,1.3-0.5,1.7-0.7c0.8-0.7,1.9-1.5,2.9-2.4c-0.6,0-1.4,0-1.5,0c-2,1.5-2.6,1.1-3.4,0.8c-1-0.2-1.7-0.7-2.7-1.1
	c-0.9,1.7-1.6,2.9-2.5,4.3C647.6-368.5,647.3-369.4,645-368.1z M652-370.3c0.2,0,0.6,0,0.7,0.1c0.1,0-0.4,0.4-0.9,0.9
	c-0.2-0.1-0.5-0.2-0.5-0.3C651.1-369.6,651.8-370.2,652-370.3z M635.4-267.3c-1.7-1.3-0.2-3.4,3.7-5.5c1.2-0.7,2.7-2,4-3
	c0.2,0.1,0.3,0.1,0.5,0C641.1-272.9,641.5-270,635.4-267.3z M597.4-306c1.1-0.1,2.3-0.3,3.3-0.3c-0.2,0.8-0.6,1.7-1.1,2.7
	c-3.6,0-4-2.2-5.4-3.7c2.5-1.7,3.8-1.8,4.9-1.7C600.6-308.5,597.5-306.9,597.4-306z M625-245.2c2.2-0.5,4.4-1.2,6.5-3
	c1.3,1.4,1.3,1.4-1.7,3.8c0-0.7,0-1.2,0-1.9c-1.4,1-2.4,1.8-3.8,2.8C625.7-244.1,625.4-244.7,625-245.2z M629.7-269.1
	c-0.9,0.5-2.4,1.2-2.9,1.1c-0.5,0-0.7-0.8-0.3-1.4c0.4-0.8,1.5-1.7,3-3.4c0.7,0.8,1.4,1.1,1.5,1.8
	C630.9-270.5,630.1-269.5,629.7-269.1z M656.1-370.1c0.4,0.3,1,0.5,1.5,0.6c-0.6,1.2-2.6,2.7-1.3,3.2c0.3,0.1-1.1,1.8-2.1,3.3
	C653.7-365.1,652.3-366.5,656.1-370.1z M621.4-238.1c-0.7-0.3-1.4-0.6-2.3-1c3.2-1,6.1-3.8,9.4-3.9
	C625.9-241.1,623.8-239.7,621.4-238.1z M603.1-275.7c0.5-1.1,1.1-2.2,1.5-3.2c0.9,1.3,0.2,3.1-1.6,5.4c-2.7,1.3-5.2,2.4-7.5,3.6
	c1.1-0.9,1.6-1.9,3.4-2.3C600.7-272.7,602.2-274.1,603.1-275.7z M613.7-262.4c-1.5-0.4-2.9-0.8-4.3-1.1c0-0.1,0.2-0.3,0.3-0.4
	c2.3-0.7,4.8-1.4,7.4-2.1C615.6-264.4,614.6-263.4,613.7-262.4z M563-308.1c-3.4,3.2-5.9,3.9-9.2,4.5
	C557.3-306.3,559.7-306.5,563-308.1z M561-371.6c-2.7,0.9-5,1.6-7.1,2.2c1.8-2.4,3.8-2.6,5.8-3.4C561.3-373.2,561.4-372.5,561-371.6
	z M618.5-241.6c-0.5-0.5-0.9-0.9-1.4-1.1c1.2-0.7,2.3-1.3,3.1-1.9c0.9-0.8,1.8-1.8,3.2-1.8C622-245,620.4-243.5,618.5-241.6z
	 M575.3-317.6c-0.2,1.1-0.2,1.8-0.5,2.8c-2.1,1.9-4.3,2-7.5,3.5c1.1-0.9,1.8-1.6,2.4-2C573.1-315.2,573-315,575.3-317.6z
	 M586.9-375.1c1.9-0.1,3.6-0.3,4.8-0.3c0.1,0.9,0.5,1.5,0.7,2.3c-0.4,0.3-0.4,0.3-0.6,0.6C590.4-373.5,588.9-374.3,586.9-375.1z
	 M609.2-256.6c-0.5,0.6-0.9,1.1-1.7,2.1c-0.2-0.7-0.3-1.1-0.2-1.6c1-0.8,2.3-1.6,2.5-2.1c0.4-0.5-0.7-0.6,1.4-1.5
	c-0.3,1.3-0.5,2.6-0.7,3.8c-0.1,0.1-0.5,0.2-0.6,0.3C609.6-255.9,609.7-256.3,609.2-256.6z M653.5-330.1c0.8-0.1,1.3,0.7,2.5-1
	c0.2,0.3,0.6,0.5,1.3,0.7c-1.3,1.1-2.3,2-3.4,2.9C652-327.9,651.9-328.2,653.5-330.1z M617.9-272c0.8-0.2,1.7-0.7,2.5-1
	c-0.1,0.2-0.1,0.5,0.1,0.6c-1.7,0.7-3.1,2.8-4.9,2.5c-0.5-0.1-0.4-0.9-0.5-1.7C616.4-271.8,616.9-271.7,617.9-272z M653.5-359.5
	c1.1,0,1.6,0.8,2.4,1.2c-0.4,0.3-0.4,0.3-0.6,0.6c-1.3-0.2-2.6-0.5-4.1-0.7c-0.5,0-1.2,0.1-1.8,0.2
	C651.2-359.8,652.6-359.6,653.5-359.5z M642-372.1c0.7-0.8,1.5-1.7,2.9-3.1c0.4,0.5,1,0.7,1.4,1.1
	C644.6-373.1,643.2-371.6,642-372.1z M655.9-362.6c1.1-0.6,2.1-1,2.9-1.4c0,0.5-0.2,1.1-0.3,1.6c-0.1,0.4-0.1,0.9-0.2,1.7
	C656.3-360.8,656.3-361.8,655.9-362.6z M635.6-369.5c1.5,0.5,2.5,0.9,3.7,1.3C635.4-366.6,635.1-366.7,635.6-369.5z M562.2-303.8
	c-0.7,0.5-1.1,0.8-1.8,1.3c-0.7-0.9,0.3-2.2,1.8-2.8c1.1-0.5,1.4,0,0.9,0.8C562.9-304.4,562.5-304,562.2-303.8z M600-283
	c0,2.6,0,2.7-2.9,3.5C598.1-280.6,598.8-281.5,600-283z M612.5-272.1c-1,1.3-1.9,2.4-2.8,3.6C609.4-270.6,609.4-270.6,612.5-272.1z
	 M609.3-275.9c-1.4,0-2.5,0-3.9,0c1.8-0.9,3.2-1.5,4.5-2.1C609.8-277.5,609.7-277,609.3-275.9z M626.7-248c1.1-0.7,2.1-1.1,4-2.2
	c-1.1,1.8-2,2.7-3.4,3C626.9-247.1,626.9-247.6,626.7-248z M539.2-363.9c-1.4,0.4-2.7,0.9-4.3,1.3c0.4-0.6,0.8-1.1,1.4-2
	C537.2-364.1,539.4-365.3,539.2-363.9z M614.4-282.4c0-0.7,0.2-1.4,0.2-2.3C616.4-284.8,616.4-284.8,614.4-282.4z M662.2-335.8
	c0.1,0.9,0.3,1.6,0.6,2.4C661.2-333.1,660.9-333.5,662.2-335.8z M616-376.1c0.1-0.3,0.1-0.4,0.2-0.8c1.6-1.3,2.6-1.5,4.4-1.3
	C618.4-377.2,617.3-376.7,616-376.1z M603.5-291.2c-1.1,1.1-2.3,2.2-3.4,3.3C600.2-289.5,601-290.3,603.5-291.2z M547.2-367.5
	c-1.7,0.7-3.3,1.3-5.8,2.3C544-367.1,545.8-367.9,547.2-367.5z M611.2-281.2c-0.9-0.9-0.9-0.9,1.5-2.9
	C612.3-283.3,611.8-282.4,611.2-281.2z M615.6-258.6c-1.1,1.1-1.9,1.8-2.8,2.7C612.2-257.4,612.2-257.4,615.6-258.6z M621.5-282.2
	c-0.2,0.1-0.2,0.1-0.2,0C621.5-282.3,621.5-282.3,621.5-282.2L621.5-282.2c1.4-1,1.4-1,2.7-0.8c-0.6,0.6-1.4,1.3-1.9,1.9
	c-0.1,0-0.4,0-0.3-0.1C621.6-281.5,621.6-281.8,621.5-282.2z M665.3-366.2c0.2,0,0.4,0,0.6,0c-0.5,0.7-1,1.4-1.8,2.3
	C662.5-364.2,664.3-365.3,665.3-366.2z M661.8-363.5c-1-0.4-1.6-0.7-2.4-0.8c1-0.5,1.9-1,3.1-1.5
	C662.2-365.1,662.1-364.6,661.8-363.5z M653.2-304.7c-0.2-0.4-0.4-1-0.8-1.4C654.8-306.7,654.8-306.7,653.2-304.7z M622.2-275.2
	c-0.6-0.3-1.2-0.6-1.7-1C623.3-277.3,623.3-277.3,622.2-275.2z M611.8-220.5c-1.4,0.4-2.4,0.7-3.3,1c0.1-0.2,0.1-0.3,0.1-0.6
	C610.1-221.1,611.3-221.8,611.8-220.5z M565.1-372.8c0.1-0.2,0-0.3-0.1-0.6c1.2-1,2.4-1.1,3.5-1.6c-0.1,0.2,0,0.3-0.1,0.5
	C567.6-374,566.4-373.4,565.1-372.8z M648.4-364.2c0.6,0.3,1.3,0.7,1.9,1c-0.4,0.2-0.6,0.6-1,0.8c-0.5-0.4-1.3-0.7-1.8-1.1
	C647.9-363.8,648.1-364,648.4-364.2z M576.4-311.1c1.2-0.7,2.4-1.4,4.5-2.6C579.3-311.9,578-311.6,576.4-311.1z M606.1-237.9
	c0.8-0.2,1.4-0.3,2.2-0.6c0,0-0.1,0.4-0.3,0.5c-0.9,0.4-1.5,0.8-2.2,1C605.6-237.2,606-237.6,606.1-237.9z M659.2-364.2
	c-0.2,0.1-0.4,0.1-0.5,0.1c-0.3-0.7-0.8-1.3,2-2.7C660.9-366.1,659.9-365.1,659.2-364.2z M595.4-265.9c-0.7,0.5-1.4,1-2.1,1.5
	c0-0.2-0.2-0.3-0.4-0.4c0.8-0.5,1.3-0.9,2.1-1.4C594.8-266.1,595-265.9,595.4-265.9z M616.2-250.9c-0.1-0.9-0.2-1.2-0.4-1.9
	C618.1-253.2,617.6-252.5,616.2-250.9z M652.5-272.1c-0.4,0.3-0.5,0.4-0.8,0.7c-0.5,0-1.1,0-1.6-0.1c0.4-0.4,0.8-0.7,0.9-0.8
	C651.8-272.4,652.1-272.3,652.5-272.1z M638.7-257.1c0.4-0.7,0.8-1.3,1.1-1.8c0.2,0,0.5-0.1,0.9-0.2c-0.4,0.7-0.8,1.2-1.2,1.9
	C639.1-257.2,638.9-257.2,638.7-257.1z M658.3-327.8c0.3,0.7,0.4,1.1,0.5,1.5C656.7-325.6,657-326.2,658.3-327.8z M596-268.2
	c1.3-0.5,2.6-1.1,4.3-1.8C598.3-268,597.2-268.5,596-268.2z M562.1-311.7c-1.1,1-1.6,1.5-2.4,2.2
	C559.3-310.3,559.3-310.3,562.1-311.7z M625.5-255.1c-0.5,0-1.3,0.2-1.8,0.2c0.2-0.2,0.3-0.4,0.4-0.6c0.4-0.1,0.9-0.3,1.1-0.2
	c0.2,0.1,0.5,0.1,0.5,0.2C625.8-255.5,625.8-255.4,625.5-255.1z M633.1-268.6c-0.1,0.1-0.4,0.3-0.7,0.5c-0.4-0.3-0.8-0.5-1.2-0.8
	c0.4-0.2,0.6-0.4,0.9-0.6C632.5-269.2,632.9-269,633.1-268.6z M624.3-232.5c-0.7,0.1-1.3,0.2-2.2,0.4
	C624-233.7,624-233.7,624.3-232.5z M626.9-240.7c0.2,0,0.5,0,0.8-0.1c-0.5,0.5-0.9,1.1-1.3,1.6c-0.4,0.1-0.5,0-0.9,0.1
	C626.1-239.7,626.6-240.3,626.9-240.7z M608-383.3c1.2-0.4,2.1-0.8,3.6-1.3C609.8-383,608.6-382.5,608-383.3z M628.8-274.4
	c-0.4,0.1-0.7,0.2-1.1,0.3c0.3-0.6,0.5-1.1,0.8-1.7c0.2,0,0.5-0.2,0.8-0.2C629.3-275.5,629-275,628.8-274.4z M649.5-373.6
	c-0.8,0-1.7,0-2.5,0c0.2-0.2,0.4-0.4,0.5-0.5c0.9-0.1,1.8-0.2,2.7-0.3C649.8-374,649.6-373.8,649.5-373.6z M629-371.4
	c-0.9,0-1.7-0.1-2.6-0.1c0.4-0.3,0.4-0.4,0.6-0.6c0.9,0.1,1.8,0.2,2.7,0.2C629.4-371.7,629.1-371.5,629-371.4z M562-300.8
	c-0.2-0.3-0.8-0.5-1.4-1C563.3-302.6,562.9-301.8,562-300.8z M592-375.7c0.1-0.4,0.3-1,0.3-1.4c1.8-0.9,1.5,0,1.3,0.6
	C593.4-376.3,592.3-375.9,592-375.7z M548.5-303c0.1,0-0.9,0.9-1.1,0.9c-0.5,0.1-0.7-0.1-1.1-0.3c0.8-0.5,1.5-1.1,1.7-1.2
	C548.3-303.5,548.4-303.2,548.5-303z M651.3-287c-0.2,0.1-0.3-0.2-0.6-0.3c0.7-0.4,1.2-0.8,1.4-0.8s0.3,0.2,0.3,0.4
	C652.1-287.5,651.7-287.2,651.3-287z M607.8-221.7c-0.1,0.2,0.1,0.3,0,0.5c-0.9,0.4-1.5,0.9-2.3,1.3c0.1-0.2-0.2-0.2-0.1-0.4
	C606.1-220.8,607-221.2,607.8-221.7z M636.1-265.5c-0.7,0.2-1.3,0.4-1.9,0.6c0.2-0.3,0.3-0.5,0.4-0.8c0.6-0.1,1.4-0.4,2-0.5
	C636.3-265.9,636.2-265.7,636.1-265.5z M649.4-284.8c1.2-0.8,2.3-1.7,2.9-0.7C651.1-285.2,650.3-284.9,649.4-284.8z M604.7-376.2
	c-0.8,0.2-1.4,0.3-2.1,0.5c0.2-0.2,0.3-0.4,0.4-0.7c0.7-0.1,1.3-0.2,2-0.4C605.2-376.7,604.7-376.2,604.7-376.2z M662.9-324.3
	c0.1-0.5-0.1-0.9-0.1-1.3c0.1-0.1,0.4-0.2,0.7-0.4c0.1,0.4,0.3,0.8,0.5,1.1C663.7-324.7,663.1-324.4,662.9-324.3z M632.2-258.5
	c0-0.3-0.2-0.4,0-0.7c0.3-0.3,0.7-0.5,0.9-0.6c0,0.2,0.2,0.3,0,0.5C633-259.1,632.7-258.9,632.2-258.5z M653.4-296.7
	c-0.4,0-0.5-0.1-0.6-0.3c0.1-0.1,0.5-0.4,0.7-0.5c0.4-0.1,0.6,0,1.4-0.1C654-297.1,653.5-296.6,653.4-296.7z M621.3-282.2
	c-1.3,0.5-2.3,1-3.2,1.3C619.3-282.2,620.3-282,621.3-282.2z M670-361.9c-0.5,0-1.1,0-1.5-0.1c0.4-0.3,0.4-0.4,0.5-0.5
	c0.5,0,1.1,0,1.4,0.2C670.2-362.2,670-362,670-361.9z M602.6-217.8c0.2,0.1,0.4,0,0.5,0c-0.5,0.5-1.1,1-1.7,1.7
	c-0.2-0.1-0.4,0-0.5,0C601.5-216.7,602.2-217.3,602.6-217.8z M608.1-264.6c0,0.2,0.2,0.3,0.3,0.5c0,0.1-0.4,0.4-1.1,1
	C607.9-264,608-264.3,608.1-264.6z M617.8-280.7c-0.4,0.6-0.9,1.2-1.3,1.9C615.3-279.5,616.7-280.1,617.8-280.7z M581.8-196
	c-0.4,0.3-0.7,0.4-1.1,0.7c0-0.2-0.2-0.3-0.2-0.4c0.4-0.2,0.9-0.5,1.3-0.7C581.8-196.5,581.8-196.1,581.8-196z M644.5-363.2
	c0.2,0,0.5,0.1,0.2,0.4c0,0.1-0.4,0.3-1,0.8c-0.1-0.3-0.2-0.4-0.2-0.7C643.9-362.9,644.4-363.2,644.5-363.2z M623.5-268.1
	c0.4,0,0.2,0.3,0.6,0.5c-0.7,0.3-1.1,0.5-1.3,0.5c-0.2-0.1-0.3-0.2-0.3-0.4C622.9-267.7,623.4-268.1,623.5-268.1z M633.9-275.7
	c-0.1,0.1-0.4,0.2-0.6,0.3c0-0.3,0-0.7-0.1-0.9c0.1-0.1,0.3-0.1,0.4-0.2C633.7-276.2,633.9-276,633.9-275.7z M611.3-243
	c-0.2,0.1-0.2-0.1-0.4,0c0.5-0.5,0.8-0.9,1.3-1.4c0.2,0.1,0.3,0.1,0.5,0.2C612.2-243.9,611.8-243.4,611.3-243z M632.5-262.9
	c0.6-0.1,1.1-0.2,1.6-0.3c-0.2,0.2-0.2,0.3-0.4,0.5c-0.6,0.1-1.1,0.2-1.6,0.3C632.3-262.6,632.5-262.9,632.5-262.9z M584.9-205.1
	c0.2-0.1,0.3,0.2,0.1,0.3c-0.4,0.3-0.8,0.5-1.4,1c-0.1-0.3,0-0.5,0-0.7C584-204.7,584.4-204.9,584.9-205.1z M549.5-302.5
	c-0.1,0.2,0.2,0.2,0.1,0.4c-0.7,0.4-1.2,0.7-2,1.2c-0.1,0,0-0.2-0.1-0.3C548.1-301.7,548.8-302.1,549.5-302.5z M591.4-261.5
	c0,0.1-0.6,0.4-0.7,0.4c-0.2-0.1-0.3-0.2-0.5-0.3c0.6-0.3,1-0.5,1.3-0.5C591.6-262.1,591.5-261.7,591.4-261.5z M613.4-277.1
	c-0.2,0.1-0.5,0.2-0.5,0.2c0.1-0.3,0-0.6,0.3-1c0.2,0,0.5-0.2,0.7-0.2C613.8-277.8,613.5-277.4,613.4-277.1z M556.6-193.5
	c0.1,0,0,0.2-0.1,0.5c-0.4,0.2-0.7,0.4-0.9,0.6c-0.1,0-0.1-0.3-0.1-0.3C555.9-193,556.3-193.2,556.6-193.5z M574.7-375.4
	c-0.1,0,0.1-0.3,0.1-0.4c0.5-0.2,1.3-0.5,1.7-0.7c0.1,0-0.1,0.3,0,0.3C575.8-375.8,575.3-375.6,574.7-375.4z M604.6-250.6
	c0.4-0.3,0.7-0.5,0.9-0.7c0.1,0,0.2,0.2,0.1,0.3c0,0.1-0.4,0.3-0.7,0.5C604.8-250.5,604.6-250.5,604.6-250.6z M569.4-305.8
	c-0.1,0.2-0.1,0.4-0.1,0.6c0,0.1-0.5,0.2-0.8,0.3c0.2-0.3,0.3-0.5,0.4-0.8C568.7-305.6,569.2-305.8,569.4-305.8z M618.9-276.1
	c-0.5,0.4-0.8,0.8-1.3,1.1c0.1-0.2,0.1-0.4,0.3-0.7C618.2-275.8,618.4-275.8,618.9-276.1z M593.5-239.9c0-0.2-0.1-0.4-0.1-0.6
	c0-0.1,0.6-0.4,0.9-0.5c-0.1,0.2-0.1,0.4,0,0.6C594.2-240.3,593.9-240.2,593.5-239.9z M616.6-281.8c0.4-0.2,1-0.5,1.3-0.7
	c0.2-0.1,0.1,0.3,0,0.7c-0.6,0.3-1.1,0.6-1.5,0.6C616.6-281.3,616.5-281.7,616.6-281.8z M597.2-374.9c0.2-0.2,0.3-0.5,0.2-0.6
	c0.5-0.2,1.1-0.3,1.6-0.5c0,0.1-0.1,0.3-0.1,0.3C598.1-375.2,597.6-375.1,597.2-374.9z M516.1-301.4c-0.4,0.5-0.6,1.2-1.2,1.6
	c-2.3,1.4-4.5,2.5-6.5,3.8c0-0.2-0.2-0.3-0.2-0.5c2-1.5,4-3.1,6-4.4C514.3-301.3,515.2-301.2,516.1-301.4z"/>
</svg>
