<?xml version="1.0" encoding="utf-8"?>
<!-- Generator: Adobe Illustrator 22.0.1, SVG Export Plug-In . SVG Version: 6.00 Build 0)  -->
<svg version="1.1" id="master-artboard" xmlns="http://www.w3.org/2000/svg" xmlns:xlink="http://www.w3.org/1999/xlink" x="0px"
	 y="0px" viewBox="0 0 700 518.7" style="enable-background:new 0 0 700 518.7;" xml:space="preserve">
<style type="text/css">
	.st0{opacity:0.3;}
	.st1{fill:#FFFFFF;}
	.st2{opacity:0.3;fill:#5A288E;}
	.st3{opacity:0.3;fill:#DA5B4D;}
	.st4{opacity:0.3;fill:#AA303E;}
	.st5{opacity:0.3;fill:#F08B3D;}
</style>
<g class="st0">
	<g>
		<g>
			<path class="st1" d="M362.4,454.9c0.3,0,0.7,0.3,0.7,0.3l-5.7,11.8c-0.6,0-2.1,0.1-2.5,0.1c-0.3,0-0.7-0.3-0.7-0.3l-1.9-11.8
				c1.2,0,2.7-0.1,3.1-0.1c0.3,0,0.7,0.3,0.7,0.3l0.6,5.8c0.1,0.5,0.1,1.2,0,1.9c0.2-0.8,0.4-1.5,0.6-2.1l2.4-5.8
				C360.7,455,362,454.9,362.4,454.9L362.4,454.9z"/>
		</g>
		<g>
			<path class="st1" d="M368.3,460.7c0,1.3-0.7,2.1-2.6,2.5l-1.9,0.4c0.2,0.8,0.7,1.2,1.5,1.2c1.1,0,1.8-0.8,1.8-0.8
				s0.5,0.3,0.5,0.9c0,1.1-1.7,2.2-3.7,2.2s-3.3-1.2-3.3-3.3c0-2.4,1.7-5.6,4.8-5.6C367.2,458.2,368.3,459.2,368.3,460.7
				L368.3,460.7z M365,461.9c0.4-0.1,0.5-0.5,0.5-0.8c0-0.4-0.1-0.9-0.5-0.9c-0.8,0-1.1,1.2-1.2,2.1L365,461.9z"/>
		</g>
		<g>
			<path class="st1" d="M373.5,458.2c1.6,0,2.7,0.8,2.7,1.9c0,1.3-1.6,1.8-1.6,1.8s-0.5-1.4-1.6-1.4c-0.7,0-1.2,0.7-1.2,2.3
				c0,1.4,0.4,2.1,1.3,2.1c1,0,1.6-0.6,1.6-0.6s0.5,0.3,0.5,0.9c0,1-1.6,2.1-3.5,2.1c-2,0-3.3-1.2-3.3-3.3
				C368.5,461.5,370.3,458.2,373.5,458.2L373.5,458.2z"/>
		</g>
		<g>
			<path class="st1" d="M381,456.3c0.4,0,0.6,0.3,0.6,0.3l-0.3,1.8h2l-0.4,1.4c-0.1,0.4-0.4,0.7-0.8,0.7h-1l-0.6,3.5
				c-0.1,0.6,0,0.8,0.4,0.8s0.7-0.2,0.7-0.2s0.5,0.3,0.5,0.9c0,0.9-1.3,1.7-2.9,1.7c-1.7,0-2.4-1-2.1-2.8l0.6-3.9h-1.1l0.5-1.4
				c0.1-0.4,0.4-0.6,0.8-0.6h0.5l0.6-1.7C379.9,456.6,380.6,456.3,381,456.3L381,456.3z"/>
		</g>
		<g>
			<path class="st1" d="M390.5,460.7c0,1.3-0.7,2.1-2.6,2.5l-1.9,0.4c0.2,0.8,0.7,1.2,1.5,1.2c1.1,0,1.8-0.8,1.8-0.8
				s0.5,0.3,0.5,0.9c0,1.1-1.7,2.2-3.7,2.2s-3.3-1.2-3.3-3.3c0-2.4,1.7-5.6,4.8-5.6C389.5,458.2,390.5,459.2,390.5,460.7
				L390.5,460.7z M387.3,461.9c0.4-0.1,0.5-0.5,0.5-0.8c0-0.4-0.1-0.9-0.5-0.9c-0.8,0-1.1,1.2-1.2,2.1L387.3,461.9z"/>
		</g>
		<g>
			<path class="st1" d="M398.4,460.7c0,1.3-0.7,2.1-2.6,2.5l-1.9,0.4c0.1,0.8,0.7,1.2,1.5,1.2c1.1,0,1.8-0.8,1.8-0.8
				s0.5,0.3,0.5,0.9c0,1.1-1.7,2.2-3.7,2.2s-3.3-1.2-3.3-3.3c0-2.4,1.7-5.6,4.8-5.6C397.3,458.2,398.4,459.2,398.4,460.7
				L398.4,460.7z M395.1,461.9c0.4-0.1,0.5-0.5,0.5-0.8c0-0.4-0.1-0.9-0.5-0.9c-0.8,0-1.1,1.2-1.2,2.1L395.1,461.9z"/>
		</g>
		<g>
			<path class="st1" d="M404.8,463.9c0,0,0.7,0.6,0.7,1.6c0,1.3-1.1,1.7-2.1,1.7c-1.3,0-2.2-0.6-3.1-0.9c-0.3,0.3-0.5,0.6-0.8,0.9
				c0,0-1.4,0-1.4-1c0-1.1,2-3.1,4.1-5.3c-0.2,0-0.5-0.1-0.7-0.1c-1.2,0-1.7,0.6-1.7,0.6s-0.6-0.7-0.6-1.6c0.1-1.2,1.3-1.6,2.2-1.6
				c1,0,1.8,0.4,2.5,0.7l0.6-0.7c0,0,1.4,0,1.4,1c0,1.1-1.9,3-3.9,5.2c0.4,0.1,0.8,0.2,1.2,0.2C404.3,464.6,404.8,463.9,404.8,463.9
				L404.8,463.9z"/>
		</g>
		<g>
			<path class="st1" d="M414,466.4c-0.5,3-2.6,4.5-5.3,4.5c-1.7,0-3-0.9-3-1.9c0-0.7,0.6-1,0.6-1s0.6,0.5,1.7,0.5s2.5-0.4,2.8-2
				l0.2-1.2c-0.7,1-1.7,1.8-2.9,1.8c-1.4,0-2-1.1-1.6-3.3l0.4-2.4c0.2-1.5,0.3-2.6,0.3-2.6c1-0.2,2.2-0.6,2.7-0.6
				c0.3,0,0.7,0.3,0.7,0.3l-0.5,3l-0.4,2.8c0,0.3,0,0.4,0.2,0.4c1.1,0,1.8-3.1,1.8-3.1c0.2-1.5,0.3-2.6,0.3-2.6
				c1-0.2,2.2-0.6,2.7-0.6c0.3,0,0.7,0.3,0.7,0.3l-0.5,3L414,466.4z"/>
		</g>
	</g>
	<g>
		<path class="st1" d="M283.2,458.7h3c0.7,0,1.2,0.1,1.6,0.2c0.5,0.1,0.9,0.4,1.2,0.7c0.3,0.4,0.6,0.8,0.8,1.3
			c0.2,0.5,0.3,1.1,0.3,1.9c0,0.7-0.1,1.2-0.3,1.7c-0.2,0.6-0.5,1.1-0.9,1.4c-0.3,0.3-0.7,0.5-1.2,0.6c-0.4,0.1-0.9,0.2-1.5,0.2
			h-3.1v-8H283.2z M284.9,460.1v5.3h1.2c0.5,0,0.8,0,1-0.1c0.3-0.1,0.5-0.2,0.7-0.3c0.2-0.2,0.3-0.4,0.4-0.8s0.2-0.8,0.2-1.5
			c0-0.6-0.1-1.1-0.2-1.4s-0.3-0.6-0.5-0.8c-0.2-0.2-0.5-0.3-0.8-0.4c-0.2-0.1-0.7-0.1-1.4-0.1L284.9,460.1L284.9,460.1z"/>
		<path class="st1" d="M294.7,464.9l1.6,0.3c-0.2,0.6-0.5,1-1,1.3c-0.4,0.3-1,0.4-1.6,0.4c-1,0-1.8-0.3-2.3-1
			c-0.4-0.5-0.6-1.2-0.6-2c0-1,0.3-1.7,0.8-2.3c0.5-0.5,1.2-0.8,2-0.8c0.9,0,1.6,0.3,2.1,0.9s0.8,1.4,0.7,2.6h-4
			c0,0.5,0.1,0.8,0.4,1.1c0.2,0.3,0.5,0.4,0.9,0.4c0.2,0,0.5-0.1,0.6-0.2C294.5,465.4,294.7,465.2,294.7,464.9z M294.8,463.3
			c0-0.4-0.1-0.8-0.4-1c-0.2-0.2-0.5-0.3-0.8-0.3s-0.6,0.1-0.9,0.4c-0.2,0.2-0.3,0.6-0.3,1h2.4V463.3z"/>
		<path class="st1" d="M296.9,465.1l1.6-0.2c0.1,0.3,0.2,0.5,0.4,0.7c0.2,0.2,0.5,0.2,0.9,0.2s0.7-0.1,0.9-0.2
			c0.1-0.1,0.2-0.2,0.2-0.4c0-0.1,0-0.2-0.1-0.3c-0.1-0.1-0.3-0.1-0.5-0.2c-1.3-0.3-2.1-0.5-2.4-0.7c-0.5-0.3-0.7-0.7-0.7-1.3
			c0-0.5,0.2-0.9,0.6-1.3c0.4-0.3,1-0.5,1.9-0.5c0.8,0,1.4,0.1,1.8,0.4s0.7,0.6,0.8,1.1l-1.5,0.3c-0.1-0.2-0.2-0.4-0.4-0.5
			c-0.2-0.1-0.4-0.2-0.8-0.2s-0.7,0.1-0.9,0.2c-0.1,0.1-0.2,0.2-0.2,0.3c0,0.1,0.1,0.2,0.2,0.3c0.1,0.1,0.6,0.2,1.5,0.4
			c0.8,0.2,1.4,0.4,1.8,0.7c0.3,0.3,0.5,0.7,0.5,1.1c0,0.5-0.2,1-0.7,1.4s-1.1,0.6-2,0.6c-0.8,0-1.5-0.2-1.9-0.5
			C297.4,466,297.1,465.6,296.9,465.1z"/>
		<path class="st1" d="M303.6,460.1v-1.4h1.6v1.4H303.6z M303.6,466.7v-5.8h1.6v5.8H303.6z"/>
		<path class="st1" d="M306.4,467.1l1.8,0.2c0,0.2,0.1,0.3,0.2,0.4c0.2,0.1,0.4,0.2,0.7,0.2c0.4,0,0.7-0.1,0.9-0.2
			c0.1-0.1,0.2-0.2,0.3-0.4c0-0.1,0.1-0.4,0.1-0.7v-0.8c-0.5,0.6-1.1,0.9-1.8,0.9c-0.8,0-1.4-0.3-1.9-1c-0.4-0.5-0.5-1.2-0.5-1.9
			c0-1,0.2-1.7,0.7-2.2s1.1-0.8,1.8-0.8c0.7,0,1.3,0.3,1.8,0.9v-0.8h1.5v5.2c0,0.7-0.1,1.2-0.2,1.5s-0.3,0.6-0.5,0.8
			c-0.2,0.2-0.5,0.3-0.8,0.5c-0.3,0.1-0.8,0.2-1.3,0.2c-1,0-1.7-0.2-2.2-0.5c-0.4-0.3-0.6-0.8-0.6-1.3
			C306.4,467.2,306.4,467.2,306.4,467.1z M307.9,463.7c0,0.6,0.1,1.1,0.4,1.4c0.2,0.3,0.5,0.4,0.9,0.4s0.7-0.1,1-0.4
			s0.4-0.7,0.4-1.3c0-0.6-0.1-1-0.4-1.3s-0.6-0.4-1-0.4s-0.7,0.1-0.9,0.4C308,462.7,307.9,463.1,307.9,463.7z"/>
		<path class="st1" d="M318.8,466.7h-1.6v-3c0-0.6,0-1-0.1-1.2s-0.2-0.3-0.3-0.4c-0.1-0.1-0.3-0.2-0.5-0.2c-0.3,0-0.5,0.1-0.7,0.2
			s-0.4,0.3-0.4,0.6c-0.1,0.2-0.1,0.7-0.1,1.3v2.6h-1.6v-5.8h1.5v0.9c0.5-0.7,1.2-1,2-1c0.3,0,0.7,0.1,1,0.2s0.5,0.3,0.7,0.5
			c0.1,0.2,0.3,0.4,0.3,0.6c0.1,0.2,0.1,0.6,0.1,1v3.7H318.8z"/>
		<path class="st1" d="M323.6,464.9l1.6,0.3c-0.2,0.6-0.5,1-1,1.3c-0.4,0.3-1,0.4-1.6,0.4c-1,0-1.8-0.3-2.3-1
			c-0.4-0.5-0.6-1.2-0.6-2c0-1,0.3-1.7,0.8-2.3c0.5-0.5,1.2-0.8,2-0.8c0.9,0,1.6,0.3,2.1,0.9s0.8,1.4,0.7,2.6h-4
			c0,0.5,0.1,0.8,0.4,1.1c0.2,0.3,0.5,0.4,0.9,0.4c0.2,0,0.5-0.1,0.6-0.2C323.4,465.4,323.5,465.2,323.6,464.9z M323.7,463.3
			c0-0.4-0.1-0.8-0.4-1c-0.2-0.2-0.5-0.3-0.8-0.3s-0.6,0.1-0.9,0.4c-0.2,0.2-0.3,0.6-0.3,1h2.4V463.3z"/>
		<path class="st1" d="M331.8,466.7h-1.5v-0.9c-0.2,0.3-0.5,0.6-0.9,0.7c-0.3,0.2-0.7,0.2-1,0.2c-0.7,0-1.3-0.3-1.8-0.8
			s-0.7-1.3-0.7-2.2c0-1,0.2-1.7,0.7-2.2s1.1-0.8,1.8-0.8c0.7,0,1.2,0.3,1.7,0.8v-2.9h1.6L331.8,466.7L331.8,466.7z M327.6,463.7
			c0,0.6,0.1,1.1,0.3,1.3c0.3,0.4,0.6,0.6,1.1,0.6c0.4,0,0.7-0.2,0.9-0.4c0.3-0.3,0.4-0.7,0.4-1.3c0-0.7-0.1-1.1-0.4-1.4
			c-0.2-0.3-0.6-0.4-0.9-0.4c-0.4,0-0.7,0.1-0.9,0.4C327.7,462.7,327.6,463.1,327.6,463.7z"/>
		<path class="st1" d="M336,466.7v-8h1.6v2.9c0.5-0.5,1.1-0.8,1.7-0.8c0.7,0,1.3,0.3,1.8,0.8s0.7,1.2,0.7,2.2s-0.2,1.8-0.7,2.3
			s-1.1,0.8-1.8,0.8c-0.3,0-0.7-0.1-1-0.2c-0.3-0.2-0.6-0.4-0.9-0.7v0.9H336V466.7z M337.6,463.7c0,0.6,0.1,1,0.3,1.3
			c0.3,0.4,0.6,0.6,1.1,0.6c0.3,0,0.6-0.1,0.9-0.4c0.2-0.3,0.4-0.7,0.4-1.4c0-0.7-0.1-1.1-0.4-1.4c-0.2-0.3-0.6-0.4-0.9-0.4
			c-0.4,0-0.7,0.1-0.9,0.4C337.7,462.7,337.6,463.1,337.6,463.7z"/>
		<path class="st1" d="M348,460.4c-0.4,0-0.7,0.2-0.9,0.5h-0.5l-1.4,4.1l-1.4-4.1h-1.7l2.3,5.8c-0.1,0.3-0.2,0.6-0.4,0.8
			c-0.2,0.2-0.4,0.3-0.8,0.3c-0.2,0-0.4,0-0.7-0.1l0.1,1.2c0.3,0.1,0.6,0.1,0.9,0.1s0.6,0,0.8-0.1c0.2-0.1,0.4-0.1,0.6-0.3
			c0.2-0.1,0.3-0.3,0.4-0.4c0.1-0.2,0.3-0.4,0.4-0.8l0.4-1l1.5-4c0.1,0,0.2,0.1,0.3,0.1C349.4,462.6,349.4,460.4,348,460.4z"/>
	</g>
</g>
<path class="st2" d="M248.6,85.2c-2.3-1.7-7-0.8-6.7-4.2c1.7,0.3,3.2,0.5,4.7,0.7c-0.7-1.7-1.3-3-1.8-4.4c-0.6-1.6-1.5-2.7-4.2-2.8
	c-1.3-0.1-2.6-0.5-3.9-0.8c-2.6-0.6-5.3-1.6-7.9-1.6c-9.1-0.2-18.2-0.2-27.4-0.2c-2.4,0-4.9-0.1-7.3,0.2c-2.1,0.2-4,0.9-3.4,3
	c0.2,0.6-0.6,1.9-1.5,2.1c-3.5,1.1-4.6,3.3-5.7,5.5c-0.3,0.7-0.6,1.6-1.4,1.9c-1,0.5-2.6,0.9-3.7,0.7c-1.4-0.2-2.1-1.2-1.3-2.4
	c0.6-0.8,1.4-1.9-1.1-2.4c-0.4,1-0.8,2-1.4,3.3c-2.3-0.7-4.4-1.3-7.4-2.3c3.2-1.2,5.4-2,7.7-2.8c-1.8-1.8-3.4-3.6-5.2-5.2
	c-0.4-0.3-1.2-0.6-1.8-0.7c-3.4-0.2-6.3-2.1-10-1.5c-1.2,0.2-2.7-0.3-4.1-0.6c-3.1-0.7-6.2-1.6-9.3-2.3c-4.1-1-8.2-2.1-12.5-2.8
	c-5.1-0.9-9.9-2.8-15.8-1.8c-3.1,0.5-7.3-0.8-8.5-3.4c-1.1-2.3-3.3-3.1-6.1-3.4c-4-0.5-8-1.1-12-1.4c-1.9-0.1-4.6,0.1-5.8,0.9
	c-1.7,1.2-6.1,1.2-4.7,4.1c0.1,0.2-0.4,0.6-0.7,0.8c-2.8,1.9-5.6,3.7-8.6,5.7c1.7,1.1,2.9,1.8,3.8,2.4c-0.8,2.4-1.5,4.5-2.2,6.6
	c-0.5,1.7-1.6,2.6-4.3,2.5c-2.6-0.1-5.1,0.1-5.4-2.5c1.3-0.5,2.6-0.9,4.5-1.6c-5.2-1.6-9.9-3-14.5-4.5c0.1-0.2,0.2-0.4,0.3-0.7
	c1.6,0.1,3.1,0.3,5.8,0.5c-3.1-1.5-5.3-2.6-7.8-3.8c-2.3,2.5-4.6,4.8-2.9,7.7c-3.5,2-6.7,3.9-9.5,5.5c-0.1,3.9,5,7,0.6,10.4
	c2.9,2.4,8.7-0.1,10.5,3.5c-3.8,0.2-4,0.3-5.6,1.6c-1.5-0.5-3-0.9-4.9-1.5c0.3,1.3,0.8,2.2,0.5,3c-0.3,0.9-1.4,1.6-2.2,2.4
	c0.8,1,1.5,1.9,2,2.6c-1.3,2.1-2.5,4-3.7,5.9c-1-0.1-2.4-0.2-3.7-0.3c-0.1,0.2-0.2,0.4-0.2,0.6c1.5,0.9,3.1,1.7,4.4,2.5
	c-1.5,1.2-3.9,2.1-3.9,3.1c0,2.3-0.4,5.3,2.5,6.7c2.5,1.2,6.4,1.8,9.4,1.5c3.4-0.4,6.7-0.1,9.2,0.9c3.2,1.3,6.3,1.2,9.5,1.5
	c2.8,0.2,5.5,0.6,8.3,1c3.5,0.5,6.9,1.5,10.3,1.5c5.5,0.1,10.3,1.3,15,3c5.6,2,11.4,4,18,1.9c0.3-0.1,0.7,0,1.1,0.1
	c0.1,0.4,0.3,0.9,0.4,1.2c5.3,0.3,10.6,0.6,16,1c0.8-1.8-0.6-2.4-2.6-2.4c-6.2,0-12.2-1-18.2-2.1c-8.1-1.5-16.4-2.7-24.6-4.1
	c-1-0.2-1.9-0.5-2.8-0.8c3.6-0.2,7-0.2,10.4,0.3c5.8,0.7,11.6,1.6,17.4,2.6c8.1,1.4,16.3,1.8,24.6,1.7c4-0.1,8,0.6,12,1.1
	c1.7,0.2,2.2,1.1,0.5,2.3c-3.6-1.1-7-1.3-9,1.3c1.9,2.2,3.5,4.2,5.3,6.3c2.1-1,3.6-2.6,6.3-1.1c0.6,0.3,2,0,3-0.1
	c4.2-0.7,8.3-0.7,12.6-0.3c3.1,0.3,6.3,0,9.4,0.1c1,0,2.5-0.1,3.1,0.3c3.5,2.5,8.3,1.5,11.1,2.3c2.3-0.8,3.7-1.3,5.2-1.8
	c-3.6-0.5-7-1.7-10.6,0.1c-0.9-0.9-1.9-1.8-3.3-3.1c-2.3,2.7-5.8-0.8-8.4,1.2c-1.8-1.9-5.2-1.6-8.2-2.9c7.7-2,14.6-0.7,21.5,0
	c7.7,0.8,15.2,2.2,22.8,3.3c2.1,0.3,4.2,0.3,6.3,0.4c1.9,0.1,2.3-0.8,2.2-1.9c0,0-0.1,0-0.1,0.1c-0.1-0.1-0.1-0.1-0.2-0.1
	c-1.2-0.1-2.5-0.3-4-0.5c2.5-0.8,2.6-0.8,4,0.5c0.1,0,0.2,0,0.3,0l0,0c2.4-1,4.6-1.9,7.6-1.8c1.8,0.1,3.5-0.7,3.2-2.3
	c-0.4-2.1,1.4-2.6,3.7-2.8c2.7-0.2,4.7-0.9,5.5-2.8c-1.1-2.5-7-2.6-6.3-6.3c4.5,0.6,8.7,1.3,14,2c-1-1.9-1.3-3.1-2.3-4
	c-1.5-1.3-3.3-2.5-5.3-3.5c-2.2-1.1-1.5-1.9-0.1-3.2c1.5,0.5,2.8,0.9,4.2,1.3c0.9-2.4,0.8-2.9-1.9-3.3c-3.4-0.5-6.8-0.5-10.4-0.8
	c-0.3-1.6-0.6-3.2-0.8-4.6c3.2-1.8,6.4-3.5,9.7-5.3c-0.6-0.7-2.4-2.3-2.3-2.4c2.4-1.5-1.1-2.7-0.2-4.2c3.5-0.3,6.9-0.6,9.9-0.9
	c2.3-1.9,1-3.4-0.5-4.8C246.1,85.7,247.1,85.5,248.6,85.2z M51.6,120.5c-0.1-0.3-0.1-0.5-0.2-0.8c2.4-0.9,2.4-0.9,6.1,0.3
	C54.9,120.2,53.2,120.4,51.6,120.5z M51.5,98.1c0.6-0.4,0.8-0.6,1-0.6c1.5,0.2,2.9,0.4,2.4,2.1C53.7,99.1,52.6,98.6,51.5,98.1z
	 M57.5,95.6c1.7,0.7,3.4,1.1,4.3,2c0.8,0.8,0.8,2.1,1.1,3.1C57.3,100.4,56.8,99.9,57.5,95.6z M58.9,119.2c3.2-1.2,4.8,0.1,7.7,1.3
	C63.1,120.9,60.9,121.4,58.9,119.2z M62.1,90.5c0.7,0.8,1.3,1.5,2.3,2.6c-5.1,0.2-8.7-0.9-12.6-2.2c2.5-2.3,5-1,7.6-0.6
	c1.9-1.3,4.1-2.7,7.5-0.9C65.3,89.7,63.8,90.1,62.1,90.5z M77.4,123c-1.2-0.2-2.5-0.3-3.7-0.5c0.1-0.2,0.2-0.5,0.3-0.7
	c1.2,0.2,2.4,0.5,3.6,0.7C77.5,122.7,77.4,122.8,77.4,123z M174.7,89.9c-0.2-0.5-0.5-0.8-0.5-1.2c0-0.1,1-0.4,1.2-0.3
	c0.4,0.2,0.6,0.6,0.9,1C175.9,89.5,175.4,89.6,174.7,89.9z M64,71c-1.3-0.3-2.7-0.7-4-1c0.1-0.2,0.2-0.4,0.3-0.5
	c1.3,0.3,2.7,0.7,4,1C64.2,70.6,64.1,70.8,64,71z M88.9,129.5c0.9,0.2,1.9,0.3,2.8,0.5c-0.1,0.3-0.2,0.6-0.3,0.8
	c-0.9-0.2-1.9-0.5-2.8-0.7C88.7,129.9,88.8,129.7,88.9,129.5z"/>
<path class="st3" d="M449.5,206.9c0.9,0.4,1.7,0.7,2.5,1c0.7,0.3,1.5,1.5,2.3,0.1c-0.9-0.6-1.9-0.9-2.4-1.6c-0.5-0.7-0.5-1.8-0.7-3
	c-2,0.6-3.1-0.1-4.4-1.5c-1.2-1.4-2.5-3.4-5-3c-0.5,0.1-1-0.4-1.6-0.6c0.2-0.2,0.4-0.4,0.6-0.6c0.8-0.1,1.5-0.2,2.7-0.3
	c-2.2-2.7-5.3-3.9-6.7-7.4c0.9,0.4,1.5,0.6,2,1c0.9,0.7,1.7,1.6,2.7,2.1c4.1,1.8,8.1,3.8,11.1,7.4c0.2,0.2,0.4,0.6,0.6,0.6
	c2.4,0.2,3.7,2.2,5.2,3.6c2.5,2.4,5.7,4.3,7,7.2c1.5,0.7,3,0.9,3.6,1.7c1.6,2.2,2.8,4.6,4.2,7.1c-1.9,0.9-4.1-0.6-5.6,1.3
	c0.9,1,1.7,2.1,2.6,3.1c0.3,0.3,0.9,0.8,1.1,0.7c1.7-0.7,1.9,0.4,2.4,1.6c0.3,0.8,1.2,1.4,1.8,2.1c0.5-0.7,0.8-1.2,1-1.5
	c-0.5-1-1-1.9-1.4-2.8c0.2-0.1,0.3-0.3,0.5-0.4c-1.3-0.4-2.6-0.8-3.9-1.1c0.8-0.7,1.4-1.3,2.2-1.9c0.5-0.3,1.2-0.7,1.6-0.5
	c1.4,0.7,3.3,1.4,3.7,2.6c0.7,1.6,1.7,2.7,2.8,3.9c0.1,0.2,0.2,0.4,0.5,0.7c0.1-0.8,0.2-1.3,0.3-1.7c1.6-0.4,2.9-0.7,4.5-1.1
	c0.1,0.8,0.2,1.7,0.3,2.5c0.6,0.1,1.2,0.3,1.9,0.4c0.2,1.3,0.2,2.2-1,2.9c-0.5,0.3-0.7,1-1,1.6h5.2c0,1.6-1.9,3.5,0.6,4.5
	c0.5-0.2,1-0.5,1.6-0.7c0.3,1.3,1,2.3-0.9,2.6c-1.4,0.2-1.6,1.2-0.9,2.3c1.2,0,2.4-0.2,3.5,0c1,0.2,1.9,0.7,2.9,1.1
	c0.9,0.4,2.4-0.3,2.8,1.6c-1.7-0.3-3.3-0.5-3.9,2.1c1.9-0.4,3.6-0.5,5-1.2c0.6-0.3,0.6-1.8,0.9-3c0.6-0.1,1.4-0.1,2-0.2
	c0.1,0.4,0.2,0.7,0.2,0.8c-1.1,2.1,0.5,3.7,0.8,5.6c0,0.2,0.5,0.5,0.6,0.5c1.4-0.6,1.5,0.5,1.6,1.3c0.2,1,0.3,2,0.4,2.9
	c1.1-0.1,2.2-0.2,3.3-0.2c0.1,0,0.2,0.4,0.4,0.8c-0.7,0.2-1.4,0.4-1.9,0.5c-0.1,2.3,0.1,2.8,1.3,2.6c1.4-0.2,2.7-0.7,4.5-1.1
	c-1.1-0.8-1.9-1.3-2.6-1.8c0-0.1,0.1-0.3,0.1-0.4c1.1,0.1,2.2,0.2,3.7,0.3c-0.2,2.6,2.6,4.7,0.6,7.6c-0.2,0.3,0.3,1.2,0.6,2.1
	c1.7-1.3,3.2-2.4,5-3.8c-1.2-0.4-2.1-0.7-3-1.1c-0.7-1.7-1.5-3.5-2.4-5.8c1.1,0.5,1.7,0.7,2.6,1.1c0.1-1.3,0.2-2.4,0.2-3.7
	c0.5,0.4,0.8,0.6,1.2,0.9c0.3-1.2-0.2-2.1-1.2-2.3c-1.4-0.4-1.3-1.5-1.4-2.5c-0.5,0-1.1,0-1.5-0.2c-1.3-0.6-1.5-2.2-0.6-3.1
	c1.6-1.4,1.7-2,0.4-3.3c-0.7-0.7-1.4-1.3-2.1-2c0.5-2.3,0.1-4.5-1.4-5.8c-2.1-1.8-2.7-4-3.1-6.5c-0.2-1.4-0.5-3-1.3-4.1
	c-1.3-1.6-1.6-2.9-0.1-4.6c-2.4-0.4-4.2-2.1-4.3-4.2c-0.1-1.4-0.6-2.3-1.5-3.3c-2.1-2.5-4-5.1-5.8-7.7c-0.9-1.3-0.7-1.6,1-1.9
	c0.3-0.9,1.1-0.7,1.8-0.6c0.1-1.8-0.2-3.5-1.7-4.9c1,0.3,1.9,0.6,2.9,0.9c0.4-0.9,0.8-1.7,1.3-2.6c0.5,0.4,0.7,0.6,1.1,0.8
	c0.3,0.2,0.5,0.3,0.9,0.4c0.6-1.9-1.1-2.1-1.8-2.9c-1.8-2.5-3.9-4.8-6.6-6.6c-1.2-0.8-1.9-2.1-2.9-3.2c-0.3-0.4-0.7-0.7-1-1
	c-0.9-0.8-1.9-1.6-2.8-2.4c-1.1-1-2.1-1.9-2.8-2.5c-0.4-1.4-0.4-2.6-1-3.4c-1-1.2-2.3-0.3-3.3,0.4c-0.7-0.5-1.3-0.8-1.8-1.2
	c-0.2-0.2-0.3-0.5-0.5-0.7c0.5-0.3,1-0.6,1.4-0.8c-0.3-1.4-0.9-1.2-2-1c-2,0.4-3-0.5-3.5-2.7c-0.4-0.1-0.7-0.1-1.1-0.2
	c0.4-1.2,0.7-2.3,1.2-3.8c-1.8,0.7-3.8-1-4.4,2.1c-2.2-1.8-4.2-3.3-6.1-4.8c-0.9-0.7-1.8-1.5-2.7-2.1c-2.5-1.5-5-2.9-7.5-4.3
	c-0.9-0.5-1.7-1.8-2.5-1.8c-2.5,0.1-4.5-1.2-6.7-1.8c-0.1,0-0.2-0.3-0.3-0.5c0.3-0.4,0.6-0.9,0.8-1.3c-1.4-2.4-3.7-0.1-5.5-1.2
	c0.1-0.8,0.1-1.6,0.2-2.6H436c0,0,0,0,0,0.1c0,0,0,0-0.1,0c-0.4,1-1,1.1-2.1,0.6c0.7-0.9,1.2-1.3,2.1-0.6l0,0l0,0
	c0-0.4-0.1-0.7-0.1-1c-1.2-0.3-3-0.3-3.3-1c-0.7-1.5-2.3-1.3-3.2-2.3c-0.3-0.3-1.1-0.5-1.5-0.3c-0.3,0.1-0.4,0.9-0.5,1.2
	c-1.6,0-2.9,0-4.3,0c-1.3,0-2.6,0.2-3.8,0.1c-1.3,0-1.8-0.7-1.4-1.9c0.2-0.5,0.5-0.9,0.7-1.4c-2-0.6-2-0.6-3.9,0.5
	c-2.7,1.6-5.3,0.5-6.2-2.3c-0.2-0.6-1.1-1.1-1.7-1.7c-1,2.1-2.9,3.2-4.5,2.7c-3.9-1.2-7.9-0.9-11.9-0.7c-0.7,0-1.4,0.3-2,0.1
	c-3-0.8-6.1-1.5-9.2,0.4c-0.1-0.8-0.1-1.3-0.3-1.7c-0.1-0.4-0.4-0.8-0.6-1.1c-1.9,0.6-0.1,1.7-0.4,2.7c-1.9-0.5-3.4-2.3-5.4-1
	c-0.2,0.6-0.3,1.2-0.6,2c-1.2-1.7-3.1-1.3-3.9-0.8c-2,1.4-3.7,2.3-6.1,1.1c-1-0.5-2.2-0.4-3.4-0.5c-1.1-0.1-2.2-0.2-3.5-0.3
	c0.1-1.2,0.3-2.2,0.4-3.5c-1.1-0.1-2.3-0.6-3.2-0.3c-3,1-6,2.3-8.9,3.5c-3,1.2-6,2.3-9,3.7c-3.2,1.5-6.4,3-9.5,4.7
	c-4.5,2.6-9,5.1-12.6,9.1c-2.2,2.4-3.8,5.5-7.1,6.9c-0.8,0.3-1.2,1.5-2,2.2c-2,1.8-2.9,5.3-6.5,5c-0.1,0-0.4,0.2-0.4,0.3
	c-1.2,2.2-3.4,3.2-5.3,4.4c-2.9,1.8-3.3,4.7-4.4,7.4c-0.2,0.5,0.4,1.4,0.8,2.1c0.3,0.5,0.9,0.9,1.4,1.4c-0.6,1.3-1.2,2.5-1.8,3.9
	c1.6,0.2,3,0.4,4.3,0.7c0.5,0.1,1.2,0.5,1.3,0.9c0.1,0.4-0.4,1.1-0.8,1.3c-2.6,1.2-4.2,3.3-5.4,6c2.3,0.9,3.2,2.9,3.9,5.1
	c1.6-0.1,3-0.3,4.4-0.4c0,0.2,0.1,0.4,0.1,0.6c-2.2,0.7-4.5,1.5-7,2.3c1.2,0.7,1.9,1.2,2.9,1.8c-2,2-4.3,3.7-3.1,7
	c3.3-0.2,6.7-0.5,10.1-0.7c0.1,0,0.2-0.1,0.3-0.1c1.3-0.2,2.7-0.6,4-0.7c4-0.3,8-0.6,12-0.5c2.5,0.1,5.1,0.6,7.4,1.6
	c2.1,0.8,4.1,1.6,6.4,1.8c0.5,0,0.9,0.1,1.4,0.2c0.1-0.1,0.1-0.2,0.3-0.2c9-2.7,18.5-4,27.9-4.8c0-0.1,0-0.1,0-0.2
	c0.5-0.2,1-0.5,1.5-0.7c3.8-1,7.5-2,11.3-3.1c1.3-0.4,2.6-0.8,3.9-1.3c1.7-0.7,3.1-2.1,5.2-0.9c0.3,0.1,0.8-0.1,1.1-0.2
	c3-0.8,6-1.7,9-2.5c1.2,1.4,2.2,2.8,3.3,4.1c1.6-0.2,3.1,0.2,4.7,0.7c1.3,0.5,2.6,0.8,3.8,1c-0.4-0.3-0.8-0.7-1.2-1.1
	c1.7-1.6,2.1-1.6,3.1,0.3c0.9-0.3,1.7-0.6,3-1c-0.3,0.9-0.6,1.6-0.9,2.1c2.1,0.1,4.1,0.2,5.9,0.9c1-1.7,3.3-1.6,4.4-3.1
	c0.5-0.6,1.3-0.9,2.1-1.4c-2.3-0.7-0.1-2.6-1.8-3.8c1.2,0.1,1.7,0.2,2.4,0.3c0.4-1.1-0.2-3.1,2.2-2.5c0,0.2,0.1,0.5,0.1,0.7
	c0.1,0.3,0.2,0.6,0.4,1.2c1.1-3.4,0.2-4.3-4.4-4.7c2-1.8,3.7-0.4,5.6,0.2c-1.1-2.6-3.6-2.9-5.4-4.2c1.5-0.3,2.7,0.1,3.9,0.9
	c1.1,0.7,2.4,1.6,3.6,1.6c1.8,0,2.7,0.7,3.3,2.3c0.3,0.8,0.4,2.1,2,1.8c0-1.4,0.6-2.4,2.2-2.4c2.4,2.4,6.8,2.4,7.9,6.2
	c1.2,0.2,2.6-0.1,3.3,0.5C445.5,202.2,448.3,203.8,449.5,206.9z M515,251.7c-0.2,0.1-0.4,0.3-0.7,0.3c-0.3,0-0.5-0.2-1.1-0.5
	c0.8-0.2,1.1-0.4,1.3-0.3C514.8,251.3,514.8,251.5,515,251.7z M514.5,248.2c-0.8,1.4-1.5,1.5-2.6,0.2
	C513,248.3,513.7,248.2,514.5,248.2z M496.3,241c-0.3-0.3-0.6-0.5-0.6-0.6c0.1-0.3,0.3-0.6,0.5-0.9c0.3,0.2,0.5,0.4,0.8,0.5
	C496.8,240.4,496.7,240.7,496.3,241z M498,191.1c0.2,0.2,0.6,0.5,0.7,0.8c0,0.2-0.3,0.5-0.7,1.1c-0.3-0.5-0.6-0.8-0.5-1
	C497.5,191.6,497.8,191.4,498,191.1z M498.7,198.8c-1.8,0.5-2-0.7-2.5-1.3c0.1-0.2,0.3-0.3,0.4-0.5C497,197.5,497.7,198,498.7,198.8
	z M496.2,193.8c0.4,0.2,0.8,0.5,1.2,0.7c-0.1,0.2-0.3,0.4-0.4,0.6c-0.4-0.3-0.8-0.6-1.1-0.9C496,194.1,496.2,193.9,496.2,193.8z
	 M497.7,234L497.7,234c0.1,0.1,0.1,0.1,0.1,0.1c0.9-0.3,1.7-0.6,2.5-0.9c2.5,2.9,2.5,5.1-0.1,7.8c-1.4-1.7-0.5-3.2,0.5-4.7
	c-1-0.7-2-1.4-3-2.1h-0.1C497.7,234.1,497.7,234,497.7,234c-0.5-0.4-1-0.8-2-1.6C497.5,232.4,497.5,233.3,497.7,234z M492,223.4
	c0.3,0.5,0.5,0.7,0.7,1c-0.2,0.1-0.5,0.4-0.6,0.4c-0.2-0.1-0.4-0.3-0.5-0.6C491.5,224,491.8,223.8,492,223.4z M476,171.4
	c0.8-0.2,1.5-0.6,2.2-0.4c1.3,0.2,3.2,2.3,3.9,3.8c-2.1-0.9-4.1-1.8-6.1-2.7V171.4z M476.2,216.5c2.8,0.9,3.1,3.3,4,5.7
	c-3.4,0.1-1.8-4.3-5.1-3.6C475.5,217.5,475.8,217,476.2,216.5z M464.7,207.3c0.8,0.5,2.2-0.2,2.5,1.5c0.2,1.1,2.6,0.9,1.6,3.3
	c-1.7-1.6-3.1-3-4.5-4.3C464.5,207.6,464.5,207.4,464.7,207.3z M460.8,204.2c0.4,0.1,0.8,0.2,1.1,0.4c0.3,0.2,0.4,0.6,0.5,0.9
	c-0.2,0.1-0.3,0.2-0.5,0.3c-0.5-0.4-0.9-0.9-1.4-1.3C460.5,204.5,460.7,204.4,460.8,204.2z M313.5,207.2c-1-0.1-2-0.2-3-0.4
	c0-0.2,0-0.3,0-0.5h3C313.7,206.6,313.7,206.9,313.5,207.2z M436.2,194.9c-0.3-0.4-0.5-0.8-0.8-1.2c0.2-0.1,0.4-0.3,0.5-0.3
	c0.3,0.3,0.6,0.7,1,1C436.7,194.6,436.5,194.8,436.2,194.9z M520.6,321.1c-1.4-0.6-3.2-0.2-4.3-1.7c-0.1-0.1-1.3,0.5-2,0.8
	c0.4,0.5,0.7,0.7,0.9,0.6c1-0.3,1.3,0.2,1.3,1c0,0.9-0.7,1.2-1.5,0.9c-0.7-0.2-1.4-0.6-2.1-1c0.9-2.9,1.9-5.6,3.4-7.9
	c0.3,0,0.5,0.1,0.8,0.1c0.2,1.1,0.5,2.2,0.7,3.4c0.8-1.9,1.6-3.6,2.4-5.7c-0.8,0.1-1.2,0.3-1.7,0.3c-0.4,0-0.9-0.1-0.9-0.1
	c0-1.5-0.1-2.7,0-3.9c0.1-1.2,0.3-2.3,0.5-3.8c-1.2,0.5-2,0.9-2.8,1.3c0.3,0.5,0.5,1,0.8,1.6c-2.9,0.4-1.4,3.5-3.5,4.5
	c1,0.4,1.5,0.6,2.1,0.8c-0.3,1.1-0.5,2-0.7,3c-0.7,2.6-1.7,2.9-4.4,1.3c0.5-1.9,1.3-3.8,1.6-5.7c0.4-2,0.4-4.2,0.7-6.5
	c2.3-1.2,2.4-1.7,1.2-3.5c-0.4-0.7-0.8-1.5-0.9-2.3c-0.2-1.3,0.1-2.6-0.1-3.9c-0.4-3.2-0.4-6.3,0.7-9.4c-1.1-0.3-2.1-0.7-3.4-1.1
	c0.1,2.9-2.1,5.5-1.1,8.5c2.5,1,2.7,1.1,2.8,3c0.2,2.1,0.3,4.3-2.7,5.2c2.3,2.9,1.4,5.7,0.5,8.5c-0.5,1.7-1.3,3.5-1.1,5.1
	c0.3,2.6-1.3,4.2-2.2,6.2c-0.1,0.3-0.9,0.4-1.5,0.7c-0.1-3.3,0.8-6.1,1.8-8.8c0.4-1,1-2.5,0.6-3.1c-0.8-1.1-0.4-1.8,0.2-2.6
	c0.6-0.8,1-1.6,0.6-2.8c-2.1,0.9-2.7,2.8-2.8,4.3c-0.1,2.9-1.3,5-3.3,6.9c-0.1,0.1,0,0.4,0,0.6c2.9,0.7,3.4,2.1,1.7,4.5
	c-0.1,0.2-0.3,0.3-0.4,0.4c-0.9,0.5-1,1.1-0.8,2.2c0.2,1-0.1,2.1-0.4,3.2c-1,3.9-1.9,7.9-3,11.8c-1.8,6.4-5.7,11.6-9.3,16.9
	c-0.2,0.3-0.9,0.4-1.3,0.5c0.6-1.6,1.6-2.8,2.4-4.1c0.8-1.3,1-2.8,0.5-4.6c-0.5,1.1-0.9,1.9-1.3,2.7c-1,1.7-1.8,3.5-2.7,5.1
	c-2.1,3.5-3.7,7.4-6.1,10.7c-4.2,5.8-8.8,11.3-13.5,16.8c-5.9,7-11.8,14-18.8,20c-1,0.9-1.3,2-1.1,3.5c0.8-0.4,1.3-0.7,1.8-1
	c8.2-4.9,14.7-11.8,21.9-17.9c1.9-1.6,3.6-3.6,5.4-5.4c1.9-1.9,3.7-3.8,5.6-5.6c1.7-1.7,3.4-3.3,5.1-4.9c2-2,4.1-3.9,6.1-6
	c1.6-1.7,3.5-3.3,4.5-5.3c1.2-2.4,3.3-4,4.8-6.1c0.5-0.7,1.6-1.1,2.5-1.4c2.4-0.7,3.8-2.4,5.2-4.6c-1.9,0.5-3.4,1-5.3,1.5
	c0-1-0.2-1.8,0-2.3c1.4-2.5,3.2-4.4,6.5-4.1c0.2-3,1.7-4.8,4.5-5.5c0-0.2-0.1-0.4-0.1-0.6c-1.4-0.2-2.7-0.5-4.5-0.8
	c0.7-1.6,1.5-2.9,2-4.3c0.4-1,0.9-1.7,2.1-1.6c1.5,0.1,2.2-0.8,3.1-2.4c-1.5,0.5-2.5,1.7-3.8,0.2c1.5-0.2,2.1-1,2.4-2.4
	c0.2-1,1.3-2,2.2-2.6c0.4-0.3,1.5,0.2,2.2,0.3C522.2,321.7,521.3,321.4,520.6,321.1z M503.7,325.3c-0.2-0.2-0.4-0.3-0.5-0.5
	c0-0.1,0.2-0.4,0.3-0.4c0.2,0,0.4,0.1,0.8,0.3C504,325,503.8,325.2,503.7,325.3z M511.5,324.7c-1.6,1.8-1.5,4.9-4.1,6
	c0.8-2.9,0.8-6.1,4.1-7.9C511.5,323.6,511.8,324.4,511.5,324.7z M511,321c-0.1-0.2-0.3-0.5-0.4-0.7c0.5-0.3,0.9-0.6,1.4-0.8
	c0,0,0.3,0.4,0.4,0.6C512,320.5,511.5,320.8,511,321z M514.5,325.8c-0.3,0.1-0.7,0.1-1.2,0.1c0.2-1.3,0.8-1.6,2.3-1.1
	C515,325.4,514.8,325.7,514.5,325.8z M487.5,239.6c-1.5,2.2-1.2,4.2,1.5,8c-1.2-0.3-2.3-0.4-2.4,1.1c-0.5-0.1-1.1-0.3-2-0.5
	c2-2,0.8-3.8,0.3-5.7c-0.5-2-0.9-3.9-1.5-6.1c-0.8,0-1.8,0-3.2,0c0.9,0.6,1.7,1,2.7,1.7c-1,0.4-1.7,0.7-2.7,1.1
	c0.7,1.1,1.3,2.1,2.1,3.3c-0.7-0.2-1.6-0.3-1.7-0.6c-0.6-2.4-1.1-4.8-1.6-6.9c2.3-1,4.2-1.8,6.3-2.7c0.7-0.5-1-2.2,0.9-2.4
	c0.4,1.1,0.8,2.2,1.3,3.3v-0.1c-0.8,0.7-1.6,1.4-2.7,2.4c0.1,0.6,0.4,1.8,0.6,2.8c1.6,0.2,3.1,0.3,4.9,0.5c-0.3,1.1-0.5,1.9-0.9,3.3
	C488.3,241,487.8,240.3,487.5,239.6z M531.8,305.2c0.2,0.7,0.4,1.6,0.6,2.7c-2.6,0.6-5.1,1.1-6.5,3.5c-0.1,0.2-0.2,0.3-0.3,0.5
	c-1,1-0.3,2.7-1.9,3.6c-1.1,0.6-1.8,1.9-2.8,3.1c-1.1-1.4-0.3-3.2,0.5-3.8c2.1-1.4,2.2-3.6,2.9-5.5c0.5-1.3,0.8-2.3,2.2-3.1
	c1.3-0.8,2.1-2.4,3.1-3.7c0.2,0.1,0.4,0.2,0.6,0.3c-0.5,1-0.9,2-1.4,3.1C530.2,307.9,530.5,304.7,531.8,305.2z M467.5,152.8
	c0.7,0.7,1.6,1.3,1.8,1.9c0.1,0.6-0.8,1.4,0,1.9c0.7,0.4,1.6,0.4,2.5,0.6c-0.5-2,0.2-3.2,1.8-3.1c1,0.1,1.6-0.2,2.2-0.9
	c0.2-0.3,0.8-0.3,1.2-0.4c0.4-0.7,0.8-1.3,1.3-2.2c-0.6-0.1-1.4-0.4-1.5-0.3c-0.9,1.4-1.8,0.7-2.8,0.2c-1.1-0.5-2.1-1.2-3.4-1.9
	c0.2,1.7,0.3,3.1,0.4,4.5C470,153,469,151.8,467.5,152.8z M473,151.9c0.2,0,0.6,0.1,0.7,0.3c0.1,0.1-0.1,0.4-0.3,0.8
	c-0.3-0.2-0.6-0.3-0.7-0.5C472.5,152.4,472.8,151.9,473,151.9z M524.1,269.7c-2.5-1.9-2.4-4,0-5.6c0.8-0.6,1.3-1.7,2-2.6
	c0.2,0.1,0.4,0.2,0.5,0.2C526,264.4,528.3,268,524.1,269.7z M461.8,215.3c1,0.1,2,0.2,3,0.4c0.3,1,0.5,1.8,0.8,2.9
	c-3.5-0.8-5.3-3.5-7.7-5.6c1.3-1.4,2.5-1.3,3.7-0.8C463.3,213,461.3,214.2,461.8,215.3z M528.5,293.4c1.8-0.1,3.4-0.4,4.4-2.1
	c2.3,2,2.3,2,0.7,4.1c-0.5-0.8-0.8-1.4-1.3-2.2c-0.7,0.9-1.2,1.6-1.9,2.4C529.8,294.9,529.2,294.2,528.5,293.4z M517.3,266.3
	c-0.5,0.4-1.5,0.8-2.1,0.6c-0.5-0.2-1.2-1.1-1.2-1.7c-0.1-0.8,0.4-1.7,0.7-3.3c1.2,1.1,2,1.7,2.6,2.5
	C517.7,264.9,517.7,266,517.3,266.3z M477,153c0.6,0.4,1.3,0.8,1.8,1.1c0.2,1.3-0.7,2.6,0.9,3.5c0.4,0.2,0.1,1.9,0.1,3.4
	C478,158.4,475.8,156.4,477,153z M529.6,301.1c-0.9-0.5-1.7-1-2.9-1.7c2.5-0.4,3.5-3.1,6.7-2.5C532,298.5,531,299.7,529.6,301.1z
	 M487.2,252.4c-0.2-1.2-0.4-2.4-0.6-3.5c1.7,1.7,2.2,3.7,2,6c-1.8,0.9-3.4,1.7-5,2.5c0.5-0.8,0.3-1.9,1.8-2
	C486.8,255.3,487.5,254.1,487.2,252.4z M506.2,270.6c-1.7-0.8-3.3-1.6-4.9-2.3c0-0.1,0-0.3,0-0.4c1.8-0.3,3.7-0.5,5.8-0.8
	C506.8,268.6,506.5,269.6,506.2,270.6z M427,204.9c-1.2,3-3.2,3.3-6,3.2C422.5,205.7,424.8,206,427,204.9z M383.7,129.5
	c-2.1,0.4-3.8,0.7-5.5,1c0.1-2.5,2-2.3,3.4-2.7C382.8,127.5,383.2,128.4,383.7,129.5z M524.5,296.3c-0.9-0.8-1.5-1.3-2-1.7
	c0.7-0.6,1.4-1,1.8-1.6c0.4-0.8,0.6-1.7,2-1.4C525.8,293,525.1,294.5,524.5,296.3z M432.8,196.5c0.5,1.3,0.9,2.1,1.3,3.2
	c-0.8,1.7-2.9,1.4-5,2.4c0.5-0.8,0.7-1.5,1.1-1.8C432.2,198.9,432.2,199,432.8,196.5z M406.5,131.2c1.8,0.3,3.2,0.5,4.5,0.7
	c0.7,1,1.5,1.9,2.2,2.9c-0.1,0.2-0.2,0.3-0.3,0.5C410.8,133.9,409,132.7,406.5,131.2z M505.8,276.4c-0.1,0.6-0.2,1.1-0.4,2.1
	c-0.6-0.9-1-1.4-1.3-2c0.5-0.7,1.1-1.3,1.1-1.9c0-0.5-1-0.9,0.3-1.5c0.6,1.5,1.2,3,1.8,4.4c-0.1,0.1-0.3,0.1-0.4,0.2
	C506.5,277.3,506.2,276.9,505.8,276.4z M500.8,199.7c0.7,0.1,1.7,1.1,1.8-0.6c0.5,0.4,1,0.7,1.6,1.1c-0.5,1-1,1.8-1.4,2.6
	C500.7,202,500.3,201.6,500.8,199.7z M504,260.2c0.6-0.1,1.2-0.4,1.8-0.6c0.1,0.2,0.3,0.5,0.4,0.7c-1.2,0.4-1.3,2.5-3.1,1.9
	c-0.6-0.2-0.9-1.2-1.5-2.1C502.8,260.1,503.3,260.3,504,260.2z M481.5,164.9c1.1,0.3,2,1.3,3.1,2c-0.1,0.2-0.2,0.3-0.3,0.5
	c-1.5-0.6-2.9-1.2-4.4-1.8c-0.5-0.2-1.1-0.2-1.6-0.2C479.2,164,480.5,164.6,481.5,164.9z M462,147.4c0.2-0.8,0.4-1.7,0.8-3
	c0.8,0.7,1.4,1.1,2,1.6C464,146.9,463.7,148.3,462,147.4z M481.8,161.8c0.7-0.4,1.3-0.7,1.9-1c0.3,0.6,0.5,1.2,0.8,1.8
	c0.2,0.5,0.4,1,0.8,1.9C483.3,164.1,482.8,162.9,481.8,161.8z M457.5,149c1.8,1,3,1.6,4.5,2.4C459.2,152.4,458.8,152.2,457.5,149z
	 M429,209.8c-0.3,0.4-0.6,0.7-0.9,1.1c-1.2-1.2-1.2-2.5,0-2.9c0.7-0.3,1.4,0.3,1.3,1.1C429.3,209.3,429.2,209.6,429,209.8z
	 M479.5,243.1c1.8,3.1,1.8,3.2-0.5,3.4C479.2,245.5,479.2,244.6,479.5,243.1z M498.8,258.8c-0.1,1.3-0.2,2.4-0.4,3.6
	C496.8,259.9,496.8,259.9,498.8,258.8z M493,253.6c-1.4-0.4-2.4-0.6-3.8-0.9c1.2-0.6,2.1-1,3-1.4C492.5,251.8,492.8,252.4,493,253.6
	z M528.3,290.6c0.7-0.5,1.3-0.9,2.4-1.7c0.1,1.9-0.1,2.8-1.4,2.8C529,291.7,528.8,291,528.3,290.6z M367.3,133.5
	c-1.1,0.2-2.1,0.4-3.3,0.6c0-0.6,0.1-1.1,0.1-2C365.3,132.8,366.7,131.9,367.3,133.5z M493.8,247.1c-0.4-0.8-0.8-1.6-1.3-2.6
	C494.3,244.7,494.3,244.7,493.8,247.1z M505.5,195c0.7,1,1.4,2,2.2,3C506.2,198,505.7,197.3,505.5,195z M434.2,136.7
	c-0.1-0.3-0.2-0.5-0.3-0.8c0.6-1.2,1.5-1.2,3.4-0.5C435.8,136,435,136.3,434.2,136.7z M477.5,234.2c-0.4,1.1-0.8,2.1-1.2,3.1
	C475.3,235.5,475.7,234.6,477.5,234.2z M372.8,131.1c-1.2,0.4-2.4,0.8-4.1,1.4C370,130.8,371.2,130.3,372.8,131.1z M491.5,247.7
	c-1.5-1.3-1.5-1.3-0.4-3C491.2,245.5,491.3,246.4,491.5,247.7z M510.5,275.4c-0.4,1.1-0.7,1.7-1,2.5
	C508,276.1,508,276.1,510.5,275.4z M500.8,248.9c-0.1,0-0.1,0-0.2,0C500.8,248.9,500.8,248.9,500.8,248.9L500.8,248.9
	c0.7-0.9,0.7-0.9,2.1-0.3c-0.2,0.6-0.4,1.2-0.7,1.8c-0.1-0.1-0.3-0.1-0.4-0.2C501.5,249.8,501.2,249.4,500.8,248.9z M488.7,159.8
	c0.2,0,0.4,0.1,0.6,0.1c-0.1,0.7-0.1,1.4-0.2,2.3C487.2,161.4,488.2,160.6,488.7,159.8z M487,162.2c-1.3-0.7-2-1.1-2.8-1.5
	c0.6-0.4,1.2-0.7,2-1.1C486.3,160.3,486.5,160.9,487,162.2z M517,229.7c-0.5-0.6-1-1.2-1.7-1.9C517.2,227.7,517.2,227.7,517,229.7z
	 M506.2,257.4c-0.8-0.5-1.5-1-2.3-1.5C505.8,255.2,505.8,255.2,506.2,257.4z M531.8,319.6c-1.1,0.2-1.9,0.3-2.6,0.4
	c-0.1-0.2-0.1-0.4-0.2-0.7C529.8,318.6,530.5,318,531.8,319.6z M386.8,128.9c-0.1-0.2-0.2-0.4-0.4-0.7c0.5-0.9,1.6-0.8,2.4-1.1
	c0.1,0.2,0.2,0.4,0.3,0.5C388.5,128.1,387.7,128.5,386.8,128.9z M473.5,158.2c0.8,0.5,1.7,1.1,2.5,1.6c-0.2,0.2-0.3,0.5-0.5,0.7
	c-0.8-0.6-1.6-1.1-2.5-1.7C473.2,158.6,473.3,158.4,473.5,158.2z M438.2,204.4c0.7-0.6,1.4-1.1,2.7-2.1
	C440.5,204.2,439.2,204.2,438.2,204.4z M514.8,297.8c0.6-0.1,1.1-0.1,1.7-0.2c0,0,0.2,0.5,0.1,0.5c-0.5,0.3-1,0.5-1.5,0.7
	C514.8,298.5,514.8,298.1,514.8,297.8z M484,160.7c-0.1,0-0.3,0-0.4,0c-0.7-0.9-1.6-1.7,0.2-2.7C484.5,158.9,484.2,159.8,484,160.7z
	 M486,262.2c-0.3,0.4-0.7,0.9-1,1.3c-0.2-0.2-0.5-0.4-0.7-0.6c0.4-0.4,0.7-0.8,1.1-1.2C485.5,261.8,485.8,262.1,486,262.2z
	 M516.2,284.7c-0.7-1-1-1.5-1.6-2.3C516.5,282.4,516.5,283.1,516.2,284.7z M537.6,268c-0.1,0.2-0.2,0.4-0.3,0.6
	c-0.5-0.2-1-0.3-1.6-0.5c0.1-0.3,0.3-0.6,0.4-0.8C536.8,267.5,537.1,267.7,537.6,268z M534,282.5c0-0.7-0.1-1.3-0.1-1.9
	c0.2,0,0.4,0,0.7,0c0,0.7,0,1.3,0,2C534.3,282.5,534.1,282.5,534,282.5z M506.8,203.5c0.7,0.9,1.1,1.4,1.5,1.9
	C506.8,205.7,506.7,205.1,506.8,203.5z M485.2,259.6c0.9-0.3,1.8-0.7,3-1.1C487.5,260.4,486.2,259.6,485.2,259.6z M423.8,200.4
	c-0.4,0.9-0.6,1.5-0.9,2.1C422,201.5,422,201.5,423.8,200.4z M522.5,281.8c-0.5-0.1-1.1-0.1-1.6-0.2c0-0.2,0-0.4,0-0.6
	c0.3,0,0.7-0.1,1,0c0.2,0.1,0.5,0.3,0.7,0.4C522.6,281.5,522.6,281.6,522.5,281.8z M521.1,267.6c-0.1,0.1-0.2,0.3-0.3,0.4
	c-0.6-0.4-1.1-0.8-1.7-1.2c0.2-0.2,0.3-0.3,0.5-0.5C520.1,266.8,520.6,267.2,521.1,267.6z M536,308.3c-0.6,0-1.2,0-1.8,0
	C535,306.9,535,306.9,536,308.3z M533.3,299.2c0.2,0,0.5,0.1,0.7,0.1c-0.1,0.5-0.2,1.1-0.2,1.6c-0.3,0-0.5-0.1-0.8-0.1
	C533.1,300.2,533.2,299.7,533.3,299.2z M421.7,126.4c0.9-0.2,1.6-0.4,2.6-0.7C423.5,127.1,422.8,127.5,421.7,126.4z M513.2,259.8
	c-0.3,0-0.5,0.1-0.8,0.1c-0.1-0.6-0.2-1.2-0.3-1.8c0.2,0,0.4-0.1,0.6-0.1C512.8,258.6,513,259.2,513.2,259.8z M468.3,147.4
	c-0.8-0.2-1.6-0.4-2.4-0.6c0-0.2,0.1-0.3,0.1-0.5c0.8,0.1,1.6,0.2,2.4,0.3C468.5,146.9,468.3,147.2,468.3,147.4z M449.8,145.3
	c-0.9-0.2-1.8-0.5-2.7-0.7c0.1-0.2,0.1-0.4,0.2-0.6c0.9,0.3,1.9,0.6,2.8,0.8C450,145,450,145.1,449.8,145.3z M430.8,213.3
	c-0.5-0.4-1.1-0.8-2-1.5C431,211.5,431,212.3,430.8,213.3z M411,131.7c-0.2-0.5-0.4-1.1-0.6-1.6c1.2-0.6,1.5,0.3,1.6,1
	C412,131.3,411.2,131.5,411,131.7z M416.2,207.6c0.1,0.1-0.3,0.8-0.5,0.8c-0.4,0-0.7-0.3-1.3-0.6c0.4-0.5,0.7-1,0.8-1
	C415.8,207,416,207.3,416.2,207.6z M526.8,250.2c-0.1,0-0.4-0.3-0.8-0.5c0.4-0.3,0.6-0.6,0.9-0.6c0.2,0,0.4,0.3,0.6,0.5
	C527.2,249.7,527,250,526.8,250.2z M527,317.3c0.1,0.2,0.3,0.4,0.4,0.6c-0.5,0.3-0.9,0.7-1.4,1c-0.1-0.2-0.3-0.3-0.4-0.5
	C526.1,318,526.6,317.7,527,317.3z M526,272c-0.5,0.1-1,0.2-1.5,0.3c0-0.3-0.1-0.5-0.1-0.8c0.5,0,1-0.1,1.5-0.1
	C526,271.6,526,271.8,526,272z M526.5,252.3c0.6-0.6,1.2-1.5,2.4-0.2C527.8,252.2,527.1,252.3,526.5,252.3z M423.2,134
	c-0.6,0.1-1.1,0.1-1.7,0.1c0-0.2,0-0.4,0-0.7c0.6,0,1.1,0,1.7,0C423.2,133.5,423.2,134,423.2,134z M513.7,208.7
	c-0.3-0.5-0.7-1-1-1.6c0.1-0.1,0.2-0.2,0.4-0.3c0.4,0.5,0.8,1,1.2,1.4C514,208.4,513.8,208.6,513.7,208.7z M526.8,279.4
	c-0.2-0.4-0.5-0.6-0.5-0.8c0-0.2,0.3-0.4,0.5-0.5c0.2,0.2,0.4,0.4,0.4,0.6C527.2,278.9,527,279.1,526.8,279.4z M522.5,239.1
	c-0.3-0.1-0.5-0.3-0.8-0.5c0.1-0.1,0.2-0.4,0.3-0.4c0.3,0,0.6,0.1,1.2,0.2C522.8,238.8,522.5,239.2,522.5,239.1z M500.7,248.9
	c-0.8,0.3-1.6,0.6-2.3,0.8C498.8,248.5,499.8,248.9,500.7,248.9z M496,165.9c-0.5-0.1-1-0.3-1.5-0.4c0.1-0.2,0.1-0.3,0.2-0.5
	c0.5,0.2,1,0.3,1.5,0.5C496,165.6,496,165.8,496,165.9z M524.6,320.7c0.2,0.1,0.3,0.1,0.5,0.2c-0.2,0.5-0.4,1-0.6,1.6
	c-0.2-0.1-0.3-0.1-0.5-0.2C524.2,321.8,524.5,321.2,524.6,320.7z M499.3,266.6c0.2,0.2,0.5,0.4,0.6,0.6c0,0.1-0.1,0.3-0.4,0.9
	C499.5,267.3,499.5,267,499.3,266.6z M498.2,249.9c0,0.6-0.1,1.2-0.1,1.9C496.7,250.8,497.5,250.4,498.2,249.9z M518.5,341.7
	c-0.1,0.2-0.4,0.3-0.7,0.5c-0.2-0.2-0.4-0.4-0.5-0.6c0.3-0.2,0.5-0.4,0.9-0.5C518.2,341.1,518.5,341.5,518.5,341.7z M470.3,158.5
	c0.2,0,0.5,0.3,0.5,0.5c0,0.1-0.2,0.3-0.5,0.7c-0.3-0.4-0.5-0.6-0.6-0.9C470,158.7,470.2,158.5,470.3,158.5z M512,266.1
	c0.3,0.1,0.5,0.4,1,0.7c-0.5,0.2-0.7,0.3-0.9,0.3c-0.2-0.1-0.4-0.3-0.6-0.5C511.8,266.4,512,266.1,512,266.1z M517.2,259.5
	c-0.1,0.1-0.3,0.2-0.4,0.2c-0.2-0.4-0.5-0.8-0.7-1.1c0.1-0.1,0.2-0.1,0.3-0.2C516.7,258.8,517,259.1,517.2,259.5z M516.5,292.9
	c-0.1,0-0.2-0.1-0.4-0.1c0.1-0.5,0.2-0.9,0.3-1.4c0.2,0.1,0.4,0.2,0.6,0.3C516.8,292.1,516.8,292.5,516.5,292.9z M524.2,274.3
	c0.5,0,0.9,0,1.4,0c0,0.2,0,0.3,0,0.5c-0.5,0-0.9,0-1.4,0C524.2,274.6,524.2,274.3,524.2,274.3z M515.7,331.6c0.1,0,0.4,0.3,0.3,0.4
	c-0.2,0.3-0.4,0.5-0.7,0.9c-0.3-0.4-0.4-0.6-0.5-0.8C515,331.9,515.3,331.7,515.7,331.6z M417.5,208.4c0.1,0.2,0.3,0.3,0.4,0.5
	c-0.4,0.3-0.8,0.6-1.2,0.9c-0.1-0.1-0.2-0.2-0.3-0.4C416.8,209.1,417.2,208.7,417.5,208.4z M485,266.5c0,0.1-0.3,0.3-0.4,0.3
	c-0.2-0.1-0.4-0.3-0.7-0.5c0.4-0.2,0.6-0.4,0.8-0.3C485,265.9,485,266.3,485,266.5z M496.5,253.2c-0.1,0-0.4,0.1-0.4,0.1
	c-0.1-0.4-0.3-0.7-0.4-1.1c0.2,0,0.3-0.1,0.5-0.1C496.2,252.4,496.3,252.8,496.5,253.2z M495.8,338.9c0.1,0.1,0.2,0.3,0.3,0.5
	c-0.2,0.2-0.4,0.3-0.6,0.5c-0.1-0.1-0.3-0.4-0.3-0.4C495.3,339.3,495.5,339.1,495.8,338.9z M394.5,128c-0.1-0.1-0.1-0.3-0.2-0.5
	c0.4-0.1,0.8-0.3,1.2-0.4c0.1,0.1,0.1,0.3,0.2,0.4C395.2,127.8,394.8,127.9,394.5,128z M505,282.4c0.1-0.2,0.3-0.4,0.4-0.6
	c0.1,0.1,0.3,0.3,0.3,0.4s-0.2,0.3-0.3,0.4C505.3,282.6,505.2,282.5,505,282.4z M434.8,209.1c0.1,0.2,0.2,0.5,0.2,0.7
	c0,0.1-0.3,0.1-0.6,0.2c0-0.3-0.1-0.5-0.1-0.8C434.2,209.2,434.5,209.1,434.8,209.1z M502.5,255.6c-0.2,0.4-0.3,0.7-0.5,1
	c-0.1-0.2-0.2-0.5-0.2-0.8C501.8,255.8,502,255.8,502.5,255.6z M501.3,292.5c-0.2-0.3-0.4-0.5-0.4-0.7c0-0.1,0.3-0.3,0.5-0.4
	c0.1,0.2,0.2,0.5,0.3,0.7C501.8,292.2,501.5,292.3,501.3,292.5z M496.3,248.3c0.2-0.2,0.6-0.4,0.9-0.5c0.1,0,0.3,0.4,0.5,0.8
	c-0.4,0.2-0.7,0.4-1.1,0.4C496.7,248.9,496.3,248.4,496.3,248.3z M416.7,133.9c0-0.2-0.1-0.5-0.1-0.7c0.4-0.1,0.8-0.1,1.2-0.2
	c0,0.1,0.1,0.3,0.1,0.4C417.3,133.6,417,133.7,416.7,133.9z M385.8,202.1c0,0.5,0.2,1.3-0.1,1.6c-1.3,1.1-2.7,2-4,3
	c-0.2-0.2-0.4-0.4-0.5-0.7c0.9-1.3,1.8-2.7,2.9-3.8C384.2,201.8,385,202.1,385.8,202.1z"/>
<path class="st4" d="M185,384.2C185,384.2,185,384.2,185,384.2C185,384.2,185,384.2,185,384.2L185,384.2z M190.1,400.9
	c0.4,1.4-0.7,1.8-1.6,2.3c-0.3-0.4-0.6-0.9-1.1-1.6c-0.6,1.4,0,2.6,0,3.7c0,1.2,0.3,2.4,0.5,3.5c-0.6-0.1-1.2-0.4-1.5-0.2
	c-0.4,0.2-0.6,0.7-1.2,0.4c-0.3-0.5,1.1-1.3-0.2-1.7c-1,1-0.8,2.2-0.3,3.3c0.4,1.1,0.5,2.2-0.2,3.3c-0.2,0.2-0.1,0.6-0.2,0.9
	c-0.1,0.4-0.2,0.9-0.2,1.3c0,0.4,0.1,0.8,0.2,1.4c-0.5-0.2-0.9-0.3-1.4-0.4c-0.4,0.6-0.8,1.1-1.3,1.8c-0.2-0.4-0.3-0.8-0.4-1.2
	c-0.2,0-0.4-0.2-0.5-0.1c-1.1,0.4-2.4,0.4-3.1,1.7c-0.1,0.2-0.6,0.4-0.9,0.4c-0.4,0.1-0.8,0-1.2,0v0h0c-0.2-1.1-0.2-1.1-1.3-1
	c0.1,0.8,0.7,0.9,1.3,1v0h0c0,0.2,0,0.4,0,0.6c-0.5,0-1.1,0-1.5-0.2c-0.4-0.2-0.8-0.5-0.9-0.9c-0.3-0.7-0.4-1.5-0.6-2.3
	c-0.7,0-0.8,0.4-0.7,0.9c0.2,0.9,0.2,1.8,0.7,2.6c0.6,1.1,0.1,1.9-0.6,2.7c-0.4,0.6-0.9,1.1-1.4,1.9c-0.9,0.2-2.1,0.2-2.5,2
	c-0.5-0.7-1-1.2-1.3-1.7c-1.2-2.2-2.1-4.5-2.8-7c-0.6-2-1.2-4-2.2-5.9c-0.8-1.6-1-3.4-1.5-5.2c-0.5-1.9-0.9-3.8-1.5-5.7
	c-0.3-1.1-0.9-2.2-1.3-3.3c-0.7,0.1-1.4,0.3-2.2,0.4c-0.4-0.7-0.7-1.5-0.4-2.4c0.3,0.6,0.5,1.2,0.8,1.8c0.7-0.1,0.7-0.6,0.6-1
	c-0.2-0.8-0.4-1.6-0.4-2.4c0-0.3,0.2-0.7,0.2-1c0.1-0.2,0.3-0.6,0.2-0.7c-0.9-0.9-0.1-1.7,0.2-2.3c0.5-0.9,0.5-1.6,0.2-2.5
	c0.5,0.3,1,0.7,1.5,1.1c0.4-0.6,0.4-1.3,0.3-2c-0.2-1.3-0.2-2.6,0.2-3.9c0.4-1.1,0.1-2.1-0.4-3.1c-0.6-1-1.1-2.1-1.6-3.1
	c-0.6-1.2-1.3-2.3-1.8-3.5c-0.4-0.8-0.6-1.7-0.8-2.5c-0.6-2.1-1.7-4-1.6-6.4c0.5,0,1.1,0,1.7,0c0.8-2.6,1.5-5,0.4-7.8
	c-0.8-0.2-1.1-1.1-1.1-2c-0.3-3.4-1.7-6.4-2.4-9.7c-0.1-0.4-0.2-0.7-0.2-1.1c0-0.2,0-0.6-0.1-0.6c-0.9-0.2-0.8-1.3-1.4-1.8
	c-1.1-0.9-1.1-2.3-1.4-3.6c-0.4-2.2-0.9-4.4-2.1-6.6c-0.4,0.4-0.7,0.8-0.5,1.4c0.1,0.3,0.2,0.6,0.3,0.9c0.9,2.2,0.9,4.5,1.3,6.9
	c-0.7-0.1-1.4-0.2-2.1-0.4c0-0.1,0-0.3,0.1-0.3c1.3-1,1.3-1,0.8-2.6c-0.6-1.9-1.1-3.7-1.6-5.7c-0.1-0.4,0.2-0.9,0.4-1.3
	c-0.5-0.5-1.1-0.5-1.7-0.3c-0.7,0.2-1,0-1.2-0.9c1.7-0.4,3-1.3,3.9-2.8c-0.1,1.1,0.4,1.6,1.1,2.3c0.6,0.7,0.7,1.8,1.1,2.7
	c0.2,0.6,0.4,1.2,0.8,1.7c0.2,0.3,0.6,0.4,1.1,0.6c-0.4-2.1-1.4-4-1.1-6.2c0.2,0.1,0.5,0.2,0.7,0.3c1.1,0.3,2,0.7,2.2,2.1
	c0.1,0.6,0.6,1.1,1.1,1.6c-0.1-0.5-0.2-1-0.3-1.7c1.4,0.5,1,2.4,2.5,2.6c-0.7-2.1-1.5-3.6-2.6-4.7c-0.2-0.1-0.4-0.3-0.4-0.5
	c0-1.1-0.5-2.2,0.4-3.3c0.9,1.7,0.5,4,2.7,4.6c0.5,1.5,1.1,3.1,1.6,4.6c0.7-0.2,1.2-0.4,1.9-0.5c-0.8-0.5-0.5-1.8-1.7-1.9
	c-0.3-1.1-0.6-2.3-0.9-3.5c0,0,0,0,0,0v0c0.8,0.1,1.5,0.3,1.9,1.1c0.4-0.1,0.8-0.2,1.2-0.4c-0.7-0.8-1.6-1.5-1.4-2.8
	c-0.4,0.1-0.8,0.2-0.8,0.2c0.1,0.8-0.7,1.2-0.9,1.8h0v0c-0.4,0-0.9,0.1-1.5,0.1c-0.3-0.9-0.7-1.7-0.9-2.6c-0.2-0.9,0-1.1,1-1.1
	c0.2,0,0.3,0,0.5,0c1.2-0.1,1.2-0.1,1.5-1.3c0.2,0.1,0.4,0.2,0.5,0.4c0.2,0.1,0.3,0.3,0.4,0.5c0.4-0.4,0.7-0.9,1.1-1.3
	c0.4,0.6,0.7,1,1,1.5c0.2-0.2,0.4-0.4,0.6-0.7c0.2,0.4,0.5,0.8,0.8,1.2c-0.4,0-0.7,0-1.4,0c0.3,0.4,0.5,0.8,0.7,0.8
	c0.8,0.1,1.1,0.5,1.3,1.2c0.2,0.5,0.6,0.9,0.9,1.3c0.2,0.3,0.3,0.7,0.4,1.1c-0.1,0-0.2,0.1-0.3,0.2c-0.6-0.8-1.2-1.6-1.7-2.3
	c-0.9-0.2-1.6-0.3-2.4-0.4c0.9,1.2,2.2,1.8,2.8,3.2c-0.4,0.2-0.9-0.5-1.1,0.2c0,0.1-0.6,0.1-0.9,0c-0.5,0-1,0-0.8,0.6
	c0.1,0.3,0.8,0.8,0.9,0.8c0.7-0.6,1,0,1.2,0.4c0.3,0.5,0.4,1.1-0.2,1.5c-0.1,0.1-0.2,0.2-0.3,0.4c0.4,0.9,0.8,1.7,1.3,2.7
	c-1,0-1.6,0.4-1.7,1.4c0.4,0.3,0.9,0.3,1.3,0c1.6-1.4,2-1.6,4-1.6c0-0.3,0-0.6,0-1c0.4,0,0.9-0.2,1.1,0.5c0.1,0.4,0.4,0.7,0.6,1.1
	c0.1,0,0.3,0,0.4-0.1c0.1-0.6,0.2-1.2,0.2-1.8c0.8,0,0.9,0.1,0.8,0.8c-0.3,1.3-0.4,2.4,0.8,3.3c0.4,0.3,0.6,1.2,0.8,1.9
	c0.2,0.7,0.5,1.3,1.6,1.3c-0.2-2.2-1.1-4-2.4-5.6c0.3-0.8,0.9-0.2,1.3-0.2c0.6-1-0.5-0.9-1-1.4c1.3-0.2,2.3-1.5,3.8-0.7
	c0.1-0.2,0.2-0.4,0.4-0.5c0.7-0.8,1.1-0.7,1.5,0.2c0.2,0.5,0.3,1,0.4,1.5c-1.1,1.3-2-0.2-3.2-0.3c0.2,1,0.3,1.8,0.4,2.8
	c-0.9,1.1-0.9,2.2,0.3,3.9c1-0.5,0.5-1.6,1.2-2.4c-0.5-0.1-0.8-0.2-0.9-0.2c0.1-0.8,0.3-1.6,0.4-2.6c0.7,1.4,0.6,3.1,2,3.5
	c0.3,1.1,0.6,2.1,0.9,3.1c0,0.1,0.4,0.1,0.8,0.2c0.3-1.3-1.1-2.4-0.4-3.8c0.9,1.4,0.7,3.4,2.3,4.3c-0.7,1.5-1.3-0.2-1.9,0
	c-0.6,0.7-0.6,0.7-0.3,3.8c-0.4-0.4-0.8-0.7-1.2-1c-0.1,0.1-0.2,0.2-0.3,0.2c0.4,2.4,1.9,4.4,2.9,6.6c0.8-0.5,0.7-1.8,1.9-1.7
	c0.2,2.7,0.4,5.5,0.7,8.1c0.1,1.2-0.8,1.6-1.6,2.2c0.4,0.6,1.9,0,1.5,1.4c-0.3,0-0.6,0-1-0.1c-1.2,1,0.7,2.4-0.3,3.3
	c0.8,0.5,1.6,1,2.4,1.5c0.7,0.5,1,1.2,0.2,2c0.9,0.3,1.8,0.6,1.8,1.7c-0.2,0.1-0.4,0.2-0.7,0.4c0.2,0.3,0.4,0.6,0.5,0.9
	c-0.2,0.3-0.3,0.6-0.5,0.9c0.1,0.2,0.2,0.3,0.2,0.4c0.7,0.9,1.4,1.7,2.2,2.5l0.1-0.1c0,0,0,0.1,0.1,0.1c0,0-0.1,0-0.1-0.1
	c-0.2,0.3-0.4,0.6-0.4,0.9c0,0.5-0.3,0.6-0.6,0.8c-0.7,0.7-0.9,1.9-0.3,2.6c0.8,0.9,1,1.8,1.1,2.8c0,0.1,0.1,0.1,0.2,0.2
	c0.1,0.1,0.2,0.3,0.2,0.4c0,1.1,0.6,1.9,1.9,2c-1.3,1.1-2.1,2.4-1.7,3.8c0.3,1.2,0.2,2.9,2.2,3.2c-0.7,0.9,1.5,1.6-0.1,2.6
	c1.9,0.4,0.4,2.1,1.1,2.9c-0.2-0.3-0.5-0.7-0.8-1c-0.1,0-0.2,0.1-0.3,0.1c0.2,1,0.4,2.1,0.7,3.1c1.5-0.2,2-1.3,2.4-2.4
	c0.6,0.3,0.8,0.8,0.8,1.5C190.9,400.6,190.5,400.8,190.1,400.9z M149.9,330.9c0.4,0.8,0.6,1.3,0.9,1.9
	C150.8,331.5,150.8,331.5,149.9,330.9z M152.4,342.7c0-0.6-0.1-1.1-0.6-1.5c-0.1,0-0.2,0.1-0.4,0.1c0.2,0.5,0.3,1.1,0.4,1.6
	C152.1,342.8,152.2,342.7,152.4,342.7z M157.3,396.8c0-0.2-0.2-0.4-0.4-0.4c-0.1,0-0.4,0.2-0.4,0.4c0,0.2,0.2,0.3,0.4,0.6
	C157.1,397.1,157.3,396.8,157.3,396.8z M157.3,394.8c-0.2-0.2-0.3-0.3-0.4-0.4c0,0-0.3,0.2-0.3,0.2c0,0.2,0.2,0.3,0.3,0.4
	C156.9,395.1,157.1,394.9,157.3,394.8z M161.1,339.6c-0.2,0-0.3,0.1-0.5,0.1c0,0.5,0,1.1,0,1.7c0.4,0,0.8,0,1.5,0.1
	C161.7,340.8,161.4,340.2,161.1,339.6z M160.1,338.1c0.2,0.2,0.3,0.4,0.5,0.6c0.1-0.1,0.2-0.2,0.3-0.3c-0.2-0.2-0.4-0.3-0.6-0.5
	C160.2,337.9,160.2,338,160.1,338.1z M158.5,334.2c0.1,1,0.3,1.4,1.5,1C159.3,334.8,159,334.6,158.5,334.2z M155.2,355.2
	c-0.4-1-0.4-1-1.4,0.1C154.4,355.2,154.8,355.2,155.2,355.2z M155.6,344.2c-0.4-1.1-0.7-2.2-1.1-3.2c0-0.2-0.3-0.2-0.5-0.3v0l0,0
	c0.2-0.7,0-1.2-0.4-1.6c-0.1,0-0.2,0.1-0.3,0.1c0.2,0.5,0.5,1,0.7,1.5v0l0,0C153.8,342.7,154.1,343.6,155.6,344.2z M156.7,344
	c0.9,0,1.7,0,2.6,0c-0.1-1.5-0.7-2.9-1.7-4.1c-1-1.1-1-2.8-2.5-3.7c-0.1,0.9-0.1,1.7-0.2,2.4c0.8,0.5,1.5,1,2.4,1.6
	c-0.7,0.3-1.1,0.5-1.6,0.7C156,342,156.4,343.1,156.7,344z M161.5,354.3c0-2.7-0.8-5.3-1.3-7.9c-0.1-0.6-0.5-1.1-0.8-1.6
	c-0.9,0.7-1.5,1.1-2.3,1.7c-0.2,1.2,0.9,1.8,1.3,2.9c-0.5,0.2-0.9,0.3-1.4,0.4c0.2,0.6,0.3,1.1,0.4,1.6c0.4-0.1,0.7-0.1,1.1-0.2
	c0.3,0.5,0.5,1.2,0.8,1.2c0.7,0.1,0.7,0.6,0.9,1.1C160.4,354,160.6,354.6,161.5,354.3z M162.1,343c-0.1,0-0.2-0.1-0.2-0.1
	c-0.1,0.3-0.3,0.6-0.4,0.8c0.1,0,0.2,0.1,0.3,0.1C161.9,343.6,162,343.3,162.1,343z M164.1,340.6c0-0.1-0.2-0.2-0.3-0.3
	c-0.1,0.1-0.3,0.2-0.3,0.3c0,0.1,0.2,0.2,0.3,0.4C164,340.8,164.1,340.7,164.1,340.6z M165.3,339.7c0.1,0.7,0.2,1.3,0.2,2
	c0.2,0,0.3,0,0.5-0.1C166.5,340.8,165.9,340.3,165.3,339.7z M168.9,349.2c-0.4-1.1-0.9-2-1.2-3c-0.3-0.9-0.5-1.9-0.8-2.8
	c-0.6,1.8,0.4,5.9,1.3,7C168.5,349.9,168.7,349.5,168.9,349.2z M170.9,336.2c-0.1-0.5-0.2-0.9-0.4-1.4
	C169.8,335.9,169.8,336,170.9,336.2z M171.2,417.8c0-0.2-0.2-0.3-0.3-0.5c-0.1,0.1-0.3,0.2-0.3,0.3c0,0.2,0.2,0.3,0.3,0.6
	C171.1,418,171.3,417.9,171.2,417.8z M172.1,413.2c-0.5-0.3-0.9-0.5-1.5-0.9c0.3,1.1,0.4,1.8,0.7,2.6c0.1,0,0.2,0,0.3,0
	C171.7,414.4,171.9,413.9,172.1,413.2z M174.8,416.2c-0.1,0-0.2-0.1-0.2-0.1c-0.1,0.2-0.2,0.4-0.3,0.7c0.1,0,0.2,0.1,0.2,0.1
	C174.5,416.6,174.7,416.4,174.8,416.2z M181.7,411.4c0,0.2,0.1,0.3,0.3,0.7c0.2-0.3,0.4-0.4,0.4-0.6c0-0.1-0.2-0.3-0.3-0.4
	C181.9,411.1,181.7,411.3,181.7,411.4z M183.5,414.9c0-0.4-0.3-0.7-0.5-1.1c-0.6,0.5-0.6,0.5-1.3,2.6c0.5,0,1.2,0.3,1.4,0.1
	C183.4,416.1,183.5,415.5,183.5,414.9z M185.4,405c-0.2,0.7-0.5,1.2-0.7,1.7c0.4,0.4,0.9,0.8,1.3,1.1
	C186.1,405.6,186.1,405.6,185.4,405z M156.5,388L156.5,388L156.5,388L156.5,388z M149.1,347.4c-0.6-1.6-1.1-3.3-1.6-5
	c-0.4,0.7-0.7,1.3-1.1,1.9c0.3,0.2,0.6,0.4,1.1,0.8c-0.5,0.2-0.8,0.4-1,0.5c0.7,1.2,1.3,2.1,1.9,3.1c-0.3,0.6-0.9,1.4,0,2.1
	c0.1-0.2,0.1-0.4,0.2-0.5C149.3,349.3,149.5,348.4,149.1,347.4z M148.4,350.7C148.4,350.7,148.4,350.7,148.4,350.7L148.4,350.7
	C148.4,350.7,148.4,350.7,148.4,350.7z M144.6,337.8c-0.3-1.1-0.4-2.2-0.8-3.3c-0.4-1.2-0.4-2.6-1.5-3.5c-0.5,0.5-0.6,1.1-0.3,1.7
	c0.2,0.4,0.3,0.9,0.4,1.3c0.6,1.7,1.2,3.3,1.9,5.1C145,338.7,144.7,338.3,144.6,337.8z M157.5,400.1c-0.6,0.2-1.1,0.4-1.5,0.5
	c0.2,1.3,1.1,2,2.4,2.6C158,402.1,157.7,401.2,157.5,400.1z M153,392.5c-0.1,0.2,0.3,0.6,0.5,1c1.6-1.5,0-2.6-0.3-3.7
	C153.1,390.7,153.5,391.6,153,392.5z M163.2,332.7c0.2-0.9,0.3-1.7,0-2.4c-0.5,0.2-1,0.3-1.6,0.5C161.8,331.6,162,332.5,163.2,332.7
	z M182.5,339c-0.4-0.7-0.9-1.5-1.3-2.2c-0.3,0.6-0.6,1.3-0.9,1.9C181.1,338.9,181.9,339,182.5,339z M181.2,336.8L181.2,336.8
	L181.2,336.8L181.2,336.8z M183.5,364.7c0.3,0.9,0.6,1.9,0.9,2.8C184.8,366.4,184.4,365.5,183.5,364.7z M150.1,364.9
	c0.5-0.4,1.1-0.7,1.6-1.1C150.4,363.7,150.4,363.7,150.1,364.9z M181.2,336.8L181.2,336.8L181.2,336.8L181.2,336.8z M181.2,336.8
	c-1.2,0.1-1.3-0.8-1.5-1.6c-0.2,0.8-0.3,1.5,0.3,2.1C180.4,337.1,180.8,337,181.2,336.8z M162.2,423.8c0.2-0.5,0.4-0.9,0.6-1.5
	C161.6,422.7,161.6,422.7,162.2,423.8z M189.4,390.7c-0.7,0-1.2,0.1-1.8,0.1C188.3,391.5,188.3,391.5,189.4,390.7z M181.4,335.2
	c-0.3-0.5-0.5-1-0.8-1.5C180.5,335,180.5,335,181.4,335.2z M183.3,362.5c0.7-0.6,0.5-1.2,0-1.8C183.3,361.4,183.3,362,183.3,362.5z
	 M161.2,421.2c0.4-0.5,0.7-0.9,0.2-1.4C160.8,420.2,160.9,420.6,161.2,421.2z M178.4,339.2c0.3,0.4,0.5,0.8,0.7,1.1
	C179.1,339.7,179.5,339,178.4,339.2z M182,343.7c0.4-0.1,0.7-0.1,1.3-0.2c-0.7-0.6-1.1-0.2-1.4-0.1C182,343.4,182,343.6,182,343.7z
	 M160.4,333.1c-0.2,0.8,0.2,0.9,1.1,1c-0.4-0.4-0.5-0.6-0.6-0.7C160.7,333.3,160.6,333.2,160.4,333.1z M156.8,386.2
	c-0.1,0-0.2,0-0.4,0c0,0.6,0,1.2,0,1.8C156.7,387.4,157.1,386.9,156.8,386.2z M156.5,388L156.5,388L156.5,388L156.5,388z M190,398.1
	c-0.1,0.3-0.2,0.5-0.3,0.9c0.4,0,0.6,0,0.8,0c-0.1-0.3-0.2-0.6-0.2-0.9C190.2,398.1,190.1,398.1,190,398.1z M190.5,399
	C190.5,399,190.5,399,190.5,399L190.5,399C190.5,399,190.6,399,190.5,399C190.5,399,190.5,399,190.5,399z M148.4,350.8
	c0.2,0.6,0.4,1.1,1,1.7C149.2,351.5,149.2,351.4,148.4,350.8z M148.4,350.7C148.4,350.8,148.4,350.8,148.4,350.7
	C148.4,350.8,148.4,350.7,148.4,350.7C148.4,350.7,148.4,350.7,148.4,350.7z M180.9,341.6c0,0.1,0.3,0.2,0.5,0.4
	c0.1-0.3,0.2-0.4,0.2-0.6c0-0.2-0.2-0.2-0.4-0.4C181.1,341.3,180.9,341.5,180.9,341.6z M189,395.8c0.3,0.1,0.6,0.2,0.9,0.2
	c0-0.1,0.1-0.3,0.1-0.4c-0.3,0-0.6-0.1-0.9-0.1C189,395.6,189,395.7,189,395.8z M184.6,334C184.6,333.9,184.6,333.9,184.6,334
	C184.6,333.9,184.6,333.9,184.6,334C184.6,334,184.6,334,184.6,334C184.6,334,184.6,333.9,184.6,334L184.6,334z M184.6,333.9
	c0.3-0.4,0.5-0.9,0.9-1.4C184.6,332.7,184.5,333.3,184.6,333.9z M164,327.9c-0.1-0.1-0.3-0.3-0.4-0.3c-0.1,0-0.3,0.2-0.3,0.4
	c0,0.2,0.1,0.4,0.3,0.9C163.9,328.2,164.1,328,164,327.9z M177.8,333.1c0,0,0.2-0.1,0.4-0.3c-0.2-0.2-0.4-0.3-0.5-0.3
	c0,0-0.2,0.2-0.2,0.3C177.6,332.9,177.7,333,177.8,333.1z M179.9,343c0.1,0,0.2,0,0.3-0.1c-0.1-0.2-0.1-0.5-0.2-0.7
	c-0.1,0-0.2,0-0.2,0.1C179.8,342.5,179.8,342.8,179.9,343z M158.1,405c0,0.1,0.2,0.2,0.2,0.3c0-0.1,0.1-0.2,0.2-0.3
	c-0.1-0.1-0.2-0.2-0.3-0.2C158.2,404.8,158.1,404.9,158.1,405z M183.5,344.6c0.2-0.2,0.4-0.4,0.6-0.6c-0.1-0.1-0.1-0.1-0.2-0.2
	c-0.2,0.2-0.4,0.4-0.7,0.5C183.3,344.4,183.4,344.5,183.5,344.6z M186.2,415.6c0,0.1-0.1,0.3-0.1,0.4c0,0.2,0.1,0.3,0.2,0.5
	c0.1,0,0.2,0,0.3-0.1c-0.1-0.3-0.1-0.5-0.2-0.8C186.4,415.6,186.3,415.6,186.2,415.6z M149.9,356.3c0,0-0.2,0.1-0.2,0.2
	c0,0.1,0.1,0.2,0.2,0.4c0.1-0.2,0.2-0.3,0.3-0.4C150.1,356.4,150,356.3,149.9,356.3z M185.7,383.4c-0.2,0.3-0.4,0.5-0.6,0.7
	C185.7,384.1,185.7,384.1,185.7,383.4z M185,384.2C185,384.2,185,384.2,185,384.2C185,384.2,185,384.2,185,384.2
	C185,384.2,185,384.2,185,384.2z M185.6,370.4c0,0,0.2,0,0.2-0.1c-0.1-0.2-0.2-0.4-0.3-0.6c-0.1,0-0.2,0.1-0.2,0.1
	C185.4,370,185.5,370.2,185.6,370.4z M183,331.9c-0.2,0.2-0.3,0.2-0.3,0.3c0.1,0.2,0.2,0.4,0.3,0.6C183,332.5,183,332.3,183,331.9z
	 M184.6,334c-0.6,0-0.7,0.3-0.5,0.9C184.2,334.6,184.4,334.3,184.6,334z M184.9,350.6c0-0.1-0.1-0.2-0.1-0.2c-0.1,0-0.3,0.1-0.3,0.2
	c0,0.1,0.1,0.2,0.2,0.4C184.8,350.8,184.9,350.7,184.9,350.6z M187.3,383.9c-0.1,0-0.1-0.2-0.2-0.2c-0.1,0-0.1,0.1-0.2,0.2
	c0.1,0,0.1,0.1,0.2,0.2C187.2,384,187.3,383.9,187.3,383.9z M185.7,377.2c-0.2-0.1-0.4-0.2-0.5-0.3c0.1,0.2,0.2,0.3,0.3,0.5
	C185.5,377.3,185.6,377.3,185.7,377.2z M156.6,342c0.1,0.2,0.2,0.4,0.3,0.6c0.1,0,0.2-0.2,0.2-0.2c-0.1-0.2-0.2-0.4-0.3-0.5
	C156.7,341.8,156.7,341.9,156.6,342z"/>
<path class="st5" d="M381.6,384.6c-0.5-0.8,0.7-1.4,2.5-1.6c2.7-0.3,4.6,0.1,6.3,1.1c1.9,1.2,4.8,1.5,6.9,0.8c0.6-0.2,1.3-0.6,1.2-1
	c0-0.3-0.8-0.7-1.4-0.9c-0.5-0.2-1.4,0-2.1-0.1c-3.6-0.3-5.1-1.6-4-3.2c0.3-0.5,0.4-1,0.6-1.7c-5,0.1-9.6,0.2-14.1,0.3
	c-1.6,0-2.8,0-2.9-0.9c3-1.5,6.7-1.7,10.9-1.5c3.2,0.2,6.3,0.3,8.6,1.5c1.4,0.8,3.3,0.8,5.2,0.3c-0.7-0.1-1.2-0.4-0.5-0.7
	c0.7-0.4,1.5-0.7,2.2-1.1c-0.5-0.1-0.8-0.4-0.3-0.7c0.2-0.1,0.4-0.2,0.6-0.3c-0.5-0.1-0.9-0.2-1.3-0.4c-0.6-0.2-0.6-0.6,0-0.8
	c0.4-0.1,0.8-0.2,1.1-0.3c-2-0.2-4-0.5-5.9-0.8v-0.7c2-0.3,3.9-0.5,7-0.9c-3.8-0.9-6.5-1.9-9.6-2.2c-3-0.3-6.3,0.1-9.5,0.1
	c-0.2-0.1-0.4-0.3-0.5-0.4c2.1-1.1,4.2-2.2,6.6-3.4c-1.2-0.1-2.1-0.3-2.7-0.2c-2.7,0.4-5.1,0.3-7.7-0.2c-0.9-0.2-2-0.1-3.1-0.1
	c-0.4,0-0.8,0.3-1.1,0.4c0.5,0.7,0.9,1.3,1.6,2.4c-3-0.3-5.1-0.8-7.2-0.8c-2.4,0-4.7,0.5-7.1,0.7c-1.9,1.6-1.9,1.6-5.6,2.1
	c-4,0.6-8.2,1-12,1.7c-3.5,0.7-6.7,0.7-10.2,0.2c-1.4-0.2-3.3-0.5-4.5-0.2c-4.4,0.9-8.5,0.7-12.3-0.2c-4.5,1.1-8.6,2.1-12.9,3
	c-1.2,0.2-3-0.1-4.4-0.4c-6.1-1.1-12.6-0.8-18.8-1.2c-0.7,0-1.5,0.5-2.3,0.5c-1.3,0-3.1,0.1-3.9-0.2c-3.5-1.4-6.8-3-10.2-4.5
	c-1.6-0.7-2.9-1.6-4.7-2.3c-1.6-0.6-5.1-0.4-5.8,0.2c-1.1,1,0.1,1.7,1.8,2.2c2.9,0.9,5.9,1.7,8.9,2.5c1,0.3,2.1,0.6,2.8,1
	c3.8,2.4,8.4,4.5,13.3,6.4c2.2,0.9,1.9,1.7-0.9,2.1c-6.1,0.9-11.9,2.7-18.8,1.4c-0.6-0.1-1.5,0-2,0.2c-1.5,0.4-1.8,0.9-0.5,1.5
	c2,0.5,4.3-1.3,6.3,0.3c-0.6,0.8-1.2,1.7-1.9,2.9c-1.7-0.3-2.8-0.5-4.8-0.9c2.7,2.4,1,3.7-2.6,4.9c-2.7,0.9-5.5,1.9-7.4,3.7
	c5.2-0.6,8.9,0,12.3,1.4c1,0.4,3,0.6,4.3,0.5c3.8-0.3,7.6-0.8,11.4-1.1c2-0.2,4.1-0.1,6.2-0.4c3.4-0.3,5.9,0.6,8.8,1.4
	c0.5-0.5,0.9-0.9,1.1-1.2c0.2-0.4,0.2-0.9,0.4-1.6c7.1,1.4,13.9,2.5,21.2,1.5c0.9,0.7,1.6,1.3,2.7,2.3c1.5-2.4,4.9-3.2,9.2-3.4
	c1.2-0.1,2.6-0.3,3.3-0.7c3.9-2,9-1.4,13.5-1.7c0.8,0.6,1.3,1,2,1.6c7.3-2.4,14.7-2.8,22.4-0.8c1,0.3,2.4,0.3,3.6,0.4
	c8.2,0.3,16.5,0.5,24.7,0.7c0.2,0,0.5-0.2,0.9-0.4c-1.5-2.2-8.1-0.8-9.4-2.5c-2.7,0-4.7,0.1-6.7,0c-2.1-0.1-4.1-0.4-6.1-0.7
	c-2-0.2-4-0.4-6.8-0.7c0.7-1.1,0.7-2.4,1.9-2.7c2.8-0.8,4.5,0.6,6.4,1.4c5.2-1.4,10.1-0.6,14.8,0.3c3.7,0.7,6.5,0.2,8.4-1.4
	c-4.9-0.4-9.8-0.8-14.7-1.2C383.3,385.6,381.8,385,381.6,384.6z M280.6,375.9c-0.6,0.1-1.3-0.2-2.4-0.3c1.6-0.6,2.1-0.8,2.6-1
	c0.4,0.2,1.1,0.5,1.1,0.7C281.8,375.5,281.2,375.8,280.6,375.9z"/>
<path class="st2" d="M654.2,357.5c0.9-2.1,0.9-2.1-0.8-3.4c-1-0.8-2.1-1.6-3.2-2.4c1.3,0,2.5,0,4.1,0c-0.8-0.7-1.1-1.2-1.5-1.4
	c-2-0.9-4-2-6.1-2.5c-3.4-0.7-6.9-1-10.4-1.5c-0.9-0.1-1.7-0.3-2.6-0.5c6-1.1,11.8,1.5,17.5,0.3c-1-3.7-4-3.8-6.8-4.4
	c-1.4-0.3-2.8-0.3-4.1-0.6c-1-0.2-2.1-0.6-3-1.1c-1.2-0.6-2.3-0.9-3.7-0.5c-1,0.3-2.2,0.4-3.2,0.5c-0.1,0-0.3-0.1-0.4-0.2
	c0.5-0.2,0.9-0.4,1.4-0.5c-0.6-0.6-1.2-0.8-1.8-0.8c-6.3-0.1-12.6,0-18.8,0.9c-1,0.1-2.1,0.5-3.4-0.6c9-3.1,18-2.1,26.9-2.8
	c-7.9-2.2-16.1-1.4-24.1-1.7c1-0.3,2-0.7,3.1-1c-1.3-0.4-2.5-0.5-3.7-0.3c-3.1,0.4-6.2,0.8-9.3,1.2c-5.1,0.7-10.1,2-14.6,4.6
	c-1.3,0.7-2.6,1.6-3.9,2.4c0.4,0.4,0.7,0.4,0.9,0.3c3-1.3,5.9-2.7,8.9-3.9c1.1-0.5,2.4-1.2,3.9,0c-0.4,1.1-0.7,2.3-1.2,3.6
	c-0.9-0.3-1.5-0.5-2.1-0.6c-0.9-0.1-2-0.4-2.7,0c-2.8,1.4-6,2.4-8.1,5.1c-0.9,1.2-2,2.1-3.6,2.4c-0.7,0.1-1.4,0.6-1.8,1.2
	c-1,1.5-1.8,3.2-1.8,5.1c0,1-0.3,2-0.6,2.9c-0.4,1.1-1.1,2.2-1.4,3.3c-0.6,2.2-1.8,4-3.3,5.7c-0.8,1-1.3,2.4-1.6,3.7
	c-0.7,2.5-1.2,5-1.9,7.5c-0.7,2.2-1.3,4.4-1,6.8c0.1,0.9-0.1,1.8-0.3,2.7c-2.3,7.7-3.6,15.7-3.4,23.7c0.2,7.4,0.3,14.8,1.9,22
	c0.2,0.7,0.5,1.4-0.7,2c-0.8-3.4-1.6-6.7-2.6-10.4c0.1-0.3,0.7-1.2,0.4-1.8c-0.8-2.1-0.3-4.2-0.3-6.3c0-3.1-0.1-6.3,0-9.4
	c0.1-4.1,0.5-8.1,0.7-12.2c0-0.6-0.3-1.2-0.4-1.8c-0.2,0-0.5,0-0.7,0c-0.3,0.8-0.7,1.6-0.8,2.5c-0.7,6.2-1.5,12.5-1.8,18.7
	c-0.5,10.6,0.8,21,4.5,31c0.6,1.5,0.7,3.2,1,4.8c0.3,1.3,0.5,2.6,0.9,3.7c1.8,4.7,3.7,9.4,5.4,14.2c2.5,6.8,6.2,13,10.3,18.9
	c1.5,2.1,3.3,4,5.3,5.6c6.2,5.2,13.5,8.7,20.8,12.1c1,0.5,2,0.8,3.3,0.1c-0.8-0.7-1.5-1.2-2.7-2.2c1.3-0.2,2.1-0.5,2.8-0.4
	c2.2,0.3,4.4,0.7,6.6,1c0.9,0.1,1.8,0.1,2.7,0.1c0.2,0,0.4-0.3,0.7-0.4c-0.5-0.8-1-1.4-1.5-2.2c2.4-1.8,5.5-0.6,7.7-2.1
	c2.3-1.6,5.5-0.1,7.7-2.4c-1.7-1.5-3.8-0.7-5.6-1.4c0.2-0.2,0.2-0.3,0.3-0.3c4.2,0.6,5.6-3.2,8.3-5c0.2-0.2,0.4-0.7,0.3-1
	c-0.3-1.5,0.7-1.9,1.8-2.2c-0.4-0.8-0.8-1.5-1.2-2.3c0.8-0.5,1.5-0.8,2.8-1.5c-1.3-0.2-2.1-0.4-2.9-0.4c-8.8,0.2-16.7-3.1-24.4-6.9
	c-0.7-0.3-1.2-0.8-1.8-1.2c-1-0.6-2-1.3-3-1.9c-3.5-2-6.8-4.4-8.9-7.7c-2-3.1-3-6.9-4.4-10.4c-0.2-0.4,0.1-1.1,0.1-1.8
	c0.5,0.3,0.7,0.4,0.7,0.5c0.2,0.4,0.4,0.8,0.7,1.2c2.6,4.7,5.4,9.3,9.6,12.7c1.6,1.3,3.3,2.3,5.1,3.3c3.6,2.1,7.9,3.1,11.2,5.9
	c0.3,0.2,0.8,0.2,1.4,0.4c-0.1-2.4-2.8-2.4-3.5-4.3c2.3,0.4,4.3,1.1,6.4,1.2c2,0.1,4.2,1.3,6.2-0.3c-0.7-0.4-1.5-0.5-2.2-0.7
	c-2.4-0.8-5-0.8-7.4-1.6c-5.4-1.9-10.3-4.8-15.3-7.6c-1-0.6-2-1.4-2.6-2.4c-2-3.6-4.8-6.8-5.4-11.1c-0.3-1.8-1.2-2.1-3.1-2
	c-1.3,0.1-1.7-0.7-1.8-1.6c-0.1-1,0.4-1.6,1.5-1.5c0.2,0,0.5-0.1,1.1-0.3c-0.3-1.8-0.2-3.7-0.9-5.4c-1.3-3.6-1.2-7.7-4.3-10.4
	c0.2-1.2,0.5-2.3,0.5-3.4c0-2.3-0.4-4.6-0.4-6.9c0.1-4.3,0.3-8.7,0.5-13c0.1-2.4,0.2-4.8,0.6-7.2c0.5-3.1,1.2-6.1,2-9.1
	c0.5-1.9,1.4-3.8,2.2-5.6c1.2-3,2.4-6,3.7-8.9c0.4-0.9,1.4-1.8,2.3-2.2c2.2-0.8,4.6-1.3,6.9-1.8c2.7-0.5,5.3-0.9,7.1-3.2
	c1.2-1.5,2.7-2.1,4.6-2c0.5,0,1-0.2,1.5-0.4c0-0.2-0.1-0.4-0.1-0.7c-2,0.1-4,0.2-5.9,0.4c-4,0.3-7.7,1.7-11.5,2.8
	c-3.3,1-6.5,2.2-9.2,4.4c-1.3,1.1-2.6,2.8-3,4.5c-0.9,3.7-1.4,7.4-2.3,11.1c-1.2,4.7-1.7,9.6-2.5,14.4c-0.2,1-0.1,2.2-0.6,3
	c-1.7,2.5-1.4,5.3-1.5,8c-0.2,3.9-1,7.7,0,11.6c0.7,2.7,1.2,5.4,1.8,8.1c0.2,0.8,0.3,1.7,0.4,2.5c-0.2,0.1-0.4,0.1-0.6,0.2
	c-0.4-0.9-1-1.7-1.3-2.6c-0.6-2.1-1.2-4.3-1.3-6.5c-0.3-5.2-0.5-10.5-0.6-15.8c0-6.7,0.8-13.2,1.9-19.8c0.6-3.3,2.2-6.5,1.6-10
	c0-0.2,0.1-0.4,0.1-0.5c0.7-3.3,1.5-6.6,2.8-9.8c1-2.3,2.2-4.2,4.7-5.1c1.9-0.7,3.8-1.4,5.7-2.1c7.4-2.7,15.1-3.9,23-4.7
	c5.5-0.6,10.9,0.2,16.3,0.1c0.6,0,1.3,0.1,1.9,0.2c3.8,0.7,7.6,1.4,11.4,2.1c0.8,0.2,1.6,0.6,2.3-0.5
	C655.2,358.8,654.7,358.1,654.2,357.5z M571.4,382.9c-0.4,2.3-0.9,4.5-1.4,7.3C569.2,387.6,569.5,386,571.4,382.9z M565.7,447.4
	c-0.4-0.6-0.8-1.3-1.3-2.1C565.9,445.4,565.7,446.5,565.7,447.4z M565.5,452.5c-0.1-0.9,0-0.9,1.9-1.7c0.8,2,2.1,3.8,0.7,6.1
	c1.9,1.4,3.5,2.9,3.6,5.2c-0.9,0.3-1.7,0.5-2.8,0.8C567.2,459.7,566,456.2,565.5,452.5z M570.4,466c0-0.2,0.6-0.6,0.6-0.6
	c0.3,0.2,0.7,0.5,0.8,0.8c0.1,0.1-0.3,0.5-0.7,0.9C570.8,466.7,570.4,466.4,570.4,466z M573.9,473.5c-1.5-1.2-2.9-2.6-2.4-5
	c1.8-0.1,3,0.7,3.8,2.2c0.8,1.7,1.4,3.4,2.3,5.5C576,475.1,574.9,474.4,573.9,473.5z M578.6,353.3c0.2-2.2,0.4-2.3,2.6-3.5
	C581,351.6,579.9,352.4,578.6,353.3z M615,500.2c-2.3,0.9-5.3,0.6-7.4-1.1C610.5,498.8,612.7,499,615,500.2z M596.1,374.9
	c0.3,3.7-0.7,6.4-3.1,7.8C592.5,380.4,594.3,376.1,596.1,374.9z M606.8,498.1c-2.7,0.1-8-2.7-9.4-4.9
	C600.3,494.8,603.3,496.3,606.8,498.1z M594.9,492.3c-2.7-0.6-4.8-2.1-6.6-4.2C591,488.6,592.7,490.9,594.9,492.3z M623.3,366.8
	c1.2-1,1.2-1,2.8-0.1C625.2,367.8,624.3,367.4,623.3,366.8z M629.9,366.2c0.8,0,1.6,0,2.6,0C631.2,367.3,631.2,367.3,629.9,366.2z"
	/>
</svg>
