<?xml version="1.0" encoding="utf-8"?>
<!-- Generator: Adobe Illustrator 22.0.1, SVG Export Plug-In . SVG Version: 6.00 Build 0)  -->
<svg version="1.1" id="Layer_1" xmlns="http://www.w3.org/2000/svg" xmlns:xlink="http://www.w3.org/1999/xlink" x="0px" y="0px"
	 viewBox="0 0 2948 2948" style="enable-background:new 0 0 2948 2948;" xml:space="preserve">
<style type="text/css">
	.st0{fill:none;stroke:#2A4858;stroke-width:16;stroke-miterlimit:10;}
	.st1{fill:#86D780;}
	.st2{fill:#23AA8F;}
	.st3{fill:#2A8E96;}
	.st4{font-family:'OpenSans-Light';}
	.st5{font-size:160px;}
</style>
<g id="Layer_1_1_">
	<line class="st0" x1="96.2" y1="2478.3" x2="876.2" y2="2478.3"/>
	<g>
		<path class="st1" d="M384,2345.2c-11.6,0-22.2-2.8-31.7-8.4c-9.5-5.6-17.1-13.1-22.6-22.6c-5.6-9.5-8.4-20-8.4-31.7
			c0-8.4,1.8-16.3,5.4-23.7s8.5-13.9,14.7-19.5c-6.2-5.6-11.1-12.1-14.7-19.5s-5.4-15.2-5.4-23.4c0-11.4,2.7-21.7,8.2-30.9
			s12.9-16.5,22.2-22c9.3-5.5,19.5-8.2,30.8-8.2h86.4v37.8h-81.6c-4.2,0-8.1,1-11.5,3.2c-3.5,2.1-6.3,4.9-8.4,8.4s-3.1,7.5-3.1,11.9
			c0,4.2,1,8.1,3.1,11.5c2.1,3.5,4.9,6.3,8.4,8.4c3.5,2.1,7.3,3.1,11.5,3.1h71.4v37.8h-69.6c-4.6,0-8.8,1.2-12.6,3.5
			c-3.8,2.3-6.8,5.4-9,9.2s-3.3,8-3.3,12.6s1.1,8.8,3.3,12.6c2.2,3.8,5.2,6.8,9,9s8,3.3,12.6,3.3h79.8v37.8H384V2345.2z"/>
		<path class="st1" d="M573.9,2345.2c-15.8,0-29.9-3.4-42.3-10.2c-12.4-6.8-22.2-15.9-29.4-27.5c-7.2-11.5-10.8-24.4-10.8-38.8
			s3.6-27.3,10.8-38.8c7.2-11.5,17-20.6,29.4-27.5c12.4-6.8,26.5-10.2,42.3-10.2h19.2v35.1h-19.2c-8.4,0-15.7,1.8-21.8,5.4
			c-6.1,3.6-10.8,8.5-14.1,14.8s-5,13.4-5,21.2s1.6,14.8,5,21.2c3.3,6.3,8,11.2,14.1,14.8s13.3,5.4,21.8,5.4h19.2v35.1H573.9z"/>
		<path class="st1" d="M695.1,2348.8c-15.8,0-29.9-3.6-42.3-10.6c-12.4-7.1-22.2-16.7-29.4-28.8s-10.8-25.7-10.8-40.7
			s3.6-28.5,10.8-40.7c7.2-12.1,17-21.7,29.4-28.8s26.5-10.6,42.3-10.6s29.9,3.6,42.3,10.6c12.4,7.1,22.2,16.7,29.4,28.8
			s10.8,25.7,10.8,40.7s-3.6,28.6-10.8,40.7c-7.2,12.1-17,21.7-29.4,28.8S710.9,2348.8,695.1,2348.8z M695.1,2313.7
			c8.4,0,15.6-2,21.8-6c6.1-4,10.8-9.4,14.1-16.2s5-14.4,5-22.8s-1.6-16-5-22.8c-3.3-6.8-8-12.2-14.1-16.2s-13.3-6-21.8-6
			s-15.7,2-21.8,6s-10.8,9.4-14.1,16.2s-5,14.4-5,22.8s1.6,16,5,22.8c3.3,6.8,8,12.2,14.1,16.2S686.7,2313.7,695.1,2313.7z"/>
		<path class="st1" d="M807.6,2345.2v-219h41.1v219H807.6z"/>
		<path class="st1" d="M908.4,2173.9c-7,0-13-2.5-18.2-7.7c-5.1-5.1-7.6-11.1-7.6-18.1s2.5-13.1,7.6-18.2c5.1-5.1,11.1-7.7,18.2-7.7
			c7,0,13,2.6,18.1,7.7c5.1,5.1,7.7,11.2,7.7,18.2s-2.5,13-7.7,18.1C921.4,2171.4,915.4,2173.9,908.4,2173.9z M887.7,2345.2v-153
			h41.4v153H887.7z"/>
		<path class="st1" d="M978,2345.2v-117.9h-26.7v-35.1H978v-22.5c0-13.6,3.8-24.2,11.5-32c7.7-7.7,18.3-11.5,32-11.5h43.5v35.1
			h-36.3c-2.6,0-4.9,0.9-6.8,2.7c-1.9,1.8-2.9,4.1-2.9,6.9v21.3h39.3v35.1H1019v117.9H978z"/>
		<path class="st1" d="M1158.6,2345.2c-17.4,0-32.5-3.3-45.4-10s-22.9-15.8-30-27.5c-7.1-11.6-10.7-24.6-10.7-39
			c0-16.2,3.3-30.3,9.9-42.3s15.6-21.3,27-27.9c11.4-6.6,24.3-9.9,38.7-9.9c17.2,0,31.1,3.6,41.9,10.8c10.7,7.2,18.5,16.9,23.5,29
			s7.5,25.6,7.5,40.3c0,2-0.1,4.3-0.3,7c-0.2,2.7-0.5,4.8-0.9,6.2h-103.5c1.6,6.2,4.4,11.4,8.2,15.6c3.9,4.2,8.8,7.4,14.7,9.5
			c5.9,2.1,12.5,3.2,20,3.2h42.6v35.1h-43.2L1158.6,2345.2L1158.6,2345.2z M1116,2254.3h63.9c-0.4-3.8-1.1-7.3-2.1-10.6
			s-2.4-6.2-4.2-8.9c-1.8-2.6-3.9-4.8-6.3-6.6s-5.2-3.2-8.4-4.2c-3.2-1-6.7-1.5-10.5-1.5c-5,0-9.5,0.9-13.4,2.7s-7.2,4.2-9.8,7.2
			c-2.6,3-4.6,6.4-6.1,10.2S1116.6,2250.3,1116,2254.3z"/>
	</g>
	<g>
		<rect x="77.2" y="76.3" class="st0" width="2793.8" height="2802.7"/>
	</g>
	<g>
		<g transform="matrix(1, 0, 0, 1, -5.684341886080802e-14, 0)">
			<path class="st2" d="M1497.2,344.6c-414.9,0-752.3,334.6-752.3,746.2s337.4,746.2,752.3,746.2s752.3-334.6,752.3-746.2
				S1912.1,344.6,1497.2,344.6z M1791.4,597.7c2.6,3.1,3.7,7.3,3.2,11c-3.2,1-5.8,3.7-6.9,6.3c-2.1,0.5-2.1,0.5-4.2,1
				c-2.1,2.6-4.7,4.7-7.9,5.8c-5.3,2.1-11.6,2.1-16.9,4.2c-2.1,1-4.2,2.6-6.3,1.6c-1.1-0.5-2.1-1.6-3.2-1.6c-1.1-0.5-2.6,0-3.2,1
				c-0.5,1-0.5,2.6,0.5,3.7c-1.1,4.2-2.1,8.9-3.2,13.1c-0.5,2.6-1.1,5.2-2.6,7.8c-4.2,6.8-13.7,8.9-16.9,15.7c-1.6,0-3.7,0-5.3,0
				c-2.6-5.8-7.9-9.9-9-16.2c-0.5-3.7-0.5-7.8,0.5-11.5c2.6-1.6,4.2-4.2,4.2-7.3c0.5,0,1.6-0.5,2.1-0.5c0.5-3.1,1.1-6.8,3.7-8.9
				c2.1,1,4.2,1,6.3-0.5c-3.2-1-5.3-4.7-8.4-5.2c-1.1,0-2.1,0-3.2,0c-1.6,0-3.7-0.5-5.3-0.5s-3.2,0.5-3.2,2.1
				c-2.6,0-4.7-0.5-7.4-0.5c0-2.6,0.5-4.7,1.6-6.8c-1.6-0.5-3.7-0.5-5.3-0.5c-2.6-3.7-5.3-6.8-8.4-10.5c-1.1-1.6-2.1-2.6-3.2-4.2
				c-0.5-1-1.6-2.6-2.1-3.7c-2.6-4.2-7.4-5.2-12.1-7.3c-1.1-0.5-2.1,0.5-3.2,1c-3.7,2.6-8.4,1-12.7-0.5c-1.1-1-0.5-3.1,1.1-3.7
				c1.1-1,3.2-1,4.2-1.6c-0.5-1.6-2.6-2.1-2.1-3.7c0-2.1,0.5-4.7,0.5-6.8c0.5-0.5,1.6-0.5,2.1-1c0-0.5-0.5-1-0.5-1.6
				c-2.1,0-3.7,0-5.8,0c-1.1,0-2.1,0-3.2-0.5c-1.6-0.5-2.1-2.1-2.6-3.7c3.2-1.6,6.3-3.7,8.4-6.3c0.5-0.5,0.5-1,1.1-1.6
				c0.5-1,0.5-2.1,1.1-2.6c1.1,0,2.1,0,2.6,0.5c1.1-1.6,2.6-2.6,4.7-4.2c3.7-3.1,7.9-5.8,12.7-6.8c1.1-0.5,2.6-0.5,3.7-1
				s2.6-1,3.7-2.1c2.6-1.6,5.3-3.7,7.9-5.2c1.6-1,2.6-1.6,4.2-2.1c1.1-0.5,2.1-0.5,3.2-0.5c5.8-1,11.1-1,16.3-2.6
				c1.6-0.5,2.6-2.6,2.1-4.7c-4.2-1-7.9-4.7-12.7-5.2c-3.2-0.5-6.9-0.5-8.4-2.6c1.1,0,1.6-1,2.6-1c0.5,0,1.1,0,1.1,0
				c2.1,0.5,4.2,1,5.8,1.6c3.2,1,6.9,1.6,9.5,3.7c1.6,1,2.6,2.1,3.7,3.1c0.5,0.5,1.6,1,2.1,1.6c1.1,0,1.6,0,2.6,0c1.1,0,2.1-1,3.2-1
				c3.7,0.5,6.9-1,9.5-3.7c0.5-0.5,0.5-0.5,1.1-1c0.5,0,1.1,0,1.6,0c2.1,0,3.2,1,5.3,1.6c1.1-0.5,2.1-0.5,3.2,0
				c4.2,0.5,7.4-4.2,11.6-3.7c1.6,0,2.6,0.5,4.2,0.5c0.5-2.1,0.5-3.7,1.1-5.8c-5.3-0.5-11.1-1-16.3-2.1c0.5-2.6-2.1-4.7-4.7-5.8
				c-0.5,0-1.1,0-1.6-0.5c-1.1-1-0.5-2.6,0-4.2c3.7,2.1,8.4,3.7,12.7,3.7c0,1.6,0.5,4.2,2.1,4.7c0.5,0.5,1.6,0.5,2.1,0
				c3.7,0,6.9,0,10.5,1c0.5,0,1.1,0,1.6,0h0.5c25.3,12,49.6,25.6,73.3,40.8c-5.8-1.6-12.1-2.6-18.5-2.6c-1.1,0-2.1,0-3.2,0
				c-1.1,0.5-1.6,1-2.6,1.6c-5.8,3.7-10,8.4-15.3,12.5c-0.5,2.6-1.1,5.8-1.1,8.9c0,0.5,0,0.5,0,1s-1.1,0.5-1.1,1
				c-7.4,2.6-16.9,5.8-19,13.1c-0.5,3.1-1.6,5.8-1.6,8.9C1787.7,596.6,1789.3,597.1,1791.4,597.7z M1630.6,473.2
				c-1.1,1-1.6,2.1-2.1,3.7c-1.6,0-3.2-0.5-4.7-0.5c0.5-1,0-2.6-0.5-3.7s-1.6-2.1-2.1-3.7c-3.2-1-6.3-1.6-9-1.6
				c-3.2,0-6.3,1-8.4,3.7c-3.2-0.5-6.3-0.5-9-1c-1.1,0-1.6,0-2.6-0.5c-0.5-0.5-1.1-1-1.1-2.1c-2.6-0.5-5.3-1-7.9-1.6
				c0-1,0-1.6,0-2.6c-1.6-0.5-2.6-0.5-4.2-1c-0.5-0.5-0.5-2.1,0.5-2.6c0.5-0.5,2.1-1,3.2-1c1.6-0.5,3.7-0.5,5.3-1c0-0.5,0-1,0-1.6
				c21.1,3.1,41.7,6.8,61.7,11.5c-1.6,0-3.2,0.5-4.7,0.5c-4.2,0.5-8.4,0.5-12.7,1C1632.2,470.1,1631.1,471.6,1630.6,473.2z
				 M1309.5,507.7c-0.5,1-1.1,2.1-2.1,3.1C1308.5,509.8,1309,508.8,1309.5,507.7z M1669.1,472.2c6.9,1.6,13.2,3.7,20,5.8
				c-0.5,0-0.5,0-1.1,0c-1.6,0-2.6-0.5-3.7-1c-4.2-1.6-8.4-2.1-12.7-2.6C1670.7,474.3,1670.1,473.2,1669.1,472.2z M1858.9,561.6
				c-1.1-1-2.1-2.6-2.6-4.2c7.9,5.2,15.8,11,23.7,16.2c-2.1,0.5-4.2-0.5-6.9-1c-2.6-0.5-5.8-1-8.4-1.6c0.5-2.1,0.5-4.2,1.1-6.3
				C1863.1,564.2,1860.5,563.2,1858.9,561.6z M1862,606.6c1.6-1.6,3.2-3.1,5.3-2.6c0.5,0,1.1,0,1.1,0c0.5,0,1.1-1,1.1-1.6
				c0.5-1.6,1.1-3.1,1.6-4.2c-1.1,0-1.6-0.5-2.6-0.5c-0.5-1.6-1.6-3.1-2.6-4.7c1.1-0.5,2.6-0.5,3.7-1c0-2.1,0.5-4.7,1.1-6.8
				c1.1,0,2.6,0,3.7,0c0.5-2.1,1.1-3.7,1.1-5.8c1.1-1,2.6,0,4.2-0.5c1.1-0.5,1.6-1.6,1.6-2.1s0-0.5,0-1c9,6.3,17.4,13.1,25.8,19.9
				c-8.4,4.7-15.8,12-25.3,11c-3.2-0.5-6.3-0.5-9.5-1c-0.5,0-1.1,0-1.6,0s-0.5,0.5-1.1,0.5c-2.6,2.1-4.7,4.2-6.9,6.8
				c-0.5,0-1.6,0.5-2.1,0.5c-1.1,0-1.6,0-2.6-0.5c-0.5-0.5-1.1-1-1.1-2.1C1859.4,610.2,1861,608.1,1862,606.6z M1912.6,599.8
				c1.6,1.6,3.2,2.6,4.7,4.2c-1.1,0-2.6-0.5-3.7-0.5c0-1-0.5-2.1-1.6-2.6C1912.6,599.8,1912.6,599.8,1912.6,599.8z M850.3,1090.7
				c0-266.1,164.5-495.2,397.5-591.9c0,0,0,0,0.5,0c2.6,1,5.8,1,8.4,2.1s5.3,3.7,5.3,6.8c6.3,0,13.7,1.6,17.4,6.8
				c2.6,3.1,3.2,7.3,3.7,11.5c4.2-0.5,7.4-3.7,9.5-7.3c3.2,1,6.3,2.6,9.5,4.2c1.6,1,3.2,3.7,1.6,5.2c-1.1-0.5-2.6-1-3.7-1.6
				c-1.1,1,0,3.1,0.5,4.2c1.1,1,2.1,2.1,2.6,3.7c0.5,1.6,0,2.6,0,4.2c-0.5,3.7-1.6,7.8-2.1,11.5c-1.1,4.7-1.6,8.9-2.1,13.6
				c-1.6-0.5-3.2-0.5-4.7-1c-1.6,2.6-3.7,4.7-6.3,6.8c0,3.1-0.5,6.3-1.1,8.9c1.6,1,3.2,2.1,4.7,3.7c0.5,0.5,0.5,0.5,1.1,1
				c0,0.5,0,1,0,1.6c-0.5,2.1-0.5,5.2-1.1,7.3c2.1,0,4.2,0,6.3,0c0,1,0,2.1-0.5,3.1c-2.1,1.6-4.7,2.1-7.4,2.1c-0.5,0-1.1,0-1.6,0
				s-0.5,0.5-0.5,0.5c-1.1,1.6-2.6,3.1-4.7,4.2c0.5,2.6,1.6,5.2,3.7,6.8c1.6,1,3.2,1,4.2,2.1c1.6,1,2.6,2.6,1.6,4.2
				c3.7,1,7.9,2.6,11.1,5.2c-1.1,2.1-1.1,5.2,0.5,7.3c0.5,0.5,1.1,1.6,1.1,2.1c-0.5,1-0.5,2.1-1.1,3.1c0,2.1-0.5,4.7-2.6,4.7
				c-0.5,7.3-5.3,14.1-11.6,17.8c1.1-3.1,2.6-6.3,3.7-9.4c0.5-0.5,0.5-1.6,0.5-2.1c0-2.6-3.7-3.7-6.3-3.1c-2.6,0.5-5.8,1-7.4-0.5
				c-3.2,11-9,20.9-17.4,28.8c-1.6,1.6-3.2,3.1-3.7,4.7c-0.5,1.6-0.5,2.6-1.1,4.2c-1.1,2.6-3.7,4.7-5.8,6.3
				c-5.3,4.2-10,9.4-14.8,14.1c-4.7,5.2-9.5,10.5-14.2,15.7c-1.1,1.6-2.6,2.6-3.7,4.2s-1.6,3.7-2.1,5.2c-2.1,4.2-4.7,8.4-8.4,11.5
				c1.6,3.1,2.6,6.3,3.7,9.4c2.1-0.5,4.7-1.6,6.9-2.1c1.1,1,1.1,3.7,0.5,5.2c-0.5,1.6-2.1,3.1-3.2,4.2c-0.5,0.5-1.1,1-1.6,1.6
				c0.5,7.8,1.6,16.2-1.1,23.5c-0.5,1-1.1,2.1-1.1,3.7c0,1,0,2.6,0.5,3.7c0.5,2.6-0.5,5.8-0.5,8.4c0,2.6,1.6,5.8,4.7,6.3
				c0.5,0,1.6,0,2.1,0c4.7,0,9,3.1,11.1,7.3c2.6,4.2,3.2,8.4,4.2,13.1c0,1,1.1,1.6,1.6,2.1c0,0,0,0-0.5,0c-0.5,1.6-1.6,2.6-2.1,4.2
				c-1.6,4.2-2.1,9.4-0.5,13.6c0.5,1,1.1,2.1,1.1,3.7c0,1.6-1.1,3.1-1.6,4.7c-1.6,4.2,1.6,8.4,4.2,12c2.6,3.7,5.3,8.4,3.2,12
				c-1.1,2.1-3.2,3.7-3.2,5.8c-1.6,0-3.7,0-5.3,0.5c-1.6,1.6-0.5,4.2,0.5,5.8c1.1,1.6,2.6,4.2,1.6,5.8c4.2,2.1,7.9,4.2,12.1,6.3
				c1.1,0.5,1.6,1,2.1,1.6c0.5,1,1.1,2.1,1.1,3.1c0.5,3.1,0.5,6.3,1.1,9.4c-2.1,0-3.7,0-5.8,0c-0.5,3.7-0.5,7.3,1.1,9.9
				c2.6,3.7,9,5.8,8.4,10.5c2.6-0.5,4.2,3.1,4.2,5.8c0,2.6-1.1,5.8,1.1,7.8c2.1-1.6,4.7-2.6,6.3-4.7s2.6-4.7,2.1-7.3
				c-1.1-3.1-4.7-5.2-7.9-6.3c0-3.1,0.5-6.3,0.5-9.4c-3.7-1-4.2-6.3-3.2-9.9s3.2-7.3,1.6-11c-1.1-3.1-4.2-5.2-5.3-7.8
				c-1.1-3.1,1.1-6.8,0.5-10.5c-0.5-5.2-5.3-9.4-6.3-14.6c-0.5-3.1,0-6.3-1.1-8.9c-0.5-1.6-1.6-2.6-2.1-3.7c-1.6-4.7,2.6-8.4,5.8-12
				c2.1-2.1,3.7-5.2,2.1-7.3c1.6,0,2.6,0.5,4.2,0.5c-1.1,2.1,0.5,4.7,2.6,5.8s4.7,2.1,5.3,4.7c0.5,1,0.5,2.6,0,4.2
				c-0.5,5.2-1.1,10.5-1.6,15.7c0,1,0,2.1,0,3.1c0.5,1,1.6,2.1,2.1,3.1c1.1,2.6,0.5,5.2,1.1,8.4s3.2,5.2,5.3,7.3
				c5.8,7.3,6.9,17.3,7.4,26.1c-1.1,2.6,0.5,4.2,2.1,6.3s4.2,3.7,5.8,6.3c1.6,2.1,2.1,5.8,0,7.8c6.9,5.2,11.6,13.6,13.2,22
				c0.5,1.6,0.5,3.7,0.5,5.8c0.5,4.2,1.1,8.9,1.6,13.1c-4.7,0.5-8.4,5.8-6.9,10.5c1.1,3.1,0,6.3,1.6,9.4c2.1,4.2,7.9,7.3,11.6,5.2
				c0.5,2.1,1.6,4.7,2.1,6.8c0.5,1,0.5,2.6,1.6,3.7c2.6,3.1,7.9,2.1,11.1,4.2c3.2,2.1,3.7,6.3,5.8,8.9c3.2,4.7,10.5,6.8,11.1,12.5
				c1.1,0,2.1-1,1.6-2.1c0-1,1.1-1.6,2.1-1.6c2.6,0,5.3,0,7.4,0c1.1,4.7,5.3,8.4,9.5,11.5c2.1,1.6,3.7,3.1,5.8,4.7
				c3.7,3.1,8.4,6.3,13.2,4.7c3.7-1,6.3-4.2,10-5.8c3.2-1,6.9-0.5,9.5,1.6c4.7,3.7,5.8,9.9,10.5,13.1c2.1,1.6,5.3,1.6,6.3,3.7
				c1.6,2.1,1.1,5.8,2.6,7.3c0,0.5,0,0.5,0,1c3.2,2.6,5.8,5.2,9.5,6.8c1.6,0.5,3.7,1,5.3,1h-0.5c0,0.5,0,0.5,0.5,1
				c0.5,1,2.1,1.6,3.2,1.6s2.6,0.5,3.7,1s1.6,2.1,1.1,3.1c3.7-0.5,6.9,0,10.5,1c0.5,0,1.1,0.5,1.6,0.5h0.5c2.6,1.6,4.7,4.7,6.3,7.3
				c1.6,3.7,3.2,7.3,5.8,10.5c1.1,1,1.6,1.6,2.1,2.6c1.1,1.6,1.1,3.1,1.1,4.7c0,2.1,0,4.2,1.6,5.2c0.5,0,0.5,0.5,1.1,0.5l0,0
				c-1.1,4.7-1.6,8.9-1.6,13.6c2.1,3.1,7.4,2.6,10,5.2c0.5-0.5,1.1-1,1.1-1.6c-3.2-1-4.7-4.7-4.2-7.8c2.6,1,4.7,3.7,5.8,6.3
				c0.5,2.6,0.5,5.8-0.5,8.9c1.1,0,2.1,0.5,3.2,0.5c0-1.6,2.1-2.6,3.7-2.1c1.6,2.6,2.1,5.8,1.1,8.9c2.1,1,3.2,2.6,3.7,4.7
				c2.1,0,4.2,0,5.8,0.5l0,0l0,0c2.6,1.6,6.3,0.5,9,2.1c2.1,3.1,3.2,6.8,4.2,10.5c3.2,0.5,5.8,1,9,2.1c2.6-2.1,1.6-6.8,4.2-8.9
				c1.1-1,3.2-1.6,3.2-3.1c0-0.5-0.5-1,0-1.6c0-0.5,0.5-0.5,1.1-1c2.6-2.1,5.3-3.7,7.9-5.2c0.5,1,1.6,1.6,2.6,1.6
				c-1.1,1-2.1,2.6-2.1,4.7c2.6,1,5.3,2.1,7.4,3.7c1.6,0.5,3.2,2.6,2.1,3.7c-0.5,0.5-1.1,0.5-1.6,0.5c-2.6,0.5-4.7,3.1-4.7,5.8
				c2.6,1.6,3.7,4.2,5.3,6.8c0.5,1,1.6,1.6,2.1,2.6c0-0.5,0-1,0.5-1.6c-2.1,5.8-0.5,12.5,1.6,18.3c0,0.5,0.5,1.6,0.5,2.6
				s-0.5,2.6-1.1,3.7c-1.1,2.1-2.6,4.2-3.2,6.3c-0.5,3.1-0.5,6.3-1.6,8.9c-0.5,1-1.6,2.1-2.6,3.1c-1.1,1-1.6,2.6-2.6,3.7
				c-1.1,1-2.1,1-3.7,1.6c-3.2,1-6.9,3.1-9,5.8c-2.6,2.6-3.7,6.3-3.2,9.9l0,0c-3.7,1.6-6.9,3.1-10.5,5.2c-3.2,2.1-5.8,4.7-9,6.8
				c-1.1,1-2.6,2.1-2.6,4.2c0,1,0,1.6,0,2.6c0,3.7-3.7,6.3-7.4,7.8c0,3.1-0.5,5.8-0.5,8.9c0,1,0,1.6,0.5,2.6c0.5,0.5,1.1,1,1.6,1.6
				c3.7,2.6,7.9,3.7,12.1,3.7c0,3.7-3.2,7.3-6.9,7.3c0,1.6,1.1,2.6,2.1,3.7c-2.6,0.5-4.7,1-7.4,0.5c-2.6,2.1-5.8,4.7-6.9,7.8
				c-1.6,3.1-0.5,7.8,2.6,9.4c-2.1,2.6-3.7,4.7-5.8,7.3c1.1,1.6,2.1,2.6,3.2,4.2c-1.1,1.6-2.1,3.7-3.2,5.2c9.5,1.6,16.3,9.9,20,19.3
				c3.7,8.9,4.7,18.8,8.4,27.7c4.7,11,13.2,22,10,33.5c2.6-1.6,5.8,0,6.9,2.6s1.1,5.2,1.1,8.4c-0.5,6.3-1.1,12.5-1.1,18.3
				c7.9,1,12.7,8.9,17.9,14.1c5.8,5.8,13.7,8.9,20.6,13.1s13.7,9.9,15.8,17.8c2.6,1.6,4.2,2.6,7.4,4.2c-0.5-0.5-1.1-0.5-2.1-1
				c0,13.6,2.6,27.7,3.2,41.8c0,3.7,0,7.3-2.6,9.9c-1.1,1-2.1,1.6-2.6,3.1c-0.5,1-0.5,2.1-0.5,3.1c0,3.7,0,7.8,0,11.5
				c0,4.7-1.1,11-1.1,15.7c0,5.2,0.5,11,0.5,16.2c0,4.2-0.5,7.8-1.1,12c0,1.6-0.5,3.1-1.1,4.7c-1.1,1.6-2.6,3.1-3.7,4.2
				c-3.7,4.2-4.2,10.5-1.6,15.2c4.2,4.7-2.1,12.5,1.1,18.3c4.7,9.9-0.5,22.5-2.6,33.5c-1.6,7.8-3.2,15.7-5.3,23.5
				c-0.5,2.6-1.1,5.2-2.6,7.3c-1.1,1.6-2.1,3.1-2.6,4.7c-3.2,6.3,0,13.1,3.2,19.9c-25.3,3.1-51.7,4.7-78,4.7
				C1140.8,1732.8,850.3,1444.7,850.3,1090.7z M1634.3,1546.2c0-1.6,0-3.1,0-4.7C1634.3,1543,1634.8,1544.6,1634.3,1546.2z
				 M1679.1,1538.8c0.5-0.5,1.1-0.5,1.6-1c-0.5,0-0.5,0.5-1.1,0.5C1679.6,1538.8,1679.6,1538.8,1679.1,1538.8z M1723.4,1517.4
				c0.5,0,1.1,0.5,1.6,0.5l0,0C1724.4,1517.9,1723.9,1517.4,1723.4,1517.4z M1793,1661.7c2.6-5.8,5.8-11,10-15.2
				c1.6,0,4.2-0.5,5.8-0.5c5.8,0,9-7.3,7.9-13.1c-1.1-5.8-3.7-11.5-3.7-17.3c0-11.5,12.1-19.3,22.7-24.6c4.2-2.1,9-4.2,13.7-4.7
				c1.6,0,3.7,0,5.3,0c5.8-1,10-7.3,15.8-7.8c3.7-0.5,6.9,1.6,10,2.1c3.7,0.5,7.9-1,7.9-4.2c2.6,2.1,6.3,1.6,9-0.5
				c2.6-2.1,3.7-5.2,4.7-8.4c4.2-11,8.4-22,12.1-32.9c5.8-15.7,20.6-32.9,13.7-48.1c-3.2-6.8-1.6-15.2,3.2-20.4
				c2.6,1.6,5.8-0.5,7.4-3.1c1.1-2.6,1.6-5.8,2.6-8.4c1.6-3.7,6.3-6.3,10.5-5.8c0-4.2,1.1-8.4,2.6-11.5c1.6,1.6,3.7,2.6,5.3,4.2
				c7.4-6.3,14.8-13.1,18.5-22.5c5.3-13.1,2.1-28.8-1.6-42.4c-8.4-1.6-16.9-4.7-24.3-9.4c1.1-5.8-3.2-11-7.4-15.7
				c-1.6-2.1-3.7-3.7-5.8-4.7c-2.1-1-4.2-1.6-6.3-1.6c-10-2.1-20-4.2-30.1-5.8c-3.2-0.5-6.3-1-9.5-0.5s-6.3,2.6-7.4,5.2
				c-1.1,0-2.1-1.6-1.6-2.6s1.1-2.1,2.1-3.1c2.6-3.1,3.2-8.4,1.6-12c-1.6-3.7-5.3-8.4-9.5-8.9c-4.7-4.2-11.1-6.3-17.4-7.8
				c-1.6-0.5-3.2-1-5.3-1.6c-1.1-0.5-2.1-0.5-3.7-0.5c-2.6,0-4.7,2.6-6.3,4.7c-2.6,3.1-4.7,6.8-7.4,9.9c-5.8-2.6-11.6-5.2-16.9-7.8
				c-1.6-0.5-3.7-1.6-4.2-3.7c-3.2,0.5-6.9,1-10,1.6c0.5-2.6,1.6-5.8,2.1-8.4c5.8-0.5,12.1-4.7,11.1-9.9c1.6,1.6,4.2,0.5,5.8-1
				c1.6-1.6,2.1-3.7,4.2-5.2c1.1-0.5,2.1-1,3.7-1.6c3.7-1,6.9-3.7,9.5-6.8c-4.2,1-9-3.7-6.3-7.3c-3.7,0.5-6.3-3.1-6.9-6.8
				c-0.5-3.7,0.5-7.3-0.5-10.5c-0.5-1.6-1.1-3.1-1.6-5.2l0,0c0.5-0.5,1.1-1,1.1-1.6c-2.6-1-4.2-4.2-3.2-6.8c-1.1-0.5-1.6-1-2.6-1.6
				c-2.6-2.1-5.8-3.7-7.9-6.3c-2.1-2.6-3.7-6.3-2.6-9.4c-2.6,0-4.7,0-7.4,0c0,0,0,0,0,0.5c0.5-0.5,0.5-1.6,0-2.1
				c-2.6,1.6-5.8,0-7.9-1.6c-2.6-1.6-4.7-3.7-7.4-4.2c-4.7-1-9,2.1-13.7,1.6c-1.6,0-3.7-0.5-5.3-0.5c0,0.5-0.5,0.5-0.5,1
				c0.5-0.5,1.1-1,1.1-1.6c-1.6-0.5-3.2-1.6-5.3-2.1c1.1-2.6-2.1-6.3-4.7-5.8c0-1.6,0.5-3.1,0.5-5.2c-1.1,0-2.1-0.5-2.6-0.5
				c-0.5,1-1.1,2.1-1.1,3.7c-1.6,0-2.6-0.5-4.2-0.5c-1.1-2.6,2.6-4.2,3.2-6.8c1.1-3.7-5.3-7.3-3.2-10.5c-1.6-1.6-4.2-2.6-6.3-2.1
				c-0.5-1.6-0.5-2.6-1.1-4.2c-1.6,0.5-2.6,1-4.2,1.6l-0.5-0.5c-1.1-1.6-1.6-3.1-1.1-4.2c-1.6,0-2.6-1-3.2-2.6
				c-0.5-1-0.5-2.6-1.1-4.2c0-1-0.5-2.6-1.1-3.7c-3.2,0-6.3-0.5-9-2.1c0-1.6,0.5-3.1,0.5-4.7c-1.6,0-3.2-1-4.2-2.6
				c-0.5-1-1.1-2.1-1.6-3.1c0,0.5,0.5,0,0.5-0.5c0.5-2.1,1.1-4.2,1.6-6.3c-2.6,0-4.7,0-7.4,0c-2.1,0-4.2,0-5.8,1
				c-0.5,0.5-1.6,0.5-2.1,1c-3.2,1.6-6.3,1.6-10,1.6c-1.1,1.6-2.6,3.1-3.7,4.7c-0.5,0-1.1,0-1.6,0s-1.1,0-1.1,0v-0.5
				c0-0.5,0-1.6-0.5-2.1c-2.1,0-3.7-0.5-5.8-0.5c0.5-1,1.1-2.1,0-3.1s-1.6-1.6-3.2-1.6c1.6-0.5,1.6-2.6,0.5-3.7h-0.5
				c-2.1-1-4.7,1-4.7,3.1c-1.6,0-3.2-0.5-4.7-0.5c-1.1,0-2.1-0.5-3.2-0.5c0-1,0-2.1-0.5-3.1c-1.6,0-2.6,0-4.2,0
				c0,1.6-0.5,2.6-0.5,4.2c-2.6-1-4.7-2.1-7.4-2.6c1.6-3.1,0.5-6.8,0-9.9c-3.2-1.6-6.3-3.7-9.5-5.2c-2.1-1.6-4.7-4.2-4.2-6.8
				c-1.1,0-1.6,0-2.6,0c-0.5,2.6-0.5,5.2,0,7.8c-2.6,0-4.7,2.1-5.8,4.2c-1.1,2.1-1.1,4.7-1.1,7.3s0,5.8-0.5,8.4c0,1,0,2.1-0.5,2.6
				c-0.5,1-2.1,2.1-2.6,3.1c-0.5,1.6-0.5,3.1-0.5,4.7s-0.5,3.7-2.1,3.7c-0.5-2.6-0.5-5.2-1.1-7.3c-0.5-1-2.6,0-4.2,0
				c-2.1,0-3.2-2.1-3.2-3.7c-0.5-1.6-0.5-4.2-2.1-4.7c2.1-6.3,6.3-12,11.1-16.2c1.6-1.6,3.7-3.1,4.7-5.2c1.1-2.1,0.5-4.7-1.6-5.8
				v0.5c0-1.6-1.1-2.6-1.6-3.7c-1.1-1.6-3.2-2.6-4.7-2.6c-1.1,0-2.1,1-2.6,1.6c-1.6,1-2.6,2.1-4.2,3.1c-2.1,1-3.7,2.6-5.8,3.7
				c-1.6,1-3.7,2.1-5.8,2.1c-1.6,0-3.7-1-5.3-0.5c-1.1,0.5-1.6,1.6-2.6,1.6c-0.5,0-1.1-0.5-1.6-0.5c-3.2-1.6-6.9-0.5-10.5,0.5
				c-0.5,0-1.1,0.5-1.1,0.5c-0.5,0.5-1.1,1-1.1,2.1c-1.1,3.1-2.6,6.3-3.7,9.4c-1.1,3.7-2.6,6.8-5.8,9.4c-2.6,2.1-5.3,4.2-7.4,6.3
				c-2.6-0.5-5.8-1.6-7.9-3.1c-1.1-0.5-2.1-1-2.6-2.1c-1.1-1-1.6-2.1-2.1-3.7c-3.7-6.8-12.1-9.9-19.5-7.3c-5.3,2.1-10,6.8-15.3,5.2
				c-3.2-0.5-5.8-3.1-9-2.6c0-1,0-2.6,0-3.7c-1.1,0.5-1.6,0.5-2.6,0.5l0,0c0.5-0.5,0.5-1,0-1.6c-1.6-2.1-3.7-3.7-5.3-5.8
				c-0.5-0.5-1.1-1-1.6-2.1c-0.5-1,0-2.1-0.5-3.1c-0.5-2.1-3.2-3.7-3.2-6.3c0-1,1.1-2.1,1.6-2.6c0.5-1.6,0.5-3.1,0-4.7l0,0
				c0-6.8,0-14.1,3.7-19.3c1.1-1,2.1-2.1,2.6-3.7c0.5-1,0.5-2.6,1.1-4.2c1.1-3.1,3.7-5.2,5.3-7.8s1.6-6.3,0.5-8.9c0,0-0.5,0-0.5,0.5
				c2.6-1,3.2-5.2,3.2-7.8c-5.3-4.2-12.7-3.1-19.5-3.1c-9,0-18.5-2.6-27.4-0.5c-1.6,0.5-3.2,1-4.2,0.5l0,0l0,0
				c0.5-0.5,1.1-1,1.1-1.6c1.6-1.6,2.6-3.7,3.7-5.8c1.6-3.1,2.6-6.8,3.2-10.5c0.5-4.2,1.1-8.4,1.6-13.1c0-0.5,0-1,0-1.6l0,0
				c1.6-0.5,3.7-1,4.7-2.6s1.1-3.1,1.6-5.2c1.6-6.8,6.9-12.5,12.1-17.8c1.6-1.6,4.2-3.7,6.3-2.6c0-1,0.5-2.1,0.5-3.7
				c-0.5,0-1.1-0.5-1.6-0.5c0.5-1.6,1.1-3.1,1.6-5.2c-6.9-3.1-14.8-3.7-22.1-1.6c-1.6,0.5-3.7,1-5.3,0.5c-1.6,0-2.6-1-4.2-1.6
				c-4.7-1.6-10,1.6-12.7,5.8c-2.6,4.2-4.2,8.9-5.3,13.6c-1.6,4.7-3.7,9.4-7.9,12.5c-5.3-3.1-12.1-4.7-18.5-4.7
				c-1.1,0-2.1,0-2.6,0.5s-1.6,1-2.1,2.1c-2.1,2.1-4.7,2.6-7.4,2.1c-3.2-0.5-6.3-3.1-9.5-2.6c0-3.7-3.2-6.3-5.3-8.9
				c-1.1-1-2.1-2.1-2.1-3.7c0-1,0-2.6,0-3.7c0-3.1-2.6-5.8-4.2-8.9s-2.1-6.8-2.1-10.5c-0.5-4.7-0.5-8.9-1.1-13.6c0-2.1,0-4.2,0-5.8
				c0.5-2.6,2.6-4.7,4.2-7.3s3.2-5.8,3.7-8.9s1.6-6.3,3.7-8.4c2.1-2.1,4.7-4.2,6.3-6.8s2.1-5.2,2.1-8.4c-1.1-0.5-2.1-1-2.6-2.1
				c1.1,0.5,2.1,1.6,3.2,2.1c1.1-4.7,2.6-9.4,4.2-13.6c0-1,0.5-1.6,1.1-2.1c1.1-1,2.1-1,3.2-1c2.1-0.5,4.2-1.6,5.8-3.1
				c1.1-1,2.1-2.1,3.2-3.1c1.6-1,3.7-1,5.3-1.6c5.3-1,9.5-4.2,14.2-6.3c4.7-2.6,10-4.2,14.8-2.6c4.2,1,7.4,4.2,10.5,7.3
				c2.6-3.7,6.9-7.8,11.1-6.3c-0.5,2.1-0.5,4.2-1.1,6.3c1.6,1,3.2,2.1,5.3,3.1c0.5,0,0.5,0.5,1.1,0.5s1.1,0,1.6,0
				c2.6-0.5,5.8-0.5,8.4-1c2.6,0,5.8-0.5,7.9,1.6c0.5-1,1.1-2.6,1.6-3.7c0.5-1-0.5-2.6-1.6-3.7c-1.6,0-2.6,0-4.2-0.5
				c0-1,0.5-2.1,0.5-2.6c-1.1,0-2.6,0-3.7,0c0-2.6,1.1-5.8,2.1-8.4c5.3-0.5,10,0.5,15.3,1.6c1.1,0,2.1,0.5,3.2,1
				c0.5,0.5,1.1,1.6,1.6,2.1c3.2,4.2,9,6.8,14.2,7.8c5.3,1,11.1,1,16.3,2.1c3.7,0.5,6.9,1.6,10,3.7c2.6,2.1,4.7,5.2,4.7,8.9
				c-0.5,7.3-0.5,14.6-1.1,22.5c0,0.5,0,1.6,0,2.1c0.5,0.5,1.1,1,1.6,1.6c3.7,3.7,4.2,9.9,1.1,14.1c2.6,2.1,3.7,5.8,2.6,8.9
				c2.6,0.5,4.7,1.6,7.4,2.6c2.1,1,3.7-1.6,4.2-3.7c0.5-2.1,0.5-4.2,1.6-5.8c1.6-1.6,4.2-2.1,5.3-4.2c0.5-1,0.5-2.6,0.5-4.2
				c0-10.5,0.5-20.9,2.6-31.4c-2.1-0.5-2.6-3.7-2.6-6.3c0.5-5.8,2.1-12,4.7-17.3c3.7-7.3,12.1-9.9,20-12c2.1-0.5,3.7-1,5.3-2.6
				c0.5-0.5,1.1-1.6,1.6-2.1c1.1-1.6,2.6-2.6,4.2-3.1c3.2-2.1,6.9-4.2,10-6.8c4.7-3.1,10-6.3,15.3-4.2c1.1-0.5,1.1-2.1,2.1-3.1
				s2.6-0.5,4.2-1c2.1-0.5,3.7-2.6,4.7-4.7c0.5-1,1.1-2.1,1.6-2.6s1.6-1,2.1-1.6c4.2-2.1,7.4-6.3,8.4-11c0.5-2.1,0.5-4.2-1.1-5.2
				c-1.1-0.5-3.2-1.6-2.6-2.6c-1.6,0-3.2,0-3.7-1.6c-0.5-1,1.1-2.1,2.1-2.6c1.1,0,2.1,0.5,3.2,1c2.1,1,4.2,2.1,5.8,2.6
				c0.5-3.1,0-5.8,0.5-8.9c-2.1-1-3.7-2.6-4.2-4.7c-0.5-1-1.1-2.1-2.1-1.6c1.1-2.1,4.2-2.6,6.3-1.6c0.5-1,0.5-2.6,1.1-3.7
				c0.5-1,0.5-2.1,1.1-3.1c1.1-2.1,3.7-3.1,6.3-4.2c-1.1,4.2-2.6,8.9-3.7,13.1c-1.1,3.1-1.6,5.8-1.6,8.9c0,1,0.5,2.6,0.5,3.7
				c2.1-2.1,4.7-4.2,6.9-5.8c2.6-2.6,5.8-5.8,5.3-9.4c-1.1,0-2.1,0-3.2,0c0-3.7,0.5-7.8,1.6-11.5c0.5-1,2.1-0.5,3.2,0.5
				c0.5,1,1.1,2.1,2.1,2.6c0.5,0,1.1,0.5,1.1,1s0,1,0,1c-0.5,1.6-1.1,3.1-1.6,4.7c1.1,0.5,2.1,1,3.2,1c1.6-2.6,3.7-4.2,6.9-5.2
				c0.5-0.5,1.6-0.5,2.1-1c2.1-1.6,3.2-4.7,3.2-7.3c0-1,0.5-2.6,0.5-3.7c2.6-0.5,5.8,0,8.4,0.5c1.1,0.5,2.1,0.5,2.6,0
				c0.5,0,0.5-0.5,1.1-1c1.6-1,3.2,0,4.7,0.5c1.6,0.5,3.7,0,4.7-1.6c0.5-0.5,1.1-1.6,1.1-2.1s-0.5-1-0.5-1c-1.6-2.1-4.7-2.6-6.9-3.1
				c-1.1,0-2.1-0.5-3.2-0.5c-0.5,0-0.5,0-1.1,0c3.2-1,6.9-1.6,10-2.1c2.1-0.5,4.2-0.5,5.8,0.5c1.1,0.5,1.6,1.6,2.6,2.1
				c2.6,1.6,5.8,0.5,7.9,2.1c4.2-3.7,9-7.3,14.2-5.8c-0.5-1-1.1-2.6-0.5-4.2c-1.1-1-2.6-0.5-3.7,0c-3.2,1-6.3,2.6-9.5,3.7
				c-0.5-1-1.6-1.6-2.1-2.6c2.6-1.6,4.7-1.6,7.4-3.1c3.2-2.1,4.2-6.3,6.9-9.4c4.7-5.8,13.2-5.8,21.1-6.8c8.4-1,16.3-3.7,23.7-8.4
				c-0.5,0.5-0.5,1.6-0.5,2.1c6.3-0.5,12.1-2.6,16.9-5.8c1.6-1,3.7-2.6,5.3-1.6c1.6,1,1.6,3.1,2.6,3.7c1.1,0.5,2.1,0.5,3.2,0.5
				s2.1,0.5,2.6,1.6c0.5,1.6-1.1,2.6-2.6,2.6c-1.6,0-3.2-1-4.2-1c-1.1-0.5-2.6-0.5-3.7,0c-1.1,1-1.6,2.1-2.6,3.7
				c-0.5-0.5-1.1-0.5-1.1-1c-0.5-1-2.1-1-3.2-0.5c-1.6,0-3.2,0.5-4.7,0.5c-3.7,0.5-7.9,1.6-9.5,4.7c-1.1,2.6,0,5.8,1.1,8.9
				c0.5,0.5,0.5,1.6,1.1,1.6c1.1,1,3.2,1,4.2,0.5c1.1-0.5,2.6-1.6,4.2-2.1c2.1-1,4.7-1,6.9-1c6.9-0.5,13.2-3.1,18.5-6.8
				c1.6-1.6,3.2-2.6,5.3-3.7c3.7-1.6,7.4-0.5,11.6,0c0.5,0,1.6,0,2.1,0c1.6-1,0.5-3.7,2.1-4.7c0.5,0,1.1,0,1.6,0
				c1.1-2.1,3.2-2.6,5.3-2.1c0.5,1,0.5,2.1,1.1,3.1c0.5,1,1.1,2.6,2.1,2.6c1.6,0.5,3.2-1,3.7-2.6s1.1-2.6,1.1-4.2
				c-1.6-0.5-2.6-1-3.7-1.6c-0.5-1,0.5-1.6,1.6-2.1c1.1-1,1.1-3.1,1.1-4.7c-1.1,0-2.1-1-2.6-1.6c-1.6-0.5-3.2-0.5-4.2,0.5
				c-1.1,0.5-2.1,1-3.2,2.6c0,4.2-3.7,7.8-7.4,8.9c-4.2,1-8.4,0.5-12.7,0c-2.1-0.5-4.2-0.5-5.3-2.1c-1.1-1-1.1-2.1-2.1-3.1
				c-1.1-1.6-3.2-2.6-5.3-3.7c-0.5-0.5-1.1-1-1.6-1.6c0-0.5,0-1,0-1.6c1.1-3.7,2.1-7.8,5.3-9.9c1.6-1,3.7-2.1,3.2-3.7
				c-4.2-1-8.4-2.1-13.2-3.1c-2.1-0.5-4.7-1-5.3-3.1c-0.5-1.6,1.1-3.7,3.2-3.7s3.7,2.6,5.8,2.6c1.1,0,2.1-0.5,3.2-0.5
				c3.7-0.5,7.4,2.1,11.1,2.1c0.5,0,1.6,0,2.1-0.5s1.1-1,1.6-2.1c1.6-3.7,3.2-8.4,0.5-11c-2.6-2.1-6.3-1-9.5-1.6
				c-2.1-0.5-4.2-1-5.3-2.6c-2.1,0.5-3.7,1.6-4.2,3.1c-7.4-1.6-14.8,3.1-21.6,6.8c-6.3,3.7-12.7,6.3-19.5,8.9
				c-2.1,1-4.2,1.6-6.3,3.1c-2.6,2.1-4.7,4.7-6.9,7.8c-1.1-0.5-1.1-0.5-2.6-1c-0.5-0.5-1.1-0.5-2.1-1c1.1-1.6,1.1-3.1,2.1-4.7
				c1.6-2.6,4.2-4.2,7.4-5.8c6.3-3.1,12.1-5.8,19-7.8c3.2-1,5.8-1.6,8.4-3.1c2.1-1,3.7-3.1,5.8-4.7c6.9-4.7,16.9-4.7,23.2-10.5
				c4.7,3.1,10.5,3.1,16.3,2.6c3.7,0,7.9,0,11.6,0c1.1,0,2.1,0,3.7,0.5c0.5,0,1.6,0.5,2.1,1c2.6,1,5.3,3.1,7.9,3.7
				c5.3,1.6,10.5,3.1,15.8,4.7c1.1,0.5,2.1,0.5,2.6,0.5c1.1,0,1.6-1,2.1-1.6c6.3-7.8,16.9-13.1,27.4-13.6c1.1,0,2.6,0,3.7,0.5
				c1.6,0.5,2.6,1.6,3.7,2.1c3.2,0.5,6.9-3.1,9-1c1.6-1.6,2.6-3.7,3.7-6.3c-1.1-1-1.6-1.6-3.2-2.1c1.1-1,1.6-2.6,1.6-4.2
				c1.1,0,2.1,0,3.2,0c0.5,0,1.6,0,2.1-0.5s0.5-0.5,0.5-1c1.1-3.7,2.6-7.8,3.7-11.5c0-0.5,0-0.5,0-1s-1.1-1-1.6-1
				c-2.1,0-3.2,2.1-5.3,2.6c-2.1,0-3.2-1.6-4.7-2.6c-2.6-1-5.3,0-7.9,0.5c-6.9,2.1-14.8,5.8-20.6,2.1c-1.6-1-3.2-2.1-5.3-2.6
				c0.5-1.6,1.1-3.1,2.1-4.7c1.1,1.6,3.2,2.1,5.3,2.6c2.1,0,4.2,0,6.3-0.5c3.7-0.5,7.4-0.5,11.6,0c0.5-2.1,2.1-3.7,4.2-4.2
				s4.2,0,6.3,0c0.5-0.5,0-2.1-0.5-2.6s-1.6-0.5-2.6-1c-2.6-0.5-4.7-2.1-7.4-3.7c-3.2-2.1-6.3-3.7-9-5.8c-1.1-0.5-1.6-1-2.1-2.1
				c-0.5-0.5-0.5-1.6-0.5-2.6c-1.1-2.6-3.2-4.7-5.8-4.2c0-1.6,0-3.1,0-4.2c2.1,0.5,4.7,0.5,6.9,1c-0.5-2.1,0.5-4.2,1.1-6.8
				c0-1,0-1.6,0-2.6c0-2.1-0.5-3.7-0.5-5.8c0-0.5,0-1-0.5-1.6c0,0-0.5-0.5-1.1-0.5c-1.1-0.5-2.1-1.6-2.6-2.6c0.5-1,1.1-1.6,1.6-2.1
				s1.6-1,2.6-0.5c0-0.5,0-1,0-1.6c137.1,117.6,224.1,291.8,224.1,485.2C2144.1,1339.1,2001.2,1555.1,1793,1661.7z"/>
		</g>
		<path class="st2" d="M1845.7,735.7c-1.6-0.5-2.6-1.6-3.7-2.6s-1.6-2.1-2.6-3.1c-2.1,1.6-4.2,2.6-6.3,3.7c0,1,0,2.1,0,3.1
			c0,0.5,0,1,0.5,1.6c0,0,0.5,0.5,1.1,0.5c1.1,0.5,2.6,0.5,3.7,0.5c0.5,0,1.1,0,1.6,0c1.1,0.5,1.1,1.6,1.6,2.6c1.1,1,2.6,1,4.2,1
			c2.1,0,3.7-0.5,5.3-1c-0.5-2.1-0.5-4.2-0.5-6.3C1849.4,735.2,1847.8,736.2,1845.7,735.7z"/>
		<path class="st2" d="M1863.6,699.1c-3.2-1-7.4,1-10-0.5c0,1,0,1.6,0,2.6c0.5,0,0.5,0,1.1-0.5c0.5,1.6,1.1,3.1,2.1,4.7
			c0,0,0,0.5,0.5,0.5c0,0,0.5,0.5,1.1,0.5c1.1,0.5,2.6,0.5,3.2,1.6c0,0.5,0,1,0.5,1.6c0.5,0.5,1.1,0.5,2.1,1c3.2,0.5,6.3,0.5,9,1
			c0.5-1,1.1-2.6,1.6-3.7c-1.6-1.6-3.7-2.6-5.8-3.7C1866.3,702.8,1864.1,701.2,1863.6,699.1z"/>
		<path class="st2" d="M1939,734.7c0,0,0-0.5,0.5-0.5c3.2,0,6.3-0.5,9-2.1c0.5-1.6-0.5-3.7-2.1-4.7c-0.5-0.5-1.6-0.5-2.1-1
			s-1.6-1-1.1-2.1c2.1-1,4.2-2.6,6.9-3.7c0-0.5,0.5-1.6,0.5-2.1c-3.7-1-7.4-2.6-11.1-3.7c-2.6-1-5.8-2.1-8.4-2.6
			c0-0.5-0.5-1.6-1.1-1.6c1.1-0.5,2.6-1.6,2.6-3.1c-2.6,0-4.7,0-7.4,0.5c0-0.5,0-1.6,0-2.6c1.1,0,1.6-0.5,2.6-0.5c0.5,0,1.1,0,1.6,0
			c1.1-0.5,2.1-2.1,1.6-3.1c1.6-0.5,2.6-0.5,4.2,0c1.1-1.6,2.1-2.6,3.2-4.2c0.5-0.5,1.1-1.6,1.1-2.6s-0.5-2.1,0-3.1
			c-1.6,1-3.2,1.6-4.7,2.1c-1.6,0-3.2,0-4.2,1c-1.1,0.5-1.1,1.6-1.6,2.6c-3.7-0.5-6.9,2.6-10,2.1c-0.5,1-1.1,2.1-1.6,3.1
			c0,0.5-0.5,0.5-0.5,1c-0.5,0.5-0.5,0.5-1.1,0.5c-1.1,0-1.6,0.5-2.6,1c-2.1,2.6-0.5,7.3-2.6,9.4c-0.5,0.5-1.6,1-2.6,1.6
			c-3.2,1-5.8,2.6-9,3.7c-3.7,1.6-7.9,3.7-10,6.8c-0.5,0.5-0.5,1-1.1,2.1c1.1,1,2.1,2.6,3.2,4.2c10,1,21.1,2.1,31.1,3.1
			c0,1,0,1.6,0,2.6c-1.6,0.5-3.2,1.6-5.3,2.1c1.6,2.1,2.6,4.7,4.2,6.8c3.7-3.1,6.9-5.8,10.5-8.9c1.1,0.5,2.1,1,3.7,0.5
			C1935.8,737.3,1938,736.2,1939,734.7z"/>
		<path class="st2" d="M1944.3,737.3c-1.1,1-2.6,2.1-4.2,2.6c-2.1,0.5-3.7,1-5.8,2.6l-0.5,0.5v0.5c0,1.6,0,3.1,0.5,4.7
			c3.2,0.5,6.3,1,9.5,1c0.5-1.6,1.1-3.1,1.6-4.7c0.5-1,1.1-2.6,2.1-3.1c1.1-0.5,2.1-0.5,2.6-1c-0.5-0.5-1.1-1.6-1.1-2.6
			C1946.9,738.3,1945.3,738.3,1944.3,737.3z"/>
		<path class="st2" d="M1868.9,722.1c-0.5,1-1.1,2.1-2.1,3.1c0,0.5-0.5,0.5-1.1,1c-0.5,0-1.1,0-1.6,0c-1.6,0-3.7-0.5-5.3-0.5
			c-0.5,1,0,2.6,0.5,3.7c1.1-1,2.6-2.1,4.2-1c1.1,0.5,1.6,1.6,2.6,1.6c0.5,0,1.1-0.5,1.6-1c1.1-1,1.6-1.6,2.6-2.6l0.5-0.5
			c0-0.5,0-0.5-0.5-1C1870.5,723.7,1869.9,723.2,1868.9,722.1z"/>
		<path class="st2" d="M1262.1,587.2c0.5,0.5,0,1,0,2.1c0,1.6,0,3.1,0,4.7c0,0.5,0,1,0,1.6c0,0.5,1.1,0.5,1.1,0.5
			c2.1-3.1,3.7-5.8,5.8-8.9c0.5-0.5,0.5-1,1.1-1c0.5,0,0.5,0,1.1,0c0.5,0,1.1-1,1.1-1.6c1.6-4.2,3.2-8.9,3.7-13.6
			c-1.6,0-3.7-0.5-5.3-0.5c0-1-0.5-2.6-0.5-3.7c-2.1,0-4.7,0-6.9,0c-0.5,6.8-1.6,13.1-3.2,19.9
			C1261,586.2,1261.5,586.7,1262.1,587.2z"/>
		<path class="st2" d="M1268.9,612.3c1.1,0.5,1.1,2.1,1.6,3.1c0.5,1.6,2.6,2.1,3.7,3.1c1.6,2.1,0.5,5.8,2.1,7.3
			c2.1,2.1,5.3,1,7.9,1.6c0.5,1,0.5,2.6,1.1,3.7c0,1,0.5,2.1,1.1,2.6c0.5,0.5,1.6,0.5,2.1,0.5c2.1,0,4.2,0,6.9,0
			c1.6-2.6,0.5-6.3-2.1-7.8c0.5-1,0.5-2.6,1.1-3.7c0-0.5,0-1,0-1c0-0.5-0.5-1-1.1-1c-2.6-1.6-5.3-3.1-6.3-5.8
			c-0.5-1-0.5-2.1-1.1-3.1c-1.1-1.6-3.2-1.6-4.7-1.6c-3.7,0-7.4-0.5-11.1-0.5C1270,610.2,1269.4,611.3,1268.9,612.3z"/>
		<path class="st2" d="M1599,975.7c0.5,0,1.6,0,1.6-0.5s0-0.5,0-1c0-1.6,0.5-3.1,0.5-4.7c1.1,0,2.6-0.5,3.7-1h0.5
			c0.5-1.6-1.6-5.2-3.2-5.2c-0.5,0-1.1,0-1.6-0.5c-1.1-1,0-2.6-1.1-4.2c-0.5-1-3.2-1-3.2,0.5c0,0.5,0,1.6,0,2.1
			c0.5,1.6,0.5,3.7,0,5.2c-0.5,2.1-1.1,3.7-1.1,5.8C1595.8,973.6,1596.8,975.7,1599,975.7z"/>
		<path class="st2" d="M1598.4,945.9c1.1-1,3.2-1,4.2,0c0.5-1,0-2.6-0.5-3.7c-0.5-1-2.1-1.6-3.7-1c-1.6,0.5-2.1,2.6-2.1,4.7v0.5
			C1596.8,946.4,1597.9,945.9,1598.4,945.9z"/>
		<path class="st2" d="M1610,942.2c0,0.5,0,1,0,1c0,0.5,0,1.6,0.5,2.1s1.1,1,2.1,1c-0.5,2.6-0.5,5.2,0.5,7.3
			c1.1,0.5,2.6-0.5,3.2-1.6c0-0.5,0-1,0-1.6c-0.5-4.2-0.5-7.8-1.1-12c-3.2,1-6.9-1-7.4-3.7c-2.1,0-4.2,1.6-3.7,3.7
			c1.6,1.6,3.2,2.1,4.7,2.6C1609,941.7,1609.5,941.7,1610,942.2z"/>
		<path class="st2" d="M1613.7,962.1c-1.1,0-2.6,0-3.7,0.5c0,0.5,0,1,0,1.6c0.5,1,1.6,1,2.1,1c1.1,0,2.6,0.5,3.2,1
			c0.5,0.5,1.1,1,1.6,1c1.1,0.5,2.6,0,3.7-1s1.1-2.6,1.1-3.7c-1.1,0-2.1,0-3.2,0h-0.5c0,0,0-0.5,0-1c0-1,0-2.1,0-3.1
			C1615.3,958.4,1613.7,960,1613.7,962.1z"/>
		<path class="st2" d="M1621.1,977.3c0.5,0.5,1.6,0,1.6-1c0.5-0.5,0-1.6,0-2.1c1.1,0,2.1-1,2.1-2.1c0-1-0.5-2.1,0-3.1
			c-1.1,0-1.6,0-2.6,0.5c-1.1,2.6-1.6,4.7-2.6,7.3C1620.6,976.2,1621.1,976.8,1621.1,977.3z"/>
		<path class="st2" d="M1620.6,984.6c-2.1,1-3.2,3.1-3.2,5.2c1.6-0.5,3.2,0,3.7,1.6c2.1,0,4.2-2.6,3.7-4.7c0-1-1.1-2.1-1.1-3.1
			c0-0.5,0-0.5,0-1s-1.1-1.6-1.6-1c-0.5,0-1.6,0.5-1.6,1.6c0,0.5,0,0.5,0,1C1621.1,984.1,1620.6,984.6,1620.6,984.6z"/>
		<path class="st2" d="M1629,999.2c0,1-0.5,1.6-0.5,2.6c1.1,1.6,3.7,1,4.7-0.5c0.5-0.5,0.5-1.6,0.5-2.1c0-2.6,0.5-5.2,0.5-7.8
			c0-0.5,0-1,0-1.6c-0.5-0.5-1.1-0.5-1.1,0c-1.6,1-3.2,3.1-3.7,5.2c0,1-0.5,3.1-1.6,3.1C1627.4,998.2,1628.5,999.2,1629,999.2z"/>
		<path class="st2" d="M1640.6,1001.8c1.1,0,2.1-0.5,3.2-0.5c-0.5,0.5,0,1.6,0.5,1.6c0.5,0.5,1.1,0.5,2.1,0.5h0.5l0.5-0.5
			c0.5-1,0.5-2.6,1.1-3.7c-2.1,0.5-3.7,0.5-5.8,0c-0.5,0-1.1-0.5-1.6-0.5c-1.1,0-1.6,0.5-1.6,1.6
			C1639,1000.8,1639.5,1001.3,1640.6,1001.8z"/>
		<path class="st2" d="M1630.6,1012.8c-0.5,2.1,1.6,4.2,3.2,3.1c0.5,0,1.1-0.5,1.6-1c1.1-0.5,3.2,0,4.2-1c1.1-1,1.1-2.6,0.5-4.2
			c-1.1,0-2.1-0.5-3.2-0.5c-0.5,0-0.5,0-1.1,0s-0.5,0.5-0.5,0.5C1634.3,1011.8,1632.7,1012.8,1630.6,1012.8z"/>
		<path class="st2" d="M1588.9,1039.5c-1.6-1-0.5-3.1-1.6-4.7c-0.5-1-2.1-1-3.2-1c-1.1,0.5-2.1,1-2.6,2.1c0,0.5-0.5,1-1.1,1
			s-1.1,0-1.6,0c-1.1,0-2.1,1-3.2,0.5c-0.5,0-0.5-0.5-1.1-0.5c-1.6-1-3.7-0.5-4.7,1c1.6-0.5,2.6,0,3.7,1.6c0.5,1,1.1,2.6,0.5,4.2
			c2.1-1,4.7,0,6.3,1.6c0,0,0,0.5,0.5,0.5c0.5,0.5,1.6,0,2.6,0s1.6,1,2.6,1.6c1.6,1,3.2,1,4.7,0c1.1-0.5,1.6-1.6,2.1-2.6
			c1.1-1.6,1.1-3.1,0-4.2C1592.1,1039.5,1590,1040.5,1588.9,1039.5z"/>
		<path class="st2" d="M1621.1,1024.3c1.1-1,1.1-3.1,0-4.7c-1.1-1.6-3.7-3.1-3.7-3.1s-10.5-4.2-14.2-7.8c-3.2-3.1-5.3-6.8-7.9-10.5
			s-5.8-6.8-10.5-7.3c-3.2-0.5-6.3,0.5-9-1c-1.1-0.5-1.6-1.6-2.6-2.6c-5.8-6.3-15.3-7.3-24.3-8.4c0-1,0-2.1-0.5-3.1
			c-3.2,0-6.3,1.6-9.5,2.1s-6.9,0.5-9.5-1.6c-0.5,1.6-1.1,2.6-2.1,3.7c-1.1-0.5-2.1,0.5-3.2,1c-1.1,1.6-2.1,3.1-3.7,4.7
			c-1.1,1.6-2.6,4.2-0.5,5.2c6.3-1,13.2-2.6,19.5-4.7c2.6-1,4.7-2.1,7.4-1.6c2.6,0,5.3,2.1,5.3,4.7c2.1,1.6,5.3,0.5,7.4,1.6
			c3.2,1,5.3,4.7,7.9,7.3c3.2,2.6,7.9,3.7,11.1,6.3c3.7,3.1,4.7,8.9,9.5,10.5c1.1,0.5,2.6,0.5,3.7,1s2.1,1.6,1.6,3.1
			c-2.6,0.5-4.7,2.1-6.3,3.7c1.6,0.5,3.7,0.5,5.3,0.5c6.9,0,13.2,2.6,20,4.2C1614.8,1024.3,1618.5,1023.3,1621.1,1024.3z"/>
		<path class="st2" d="M1541.5,990.9c-1.1,0-2.6,0-3.7-0.5c-2.1,0-4.2,0.5-4.7,2.6c1.6,0,3.2,0.5,4.7,0.5s3.7,0,4.7-1.6
			c0-0.5,0-1,0-1C1542,990.9,1542,990.9,1541.5,990.9z"/>
		<path class="st2" d="M1673.3,1039c-3.2,1-6.9,1.6-9.5-0.5c-1.1-1-2.1-2.1-3.2-3.1c-3.7-4.2-9-5.8-14.8-6.3c-1.1,0-2.1-0.5-3.2,0
			c-1.1,0-1.6,0.5-2.1,1c-3.7,0.5-7.9,0.5-11.6-1c-1.6-0.5-3.7-1.6-5.3-1c0.5,0.5,0.5,1,0,1.6c1.1,0,2.1,1,2.1,2.1
			c1.6,0.5,3.2,1,4.7,1c0.5,0,1.6,0.5,1.6,1s0.5,1,0.5,1c0.5,2.1,0.5,4.2,1.1,6.3c-4.2,1.6-9-0.5-13.7-2.1c-0.5,0-1.6-0.5-2.1-0.5
			c-1.1,0-1.6,0.5-2.1,1.6c-1.1,0.5-1.6,1.6-2.6,2.1c1.6,1.6,3.7,2.1,5.8,2.6c1.1,0,1.6,0.5,2.1,1s1.1,2.1,1.6,2.6
			c1.1,0.5,2.1,0,3.7,0c3.7-1,7.4-1.6,11.1-0.5c0.5,0,1.6,0.5,2.1,1v0.5l0,0l0,0l0,0c2.1,0.5,3.7,3.1,4.7,4.7
			c1.1,2.1,3.2,4.2,5.3,4.2c1.1,0,2.1-0.5,3.2-1.6c7.4-4.7,16.3-7.3,24.3-4.2c0-1.6,0.5-2.6,1.1-3.7c2.1,1,5.3-2.1,4.2-4.2
			C1678,1045.2,1673.8,1042.6,1673.3,1039z"/>
		<path class="st2" d="M1280,540.7c1.6,0.5,3.2,0.5,4.7,1c0.5,1.6,1.1,3.1,0.5,4.7c1.1,0.5,2.1,0.5,3.7,1c-0.5,3.1-1.1,6.3-1.1,9.4
			c2.6,0.5,4.7,0.5,7.4,1c1.1-4.2,1.6-8.4,2.6-12c-1.6-0.5-2.6-1-3.2-2.1c-0.5,1-1.1,1.6-2.1,2.6c-1.1-1-1.1-2.6-1.6-3.7
			c-0.5-1-2.1-2.1-3.2-1c0-1-0.5-2.1-1.1-3.1c-0.5-1-0.5-2.1,0.5-2.6c1.1-1,2.6,0.5,4.2,1c0.5-1,1.1-2.6,1.6-3.7
			c0.5,2.1,0.5,4.2,0,6.3c1.6,0,3.2,0.5,4.7,1c-0.5-3.1-2.6-5.8-2.6-8.9c0-1.6,0.5-3.1-0.5-3.7c0.5-1,0.5-2.1,1.1-3.1
			c-1.1-1-3.2-0.5-4.2,1c-1.1,1-1.6,2.6-2.6,3.7c-1.6,1.6-3.7,2.1-5.3,1.6c0,1,0,2.1,0.5,3.1c-1.6,1-3.2,1-4.7,1c0,1.6,0,3.1,0,4.7
			c0,0.5,0,0.5,0,1C1279.5,540.7,1279.5,540.7,1280,540.7z"/>
		<path class="st2" d="M1433.9,1269.6c-0.5-1-1.1-2.6-2.6-2.6c-1.1,0-2.1,0.5-2.6,1.6c-1.6,1.6-3.2,3.1-3.7,5.2
			c2.1,1,3.7,1.6,5.8,2.6c1.1,0.5,2.1,1,3.2,1s2.1-1,2.1-2.6c0-0.5-0.5-1-1.1-1.6C1434.5,1272.2,1434.5,1270.6,1433.9,1269.6z"/>
		<path class="st2" d="M1425,1266.9c0.5-0.5,1.1-0.5,2.1-0.5c0.5-2.1,2.6-4.2,2.1-6.3c-0.5-1-1.1-2.1-2.1-2.6
			c-2.6-1.6-5.3-1.6-7.9-1c-0.5,0-1.6,0.5-1.6,1s0,0.5,0,1c0.5,3.7,4.2,6.3,7.9,5.8C1425,1265.4,1425,1266.4,1425,1266.9z"/>
		<path class="st2" d="M1734.4,1151.4c-1.1,0-1.6,0.5-2.1,1.6c-0.5,1.6-0.5,3.1,0.5,4.2c1.1,1,3.2,1,4.2-0.5
			c0.5-1.6-0.5-3.1-1.6-4.2C1735,1151.9,1735,1151.4,1734.4,1151.4z"/>
		<path class="st2" d="M1755,1125.2c-1.6-0.5-3.2,1-4.2,2.6c-0.5,1.6-1.1,3.1-1.1,4.7s0.5,4.2,2.1,4.2c0.5,0,1.1-0.5,1.6-0.5
			c1.6-1,3.2-2.1,3.2-3.7C1757.6,1130,1754.5,1127.9,1755,1125.2z"/>
		<path class="st2" d="M1738.7,1131.5c-2.6,0-4.7,2.6-4.7,5.2c0,1,0.5,2.1,1.6,2.1c0.5,0,0.5,0,1.1,0c1.1-0.5,2.1-1,3.7-1.6
			c1.1-0.5,2.1-1,2.1-1.6C1742.9,1133.6,1740.8,1131.5,1738.7,1131.5z"/>
		<path class="st2" d="M1747.1,1116.9c-1.1-1-2.6-0.5-3.7,0.5s-1.1,2.6-1.1,4.2c0,2.1,1.1,4.2,2.6,4.2c2.1,0,2.6-2.1,3.2-3.1
			c1.1-1.6-0.5-2.6-0.5-4.2C1747.6,1117.4,1747.6,1117.4,1747.1,1116.9z"/>
		<path class="st2" d="M1752.4,1109c-0.5-1-2.1-1.6-3.2-1.6c-1.6,0-3.2,0-4.2,0.5c-1.1,0.5-2.1,2.1-2.1,3.7c2.1,3.7,4.7,0,7.4,0.5
			c0.5,0,1.1,0,1.6,0C1752.9,1111.7,1752.9,1110.1,1752.4,1109z"/>
		<path class="st2" d="M1744.5,1099.6c-2.1,0.5-3.7,3.7-3.2,5.8c2.1,1.6,5.8,0,8.4-1c0.5,0,0.5-0.5,1.1-0.5c0-0.5,0-0.5,0-1
			C1749.7,1100.2,1746.6,1098.6,1744.5,1099.6z"/>
		<path class="st2" d="M1744.5,1094.9c2.1,0.5,3.7,1.6,5.8,0c0.5-0.5,1.1-0.5,1.1-1c0.5-1,0.5-2.1,0-3.1c-1.1-1.6-3.7-1.6-5.3,0
			C1744.5,1092.3,1742.9,1094.9,1744.5,1094.9z"/>
		<path class="st2" d="M1741.3,1087.1c0,0.5-0.5,1.6,0,2.6c0.5,0.5,1.6,1,2.1,0.5c-0.5-1.6,1.1-2.6,2.1-3.1s2.6-1,3.2-2.6
			c0-0.5,0-1.6-0.5-2.1c-1.1-1.6-3.2-1-4.7,0C1742.4,1083.4,1741.8,1085,1741.3,1087.1z"/>
		<path class="st2" d="M1736.6,1079.8c1.6,1,3.2,0.5,4.7,0c2.1-0.5,4.2-1.6,4.2-3.7c-0.5-1.6-2.6-2.1-3.7-1.6
			c-1.6,0.5-3.2,0-4.2,1.6C1736,1077.1,1736.6,1078.7,1736.6,1079.8z"/>
		<path class="st2" d="M1707,1075.1c0.5,0,1.6,0,2.1-0.5c2.1-0.5,4.2-2.1,4.2-4.2c0-1.6-2.1-2.6-3.7-3.1s-3.7-0.5-4.7-1
			c-1.6-0.5-2.6-2.1-4.2-2.1c-1.1,0-2.1,1-2.1,2.6s1.6,2.6,2.6,3.1c1.6,0.5,2.6,1,3.7,2.1C1705.5,1073,1706,1074.5,1707,1075.1z"/>
		<path class="st2" d="M1724.4,1066.2c-1.6,0.5-2.6,1-3.7,2.6c-0.5,1-1.1,3.1,0,4.2c1.6,1,3.7,0,5.3,0c0.5,0,1.1,0,1.6-0.5
			s0.5-0.5,1.1-1c0.5-1,1.1-2.1,1.1-3.1C1729.2,1065.6,1726.5,1065.6,1724.4,1066.2z"/>
		<path class="st2" d="M1709.1,1138.3c-1.6,0-3.7,1-4.2,2.6s0,3.1,1.1,4.2c2.1-0.5,4.2-1.6,6.3-2.1c1.1-0.5,2.1-1,1.6-1.6
			c0-0.5-0.5-0.5-0.5-1C1712.8,1138.8,1711.3,1138.3,1709.1,1138.3z"/>
	</g>
	<text transform="matrix(1 0 0 1 567.2124 2711.8108)" class="st3 st4 st5">A new way to help nature</text>
</g>
<g id="Layer_3">
</g>
</svg>
