<?xml version="1.0" encoding="utf-8"?>
<!-- Generator: Adobe Illustrator 22.0.1, SVG Export Plug-In . SVG Version: 6.00 Build 0)  -->
<svg version="1.1" id="Layer_1" xmlns="http://www.w3.org/2000/svg" xmlns:xlink="http://www.w3.org/1999/xlink" x="0px" y="0px"
	 viewBox="0 0 2141.3 877.7" style="enable-background:new 0 0 2141.3 877.7;" xml:space="preserve">
<style type="text/css">
	.st0{fill:#3F3A3A;}
	.st1{fill:#4F4D4D;}
	.st2{fill:#FFFFFF;fill-opacity:0;}
	.st3{fill:#6AB093;}
	.st4{fill:#548775;}
</style>
<g id="Layer_2_1_">
</g>
<g>
	<g transform="matrix(1, 0, 0, 1, -608.3052349090576, -335.1616506576538)">
		<g>
			<path class="st0" d="M2058.3,1146.3h-271.4c-27.7,0-50.3-25-50.3-56.1V457.8c0-30.9,22.4-56.1,50.3-56.1h271.4
				c27.7,0,50.3,25,50.3,56.1v632.4C2108.4,1121.3,2086,1146.3,2058.3,1146.3z"/>
			<g>
				<defs>
					<path id="SVGID_1_" d="M2054.8,1125.2h-263c-20.4,0-36.9-16.5-36.9-36.9V460.4c0-20.4,16.5-36.9,36.9-36.9h263
						c20.4,0,36.9,16.5,36.9,36.9v627.8C2091.7,1108.7,2075.2,1125.2,2054.8,1125.2z"/>
				</defs>
				<clipPath id="SVGID_2_">
					<use xlink:href="#SVGID_1_"  style="overflow:visible;"/>
				</clipPath>
				<g style="clip-path:url(#SVGID_2_);">
					
						<image style="overflow:visible;" width="698" height="1434" xlink:href="../../../../Desktop/Screenshot 2020-08-04 at 1.59.47 PM.png"  transform="matrix(0.4827 0 0 0.4893 1754.79 423.4932)">
					</image>
				</g>
			</g>
			<g>
				<g>
					<g>
						<path class="st1" d="M1962.5,432c0,3.6-2.6,6.5-5.8,6.5c-3.2,0-5.8-2.9-5.8-6.5c0-3.6,2.6-6.5,5.8-6.5
							C1959.8,425.4,1962.5,428.4,1962.5,432z"/>
					</g>
				</g>
				<path class="st1" d="M1940.3,435H1905c-1.6,0-2.7-1.3-2.7-3l0,0c0-1.7,1.2-3,2.7-3h35.3c1.6,0,2.7,1.3,2.7,3l0,0
					C1943,433.7,1941.8,435,1940.3,435z"/>
			</g>
		</g>
	</g>
</g>
<image style="overflow:visible;" width="438" height="438" xlink:href="../../../../EcoLife/Logo.png"  transform="matrix(1 0 0 1 44.8905 399.6654)">
</image>
<g>
	
		<rect id="ee-background_1_" x="575.3" y="151.8" transform="matrix(0.6178 -0.7863 0.7863 0.6178 82.4063 639.2739)" class="st2" width="247" height="166.2"/>
	<g transform="matrix(1, 0, 0, 1, -112.70720672607422, -587.4863204956055)">
		<g>
			<path class="st3" d="M880.9,723.5c0,0-35.6-1.8-68.9,12.6c-60.7,26.2-126.4,83.5-44.5,143c87.4,63.6,123.7-24.8,128.1-92
				C898,751.7,880.9,723.5,880.9,723.5z"/>
		</g>
		<g>
			<g>
				<path class="st4" d="M716.5,896.9c14.6,2.8,32-6.5,44.1-13.8c48.4-29.4,81.8-83.4,109.1-131.3c2.7-4.7-5-7.9-7.7-3.2
					c-26.5,46.7-58.7,97.5-105.1,127.1c-10.5,6.7-27.2,15.1-39.1,12.9C712.4,887.6,711.2,895.9,716.5,896.9L716.5,896.9z"/>
			</g>
		</g>
		<g>
			<g>
				<path class="st4" d="M802.6,767.4c1.4,10.9,6,21.3,11.9,30.4c12.4,18.8,33.9,24.9,55.6,22.6c5.4-0.6,4.4-8.9-0.9-8.4
					c-20.5,2.1-37.8-4-49.2-21.3c-4.6-7.1-8-16-9.1-24.4C810.2,761,801.9,762.1,802.6,767.4L802.6,767.4z"/>
			</g>
		</g>
		<g>
			<g>
				<path class="st4" d="M770.3,807.5c-0.2,12.1,2.8,24.9,8.7,35.3c13.7,23.7,39.7,28.3,65.3,23.9c5.3-0.9,4.4-9.2-0.9-8.4
					c-22.9,3.8-46.3,0.5-58-21.5c-3.1-5.9-4.9-12.5-6-19.1c-0.4-2.3-0.6-4.7-0.8-7.1c0-0.5-0.1-4.2-0.1-2.3
					C778.7,803.3,770.4,802.1,770.3,807.5L770.3,807.5z"/>
			</g>
		</g>
	</g>
</g>
<g>
	
		<rect id="ee-background_2_" x="691.3" y="407" transform="matrix(0.5655 -0.8247 0.8247 0.5655 -75.1029 819.412)" class="st2" width="97.7" height="147.9"/>
	<g transform="matrix(1, 0, 0, 1, -112.70720672607422, -587.4863204956055)">
		<g>
			<path class="st3" d="M914.6,1106.2c0,0-0.5-21.1-10.5-40.3c-18.2-35-55.1-71.9-86.9-21.5c-33.9,53.7,20.1,72.2,60.2,72.6
				C898.6,1117.2,914.6,1106.2,914.6,1106.2z"/>
		</g>
		<g>
			<g>
				<path class="st4" d="M804.5,1014.8c-1,8.7,5.3,18.7,10.1,25.6c19.6,27.6,53.1,45.6,82.8,60.1c2.9,1.4,4.4-3.2,1.6-4.6
					c-28.9-14.1-60.5-31.4-80.1-57.8c-4.5-6-10.2-15.6-9.4-22.7C809.8,1012.1,804.8,1011.7,804.5,1014.8L804.5,1014.8z"/>
			</g>
		</g>
		<g>
			<g>
				<path class="st4" d="M885.1,1061.4c-6.4,1.2-12.4,4.3-17.5,8c-10.6,8-13.3,20.9-11,33.6c0.6,3.2,5.5,2.3,4.9-0.8
					c-2.2-12,0.7-22.4,10.5-29.8c4-3,9.2-5.2,14.1-6.2C889.2,1065.6,888.3,1060.8,885.1,1061.4L885.1,1061.4z"/>
			</g>
		</g>
		<g>
			<g>
				<path class="st4" d="M859.9,1043.6c-7.2,0.3-14.7,2.5-20.6,6.3c-13.5,8.9-15.1,24.4-11.3,39.3c0.7,3.1,5.7,2.3,4.9-0.8
					c-3.3-13.4-2.3-27.3,10.2-34.9c3.3-2,7.2-3.3,11.1-4.2c1.4-0.3,2.8-0.5,4.2-0.7c0.3,0,2.5-0.2,1.4-0.1
					C862.8,1048.4,863.1,1043.5,859.9,1043.6L859.9,1043.6z"/>
			</g>
		</g>
	</g>
</g>
<g>
	<g transform="matrix(1, 0, 0, 1, -608.3052349090576, -335.1616506576538)">
		<g>
			<path class="st0" d="M2561.2,1146.3h-271.4c-27.7,0-50.3-25-50.3-56.1V457.8c0-30.9,22.4-56.1,50.3-56.1h271.4
				c27.7,0,50.3,25,50.3,56.1v632.4C2611.2,1121.3,2588.8,1146.3,2561.2,1146.3z"/>
			<g>
				<defs>
					<path id="SVGID_3_" d="M2557.6,1125.2h-263c-20.4,0-36.9-16.5-36.9-36.9V460.4c0-20.4,16.5-36.9,36.9-36.9h263
						c20.4,0,36.9,16.5,36.9,36.9v627.8C2594.6,1108.7,2578.1,1125.2,2557.6,1125.2z"/>
				</defs>
				<clipPath id="SVGID_4_">
					<use xlink:href="#SVGID_3_"  style="overflow:visible;"/>
				</clipPath>
				<g transform="matrix(1 0 0 1 0 0)" style="clip-path:url(#SVGID_4_);">
					
						<image style="overflow:visible;" width="696" height="1436" xlink:href="../../../../Desktop/Screenshot 2020-08-04 at 2.13.13 PM.png"  transform="matrix(0.5 0 0 0.4887 2250.0652 423.4932)">
					</image>
				</g>
			</g>
			<g>
				<g>
					<g>
						<path class="st1" d="M2465.3,432c0,3.6-2.6,6.5-5.8,6.5c-3.2,0-5.8-2.9-5.8-6.5c0-3.6,2.6-6.5,5.8-6.5
							C2462.7,425.4,2465.3,428.4,2465.3,432z"/>
					</g>
				</g>
				<path class="st1" d="M2443.1,435h-35.3c-1.6,0-2.7-1.3-2.7-3l0,0c0-1.7,1.2-3,2.7-3h35.3c1.6,0,2.7,1.3,2.7,3l0,0
					C2445.8,433.7,2444.7,435,2443.1,435z"/>
			</g>
		</g>
	</g>
</g>
</svg>
