<?xml version="1.0" encoding="utf-8"?>
<!-- Generator: Adobe Illustrator 22.0.1, SVG Export Plug-In . SVG Version: 6.00 Build 0)  -->
<svg version="1.1" id="Layer_1" xmlns="http://www.w3.org/2000/svg" xmlns:xlink="http://www.w3.org/1999/xlink" x="0px" y="0px"
	 viewBox="0 0 502.7 478" style="enable-background:new 0 0 502.7 478;" xml:space="preserve">
<style type="text/css">
	.st0{fill:#161616;}
	.st1{fill:url(#SVGID_1_);}
	.st2{fill:url(#SVGID_2_);}
	.st3{fill:#141212;}
</style>
<g id="Layer_11">
	<path class="st0" d="M333.1,33.5c-19.1-8.8-53.7-21.6-98-21c-81.3,1.1-135.1,46.4-146,56c-66.8,58.7-74.7,136.2-76,152
		c-1.1,13.8-6.8,103.4,62,175c61.4,64,139,68.4,155,69c65.5,2.3,113.2-24.7,131-36c10.7-61,21.3-122,32-183c-17.8-6.2-46-13.6-81-13
		c-31,0.5-56.1,7.1-73,13c0,7.7,0,15.3,0,23c15-6.8,40.4-15.9,73-17c27.8-0.9,50.3,4.3,65,9c-6.7,55.3-13.3,110.7-20,166
		c-18,11.2-64.2,36.4-127,34c-45.4-1.7-79.7-17.1-98-27c-19.4-24-76.4-101.1-76-212c0.2-68.8,22.4-121.6,37-150
		c15.7-13.5,67-53.9,142-55c43.1-0.6,76.8,12,96,21C331.7,36.2,332.4,34.8,333.1,33.5z"/>
	
		<linearGradient id="SVGID_1_" gradientUnits="userSpaceOnUse" x1="181.2856" y1="582.1674" x2="401.3091" y2="802.1909" gradientTransform="matrix(1 0 0 -1 0 934)">
		<stop  offset="4.006410e-05" style="stop-color:#5A288E"/>
		<stop  offset="0.3643" style="stop-color:#AA303E"/>
		<stop  offset="1" style="stop-color:#DA5B4D"/>
	</linearGradient>
	<path class="st1" d="M329.1,59.6c0.2,1,0.4,2,0.6,2.9c-7.2-0.9-33.3-3.8-59,1.4c-13.3,2.8-26.2,7.6-27,7.8c0,0-7.3,2.8-14,6.1
		c-12,5.9-60.6,43.1-76.1,103.2c-18.8,73.4,15.4,166.3,86.1,201.4c40.6,20.2,81.5,15.5,93.9,13.6c46.8-7.1,76.6-32.4,87.1-42.2
		c0.2,1,0.4,2,0.6,2.9c-12.1,11.1-41.8,35-86.9,43.2c-12.6,2.3-60.5,9.4-111.1-17.1c-13.4-7-41.3-23.9-63.3-57
		c-6.3-9.6-19.9-31.9-26-64c-2-10.9-12-69.1,21.7-123.3c2.9-4.6,13.8-21.8,33.6-38.9C211.6,80.5,233,71.5,241.9,68
		c13.1-4.9,23.7-7.2,27.9-8C294.1,55.3,315,57.1,329.1,59.6z"/>
	
		<linearGradient id="SVGID_2_" gradientUnits="userSpaceOnUse" x1="433.6477" y1="-73.9597" x2="462.1523" y2="-123.3315" gradientTransform="matrix(1 0 0 1 0 432.6456)">
		<stop  offset="4.006410e-05" style="stop-color:#5A288E"/>
		<stop  offset="0.3656" style="stop-color:#AA303E"/>
		<stop  offset="1" style="stop-color:#DA5B4D"/>
	</linearGradient>
	<circle class="st2" cx="447.9" cy="334" r="28.5"/>
	<circle class="st3" cx="485.9" cy="311" r="9.5"/>
</g>
</svg>
