<?xml version="1.0" encoding="utf-8"?>
<!-- Generator: Adobe Illustrator 22.0.1, SVG Export Plug-In . SVG Version: 6.00 Build 0)  -->
<svg version="1.1" id="Layer_1" xmlns="http://www.w3.org/2000/svg" xmlns:xlink="http://www.w3.org/1999/xlink" x="0px" y="0px"
	 viewBox="0 0 2141.3 877.7" style="enable-background:new 0 0 2141.3 877.7;" xml:space="preserve">
<style type="text/css">
	.st0{display:none;}
	.st1{display:inline;}
	.st2{fill:#86D780;}
	.st3{display:inline;fill:#23AA8F;}
	.st4{fill:#FFFFFF;fill-opacity:0;}
	.st5{opacity:0.15;}
	.st6{fill:#4D2C17;}
	.st7{fill:url(#SVGID_1_);}
	.st8{fill:#6498FF;}
	.st9{fill:url(#SVGID_2_);}
	.st10{fill:url(#SVGID_3_);}
	.st11{fill:url(#SVGID_4_);}
	.st12{fill:url(#SVGID_5_);}
	.st13{fill:url(#SVGID_6_);}
	.st14{fill:url(#SVGID_7_);}
	.st15{fill:url(#SVGID_8_);}
	.st16{fill:url(#SVGID_9_);}
	.st17{fill:url(#SVGID_10_);}
	.st18{fill:url(#SVGID_11_);}
	.st19{fill:url(#SVGID_12_);}
	.st20{fill:url(#SVGID_13_);}
	.st21{fill:url(#SVGID_14_);}
	.st22{fill:url(#SVGID_15_);}
	.st23{fill:url(#SVGID_16_);}
</style>
<g id="Layer_2_1_">
</g>
<g class="st0">
	<g transform="matrix(1, 0, 0, 1, -5.684341886080802e-14, 0)" class="st1">
		<g>
			<path class="st2" d="M1034.8,355.7c-63.3-92.6-135.6-144.3-209.1-149.8c-55.9-4.1-112.7,19.7-151.7,63.6
				c-39.4,44.4-84.8,68-138.8,72.4c-31.6,2.5-66.8-1.8-104.5-12.6c-40.9-11.8-86.3-31.8-134.9-59.3c-103.9-59-179.7-52.1-225-35.8
				c-48.9,17.5-73.6,49.2-73.8,49.4l0,0c11.4-13.9,34.9-38.7,72.7-53.6c10.7-4.3,42.7-15.9,94.8-10.3c41.9,4.5,86.7,20.1,133,46.5
				c169.8,96.4,288.7,96.5,373.9,0.4c18.2-20.5,40.9-37.4,65.8-48.7c28.5-13,58.4-18.5,88.9-16.2c35,2.6,69.8,15.4,103.3,38
				c38,25.6,74.5,63.7,108.6,113.5L1034.8,355.7z"/>
		</g>
		<g>
			<path class="st2" d="M1035.7,406.1c-63.3-92.6-135.6-144.3-209.1-149.8c-55.9-4.1-112.7,19.7-151.7,63.6
				c-39.4,44.4-84.8,68-138.8,72.4c-31.6,2.5-66.8-1.8-104.5-12.6c-40.9-11.8-86.3-31.8-134.9-59.3c-104-58.9-179.8-52-225.1-35.8
				C22.6,302-2.1,333.7-2.4,334l0,0c11.4-13.9,34.9-38.7,72.7-53.6c10.7-4.3,42.7-15.9,94.8-10.3c41.9,4.5,86.7,20.1,133,46.5
				c169.8,96.4,288.7,96.5,373.9,0.4c18.2-20.5,40.9-37.4,65.8-48.7c28.5-13,58.4-18.5,88.9-16.2c35,2.6,69.8,15.4,103.3,38
				c38,25.6,74.5,63.7,108.6,113.5L1035.7,406.1z"/>
		</g>
		<g>
			<path class="st2" d="M1036.6,456.5C973.3,364,900.9,312.2,827.4,306.8c-55.9-4.1-112.7,19.7-151.7,63.6
				c-39.4,44.4-84.8,68-138.8,72.4c-31.6,2.5-66.8-1.8-104.5-12.6c-41-11.8-86.4-31.8-135-59.3c-103.8-58.9-179.5-52.1-224.8-35.9
				c-49,17.4-73.8,49.3-74.1,49.5l0,0c11.4-13.9,34.9-38.7,72.7-53.6c10.7-4.3,42.7-15.9,94.8-10.3c41.9,4.5,86.7,20.1,133,46.5
				c169.8,96.4,288.7,96.5,373.9,0.4c18.2-20.5,40.9-37.4,65.8-48.7c28.5-13,58.4-18.5,88.9-16.2c35,2.6,69.8,15.4,103.3,38
				c38,25.6,74.5,63.7,108.6,113.5L1036.6,456.5z"/>
		</g>
		<g>
			<path class="st2" d="M1037.4,507c-63.3-92.6-135.6-144.3-209.1-149.8c-55.9-4.1-112.7,19.7-151.7,63.6
				c-39.4,44.4-84.8,68-138.8,72.4c-31.6,2.5-66.8-1.8-104.5-12.6c-40.9-11.8-86.3-31.8-134.9-59.3c-103.9-59-179.7-52.1-225-35.8
				c-48.9,17.5-73.6,49.2-73.8,49.4l0,0c11.4-13.9,34.9-38.7,72.7-53.6c10.7-4.3,42.7-15.9,94.8-10.3c41.9,4.5,86.7,20.1,133,46.5
				c169.8,96.4,288.7,96.5,373.9,0.4c18.2-20.5,40.9-37.4,65.8-48.7c28.5-13,58.4-18.5,88.9-16.2c35,2.6,69.8,15.4,103.3,38
				c38,25.6,74.5,63.7,108.6,113.5L1037.4,507z"/>
		</g>
		<g>
			<path class="st2" d="M1038.2,557.4C975,464.8,902.7,413.1,829.1,407.6c-55.9-4.1-112.7,19.7-151.7,63.6
				c-39.4,44.4-84.8,68-138.8,72.4c-31.6,2.5-66.8-1.8-104.5-12.6c-40.9-11.8-86.3-31.8-134.9-59.3c-103.9-59-179.7-52.1-225-35.8
				C25.2,453.3,0.5,485,0.3,485.3l0,0c11.4-13.9,34.9-38.7,72.7-53.6c10.7-4.3,42.7-15.9,94.8-10.3c41.9,4.5,86.7,20.1,133,46.5
				c169.8,96.4,288.7,96.5,373.9,0.4c18.2-20.5,40.9-37.4,65.8-48.7c28.5-13,58.4-18.5,88.9-16.2c35,2.6,69.8,15.4,103.3,38
				c38,25.6,74.5,63.7,108.6,113.5L1038.2,557.4z"/>
		</g>
	</g>
	<path class="st3" d="M469.7,514c0-0.2,0.1-0.4,0.1-0.6c0-0.2,0-0.4-0.1-0.5V386.3l-2.9-7.1v132c-4-0.1-11.8,3.2-20.7,8.8
		c-13,8.3-23.6,18.8-23.6,23.5c0,4.6,10.6,1.8,23.6-6.6c12.2-7.8,22.1-17.4,23.4-22.5h0.1L469.7,514L469.7,514z"/>
	<path class="st3" d="M626,458.8c0-0.2,0.1-0.4,0.1-0.6c0-0.2,0-0.4-0.1-0.5V331l-2.9-7.1v132c-4-0.1-11.8,3.2-20.7,8.8
		c-13,8.3-23.6,18.8-23.6,23.5s10.6,1.8,23.6-6.6c12.2-7.8,22.1-17.4,23.4-22.5h0.1L626,458.8L626,458.8z"/>
	<path class="st3" d="M626.1,323.1c0,0,11.8,24.2,38.6,30.4v28.2c0,0-0.4-12.3-14.4-15.5c-14-3.2-22.7-16.9-22.7-16.9L626.1,323.1z"
		/>
	<path class="st3" d="M985.2,291.1h0.2l-0.2-1.3v-22.3l-3.3-8.1l-62.1,13.2v26h-0.2l0.2,1.3v123.1c-4.6-0.1-13.4,3.6-23.5,10.1
		c-14.8,9.5-26.9,21.4-26.9,26.8c0,5.3,12,2,26.9-7.5c13.8-8.8,25.2-19.9,26.7-25.6h0.1v-0.5c0.1-0.3,0.1-0.4,0.1-0.7
		c0-0.2,0-0.4-0.1-0.6V300.6l58.8-9.2v118.3c-4.6-0.1-13.4,3.6-23.5,10.1c-14.8,9.5-26.9,21.4-26.9,26.8c0,5.3,12,2,26.9-7.5
		c13.8-8.8,25.2-19.9,26.7-25.6h0.1v-0.5c0.1-0.3,0.1-0.4,0.1-0.7c0-0.3,0-0.4-0.1-0.6L985.2,291.1L985.2,291.1z M923,298v-17.5
		l58.8-12.5v20.8L923,298z"/>
	<path class="st3" d="M176.2,276.9h0.2l-0.2-1.3v-22.3l-3.3-8.1l-62.1,13.2v26h-0.2l0.2,1.3v123.1c-4.6-0.1-13.4,3.6-23.5,10.1
		c-14.8,9.5-26.9,21.4-26.9,26.8s12,1.9,26.9-7.5c13.8-8.8,25.2-19.9,26.7-25.6h0.1V412c0.1-0.3,0.1-0.4,0.1-0.7
		c0-0.3,0-0.4-0.1-0.6V286.5l58.8-9.2v118.3c-4.6-0.1-13.4,3.6-23.5,10.1c-14.8,9.5-26.9,21.4-26.9,26.8s12,1.9,26.9-7.5
		c13.8-8.8,25.2-19.9,26.7-25.6h0.1v-0.5c0.1-0.3,0.1-0.4,0.1-0.7c0-0.3,0-0.4-0.1-0.6L176.2,276.9L176.2,276.9z M114.1,283.8v-17.5
		l58.8-12.5v20.8L114.1,283.8z"/>
</g>
<g>
	<rect id="ee-background_1_" x="904" y="89.5" class="st4" width="1133.9" height="679.8"/>
	<g transform="matrix(1, 0, 0, 1, -170.90025329589847, -31.76584815979004)" class="st5">
		<g>
			<g>
				<g>
					<g>
						<g>
							<g>
								<g>
									<path class="st6" d="M2073.6,744.5c0,20.2-15.9,36.5-35.8,36.5H1242c-19.9,0-35.8-16.3-35.8-36.5V192.3
										c0-20.2,15.9-36.5,35.8-36.5h795.7c19.5,0,35.8,16.3,35.8,36.5V744.5z"/>
								</g>
							</g>
						</g>
					</g>
				</g>
			</g>
		</g>
		<g>
			<g>
				<g>
					<g>
						<g>
							<g>
								<g>
									<path class="st6" d="M1546.2,744.1c0,0.9-0.4,1.8-0.4,3.1c0,7.9,6.2,14.5,14.1,14.5h160c8,0,14.1-6.6,14.1-14.5
										c0-0.9,0-2.2-0.4-3.1H1546.2z"/>
								</g>
							</g>
						</g>
					</g>
				</g>
			</g>
		</g>
		<g>
			<g>
				<g>
					<g>
						<g>
							<g>
								<g>
									<path class="st6" d="M1246,198.5h788.7v511.8H1246V198.5z"/>
								</g>
							</g>
						</g>
					</g>
				</g>
			</g>
		</g>
		<g>
			<g>
				<g>
					<g>
						<g>
							<g>
								<g>
									<path class="st6" d="M1645.2,180.5c0,3.1-2.2,5.3-5.3,5.3s-5.3-2.2-5.3-5.3s2.2-5.3,5.3-5.3S1645.2,177.4,1645.2,180.5z"/>
								</g>
							</g>
						</g>
					</g>
				</g>
			</g>
		</g>
		<g class="st5">
			<g>
				<g>
					<g>
						<g>
							<g>
								<g>
									<path class="st6" d="M1246,709.8l0.4-511.3h788.2L1246,709.8z"/>
								</g>
							</g>
						</g>
					</g>
				</g>
			</g>
		</g>
	</g>
	<g transform="matrix(1, 0, 0, 1, -170.9002532958985, -31.76584815979004)">
		<g>
			<g>
				<g>
					<g>
						<g>
							<path d="M2073.6,731c0,20.3-15.9,36.7-35.8,36.7H1242c-19.9,0-35.8-16.4-35.8-36.7V175.3c0-20.3,15.9-36.7,35.8-36.7h795.7
								c19.5,0,35.8,16.4,35.8,36.7V731z"/>
						</g>
					</g>
				</g>
			</g>
		</g>
	</g>
	<g transform="matrix(1, 0, 0, 1, -170.9002532958985, -31.76584815979004)">
		<g>
			<g>
				<g>
					<g>
						<g>
							<path d="M1082,752.2v9.7v1.3v0.4h0.4c22.1,28.7,37.6,24.3,42.4,24.3h515.9h442.1h81.8c7.5-0.9,19.5-5.7,34-24.3l0,0l0,0V762
								v-9.7L1082,752.2L1082,752.2z"/>
						</g>
					</g>
				</g>
			</g>
		</g>
	</g>
	<g transform="matrix(1, 0, 0, 1, -170.9002532958985, -31.76584815979004)">
		<g>
			<g>
				<g>
					<g>
						<g>
							<path d="M1082,730.6v33.2c4,0.4,8.4,0.9,13.3,0.9h1090.6c4.4,0,8.8-0.4,13.3-0.9v-33.2H1082z"/>
						</g>
					</g>
				</g>
			</g>
		</g>
	</g>
	<g transform="matrix(1, 0, 0, 1, -170.9002532958985, -31.76584815979004)">
		<g>
			<g>
				<g>
					<g>
						<g>
							<linearGradient id="SVGID_1_" gradientUnits="userSpaceOnUse" x1="1666.7968" y1="781.0796" x2="1614.7751" y2="690.9755">
								<stop  offset="0" style="stop-color:#00FFFF"/>
								<stop  offset="8.600253e-02" style="stop-color:#0BF4FF"/>
								<stop  offset="0.2365" style="stop-color:#28D7FF"/>
								<stop  offset="0.4335" style="stop-color:#57A8FF"/>
								<stop  offset="0.6697" style="stop-color:#9867FF"/>
								<stop  offset="0.9362" style="stop-color:#EA15FF"/>
								<stop  offset="1" style="stop-color:#FF00FF"/>
							</linearGradient>
							<path class="st7" d="M1546.2,730.6c0,0.9-0.4,1.8-0.4,3.1c0,8,6.2,14.6,14.1,14.6h160c8,0,14.1-6.6,14.1-14.6
								c0-0.9,0-2.2-0.4-3.1H1546.2z"/>
						</g>
					</g>
				</g>
			</g>
		</g>
	</g>
	<g transform="matrix(1, 0, 0, 1, -170.9002532958985, -31.76584815979004)">
		<g>
			<g>
				<g>
					<g>
						<g>
							<path class="st8" d="M1246,181.5h788.7v515H1246V181.5z"/>
						</g>
					</g>
				</g>
			</g>
		</g>
	</g>
	
		<image style="overflow:visible;" width="2878" height="1616" xlink:href="../../../../Desktop/Screenshot 2020-07-29 at 7.41.34 PM.png"  transform="matrix(0.274 0 0 0.3187 1075.126 149.7499)">
	</image>
</g>
<g>
	<path d="M508.8,978.9l-85,65.2v-63.9h-57v197h57v-67l85,65.2V978.9z"/>
	
		<linearGradient id="SVGID_2_" gradientUnits="userSpaceOnUse" x1="-309.8426" y1="-66.5995" x2="-163.8426" y2="-66.5995" gradientTransform="matrix(1 0 0 -1 674.65 1010.55)">
		<stop  offset="0" style="stop-color:#FF00FF"/>
		<stop  offset="1" style="stop-color:#00FFFF"/>
	</linearGradient>
	<path class="st9" d="M510.8,1179.5l-85-65.3v65h-61v-201h61v61.8l85-65.2V1179.5z M368.8,1175.2h53v-69.1l85,65.2V982.9l-85,65.3
		v-66h-53V1175.2z"/>
	<path d="M1407.8,980.2v63.9l-85-65.2v196.5l85-65.2v67h57v-197H1407.8z"/>
	
		<linearGradient id="SVGID_3_" gradientUnits="userSpaceOnUse" x1="646.1573" y1="-66.5995" x2="792.1573" y2="-66.5995" gradientTransform="matrix(1 0 0 -1 674.65 1010.55)">
		<stop  offset="0" style="stop-color:#00FFFF"/>
		<stop  offset="1" style="stop-color:#FF00FF"/>
	</linearGradient>
	<path class="st10" d="M1320.8,1179.5V974.8l85,65.2v-61.8h61v201h-61v-65L1320.8,1179.5z M1409.8,1175.2h53v-193h-53v66l-85-65.2
		v188.4l85-65.2V1175.2z"/>
	<path d="M1488.9,1395.8l-128.1-98.3v49.1l-64-49.1v196.6l64-49.1v49.1L1488.9,1395.8z"/>
	
		<linearGradient id="SVGID_4_" gradientUnits="userSpaceOnUse" x1="620.1573" y1="-385.2495" x2="817.4574" y2="-385.2495" gradientTransform="matrix(1 0 0 -1 674.65 1010.55)">
		<stop  offset="0" style="stop-color:#00FFFF"/>
		<stop  offset="1" style="stop-color:#FF00FF"/>
	</linearGradient>
	<path class="st11" d="M1358.8,1498.1V1449l-64,49.1v-204.6l64,49.1v-49.1l133.3,102.3L1358.8,1498.1z M1298.8,1301.6V1490l64-49.1
		v49.1l122.8-94.2l-122.8-94.2v49.1L1298.8,1301.6z"/>
	<path d="M532.8,1297.5l-64,49.1v-49.1l-128.1,98.3l128.1,98.3V1445l64,49.1V1297.5z"/>
	
		<linearGradient id="SVGID_5_" gradientUnits="userSpaceOnUse" x1="-337.1426" y1="-385.2495" x2="-139.8426" y2="-385.2495" gradientTransform="matrix(1 0 0 -1 674.65 1010.55)">
		<stop  offset="0" style="stop-color:#00FFFF"/>
		<stop  offset="1" style="stop-color:#FF00FF"/>
	</linearGradient>
	<path class="st12" d="M534.8,1498.1l-64-49.1v49.1l-133.3-102.3l133.3-102.3v49.1l64-49.1V1498.1z M466.8,1440.9l64,49.1v-188.4
		l-64,49.1v-49.1L344,1395.8l122.8,94.2V1440.9z"/>
	<path d="M835.6,978.3l127.2,99.5l0,0l-129,97L835.6,978.3z"/>
	
		<linearGradient id="SVGID_6_" gradientUnits="userSpaceOnUse" x1="1083.209" y1="1508.4128" x2="1216.5089" y2="1508.4128" gradientTransform="matrix(-1 -9.312360e-03 -9.312360e-03 1 2063.2134 -420.4845)">
		<stop  offset="0" style="stop-color:#FF00FF"/>
		<stop  offset="1" style="stop-color:#00FFFF"/>
	</linearGradient>
	<path class="st13" d="M833.7,974.2L966,1077.8l-134.2,101.1L833.7,974.2z M959.5,1077.8l-121.9-95.4l-1.8,188.5L959.5,1077.8z"/>
	<path d="M549.8,1766.4l1-161.9l-22,5.1v0.2l-137,27.7v1.3v17.8v118c-6-3.1-13.9-4.9-22.6-4.9c-25.1,0-45,15.2-45,33.9
		c0,18.7,20.6,34.9,45.8,34.9c24.9,0,45.3-14.3,45.8-32.3h-2v-154l115-23.3v111.3c-6-3-13.8-4.8-22.4-4.8c-25.1,0-45,15.2-45,33.9
		c0,18.7,20.6,33.9,45.8,33.9c25.1,0,43.7-15.2,43.7-33.9C550.8,1768.3,550.8,1767.4,549.8,1766.4z"/>
	
		<linearGradient id="SVGID_7_" gradientUnits="userSpaceOnUse" x1="-352.4426" y1="-710.6995" x2="-121.7982" y2="-710.6995" gradientTransform="matrix(1 0 0 -1 674.65 1010.55)">
		<stop  offset="0" style="stop-color:#00FFFF"/>
		<stop  offset="1" style="stop-color:#FF00FF"/>
	</linearGradient>
	<path class="st14" d="M370,1840.5c-25.9,0-47.8-16.9-47.8-36.9c0-19.8,21.1-35.9,47-35.9c7.5,0,14.7,1.3,20.6,3.8V1636l137-27.8
		v-0.2l26-6v163.6c0.1,2.5,0,2.8,0,3.6c0,20.1-19.5,35.9-45.7,35.9c-26.3,0-47.8-16.1-47.8-35.9s21.1-35.9,47-35.9
		c7.4,0,14.5,1.3,20.4,3.7v-105.7l-111,22.5v150.4l0,0v2C415.3,1825.4,396.3,1840.5,370,1840.5z M548.8,1767.2v-160.1l-18,4.2v0.2
		l-137,27.7v138.7l-2.9-1.5c-5.8-3-13.5-4.7-21.7-4.7c-23.7,0-43,14.3-43,31.9c0,17.8,20,32.9,43.8,32.9c22.8,0,39.9-13.5,41.8-29.3
		v1v-157.6l119-24.1v117l-2.9-1.5c-5.8-3-13.4-4.6-21.5-4.6c-23.7,0-43,14.3-43,31.9c0,17.6,19.6,31.9,43.8,31.9
		c23.9,0,41.7-14.1,41.7-31.9"/>
	<g transform="matrix(1, 0, 0, 1, -2.842170943040401e-14, 0)">
		<path d="M827.8,1300.2h56v196h-56V1300.2z"/>
		
			<linearGradient id="SVGID_8_" gradientUnits="userSpaceOnUse" x1="151.1574" y1="-387.6495" x2="211.1574" y2="-387.6495" gradientTransform="matrix(1 0 0 -1 674.65 1010.55)">
			<stop  offset="0" style="stop-color:#00FFFF"/>
			<stop  offset="1" style="stop-color:#FF00FF"/>
		</linearGradient>
		<path class="st15" d="M885.8,1498.2h-60v-200h60V1498.2z M829.8,1494.2h52v-192h-52V1494.2z"/>
	</g>
	<path d="M915.8,1300.2h56v196h-56V1300.2z"/>
	
		<linearGradient id="SVGID_9_" gradientUnits="userSpaceOnUse" x1="239.1574" y1="-387.6495" x2="299.1574" y2="-387.6495" gradientTransform="matrix(1 0 0 -1 674.65 1010.55)">
		<stop  offset="0" style="stop-color:#00FFFF"/>
		<stop  offset="1" style="stop-color:#FF00FF"/>
	</linearGradient>
	<path class="st16" d="M973.8,1498.2h-60v-200h60V1498.2z M917.8,1494.2h52v-192h-52V1494.2z"/>
	<path d="M808.8,1632.2h181v182h-181V1632.2z"/>
	
		<linearGradient id="SVGID_10_" gradientUnits="userSpaceOnUse" x1="132.1574" y1="-712.6495" x2="317.1574" y2="-712.6495" gradientTransform="matrix(1 0 0 -1 674.65 1010.55)">
		<stop  offset="0" style="stop-color:#00FFFF"/>
		<stop  offset="1" style="stop-color:#FF00FF"/>
	</linearGradient>
	<path class="st17" d="M991.8,1816.2h-185v-186h185V1816.2z M810.8,1812.2h177v-178h-177V1812.2z"/>
	<g transform="matrix(1, 0, 0, 1, -2.842170943040401e-14, 0)">
		<path d="M1401.5,1634l-78.5,46.2h-43.2v85h42v-1l77.6,44.4l13.4,3.3v-181.7L1401.5,1634z"/>
		
			<linearGradient id="SVGID_11_" gradientUnits="userSpaceOnUse" x1="603.1573" y1="-710.3495" x2="740.1573" y2="-710.3495" gradientTransform="matrix(1 0 0 -1 674.65 1010.55)">
			<stop  offset="0" style="stop-color:#00FFFF"/>
			<stop  offset="1" style="stop-color:#FF00FF"/>
		</linearGradient>
		<path class="st18" d="M1414.8,1814.4l-16.1-3.9l-0.2-0.1l-75.4-43.2h-45.3v-89h44.7l78.2-46l14.1-4.8L1414.8,1814.4L1414.8,1814.4
			z M1400.2,1806.8l10.6,2.6V1633l-8.4,2.9l-78.8,46.3h-41.8v81h38l4,0.1L1400.2,1806.8z"/>
	</g>
	<g transform="matrix(1, 0, 0, 1, -5.684341886080802e-14, 0)">
		<path d="M1476.9,1646.2l-12.4,12.4c15.6,16.9,25.1,39.4,25.1,64.1c0,25.2-9.9,48-26,65l12.4,12.4c19.3-20.2,31.1-47.4,31.1-77.4
			C1507.2,1693.2,1495.7,1666.3,1476.9,1646.2z"/>
		
			<linearGradient id="SVGID_12_" gradientUnits="userSpaceOnUse" x1="786.2574" y1="-712.7495" x2="834.5729" y2="-712.7495" gradientTransform="matrix(1 0 0 -1 674.65 1010.55)">
			<stop  offset="0" style="stop-color:#00FFFF"/>
			<stop  offset="1" style="stop-color:#FF00FF"/>
		</linearGradient>
		<path class="st19" d="M1476.1,1803.1l-15.2-15.2l1.3-1.4c16.4-17.3,25.4-39.9,25.4-63.6c0-23.3-8.7-45.6-24.6-62.8l-1.3-1.4
			l15.2-15.2l1.4,1.5c19.9,21.3,30.8,48.9,30.8,77.9c0,29.4-11.2,57.4-31.7,78.8L1476.1,1803.1z M1466.5,1787.8l9.6,9.6
			c18.8-20.4,29.2-46.8,29.2-74.6c0-27.3-10-53.4-28.3-73.7l-9.6,9.6c15.7,17.7,24.4,40.4,24.4,64.1
			C1491.6,1746.9,1482.7,1769.9,1466.5,1787.8z"/>
	</g>
	<path d="M1448.6,1674.5l-12.5,12.5c8.4,9.6,13.5,22.1,13.5,35.8c0,14.1-5.4,27-14.3,36.7l12.5,12.5c12-12.9,19.4-30.2,19.4-49.2
		C1467.2,1704.2,1460.2,1687.3,1448.6,1674.5z"/>
	
		<linearGradient id="SVGID_13_" gradientUnits="userSpaceOnUse" x1="757.9573" y1="-712.5994" x2="794.5618" y2="-712.5994" gradientTransform="matrix(1 0 0 -1 674.65 1010.55)">
		<stop  offset="0" style="stop-color:#00FFFF"/>
		<stop  offset="1" style="stop-color:#FF00FF"/>
	</linearGradient>
	<path class="st20" d="M1447.9,1774.8l-15.3-15.3l1.3-1.4c8.9-9.8,13.8-22.3,13.8-35.4c0-12.6-4.6-24.9-13-34.5l-1.2-1.4l15.3-15.3
		l1.4,1.6c12.3,13.7,19.1,31.3,19.1,49.6c0,18.8-7.1,36.7-19.9,50.5L1447.9,1774.8z M1438.1,1759.4l9.6,9.6
		c11.3-12.8,17.5-29.2,17.5-46.3c0-16.6-5.9-32.7-16.7-45.3l-9.7,9.7c8.2,10.1,12.8,22.7,12.8,35.7
		C1451.6,1736.2,1446.8,1749.1,1438.1,1759.4z"/>
</g>
<path d="M282.8,301.9l-85,65.2v-63.9h-57v197h57v-67l85,65.2V301.9z"/>
<linearGradient id="SVGID_14_" gradientUnits="userSpaceOnUse" x1="-535.8929" y1="609.5312" x2="-389.8929" y2="609.5312" gradientTransform="matrix(1 0 0 -1 674.65 1010.55)">
	<stop  offset="0" style="stop-color:#FF00FF"/>
	<stop  offset="1" style="stop-color:#00FFFF"/>
</linearGradient>
<path class="st21" d="M284.8,503.4l-85-65.3v65h-61v-201h61v61.8l85-65.2V503.4z M142.8,499.1h53V430l85,65.2V306.8l-85,65.3v-66
	h-53V499.1z"/>
<path d="M755.9,303.2v63.9l-85-65.2v196.5l85-65.2v67h57v-197H755.9z"/>
<linearGradient id="SVGID_15_" gradientUnits="userSpaceOnUse" x1="-5.7027" y1="609.5312" x2="140.2973" y2="609.5312" gradientTransform="matrix(1 0 0 -1 674.65 1010.55)">
	<stop  offset="0" style="stop-color:#00FFFF"/>
	<stop  offset="1" style="stop-color:#FF00FF"/>
</linearGradient>
<path class="st22" d="M668.9,503.4V298.7l85,65.2v-61.8h61v201h-61v-65L668.9,503.4z M757.9,499.1h53v-193h-53v66l-85-65.2v188.4
	l85-65.2V499.1z"/>
<path d="M395.4,269.8l179.7,132.9l0,0L392.9,532.3L395.4,269.8z"/>
<linearGradient id="SVGID_16_" gradientUnits="userSpaceOnUse" x1="1475.7932" y1="837.0368" x2="1664.234" y2="837.0368" gradientTransform="matrix(-1 -9.312360e-03 -9.312360e-03 1 2063.2134 -420.4845)">
	<stop  offset="0" style="stop-color:#FF00FF"/>
	<stop  offset="1" style="stop-color:#00FFFF"/>
</linearGradient>
<path class="st23" d="M392.7,264.3l187,138.4L390,537.7L392.7,264.3z M570.5,402.7L398.2,275.2L395.7,527L570.5,402.7z"/>
</svg>
