<?xml version="1.0" encoding="utf-8"?>
<!-- Generator: Adobe Illustrator 22.0.1, SVG Export Plug-In . SVG Version: 6.00 Build 0)  -->
<svg version="1.1" id="Layer_1" xmlns="http://www.w3.org/2000/svg" xmlns:xlink="http://www.w3.org/1999/xlink" x="0px" y="0px"
	 viewBox="0 0 1700.8 1700.8" style="enable-background:new 0 0 1700.8 1700.8;" xml:space="preserve">
<style type="text/css">
	.st0{fill:none;stroke:#23AA8F;stroke-width:38.2929;stroke-miterlimit:10;}
	.st1{fill:#23AA8F;}
	.st2{fill:#2A4858;}
</style>
<g id="Layer_1_1_">
	<g id="Headphones">
		<path class="st0" d="M455.9,1058.1l-67.9-9.4c-53.8-7.5-92.2-64.6-85.5-126.9l24-222.4c6.7-62.3,56.2-107.2,109.9-99.8l67.9,9.4
			c53.8,7.5,92.2,64.6,85.5,126.9l-24,222.4C559.1,1020.6,509.6,1065.5,455.9,1058.1z"/>
		<path class="st0" d="M1216.3,1271.2l-64.6-25.6c-51.2-20.3-78.6-85.4-60.8-144.9l63.2-212c17.7-59.4,74.1-91.5,125.3-71.3
			l64.6,25.6c51.2,20.3,78.6,85.4,60.8,144.9l-63.2,212C1323.8,1259.4,1267.5,1291.5,1216.3,1271.2z"/>
		<path class="st0" d="M404.1,600.8c65.2-325.8,353.1-522.1,617.5-437.9c249.7,79.6,408.1,387.2,344.9,694.1
			c-33.5-14.4-67.1-28.7-100.6-43.2C1298.5,581.7,1178,360,994,297c-199.6-68.3-422.8,67.8-489.6,312.2
			C471,606.4,437.5,603.6,404.1,600.8z"/>
		<path class="st1" d="M1399.1,1216.7l-37.3-14.8c-11.7-4.6-17.9-19.4-13.9-33.1l45.2-151.5c4.1-13.5,16.9-20.8,28.5-16.2l37.3,14.8
			c11.7,4.6,17.9,19.4,13.9,33.1l-45.2,151.5C1423.6,1213.9,1410.7,1221.3,1399.1,1216.7z"/>
		<path class="st1" d="M285.6,913.1l-39.1-5.4c-12.2-1.7-21-14.7-19.5-29L244,719.9c1.5-14.2,12.8-24.4,25.1-22.7l39.1,5.4
			c12.2,1.7,21,14.7,19.5,29l-17.1,158.9C309.1,904.6,297.9,914.8,285.6,913.1z"/>
	</g>
</g>
<g>
	<g>
		<path class="st2" d="M658,1557.4v-161.8l-72,125.7h-12.3l-72.2-125.7v161.8h-19.6v-198.8h20.2l77.6,136.1l78.1-136.1h19.9v198.8
			H658z"/>
		<path class="st2" d="M723.6,1381v-28h19v28H723.6z M723.6,1557.4v-145.9h19v145.9H723.6z"/>
		<path class="st2" d="M789.1,1412l42.8,56.9l2.2,4.2l2.2-4.2L879,1412h21.6l-55.4,73.1l55.4,72.2H879l-42.6-56.6l-2.2-3.9l-2.2,3.9
			l-42.6,56.6h-21.6l55.2-72.2l-55.2-73.1H789.1z"/>
		<path class="st2" d="M924.3,1497.4V1412h19v82c0,16.5,2.8,28.9,8.5,37.1c5.7,8.2,14.1,12.3,25.3,12.3c7.5,0,14.7-1.6,21.7-4.9
			c7-3.2,13.2-7.9,18.6-13.9c5.4-6,9.5-13,12.3-21V1412h19v122.4c0,2.6,0.6,4.5,1.7,5.7c1.1,1.2,2.8,1.9,5,2.1v15.1
			c-2.2,0.2-4,0.3-5.3,0.4c-1.3,0.1-2.5,0.1-3.6,0.1c-3.7-0.4-7-1.9-9.7-4.5c-2.7-2.6-4.2-5.8-4.3-9.5l-0.6-19.5
			c-6.3,11.2-15,19.9-25.9,26.2c-10.9,6.3-22.7,9.5-35.4,9.5c-15.3,0-26.9-5.3-34.7-15.9C928.2,1533.7,924.3,1518,924.3,1497.4z"/>
		<path class="st2" d="M1166.5,1560.2c-12.1,0-23-3.2-32.6-9.5c-9.6-6.3-17.2-14.1-22.8-23.4v89.7h-19v-205h17.1v28.4
			c5.8-9.1,13.5-16.5,23.2-22.1c9.7-5.7,20.1-8.5,31.1-8.5c10.1,0,19.3,2.1,27.7,6.3c8.4,4.2,15.7,9.8,21.8,16.8
			c6.2,7.1,11,15.1,14.4,24.1c3.5,9,5.2,18.3,5.2,28c0,13.6-2.8,26-8.3,37.5c-5.5,11.4-13.2,20.6-23.1,27.4
			C1191.3,1556.7,1179.8,1560.2,1166.5,1560.2z M1161.2,1543.4c8,0,15.2-1.6,21.6-4.9c6.3-3.2,11.8-7.6,16.4-13.2
			c4.6-5.6,8.1-11.8,10.5-18.8c2.4-6.9,3.6-14.1,3.6-21.5c0-7.8-1.4-15.2-4.1-22.2c-2.7-7-6.6-13.3-11.6-18.6
			c-5-5.4-10.8-9.6-17.4-12.8c-6.5-3.1-13.6-4.7-21.3-4.7c-4.9,0-9.9,0.9-15.1,2.8c-5.2,1.9-10.2,4.5-15,7.9
			c-4.8,3.4-8.7,7.3-11.9,11.5c-3.2,4.3-5.1,8.8-5.9,13.6v44.6c3,6.9,7,13,12,18.5s10.9,9.8,17.5,13.1
			C1147.2,1541.7,1154.1,1543.4,1161.2,1543.4z"/>
	</g>
</g>
</svg>
