<?xml version="1.0" encoding="utf-8"?>
<!-- Generator: Adobe Illustrator 22.0.1, SVG Export Plug-In . SVG Version: 6.00 Build 0)  -->
<svg version="1.1" xmlns="http://www.w3.org/2000/svg" xmlns:xlink="http://www.w3.org/1999/xlink" x="0px" y="0px"
	 viewBox="0 0 2834.6 2834.6" style="enable-background:new 0 0 2834.6 2834.6;" xml:space="preserve">
<style type="text/css">
	.st0{fill:url(#SVGID_1_);}
	.st1{fill:none;stroke:#FFFFFF;stroke-width:50;stroke-miterlimit:10;}
	.st2{fill:none;stroke:#FFFFFF;stroke-width:40;stroke-miterlimit:10;}
	.st3{fill:#FFFFFF;}
	.st4{fill:none;stroke:#FFFFFF;stroke-width:16;stroke-miterlimit:10;}
</style>
<g id="Layer_1">
	<g>
		<linearGradient id="SVGID_1_" gradientUnits="userSpaceOnUse" x1="-259.2665" y1="2385.3291" x2="3093.3916" y2="449.671">
			<stop  offset="0" style="stop-color:#4165AB"/>
			<stop  offset="0.1663" style="stop-color:#4A66A9"/>
			<stop  offset="0.356" style="stop-color:#5B67A6"/>
			<stop  offset="0.7293" style="stop-color:#ED7E7E"/>
			<stop  offset="1" style="stop-color:#A4AFF7"/>
		</linearGradient>
		<rect x="0.1" y="0.5" class="st0" width="2834" height="2834"/>
		<path d="M2833.6,1v2833H0.6V1H2833.6 M2834.6,0H-0.4v2835h2835V0L2834.6,0z"/>
	</g>
	<g id="Headphones">
		<path class="st1" d="M852.5,1687l-94.9-11.5c-75.2-9.1-129-78.7-119.6-154.7l33.5-271.1c9.4-76,78.6-130.7,153.7-121.6l94.9,11.5
			c75.2,9.1,129,78.7,119.6,154.7l-33.5,271.1C996.8,1641.3,927.6,1696.1,852.5,1687z"/>
		<path class="st1" d="M1915.9,1946.8l-90.4-31.2c-71.6-24.7-109.9-104.1-85.1-176.6l88.4-258.4c24.8-72.4,103.6-111.5,175.2-86.9
			l90.4,31.2c71.6,24.7,109.9,104.1,85.1,176.6l-88.4,258.4C2066.3,1932.4,1987.5,1971.5,1915.9,1946.8z"/>
		<path class="st2" d="M780,1129.6c91.2-397.1,493.9-636.4,863.6-533.8c349.3,97,570.8,472,482.4,846.1
			c-46.9-17.5-93.8-35-140.7-52.6c45.6-283-122.9-553.3-380.3-630.1c-279.2-83.3-591.4,82.7-684.8,380.6
			C873.5,1136.4,826.7,1133,780,1129.6z"/>
		<path class="st3" d="M2171.6,1880.3l-52.1-18c-16.3-5.6-25-23.7-19.4-40.3l63.2-184.7c5.7-16.5,23.6-25.4,39.9-19.8l52.1,18
			c16.3,5.6,25,23.7,19.4,40.3l-63.2,184.7C2205.9,1877,2187.9,1885.9,2171.6,1880.3z"/>
		<path class="st3" d="M614.2,1510.3l-54.7-6.6c-17.1-2.1-29.4-17.9-27.3-35.3l23.9-193.7c2.1-17.3,17.9-29.8,35.1-27.7l54.7,6.6
			c17.1,2.1,29.4,17.9,27.3,35.3l-23.9,193.7C647.1,1499.9,631.4,1512.4,614.2,1510.3z"/>
	</g>
	<g>
		<path class="st3" d="M392.8,2284.5c-11.2,0-21.4-2.5-30.5-7.6c-9.1-5.1-16.2-12.2-21.3-21.3c-5.1-9.1-7.7-19.5-7.7-31.3v-100.5
			c0-4.6-1.1-8.7-3.3-12.5c-2.2-3.7-5.2-6.6-8.9-8.8c-3.7-2.2-7.8-3.3-12.1-3.3c-4.4,0-8.4,1.1-12,3.3c-3.6,2.2-6.5,5.2-8.7,8.8
			c-2.2,3.7-3.3,7.9-3.3,12.5v157.5h-35.7v-153c0-11.4,2.5-21.6,7.5-30.8c5-9.1,12-16.3,21-21.8s19.4-8.1,31.2-8.1
			c12,0,22.5,2.7,31.5,8.1s16,12.7,21,21.8c5,9.1,7.5,19.3,7.5,30.8v100.5c0,4.4,1.1,8.5,3.3,12.2c2.2,3.7,5.1,6.7,8.7,8.8
			c3.6,2.2,7.5,3.3,11.7,3.3c4.4,0,8.4-1.1,12-3.3c3.6-2.2,6.5-5.1,8.7-8.8c2.2-3.7,3.3-7.7,3.3-12.2v-100.5
			c0-11.4,2.5-21.6,7.5-30.8c5-9.1,12-16.3,21.1-21.8c9.1-5.4,19.5-8.1,31.4-8.1c12,0,22.4,2.7,31.3,8.1
			c8.9,5.4,15.8,12.7,20.8,21.8c5,9.1,7.5,19.3,7.5,30.8v153h-36v-157.5c0-4.6-1-8.7-3.1-12.5c-2.1-3.7-5-6.6-8.5-8.8
			c-3.6-2.2-7.6-3.3-12-3.3c-4.4,0-8.5,1.1-12.2,3.3c-3.7,2.2-6.7,5.2-8.8,8.8c-2.2,3.7-3.3,7.9-3.3,12.5v100.5
			c0,11.8-2.6,22.3-7.8,31.3c-5.2,9.1-12.3,16.2-21.1,21.3C414.7,2281.9,404.4,2284.5,392.8,2284.5z"/>
		<path class="st3" d="M593.8,2106.9c-6,0-11.2-2.2-15.6-6.6c-4.4-4.4-6.6-9.6-6.6-15.6s2.2-11.2,6.6-15.6c4.4-4.4,9.6-6.6,15.6-6.6
			c6.2,0,11.4,2.2,15.8,6.6c4.3,4.4,6.5,9.6,6.5,15.6s-2.2,11.2-6.5,15.6C605.3,2104.7,600,2106.9,593.8,2106.9z M576.7,2281.2v-153
			h34.5v153H576.7z"/>
		<path class="st3" d="M642.7,2281.2l49.2-68.7c-8.6-3.6-16-8.4-22.3-14.5c-6.3-6.1-11.2-13.1-14.7-21.2c-3.5-8-5.2-16.6-5.2-25.8
			v-22.8h34.5v22.8c0,6.4,1.5,12.3,4.5,17.5c3,5.3,7,9.7,12.1,13.2c5.1,3.5,10.7,5.9,16.7,7l42.6-60.6h38.1l-47.1,65.7
			c9.8,3.2,18.2,8,25.2,14.4c7,6.4,12.3,13.9,16,22.4c3.7,8.5,5.6,17.7,5.6,27.5v23.1h-34.2v-23.1c0-7-1.7-13.4-5.1-19.2
			c-3.4-5.8-8.1-10.5-13.9-14.1c-5.9-3.6-12.6-5.6-20-6l-43.8,62.4H642.7z"/>
		<path class="st3" d="M905.8,2284.8c-14.8,0-27.7-3-38.7-8.8c-11-5.9-19.5-14-25.5-24.5c-6-10.4-9-22.1-9-35.1v-88.2h34.5v87.9
			c0,7.8,1.7,14.7,5.2,20.5c3.5,5.9,8.2,10.5,14.1,13.8c5.9,3.3,12.3,5,19.4,5c7,0,13.4-1.7,19.3-5c5.9-3.3,10.6-7.9,14.1-13.8
			c3.5-5.9,5.2-12.8,5.2-20.5v-87.9H979v88.2c0,13-3.1,24.7-9.1,35.1c-6.1,10.4-14.6,18.6-25.5,24.5
			C933.5,2281.8,920.6,2284.8,905.8,2284.8z"/>
		<path class="st3" d="M1132,2130.4c9.8,3.9,18.2,9.6,25,17c6.9,7.4,12.2,16.2,15.9,26.2c3.7,10.1,5.5,21.3,5.5,33.5
			c0,15.6-3.1,29.2-9.5,40.8c-6.3,11.6-15,20.7-26.1,27.1c-11.1,6.5-24,9.8-38.5,9.8c-7.2,0-14-1.1-20.4-3.3
			c-6.4-2.2-12.2-5.3-17.4-9.3c-5.2-4-9.4-8.7-12.6-14.1h-0.3v89.1h-34.5v-140.7c0-16.8,3.3-31.3,10-43.6c6.7-12.3,16-21.8,28-28.4
			c12-6.6,25.8-9.9,41.4-9.9C1111.1,2124.6,1122.2,2126.5,1132,2130.4z M1075.6,2160.4c-6.8,4.3-12.1,10.3-15.9,17.8
			c-3.8,7.6-5.7,16.4-5.7,26.4c0,10,1.9,18.8,5.7,26.4c3.8,7.6,9.1,13.6,15.9,17.8c6.8,4.3,14.6,6.5,23.4,6.5
			c8.8,0,16.5-2.2,23.2-6.6c6.7-4.4,11.9-10.4,15.8-18c3.8-7.6,5.7-16.3,5.7-26.1c0-10-1.9-18.8-5.7-26.4
			c-3.8-7.6-9.1-13.5-15.9-17.8c-6.8-4.3-14.6-6.5-23.4-6.5C1090.1,2154,1082.4,2156.1,1075.6,2160.4z"/>
	</g>
	<line class="st4" x1="0" y1="2418" x2="780" y2="2418"/>
	<g>
		<path class="st3" d="M380.4,2639.6l-43.6-113.9h-0.7c0.8,9,1.2,19.7,1.2,32.2v81.7h-13.8v-128.5h22.5l40.7,106h0.7l41-106h22.3
			v128.5h-14.9v-82.8c0-9.5,0.4-19.8,1.2-30.9h-0.7l-43.9,113.7H380.4z"/>
		<path class="st3" d="M497.6,2543.3v62.5c0,7.9,1.8,13.7,5.4,17.6c3.6,3.9,9.2,5.8,16.8,5.8c10.1,0,17.4-2.8,22.1-8.3
			c4.7-5.5,7-14.5,7-27v-50.6h14.6v96.3h-12l-2.1-12.9h-0.8c-3,4.7-7.1,8.4-12.4,10.9c-5.3,2.5-11.4,3.8-18.1,3.8
			c-11.7,0-20.5-2.8-26.3-8.3c-5.8-5.6-8.7-14.5-8.7-26.7v-63H497.6z"/>
		<path class="st3" d="M656.5,2613.3c0,9-3.3,15.9-10,20.7c-6.7,4.9-16.1,7.3-28.1,7.3c-12.8,0-22.7-2-29.9-6.1v-13.5
			c4.6,2.3,9.6,4.2,14.9,5.5c5.3,1.3,10.4,2,15.3,2c7.6,0,13.5-1.2,17.6-3.6c4.1-2.4,6.2-6.1,6.2-11.1c0-3.7-1.6-7-4.9-9.6
			c-3.3-2.7-9.6-5.8-19-9.4c-9-3.3-15.3-6.3-19.1-8.7c-3.8-2.5-6.6-5.3-8.4-8.5s-2.8-6.9-2.8-11.3c0-7.9,3.2-14,9.6-18.6
			c6.4-4.5,15.1-6.8,26.3-6.8c10.4,0,20.5,2.1,30.4,6.3l-5.2,11.9c-9.7-4-18.4-6-26.3-6c-6.9,0-12.1,1.1-15.6,3.3
			c-3.5,2.2-5.3,5.2-5.3,9c0,2.6,0.7,4.8,2,6.6c1.3,1.8,3.4,3.5,6.4,5.2c2.9,1.6,8.6,4,16.9,7.1c11.4,4.2,19.1,8.3,23.2,12.6
			C654.5,2601.6,656.5,2606.9,656.5,2613.3z"/>
		<path class="st3" d="M679,2517.2c0-3.3,0.8-5.8,2.5-7.3c1.6-1.6,3.7-2.3,6.2-2.3c2.3,0,4.4,0.8,6.1,2.4c1.7,1.6,2.5,4,2.5,7.3
			c0,3.3-0.8,5.7-2.5,7.3c-1.7,1.6-3.7,2.4-6.1,2.4c-2.5,0-4.5-0.8-6.2-2.4C679.8,2522.9,679,2520.5,679,2517.2z M694.8,2639.6
			h-14.6v-96.3h14.6V2639.6z"/>
		<path class="st3" d="M764.3,2641.4c-13.9,0-24.7-4.3-32.4-12.9c-7.6-8.6-11.5-20.7-11.5-36.4c0-16.1,3.9-28.6,11.6-37.4
			c7.8-8.8,18.8-13.2,33.2-13.2c4.6,0,9.3,0.5,13.9,1.5c4.6,1,8.3,2.2,10.9,3.5l-4.5,12.4c-3.2-1.3-6.7-2.4-10.5-3.2
			c-3.8-0.8-7.2-1.3-10.1-1.3c-19.6,0-29.4,12.5-29.4,37.4c0,11.8,2.4,20.9,7.2,27.2c4.8,6.3,11.9,9.5,21.2,9.5
			c8,0,16.3-1.7,24.7-5.2v12.9C782.2,2639.7,774,2641.4,764.3,2641.4z"/>
		<path class="st3" d="M852.7,2606.3c0-7.6,2-14.4,6.1-20.2c4.1-5.9,11.4-11.8,21.9-17.8c-5-5.6-8.4-9.8-10.2-12.7
			c-1.8-2.9-3.2-5.9-4.3-9c-1.1-3.1-1.6-6.3-1.6-9.7c0-8.8,2.9-15.6,8.6-20.6c5.7-4.9,13.7-7.4,24-7.4c9.5,0,17,2.4,22.4,7.3
			c5.4,4.9,8.2,11.7,8.2,20.4c0,6.3-2,12.1-6,17.4c-4,5.3-10.6,10.7-19.8,16.1l35.8,34.4c3.3-3.6,5.9-7.9,7.9-12.8
			c2-4.9,3.6-10.2,5-16h14.8c-4,16.8-10,29.5-18,38.1l26.3,25.6h-20.1l-16.3-15.6c-6.9,6.2-13.9,10.7-21.1,13.4
			c-7.1,2.7-15.1,4-23.9,4c-12.6,0-22.4-3.1-29.3-9.3C856.1,2625.8,852.7,2617.2,852.7,2606.3z M892.8,2628.3
			c14.1,0,25.8-4.5,35.2-13.5l-38.4-37.3c-6.5,4-11.1,7.3-13.8,9.9c-2.7,2.6-4.7,5.4-6,8.4c-1.3,3-1.9,6.4-1.9,10.2
			c0,6.9,2.3,12.3,6.8,16.3C879.1,2626.3,885.2,2628.3,892.8,2628.3z M879.1,2536.7c0,4,1.1,7.9,3.2,11.6c2.1,3.7,5.7,8.1,10.8,13.2
			c7.6-4.4,12.8-8.5,15.8-12.2c3-3.7,4.4-8,4.4-12.9c0-4.5-1.5-8.2-4.5-11c-3-2.8-7-4.3-12.1-4.3c-5.2,0-9.4,1.4-12.7,4.2
			S879.1,2531.9,879.1,2536.7z"/>
		<path class="st3" d="M1067.5,2629.3c2.6,0,5.1-0.2,7.5-0.6c2.4-0.4,4.3-0.8,5.7-1.2v11.2c-1.6,0.8-3.9,1.4-7,1.9
			c-3.1,0.5-5.8,0.7-8.3,0.7c-18.6,0-27.9-9.8-27.9-29.4v-57.3h-13.8v-7l13.8-6.1l6.2-20.6h8.4v22.3h27.9v11.3H1052v56.7
			c0,5.8,1.4,10.3,4.1,13.4C1058.9,2627.8,1062.7,2629.3,1067.5,2629.3z"/>
		<path class="st3" d="M1140.6,2641.4c-14.2,0-25.5-4.3-33.7-13c-8.2-8.7-12.3-20.7-12.3-36.1c0-15.5,3.8-27.9,11.5-37
			s17.9-13.7,30.8-13.7c12.1,0,21.6,4,28.7,11.9c7,7.9,10.5,18.4,10.5,31.4v9.2h-66.4c0.3,11.3,3.1,19.9,8.6,25.8
			c5.4,5.9,13.1,8.8,22.9,8.8c10.4,0,20.6-2.2,30.8-6.5v13c-5.2,2.2-10,3.8-14.6,4.8C1152.7,2640.9,1147.1,2641.4,1140.6,2641.4z
			 M1136.6,2553.7c-7.7,0-13.9,2.5-18.5,7.6c-4.6,5-7.3,12-8.1,20.9h50.4c0-9.2-2.1-16.2-6.2-21.1
			C1150.1,2556.2,1144.3,2553.7,1136.6,2553.7z"/>
		<path class="st3" d="M1239.4,2641.4c-13.9,0-24.7-4.3-32.4-12.9c-7.6-8.6-11.5-20.7-11.5-36.4c0-16.1,3.9-28.6,11.6-37.4
			c7.8-8.8,18.8-13.2,33.2-13.2c4.6,0,9.3,0.5,13.9,1.5c4.6,1,8.3,2.2,10.9,3.5l-4.5,12.4c-3.2-1.3-6.7-2.4-10.5-3.2
			c-3.8-0.8-7.2-1.3-10.1-1.3c-19.6,0-29.4,12.5-29.4,37.4c0,11.8,2.4,20.9,7.2,27.2c4.8,6.3,11.9,9.5,21.2,9.5
			c8,0,16.3-1.7,24.7-5.2v12.9C1257.3,2639.7,1249.2,2641.4,1239.4,2641.4z"/>
		<path class="st3" d="M1352.5,2639.6v-62.3c0-7.9-1.8-13.7-5.4-17.6c-3.6-3.9-9.2-5.8-16.8-5.8c-10.1,0-17.5,2.8-22.2,8.3
			c-4.7,5.5-7,14.5-7,27.1v50.4h-14.6v-136.8h14.6v41.4c0,5-0.2,9.1-0.7,12.4h0.9c2.9-4.6,7-8.3,12.3-10.9c5.3-2.7,11.4-4,18.1-4
			c11.8,0,20.6,2.8,26.5,8.4c5.9,5.6,8.8,14.5,8.8,26.7v62.8H1352.5z"/>
		<path class="st3" d="M1463,2639.6v-62.3c0-7.9-1.8-13.7-5.4-17.6c-3.6-3.9-9.2-5.8-16.8-5.8c-10.1,0-17.5,2.7-22.1,8.2
			c-4.7,5.4-7,14.4-7,27v50.5h-14.6v-96.3h11.9l2.4,13.2h0.7c3-4.7,7.2-8.4,12.6-11c5.4-2.6,11.4-3.9,18-3.9
			c11.6,0,20.3,2.8,26.2,8.4c5.9,5.6,8.8,14.5,8.8,26.9v62.8H1463z"/>
		<path class="st3" d="M1590.7,2591.3c0,15.7-4,28-11.9,36.8c-7.9,8.8-18.8,13.2-32.8,13.2c-8.6,0-16.3-2-22.9-6.1
			s-11.8-9.8-15.5-17.4c-3.6-7.6-5.4-16.4-5.4-26.5c0-15.7,3.9-27.9,11.8-36.7c7.9-8.8,18.8-13.1,32.7-13.1
			c13.5,0,24.2,4.5,32.1,13.4C1586.7,2563.9,1590.7,2576.1,1590.7,2591.3z M1517.3,2591.3c0,12.3,2.5,21.7,7.4,28.1
			c4.9,6.4,12.2,9.7,21.7,9.7c9.5,0,16.8-3.2,21.8-9.6c5-6.4,7.4-15.8,7.4-28.2c0-12.2-2.5-21.5-7.4-27.9c-5-6.4-12.3-9.5-21.9-9.5
			c-9.6,0-16.8,3.1-21.6,9.4C1519.7,2569.6,1517.3,2578.9,1517.3,2591.3z"/>
		<path class="st3" d="M1630.9,2639.6h-14.6v-136.8h14.6V2639.6z"/>
		<path class="st3" d="M1744.9,2591.3c0,15.7-4,28-11.9,36.8c-7.9,8.8-18.8,13.2-32.8,13.2c-8.6,0-16.3-2-22.9-6.1
			s-11.8-9.8-15.5-17.4c-3.6-7.6-5.4-16.4-5.4-26.5c0-15.7,3.9-27.9,11.8-36.7c7.9-8.8,18.8-13.1,32.7-13.1
			c13.5,0,24.2,4.5,32.1,13.4C1741,2563.9,1744.9,2576.1,1744.9,2591.3z M1671.5,2591.3c0,12.3,2.5,21.7,7.4,28.1
			c4.9,6.4,12.2,9.7,21.7,9.7c9.5,0,16.8-3.2,21.8-9.6c5-6.4,7.4-15.8,7.4-28.2c0-12.2-2.5-21.5-7.4-27.9c-5-6.4-12.3-9.5-21.9-9.5
			c-9.6,0-16.8,3.1-21.6,9.4C1674,2569.6,1671.5,2578.9,1671.5,2591.3z"/>
		<path class="st3" d="M1849.4,2543.3v9.2l-17.8,2.1c1.6,2.1,3.1,4.7,4.4,8c1.3,3.3,1.9,7,1.9,11.2c0,9.4-3.2,17-9.7,22.6
			c-6.4,5.6-15.3,8.4-26.5,8.4c-2.9,0-5.6-0.2-8.1-0.7c-6.2,3.3-9.3,7.4-9.3,12.4c0,2.6,1.1,4.6,3.3,5.8c2.2,1.3,5.9,1.9,11.2,1.9
			h17.1c10.4,0,18.4,2.2,24,6.6c5.6,4.4,8.4,10.8,8.4,19.2c0,10.7-4.3,18.8-12.8,24.4c-8.6,5.6-21,8.4-37.4,8.4
			c-12.6,0-22.3-2.3-29.1-7c-6.8-4.7-10.2-11.3-10.2-19.9c0-5.9,1.9-10.9,5.6-15.2c3.7-4.3,9-7.2,15.8-8.7c-2.5-1.1-4.5-2.8-6.2-5.2
			c-1.7-2.3-2.5-5.1-2.5-8.2c0-3.5,0.9-6.6,2.8-9.2c1.9-2.6,4.8-5.2,8.9-7.6c-5-2.1-9-5.5-12.2-10.5c-3.1-4.9-4.7-10.5-4.7-16.9
			c0-10.5,3.2-18.7,9.5-24.4s15.3-8.6,26.9-8.6c5,0,9.6,0.6,13.6,1.8H1849.4z M1772.5,2655.8c0,5.2,2.2,9.2,6.6,11.9
			c4.4,2.7,10.7,4,18.9,4c12.2,0,21.3-1.8,27.2-5.5c5.9-3.7,8.8-8.6,8.8-14.9c0-5.2-1.6-8.8-4.8-10.9c-3.2-2-9.3-3-18.2-3h-17.5
			c-6.6,0-11.8,1.6-15.5,4.7S1772.5,2649.9,1772.5,2655.8z M1780.4,2574.1c0,6.7,1.9,11.8,5.7,15.3c3.8,3.5,9.1,5.2,15.9,5.2
			c14.2,0,21.4-6.9,21.4-20.7c0-14.5-7.2-21.7-21.6-21.7c-6.9,0-12.1,1.8-15.8,5.5S1780.4,2566.9,1780.4,2574.1z"/>
		<path class="st3" d="M1853.8,2543.3h15.6l21.1,54.9c4.6,12.5,7.5,21.6,8.6,27.2h0.7c0.8-3,2.4-8.1,4.8-15.3
			c2.4-7.2,10.4-29.5,23.9-66.8h15.6l-41.4,109.7c-4.1,10.8-8.9,18.5-14.4,23.1c-5.5,4.5-12.2,6.8-20.2,6.8c-4.5,0-8.8-0.5-13.2-1.5
			v-11.7c3.2,0.7,6.8,1.1,10.8,1.1c10,0,17.2-5.6,21.4-16.9l5.4-13.7L1853.8,2543.3z"/>
		<path class="st3" d="M2045.1,2641.4c-13.9,0-24.7-4.3-32.4-12.9c-7.6-8.6-11.5-20.7-11.5-36.4c0-16.1,3.9-28.6,11.6-37.4
			c7.8-8.8,18.8-13.2,33.2-13.2c4.6,0,9.3,0.5,13.9,1.5c4.6,1,8.3,2.2,10.9,3.5l-4.5,12.4c-3.2-1.3-6.7-2.4-10.5-3.2
			c-3.8-0.8-7.2-1.3-10.1-1.3c-19.6,0-29.4,12.5-29.4,37.4c0,11.8,2.4,20.9,7.2,27.2c4.8,6.3,11.9,9.5,21.2,9.5
			c8,0,16.3-1.7,24.7-5.2v12.9C2063,2639.7,2054.9,2641.4,2045.1,2641.4z"/>
		<path class="st3" d="M2158.2,2639.6v-62.3c0-7.9-1.8-13.7-5.4-17.6c-3.6-3.9-9.2-5.8-16.8-5.8c-10.1,0-17.5,2.8-22.2,8.3
			c-4.7,5.5-7,14.5-7,27.1v50.4h-14.6v-136.8h14.6v41.4c0,5-0.2,9.1-0.7,12.4h0.9c2.9-4.6,7-8.3,12.3-10.9c5.3-2.7,11.4-4,18.1-4
			c11.8,0,20.6,2.8,26.5,8.4c5.9,5.6,8.8,14.5,8.8,26.7v62.8H2158.2z"/>
		<path class="st3" d="M2285.9,2591.3c0,15.7-4,28-11.9,36.8c-7.9,8.8-18.8,13.2-32.8,13.2c-8.6,0-16.3-2-22.9-6.1
			s-11.8-9.8-15.5-17.4c-3.6-7.6-5.4-16.4-5.4-26.5c0-15.7,3.9-27.9,11.8-36.7c7.9-8.8,18.8-13.1,32.7-13.1
			c13.5,0,24.2,4.5,32.1,13.4C2281.9,2563.9,2285.9,2576.1,2285.9,2591.3z M2212.5,2591.3c0,12.3,2.5,21.7,7.4,28.1
			c4.9,6.4,12.2,9.7,21.7,9.7c9.5,0,16.8-3.2,21.8-9.6c5-6.4,7.4-15.8,7.4-28.2c0-12.2-2.5-21.5-7.4-27.9c-5-6.4-12.3-9.5-21.9-9.5
			c-9.6,0-16.8,3.1-21.6,9.4C2214.9,2569.6,2212.5,2578.9,2212.5,2591.3z"/>
		<path class="st3" d="M2310.3,2517.2c0-3.3,0.8-5.8,2.5-7.3c1.6-1.6,3.7-2.3,6.2-2.3c2.3,0,4.4,0.8,6.1,2.4c1.7,1.6,2.5,4,2.5,7.3
			c0,3.3-0.8,5.7-2.5,7.3c-1.7,1.6-3.7,2.4-6.1,2.4c-2.5,0-4.5-0.8-6.2-2.4C2311.1,2522.9,2310.3,2520.5,2310.3,2517.2z
			 M2326.1,2639.6h-14.6v-96.3h14.6V2639.6z"/>
		<path class="st3" d="M2395.5,2641.4c-13.9,0-24.7-4.3-32.4-12.9c-7.6-8.6-11.5-20.7-11.5-36.4c0-16.1,3.9-28.6,11.6-37.4
			c7.8-8.8,18.8-13.2,33.2-13.2c4.6,0,9.3,0.5,13.9,1.5c4.6,1,8.3,2.2,10.9,3.5l-4.5,12.4c-3.2-1.3-6.7-2.4-10.5-3.2
			c-3.8-0.8-7.2-1.3-10.1-1.3c-19.6,0-29.4,12.5-29.4,37.4c0,11.8,2.4,20.9,7.2,27.2c4.8,6.3,11.9,9.5,21.2,9.5
			c8,0,16.3-1.7,24.7-5.2v12.9C2413.4,2639.7,2405.3,2641.4,2395.5,2641.4z"/>
		<path class="st3" d="M2483.4,2641.4c-14.2,0-25.5-4.3-33.7-13c-8.2-8.7-12.3-20.7-12.3-36.1c0-15.5,3.8-27.9,11.5-37
			s17.9-13.7,30.8-13.7c12.1,0,21.6,4,28.7,11.9c7,7.9,10.5,18.4,10.5,31.4v9.2h-66.4c0.3,11.3,3.1,19.9,8.6,25.8
			c5.4,5.9,13.1,8.8,22.9,8.8c10.4,0,20.6-2.2,30.8-6.5v13c-5.2,2.2-10,3.8-14.6,4.8C2495.5,2640.9,2489.9,2641.4,2483.4,2641.4z
			 M2479.4,2553.7c-7.7,0-13.9,2.5-18.5,7.6c-4.6,5-7.3,12-8.1,20.9h50.4c0-9.2-2.1-16.2-6.2-21.1
			C2492.9,2556.2,2487.1,2553.7,2479.4,2553.7z"/>
	</g>
</g>
<g id="Layer_3">
</g>
</svg>
