<?xml version="1.0" encoding="utf-8"?>
<!-- Generator: Adobe Illustrator 22.0.1, SVG Export Plug-In . SVG Version: 6.00 Build 0)  -->
<svg version="1.1" id="Layer_1" xmlns="http://www.w3.org/2000/svg" xmlns:xlink="http://www.w3.org/1999/xlink" x="0px" y="0px"
	 viewBox="0 0 800 800" style="enable-background:new 0 0 800 800;" xml:space="preserve">
<style type="text/css">
	.st0{fill:#DA5B4D;}
	.st1{fill:#5A288E;}
	.st2{fill:none;stroke:url(#SVGID_1_);stroke-width:40;stroke-miterlimit:10;}
	.st3{fill:none;stroke:url(#SVGID_2_);stroke-width:40;stroke-miterlimit:10;}
	.st4{fill:none;stroke:url(#SVGID_3_);stroke-width:40;stroke-miterlimit:10;}
	.st5{fill:none;stroke:url(#SVGID_4_);stroke-width:40;stroke-miterlimit:10;}
	.st6{fill:#AA303E;}
	.st7{fill:url(#SVGID_5_);}
	.st8{fill:none;stroke:url(#SVGID_6_);stroke-width:40;stroke-miterlimit:10;}
	.st9{fill:url(#SVGID_7_);}
	.st10{fill:none;stroke:#572583;stroke-width:40;stroke-miterlimit:10;}
	.st11{fill:none;stroke:#5A288E;stroke-width:40;stroke-miterlimit:10;}
</style>
<rect x="-1206.5" y="-271.2" class="st0" width="155.3" height="155.3"/>
<polygon class="st1" points="-1219.3,98 -1125.6,221.4 -1038.4,30.7 -1132,-92.7 "/>
<linearGradient id="SVGID_1_" gradientUnits="userSpaceOnUse" x1="340.6651" y1="569.5332" x2="530.7476" y2="459.789">
	<stop  offset="4.006410e-05" style="stop-color:#5A288E"/>
	<stop  offset="1" style="stop-color:#AA303E"/>
</linearGradient>
<path class="st2" d="M383.5,485.8c4.2,41.1,8.4,82.3,12.6,123.4c13.3-4,30.3-11.2,46.5-24.9c50.7-43,48.2-111.7,47.6-122.4
	c-8,6.8-25.1,19.5-50.5,25.1C414.4,492.7,393.6,488.5,383.5,485.8z"/>
<linearGradient id="SVGID_2_" gradientUnits="userSpaceOnUse" x1="524.5343" y1="217.1357" x2="594.8203" y2="176.556">
	<stop  offset="0" style="stop-color:#AA303E"/>
	<stop  offset="0.2699" style="stop-color:#AF3540"/>
	<stop  offset="0.6008" style="stop-color:#BE4244"/>
	<stop  offset="0.9624" style="stop-color:#D7584C"/>
	<stop  offset="1" style="stop-color:#DA5B4D"/>
</linearGradient>
<line class="st3" x1="497.5" y1="131.4" x2="621.9" y2="262.3"/>
<linearGradient id="SVGID_3_" gradientUnits="userSpaceOnUse" x1="112.3748" y1="320.0399" x2="331.2747" y2="320.0399">
	<stop  offset="4.006410e-05" style="stop-color:#5A288E"/>
	<stop  offset="0.4704" style="stop-color:#5C288C"/>
	<stop  offset="0.6398" style="stop-color:#632985"/>
	<stop  offset="0.7605" style="stop-color:#6E2A7A"/>
	<stop  offset="0.8582" style="stop-color:#7F2C69"/>
	<stop  offset="0.9409" style="stop-color:#952E53"/>
	<stop  offset="1" style="stop-color:#AA303E"/>
</linearGradient>
<path class="st4" d="M262,371.4c-41-5.5-82-11-123-16.5c4.4-13.2,12.2-30,26.4-45.6c44.6-49.3,113.2-44.6,123.9-43.7
	c-7,7.7-20.3,24.5-26.7,49.7C256.1,340.3,259.6,361.2,262,371.4z"/>
<linearGradient id="SVGID_4_" gradientUnits="userSpaceOnUse" x1="231.4818" y1="493.8849" x2="367.5876" y2="415.3042">
	<stop  offset="4.006410e-05" style="stop-color:#5A288E"/>
	<stop  offset="0.4651" style="stop-color:#5C288C"/>
	<stop  offset="0.6326" style="stop-color:#632985"/>
	<stop  offset="0.7519" style="stop-color:#6E2A7A"/>
	<stop  offset="0.8485" style="stop-color:#7F2C69"/>
	<stop  offset="0.9302" style="stop-color:#952E53"/>
	<stop  offset="0.9887" style="stop-color:#AA303E"/>
</linearGradient>
<path class="st5" d="M384.4,493.8c-16.6,15.1-33.2,30.3-49.9,45.4c-7-7.2-14-14.5-21-21.7c-33.1-34.2-66.2-68.3-99.3-102.5
	c15.9-14.6,31.9-29.1,47.8-43.7C302.8,412.2,343.6,453,384.4,493.8z"/>
<rect x="-1246.9" y="340.8" class="st6" width="242.3" height="121.2"/>
<linearGradient id="SVGID_5_" gradientUnits="userSpaceOnUse" x1="-721.1523" y1="-434.8243" x2="-692.6477" y2="-484.196" gradientTransform="matrix(1 0 0 1 0 1278.6456)">
	<stop  offset="4.006410e-05" style="stop-color:#5A288E"/>
	<stop  offset="0.3643" style="stop-color:#AA303E"/>
	<stop  offset="1" style="stop-color:#DA5B4D"/>
</linearGradient>
<circle class="st7" cx="-706.9" cy="819.1" r="28.5"/>
<image style="display:none;overflow:visible;" width="2298" height="1466" xlink:href="../../../../Desktop/Screenshot 2021-03-02 at 18.50.10.png"  transform="matrix(0.7398 0 0 0.7398 -450 -190.7148)">
</image>
<linearGradient id="SVGID_6_" gradientUnits="userSpaceOnUse" x1="274.1165" y1="416.8571" x2="698.8049" y2="171.6631">
	<stop  offset="4.006410e-05" style="stop-color:#5A288E"/>
	<stop  offset="0.2393" style="stop-color:#812C67"/>
	<stop  offset="0.4651" style="stop-color:#9F2F49"/>
	<stop  offset="0.5924" style="stop-color:#AA303E"/>
	<stop  offset="1" style="stop-color:#DA5B4D"/>
</linearGradient>
<path class="st8" d="M266.7,357.9c4.8,22.4,22,40,56.3,75.1c33.5,34.3,50.3,51.4,71,56.6c82.5,20.5,184-119.3,208.5-175.7
	c10.1-23.2,19.4-51.6,19.4-51.6c5.3-16.1,12.7-39.1,17.6-67.5c8.3-47.9,12.5-71.8,0.4-83.6c-12.4-12-41.7-5-100.4,9
	c-19,4.5-38.1,9.2-63.1,18.6c0,0-39.8,15-73.2,35.4C362.8,198.9,250.5,282.1,266.7,357.9z"/>
<g>
	<linearGradient id="SVGID_7_" gradientUnits="userSpaceOnUse" x1="375.8964" y1="374.5107" x2="500.6014" y2="249.8058">
		<stop  offset="4.006410e-05" style="stop-color:#5A288E"/>
		<stop  offset="0.529" style="stop-color:#AA303E"/>
		<stop  offset="1" style="stop-color:#DA5B4D"/>
	</linearGradient>
	<path class="st9" d="M437,223.4c-49.7,0-90,40.3-90,90c0,15.6,4,30.3,11,43.1l61.1-60.4l-14.8-17l77.4-9.8l-10.2,77
		c-4.9-4.4-9.8-8.8-14.6-13.2c-20.4,20.1-40.7,40.2-61.1,60.3c12.3,6.4,26.3,10,41.2,10c49.7,0,90-40.3,90-90S486.7,223.4,437,223.4
		z"/>
</g>
<path class="st10" d="M167.6,582.1"/>
<path class="st11" d="M178.6,530.1c-5.2,20.9-8.1,33.5-1,42c15.1,18.1,61.5,1,86-8c27.1-10,54.7-20.1,56-37c0.8-10-8.4-14.2-42-46
	c-34.6-32.7-36.6-39.2-46-39C200.2,443,181.8,517.5,178.6,530.1z"/>
<g>
	<path class="st1" d="M195.7,702.8c-1.3-1.5-2.8-2.8-4.5-4c-1.7-1.2-3.7-2.2-5.9-3.1c-2.2-0.9-4.5-1.6-7-2.1
		c-2.5-0.5-5.1-0.8-7.9-0.8c-8.1,0-14,1.5-17.7,4.6s-5.7,7.2-5.7,12.5c0,3.6,0.9,6.5,2.7,8.6c1.8,2.1,4.6,3.8,8.4,5.1
		c3.8,1.3,8.7,2.6,14.6,4c6.6,1.4,12.3,3,17,4.9c4.8,1.9,8.5,4.5,11,7.7c2.6,3.2,3.9,7.6,3.9,13.2c0,4.2-0.8,7.9-2.5,11
		c-1.6,3.1-3.9,5.7-6.9,7.8c-2.9,2.1-6.5,3.6-10.5,4.6c-4.1,1-8.5,1.5-13.4,1.5c-4.8,0-9.3-0.5-13.7-1.5c-4.4-1-8.5-2.5-12.4-4.4
		c-3.9-2-7.5-4.4-10.9-7.5l4.5-7.4c1.6,1.7,3.6,3.4,5.9,4.9c2.3,1.5,4.9,2.9,7.7,4.1c2.8,1.2,5.9,2.1,9.1,2.8c3.2,0.6,6.6,1,10.1,1
		c7.4,0,13.1-1.3,17.2-4c4.1-2.7,6.2-6.7,6.2-11.9c0-3.8-1-6.9-3.1-9.2c-2.1-2.3-5.2-4.2-9.4-5.6c-4.2-1.5-9.3-2.9-15.3-4.3
		c-6.4-1.5-11.8-3.1-16.2-4.9c-4.4-1.8-7.7-4.2-9.9-7.2s-3.3-6.9-3.3-11.9c0-5.7,1.4-10.5,4.2-14.5c2.8-3.9,6.7-6.9,11.6-9
		c4.9-2,10.6-3.1,17-3.1c4.1,0,7.9,0.4,11.4,1.2c3.5,0.8,6.8,2,9.8,3.6c3,1.6,5.8,3.5,8.4,5.8L195.7,702.8z"/>
	<path class="st1" d="M267.2,777.8l-25.1-34.6l-14.4,13.5v21.1h-8.8v-94.9h8.8v64.3l38.4-36.8h9.8L248,738l28.7,39.8H267.2z"/>
	<path class="st1" d="M287.7,695.9v-13h8.8v13H287.7z M287.7,777.8v-67.7h8.8v67.7H287.7z"/>
	<path class="st1" d="M316.4,682.9h8.8v80c0,3.4,0.6,5.6,1.8,6.7c1.2,1,2.7,1.6,4.4,1.6c1.6,0,3.1-0.2,4.7-0.5c1.6-0.3,2.9-0.7,4-1
		l1.6,7.2c-1.6,0.7-3.7,1.3-6,1.7c-2.4,0.4-4.4,0.6-6.2,0.6c-4,0-7.2-1.2-9.6-3.5c-2.4-2.4-3.6-5.6-3.6-9.7V682.9z"/>
	<path class="st1" d="M351.8,682.9h8.8v80c0,3.4,0.6,5.6,1.8,6.7c1.2,1,2.7,1.6,4.4,1.6c1.6,0,3.1-0.2,4.7-0.5c1.6-0.3,2.9-0.7,4-1
		l1.6,7.2c-1.6,0.7-3.7,1.3-6,1.7c-2.4,0.4-4.4,0.6-6.2,0.6c-4,0-7.2-1.2-9.6-3.5c-2.4-2.4-3.6-5.6-3.6-9.7V682.9z"/>
	<path class="st1" d="M381.3,758.4c0-4.2,1.2-7.9,3.6-10.9c2.4-3.1,5.8-5.4,10.1-7.1c4.3-1.7,9.2-2.5,14.9-2.5
		c3.3,0,6.7,0.3,10.3,0.8c3.6,0.5,6.7,1.3,9.5,2.3v-5.7c0-5.7-1.7-10.2-5.1-13.6c-3.4-3.4-8.1-5-14-5c-3.6,0-7.2,0.7-10.7,2
		c-3.5,1.3-7.2,3.3-11,5.9l-3.4-6.2c4.4-3,8.8-5.3,13-6.8c4.2-1.5,8.6-2.3,13-2.3c8.3,0,14.9,2.4,19.8,7.1
		c4.9,4.7,7.3,11.3,7.3,19.6v31.1c0,1.2,0.3,2.1,0.8,2.6c0.5,0.6,1.3,0.9,2.5,1v7c-1,0.1-1.8,0.2-2.5,0.3c-0.7,0.1-1.2,0.1-1.6,0
		c-2.2-0.1-3.8-0.8-4.9-2.1c-1.1-1.3-1.7-2.7-1.8-4.2l-0.1-4.9c-3,3.9-7,6.9-11.8,9c-4.9,2.1-9.8,3.2-14.8,3.2
		c-4.3,0-8.3-0.9-11.8-2.8c-3.5-1.9-6.2-4.3-8.2-7.5C382.3,765.7,381.3,762.2,381.3,758.4z M426.7,763.6c1-1.2,1.7-2.4,2.2-3.5
		c0.5-1.1,0.8-2.1,0.8-3v-9.8c-2.9-1.1-6-2-9.2-2.6c-3.2-0.6-6.3-0.9-9.6-0.9c-6.3,0-11.4,1.2-15.3,3.7c-3.9,2.5-5.8,5.9-5.8,10.2
		c0,2.5,0.6,4.8,1.9,7c1.3,2.2,3.2,4,5.7,5.4c2.5,1.4,5.5,2.1,8.8,2.1c4.2,0,8.2-0.8,11.9-2.4C421.8,768.2,424.7,766.1,426.7,763.6z
		"/>
	<path class="st1" d="M514.5,777.8h-8.8v-37.6c0-7.9-1.2-13.7-3.5-17.4c-2.3-3.7-6-5.5-11-5.5c-3.5,0-6.9,0.8-10.3,2.5
		c-3.4,1.7-6.3,4-8.9,6.8c-2.6,2.9-4.4,6.2-5.5,9.9v41.2h-8.8v-67.5h8.1v15.4c1.8-3.3,4.2-6.1,7.2-8.6c2.9-2.5,6.3-4.4,10-5.8
		c3.7-1.4,7.6-2.1,11.6-2.1c3.7,0,6.9,0.7,9.5,2.1c2.6,1.4,4.7,3.3,6.2,5.9c1.6,2.5,2.7,5.6,3.4,9.2c0.7,3.6,1,7.6,1,12V777.8z"/>
	<path class="st1" d="M528.8,744.3c0-6.4,1.3-12.2,4-17.5c2.6-5.3,6.3-9.5,11-12.7c4.7-3.2,10-4.8,16-4.8c5.6,0,10.7,1.5,15.1,4.5
		c4.5,3,8,6.6,10.5,10.9v-41.7h8.8v84.2c0,1.2,0.3,2.1,0.8,2.7c0.5,0.6,1.3,0.9,2.3,1v7c-1.7,0.3-3.1,0.3-4,0.3
		c-1.8-0.1-3.4-0.8-4.8-2.2c-1.4-1.4-2.1-2.9-2.1-4.5v-6.6c-2.7,4.4-6.3,7.9-10.9,10.5c-4.6,2.6-9.4,3.9-14.3,3.9
		c-4.7,0-9-0.9-12.9-2.8c-3.9-1.9-7.4-4.5-10.3-7.8c-2.9-3.3-5.2-7-6.8-11.2C529.6,753.1,528.8,748.8,528.8,744.3z M585.4,754.6
		v-20.8c-1.1-3.1-2.9-5.9-5.5-8.5c-2.5-2.5-5.4-4.6-8.5-6.1c-3.2-1.5-6.3-2.3-9.4-2.3c-3.6,0-6.9,0.8-9.9,2.3
		c-2.9,1.5-5.5,3.6-7.6,6.1c-2.1,2.6-3.8,5.5-4.9,8.8c-1.1,3.3-1.7,6.6-1.7,10.1c0,3.6,0.6,7.1,1.9,10.3c1.3,3.3,3.1,6.2,5.4,8.7
		s5,4.5,8.1,5.9c3,1.4,6.3,2.1,9.9,2.1c2.3,0,4.6-0.4,7-1.3c2.4-0.9,4.7-2,7-3.6c2.2-1.5,4-3.3,5.5-5.4
		C584.1,759,585,756.9,585.4,754.6z"/>
	<path class="st1" d="M643.2,779.1c-4.9,0-9.5-0.9-13.6-2.8c-4.1-1.9-7.7-4.4-10.7-7.6c-3-3.2-5.3-6.9-7-11.1
		c-1.6-4.2-2.5-8.6-2.5-13.2c0-4.8,0.8-9.3,2.5-13.5c1.6-4.2,4-7.9,7-11.1c3-3.2,6.6-5.8,10.7-7.6c4.1-1.9,8.6-2.8,13.5-2.8
		c4.9,0,9.3,0.9,13.4,2.8c4.1,1.9,7.6,4.4,10.7,7.6c3,3.2,5.4,6.9,7,11.1c1.6,4.2,2.5,8.7,2.5,13.5c0,4.7-0.8,9.1-2.5,13.2
		c-1.6,4.2-4,7.9-7,11.1c-3,3.2-6.5,5.8-10.7,7.6C652.6,778.2,648.1,779.1,643.2,779.1z M618.5,744.4c0,5,1.1,9.5,3.3,13.6
		c2.2,4.1,5.2,7.3,8.9,9.7c3.7,2.4,7.8,3.5,12.4,3.5c4.5,0,8.6-1.2,12.3-3.6c3.7-2.4,6.7-5.7,9-9.9c2.3-4.2,3.4-8.8,3.4-13.7
		c0-4.9-1.1-9.4-3.4-13.5c-2.3-4.1-5.2-7.4-9-9.8c-3.7-2.4-7.8-3.6-12.3-3.6c-4.5,0-8.6,1.2-12.4,3.7c-3.7,2.5-6.7,5.8-8.9,9.9
		C619.6,734.8,618.5,739.4,618.5,744.4z"/>
</g>
</svg>
