<?xml version="1.0" encoding="utf-8"?>
<!-- Generator: Adobe Illustrator 22.0.1, SVG Export Plug-In . SVG Version: 6.00 Build 0)  -->
<svg version="1.1" id="Layer_1" xmlns="http://www.w3.org/2000/svg" xmlns:xlink="http://www.w3.org/1999/xlink" x="0px" y="0px"
	 viewBox="0 0 1700.8 1700.8" style="enable-background:new 0 0 1700.8 1700.8;" xml:space="preserve">
<style type="text/css">
	.st0{fill:#DA5B4D;}
	.st1{fill:#DA5B4D;stroke:#DA5B4D;stroke-miterlimit:10;}
	.st2{fill:#DA5B4D;stroke:#DA5B4D;stroke-width:0.75;stroke-miterlimit:10;}
</style>
<g id="Layer_1_1_">
	<path class="st0" d="M1501.5,176.4c-5.4-15.8-20.5-27.5-38.3-27.5h-2.3H247.1h-4.9c-21,0-38.2,16.8-38.2,38.2v3V954v139.7
		c0,22.8,19.5,41.2,43.1,41.2h1213.8c23.6,0,43.1-18.3,43.1-41.2V190.1C1504,185.3,1503.1,180.7,1501.5,176.4z M855.8,1092.6
		c-17.2,0-31.5-14.2-31.5-31.5c0-17.2,14.2-31.5,31.5-31.5s31.5,13.9,31.5,31.5C887.3,1078.3,873.1,1092.6,855.8,1092.6z
		 M1447.8,929.6h-1188V193.8h0h0h1188V929.6z"/>
	<g>
		<path class="st1" d="M1221.9,382.3c-18.7-30.3-63.7-56.6-94.4-63.3c-12.7-2.6-22.1-2.2-28.1,1.9
			c-16.1,10.5-143.5,86.2-226.3,128.9l0,0l-31.8,15.7C761.5,502.2,547.5,565.8,543,567.3c-6.7,0.4-13.5,1.5-19.9,3.4
			c-21.7,6.4-71.6,31.8-71.6,125.9c0,100.8,51.3,119.1,73.4,122.1c3.7,0.4,7.5,0.7,11.2,0.7c33,0,67.4-19.5,82-46.5
			c2.2-4.1,3.7-8.2,5.2-12.4c13.9-47.6,1.9-101.5-28.1-128.5c-19.1-17.2-43.8-21-68.9-10.5c-35.2,14.6-40.1,55.4-33.7,85.8
			s25.9,61.1,50.6,61.1c0.4,0,0.4,0,0.7,0c32.2-0.7,42-21,44.6-32.6c6-25.1-6-56.2-20.6-64.1c-3.4-1.9-7.5-0.7-9.4,2.6
			c-1.9,3.4-0.7,7.5,2.6,9.4c8.6,4.9,18.4,29.2,13.9,48.3c-3.4,14.2-14.2,21.7-31.5,22.1c-15.4,0.7-31.5-21.7-37.5-50.2
			c-5.6-26.6-1.9-58.8,25.5-70.1c20.2-8.2,39-5.6,54.3,8.2c25.9,23.2,36.3,72.3,24,114.3c-8.6,29.6-48.7,52.8-83.2,48
			c-22.9-3.4-61.4-21.7-61.4-108.3c0-59.6,22.5-100.8,61.8-112.4c24.7-7.5,52.1-1.5,73.8,14.6c10.9,9.4,22.5,23.2,33.7,43.1
			c20.2,43.5,16.9,92.2,9.7,125.9c-3.7,13.5-8.2,25.1-11.6,32.6c-3,7.1-5.2,11.2-5.6,11.6c-1.5,2.6-1.1,6.4,1.1,8.2
			c1.5,1.1,3,1.9,4.9,1.9c1.1,0,2.6-0.4,3.7-1.1c1.9-1.1,136-83.5,245.4-149.9l-5.6,40.1c-0.4,2.6,0.7,5.2,3,6.7
			c2.2,1.5,4.9,1.5,7.5,0.4l24-13.9l19.5,21c1.5,1.5,3.4,2.2,5.2,2.2c0.7,0,1.5,0,2.2-0.4c2.6-0.7,4.5-3,4.9-5.6l6.7-48.3l9,12
			c1.5,1.9,3.4,3,5.6,3c0.4,0,0.7,0,1.1,0c2.6-0.4,4.9-2.2,5.6-4.9l7.9-26.6l28.5,1.5c2.6,0,5.2-1.1,6.4-3.7
			c1.1-2.2,1.1-5.2-0.4-7.5L985.9,609c103-55.8,233.8-91,234.9-91.4c2.2-0.7,4.1-2.6,4.9-4.9
			C1240.2,459.4,1247.4,423.5,1221.9,382.3z M1213.3,506.3c-22.9,6.4-140.9,40.8-236,92.5l-4.9-6.4c0,6.4-1.5,12.4-4.1,18l24.7,33.7
			l-19.1-1.1c-3.4,0-6,1.9-7.1,4.9l-5.2,18.4L938,633.7c-2.6,0.4-5.2,0.7-7.9,0.7c-3.4,0-6.7-0.4-9.7-1.1l17.6,24.4l-6.7,48
			L918,691.3c-1.5-1.5-3.4-2.2-5.2-2.2c-1.1,0-2.2,0.4-3.4,0.7l-16.5,9.4L903,625c-5.2-4.1-9.4-9.7-12-15.7l-6,44.6
			c-86.5,52.4-192.6,117.3-235.6,143.5c13.1-33.3,31.5-100.8-2.2-161.5c-22.5-40.8-46.8-58.4-66.7-65.6
			c55.1-16.9,164.5-51.3,234.1-78.7c0.4,0,0.4,0,0.7,0.4c0.7,0,56.2,14.2,74.6,85.4c1.1-3.4,2.6-6.4,4.9-9.4
			c1.5-2.2,3.4-4.5,5.2-6.4c-15.7-46.5-46.8-68.2-65.6-77.6l41.6-20.6c43.5,22.9,63.3,58.4,72.3,89.5c1.9,0.7,3.7,1.9,5.6,3.4
			c4.5,3,8.6,7.1,11.6,11.6c-6.7-35.2-25.1-82-74.6-112c83.2-43.8,201.2-113.5,216.5-124c1.9-1.5,7.5-1.9,17.2,0
			c28.5,6.4,69.3,30.7,85.8,56.9C1231.2,423.9,1227.5,453.5,1213.3,506.3z"/>
		<path class="st1" d="M956.3,519c-9.7-6.4-21-10.1-32.2-10.1c-3.7,0-7.5,0.4-11.2,1.1c-15.4,3-28.5,11.6-37.1,24.4
			c-8.6,12.7-12,28.1-9,43.5s11.6,28.5,24.4,37.1s28.1,12,43.5,9s28.5-11.6,37.1-24.4c8.6-12.7,12-28.1,9-43.5
			C977.6,541.1,969,528,956.3,519z"/>
	</g>
</g>
<g>
	<g>
		<path class="st2" d="M292.9,1324c0-7.8,1.4-15.4,4.1-22.9s6.6-14.3,11.8-20.5c5.2-6.2,11.5-11.1,19.1-14.8
			c7.6-3.7,16.1-5.5,25.7-5.5c11.4,0,21.2,2.6,29.2,7.8c8.1,5.2,14.1,11.9,17.9,20.1l-9.9,6.1c-2.8-5.6-6.2-10.1-10.4-13.4
			c-4.2-3.3-8.7-5.7-13.4-7.1c-4.7-1.4-9.5-2.2-14.1-2.2c-7.7,0-14.5,1.5-20.3,4.6c-5.9,3.1-10.8,7.1-14.9,12.2
			c-4,5.1-7.1,10.8-9.1,17.1c-2,6.3-3.1,12.7-3.1,19.2c0,7.1,1.2,13.9,3.6,20.3c2.4,6.5,5.8,12.2,10.1,17.2c4.3,5,9.4,8.9,15.2,11.9
			c5.8,2.9,12.2,4.4,19,4.4c4.8,0,9.7-0.8,14.8-2.5c5-1.7,9.7-4.3,14.1-7.7c4.4-3.5,7.9-8,10.5-13.5l10.4,5.4
			c-2.6,6.4-6.7,11.8-12.2,16.2c-5.5,4.4-11.7,7.8-18.5,10.1c-6.8,2.3-13.4,3.4-19.9,3.4c-8.8,0-16.8-1.9-24.1-5.7
			c-7.3-3.8-13.7-8.8-19-15.1c-5.3-6.3-9.5-13.4-12.3-21.2C294.3,1340,292.9,1332,292.9,1324z"/>
		<path class="st2" d="M476.3,1389.9c-9,0-17.2-1.8-24.5-5.4s-13.6-8.5-18.9-14.7s-9.4-13.1-12.2-20.9s-4.3-15.7-4.3-23.9
			c0-8.5,1.5-16.6,4.5-24.4c3-7.7,7.2-14.6,12.7-20.7s11.8-10.9,19.2-14.4c7.3-3.5,15.2-5.3,23.8-5.3c9,0,17.2,1.9,24.5,5.6
			s13.6,8.7,18.8,14.9c5.2,6.2,9.3,13.2,12.2,20.9c2.9,7.7,4.3,15.5,4.3,23.6c0,8.5-1.5,16.6-4.5,24.4c-3,7.7-7.2,14.6-12.6,20.7
			c-5.4,6.1-11.8,10.8-19.1,14.3C492.7,1388.1,484.8,1389.9,476.3,1389.9z M428.9,1325.1c0,7,1.1,13.7,3.4,20.1s5.5,12.1,9.7,17.1
			s9.2,8.9,15,11.9c5.8,2.9,12.2,4.4,19.2,4.4c7.3,0,13.9-1.5,19.7-4.6c5.8-3.1,10.8-7.1,14.9-12.2s7.3-10.8,9.4-17.2
			c2.2-6.4,3.2-12.8,3.2-19.4c0-7-1.1-13.6-3.4-20c-2.3-6.4-5.6-12.1-9.8-17.1c-4.3-5-9.3-9-15-11.9s-12.1-4.3-19.1-4.3
			c-7.2,0-13.7,1.5-19.5,4.5s-10.8,7.1-14.9,12.1c-4.1,5.1-7.3,10.8-9.5,17.2C430,1312,428.9,1318.5,428.9,1325.1z"/>
		<path class="st2" d="M560,1389v-127.8h54c5.5,0,10.6,1.1,15.1,3.4c4.6,2.3,8.6,5.4,12,9.3s6.1,8.2,7.9,13
			c1.9,4.7,2.8,9.6,2.8,14.5c0,6.1-1.2,11.9-3.5,17.3s-5.6,10-9.9,13.7c-4.3,3.7-9.3,6.2-15,7.4l31.3,49.3h-14.2l-30.1-47.2h-37.8
			v47.2H560V1389z M572.6,1330.7h41.8c5,0,9.4-1.4,13.1-4.1c3.7-2.8,6.6-6.4,8.6-10.9s3.1-9.3,3.1-14.3c0-5.2-1.2-9.9-3.5-14.3
			s-5.5-7.9-9.4-10.6s-8.3-4-13-4h-40.7L572.6,1330.7L572.6,1330.7z"/>
		<path class="st2" d="M677.5,1389v-127.8h52.9c5.5,0,10.6,1.1,15.2,3.4c4.6,2.3,8.6,5.4,12,9.3s6,8.2,7.9,13
			c1.9,4.7,2.9,9.6,2.9,14.5c0,7-1.5,13.5-4.6,19.7s-7.4,11.2-12.9,15s-12,5.8-19.4,5.8h-41.4v47.2L677.5,1389L677.5,1389z
			 M690.1,1330.7H731c5,0,9.4-1.4,13.1-4.1c3.7-2.8,6.6-6.4,8.6-10.8s3.1-9.2,3.1-14.4c0-5.3-1.2-10.1-3.6-14.6
			c-2.4-4.4-5.6-7.9-9.5-10.5s-8.2-3.9-12.9-3.9H690v58.3H690.1z"/>
		<path class="st2" d="M841,1389.9c-9,0-17.2-1.8-24.5-5.4s-13.6-8.5-18.9-14.7c-5.3-6.2-9.4-13.1-12.2-20.9s-4.3-15.7-4.3-23.9
			c0-8.5,1.5-16.6,4.5-24.4c3-7.7,7.2-14.6,12.7-20.7s11.8-10.9,19.2-14.4c7.3-3.5,15.2-5.3,23.8-5.3c9,0,17.2,1.9,24.5,5.6
			s13.6,8.7,18.8,14.9c5.2,6.2,9.3,13.2,12.2,20.9c2.9,7.7,4.3,15.5,4.3,23.6c0,8.5-1.5,16.6-4.5,24.4c-3,7.7-7.2,14.6-12.6,20.7
			c-5.4,6.1-11.8,10.8-19.1,14.3C857.4,1388.1,849.5,1389.9,841,1389.9z M793.6,1325.1c0,7,1.1,13.7,3.4,20.1
			c2.3,6.4,5.5,12.1,9.7,17.1s9.2,8.9,15,11.9c5.8,2.9,12.2,4.4,19.2,4.4c7.3,0,13.9-1.5,19.7-4.6s10.8-7.1,14.9-12.2
			c4.1-5.1,7.3-10.8,9.4-17.2c2.2-6.4,3.2-12.8,3.2-19.4c0-7-1.1-13.6-3.4-20c-2.3-6.4-5.6-12.1-9.8-17.1c-4.3-5-9.3-9-15-11.9
			s-12.1-4.3-19.1-4.3c-7.2,0-13.7,1.5-19.5,4.5s-10.8,7.1-14.9,12.1c-4.1,5.1-7.3,10.8-9.5,17.2
			C794.7,1312,793.6,1318.5,793.6,1325.1z"/>
		<path class="st2" d="M924.7,1389v-127.8h54c5.5,0,10.6,1.1,15.1,3.4c4.6,2.3,8.6,5.4,12,9.3s6.1,8.2,7.9,13
			c1.9,4.7,2.8,9.6,2.8,14.5c0,6.1-1.2,11.9-3.5,17.3s-5.6,10-9.9,13.7c-4.3,3.7-9.3,6.2-15,7.4l31.3,49.3h-14.2l-30.1-47.2h-37.8
			v47.2h-12.6V1389z M937.3,1330.7H979c5,0,9.4-1.4,13.1-4.1c3.7-2.8,6.6-6.4,8.6-10.9s3.1-9.3,3.1-14.3c0-5.2-1.2-9.9-3.5-14.3
			s-5.5-7.9-9.4-10.6s-8.3-4-13-4h-40.7v58.2H937.3z"/>
		<path class="st2" d="M1081.8,1261.2h10.6l53.1,127.8h-13.3l-16-40h-58.4l-16,40h-13.5L1081.8,1261.2z M1112.3,1339.1l-25.3-63.2
			l-25.2,63.2H1112.3z"/>
		<path class="st2" d="M1254.6,1272.3h-45.5V1389h-12.6v-116.6H1151v-11.2h103.7L1254.6,1272.3L1254.6,1272.3z"/>
		<path class="st2" d="M1359.5,1377.8v11.2h-85.9v-127.8h84.2v11.2h-71.6v46.1h62.5v10.6h-62.5v48.8L1359.5,1377.8L1359.5,1377.8z"
			/>
		<path class="st2" d="M292.3,1540c0-7.8,1.4-15.4,4.1-22.9s6.6-14.3,11.8-20.5c5.2-6.2,11.5-11.1,19.1-14.8
			c7.6-3.7,16.1-5.5,25.7-5.5c11.4,0,21.2,2.6,29.2,7.8c8.1,5.2,14.1,11.9,17.9,20.1l-9.9,6.1c-2.8-5.6-6.2-10.1-10.4-13.4
			c-4.2-3.3-8.7-5.7-13.4-7.1c-4.7-1.4-9.5-2.2-14.1-2.2c-7.7,0-14.5,1.5-20.3,4.6c-5.9,3.1-10.8,7.1-14.9,12.2
			c-4,5.1-7.1,10.8-9.1,17.1c-2,6.3-3.1,12.7-3.1,19.2c0,7.1,1.2,13.9,3.6,20.3c2.4,6.5,5.8,12.2,10.1,17.2c4.3,5,9.4,8.9,15.2,11.9
			c5.8,2.9,12.2,4.4,19,4.4c4.8,0,9.7-0.8,14.8-2.5c5-1.7,9.7-4.3,14.1-7.7c4.4-3.5,7.9-8,10.5-13.5l10.4,5.4
			c-2.6,6.4-6.7,11.8-12.2,16.2c-5.5,4.4-11.7,7.8-18.5,10.1c-6.8,2.3-13.4,3.4-19.9,3.4c-8.8,0-16.8-1.9-24.1-5.7
			c-7.3-3.8-13.7-8.8-19-15.1c-5.3-6.3-9.5-13.4-12.3-21.2C293.8,1556,292.3,1548,292.3,1540z"/>
		<path class="st2" d="M424.3,1605v-127.8h12.6V1605H424.3z"/>
		<path class="st2" d="M559.6,1488.3h-45.5V1605h-12.6v-116.6H456v-11.2h103.7L559.6,1488.3L559.6,1488.3z"/>
		<path class="st2" d="M578.7,1605v-127.8h12.6V1605H578.7z"/>
		<path class="st2" d="M612.9,1595.1l86.9-106.7h-85.5v-11.2h100.1v9.9l-85.9,106.7h85.7v11.2H612.9V1595.1z"/>
		<path class="st2" d="M822.4,1593.8v11.2h-85.9v-127.8h84.2v11.2h-71.6v46.1h62.5v10.6h-62.5v48.8L822.4,1593.8L822.4,1593.8z"/>
		<path class="st2" d="M858.8,1500.4V1605h-12.6v-127.8h10.4l83.9,106.6v-106.4h12.6V1605h-11.7L858.8,1500.4z"/>
		<path class="st2" d="M1059.8,1501.1c-1.8-2-3.9-3.9-6.3-5.5s-5.1-3-8.1-4.2s-6.2-2.2-9.6-2.9c-3.4-0.7-7.1-1.1-10.9-1.1
			c-11.2,0-19.3,2.1-24.6,6.4c-5.2,4.3-7.8,10-7.8,17.3c0,5,1.2,9,3.7,11.9s6.3,5.2,11.6,7s12,3.7,20.2,5.6c9.1,1.9,17,4.2,23.6,6.8
			c6.6,2.6,11.7,6.2,15.3,10.7c3.6,4.5,5.4,10.6,5.4,18.2c0,5.9-1.1,11-3.4,15.3s-5.5,7.9-9.5,10.8c-4.1,2.9-8.9,5-14.6,6.4
			c-5.6,1.4-11.8,2.1-18.5,2.1c-6.6,0-12.9-0.7-19-2.1s-11.8-3.4-17.2-6.1s-10.4-6.1-15.1-10.3l6.3-10.3c2.3,2.4,5,4.7,8.2,6.8
			c3.2,2.1,6.7,4,10.6,5.7c3.9,1.7,8.1,3,12.6,3.9s9.1,1.4,14,1.4c10.2,0,18.1-1.9,23.8-5.6c5.7-3.7,8.6-9.2,8.6-16.5
			c0-5.3-1.4-9.5-4.3-12.7s-7.2-5.8-13-7.8s-12.8-4-21.2-5.9c-8.9-2-16.4-4.3-22.5-6.8s-10.7-5.8-13.8-10c-3.1-4.1-4.6-9.6-4.6-16.4
			c0-7.9,1.9-14.6,5.8-20c3.9-5.5,9.3-9.6,16.1-12.4s14.7-4.2,23.6-4.2c5.6,0,10.9,0.6,15.8,1.7s9.4,2.8,13.5,5s8,4.9,11.6,8.1
			L1059.8,1501.1z"/>
		<path class="st2" d="M1195.2,1477.2V1605h-12.4v-59.8H1107v59.8h-12.6v-127.8h12.6v56.9h75.8v-56.9H1195.2z"/>
		<path class="st2" d="M1227.2,1605v-127.8h12.6V1605H1227.2z"/>
		<path class="st2" d="M1271.9,1605v-127.8h52.9c5.5,0,10.6,1.1,15.2,3.4s8.6,5.4,12,9.3s6,8.2,7.9,13c1.9,4.7,2.9,9.6,2.9,14.5
			c0,7-1.5,13.5-4.6,19.7s-7.4,11.2-12.9,15s-12,5.8-19.4,5.8h-41.4v47.2L1271.9,1605L1271.9,1605z M1284.5,1546.7h40.9
			c5,0,9.4-1.4,13.1-4.1c3.7-2.8,6.6-6.4,8.6-10.8s3.1-9.2,3.1-14.4c0-5.3-1.2-10.1-3.6-14.6c-2.4-4.4-5.6-7.9-9.5-10.5
			s-8.2-3.9-12.9-3.9h-39.8v58.3H1284.5z"/>
	</g>
</g>
</svg>
