<?xml version="1.0" encoding="utf-8"?>
<!-- Generator: Adobe Illustrator 22.0.1, SVG Export Plug-In . SVG Version: 6.00 Build 0)  -->
<svg version="1.1" id="master-artboard" xmlns="http://www.w3.org/2000/svg" xmlns:xlink="http://www.w3.org/1999/xlink" x="0px"
	 y="0px" viewBox="0 0 711.6 294.9" style="enable-background:new 0 0 711.6 294.9;" xml:space="preserve">
<style type="text/css">
	.st0{opacity:0.4;fill:#F08B3D;enable-background:new    ;}
	.st1{opacity:0.4;fill:#5A288E;enable-background:new    ;}
	.st2{opacity:0.45;fill:#DA5B4D;enable-background:new    ;}
	.st3{opacity:0.38;fill:#F08B3D;enable-background:new    ;}
	.st4{opacity:0.38;fill:#5A288E;enable-background:new    ;}
	.st5{opacity:0.3;fill:#DA5B4D;enable-background:new    ;}
</style>
<path class="st0" d="M377.7,38c-0.5-0.8,0.7-1.4,2.5-1.6c2.7-0.3,4.6,0.1,6.3,1.1c1.9,1.2,4.8,1.5,6.9,0.8c0.6-0.2,1.3-0.6,1.2-1
	c0-0.3-0.8-0.7-1.4-0.9c-0.5-0.2-1.4,0-2.1-0.1c-3.6-0.3-5.1-1.6-4-3.2c0.3-0.5,0.4-1,0.6-1.7c-5,0.1-9.6,0.2-14.1,0.3
	c-1.6,0-2.8,0-2.9-0.9c3-1.5,6.7-1.7,10.9-1.5c3.2,0.2,6.3,0.3,8.6,1.5c1.4,0.8,3.3,0.8,5.2,0.3c-0.7-0.1-1.2-0.4-0.5-0.7
	c0.7-0.4,1.5-0.7,2.2-1.1c-0.5-0.1-0.8-0.4-0.3-0.7c0.2-0.1,0.4-0.2,0.6-0.3c-0.5-0.1-0.9-0.2-1.3-0.4c-0.6-0.2-0.6-0.6,0-0.8
	c0.4-0.1,0.8-0.2,1.1-0.3c-2-0.2-4-0.5-5.9-0.8v-0.7c2-0.3,3.9-0.5,7-0.9c-3.8-0.9-6.5-1.9-9.6-2.2c-3-0.3-6.3,0.1-9.5,0.1
	c-0.2-0.1-0.4-0.3-0.5-0.4c2.1-1.1,4.2-2.2,6.6-3.4c-1.2-0.1-2.1-0.3-2.7-0.2c-2.7,0.4-5.1,0.3-7.7-0.2c-0.9-0.2-2-0.1-3.1-0.1
	c-0.4,0-0.8,0.3-1.1,0.4c0.5,0.7,0.9,1.3,1.6,2.4c-3-0.3-5.1-0.8-7.2-0.8c-2.4,0-4.7,0.5-7.1,0.7c-1.9,1.6-1.9,1.6-5.6,2.1
	c-4,0.6-8.2,1-12,1.7c-3.5,0.7-6.7,0.7-10.2,0.2c-1.4-0.2-3.3-0.5-4.5-0.2c-4.4,0.9-8.5,0.7-12.3-0.2c-4.5,1.1-8.6,2.1-12.9,3
	c-1.2,0.2-3-0.1-4.4-0.4c-6.1-1.1-12.6-0.8-18.8-1.2c-0.7,0-1.5,0.5-2.3,0.5c-1.3,0-3.1,0.1-3.9-0.2c-3.5-1.4-6.8-3-10.2-4.5
	c-1.6-0.7-2.9-1.6-4.7-2.3c-1.6-0.6-5.1-0.4-5.8,0.2c-1.1,1,0.1,1.7,1.8,2.2c2.9,0.9,5.9,1.7,8.9,2.5c1,0.3,2.1,0.6,2.8,1
	c3.8,2.4,8.4,4.5,13.3,6.4c2.2,0.9,1.9,1.7-0.9,2.1c-6.1,0.9-11.9,2.7-18.8,1.4c-0.6-0.1-1.5,0-2,0.2c-1.5,0.4-1.8,0.9-0.5,1.5
	c2,0.5,4.3-1.3,6.3,0.3c-0.6,0.8-1.2,1.7-1.9,2.9c-1.7-0.3-2.8-0.5-4.8-0.9c2.7,2.4,1,3.7-2.6,4.9c-2.7,0.9-5.5,1.9-7.4,3.7
	c5.2-0.6,8.9,0,12.3,1.4c1,0.4,3,0.6,4.3,0.5c3.8-0.3,7.6-0.8,11.4-1.1c2-0.2,4.1-0.1,6.2-0.4c3.4-0.3,5.9,0.6,8.8,1.4
	c0.5-0.5,0.9-0.9,1.1-1.2c0.2-0.4,0.2-0.9,0.4-1.6c7.1,1.4,13.9,2.5,21.2,1.5c0.9,0.7,1.6,1.3,2.7,2.3c1.5-2.4,4.9-3.2,9.2-3.4
	c1.2-0.1,2.6-0.3,3.3-0.7c3.9-2,9-1.4,13.5-1.7c0.8,0.6,1.3,1,2,1.6c7.3-2.4,14.7-2.8,22.4-0.8c1,0.3,2.4,0.3,3.6,0.4
	c8.2,0.3,16.5,0.5,24.7,0.7c0.2,0,0.5-0.2,0.9-0.4c-1.5-2.2-8.1-0.8-9.4-2.5c-2.7,0-4.7,0.1-6.7,0c-2.1-0.1-4.1-0.4-6.1-0.7
	c-2-0.2-4-0.4-6.8-0.7c0.7-1.1,0.7-2.4,1.9-2.7c2.8-0.8,4.5,0.6,6.4,1.4c5.2-1.4,10.1-0.6,14.8,0.3c3.7,0.7,6.5,0.2,8.4-1.4
	c-4.9-0.4-9.8-0.8-14.7-1.2C379.4,39,377.9,38.4,377.7,38z M276.7,29.3c-0.6,0.1-1.3-0.2-2.4-0.3c1.6-0.6,2.1-0.8,2.6-1
	c0.4,0.2,1.1,0.5,1.1,0.7C277.9,28.9,277.3,29.2,276.7,29.3z"/>
<path class="st1" d="M260.3,151.8c-2.3-1.7-7-0.8-6.7-4.2c1.7,0.3,3.2,0.5,4.7,0.7c-0.7-1.7-1.3-3-1.8-4.4c-0.6-1.6-1.5-2.7-4.2-2.8
	c-1.3-0.1-2.6-0.5-3.9-0.8c-2.6-0.6-5.3-1.6-7.9-1.6c-9.1-0.2-18.2-0.2-27.4-0.2c-2.4,0-4.9-0.1-7.3,0.2c-2.1,0.2-4,0.9-3.4,3
	c0.2,0.6-0.6,1.9-1.5,2.1c-3.5,1.1-4.6,3.3-5.7,5.5c-0.3,0.7-0.6,1.6-1.4,1.9c-1,0.5-2.6,0.9-3.7,0.7c-1.4-0.2-2.1-1.2-1.3-2.4
	c0.6-0.8,1.4-1.9-1.1-2.4c-0.4,1-0.8,2-1.4,3.3c-2.3-0.7-4.4-1.3-7.4-2.3c3.2-1.2,5.4-2,7.7-2.8c-1.8-1.8-3.4-3.6-5.2-5.2
	c-0.4-0.3-1.2-0.6-1.8-0.7c-3.4-0.2-6.3-2.1-10-1.5c-1.2,0.2-2.7-0.3-4.1-0.6c-3.1-0.7-6.2-1.6-9.3-2.3c-4.1-1-8.2-2.1-12.5-2.8
	c-5.1-0.9-9.9-2.8-15.8-1.8c-3.1,0.5-7.3-0.8-8.5-3.4c-1.1-2.3-3.3-3.1-6.1-3.4c-4-0.5-8-1.1-12-1.4c-1.9-0.1-4.6,0.1-5.8,0.9
	c-1.7,1.2-6.1,1.2-4.7,4.1c0.1,0.2-0.4,0.6-0.7,0.8c-2.8,1.9-5.6,3.7-8.6,5.7c1.7,1.1,2.9,1.8,3.8,2.4c-0.8,2.4-1.5,4.5-2.2,6.6
	c-0.5,1.7-1.6,2.6-4.3,2.5c-2.6-0.1-5.1,0.1-5.4-2.5c1.3-0.5,2.6-0.9,4.5-1.6c-5.2-1.6-9.9-3-14.5-4.5c0.1-0.2,0.2-0.4,0.3-0.7
	c1.6,0.1,3.1,0.3,5.8,0.5c-3.1-1.5-5.3-2.6-7.8-3.8c-2.3,2.5-4.6,4.8-2.9,7.7c-3.5,2-6.7,3.9-9.5,5.5c-0.1,3.9,5,7,0.6,10.4
	c2.9,2.4,8.7-0.1,10.5,3.5c-3.8,0.2-4,0.3-5.6,1.6c-1.5-0.5-3-0.9-4.9-1.5c0.3,1.3,0.8,2.2,0.5,3c-0.3,0.9-1.4,1.6-2.2,2.4
	c0.8,1,1.5,1.9,2,2.6c-1.3,2.1-2.5,4-3.7,5.9c-1-0.1-2.4-0.2-3.7-0.3c-0.1,0.2-0.2,0.4-0.2,0.6c1.5,0.9,3.1,1.7,4.4,2.5
	c-1.5,1.2-3.9,2.1-3.9,3.1c0,2.3-0.4,5.3,2.5,6.7c2.5,1.2,6.4,1.8,9.4,1.5c3.4-0.4,6.7-0.1,9.2,0.9c3.2,1.3,6.3,1.2,9.5,1.5
	c2.8,0.2,5.5,0.6,8.3,1c3.5,0.5,6.9,1.5,10.3,1.5c5.5,0.1,10.3,1.3,15,3c5.6,2,11.4,4,18,1.9c0.3-0.1,0.7,0,1.1,0.1
	c0.1,0.4,0.3,0.9,0.4,1.2c5.3,0.3,10.6,0.6,16,1c0.8-1.8-0.6-2.4-2.6-2.4c-6.2,0-12.2-1-18.2-2.1c-8.1-1.5-16.4-2.7-24.6-4.1
	c-1-0.2-1.9-0.5-2.8-0.8c3.6-0.2,7-0.2,10.4,0.3c5.8,0.7,11.6,1.6,17.4,2.6c8.1,1.4,16.3,1.8,24.6,1.7c4-0.1,8,0.6,12,1.1
	c1.7,0.2,2.2,1.1,0.5,2.3c-3.6-1.1-7-1.3-9,1.3c1.9,2.2,3.5,4.2,5.3,6.3c2.1-1,3.6-2.6,6.3-1.1c0.6,0.3,2,0,3-0.1
	c4.2-0.7,8.3-0.7,12.6-0.3c3.1,0.3,6.3,0,9.4,0.1c1,0,2.5-0.1,3.1,0.3c3.5,2.5,8.3,1.5,11.1,2.3c2.3-0.8,3.7-1.3,5.2-1.8
	c-3.6-0.5-7-1.7-10.6,0.1c-0.9-0.9-1.9-1.8-3.3-3.1c-2.3,2.7-5.8-0.8-8.4,1.2c-1.8-1.9-5.2-1.6-8.2-2.9c7.7-2,14.6-0.7,21.5,0
	c7.7,0.8,15.2,2.2,22.8,3.3c2.1,0.3,4.2,0.3,6.3,0.4c1.9,0.1,2.3-0.8,2.2-1.9c0,0-0.1,0-0.1,0.1c-0.1-0.1-0.1-0.1-0.2-0.1
	c-1.2-0.1-2.5-0.3-4-0.5c2.5-0.8,2.6-0.8,4,0.5c0.1,0,0.2,0,0.3,0l0,0c2.4-1,4.6-1.9,7.6-1.8c1.8,0.1,3.5-0.7,3.2-2.3
	c-0.4-2.1,1.4-2.6,3.7-2.8c2.7-0.2,4.7-0.9,5.5-2.8c-1.1-2.5-7-2.6-6.3-6.3c4.5,0.6,8.7,1.3,14,2c-1-1.9-1.3-3.1-2.3-4
	c-1.5-1.3-3.3-2.5-5.3-3.5c-2.2-1.1-1.5-1.9-0.1-3.2c1.5,0.5,2.8,0.9,4.2,1.3c0.9-2.4,0.8-2.9-1.9-3.3c-3.4-0.5-6.8-0.5-10.4-0.8
	c-0.3-1.6-0.6-3.2-0.8-4.6c3.2-1.8,6.4-3.5,9.7-5.3c-0.6-0.7-2.4-2.3-2.3-2.4c2.4-1.5-1.1-2.7-0.2-4.2c3.5-0.3,6.9-0.6,9.9-0.9
	c2.3-1.9,1-3.4-0.5-4.8C257.8,152.3,258.8,152.1,260.3,151.8z M63.3,187.1c-0.1-0.3-0.1-0.5-0.2-0.8c2.4-0.9,2.4-0.9,6.1,0.3
	C66.6,186.8,64.9,187,63.3,187.1z M63.2,164.7c0.6-0.4,0.8-0.6,1-0.6c1.5,0.2,2.9,0.4,2.4,2.1C65.4,165.7,64.3,165.2,63.2,164.7z
	 M69.2,162.2c1.7,0.7,3.4,1.1,4.3,2c0.8,0.8,0.8,2.1,1.1,3.1C69,167,68.5,166.5,69.2,162.2z M70.6,185.8c3.2-1.2,4.8,0.1,7.7,1.3
	C74.8,187.5,72.6,188,70.6,185.8z M73.8,157.1c0.7,0.8,1.3,1.5,2.3,2.6c-5.1,0.2-8.7-0.9-12.6-2.2c2.5-2.3,5-1,7.6-0.6
	c1.9-1.3,4.1-2.7,7.5-0.9C77,156.3,75.5,156.7,73.8,157.1z M89.1,189.6c-1.2-0.2-2.5-0.3-3.7-0.5c0.1-0.2,0.2-0.5,0.3-0.7
	c1.2,0.2,2.4,0.5,3.6,0.7C89.2,189.3,89.1,189.4,89.1,189.6z M186.4,156.5c-0.2-0.5-0.5-0.8-0.5-1.2c0-0.1,1-0.4,1.2-0.3
	c0.4,0.2,0.6,0.6,0.9,1C187.6,156.1,187.1,156.2,186.4,156.5z M75.7,137.6c-1.3-0.3-2.7-0.7-4-1c0.1-0.2,0.2-0.4,0.3-0.5
	c1.3,0.3,2.7,0.7,4,1C75.9,137.2,75.8,137.4,75.7,137.6z M100.6,196.1c0.9,0.2,1.9,0.3,2.8,0.5c-0.1,0.3-0.2,0.6-0.3,0.8
	c-0.9-0.2-1.9-0.5-2.8-0.7C100.4,196.5,100.5,196.3,100.6,196.1z"/>
<path class="st2" d="M616.2,94.7c0.8,0.2,1.5,0.3,2.4,0.3c0.7,0.1,0.8,1.1,2.6-0.4c-0.7-0.4-1.6-0.5-1.8-1c-0.1-0.5,0.6-1.7,1.1-2.8
	c-2.7,1-3.5,0.6-4.2-0.4c-0.5-1.1-0.7-2.7-4.1-1.7c-0.7,0.2-0.8-0.2-1.5-0.2c0.4-0.2,0.8-0.5,1.2-0.8c1.1-0.3,1.9-0.5,3.4-0.9
	c-0.8-2.2-3.7-2.6-3.1-5.6c0.8,0.2,1.3,0.2,1.7,0.5c0.5,0.5,0.9,1.2,1.7,1.5c3.7,0.8,7.2,1.8,8.3,4.7c0,0.2,0,0.5,0.3,0.5
	c2.7-0.3,2.9,1.3,3.8,2.3c1.4,1.8,3.9,2.9,3.5,5.5c1.3,0.3,3,0.2,3.2,0.8c0.5,1.8,0.3,3.9,0.3,6c-2.9,1.3-4.4,0.3-7.5,2.5
	c0.4,0.8,0.6,1.6,1.1,2.4c0.2,0.2,0.5,0.5,0.8,0.4c2.4-1,2,0,1.8,1c-0.2,0.8,0.5,1.1,0.7,1.7c1-0.8,1.7-1.3,2.1-1.7
	c-0.1-0.8,0.1-1.6,0.2-2.4c0.3-0.1,0.6-0.4,0.9-0.5c-1.3-0.1-2.5-0.2-3.8-0.2c1.4-0.9,2.5-1.6,3.9-2.4c0.9-0.4,1.9-1,2.2-0.9
	c1.1,0.4,3.1,0.6,2.7,1.6c-0.1,1.3,0.3,2.2,0.7,3.2c-0.1,0.2,0,0.3,0.2,0.5c0.6-0.8,1.1-1.3,1.4-1.7c2.1-0.8,3.9-1.3,6-2.1
	c-0.4,0.8-0.9,1.7-1.3,2.4c0.6,0,1.1,0.1,2,0c-0.6,1.2-1.1,2-3,3c-0.9,0.4-1.5,1.1-2.2,1.8l6.1-1.1c-1,1.5-4.4,3.8-2.3,4.3
	c0.7-0.3,1.5-0.8,2.3-1.1c-0.5,1.2-0.3,2-2.8,2.8c-1.8,0.5-2.7,1.5-2.7,2.5c1.3-0.2,2.9-0.7,4.1-0.8c1.1-0.1,1.7,0.3,2.7,0.4
	c0.8,0.2,3-0.8,2.3,0.9c-1.8,0.1-3.6,0.3-6,2.9c2.4-0.8,4.6-1.3,6.7-2.3c1-0.5,1.8-1.9,3.1-3.2c0.8-0.2,1.8-0.4,2.5-0.7
	c-0.1,0.3-0.1,0.6-0.3,0.7c-2.7,2.3-1.8,3.5-2.7,5.3c-0.2,0.2,0.2,0.4,0.3,0.4c2-0.9,1.4,0.2,1,0.9c-0.4,0.9-1,1.9-1.4,2.7
	c1.4-0.3,2.6-0.7,4-0.9c0.2-0.1,0,0.3,0,0.7c-1,0.4-1.9,0.7-2.7,1c-1.6,2.2-1.8,2.7-0.2,2.3c1.8-0.5,3.7-1.3,6-2.1
	c-0.8-0.5-1.4-0.8-1.9-1.1c0-0.1,0.4-0.4,0.4-0.4c1.3-0.2,2.5-0.3,4.2-0.5c-2,2.6,0,4-4.3,7.3c-0.4,0.3-0.5,1.1-0.6,1.9
	c2.8-1.7,5.3-3.1,8.4-4.9c-1.1-0.2-2-0.2-2.8-0.4c0.4-1.5,0.5-3.1,0.9-5.1c1,0.2,1.5,0.3,2.3,0.5c1-1.3,1.9-2.4,2.7-3.6
	c0.2,0.3,0.5,0.4,0.9,0.5c1.2-1.2,1.1-2,0.1-2c-1.4,0-0.6-1.1,0-2.1c-0.6,0.1-1.3,0.2-1.7,0.1c-1.1-0.3-0.4-1.8,1.2-2.8
	c2.8-1.7,3.3-2.4,2.6-3.3c-0.3-0.6-0.8-1-1.2-1.5c2.1-2.3,3.1-4.4,2.1-5.3c-1.3-1.3-0.6-3.3,0.6-5.6c0.7-1.3,1.3-2.8,1.2-3.7
	c-0.5-1.2,0-2.5,3-4.5c-2.6,0.2-3.5-1.1-2.2-3.2c0.9-1.4,0.8-2.1,0.3-2.8c-0.9-1.9-1.5-4-1.9-6.1c-0.1-1.1,0.1-1.3,2.5-2.1
	c1-1,1.7-0.9,2.5-1c1.3-1.8,2.1-3.4,1.2-4.4c1.1,0,1.8,0.2,2.9,0.2c1.1-1,2.1-1.9,3.3-2.9c0.2,0.3,0.4,0.4,0.8,0.5
	c0.2,0.1,0.5,0.1,0.8,0.2c2-2-0.1-1.7-0.2-2.4c-0.5-2-1.5-3.8-3.6-4.9c-0.8-0.5-0.8-1.6-1.3-2.5c-0.1-0.3-0.3-0.6-0.5-0.8
	c-0.5-0.5-1.2-1.1-1.8-1.7c-0.7-0.7-1.2-1.4-1.8-1.8c0.5-1.3,1.2-2.4,0.9-3c-0.4-1-2.6,0.3-4.2,1.1c-0.5-0.3-1-0.5-1.3-0.8
	c0-0.2,0.1-0.5-0.2-0.5c0.9-0.4,1.5-0.8,2.2-1.1c0.6-1.3-0.4-0.9-1.7-0.5c-2.6,0.8-3.2,0.2-2.5-1.8c-0.4,0-0.8,0.1-1.2,0.1
	c1.4-1.3,2.3-2.4,3.8-3.9c-2.6,1.1-3.9-0.1-6.5,3c-1.4-1.2-2.7-2.3-4.1-3.3c-0.5-0.5-1.1-1.1-1.7-1.5c-2-0.9-4-1.6-6-2.5
	c-0.7-0.3-0.8-1.3-1.7-1.2c-3,0.7-4.6-0.1-6.7-0.2c-0.2,0.1,0-0.2,0.1-0.5c0.7-0.5,1.4-1.1,1.9-1.5c-0.1-2-4.3,0.7-5.7,0.1
	c0.6-0.8,1.2-1.6,2-2.6l-9,1.7c0,0,0,0,0,0.1c0,0,0,0-0.2,0.1c-1.1,1-1.9,1.3-2.9,1.1c1.4-1,2.3-1.5,2.9-1.1l0,0l0,0
	c0.3-0.4,0.2-0.6,0.5-1c-1.1-0.1-3.3,0.4-3.2-0.2c0.2-1.3-2-0.7-2.2-1.5c-0.2-0.2-1-0.2-1.5,0c-0.5,0.2-1.1,1-1.4,1.3
	c-1.9,0.4-3.4,0.7-5.1,1c-1.5,0.3-3.1,0.8-4.5,1c-1.5,0.3-1.7-0.2-0.4-1.5c0.5-0.5,1.2-1,1.8-1.5c-2-0.1-2-0.1-5,1.4
	c-4.3,2.2-6.5,1.7-5.7-0.9c0.2-0.5-0.6-0.8-0.9-1.3c-2.6,2.3-5.5,3.8-7.1,3.6c-3.8-0.3-8.7,0.9-13.6,2c-0.9,0.2-1.8,0.6-2.4,0.6
	c-3-0.1-6.2-0.1-11,2.4c0.4-0.8,0.8-1.3,0.9-1.6c0.1-0.3,0-0.7,0-0.9c-2.7,1.1-1.2,1.7-2.3,2.7c-1.8-0.1-2.5-1.5-5.7,0.2
	c-0.6,0.6-1.2,1.2-2,2.1c-0.3-1.4-2.8-0.5-4,0.1c-3.2,1.8-5.8,3.1-8,2.5c-0.8-0.3-2.4,0.1-3.8,0.3c-1.3,0.2-2.5,0.3-4,0.5
	c0.9-1.2,1.8-2.2,2.8-3.5c-1.3,0.2-2.4,0-3.5,0.4c-4.2,1.7-8.6,3.6-12.9,5.5s-8.6,3.6-13,5.6c-4.8,2.2-9.5,4.4-14.3,6.7
	c-7,3.5-14,7.1-20.7,11.7c-4.2,2.9-8.1,6.2-12.9,8.4c-1.3,0.5-2.3,1.7-3.9,2.6c-3.6,2.3-6.9,5.8-11,6.4c-0.2,0.1-0.6,0.3-0.7,0.4
	c-2.8,2.4-6,3.9-9.1,5.5c-4.6,2.4-6.9,5.3-10,8.2c-0.5,0.5-0.5,1.3-0.4,1.8c-0.1,0.5,0.6,0.6,0.7,1.1c-1.6,1.4-3.1,2.7-4.6,4.2
	c1.8-0.2,3.3-0.3,4.8-0.4c0.5,0,1.1,0.2,1,0.6c-0.1,0.3-1.1,1.1-1.9,1.5c-3.7,1.7-7.1,4.2-10.2,7.1c2.1,0.4,1.9,2.1,1.3,4.1
	c2-0.5,3.6-0.9,5.5-1.4c-0.2,0.2-0.1,0.3-0.3,0.6c-3.1,1.2-6.3,2.5-9.7,3.8c0.9,0.4,1.5,0.7,2.3,1c-3.6,2.4-7.6,4.6-8.3,7.5
	c4-0.9,8.2-2,12.4-3c0.2-0.1,0.3-0.1,0.5-0.2c1.7-0.5,3.6-1.2,5.2-1.6c4.9-1.2,9.9-2.4,14.5-3.3c2.8-0.4,5.6-0.6,7.7-0.1
	c1.9,0.3,3.9,0.6,6.4,0.2c0.6-0.1,1-0.1,1.6-0.2c0.1-0.1,0.4-0.3,0.4-0.2c12.4-4.7,24.5-8.1,36.2-11.1c0-0.1,0-0.1,0.2-0.2
	c0.7-0.3,1.5-0.8,2.2-1c5.1-1.8,10.1-3.6,15.4-5.6c1.8-0.7,3.5-1.3,5.5-2.2c2.4-1,5-2.7,6.7-2.1c0.4,0,1.1-0.3,1.4-0.4
	c4.1-1.5,8.1-3,12.3-4.5c0.5,1.1,0.7,2.3,1.2,3.2c2-0.6,3.6-0.5,5-0.3c1.2,0.2,2.5,0.2,3.9,0.1c-0.3-0.2-0.4-0.5-0.7-0.8
	c3.1-2,3.5-2,3.5-0.4c1.3-0.5,2.4-1,4.2-1.7c-1,1-1.7,1.7-2.4,2.2c2.5-0.4,4.6-0.7,6.4-0.5c2.3-1.9,4.9-2.3,7.2-4
	c1-0.7,2.1-1.1,3.4-1.9c-2.3-0.1,1.6-2.5,0.4-3.3c1.4-0.2,1.8-0.2,2.7-0.3c1.1-1.1,1.8-3,4.3-3c-0.2,0.2-0.3,0.5-0.2,0.6
	c-0.1,0.3-0.2,0.5-0.3,1.1c3.6-3.6,3-4.2-2.1-3.6c3.6-2.3,4.6-1.2,6.4-1c0.5-2.3-2.4-2-3.7-2.8c1.9-0.6,3.2-0.5,4,0
	c0.8,0.4,1.8,1,3.2,0.8c2.2-0.4,2.6,0.1,2.3,1.5c-0.2,0.8-0.8,1.9,1.1,1.3c0.9-1.3,2.3-2.5,4.2-2.9c1.3,1.8,6.6,0.7,5.3,4.2
	c1.4-0.1,3.1-0.7,3.6-0.3C614.6,91,617,91.9,616.2,94.7z M664.4,123.2c-0.3,0.1-0.7,0.4-1.1,0.5c-0.4,0.1-0.5,0-1-0.2
	c1-0.3,1.5-0.6,1.7-0.6C664.4,122.9,664.3,123.1,664.4,123.2z M666.2,119.9c-1.9,1.6-2.7,1.8-3.1,0.8
	C664.3,120.4,665,120.2,666.2,119.9z M649.4,117.1c-0.2-0.2-0.3-0.4-0.3-0.5c0.4-0.4,0.8-0.7,1.2-1c0.2,0.1,0.2,0.3,0.6,0.3
	C650.3,116.4,649.9,116.7,649.4,117.1z M683.8,68.1c0,0.2,0.3,0.4,0.4,0.6c-0.2,0.2-0.6,0.6-1.5,1.2c0.1-0.5-0.2-0.6-0.1-0.8
	C682.9,68.8,683.3,68.6,683.8,68.1z M679.6,75.5c-2.5,0.9-1.9-0.2-2.3-0.6c0.4-0.3,0.6-0.4,0.8-0.5C678.5,74.6,678.9,75,679.6,75.5z
	 M680.1,71.2c0.3,0.1,0.6,0.3,0.9,0.4c-0.4,0.3-0.7,0.5-0.9,0.7c-0.3-0.2-0.5-0.4-0.8-0.6C679.7,71.5,679.8,71.3,680.1,71.2z
	 M655.5,110L655.5,110C655.6,110,655.6,110,655.5,110c1.4-0.5,2.5-1,3.7-1.5c1,2.2-0.4,4.4-5.3,7.7c-0.5-1.4,1.4-3,3.7-4.7
	c-0.6-0.5-1.3-1-2.2-1.3l-0.2,0.1C655.3,110.1,655.5,110,655.5,110c-0.2-0.3-0.7-0.6-1.4-1.1C656.4,108.4,655.7,109.4,655.5,110z
	 M655.6,101c-0.1,0.5,0.2,0.5,0.1,0.9c-0.3,0.1-0.9,0.5-1,0.5c-0.2-0.1-0.3-0.2-0.2-0.4C654.6,101.7,655,101.5,655.6,101z
	 M670.8,54.1c1-0.3,2.1-0.9,2.8-0.9c1.4-0.1,2.2,1.5,2.2,2.8c-1.8-0.4-3.7-0.8-5.4-1.2L670.8,54.1z M641.5,97.9
	c2.7,0.2,1.5,2.5,1,4.6c-4.1,0.9,0.7-3.7-3.7-2.3C640.1,99,640.7,98.5,641.5,97.9z M633.9,91.6c0.6,0.3,2.6-0.7,2,0.9
	c-0.5,1,2.5,0.3-0.2,2.8c-0.9-1.2-1.7-2.2-2.6-3.1C633.4,91.9,633.8,91.7,633.9,91.6z M631.4,89.4c0.4,0,0.8,0,1,0.1
	c0.2,0.1,0,0.5,0.1,0.7c-0.3,0.1-0.4,0.2-0.9,0.4c-0.2-0.3-0.6-0.6-0.8-1C630.8,89.8,631,89.7,631.4,89.4z M455.4,126.2
	c-1.1,0.1-2.3,0.3-3.3,0.3c0.2-0.2,0.2-0.3,0.4-0.5l3.4-0.6C455.9,125.6,455.7,125.9,455.4,126.2z M608.4,86.1c-0.1-0.3,0-0.7-0.2-1
	c0.3-0.1,0.7-0.4,0.9-0.4c0.2,0.2,0.2,0.6,0.5,0.8C609.2,85.6,608.6,86,608.4,86.1z M625.6,189.5c-1.2-0.3-3.7,0.6-4-0.7
	c-0.1,0-1.8,0.8-2.9,1.2c0.1,0.4,0.3,0.6,0.7,0.4c1.3-0.5,1.4-0.1,0.9,0.7c-0.6,0.9-1.6,1.3-2.3,1.2c-0.7,0-1.2-0.3-1.8-0.5
	c3-3.1,6-5.9,9.1-8.4c0.4-0.1,0.5,0,0.9-0.1c-0.5,1-0.8,2-1.3,3.1c2.2-2,4.3-3.9,6.6-6.1c-1.1,0.3-1.6,0.5-2.1,0.6
	c-0.5,0.1-1,0.1-1,0.1c1.1-1.5,1.7-2.6,2.5-3.8s1.8-2.3,3-3.8c-1.8,0.8-3,1.3-4.2,1.9c-0.1,0.5,0.1,0.8-0.2,1.4
	c-3.7,1.1-3.9,3.7-7.2,5.3c0.8,0.2,1.3,0.2,1.9,0.3c-1,1.1-1.8,2-2.8,3.1c-2.6,2.7-3.9,3.2-6.1,2.3c1.8-1.9,3.9-4,5.6-5.9
	c1.8-2.1,3.2-4.2,5-6.4c3.5-1.7,4-2.2,3.8-3.7c-0.1-0.6,0-1.3,0.5-2.1c0.6-1.2,1.8-2.5,2.4-3.7c1.5-3,3.5-6,7-9.3
	c-1.1,0-2-0.2-3.3-0.3c-1.7,2.8-6.1,5.8-6.9,8.5c2.4,0.3,2.4,0.5,1.4,2.2c-1.1,2-2.4,4.1-6.6,5.7c0.9,2.3-2.1,5.2-4.9,8.1
	c-1.7,1.8-3.8,3.7-4.6,5.2c-1.4,2.5-4.3,4.4-6.7,6.6c-0.4,0.4-1.3,0.6-2.2,1c2.1-3.2,4.9-6.1,7.9-9c1.1-1,2.8-2.7,2.7-3.1
	c-0.2-0.9,0.7-1.6,2-2.6c1.2-0.9,2.2-1.8,2.6-2.9c-3.1,1.4-5.1,3.4-6.1,4.8c-1.9,2.8-4.7,5.1-8.4,7.5c-0.1,0.1-0.3,0.4-0.4,0.6
	c3,0,2.6,1.3-0.9,4c-0.4,0.3-0.6,0.4-0.8,0.5c-1.3,0.7-1.9,1.3-2.4,2.3c-0.4,0.9-1.5,2.1-2.6,3.2c-3.7,4-7.4,8.1-11.2,12.1
	c-6.2,6.6-14.3,12.6-22,18.6c-0.4,0.3-1.3,0.6-1.8,0.8c1.7-1.7,3.7-3.1,5.5-4.5c1.9-1.5,2.9-2.9,3.6-4.6c-1.3,1.2-2.4,2.1-3.3,2.9
	c-2.3,1.9-4.4,3.8-6.6,5.6c-4.7,3.8-9.2,8-14.2,11.8c-8.7,6.6-17.7,13-26.8,19.4c-11.5,8.2-23,16.3-35.3,23.8
	c-1.8,1.1-2.9,2.3-3.7,3.7c1.2-0.6,2.1-1,2.8-1.4c12.8-6.6,25.1-14.9,37.6-22.5c3.3-2,6.7-4.4,9.9-6.5c3.5-2.3,6.8-4.5,10.3-6.7
	c3.2-2.1,6.2-4,9.3-5.9c3.6-2.4,7.4-4.7,11.1-7.2c3-2,6.3-4,8.8-6.2c3-2.6,6.5-4.6,9.7-7.1c1-0.8,2.6-1.4,3.8-1.9
	c3.3-1.2,6.2-3.3,9.2-5.7c-2.7,1-4.6,1.8-7.2,2.6c0.6-0.9,0.9-1.7,1.4-2.2c3.3-2.7,6.5-5,10.4-5.5c2.2-3,5-5,8.9-6.4
	c0.2-0.2,0.1-0.3,0.3-0.6c-1.6,0.2-2.9,0.2-4.8,0.2c1.8-1.7,3.6-3.2,5.2-4.6c1.1-1,2.1-1.8,3.5-2c1.7-0.2,3.1-1.3,5.3-3.1
	c-2.1,0.8-4,2.2-4.7,1.1c1.9-0.5,3.2-1.5,4.4-2.9c0.8-1,2.9-2.3,4.3-3.1c0.7-0.4,1.7-0.1,2.4-0.2
	C627.2,189.7,626.3,189.6,625.6,189.5z M602.9,197.5c0-0.2-0.3-0.2-0.2-0.4c0-0.1,0.5-0.4,0.7-0.5c0.2,0,0.4,0,0.8,0.1
	C603.4,197.1,603.2,197.3,602.9,197.5z M612.5,195.1c-3.1,2.1-5,5.2-8.8,6.8c2.8-3,4.9-6.1,10-8.6
	C613.1,194,612.9,194.8,612.5,195.1z M614.4,191.6c0.1-0.2,0.1-0.5-0.1-0.6c0.9-0.4,1.4-0.8,2.2-1.1c0,0,0.1,0.3,0,0.5
	C615.9,190.9,615.1,191.3,614.4,191.6z M615.3,195.5c-0.5,0.2-0.9,0.3-1.6,0.4c1.1-1.3,2-1.8,3.5-1.6
	C616.1,195,616,195.2,615.3,195.5z M639.7,117.8c-3.2,2.5-4.2,4.4-3.5,7.5c-1.1-0.1-2.6,0.2-3.5,1.6c-0.5,0-1.1,0-2,0
	c3.6-2.4,3.5-3.9,4.1-5.6c0.8-1.9,1.5-3.6,2.2-5.6c-1,0.2-2.2,0.4-3.7,0.7c0.7,0.4,1.4,0.6,2,1.1c-1.5,0.7-2.4,1-3.9,1.7
	c0.1,0.9,0.3,1.7,0.3,2.8c-0.7,0-1.7,0.1-1.6-0.2c0.9-2.2,1.8-4.4,2.6-6.4c3.4-1.5,6.2-2.8,9.2-4.1c1.1-0.7,0.3-1.9,2.6-2.5
	c-0.3,1-0.4,1.9-0.6,2.9l0-0.1c-1.4,0.9-2.8,1.7-4.7,2.9c-0.3,0.6-0.7,1.6-1.1,2.5c1.8-0.2,3.5-0.4,5.5-0.7c-1,1.1-1.8,1.9-3.2,3.4
	C639.8,119,639.8,118.4,639.7,117.8z M649.2,171.5c-0.1,0.6-0.5,1.4-1.1,2.5c-3.6,1.2-6.7,2.2-10,4.9c-0.4,0.3-0.4,0.3-0.6,0.6
	c-1.9,1.2-2.1,2.7-4.5,3.9c-1.6,0.8-3.3,2.2-5.3,3.6c-0.4-1.1,1.7-3,3-3.8c3.4-1.9,4.9-4,7-6c1.5-1.4,2.5-2.4,4.7-3.5
	c2-1,4-2.8,6.1-4.3c0.2,0.1,0.3,0.1,0.5,0.2c-1.3,1.1-2.4,2.2-3.6,3.3C645.6,174.5,648,171.3,649.2,171.5z M673,37.9
	c0.3,0.6,1,0.9,0.8,1.5c-0.3,0.6-1.9,1.6-1.2,1.8c0.5,0.2,1.7,0,2.6,0c0.8-1.9,2.3-3.2,4.2-3.5c1.1-0.1,2-0.6,3.2-1.4
	c0.4-0.3,1.3-0.5,1.7-0.7c0.8-0.7,1.9-1.5,2.9-2.4c-0.6,0-1.4,0-1.5,0c-2,1.5-2.6,1.1-3.4,0.8c-1-0.2-1.7-0.7-2.7-1.1
	c-0.9,1.7-1.6,2.9-2.5,4.3C675.6,37.5,675.3,36.6,673,37.9z M680,35.7c0.2,0,0.6,0,0.7,0.1c0.1,0-0.4,0.4-0.9,0.9
	c-0.2-0.1-0.5-0.2-0.5-0.3C679.1,36.4,679.8,35.8,680,35.7z M663.4,138.7c-1.7-1.3-0.2-3.4,3.7-5.5c1.2-0.7,2.7-2,4-3
	c0.2,0.1,0.3,0.1,0.5,0C669.1,133.1,669.5,136,663.4,138.7z M625.4,100c1.1-0.1,2.3-0.3,3.3-0.3c-0.2,0.8-0.6,1.7-1.1,2.7
	c-3.6,0-4-2.2-5.4-3.7c2.5-1.7,3.8-1.8,4.9-1.7C628.6,97.5,625.5,99.1,625.4,100z M653,160.8c2.2-0.5,4.4-1.2,6.5-3
	c1.3,1.4,1.3,1.4-1.7,3.8c0-0.7,0-1.2,0-1.9c-1.4,1-2.4,1.8-3.8,2.8C653.7,161.9,653.4,161.3,653,160.8z M657.7,136.9
	c-0.9,0.5-2.4,1.2-2.9,1.1c-0.5,0-0.7-0.8-0.3-1.4c0.4-0.8,1.5-1.7,3-3.4c0.7,0.8,1.4,1.1,1.5,1.8
	C658.9,135.5,658.1,136.5,657.7,136.9z M684.1,35.9c0.4,0.3,1,0.5,1.5,0.6c-0.6,1.2-2.6,2.7-1.3,3.2c0.3,0.1-1.1,1.8-2.1,3.3
	C681.7,40.9,680.3,39.5,684.1,35.9z M649.4,167.9c-0.7-0.3-1.4-0.6-2.3-1c3.2-1,6.1-3.8,9.4-3.9
	C653.9,164.9,651.8,166.3,649.4,167.9z M631.1,130.3c0.5-1.1,1.1-2.2,1.5-3.2c0.9,1.3,0.2,3.1-1.6,5.4c-2.7,1.3-5.2,2.4-7.5,3.6
	c1.1-0.9,1.6-1.9,3.4-2.3C628.7,133.3,630.2,131.9,631.1,130.3z M641.7,143.6c-1.5-0.4-2.9-0.8-4.3-1.1c0-0.1,0.2-0.3,0.3-0.4
	c2.3-0.7,4.8-1.4,7.4-2.1C643.6,141.6,642.6,142.6,641.7,143.6z M591,97.9c-3.4,3.2-5.9,3.9-9.2,4.5C585.3,99.7,587.7,99.5,591,97.9
	z M589,34.4c-2.7,0.9-5,1.6-7.1,2.2c1.8-2.4,3.8-2.6,5.8-3.4C589.3,32.8,589.4,33.5,589,34.4z M646.5,164.4
	c-0.5-0.5-0.9-0.9-1.4-1.1c1.2-0.7,2.3-1.3,3.1-1.9c0.9-0.8,1.8-1.8,3.2-1.8C650,161,648.4,162.5,646.5,164.4z M603.3,88.4
	c-0.2,1.1-0.2,1.8-0.5,2.8c-2.1,1.9-4.3,2-7.5,3.5c1.1-0.9,1.8-1.6,2.4-2C601.1,90.8,601,91,603.3,88.4z M614.9,30.9
	c1.9-0.1,3.6-0.3,4.8-0.3c0.1,0.9,0.5,1.5,0.7,2.3c-0.4,0.3-0.4,0.3-0.6,0.6C618.4,32.5,616.9,31.7,614.9,30.9z M637.2,149.4
	c-0.5,0.6-0.9,1.1-1.7,2.1c-0.2-0.7-0.3-1.1-0.2-1.6c1-0.8,2.3-1.6,2.5-2.1c0.4-0.5-0.7-0.6,1.4-1.5c-0.3,1.3-0.5,2.6-0.7,3.8
	c-0.1,0.1-0.5,0.2-0.6,0.3C637.6,150.1,637.7,149.7,637.2,149.4z M681.5,75.9c0.8-0.1,1.3,0.7,2.5-1c0.2,0.3,0.6,0.5,1.3,0.7
	c-1.3,1.1-2.3,2-3.4,2.9C680,78.1,679.9,77.8,681.5,75.9z M645.9,134c0.8-0.2,1.7-0.7,2.5-1c-0.1,0.2-0.1,0.5,0.1,0.6
	c-1.7,0.7-3.1,2.8-4.9,2.5c-0.5-0.1-0.4-0.9-0.5-1.7C644.4,134.2,644.9,134.3,645.9,134z M681.5,46.5c1.1,0,1.6,0.8,2.4,1.2
	c-0.4,0.3-0.4,0.3-0.6,0.6c-1.3-0.2-2.6-0.5-4.1-0.7c-0.5,0-1.2,0.1-1.8,0.2C679.2,46.2,680.6,46.4,681.5,46.5z M670,33.9
	c0.7-0.8,1.5-1.7,2.9-3.1c0.4,0.5,1,0.7,1.4,1.1C672.6,32.9,671.2,34.4,670,33.9z M683.9,43.4c1.1-0.6,2.1-1,2.9-1.4
	c0,0.5-0.2,1.1-0.3,1.6c-0.1,0.4-0.1,0.9-0.2,1.7C684.3,45.2,684.3,44.2,683.9,43.4z M663.6,36.5c1.5,0.5,2.5,0.9,3.7,1.3
	C663.4,39.4,663.1,39.3,663.6,36.5z M590.2,102.2c-0.7,0.5-1.1,0.8-1.8,1.3c-0.7-0.9,0.3-2.2,1.8-2.8c1.1-0.5,1.4,0,0.9,0.8
	C590.9,101.6,590.5,102,590.2,102.2z M628,123c0,2.6,0,2.7-2.9,3.5C626.1,125.4,626.8,124.5,628,123z M640.5,133.9
	c-1,1.3-1.9,2.4-2.8,3.6C637.4,135.4,637.4,135.4,640.5,133.9z M637.3,130.1c-1.4,0-2.5,0-3.9,0c1.8-0.9,3.2-1.5,4.5-2.1
	C637.8,128.5,637.7,129,637.3,130.1z M654.7,158c1.1-0.7,2.1-1.1,4-2.2c-1.1,1.8-2,2.7-3.4,3C654.9,158.9,654.9,158.4,654.7,158z
	 M567.2,42.1c-1.4,0.4-2.7,0.9-4.3,1.3c0.4-0.6,0.8-1.1,1.4-2C565.2,41.9,567.4,40.7,567.2,42.1z M642.4,123.6
	c0-0.7,0.2-1.4,0.2-2.3C644.4,121.2,644.4,121.2,642.4,123.6z M690.2,70.2c0.1,0.9,0.3,1.6,0.6,2.4
	C689.2,72.9,688.9,72.5,690.2,70.2z M644,29.9c0.1-0.3,0.1-0.4,0.2-0.8c1.6-1.3,2.6-1.5,4.4-1.3C646.4,28.8,645.3,29.3,644,29.9z
	 M631.5,114.8c-1.1,1.1-2.3,2.2-3.4,3.3C628.2,116.5,629,115.7,631.5,114.8z M575.2,38.5c-1.7,0.7-3.3,1.3-5.8,2.3
	C572,38.9,573.8,38.1,575.2,38.5z M639.2,124.8c-0.9-0.9-0.9-0.9,1.5-2.9C640.3,122.7,639.8,123.6,639.2,124.8z M643.6,147.4
	c-1.1,1.1-1.9,1.8-2.8,2.7C640.2,148.6,640.2,148.6,643.6,147.4z M649.5,123.8c-0.2,0.1-0.2,0.1-0.2,0
	C649.5,123.7,649.5,123.7,649.5,123.8L649.5,123.8c1.4-1,1.4-1,2.7-0.8c-0.6,0.6-1.4,1.3-1.9,1.9c-0.1,0-0.4,0-0.3-0.1
	C649.6,124.5,649.6,124.2,649.5,123.8z M693.3,39.8c0.2,0,0.4,0,0.6,0c-0.5,0.7-1,1.4-1.8,2.3C690.5,41.8,692.3,40.7,693.3,39.8z
	 M689.8,42.5c-1-0.4-1.6-0.7-2.4-0.8c1-0.5,1.9-1,3.1-1.5C690.2,40.9,690.1,41.4,689.8,42.5z M681.2,101.3c-0.2-0.4-0.4-1-0.8-1.4
	C682.8,99.3,682.8,99.3,681.2,101.3z M650.2,130.8c-0.6-0.3-1.2-0.6-1.7-1C651.3,128.7,651.3,128.7,650.2,130.8z M639.8,185.5
	c-1.4,0.4-2.4,0.7-3.3,1c0.1-0.2,0.1-0.3,0.1-0.6C638.1,184.9,639.3,184.2,639.8,185.5z M593.1,33.2c0.1-0.2,0-0.3-0.1-0.6
	c1.2-1,2.4-1.1,3.5-1.6c-0.1,0.2,0,0.3-0.1,0.5C595.6,32,594.4,32.6,593.1,33.2z M676.4,41.8c0.6,0.3,1.3,0.7,1.9,1
	c-0.4,0.2-0.6,0.6-1,0.8c-0.5-0.4-1.3-0.7-1.8-1.1C675.9,42.2,676.1,42,676.4,41.8z M604.4,94.9c1.2-0.7,2.4-1.4,4.5-2.6
	C607.3,94.1,606,94.4,604.4,94.9z M634.1,168.1c0.8-0.2,1.4-0.3,2.2-0.6c0,0-0.1,0.4-0.3,0.5c-0.9,0.4-1.5,0.8-2.2,1
	C633.6,168.8,634,168.4,634.1,168.1z M687.2,41.8c-0.2,0.1-0.4,0.1-0.5,0.1c-0.3-0.7-0.8-1.3,2-2.7
	C688.9,39.9,687.9,40.9,687.2,41.8z M623.4,140.1c-0.7,0.5-1.4,1-2.1,1.5c0-0.2-0.2-0.3-0.4-0.4c0.8-0.5,1.3-0.9,2.1-1.4
	C622.8,139.9,623,140.1,623.4,140.1z M644.2,155.1c-0.1-0.9-0.2-1.2-0.4-1.9C646.1,152.8,645.6,153.5,644.2,155.1z M680.5,133.9
	c-0.4,0.3-0.5,0.4-0.8,0.7c-0.5,0-1.1,0-1.6-0.1c0.4-0.4,0.8-0.7,0.9-0.8C679.8,133.6,680.1,133.7,680.5,133.9z M666.7,148.9
	c0.4-0.7,0.8-1.3,1.1-1.8c0.2,0,0.5-0.1,0.9-0.2c-0.4,0.7-0.8,1.2-1.2,1.9C667.1,148.8,666.9,148.8,666.7,148.9z M686.3,78.2
	c0.3,0.7,0.4,1.1,0.5,1.5C684.7,80.4,685,79.8,686.3,78.2z M624,137.8c1.3-0.5,2.6-1.1,4.3-1.8C626.3,138,625.2,137.5,624,137.8z
	 M590.1,94.3c-1.1,1-1.6,1.5-2.4,2.2C587.3,95.7,587.3,95.7,590.1,94.3z M653.5,150.9c-0.5,0-1.3,0.2-1.8,0.2
	c0.2-0.2,0.3-0.4,0.4-0.6c0.4-0.1,0.9-0.3,1.1-0.2c0.2,0.1,0.5,0.1,0.5,0.2C653.8,150.5,653.8,150.6,653.5,150.9z M661.1,137.4
	c-0.1,0.1-0.4,0.3-0.7,0.5c-0.4-0.3-0.8-0.5-1.2-0.8c0.4-0.2,0.6-0.4,0.9-0.6C660.5,136.8,660.9,137,661.1,137.4z M652.3,173.5
	c-0.7,0.1-1.3,0.2-2.2,0.4C652,172.3,652,172.3,652.3,173.5z M654.9,165.3c0.2,0,0.5,0,0.8-0.1c-0.5,0.5-0.9,1.1-1.3,1.6
	c-0.4,0.1-0.5,0-0.9,0.1C654.1,166.3,654.6,165.7,654.9,165.3z M636,22.7c1.2-0.4,2.1-0.8,3.6-1.3C637.8,23,636.6,23.5,636,22.7z
	 M656.8,131.6c-0.4,0.1-0.7,0.2-1.1,0.3c0.3-0.6,0.5-1.1,0.8-1.7c0.2,0,0.5-0.2,0.8-0.2C657.3,130.5,657,131,656.8,131.6z
	 M677.5,32.4c-0.8,0-1.7,0-2.5,0c0.2-0.2,0.4-0.4,0.5-0.5c0.9-0.1,1.8-0.2,2.7-0.3C677.8,32,677.6,32.2,677.5,32.4z M657,34.6
	c-0.9,0-1.7-0.1-2.6-0.1c0.4-0.3,0.4-0.4,0.6-0.6c0.9,0.1,1.8,0.2,2.7,0.2C657.4,34.3,657.1,34.5,657,34.6z M590,105.2
	c-0.2-0.3-0.8-0.5-1.4-1C591.3,103.4,590.9,104.2,590,105.2z M620,30.3c0.1-0.4,0.3-1,0.3-1.4c1.8-0.9,1.5,0,1.3,0.6
	C621.4,29.7,620.3,30.1,620,30.3z M576.5,103c0.1,0-0.9,0.9-1.1,0.9c-0.5,0.1-0.7-0.1-1.1-0.3c0.8-0.5,1.5-1.1,1.7-1.2
	C576.3,102.5,576.4,102.8,576.5,103z M679.3,119c-0.2,0.1-0.3-0.2-0.6-0.3c0.7-0.4,1.2-0.8,1.4-0.8s0.3,0.2,0.3,0.4
	C680.1,118.5,679.7,118.8,679.3,119z M635.8,184.3c-0.1,0.2,0.1,0.3,0,0.5c-0.9,0.4-1.5,0.9-2.3,1.3c0.1-0.2-0.2-0.2-0.1-0.4
	C634.1,185.2,635,184.8,635.8,184.3z M664.1,140.5c-0.7,0.2-1.3,0.4-1.9,0.6c0.2-0.3,0.3-0.5,0.4-0.8c0.6-0.1,1.4-0.4,2-0.5
	C664.3,140.1,664.2,140.3,664.1,140.5z M677.4,121.2c1.2-0.8,2.3-1.7,2.9-0.7C679.1,120.8,678.3,121.1,677.4,121.2z M632.7,29.8
	c-0.8,0.2-1.4,0.3-2.1,0.5c0.2-0.2,0.3-0.4,0.4-0.7c0.7-0.1,1.3-0.2,2-0.4C633.2,29.3,632.7,29.8,632.7,29.8z M690.9,81.7
	c0.1-0.5-0.1-0.9-0.1-1.3c0.1-0.1,0.4-0.2,0.7-0.4c0.1,0.4,0.3,0.8,0.5,1.1C691.7,81.3,691.1,81.6,690.9,81.7z M660.2,147.5
	c0-0.3-0.2-0.4,0-0.7c0.3-0.3,0.7-0.5,0.9-0.6c0,0.2,0.2,0.3,0,0.5C661,146.9,660.7,147.1,660.2,147.5z M681.4,109.3
	c-0.4,0-0.5-0.1-0.6-0.3c0.1-0.1,0.5-0.4,0.7-0.5c0.4-0.1,0.6,0,1.4-0.1C682,108.9,681.5,109.4,681.4,109.3z M649.3,123.8
	c-1.3,0.5-2.3,1-3.2,1.3C647.3,123.8,648.3,124,649.3,123.8z M698,44.1c-0.5,0-1.1,0-1.5-0.1c0.4-0.3,0.4-0.4,0.5-0.5
	c0.5,0,1.1,0,1.4,0.2C698.2,43.8,698,44,698,44.1z M630.6,188.2c0.2,0.1,0.4,0,0.5,0c-0.5,0.5-1.1,1-1.7,1.7c-0.2-0.1-0.4,0-0.5,0
	C629.5,189.3,630.2,188.7,630.6,188.2z M636.1,141.4c0,0.2,0.2,0.3,0.3,0.5c0,0.1-0.4,0.4-1.1,1C635.9,142,636,141.7,636.1,141.4z
	 M645.8,125.3c-0.4,0.6-0.9,1.2-1.3,1.9C643.3,126.5,644.7,125.9,645.8,125.3z M609.8,210c-0.4,0.3-0.7,0.4-1.1,0.7
	c0-0.2-0.2-0.3-0.2-0.4c0.4-0.2,0.9-0.5,1.3-0.7C609.8,209.5,609.8,209.9,609.8,210z M672.5,42.8c0.2,0,0.5,0.1,0.2,0.4
	c0,0.1-0.4,0.3-1,0.8c-0.1-0.3-0.2-0.4-0.2-0.7C671.9,43.1,672.4,42.8,672.5,42.8z M651.5,137.9c0.4,0,0.2,0.3,0.6,0.5
	c-0.7,0.3-1.1,0.5-1.3,0.5c-0.2-0.1-0.3-0.2-0.3-0.4C650.9,138.3,651.4,137.9,651.5,137.9z M661.9,130.3c-0.1,0.1-0.4,0.2-0.6,0.3
	c0-0.3,0-0.7-0.1-0.9c0.1-0.1,0.3-0.1,0.4-0.2C661.7,129.8,661.9,130,661.9,130.3z M639.3,163c-0.2,0.1-0.2-0.1-0.4,0
	c0.5-0.5,0.8-0.9,1.3-1.4c0.2,0.1,0.3,0.1,0.5,0.2C640.2,162.1,639.8,162.6,639.3,163z M660.5,143.1c0.6-0.1,1.1-0.2,1.6-0.3
	c-0.2,0.2-0.2,0.3-0.4,0.5c-0.6,0.1-1.1,0.2-1.6,0.3C660.3,143.4,660.5,143.1,660.5,143.1z M612.9,200.9c0.2-0.1,0.3,0.2,0.1,0.3
	c-0.4,0.3-0.8,0.5-1.4,1c-0.1-0.3,0-0.5,0-0.7C612,201.3,612.4,201.1,612.9,200.9z M577.5,103.5c-0.1,0.2,0.2,0.2,0.1,0.4
	c-0.7,0.4-1.2,0.7-2,1.2c-0.1,0,0-0.2-0.1-0.3C576.1,104.3,576.8,103.9,577.5,103.5z M619.4,144.5c0,0.1-0.6,0.4-0.7,0.4
	c-0.2-0.1-0.3-0.2-0.5-0.3c0.6-0.3,1-0.5,1.3-0.5C619.6,143.9,619.5,144.3,619.4,144.5z M641.4,128.9c-0.2,0.1-0.5,0.2-0.5,0.2
	c0.1-0.3,0-0.6,0.3-1c0.2,0,0.5-0.2,0.7-0.2C641.8,128.2,641.5,128.6,641.4,128.9z M584.6,212.5c0.1,0,0,0.2-0.1,0.5
	c-0.4,0.2-0.7,0.4-0.9,0.6c-0.1,0-0.1-0.3-0.1-0.3C583.9,213,584.3,212.8,584.6,212.5z M602.7,30.6c-0.1,0,0.1-0.3,0.1-0.4
	c0.5-0.2,1.3-0.5,1.7-0.7c0.1,0-0.1,0.3,0,0.3C603.8,30.2,603.3,30.4,602.7,30.6z M632.6,155.4c0.4-0.3,0.7-0.5,0.9-0.7
	c0.1,0,0.2,0.2,0.1,0.3c0,0.1-0.4,0.3-0.7,0.5C632.8,155.5,632.6,155.5,632.6,155.4z M597.4,100.2c-0.1,0.2-0.1,0.4-0.1,0.6
	c0,0.1-0.5,0.2-0.8,0.3c0.2-0.3,0.3-0.5,0.4-0.8C596.7,100.4,597.2,100.2,597.4,100.2z M646.9,129.9c-0.5,0.4-0.8,0.8-1.3,1.1
	c0.1-0.2,0.1-0.4,0.3-0.7C646.2,130.2,646.4,130.2,646.9,129.9z M621.5,166.1c0-0.2-0.1-0.4-0.1-0.6c0-0.1,0.6-0.4,0.9-0.5
	c-0.1,0.2-0.1,0.4,0,0.6C622.2,165.7,621.9,165.8,621.5,166.1z M644.6,124.2c0.4-0.2,1-0.5,1.3-0.7c0.2-0.1,0.1,0.3,0,0.7
	c-0.6,0.3-1.1,0.6-1.5,0.6C644.6,124.7,644.5,124.3,644.6,124.2z M625.2,31.1c0.2-0.2,0.3-0.5,0.2-0.6c0.5-0.2,1.1-0.3,1.6-0.5
	c0,0.1-0.1,0.3-0.1,0.3C626.1,30.8,625.6,30.9,625.2,31.1z M544.1,104.6c-0.4,0.5-0.6,1.2-1.2,1.6c-2.3,1.4-4.5,2.5-6.5,3.8
	c0-0.2-0.2-0.3-0.2-0.5c2-1.5,4-3.1,6-4.4C542.3,104.7,543.2,104.8,544.1,104.6z"/>
<path class="st3" d="M392.7-265c-0.5-0.8,0.7-1.4,2.5-1.6c2.7-0.3,4.6,0.1,6.3,1.1c1.9,1.2,4.8,1.5,6.9,0.8c0.6-0.2,1.3-0.6,1.2-1
	c0-0.3-0.8-0.7-1.4-0.9c-0.5-0.2-1.4,0-2.1-0.1c-3.6-0.3-5.1-1.6-4-3.2c0.3-0.5,0.4-1,0.6-1.7c-5,0.1-9.6,0.2-14.1,0.3
	c-1.6,0-2.8,0-2.9-0.9c3-1.5,6.7-1.7,10.9-1.5c3.2,0.2,6.3,0.3,8.6,1.5c1.4,0.8,3.3,0.8,5.2,0.3c-0.7-0.1-1.2-0.4-0.5-0.7
	c0.7-0.4,1.5-0.7,2.2-1.1c-0.5-0.1-0.8-0.4-0.3-0.7c0.2-0.1,0.4-0.2,0.6-0.3c-0.5-0.1-0.9-0.2-1.3-0.4c-0.6-0.2-0.6-0.6,0-0.8
	c0.4-0.1,0.8-0.2,1.1-0.3c-2-0.2-4-0.5-5.9-0.8v-0.7c2-0.3,3.9-0.5,7-0.9c-3.8-0.9-6.5-1.9-9.6-2.2c-3-0.3-6.3,0.1-9.5,0.1
	c-0.2-0.1-0.4-0.3-0.5-0.4c2.1-1.1,4.2-2.2,6.6-3.4c-1.2-0.1-2.1-0.3-2.7-0.2c-2.7,0.4-5.1,0.3-7.7-0.2c-0.9-0.2-2-0.1-3.1-0.1
	c-0.4,0-0.8,0.3-1.1,0.4c0.5,0.7,0.9,1.3,1.6,2.4c-3-0.3-5.1-0.8-7.2-0.8c-2.4,0-4.7,0.5-7.1,0.7c-1.9,1.6-1.9,1.6-5.6,2.1
	c-4,0.6-8.2,1-12,1.7c-3.5,0.7-6.7,0.7-10.2,0.2c-1.4-0.2-3.3-0.5-4.5-0.2c-4.4,0.9-8.5,0.7-12.3-0.2c-4.5,1.1-8.6,2.1-12.9,3
	c-1.2,0.2-3-0.1-4.4-0.4c-6.1-1.1-12.6-0.8-18.8-1.2c-0.7,0-1.5,0.5-2.3,0.5c-1.3,0-3.1,0.1-3.9-0.2c-3.5-1.4-6.8-3-10.2-4.5
	c-1.6-0.7-2.9-1.6-4.7-2.3c-1.6-0.6-5.1-0.4-5.8,0.2c-1.1,1,0.1,1.7,1.8,2.2c2.9,0.9,5.9,1.7,8.9,2.5c1,0.3,2.1,0.6,2.8,1
	c3.8,2.4,8.4,4.5,13.3,6.4c2.2,0.9,1.9,1.7-0.9,2.1c-6.1,0.9-11.9,2.7-18.8,1.4c-0.6-0.1-1.5,0-2,0.2c-1.5,0.4-1.8,0.9-0.5,1.5
	c2,0.5,4.3-1.3,6.3,0.3c-0.6,0.8-1.2,1.7-1.9,2.9c-1.7-0.3-2.8-0.5-4.8-0.9c2.7,2.4,1,3.7-2.6,4.9c-2.7,0.9-5.5,1.9-7.4,3.7
	c5.2-0.6,8.9,0,12.3,1.4c1,0.4,3,0.6,4.3,0.5c3.8-0.3,7.6-0.8,11.4-1.1c2-0.2,4.1-0.1,6.2-0.4c3.4-0.3,5.9,0.6,8.8,1.4
	c0.5-0.5,0.9-0.9,1.1-1.2c0.2-0.4,0.2-0.9,0.4-1.6c7.1,1.4,13.9,2.5,21.2,1.5c0.9,0.7,1.6,1.3,2.7,2.3c1.5-2.4,4.9-3.2,9.2-3.4
	c1.2-0.1,2.6-0.3,3.3-0.7c3.9-2,9-1.4,13.5-1.7c0.8,0.6,1.3,1,2,1.6c7.3-2.4,14.7-2.8,22.4-0.8c1,0.3,2.4,0.3,3.6,0.4
	c8.2,0.3,16.5,0.5,24.7,0.7c0.2,0,0.5-0.2,0.9-0.4c-1.5-2.2-8.1-0.8-9.4-2.5c-2.7,0-4.7,0.1-6.7,0c-2.1-0.1-4.1-0.4-6.1-0.7
	c-2-0.2-4-0.4-6.8-0.7c0.7-1.1,0.7-2.4,1.9-2.7c2.8-0.8,4.5,0.6,6.4,1.4c5.2-1.4,10.1-0.6,14.8,0.3c3.7,0.7,6.5,0.2,8.4-1.4
	c-4.9-0.4-9.8-0.8-14.7-1.2C394.4-264,392.9-264.6,392.7-265z M291.7-273.7c-0.6,0.1-1.3-0.2-2.4-0.3c1.6-0.6,2.1-0.8,2.6-1
	c0.4,0.2,1.1,0.5,1.1,0.7C292.9-274.1,292.3-273.8,291.7-273.7z"/>
<path class="st4" d="M275.3-151.2c-2.3-1.7-7-0.8-6.7-4.2c1.7,0.3,3.2,0.5,4.7,0.7c-0.7-1.7-1.3-3-1.8-4.4c-0.6-1.6-1.5-2.7-4.2-2.8
	c-1.3-0.1-2.6-0.5-3.9-0.8c-2.6-0.6-5.3-1.6-7.9-1.6c-9.1-0.2-18.2-0.2-27.4-0.2c-2.4,0-4.9-0.1-7.3,0.2c-2.1,0.2-4,0.9-3.4,3
	c0.2,0.6-0.6,1.9-1.5,2.1c-3.5,1.1-4.6,3.3-5.7,5.5c-0.3,0.7-0.6,1.6-1.4,1.9c-1,0.5-2.6,0.9-3.7,0.7c-1.4-0.2-2.1-1.2-1.3-2.4
	c0.6-0.8,1.4-1.9-1.1-2.4c-0.4,1-0.8,2-1.4,3.3c-2.3-0.7-4.4-1.3-7.4-2.3c3.2-1.2,5.4-2,7.7-2.8c-1.8-1.8-3.4-3.6-5.2-5.2
	c-0.4-0.3-1.2-0.6-1.8-0.7c-3.4-0.2-6.3-2.1-10-1.5c-1.2,0.2-2.7-0.3-4.1-0.6c-3.1-0.7-6.2-1.6-9.3-2.3c-4.1-1-8.2-2.1-12.5-2.8
	c-5.1-0.9-9.9-2.8-15.8-1.8c-3.1,0.5-7.3-0.8-8.5-3.4c-1.1-2.3-3.3-3.1-6.1-3.4c-4-0.5-8-1.1-12-1.4c-1.9-0.1-4.6,0.1-5.8,0.9
	c-1.7,1.2-6.1,1.2-4.7,4.1c0.1,0.2-0.4,0.6-0.7,0.8c-2.8,1.9-5.6,3.7-8.6,5.7c1.7,1.1,2.9,1.8,3.8,2.4c-0.8,2.4-1.5,4.5-2.2,6.6
	c-0.5,1.7-1.6,2.6-4.3,2.5c-2.6-0.1-5.1,0.1-5.4-2.5c1.3-0.5,2.6-0.9,4.5-1.6c-5.2-1.6-9.9-3-14.5-4.5c0.1-0.2,0.2-0.4,0.3-0.7
	c1.6,0.1,3.1,0.3,5.8,0.5c-3.1-1.5-5.3-2.6-7.8-3.8c-2.3,2.5-4.6,4.8-2.9,7.7c-3.5,2-6.7,3.9-9.5,5.5c-0.1,3.9,5,7,0.6,10.4
	c2.9,2.4,8.7-0.1,10.5,3.5c-3.8,0.2-4,0.3-5.6,1.6c-1.5-0.5-3-0.9-4.9-1.5c0.3,1.3,0.8,2.2,0.5,3c-0.3,0.9-1.4,1.6-2.2,2.4
	c0.8,1,1.5,1.9,2,2.6c-1.3,2.1-2.5,4-3.7,5.9c-1-0.1-2.4-0.2-3.7-0.3c-0.1,0.2-0.2,0.4-0.2,0.6c1.5,0.9,3.1,1.7,4.4,2.5
	c-1.5,1.2-3.9,2.1-3.9,3.1c0,2.3-0.4,5.3,2.5,6.7c2.5,1.2,6.4,1.8,9.4,1.5c3.4-0.4,6.7-0.1,9.2,0.9c3.2,1.3,6.3,1.2,9.5,1.5
	c2.8,0.2,5.5,0.6,8.3,1c3.5,0.5,6.9,1.5,10.3,1.5c5.5,0.1,10.3,1.3,15,3c5.6,2,11.4,4,18,1.9c0.3-0.1,0.7,0,1.1,0.1
	c0.1,0.4,0.3,0.9,0.4,1.2c5.3,0.3,10.6,0.6,16,1c0.8-1.8-0.6-2.4-2.6-2.4c-6.2,0-12.2-1-18.2-2.1c-8.1-1.5-16.4-2.7-24.6-4.1
	c-1-0.2-1.9-0.5-2.8-0.8c3.6-0.2,7-0.2,10.4,0.3c5.8,0.7,11.6,1.6,17.4,2.6c8.1,1.4,16.3,1.8,24.6,1.7c4-0.1,8,0.6,12,1.1
	c1.7,0.2,2.2,1.1,0.5,2.3c-3.6-1.1-7-1.3-9,1.3c1.9,2.2,3.5,4.2,5.3,6.3c2.1-1,3.6-2.6,6.3-1.1c0.6,0.3,2,0,3-0.1
	c4.2-0.7,8.3-0.7,12.6-0.3c3.1,0.3,6.3,0,9.4,0.1c1,0,2.5-0.1,3.1,0.3c3.5,2.5,8.3,1.5,11.1,2.3c2.3-0.8,3.7-1.3,5.2-1.8
	c-3.6-0.5-7-1.7-10.6,0.1c-0.9-0.9-1.9-1.8-3.3-3.1c-2.3,2.7-5.8-0.8-8.4,1.2c-1.8-1.9-5.2-1.6-8.2-2.9c7.7-2,14.6-0.7,21.5,0
	c7.7,0.8,15.2,2.2,22.8,3.3c2.1,0.3,4.2,0.3,6.3,0.4c1.9,0.1,2.3-0.8,2.2-1.9c0,0-0.1,0-0.1,0.1c-0.1-0.1-0.1-0.1-0.2-0.1
	c-1.2-0.1-2.5-0.3-4-0.5c2.5-0.8,2.6-0.8,4,0.5c0.1,0,0.2,0,0.3,0l0,0c2.4-1,4.6-1.9,7.6-1.8c1.8,0.1,3.5-0.7,3.2-2.3
	c-0.4-2.1,1.4-2.6,3.7-2.8c2.7-0.2,4.7-0.9,5.5-2.8c-1.1-2.5-7-2.6-6.3-6.3c4.5,0.6,8.7,1.3,14,2c-1-1.9-1.3-3.1-2.3-4
	c-1.5-1.3-3.3-2.5-5.3-3.5c-2.2-1.1-1.5-1.9-0.1-3.2c1.5,0.5,2.8,0.9,4.2,1.3c0.9-2.4,0.8-2.9-1.9-3.3c-3.4-0.5-6.8-0.5-10.4-0.8
	c-0.3-1.6-0.6-3.2-0.8-4.6c3.2-1.8,6.4-3.5,9.7-5.3c-0.6-0.7-2.4-2.3-2.3-2.4c2.4-1.5-1.1-2.7-0.2-4.2c3.5-0.3,6.9-0.6,9.9-0.9
	c2.3-1.9,1-3.4-0.5-4.8C272.8-150.7,273.8-150.9,275.3-151.2z M78.3-115.9c-0.1-0.3-0.1-0.5-0.2-0.8c2.4-0.9,2.4-0.9,6.1,0.3
	C81.6-116.2,79.9-116,78.3-115.9z M78.2-138.3c0.6-0.4,0.8-0.6,1-0.6c1.5,0.2,2.9,0.4,2.4,2.1C80.4-137.3,79.3-137.8,78.2-138.3z
	 M84.2-140.8c1.7,0.7,3.4,1.1,4.3,2c0.8,0.8,0.8,2.1,1.1,3.1C84-136,83.5-136.5,84.2-140.8z M85.6-117.2c3.2-1.2,4.8,0.1,7.7,1.3
	C89.8-115.5,87.6-115,85.6-117.2z M88.8-145.9c0.7,0.8,1.3,1.5,2.3,2.6c-5.1,0.2-8.7-0.9-12.6-2.2c2.5-2.3,5-1,7.6-0.6
	c1.9-1.3,4.1-2.7,7.5-0.9C92-146.7,90.5-146.3,88.8-145.9z M104.1-113.4c-1.2-0.2-2.5-0.3-3.7-0.5c0.1-0.2,0.2-0.5,0.3-0.7
	c1.2,0.2,2.4,0.5,3.6,0.7C104.2-113.7,104.1-113.6,104.1-113.4z M201.4-146.5c-0.2-0.5-0.5-0.8-0.5-1.2c0-0.1,1-0.4,1.2-0.3
	c0.4,0.2,0.6,0.6,0.9,1C202.6-146.9,202.1-146.8,201.4-146.5z M90.7-165.4c-1.3-0.3-2.7-0.7-4-1c0.1-0.2,0.2-0.4,0.3-0.5
	c1.3,0.3,2.7,0.7,4,1C90.9-165.8,90.8-165.6,90.7-165.4z M115.6-106.9c0.9,0.2,1.9,0.3,2.8,0.5c-0.1,0.3-0.2,0.6-0.3,0.8
	c-0.9-0.2-1.9-0.5-2.8-0.7C115.4-106.5,115.5-106.7,115.6-106.9z"/>
<path class="st5" d="M633-189.7c0.3,0.7,0.7,1.2,1.1,1.7c0.3,0.5-0.2,1.9,1.6,0.8c-0.2-0.9-0.6-1.5-0.5-2.3c0.2-0.8,1.2-1.9,2.2-3.1
	c-2-0.1-2.2-1.2-2-2.9c0.3-1.7,1.1-4-1.1-4.5c-0.4-0.1-0.4-0.7-0.7-1.1c0.4-0.1,0.7-0.3,1-0.4c0.7,0.2,1.3,0.3,2.4,0.6
	c0.8-3.3-0.5-5.5,1.5-9.2c0.3,0.7,0.6,1,0.7,1.6c0,1-0.1,2.1,0.1,2.9c1.4,3.1,2.8,6.3,1.8,10.7c-0.1,0.3-0.2,0.7-0.1,0.8
	c1.6,1,0.8,3.3,0.7,5.2c-0.3,3.1,0.4,6-1.2,9.2c0.6,1.1,1.6,1.8,1.2,2.9c-0.7,2.6-2,5.3-3.1,8.1c-2.2,0.2-2.5-2-5.3-0.7
	c-0.2,1.2-0.5,2.5-0.8,3.8c0,0.4,0,1,0.2,1c1.9-0.1,1.1,1,0.5,2.3c-0.5,0.9-0.3,1.7-0.5,2.6c1-0.5,1.6-0.9,2-1.1
	c0.4-1.1,0.9-2.1,1.5-3.1c0.2,0,0.5-0.2,0.7-0.2c-0.6-0.8-1.3-1.6-1.9-2.4c1.2-0.4,2.2-0.8,3.3-1.1c0.7-0.1,1.6-0.3,1.7,0
	c0.5,1.1,1.3,2.4,0.5,3.6c-0.8,1.7-1.1,3.1-1.4,4.6c-0.1,0.2-0.1,0.4-0.2,0.8c0.7-0.7,1.3-1.2,1.7-1.5c1.5,0.1,2.8,0.4,4.3,0.5
	c-0.7,0.8-1.4,1.7-1.9,2.5c0.3,0.3,0.6,0.7,1.1,1c-0.9,1.3-1.7,2.1-3.3,2.4c-0.7,0.1-1.4,0.7-2.2,1.2l3.9,1.8
	c-1.4,1.5-4.4,2.6-3.6,4.5c0.5,0,1.2-0.2,1.8-0.2c-0.8,1.3-1.2,2.5-3,2.2c-1.2-0.3-2.2,0.6-2.7,1.9c0.9,0.4,2,0.6,2.6,1.2
	c0.6,0.5,0.9,1.3,1.2,2c0.3,0.7,2.1,0.5,0.7,2.4c-1-0.8-2.1-1.6-4.7,0.6c1.8,0.2,3.1,0.8,4.8,0.6c0.8-0.1,2-1.5,3.3-2.6
	c0.5,0.1,1.2,0.4,1.8,0.4c-0.2,0.4-0.4,0.7-0.6,0.8c-2.6,1.6-2.9,3.7-4.3,5.6c-0.2,0.2,0,0.6,0,0.7c1.6-0.1,0.7,1,0.1,1.7
	c-0.7,1-1.6,2-2.3,2.9c0.9,0.3,1.8,0.5,2.6,1c0.1,0-0.1,0.4-0.4,0.9c-0.7,0-1.4-0.1-1.9-0.1c-2,2.1-2.4,2.7-1.4,2.9
	c1.2,0.3,2.7,0.2,4.3,0.5c-0.2-1.1-0.4-1.8-0.5-2.5c0.1-0.1,0.4-0.3,0.4-0.3c0.8,0.4,1.5,0.9,2.5,1.6c-2.4,2.4-2.2,5.3-6.3,7.4
	c-0.4,0.2-0.8,1.2-1.4,2.2c2.4-0.7,4.5-1.2,7.1-1.9c-0.5-0.8-1.1-1.3-1.3-2c0.9-1.8,2-3.8,3.3-6.3c0.4,0.8,0.7,1.2,1,1.9
	c1.2-1.2,2.3-2.2,3.5-3.4c0,0.5,0.1,0.8,0.2,1.2c1.3-1,1.7-2.1,1.1-2.6c-0.7-0.8,0.2-1.8,1.1-2.8c-0.4-0.2-0.8-0.4-1-0.7
	c-0.4-1,0.8-2.6,2.3-3.1c2.5-0.8,3-1.4,3.2-3c0.1-0.9,0.1-1.7,0.1-2.6c2.4-2,4-4.2,4-5.9c0-2.4,1.5-4.7,3.3-7.1
	c1.1-1.4,2.3-3,2.7-4.3c0.4-1.9,1.4-3.3,4-4.4c-1.5-1.1-1.2-3.4,0.5-5.4c1.2-1.4,1.6-2.4,1.8-3.6c0.6-3,1.4-6.1,2.5-9.2
	c0.5-1.5,0.8-1.7,2.5-1.5c1.1-0.8,1.5-0.3,1.9,0c1.7-1.7,3-3.4,3-5.2c0.6,0.6,0.9,1.2,1.5,1.8c1.1-0.7,2.1-1.4,3.3-2.1
	c0,0.5,0,0.8,0.2,1.1c0,0.3,0.2,0.4,0.3,0.7c2.1-1.6,0.9-2.3,1.2-3.3c0.9-2.9,1.2-5.8,0.8-8.5c-0.3-1.1,0.4-2.6,0.7-4
	c0.1-0.5,0.1-0.9,0.1-1.3c0-1-0.1-2.1,0-3.2c0-1.3,0-2.5,0.1-3.3c1-1.5,1.9-2.6,2.2-3.5c0.3-1.5-1.5-1-2.8-0.8
	c-0.1-0.7-0.3-1.2-0.3-1.7c0.1-0.3,0.2-0.6,0.2-0.8c0.7-0.1,1.3-0.3,1.8-0.3c1-1.4,0.3-1.4-0.7-1.6c-1.8-0.3-1.9-1.4-0.3-3.7
	c-0.2-0.2-0.4-0.3-0.7-0.5c1.4-1,2.6-2,4.2-3.2c-2,0.1-2-2.3-5.1,0.5c-0.1-2.4-0.1-4.6-0.4-6.6c0-1,0-2-0.1-2.9
	c-0.6-2.2-1.2-4.4-1.8-6.6c-0.2-0.8,0.3-2.2-0.4-2.5c-2-0.7-2.3-2.7-3.5-3.9c-0.1,0,0.1-0.3,0.2-0.6c0.6-0.3,1.3-0.7,1.8-1
	c1-2.7-2.7-1.4-3-3c0.7-0.7,1.5-1.5,2.4-2.4l-5.8-2.6c0,0,0,0-0.1,0.1c0,0,0,0-0.1,0c-1.2,0.8-1.7,0.7-2.1-0.1
	c1.3-0.6,2.1-0.8,2.1,0.1l0,0l0,0c0.3-0.4,0.5-0.7,0.8-1c-0.6-0.7-2-1.2-1.6-2c0.7-1.6-0.6-2-0.4-3.2c0-0.4-0.4-0.8-0.8-0.8
	c-0.3,0-1.1,0.7-1.5,1c-1.2-0.5-2.2-0.9-3.2-1.5c-1-0.4-2.2-0.6-2.9-1.2c-1-0.4-0.8-1.2,0.6-2.2c0.5-0.4,1.2-0.7,1.7-1.1
	c-1-1.2-1-1.2-3.4-0.9c-3.4,0.6-4.5-1.3-2.5-4.3c0.3-0.6,0.1-1.4,0.2-2.2c-2.6,1.7-5,2-5.7,1c-1.9-2.5-5.1-3.5-8.3-4.7
	c-0.6-0.2-1.3-0.2-1.6-0.5c-1.6-1.7-3.2-3.5-7.2-2.8c0.7-0.8,1-1.3,1.3-1.7c0.2-0.4,0.4-0.9,0.5-1.2c-2,0-1.5,1.6-2.6,2.4
	c-1-1.1-0.5-3.3-3.2-2.8c-0.7,0.5-1.3,1-2.2,1.7c0.6-2-1.2-2.2-2.2-2.1c-2.7,0.7-4.7,0.9-5.5-1c-0.3-0.8-1.4-1.1-2.1-1.7
	c-0.8-0.4-1.5-0.9-2.3-1.5c1.1-1.1,2.2-2,3.4-3.2c-0.8-0.4-1.3-1.3-2.1-1.4c-3.1-0.1-6.5,0.2-9.8,0.3c-3.3,0.1-6.5,0.2-9.9,0.4
	c-3.7,0.3-7.4,0.7-11.2,1.2c-5.6,0.9-11.2,1.8-17.4,4.3c-3.8,1.5-7.7,3.9-11.4,4.1c-0.9,0-2.2,1-3.4,1.4c-3.1,1.1-6.8,4-9.3,2.6
	c-0.1,0-0.5,0.1-0.6,0.2c-2.8,1.7-5.3,1.9-7.8,2.4c-3.7,0.7-6.6,3.3-9.8,5.5c-0.5,0.4-1,1.5-1.2,2.2c-0.2,0.6,0,1.1-0.1,1.8
	c-1.6,1-3.1,2-4.7,3c1.1,0.7,2,1.3,2.7,2.1c0.2,0.3,0.5,0.9,0.2,1.3c-0.2,0.4-1.2,0.9-1.8,1c-3,0.3-6,1.7-9.3,3.9
	c1,1.6-0.2,3.8-1.5,6.1c1.3,0.4,2.4,0.8,3.7,1.1c-0.2,0.2-0.2,0.4-0.4,0.6c-2.3,0-4.6-0.1-7.3-0.2c0.3,1,0.4,1.7,0.7,2.6
	c-3.2,1.3-6.5,2-8.5,5.5c2.6,1,5.5,1.8,8.2,2.8c0.1,0,0.2,0,0.3,0c1.2,0.2,2.6,0.3,3.6,0.7c3.3,1.1,6.6,2.1,9.4,3.5
	c1.8,0.9,3.3,2.3,4.1,4c0.9,1.4,1.7,2.9,3.2,3.8c0.4,0.2,0.6,0.4,1,0.6c0.2-0.1,0.3-0.2,0.4-0.1c9.1,0.5,17.4,2.4,25.1,4.8
	c0.1-0.1,0.1-0.1,0.2-0.2c0.5,0,1.2-0.2,1.7-0.2c3.7,0.4,7.4,0.6,11.2,0.9c1.4,0,2.6,0.1,4,0.1c1.9-0.1,4.1-0.9,4.7,0.9
	c0.2,0.2,0.7,0.2,1,0.2c2.9,0.3,6,0.4,8.9,0.7c-0.3,1.7-0.9,3.4-1.1,4.9c1.4,0.3,2.2,1.3,2.9,2.3c0.6,0.9,1.3,1.6,2,2.3
	c-0.1-0.4,0-0.9,0-1.4c2.7-1,3-0.8,2.1,1.3c0.9,0,1.8,0,3.1,0.1c-1.1,0.8-1.8,1.3-2.5,1.7c1.5,0.8,2.9,1.6,3.7,2.8
	c2.2-1.3,3.8-0.4,6-1.4c0.9-0.4,1.7-0.4,2.8-0.7c-1.2-1.4,2.1-2.5,2-4.2c0.8,0.5,1.1,0.7,1.6,1c1.2-0.9,2.6-3,3.8-1.6
	c-0.2,0.2-0.4,0.5-0.5,0.7c-0.2,0.3-0.3,0.6-0.7,1.3c3.9-2.9,4-4,0.8-5.9c3.1-1.1,3.1,0.9,4,2.1c1.4-2.8-0.2-3.9-0.4-5.8
	c1.4,0.2,1.9,1,2.1,2.2c0.2,1,0.5,2.3,1.3,2.8c1.4,0.6,1.4,1.5,0.5,3.2c-0.5,0.9-1.5,2.1,0,2.3c1.1-1.3,2.5-2.1,3.8-1.5
	c-0.3,3,3,4.5,0.5,8.5c0.8,0.6,2.1,0.7,2.1,1.6C634.1-195.5,635-193,633-189.7z M642.8-125.6c-0.2,0-0.6,0.2-0.9,0.1
	c-0.2-0.1-0.2-0.3-0.4-0.8c0.7,0.1,1.2,0,1.2,0.1C643-126,642.8-125.8,642.8-125.6z M645.4-128.9c-1.8,1.1-2.4,0.9-2.2-0.6
	C644.2-129.4,644.8-129.3,645.4-128.9z M638.2-141.9c0-0.4,0-0.7,0.1-0.8c0.4-0.3,0.8-0.5,1.2-0.7c0,0.3,0,0.5,0.2,0.7
	C639.2-142.3,638.7-142.1,638.2-141.9z M683.2-188.4c-0.1,0.3,0,0.7-0.2,1c-0.2,0.2-0.6,0.4-1.5,0.8c0.2-0.6,0.2-0.9,0.4-1.1
	C682.4-188,682.7-188.1,683.2-188.4z M676.8-180.8c-1.8-0.1-1-1.3-0.8-2c0.3-0.2,0.5-0.2,0.7-0.3
	C676.9-182.6,676.9-181.9,676.8-180.8z M679.5-186.3c0.1,0.3,0.2,0.7,0.3,1c-0.3,0.2-0.6,0.3-0.8,0.4c-0.1-0.4-0.1-0.8-0.1-1.2
	C679.1-186.1,679.3-186.3,679.5-186.3z M645.3-148L645.3-148c0,0.1,0,0.1,0,0.1c0.9,0,1.8,0,2.8-0.1c-0.7,3.5-2.6,5.6-7,7.4
	c0.4-2.1,2.4-3.2,4.6-4.3c-0.1-1-0.2-2-0.4-2.9h-0.1C645.2-147.9,645.3-148,645.3-148c0-0.5-0.1-1.1-0.1-2.2
	C646.6-149.6,645.7-148.7,645.3-148z M650.3-159.9c-0.2,0.6-0.2,0.8-0.4,1.2c-0.2,0-0.7,0.2-0.8,0.2c-0.1-0.2-0.1-0.4,0.1-0.7
	C649.5-159.5,649.8-159.6,650.3-159.9z M684-214.2c0.7,0.1,1.7-0.1,2,0.3c0.9,0.6,0.4,3.2-0.4,4.8c-0.8-1.5-1.4-3.1-2.1-4.6
	L684-214.2z M644.6-171.7c1.4,1.7-0.6,4.1-2,6.7c-2.7-1.1,2.5-4.6-0.7-5.1C643.3-171,643.9-171.3,644.6-171.7z M644-184.2
	c0.2,0.7,1.8,0.5,0.6,2.2c-0.8,1.1,1.2,1.7-1.7,3.6c0.1-2.1,0.3-3.8,0.4-5.5C643.6-184,643.8-184.1,644-184.2z M643.9-188.5
	c0.2,0.2,0.5,0.4,0.5,0.7c0,0.3-0.2,0.7-0.4,1c-0.2,0-0.4,0.1-0.7,0.1c0-0.5,0-1.1,0.1-1.7C643.5-188.3,643.6-188.3,643.9-188.5z
	 M530.9-234.9c-0.7-0.4-1.3-0.8-2-1.3c0.2-0.2,0.3-0.3,0.5-0.5l2.2,1C531.5-235.5,531.3-235.2,530.9-234.9z M633.6-205.4
	c0.1-0.5,0.3-0.9,0.4-1.4c0.2,0,0.6-0.2,0.7-0.1c0,0.4-0.2,0.9-0.1,1.3C634.2-205.6,633.8-205.4,633.6-205.4z M586.1-58.3
	c-0.5-1-2.3-1.3-1.6-3.1c0-0.1-1.5,0.1-2.3,0.1c-0.1,0.6-0.1,0.9,0.2,0.9c1,0,0.9,0.6,0.1,1.4c-0.8,0.9-1.5,0.9-1.9,0.4
	c-0.4-0.4-0.5-1-0.8-1.6c3.2-2.5,6.4-4.6,9.4-6.3c0.2,0.1,0.2,0.3,0.5,0.3c-0.8,1.1-1.5,2.2-2.5,3.4c2.3-1.5,4.5-2.9,6.8-4.5
	c-0.7-0.2-1.1-0.1-1.5-0.3c-0.3-0.1-0.6-0.4-0.6-0.4c1.3-1.4,2.3-2.6,3.4-3.7c1.1-1.1,2.2-2.1,3.8-3.4c-1.4,0.1-2.3,0.2-3.2,0.2
	c-0.2,0.6-0.4,1.1-0.8,1.8c-2.6-0.6-4.2,2.9-6.7,3.1c0.4,0.7,0.6,1,0.9,1.4c-1.1,0.9-2.1,1.7-3.1,2.6c-2.8,2.2-3.8,2.2-4.4-0.3
	c2-1.6,4.3-3.2,6.2-4.8c2-1.8,4-3.9,6.2-5.9c2.8-0.4,3.3-0.8,4.1-2.9c0.3-0.8,0.7-1.7,1.3-2.5c0.9-1.3,2.3-2.4,3.3-3.7
	c2.5-3.2,5.2-6.1,8.9-8.6c-0.6-0.6-1.1-1.3-1.6-2.2c-2.4,2.8-6.3,4.4-8.3,7.6c1.1,1.7,1.1,1.9-0.5,3.7c-1.7,2.1-3.6,4.2-6.6,4
	c-0.8,3.5-3.9,5.8-7,8.2c-1.9,1.5-4.1,2.9-5.4,4.5c-2,2.6-4.8,3.6-7.1,5.1c-0.4,0.3-1.1,0.1-1.7,0.2c2.9-3.2,6-5.5,9-7.7
	c1.2-0.8,2.9-2.1,3.2-2.7c0.3-1.3,1.2-1.8,2.4-2.4c1.1-0.6,2.2-1.2,2.9-2.5c-2.4,0.2-4.5,1.7-5.9,3.1c-2.6,2.7-5.4,4.3-8.5,5.4
	c-0.2,0.1-0.3,0.4-0.5,0.6c1.6,1.6,0.7,3.1-2.7,4.8c-0.3,0.2-0.5,0.2-0.7,0.3c-1.1,0.2-1.7,0.7-2.5,1.8c-0.7,1-2,2-3.2,2.9
	c-4.3,3.4-8.3,6.8-12.6,10.1c-6.9,5.4-14.5,9-21.8,12.8c-0.4,0.2-1.1,0.1-1.5,0.1c1.8-1.3,3.6-2.1,5.4-3c1.8-1,3.1-2.3,4.4-4.2
	c-1.3,0.9-2.4,1.5-3.3,2.1c-2.2,1.3-4.4,2.7-6.5,3.9c-4.5,2.5-9.3,5.7-13.9,8c-8.3,4.1-16.4,7.7-24.8,11.3
	c-10.6,4.7-21.1,9.2-31.7,12.6c-1.5,0.5-2.8,1.5-4,3c1-0.1,1.6-0.2,2.2-0.4c10.3-1.8,21.4-6.2,32.2-9.5c2.8-0.9,5.9-2.2,8.8-3.3
	c3.1-1.2,6-2.3,9.2-3.4c2.8-1.1,5.4-1.9,8.2-2.9c3.2-1.3,6.4-2.3,9.9-3.6c2.7-1.1,5.5-1.9,8.1-3.5c3-1.9,5.9-2.6,9-4.2
	c1-0.5,2.2-0.5,3.1-0.5c2.4,0.1,5-1,7.9-2.6c-1.9-0.1-3.4-0.2-5.3-0.4c0.8-0.9,1.4-1.8,2-2.2c3.2-1.9,6.3-3.1,8.5-1.7
	c2.7-2.8,5.4-3.9,8.2-3.7c0.2-0.2,0.2-0.4,0.4-0.6c-1-0.6-1.7-1.3-2.7-2.3c1.9-1.3,3.6-2.3,5.3-3.3c1.2-0.8,2.1-1.3,3-0.8
	c1.1,0.6,2.4-0.1,4.4-1.2c-1.6,0-3.3,0.7-3.1-1.1c1.3,0.3,2.5-0.3,3.8-1.4c1-0.9,2.8-1.5,3.9-1.7c0.6-0.2,1,0.7,1.4,1
	C586.7-57.1,586.3-57.7,586.1-58.3z M569.6-60c0.1-0.3-0.1-0.4,0-0.6c0.1-0.1,0.5-0.3,0.6-0.3c0.1,0.1,0.2,0.2,0.4,0.5
	C570.2-60.2,569.9-60.1,569.6-60z M576-57.9c-2.8,1.2-5.5,4.1-8.4,4.3c3.1-2.5,6-5.5,10-6.1C577-59,576.4-58.1,576-57.9z M579-61.5
	c0.1-0.2,0.2-0.6,0.3-0.8c0.7-0.1,1.2-0.3,1.8-0.3c0,0-0.1,0.5-0.2,0.7C580.1-61.7,579.6-61.6,579-61.5z M577.4-55.9
	c-0.3,0-0.6-0.1-1-0.3c1.3-1.2,2-1.3,2.7-0.3C578.1-56.1,577.8-55.9,577.4-55.9z M632.6-146.1c-3,1.6-4.7,3.6-5.9,8.1
	c-0.6-0.7-1.5-1.1-2.8,0.3c-0.2-0.3-0.6-0.6-1.1-1.1c3.2-1.3,4-3.3,5.3-5.3c1.4-2.1,2.8-4,4.2-6.3c-0.6-0.3-1.4-0.6-2.4-1.1
	c0.2,0.9,0.4,1.5,0.6,2.5c-1.2,0.1-1.9,0.1-3,0.1c-0.4,1.3-0.8,2.4-1.4,3.8c-0.4-0.4-0.9-0.8-0.8-1.1c1.6-2.5,3.4-4.9,4.9-7.1
	c2.6-0.2,4.8-0.3,7.1-0.5c1-0.3,1.2-2.4,2.8-2c-0.7,1.2-1.2,2.3-1.9,3.5l0.1-0.1c-1.2,0.4-2.5,0.8-4,1.3c-0.4,0.6-1.2,1.8-1.9,2.8
	c1.1,0.7,2.1,1.3,3.3,2.1c-1.1,0.9-2,1.6-3.5,2.8C632.1-144.5,632.4-145.3,632.6-146.1z M608.3-69.5c-0.4,0.7-1,1.6-1.9,2.8
	c-2.5-0.3-4.8-0.7-7.9,1.1c-0.3,0.2-0.4,0.2-0.6,0.4c-1.6,0.6-2.5,2.5-4.5,2.7c-1.3,0.2-3,1.2-4.7,1.9c0.4-1.7,2.6-3.1,3.8-3.4
	c2.8-0.7,4.7-2.6,7-4.2c1.5-1.1,2.6-1.9,4.3-2.1c1.7-0.3,3.7-1.6,5.5-2.4c0.1,0.2,0.1,0.3,0.2,0.5c-1.3,0.8-2.4,1.6-3.7,2.5
	C604.8-67.4,607.7-70.4,608.3-69.5z M694-234.6c-0.1,0.9,0.1,1.7-0.3,2.4c-0.4,0.6-1.8,1.1-1.6,1.8c0.2,0.6,0.9,0.9,1.4,1.4
	c1.4-2.1,3-3,4.1-2.4c0.7,0.4,1.4,0.3,2.5-0.2c0.4-0.2,0.9,0,1.3,0c0.9-0.5,1.8-1,2.9-1.7c-0.3-0.3-0.7-0.8-0.8-0.8
	c-1.9,1-2,0.1-2.3-0.7c-0.4-0.8-0.6-1.8-0.8-2.9c-1.4,1.7-2.5,3-3.7,4.4C695.7-233.6,696-235,694-234.6z M698.9-233.7
	c0.1,0.1,0.3,0.3,0.3,0.5c0,0.1-0.4,0.3-0.9,0.7c0-0.3-0.2-0.5-0.1-0.7C698.2-233.3,698.8-233.7,698.9-233.7z M633.8-105.5
	c-0.3-2.6,1.8-4.6,5-5.3c1.1-0.3,2.5-1.2,3.7-1.8c0.1,0.2,0.1,0.3,0.2,0.3C639.8-109.8,638.4-105.7,633.8-105.5z M634.9-177.6
	c0.7,0.4,1.3,0.8,2,1.3c-0.6,1-1.2,1.9-2,3c-1.9-2-0.9-5.1-0.8-7.9c2.2-0.9,3-0.4,3.5,0.5C638-179.3,635.5-178.8,634.9-177.6z
	 M616.2-81.7c1.4,0.5,2.9,0.8,5.1-0.5c0,2.6,0,2.6-3.1,4.1c0.3-0.9,0.6-1.6,0.9-2.5c-1.3,0.6-2.2,1.1-3.6,1.7
	C616-79.9,616.1-80.8,616.2-81.7z M631.7-111c-0.7,0.2-1.9,0.3-2.1-0.1c-0.2-0.3,0-1.4,0.6-2c0.7-0.8,1.8-1.5,3.5-2.9
	c0,1.4,0.1,2.2-0.2,3.2C633.1-112.2,632.1-111.2,631.7-111z M701-231.2c0.1,0.6,0.3,1.2,0.5,1.6c-0.9,1.3-2.8,2.2-2.5,3.6
	c0.1,0.3-1.5,1.8-3,3.3C697-225.8,697-228.5,701-231.2z M610.4-74.1c-0.2-0.8-0.4-1.5-0.8-2.5c2.3,0.4,5.3-1.7,7.2-0.1
	C614.4-75.7,612.6-75,610.4-74.1z M621.3-134.2c0.9-1.2,1.8-2.4,2.6-3.5c-0.2,2.2-1.6,4.2-3.7,6.3c-2.2,0.3-4,0.4-5.9,0.7
	c1-0.6,1.9-1.7,3-1.3C618.4-131.5,620-132.5,621.3-134.2z M619.6-110.7c-0.7-1.3-1.1-2.6-1.6-3.8c0.1-0.1,0.3-0.3,0.3-0.4
	c1.6,0.3,3.2,0.8,5.1,1.2C621.7-112.4,620.6-111.5,619.6-110.7z M618-199.1c-3.5,2.5-5.3,2-7.3,1C613.9-199.8,615.3-198.8,618-199.1
	z M651.6-284.7c-1.9-0.3-3.5-0.6-5-0.9c2.2-2.3,3.5-1.5,4.9-1.4C652.7-286.8,652.3-285.8,651.6-284.7z M610.8-80.4
	c0-1,0-1.7-0.1-2.2c1.1-0.3,1.9-0.5,2.7-0.9c0.9-0.6,1.9-1.4,2.7-0.7C614.5-83,612.8-81.8,610.8-80.4z M629.6-205.1
	c-0.7,1.4-1.1,2.3-1.9,3.4c-2.1,1.4-3.4,0.3-5.8,0.6c1-0.6,1.8-1.2,2.4-1.4C627.1-203,627-202.9,629.6-205.1z M667.3-275.5
	c1.1,0.9,2,1.6,2.7,2.2c-0.4,1.2-0.5,2.3-0.9,3.4c-0.3,0.2-0.4,0.2-0.6,0.4C668.1-271.4,667.9-273.2,667.3-275.5z M614-105.3
	c-0.6,0.5-1.1,1-2.1,1.9c0.3-1,0.4-1.6,0.7-2.3c1-0.5,2-0.9,2.5-1.5c0.5-0.5,0-1.2,1.5-1.3c-0.8,1.6-1.7,3.2-2.5,4.7
	c-0.2,0.1-0.3,0-0.5,0.1C613.9-104.2,614.1-104.7,614-105.3z M677.7-179.3c0.4,0.3,0.4,1.6,1.9,0c0,0.5,0.1,1,0.3,1.6
	c-1.3,0.8-2.3,1.4-3.4,2C675.7-177.2,675.8-177.6,677.7-179.3z M627.1-121.2c0.5,0.1,1.3,0,1.9,0c-0.1,0.2-0.2,0.6-0.3,0.8
	c-1.3,0-3.2,2-3.9,0.7c-0.3-0.4,0.3-1.4,0.6-2.5C626.2-121.7,626.5-121.3,627.1-121.2z M693.8-218.5c0.6,0.6,0.4,1.9,0.5,2.9
	c-0.3,0.2-0.4,0.2-0.6,0.4c-0.6-1-1.2-2.1-1.7-3.2c-0.2-0.3-0.7-0.5-1.1-0.7C692.8-220.1,693.4-219.1,693.8-218.5z M694.6-241.5
	c0.8-0.7,1.8-1.5,3.2-2.6c0,0.9,0.1,1.5,0.1,2.2C696.5-241.4,695.1-240.2,694.6-241.5z M696.8-221.4c0.9-0.2,1.6-0.2,2.3-0.3
	c-0.3,0.7-0.6,1.3-1,2c-0.3,0.5-0.5,1.1-1,2.1C696-218.7,696.5-220,696.8-221.4z M689.8-241.5c0.5,1.5,0.9,2.5,1.2,3.8
	C688.2-237.8,688-238.1,689.8-241.5z M615.2-193.8c-0.6,0.3-1.1,0.5-1.7,0.8c0.1-1.5,1.3-2.8,2.5-2.7c0.9-0.1,0.8,0.7,0,1.5
	C615.9-194.2,615.4-193.9,615.2-193.8z M623.7-145.6c-1.4,3.5-1.5,3.6-3.5,3.1C621.4-143.4,622.2-144.2,623.7-145.6z M624.4-124.3
	c-1.2,1.2-2.3,2.2-3.5,3.3C621.9-123.9,621.9-123.9,624.4-124.3z M624.7-131.1c-0.7-0.8-1.4-1.3-2-2.2c1.4-0.2,2.5-0.3,3.5-0.3
	C625.8-132.9,625.5-132.3,624.7-131.1z M618.7-84.5c1-0.3,1.7-0.4,3.3-0.8c-1.5,1.8-2.5,2.6-3.5,2.2
	C618.1-83.1,618.4-83.8,618.7-84.5z M636-286.4c-1-0.2-1.9-0.3-3-0.6c0.5-0.6,1-1,1.8-1.9C635-287.7,636.8-288.1,636-286.4z
	 M631-137c0.4-0.9,0.8-1.8,1.4-2.9C633.4-139.1,633.4-139.1,631-137z M685.4-182.2c-0.4,1.2-0.6,2.3-1,3.5
	C683.4-179.1,683.4-179.9,685.4-182.2z M683.1-260.9c0.2-0.3,0.3-0.5,0.5-0.9c1.5-0.9,2.2-0.7,3,0.7
	C684.9-261.1,684.1-261.1,683.1-260.9z M630-154.6c-1.2,0.9-2.4,1.7-3.6,2.6C627.4-154.1,628.3-154.8,630-154.6z M642.1-286.8
	c-1.3,0-2.5,0-4.2-0.1C640.3-288.1,641.6-288.1,642.1-286.8z M628.7-137.1c0-1.7,0-1.7,2.4-3C630.3-139.3,629.6-138.4,628.7-137.1z
	 M618.6-104.7c-1.2,0.9-2,1.4-2.9,2.1C616.1-104.9,616.1-104.9,618.6-104.7z M634.6-132.9c-0.1,0-0.1,0-0.1-0.1
	C634.6-133,634.6-133,634.6-132.9L634.6-132.9c1.3-0.6,1.3-0.6,1.9,0.4c-0.7,0.5-1.4,1-2.1,1.5c0-0.1-0.2-0.2-0.1-0.3
	C634.4-131.9,634.5-132.3,634.6-132.9z M703.7-221c0.1,0.1,0.2,0.2,0.3,0.3c-0.6,0.6-1.2,1.3-2.1,2.1
	C701.2-219.9,702.6-220.4,703.7-221z M700.3-219.3c-0.4-1.1-0.5-1.7-0.9-2.3c0.8-0.2,1.6-0.3,2.4-0.4
	C701.5-221.2,701.1-220.6,700.3-219.3z M663.6-145.6c0.1-0.7,0.3-1.5,0.3-2.3C665.6-147.4,665.6-147.4,663.6-145.6z M631.1-123.1
	c-0.2-0.7-0.3-1.4-0.4-2.2C632.9-125.3,632.9-125.3,631.1-123.1z M595.7-56c-1-0.2-1.7-0.3-2.4-0.4c0.1-0.2,0.2-0.4,0.4-0.7
	C595.1-57.6,596.1-57.9,595.7-56z M654.5-284.2c0.1-0.2,0.1-0.4,0.3-0.8c1.2-0.7,1.9-0.2,2.8-0.3c-0.1,0.2-0.1,0.4-0.2,0.6
	C656.4-284.4,655.5-284.3,654.5-284.2z M693.7-227.5c0.2,0.7,0.4,1.6,0.6,2.3c-0.4,0.1-0.6,0.4-1,0.5c-0.1-0.8-0.3-1.6-0.4-2.4
	C693.2-227.3,693.5-227.4,693.7-227.5z M626.7-195.9c1.1-0.3,2-0.6,3.8-1C628.6-195.3,627.7-195.6,626.7-195.9z M602.1-82.2
	c0.5,0.1,0.9,0.3,1.5,0.4c0,0-0.3,0.5-0.4,0.5c-0.7,0.1-1.2,0.2-1.7,0.2C601.5-81.5,601.9-81.8,602.1-82.2z M699.4-221.6
	c-0.1,0-0.2-0.1-0.3-0.1c0.2-1.1,0.2-2.1,2.4-2.5C701.4-223.2,700.3-222.4,699.4-221.6z M611.9-125.3c-0.6,0.3-1.3,0.6-1.9,0.9
	c0.1-0.3,0-0.5,0-0.8c0.7-0.3,1.2-0.5,1.9-0.8C611.7-125.9,611.7-125.5,611.9-125.3z M614.6-94c0.4-1.2,0.5-1.7,0.8-2.7
	C616.9-96.1,616.2-95.4,614.6-94z M645.5-102.6c-0.3,0.2-0.5,0.3-0.8,0.5c-0.2-0.3-0.6-0.6-0.8-1c0.4-0.3,0.8-0.5,0.9-0.6
	C645.2-103.4,645.4-103.1,645.5-102.6z M630-90.1c0.6-0.7,1-1.3,1.5-1.8c0.1,0.1,0.3,0.1,0.6,0.2c-0.6,0.7-1.1,1.2-1.7,1.9
	C630.2-90,630.1-90.1,630-90.1z M678.9-173.7c-0.2,1.1-0.4,1.7-0.5,2.3C676.9-171.6,677.4-172.2,678.9-173.7z M613.5-128.1
	c0.9,0,2-0.1,3.2,0C614.6-126.6,614.3-127.8,613.5-128.1z M619.4-204.5c-1.1,0.7-1.7,1.2-2.5,1.7C617.1-204,617.1-204,619.4-204.5z
	 M621.9-94.6c-0.2-0.3-0.8-0.4-1.1-0.7c0.2-0.2,0.3-0.4,0.5-0.6c0.2,0.1,0.6,0.1,0.7,0.3c0.1,0.2,0.2,0.4,0.2,0.6
	C622.2-94.9,622.2-94.8,621.9-94.6z M633.3-108.4c-0.2,0.1-0.4,0.2-0.6,0.3c-0.1-0.6-0.2-1.1-0.2-1.7c0.4-0.1,0.5-0.2,0.8-0.3
	C633.3-109.6,633.4-109,633.3-108.4z M608.8-65.1c-0.5-0.2-0.9-0.4-1.4-0.6C609.4-66.8,609.4-66.8,608.8-65.1z M614.7-74.6
	c0.1,0.1,0.2,0.3,0.4,0.3c-0.5,0.4-1.1,1-1.6,1.5c-0.2-0.1-0.2-0.3-0.5-0.3C613.7-73.7,614.3-74.2,614.7-74.6z M682.8-274.9
	c0.8,0.1,1.5,0.1,2.6,0.2C683.7-273.6,682.8-273.5,682.8-274.9z M634.2-118.5c-0.2-0.1-0.4-0.1-0.7-0.2c0.4-0.6,0.9-1.2,1.3-1.8
	c0.1,0.1,0.4,0,0.5,0.1C635-119.7,634.6-119.1,634.2-118.5z M699.4-239.4c-0.5-0.4-0.9-0.9-1.4-1.3c0.2-0.2,0.4-0.3,0.5-0.4
	c0.5,0.3,1.1,0.7,1.6,1C699.8-239.8,699.6-239.6,699.4-239.4z M687.3-247.6c-0.5-0.5-0.9-1-1.4-1.5c0.3-0.2,0.4-0.3,0.7-0.5
	c0.5,0.6,0.9,1.2,1.4,1.7C687.7-247.8,687.6-247.7,687.3-247.6z M613.4-189.9c0-0.5-0.2-1.1-0.2-2.1
	C615.1-191.6,614.4-190.8,613.4-189.9z M670.2-273.5c0.3-0.5,0.7-1.2,0.9-1.7c1.4-0.2,0.8,0.8,0.3,1.5
	C671.3-273.5,670.6-273.6,670.2-273.5z M607.5-200.1c0,0.1-0.9,0.7-1,0.6c-0.3-0.1-0.3-0.5-0.4-1c0.7-0.3,1.4-0.7,1.5-0.7
	C607.6-200.9,607.6-200.5,607.5-200.1z M652.8-123c-0.1,0-0.1-0.4-0.2-0.7c0.6-0.2,1-0.4,1.2-0.3c0.1,0.1,0.1,0.4,0,0.7
	C653.6-123.3,653.2-123.1,652.8-123z M594.2-59.7c-0.1,0.2-0.1,0.5-0.2,0.7c-0.7,0.1-1.3,0.4-1.9,0.5c0.1-0.2,0-0.4,0.1-0.6
	C592.8-59.3,593.5-59.4,594.2-59.7z M633.2-102.7c-0.4-0.1-0.9-0.1-1.4-0.2c0.3-0.3,0.4-0.5,0.7-0.8c0.4,0.2,0.9,0.2,1.3,0.4
	C633.5-103.1,633.4-102.9,633.2-102.7z M650.8-121.2c1-0.4,2.2-1,2,0.6C651.8-120.7,651.3-120.9,650.8-121.2z M677.2-267.2
	c-0.5-0.1-0.9-0.3-1.4-0.4c0.2-0.2,0.3-0.4,0.6-0.7c0.5,0.2,0.8,0.4,1.3,0.5C677.8-267.7,677.2-267.2,677.2-267.2z M679.5-166.5
	c0.2-0.6,0.4-1.2,0.6-1.8c0.2-0.1,0.4-0.1,0.6-0.2c-0.1,0.6-0.3,1.2-0.3,1.7C680.1-166.6,679.7-166.5,679.5-166.5z M627.3-95.5
	c0.1-0.4,0.1-0.7,0.3-0.9s0.6-0.3,0.8-0.3c-0.1,0.3,0,0.5-0.2,0.7C628.1-95.8,627.8-95.7,627.3-95.5z M659.4-134.9
	c-0.2-0.2-0.2-0.4-0.2-0.7c0.2-0.1,0.5-0.3,0.6-0.3c0.2,0.1,0.3,0.3,0.8,0.6C659.8-135.1,659.3-134.8,659.4-134.9z M634.5-133
	c-0.9,0-1.8,0.1-2.4,0C633.4-134,633.9-133.3,634.5-133z M703.9-212.8c-0.2-0.3-0.6-0.6-0.8-0.9c0.3-0.2,0.4-0.3,0.5-0.4
	c0.2,0.3,0.6,0.6,0.7,1C704.1-213,703.9-212.9,703.9-212.8z M589.4-57.3c0.1,0.2,0.2,0.2,0.2,0.3c-0.5,0.4-1.2,0.8-1.8,1.3
	c-0.1-0.2-0.2-0.2-0.2-0.3C588.2-56.4,588.9-56.9,589.4-57.3z M617.9-116.7c-0.1,0.3,0,0.5-0.1,0.8c-0.1,0.1-0.4,0.3-1.1,0.7
	C617.4-116,617.7-116.3,617.9-116.7z M631.8-132.8c-0.5,0.6-1.1,1.1-1.7,1.8C629.9-132.6,630.9-132.6,631.8-132.8z M566.4-39.5
	c-0.3,0.2-0.6,0.2-1,0.3c0.1-0.3,0-0.5,0.1-0.7c0.4-0.1,0.7-0.2,1.1-0.2C566.7-40.2,566.5-39.7,566.4-39.5z M691.1-228.3
	c0.1,0.1,0.2,0.4,0,0.6c-0.1,0.1-0.4,0.2-1,0.5c0.1-0.5,0.1-0.7,0.3-1C690.7-228.3,691.1-228.4,691.1-228.3z M628-113
	c0.2,0.2,0,0.5,0.1,1c-0.5,0-0.9,0.1-0.9,0c-0.1-0.2-0.1-0.4,0-0.7C627.5-112.8,627.9-113,628-113z M637.6-117.5
	c-0.2,0.1-0.4,0.1-0.5,0.1c0.1-0.4,0.3-0.9,0.4-1.3c0.2-0.1,0.2,0,0.4-0.1C637.8-118.3,637.7-117.9,637.6-117.5z M607.7-86.2
	c-0.1,0-0.1-0.2-0.2-0.2c0.5-0.4,1-0.8,1.4-1.2c0.1,0.2,0.1,0.3,0.2,0.5C608.7-86.9,608.2-86.5,607.7-86.2z M629.8-101.1
	c0.4,0.2,0.7,0.3,1.1,0.4c-0.2,0.2-0.3,0.3-0.5,0.5c-0.4-0.2-0.7-0.3-1.1-0.4C629.4-100.8,629.8-101.1,629.8-101.1z M573.1-50
	c0.1,0,0.1,0.4-0.1,0.5c-0.4,0.2-0.7,0.3-1.3,0.6c0.1-0.5,0.2-0.7,0.3-0.9C572.4-49.9,572.8-50,573.1-50z M607.8-199
	c-0.1,0.2,0,0.4-0.1,0.6c-0.6,0.2-1.1,0.3-1.7,0.5c0-0.1,0.1-0.3,0.1-0.5C606.5-198.6,607.1-198.8,607.8-199z M607.3-121.6
	c-0.1,0.1-0.5,0.2-0.6,0.2c-0.1-0.2-0.1-0.4-0.1-0.7c0.5-0.1,0.8-0.2,0.9,0C607.8-122.2,607.4-121.8,607.3-121.6z M627.6-130.4
	c-0.1,0-0.4,0-0.4,0c0.2-0.4,0.4-0.8,0.7-1.2c0.1,0.1,0.3,0,0.4,0.1C628.2-131.2,627.8-130.8,627.6-130.4z M551.7-49.9
	c0,0.1-0.1,0.3-0.2,0.6c-0.4,0.1-0.6,0.2-0.9,0.3c0-0.1,0.1-0.5,0.1-0.5C551-49.6,551.4-49.7,551.7-49.9z M661-282.4
	c0-0.1,0.2-0.3,0.3-0.5c0.4,0,0.9,0,1.3,0c0,0.1-0.2,0.3-0.1,0.4C661.8-282.4,661.4-282.4,661-282.4z M608.3-99.9
	c0.3-0.2,0.6-0.3,0.8-0.4c0,0.1,0,0.4-0.1,0.5s-0.4,0.2-0.6,0.3C608.4-99.7,608.4-99.8,608.3-99.9z M620-192.5
	c-0.1,0.2-0.3,0.5-0.4,0.7c-0.1,0.1-0.3,0-0.6,0c0.3-0.3,0.4-0.5,0.7-0.8C619.5-192.6,619.8-192.6,620-192.5z M629.9-126.1
	c-0.5,0.3-0.8,0.6-1.3,0.8c0.1-0.2,0.3-0.5,0.6-0.8C629.3-126.1,629.5-126,629.9-126.1z M596.7-91.7c0.1-0.3,0.1-0.6,0.3-0.8
	c0.1-0.1,0.5-0.2,0.7-0.2c-0.1,0.2-0.3,0.5-0.4,0.8C597.3-91.8,597.1-91.8,596.7-91.7z M631.7-134.9c0.4-0.1,0.8-0.2,1.1-0.2
	c0.1,0-0.1,0.5-0.3,0.9c-0.5,0.1-0.9,0.2-1.2,0C631.4-134.3,631.6-134.8,631.7-134.9z M672.5-269.5c0.2-0.2,0.4-0.5,0.5-0.7
	c0.4,0,0.7,0.2,1.1,0.2c-0.1,0.1-0.2,0.3-0.2,0.4C673.2-269.5,672.9-269.6,672.5-269.5z M589.5-215.6c-0.5,0.5-0.9,1.3-1.5,1.5
	c-1.9,0.6-3.7,0.9-5.6,1.5c0.1-0.3,0-0.5,0.2-0.8c1.8-0.9,3.8-2,5.5-2.6C588.5-216.4,588.9-215.8,589.5-215.6z"/>
</svg>
