<?xml version="1.0" encoding="utf-8"?>
<!-- Generator: Adobe Illustrator 22.0.1, SVG Export Plug-In . SVG Version: 6.00 Build 0)  -->
<svg version="1.1" id="master-artboard" xmlns="http://www.w3.org/2000/svg" xmlns:xlink="http://www.w3.org/1999/xlink" x="0px"
	 y="0px" viewBox="0 0 711.6 294.9" style="enable-background:new 0 0 711.6 294.9;" xml:space="preserve">
<style type="text/css">
	.st0{opacity:0.3;fill:#F08B3D;enable-background:new    ;}
	.st1{opacity:0.3;fill:#5A288E;enable-background:new    ;}
	.st2{opacity:0.3;fill:#DA5B4D;enable-background:new    ;}
</style>
<path class="st0" d="M377.7,38c-0.5-0.8,0.7-1.4,2.5-1.6c2.7-0.3,4.6,0.1,6.3,1.1c1.9,1.2,4.8,1.5,6.9,0.8c0.6-0.2,1.3-0.6,1.2-1
	c0-0.3-0.8-0.7-1.4-0.9c-0.5-0.2-1.4,0-2.1-0.1c-3.6-0.3-5.1-1.6-4-3.2c0.3-0.5,0.4-1,0.6-1.7c-5,0.1-9.6,0.2-14.1,0.3
	c-1.6,0-2.8,0-2.9-0.9c3-1.5,6.7-1.7,10.9-1.5c3.2,0.2,6.3,0.3,8.6,1.5c1.4,0.8,3.3,0.8,5.2,0.3c-0.7-0.1-1.2-0.4-0.5-0.7
	c0.7-0.4,1.5-0.7,2.2-1.1c-0.5-0.1-0.8-0.4-0.3-0.7c0.2-0.1,0.4-0.2,0.6-0.3c-0.5-0.1-0.9-0.2-1.3-0.4c-0.6-0.2-0.6-0.6,0-0.8
	c0.4-0.1,0.8-0.2,1.1-0.3c-2-0.2-4-0.5-5.9-0.8v-0.7c2-0.3,3.9-0.5,7-0.9c-3.8-0.9-6.5-1.9-9.6-2.2c-3-0.3-6.3,0.1-9.5,0.1
	c-0.2-0.1-0.4-0.3-0.5-0.4c2.1-1.1,4.2-2.2,6.6-3.4c-1.2-0.1-2.1-0.3-2.7-0.2c-2.7,0.4-5.1,0.3-7.7-0.2c-0.9-0.2-2-0.1-3.1-0.1
	c-0.4,0-0.8,0.3-1.1,0.4c0.5,0.7,0.9,1.3,1.6,2.4c-3-0.3-5.1-0.8-7.2-0.8c-2.4,0-4.7,0.5-7.1,0.7c-1.9,1.6-1.9,1.6-5.6,2.1
	c-4,0.6-8.2,1-12,1.7c-3.5,0.7-6.7,0.7-10.2,0.2c-1.4-0.2-3.3-0.5-4.5-0.2c-4.4,0.9-8.5,0.7-12.3-0.2c-4.5,1.1-8.6,2.1-12.9,3
	c-1.2,0.2-3-0.1-4.4-0.4c-6.1-1.1-12.6-0.8-18.8-1.2c-0.7,0-1.5,0.5-2.3,0.5c-1.3,0-3.1,0.1-3.9-0.2c-3.5-1.4-6.8-3-10.2-4.5
	c-1.6-0.7-2.9-1.6-4.7-2.3c-1.6-0.6-5.1-0.4-5.8,0.2c-1.1,1,0.1,1.7,1.8,2.2c2.9,0.9,5.9,1.7,8.9,2.5c1,0.3,2.1,0.6,2.8,1
	c3.8,2.4,8.4,4.5,13.3,6.4c2.2,0.9,1.9,1.7-0.9,2.1c-6.1,0.9-11.9,2.7-18.8,1.4c-0.6-0.1-1.5,0-2,0.2c-1.5,0.4-1.8,0.9-0.5,1.5
	c2,0.5,4.3-1.3,6.3,0.3c-0.6,0.8-1.2,1.7-1.9,2.9c-1.7-0.3-2.8-0.5-4.8-0.9c2.7,2.4,1,3.7-2.6,4.9c-2.7,0.9-5.5,1.9-7.4,3.7
	c5.2-0.6,8.9,0,12.3,1.4c1,0.4,3,0.6,4.3,0.5c3.8-0.3,7.6-0.8,11.4-1.1c2-0.2,4.1-0.1,6.2-0.4c3.4-0.3,5.9,0.6,8.8,1.4
	c0.5-0.5,0.9-0.9,1.1-1.2c0.2-0.4,0.2-0.9,0.4-1.6c7.1,1.4,13.9,2.5,21.2,1.5c0.9,0.7,1.6,1.3,2.7,2.3c1.5-2.4,4.9-3.2,9.2-3.4
	c1.2-0.1,2.6-0.3,3.3-0.7c3.9-2,9-1.4,13.5-1.7c0.8,0.6,1.3,1,2,1.6c7.3-2.4,14.7-2.8,22.4-0.8c1,0.3,2.4,0.3,3.6,0.4
	c8.2,0.3,16.5,0.5,24.7,0.7c0.2,0,0.5-0.2,0.9-0.4c-1.5-2.2-8.1-0.8-9.4-2.5c-2.7,0-4.7,0.1-6.7,0c-2.1-0.1-4.1-0.4-6.1-0.7
	c-2-0.2-4-0.4-6.8-0.7c0.7-1.1,0.7-2.4,1.9-2.7c2.8-0.8,4.5,0.6,6.4,1.4c5.2-1.4,10.1-0.6,14.8,0.3c3.7,0.7,6.5,0.2,8.4-1.4
	c-4.9-0.4-9.8-0.8-14.7-1.2C379.4,39,377.9,38.4,377.7,38z M276.7,29.3c-0.6,0.1-1.3-0.2-2.4-0.3c1.6-0.6,2.1-0.8,2.6-1
	c0.4,0.2,1.1,0.5,1.1,0.7C277.9,28.9,277.3,29.2,276.7,29.3z"/>
<path class="st1" d="M260.3,151.8c-2.3-1.7-7-0.8-6.7-4.2c1.7,0.3,3.2,0.5,4.7,0.7c-0.7-1.7-1.3-3-1.8-4.4c-0.6-1.6-1.5-2.7-4.2-2.8
	c-1.3-0.1-2.6-0.5-3.9-0.8c-2.6-0.6-5.3-1.6-7.9-1.6c-9.1-0.2-18.2-0.2-27.4-0.2c-2.4,0-4.9-0.1-7.3,0.2c-2.1,0.2-4,0.9-3.4,3
	c0.2,0.6-0.6,1.9-1.5,2.1c-3.5,1.1-4.6,3.3-5.7,5.5c-0.3,0.7-0.6,1.6-1.4,1.9c-1,0.5-2.6,0.9-3.7,0.7c-1.4-0.2-2.1-1.2-1.3-2.4
	c0.6-0.8,1.4-1.9-1.1-2.4c-0.4,1-0.8,2-1.4,3.3c-2.3-0.7-4.4-1.3-7.4-2.3c3.2-1.2,5.4-2,7.7-2.8c-1.8-1.8-3.4-3.6-5.2-5.2
	c-0.4-0.3-1.2-0.6-1.8-0.7c-3.4-0.2-6.3-2.1-10-1.5c-1.2,0.2-2.7-0.3-4.1-0.6c-3.1-0.7-6.2-1.6-9.3-2.3c-4.1-1-8.2-2.1-12.5-2.8
	c-5.1-0.9-9.9-2.8-15.8-1.8c-3.1,0.5-7.3-0.8-8.5-3.4c-1.1-2.3-3.3-3.1-6.1-3.4c-4-0.5-8-1.1-12-1.4c-1.9-0.1-4.6,0.1-5.8,0.9
	c-1.7,1.2-6.1,1.2-4.7,4.1c0.1,0.2-0.4,0.6-0.7,0.8c-2.8,1.9-5.6,3.7-8.6,5.7c1.7,1.1,2.9,1.8,3.8,2.4c-0.8,2.4-1.5,4.5-2.2,6.6
	c-0.5,1.7-1.6,2.6-4.3,2.5c-2.6-0.1-5.1,0.1-5.4-2.5c1.3-0.5,2.6-0.9,4.5-1.6c-5.2-1.6-9.9-3-14.5-4.5c0.1-0.2,0.2-0.4,0.3-0.7
	c1.6,0.1,3.1,0.3,5.8,0.5c-3.1-1.5-5.3-2.6-7.8-3.8c-2.3,2.5-4.6,4.8-2.9,7.7c-3.5,2-6.7,3.9-9.5,5.5c-0.1,3.9,5,7,0.6,10.4
	c2.9,2.4,8.7-0.1,10.5,3.5c-3.8,0.2-4,0.3-5.6,1.6c-1.5-0.5-3-0.9-4.9-1.5c0.3,1.3,0.8,2.2,0.5,3c-0.3,0.9-1.4,1.6-2.2,2.4
	c0.8,1,1.5,1.9,2,2.6c-1.3,2.1-2.5,4-3.7,5.9c-1-0.1-2.4-0.2-3.7-0.3c-0.1,0.2-0.2,0.4-0.2,0.6c1.5,0.9,3.1,1.7,4.4,2.5
	c-1.5,1.2-3.9,2.1-3.9,3.1c0,2.3-0.4,5.3,2.5,6.7c2.5,1.2,6.4,1.8,9.4,1.5c3.4-0.4,6.7-0.1,9.2,0.9c3.2,1.3,6.3,1.2,9.5,1.5
	c2.8,0.2,5.5,0.6,8.3,1c3.5,0.5,6.9,1.5,10.3,1.5c5.5,0.1,10.3,1.3,15,3c5.6,2,11.4,4,18,1.9c0.3-0.1,0.7,0,1.1,0.1
	c0.1,0.4,0.3,0.9,0.4,1.2c5.3,0.3,10.6,0.6,16,1c0.8-1.8-0.6-2.4-2.6-2.4c-6.2,0-12.2-1-18.2-2.1c-8.1-1.5-16.4-2.7-24.6-4.1
	c-1-0.2-1.9-0.5-2.8-0.8c3.6-0.2,7-0.2,10.4,0.3c5.8,0.7,11.6,1.6,17.4,2.6c8.1,1.4,16.3,1.8,24.6,1.7c4-0.1,8,0.6,12,1.1
	c1.7,0.2,2.2,1.1,0.5,2.3c-3.6-1.1-7-1.3-9,1.3c1.9,2.2,3.5,4.2,5.3,6.3c2.1-1,3.6-2.6,6.3-1.1c0.6,0.3,2,0,3-0.1
	c4.2-0.7,8.3-0.7,12.6-0.3c3.1,0.3,6.3,0,9.4,0.1c1,0,2.5-0.1,3.1,0.3c3.5,2.5,8.3,1.5,11.1,2.3c2.3-0.8,3.7-1.3,5.2-1.8
	c-3.6-0.5-7-1.7-10.6,0.1c-0.9-0.9-1.9-1.8-3.3-3.1c-2.3,2.7-5.8-0.8-8.4,1.2c-1.8-1.9-5.2-1.6-8.2-2.9c7.7-2,14.6-0.7,21.5,0
	c7.7,0.8,15.2,2.2,22.8,3.3c2.1,0.3,4.2,0.3,6.3,0.4c1.9,0.1,2.3-0.8,2.2-1.9c0,0-0.1,0-0.1,0.1c-0.1-0.1-0.1-0.1-0.2-0.1
	c-1.2-0.1-2.5-0.3-4-0.5c2.5-0.8,2.6-0.8,4,0.5c0.1,0,0.2,0,0.3,0l0,0c2.4-1,4.6-1.9,7.6-1.8c1.8,0.1,3.5-0.7,3.2-2.3
	c-0.4-2.1,1.4-2.6,3.7-2.8c2.7-0.2,4.7-0.9,5.5-2.8c-1.1-2.5-7-2.6-6.3-6.3c4.5,0.6,8.7,1.3,14,2c-1-1.9-1.3-3.1-2.3-4
	c-1.5-1.3-3.3-2.5-5.3-3.5c-2.2-1.1-1.5-1.9-0.1-3.2c1.5,0.5,2.8,0.9,4.2,1.3c0.9-2.4,0.8-2.9-1.9-3.3c-3.4-0.5-6.8-0.5-10.4-0.8
	c-0.3-1.6-0.6-3.2-0.8-4.6c3.2-1.8,6.4-3.5,9.7-5.3c-0.6-0.7-2.4-2.3-2.3-2.4c2.4-1.5-1.1-2.7-0.2-4.2c3.5-0.3,6.9-0.6,9.9-0.9
	c2.3-1.9,1-3.4-0.5-4.8C257.8,152.3,258.8,152.1,260.3,151.8z M63.3,187.1c-0.1-0.3-0.1-0.5-0.2-0.8c2.4-0.9,2.4-0.9,6.1,0.3
	C66.6,186.8,64.9,187,63.3,187.1z M63.2,164.7c0.6-0.4,0.8-0.6,1-0.6c1.5,0.2,2.9,0.4,2.4,2.1C65.4,165.7,64.3,165.2,63.2,164.7z
	 M69.2,162.2c1.7,0.7,3.4,1.1,4.3,2c0.8,0.8,0.8,2.1,1.1,3.1C69,167,68.5,166.5,69.2,162.2z M70.6,185.8c3.2-1.2,4.8,0.1,7.7,1.3
	C74.8,187.5,72.6,188,70.6,185.8z M73.8,157.1c0.7,0.8,1.3,1.5,2.3,2.6c-5.1,0.2-8.7-0.9-12.6-2.2c2.5-2.3,5-1,7.6-0.6
	c1.9-1.3,4.1-2.7,7.5-0.9C77,156.3,75.5,156.7,73.8,157.1z M89.1,189.6c-1.2-0.2-2.5-0.3-3.7-0.5c0.1-0.2,0.2-0.5,0.3-0.7
	c1.2,0.2,2.4,0.5,3.6,0.7C89.2,189.3,89.1,189.4,89.1,189.6z M186.4,156.5c-0.2-0.5-0.5-0.8-0.5-1.2c0-0.1,1-0.4,1.2-0.3
	c0.4,0.2,0.6,0.6,0.9,1C187.6,156.1,187.1,156.2,186.4,156.5z M75.7,137.6c-1.3-0.3-2.7-0.7-4-1c0.1-0.2,0.2-0.4,0.3-0.5
	c1.3,0.3,2.7,0.7,4,1C75.9,137.2,75.8,137.4,75.7,137.6z M100.6,196.1c0.9,0.2,1.9,0.3,2.8,0.5c-0.1,0.3-0.2,0.6-0.3,0.8
	c-0.9-0.2-1.9-0.5-2.8-0.7C100.4,196.5,100.5,196.3,100.6,196.1z"/>
<path class="st2" d="M574.2,199.8c-0.7,0.7-1.3,1.3-1.8,2c-0.5,0.6-1.9,0.8-0.9,2.1c0.9-0.6,1.6-1.4,2.4-1.7
	c0.8-0.3,1.9,0.2,3.1,0.5c0.2-2.1,1.3-2.8,3-3.5c1.7-0.6,4.1-1.1,4.6-3.5c0.1-0.5,0.7-0.8,1.2-1.2c0.1,0.3,0.3,0.5,0.4,0.8
	c-0.2,0.8-0.4,1.5-0.8,2.7c3.4-1,5.6-3.5,9.3-3.5c-0.7,0.7-1.1,1.1-1.7,1.5c-1,0.5-2.2,1-3,1.7c-3.2,3.1-6.6,6.1-11,7.6
	c-0.3,0.1-0.7,0.2-0.8,0.4c-1.1,2.1-3.5,2.6-5.3,3.5c-3.2,1.4-6.1,3.7-9.3,3.8c-1.2,1.1-1.9,2.5-3,2.7c-2.6,0.7-5.4,0.9-8.2,1.2
	c-0.1-2.1,2.1-3.6,0.9-5.7c-1.2,0.4-2.5,0.8-3.9,1.3c-0.4,0.2-1,0.5-1,0.7c0,1.8-1.1,1.6-2.4,1.7c-0.9-0.1-1.7,0.6-2.7,0.9
	c0.5,0.7,0.8,1.1,1,1.5c1.1-0.1,2.1-0.2,3.1-0.2c0,0.2,0.2,0.4,0.2,0.6c0.9-1.1,1.7-2.1,2.5-3.2c0.3,1,0.7,1.7,0.9,2.8
	c0.1,0.6,0.2,1.4-0.1,1.7c-1.2,1-2.5,2.6-3.7,2.5c-1.7,0.1-3.1,0.6-4.7,1.1c-0.2,0-0.4,0.1-0.8,0.3c0.7,0.3,1.2,0.7,1.5,0.9
	c-0.2,1.6-0.5,3-0.7,4.6c-0.8-0.2-1.7-0.5-2.5-0.6c-0.3,0.5-0.8,1-1.1,1.6c-1.3-0.3-2.1-0.6-2.3-2c-0.1-0.6-0.6-1-1.1-1.6l-2,4.8
	c-1.5-0.6-2.5-3-4.4-1.2c0,0.5,0.1,1.1,0.1,1.7c-1.3-0.2-2.5,0.1-2.1-1.8c0.4-1.4-0.5-1.9-1.8-1.7c-0.5,1.1-0.7,2.3-1.3,3.2
	c-0.6,0.9-1.4,1.5-2.1,2.3c-0.7,0.7-0.6,2.4-2.5,2c0.9-1.5,1.7-2.9-0.4-4.4c-0.3,1.9-0.9,3.6-0.8,5.1c0.1,0.7,1.4,1.2,2.5,1.9
	c-0.1,0.6-0.5,1.4-0.5,2c-0.4,0-0.7,0-0.8-0.1c-1.5-1.8-3.7-0.9-5.5-1.3c-0.2-0.1-0.6,0.3-0.7,0.4c0,1.5-1.1,1.2-1.8,1
	c-1-0.2-2-0.5-2.9-0.7c-0.4,1.1-0.6,2.1-1.1,3.1c0,0.1-0.4,0.1-0.9,0c0-0.7,0.2-1.5,0.2-2c-2.1-0.9-2.7-1-2.9,0.2
	c-0.4,1.4-0.4,2.8-0.7,4.6c1.1-0.7,1.9-1.3,2.6-1.8c0.1,0,0.3,0.2,0.3,0.2c-0.5,1-1,1.9-1.7,3.3c-2.3-1.1-5.3,0.7-7.3-2.3
	c-0.2-0.3-1.2-0.2-2.2-0.2c0.6,2,1.1,3.9,1.7,6.1c0.9-1,1.4-1.7,2.1-2.4c1.8,0,3.8-0.1,6.3,0c-0.8,0.9-1.3,1.3-2,2
	c1.2,0.6,2.1,1.1,3.3,1.6c-0.5,0.3-0.8,0.6-1.2,0.8c1,0.8,2.1,0.6,2.6-0.3c0.9-1.2,1.8-0.7,2.8-0.3c0.2-0.5,0.5-1,0.8-1.4
	c1.1-0.9,2.6-0.6,3.1,0.6c0.7,2,1.3,2.3,2.9,1.6c0.9-0.3,1.7-0.8,2.7-1.3c1.9,1.3,4.1,1.7,5.9,0.8c2.5-1.3,4.8-1,7.1-0.5
	c1.4,0.4,3,0.7,4.3,0.3c1.9-0.6,3.3-0.4,4.3,1.6c1.2-2,3.5-3.1,5.5-2.4c1.4,0.5,2.4,0.3,3.6-0.2c3.1-1,6.2-1.9,9.3-2.5
	c1.5-0.3,1.7-0.1,1.4,1.7c0.8,0.6,0.2,1.3-0.1,1.9c1.7,0.8,3.3,1.1,5.2,0.2c-0.7,0.9-1.3,1.5-1.9,2.4c0.7,0.7,1.3,1.4,2,2.2
	c-0.5,0.3-0.8,0.5-1.1,0.7c-0.3,0.2-0.4,0.4-0.7,0.7c1.5,1.3,2.3-0.3,3.3-0.6c2.9-0.7,5.9-1.9,8.6-3.7c1.1-0.8,2.7-1,4.1-1.5
	c0.5-0.2,0.9-0.3,1.3-0.5c1-0.5,2.2-1.2,3.3-1.7c1.3-0.6,2.6-1.3,3.4-1.7c1.5,0.2,2.6,0.5,3.5,0.3c1.5-0.5,1.1-2,0.9-3.3
	c0.7-0.5,1.3-0.9,1.8-1.2c0.3-0.1,0.6-0.1,0.8-0.3c0.1,0.6,0.2,1.1,0.2,1.6c1.4,0.3,1.4-0.4,1.7-1.5c0.4-2,1.6-2.6,3.8-2.3
	c0.2-0.3,0.3-0.6,0.6-1c1,0.9,1.9,1.5,3.1,2.5c0-1.9,2.4-3.2-0.3-4.8c2.5-1.4,4.7-2.6,6.7-3.9c1-0.5,2.1-1.1,3-1.7
	c2.3-1.8,4.5-3.6,6.8-5.3c0.8-0.7,2.3-0.9,2.6-1.7c0.8-2.4,2.8-3.7,4.1-5.6c0-0.1,0.3-0.1,0.6-0.1c0.3,0.4,0.6,0.9,0.9,1.3
	c2.7-0.4,1.5-3.4,3.2-4.6c0.7,0.3,1.5,0.7,2.3,1.1l2.9-7.1c0,0,0,0-0.1,0c0,0,0,0,0-0.1c-0.8-0.7-0.6-1.3,0.2-2.2
	c0.5,1,0.7,1.6-0.2,2.2l0,0l0,0c0.4,0.1,0.7,0.1,1,0.3c0.8-1,1.4-2.6,2.2-2.7c1.6-0.1,2.1-1.7,3.3-2.1c0.4-0.2,0.8-0.9,0.9-1.3
	c0-0.3-0.7-0.7-0.9-1c0.6-1.5,1.1-2.6,1.6-4c0.5-1.2,0.7-2.5,1.3-3.5c0.5-1.2,1.3-1.4,2.2-0.6c0.4,0.3,0.7,0.8,1,1.2
	c1.3-1.6,1.3-1.6,1-3.8c-0.5-3.1,1.5-5.1,4.5-4.9c0.6,0,1.4-0.6,2.3-1c-1.6-1.7-1.9-3.9-0.8-5.2c2.6-3.2,3.8-7,5.1-10.8
	c0.2-0.7,0.3-1.4,0.6-1.9c1.8-2.5,3.7-5.1,3.1-8.6c0.8,0.2,1.3,0.4,1.7,0.4c0.4,0,0.9,0,1.2-0.1c0.1-2-1.6-0.7-2.3-1.3
	c1.2-1.5,3.4-2.3,3-4.6c-0.5-0.4-1-0.8-1.6-1.3c2-0.5,2.3-2.4,2.2-3.3c-0.6-2.3-0.8-4.2,1.2-6c0.8-0.8,1.2-1.9,1.8-3
	c0.5-1,1-1.9,1.6-3.1c1.1,0.6,1.9,1.1,3.1,1.7c0.5-1,1.4-1.9,1.5-2.8c0.2-3.2,0.1-6.4,0-9.6c0-3.2,0.1-6.4,0-9.7
	c-0.2-3.5-0.4-7-0.8-10.6c-0.7-5.1-1.4-10.3-3.8-15c-1.4-3-3.7-5.6-3.8-9.1c0.1-0.9-0.9-1.7-1.3-2.7c-1-2.6-3.8-4.6-2.3-7.9
	c0-0.1-0.1-0.4-0.2-0.5c-1.6-1.9-1.8-4.3-2.1-6.5c-0.6-3.3-3.1-4.8-5.2-6.8c-0.4-0.3-1.5-0.2-2.2,0c-0.6,0.1-1.1,0.5-1.8,0.8
	c-0.9-1.1-1.9-2-2.9-3.1c-0.8,1.5-1.5,2.6-2.2,3.8c-0.3,0.4-1,0.9-1.3,0.8c-0.4,0-0.9-0.7-0.9-1.3c-0.1-2.8-1.5-5.1-3.6-7.2
	c-1.7,1.8-3.9,1.9-6.2,1.8c-0.5,1.5-0.9,2.9-1.2,4.2c-0.2-0.1-0.4,0-0.6-0.1c0.1-2.3,0.3-4.7,0.5-7.4c-1,0.8-1.8,1.3-2.7,2
	c-1.2-2.6-1.8-5.4-5.3-5.5c-1.1,3.1-2.1,6.4-3.2,9.6c0,0.1,0,0.2,0,0.3c-0.3,1.3-0.5,2.8-0.8,4c-1.2,3.8-2.4,7.7-3.9,11.3
	c-1,2.2-2.5,4.5-4.3,6.3c-1.5,1.6-3,3.2-4,5.3c-0.2,0.5-0.4,0.8-0.7,1.3c0.1,0.1,0.2,0.2,0.1,0.3c-0.8,9.4-3.2,18.7-5.9,27.7
	c0.1,0,0.1,0,0.2,0.1c0,0.5,0.1,1.1,0.1,1.6c-0.5,3.9-0.9,7.7-1.4,11.6c-0.1,1.4-0.3,2.7-0.2,4.1c0,1.8,0.8,3.7-1.1,5.1
	c-0.2,0.3-0.2,0.8-0.3,1.1c-0.4,3.1-0.7,6.2-1,9.3c-1.7,0.6-3.5,1-5,1.5c-0.4,1.6-1.4,2.8-2.4,4.1c-1,1-1.7,2.1-2.4,3.2
	c0.4-0.3,0.9-0.4,1.4-0.7c0.9,2.2,0.7,2.5-1.5,2.7c-0.1,0.9-0.1,1.8-0.2,3.2c-0.8-0.6-1.2-1.2-1.6-1.6c-0.9,2-1.7,3.7-3,5.1
	c1.2,1.6,0.3,3.6,1.2,5.3c0.4,0.7,0.3,1.5,0.6,2.4c1.5-1.9,2.5,0.8,4.2-0.3c-0.6,1.1-0.8,1.5-1.1,2.1c0.9,0.7,2.9,1,1.5,3
	c-0.2-0.1-0.5-0.1-0.7-0.1c-0.3,0-0.6,0-1.3-0.1c2.8,2.3,3.9,1.8,6-2.4c1,2.6-1,3.5-2.3,5.1c2.8,0,4-2.3,5.9-3.5
	c-0.3,1.5-1.1,2.4-2.3,3.3c-1,0.7-2.4,1.7-2.9,2.7c-0.7,1.7-1.6,2.2-3.3,2.2c-0.9-0.1-2.1-0.4-2.4,1.2c1.3,0.5,2,1.4,1.4,3
	c-3.1,1.3-4.7,5.4-8.7,5c-0.7,1.1-0.8,2.5-1.7,2.9C580.1,197.8,577.5,200,574.2,199.8z M508.3,244c0-0.2-0.2-0.5-0.1-0.8
	c0.1-0.3,0.3-0.4,0.8-0.9c-0.1,0.8-0.1,1.2-0.2,1.3C508.7,244,508.5,243.9,508.3,244z M511.6,244.9c-1-1.3-0.8-1.9,0.7-2.5
	C512.1,243.4,512,244,511.6,244.9z M525.1,230.7c0.4-0.2,0.7-0.4,0.8-0.4c0.3,0.2,0.5,0.5,0.7,0.8c-0.3,0.2-0.5,0.3-0.7,0.6
	C525.5,231.4,525.3,231.1,525.1,230.7z M570.9,250.7c-0.3,0.1-0.7,0.4-1,0.3c-0.2-0.1-0.4-0.4-0.7-1c0.6-0.1,0.9-0.2,1.1-0.1
	C570.5,250.1,570.6,250.4,570.9,250.7z M563.4,248.5c0.2-1.9,1.4-1.6,2.1-1.9c0.2,0.2,0.2,0.4,0.3,0.5
	C565.3,247.5,564.5,247.8,563.4,248.5z M568.9,248.2c-0.3,0.3-0.7,0.6-1,0.8c-0.2-0.2-0.3-0.4-0.4-0.6c0.4-0.3,0.8-0.6,1.2-0.7
	C568.7,247.9,568.9,248,568.9,248.2z M531.1,234.5L531.1,234.5c-0.1,0.1-0.1,0.1-0.1,0.1c-0.1,0.9-0.1,1.8-0.1,2.7
	c-3.6,1.2-5.6,0.4-7.2-3c2.1-0.7,3.2,0.7,4.2,2.2c1-0.6,2.1-1.3,3-2l0-0.1C531,234.4,531.1,234.5,531.1,234.5
	c0.5-0.3,1.1-0.6,2.3-1.3C532.7,234.9,531.8,234.5,531.1,234.5z M543,233.1c-0.6,0.1-0.8,0.3-1.2,0.2c0-0.2-0.2-0.6-0.2-0.7
	c0.2-0.2,0.4-0.3,0.7-0.3C542.7,232.5,542.8,232.8,543,233.1z M597.3,237.7c-0.1,0.8,0,1.6-0.4,2.2c-0.7,1.2-3.3,2.1-4.9,2.2
	c1.6-1.6,3.2-3.1,4.8-4.6L597.3,237.7z M555.3,221.1c-1.8,2.3-4.2,1.7-6.8,1.6c1.2-3.2,4.6,0,5.2-3.4
	C554.7,220.1,555,220.5,555.3,221.1z M568.2,213.8c-0.7,0.6-0.6,2.1-2.3,1.8c-1.1-0.3-1.8,2.1-3.6,0.3c2.2-1,3.9-1.8,5.7-2.6
	C568,213.5,568.1,213.7,568.2,213.8z M572.5,211.3c-0.2,0.3-0.4,0.7-0.7,0.9c-0.3,0.2-0.7,0.2-1,0.1c0-0.2-0.1-0.3-0.1-0.6
	c0.5-0.3,1.1-0.5,1.7-0.8C572.3,211,572.3,211.1,572.5,211.3z M624.4,73.5c0.5-0.9,0.9-1.8,1.5-2.6c0.2,0.1,0.3,0.1,0.5,0.2
	l-1.2,2.7C625,73.9,624.7,73.7,624.4,73.5z M590.2,192c0.5-0.2,0.9-0.1,1.4-0.3c0,0.2,0.2,0.5,0.1,0.6c-0.4,0.2-0.9,0.2-1.3,0.5
	C590.4,192.5,590.2,192.2,590.2,192z M441.7,223.4c1.1-1,1.4-2.9,3.2-3.3c0.1-0.1,0-1.4,0-2.2c-0.6,0.2-0.9,0.3-0.9,0.6
	c-0.1,1-0.7,1.2-1.4,0.8c-0.9-0.4-0.8-1-0.3-1.7c0.4-0.6,1.1-1,1.7-1.6c2.4,1.9,4.5,3.9,6.1,6.1c-0.1,0.3-0.3,0.4-0.3,0.7
	c-1.1-0.3-2.2-0.3-3.4-0.6c1.4,1.5,2.7,2.9,4.4,4.4c0.2-0.8,0.2-1.2,0.4-1.7c0.1-0.4,0.4-0.8,0.4-0.8c1.4,0.6,2.6,0.9,3.6,1.4
	c1.1,0.6,2,1.1,3.3,1.9c0-1.3-0.1-2.2-0.1-3.1c-0.6,0.1-1.1,0.1-1.8,0.1c0.7-2.9-2.8-2.6-2.9-5c-0.7,0.8-1.1,1.1-1.5,1.6
	c-0.9-0.6-1.6-1.2-2.5-1.7c-2.1-1.6-2.1-2.6,0.5-4.6c1.5,1.2,3.1,2.6,4.7,3.6c1.7,1.1,3.8,1.9,5.7,3c0.3,2.6,0.6,2.8,2.8,2.5
	c0.8-0.2,1.7-0.2,2.5,0c1.3,0.3,2.3,1,3.6,1.3c3.2,0.8,6,1.9,8.5,4.2c0.6-0.9,1.4-1.7,2.3-2.8c-2.8-1-4.3-3.9-7.5-4.2
	c-1.8,2-2,2.1-3.8,1.5c-2.1-0.6-4.1-1.3-3.9-4.4c-3.6,1.1-5.8-0.8-8.1-2.7c-1.4-1.1-2.8-2.5-4.3-3c-2.6-0.6-3.4-2.8-5-4.4
	c-0.3-0.2,0-1-0.1-1.6c3.1,1.2,5.3,3,7.5,4.9c0.8,0.7,2,1.8,2.6,1.8c1.3-0.3,1.8,0.3,2.3,1.1c0.6,0.8,1.1,1.6,2.4,1.6
	c-0.1-2.3-1.6-3.6-3-4.2c-2.6-1.2-4.1-3-5.2-5.6c-0.1-0.1-0.4-0.1-0.6-0.2c-1.7,2.4-3.2,2.4-4.8-0.1c-0.2-0.2-0.2-0.4-0.3-0.5
	c-0.1-1-0.6-1.3-1.7-1.6c-1-0.2-2-0.9-2.8-1.6c-3.3-2.4-6.6-4.7-9.8-7.2c-5.3-4-8.7-9.6-12.3-14.9c-0.2-0.3,0-1,0-1.4
	c1.2,1.2,2,2.5,2.9,3.8c0.9,1.3,2.2,1.9,4.1,2.1c-0.9-0.8-1.4-1.6-2-2.2c-1.2-1.6-2.5-2.9-3.8-4.4c-2.4-3.2-5.5-6.2-7.7-9.6
	c-3.9-6-7.2-12.3-10.6-18.7c-4.4-8.1-8.6-16.1-11.6-24.9c-0.4-1.2-1.4-2-2.9-2.4c0,0.9,0.1,1.5,0.3,2c1.5,9.4,5.5,18,8.5,27
	c0.8,2.3,2,4.7,3,7c1.1,2.5,2.1,4.8,3.1,7.3c1,2.3,1.8,4.4,2.6,6.6c1.2,2.6,2.1,5.2,3.3,7.9c1,2.2,1.7,4.5,3.3,6.2
	c1.8,2,2.4,4.5,3.9,6.7c0.5,0.7,0.4,1.9,0.3,2.8c-0.2,2.5,0.8,4.5,2.3,6.5c0.2-2,0.3-3.5,0.6-5.5c0.9,0.4,1.8,0.5,2.2,0.8
	c1.8,2.2,2.9,4.6,1.4,7.6c2.7,1.3,3.8,3.3,3.5,6.2c0.2,0.1,0.4,0,0.6,0.1c0.7-1.3,1.4-2.3,2.4-3.9c1.2,1.3,2.2,2.4,3.2,3.5
	c0.8,0.7,1.2,1.5,0.7,2.5c-0.7,1.4,0,2.3,1.1,3.8c0.1-1.6-0.6-2.9,1.2-3.6c-0.4,1.5,0.2,2.3,1.3,3.1c0.9,0.6,1.4,2,1.6,3
	c0.2,0.5-0.8,1.4-1.1,1.9C440.5,224.7,441.2,224,441.7,223.4z M444.1,206.1c0.3-0.1,0.4-0.3,0.6-0.3c0.1,0,0.3,0.3,0.3,0.4
	c-0.1,0.2-0.2,0.3-0.5,0.7C444.3,206.5,444.2,206.3,444.1,206.1z M441.8,213.6c-1.1-2.2-4-3.2-4.1-6c2.4,1.8,5.3,3,5.8,6.7
	C442.9,214,442,213.9,441.8,213.6z M445.3,214.6c0.2,0,0.6-0.1,0.8-0.2c0.1,0.6,0.2,1,0.2,1.6c0,0-0.5,0.2-0.7,0.2
	C445.5,215.6,445.4,215.1,445.3,214.6z M439.6,216c0-0.3,0.1-0.7,0.4-1.2c1.2,0.7,1.2,1.4,0.2,2.5
	C439.8,216.6,439.6,216.4,439.6,216z M529.7,222.9c-1.5-2.2-3.5-2.7-8-1.6c0.8-1,1.2-2-0.2-2.6c0.3-0.4,0.7-0.9,1.2-1.6
	c1.2,2.6,3.2,2.2,5.2,2.4c2.1,0.3,4,0.6,6.3,0.9c0.3-0.8,0.7-1.7,1.2-2.9c-0.9,0.6-1.6,1.2-2.6,1.9c0-1.1,0-1.8,0-2.9
	c-1.3,0.2-2.4,0.5-3.8,0.7c0.4-0.6,0.9-1.4,1.2-1.3c2.5,0.3,4.9,0.8,7,1.1c0.1,2.5,0.1,4.6,0.2,6.8c0.3,0.8,2.4-0.1,1.9,1.7
	c-1.2-0.1-2.3,0-3.5,0l0.1,0c-0.3-1-0.7-2-1.2-3.4c-0.6-0.1-1.8-0.3-2.8-0.5c-0.8,1.5-1.5,2.7-2.3,4.4c-0.9-0.7-1.5-1.2-2.7-2.1
	C528.1,223.2,528.9,223.1,529.7,222.9z M452.3,239.7c-0.7,0-1.6-0.2-2.8-0.5c0.5-2.7,0.9-5.2-0.8-7.4c-0.2-0.2-0.2-0.3-0.4-0.4
	c-0.5-1.3-2.4-1.2-2.6-3.1c-0.1-1.2-1.1-2.4-1.8-3.7c1.7-0.5,3.1,0.9,3.3,1.9c0.6,2.4,2.5,3.3,4,4.7c1,1,1.8,1.6,2,3.2
	c0.2,1.5,1.4,2.9,2.3,4.2c-0.2,0.2-0.3,0.3-0.5,0.5c-0.8-0.8-1.5-1.6-2.4-2.4C450.3,237.2,453.3,238.6,452.3,239.7z M617.6,236.7
	c-0.9,0.3-1.8,1-2.5,1c-0.6-0.1-1-1.3-1.8-0.7c-0.6,0.5-1,1.3-1.5,2.1c2.1,0.3,2.9,1.4,2.2,2.8c-0.5,0.9-0.4,1.6,0.1,2.4
	c0.2,0.3-0.1,0.9-0.1,1.3c0.5,0.6,0.9,1.3,1.6,2c0.3-0.5,0.9-1.2,0.9-1.3c-0.9-1.4,0-1.9,0.9-2.7c0.8-0.9,1.9-1.5,3-2.4
	c-1.7-0.5-3-0.9-4.3-1.3C616.6,238.9,618.1,238.4,617.6,236.7z M616.5,242.1c-0.1,0.2-0.3,0.5-0.5,0.6c-0.1,0.1-0.3-0.2-0.7-0.5
	c0.3-0.2,0.5-0.5,0.7-0.5C616.2,241.5,616.5,242,616.5,242.1z M488.1,245.8c2.7-1.6,4.6-0.7,5.2,2.1c0.2,0.9,1.1,1.9,1.6,2.8
	c-0.2,0.2-0.3,0.3-0.3,0.4C492.3,249.5,488.2,250.3,488.1,245.8z M561.8,208.2c-0.5,0.9-0.9,1.8-1.5,2.6c-1-0.1-1.9-0.2-3-0.4
	c2.1-3,5.2-3.6,8.1-5c0.8,1.7,0.2,2.8-0.6,3.8C563.4,210.4,563,208.2,561.8,208.2z M464.5,241c-0.6,1.7-0.9,3.4,0.3,4.8
	c-2.7,1.4-2.7,1.4-4.1-0.8c0.9-0.1,1.6-0.2,2.5-0.4c-0.5-1-1-1.7-1.6-2.7C462.6,241.7,463.5,241.4,464.5,241z M493.8,240.8
	c-0.2-0.6-0.2-1.7,0.2-2.2c0.3-0.4,1.4-0.7,2-0.5c0.8,0.2,1.4,1,2.8,1.9c-1.4,0.7-2.3,1.3-3.3,1.5C495,241.6,494,241.1,493.8,240.8z
	 M613.9,245.5c-0.6,0.4-1.3,0.9-1.7,1.3c-1.3-0.3-2.1-1.6-3.6-0.5c-0.3,0.3-1.8-0.6-3.2-1.2C608.6,244.4,611.3,243,613.9,245.5z
	 M456.9,239.2c0.8-0.7,1.6-1.2,2.6-2.1c-0.5,2.5,1.6,4.4-0.2,7.1C458.5,242.4,457.8,241,456.9,239.2z M518,217.9
	c1.2,0.3,2.4,0.5,3.5,0.7c-2.3,1-4.2,0.7-6.3-0.4c-0.2-2-0.3-3.8-0.5-5.5c0.6,0.7,1.6,1,1.2,2.4C515.3,216.5,516.3,217.5,518,217.9z
	 M494,228.9c1.4-1.3,2.7-2.4,3.9-3.7c0.1,0,0.3,0.1,0.4,0.1c-0.4,1.8-0.9,3.7-1.4,5.7C495.6,230.1,494.8,229.4,494,228.9z
	 M584.4,179.7c-2.4-2.2-1.9-4.2-0.7-6.8C585.3,175.3,584.2,177.3,584.4,179.7z M670.6,167.5c0.4-2.1,0.7-3.8,1.1-5.4
	c2.2,1,1.4,2.7,1.3,4.2C672.7,167.4,671.7,167.6,670.6,167.5z M463.3,236.3c1-0.5,1.8-0.9,2.3-1.3c0.2,0.9,0.4,1.6,0.8,2.2
	c0.6,0.6,1.3,1.2,0.6,2.3C465.9,238.6,464.8,237.6,463.3,236.3z M590.1,188.2c-1.4,0-2.3,0.1-3.4,0c-1.3-1.4-0.2-3.2-0.4-5.5
	c0.6,0.7,1.1,1.2,1.3,1.7C588,186.9,587.9,186.7,590.1,188.2z M660.5,188.1c-1,1.5-1.7,2.8-2.3,3.9c-1.2,0.2-2.3,0.7-3.5,1
	c-0.2-0.2-0.2-0.3-0.4-0.4C656.3,191.1,658.2,189.8,660.5,188.1z M488.7,226.2c-0.5-0.3-1-0.6-1.8-1.1c1-0.2,1.6-0.4,2.3-0.5
	c0.5,0.7,0.8,1.5,1.4,1.7c0.5,0.2,1.2-0.6,1.3,0.9c-1.6,0-3.2,0-4.7,0c-0.1-0.1,0-0.3-0.1-0.4C487.6,226.6,488.1,226.6,488.7,226.2z
	 M561.8,250.1c-0.3,0.6-1.7,1.2-0.1,1.9c-0.5,0.3-1,0.6-1.7,1.1c-0.8-0.8-1.3-1.6-1.9-2.3C559.8,249.2,560.2,249.1,561.8,250.1z
	 M504.4,230.7c-0.1,0.6-0.1,1.3-0.1,1.9c-0.2,0-0.6,0.1-0.8,0.2c0.1-1.3-1.9-2.1-0.6-3.5c0.4-0.5,1.4-0.4,2.5-0.7
	C505,229.5,504.5,230,504.4,230.7z M601.2,245.1c-0.7,0.9-2,1.4-3,2.1c-0.2-0.2-0.2-0.3-0.4-0.4c1.1-1.1,2.2-2.3,3.3-3.4
	c0.3-0.4,0.6-1,0.8-1.5C603,243.3,601.9,244.4,601.2,245.1z M624.7,233.6c0.7,0.4,1.4,1,2.5,1.8c-0.9,0.4-1.6,0.9-2.3,1.3
	C624.5,235.6,623.4,234.7,624.7,233.6z M604.1,246.6c0.2,0.8,0.1,1.5,0.2,2.1c-0.7,0.1-1.3,0-2,0.1c-0.5,0-1.1,0-2.1,0.1
	C601.3,247.2,602.6,247.1,604.1,246.6z M624.9,228.8c-1.6,1.3-2.6,2.2-3.9,3.3C621.2,229.2,621.5,228.9,624.9,228.8z M579.1,179.8
	c-0.3-0.4-0.5-0.8-0.7-1.2c1.5-0.7,2.8-0.1,2.6,1.1c0.1,0.8-0.8,1.2-1.5,0.8C579.5,180.3,579.2,179.9,579.1,179.8z M529.5,214.2
	c-3.5,0.5-3.6,0.5-3-1.8C527.3,213.1,528.1,213.5,529.5,214.2z M507.7,226.3c-1.2-0.6-2.1-1.1-3.2-1.7
	C507.4,224,507.4,224,507.7,226.3z M514.7,223c0.9-1.2,1.4-2,2.3-3.2c0.1,1.3,0.2,2.3,0.2,3.3C516.5,223.2,515.9,223.1,514.7,223z
	 M467.2,241.9c0.3,0.8,0.3,1.5,0.6,2.8c-1.8-0.6-2.5-1.1-2.1-2.3C465.9,242.2,466.6,242.2,467.2,241.9z M672.9,150.9
	c0.3-1.1,0.4-2.1,0.7-3.3c0.6,0.2,1,0.5,1.9,0.8C674.3,149.3,674.6,150.8,672.9,150.9z M520.4,226.1c0.9,0,1.8-0.1,2.9-0.2
	C522.4,227.4,522.4,227.4,520.4,226.1z M564.5,256.2c-1.2,0.2-2.3,0.6-3.6,0.9C561.4,255.9,562.2,255.5,564.5,256.2z M645,211.7
	c0.3,0,0.5,0,0.9,0.1c0.8,1,0.6,1.8-0.8,3.4C645.1,213.4,645.2,212.6,645,211.7z M538.4,215.7c-0.9-0.7-1.6-1.5-2.5-2.2
	C538,213.3,538.7,213.8,538.4,215.7z M673.1,156.8c0.1-1.3,0.1-2.5,0.2-4.3C674.4,154.3,674.4,155.6,673.1,156.8z M520.6,223.7
	c1.8-0.9,1.8-0.9,3,0.8C522.8,224.2,521.9,224,520.6,223.7z M487.9,231.1c-0.9-0.7-1.3-1.3-2-1.8
	C488.2,228.5,488.2,228.5,487.9,231.1z M516.1,232c0-0.1,0-0.1,0.1-0.2C516.2,231.9,516.2,231.9,516.1,232L516.1,232
	c0.5,1,0.5,1-0.5,2.1c-0.5-0.4-1-0.9-1.4-1.3c0.1-0.1,0.2-0.3,0.3-0.3C515,232.2,515.4,232.1,516.1,232z M603.4,253.7
	c-0.1,0.2-0.2,0.3-0.3,0.5c-0.6-0.3-1.3-0.6-2-1C602.4,251.8,602.8,253,603.4,253.7z M601.8,251.2c1.2-0.9,1.8-1.4,2.4-2.1
	c0.2,0.7,0.2,1.4,0.3,2.2C603.7,251.3,603.1,251.3,601.8,251.2z M527.9,254.1c0.7-0.3,1.5-0.5,2.4-0.9
	C529.7,255.1,529.7,255.1,527.9,254.1z M506.2,233.7c0.7-0.6,1.5-1,2.3-1.6C508.4,234.2,508.4,234.2,506.2,233.7z M439,234.3
	c0.3-1.1,0.4-1.9,0.5-2.6c0.2,0,0.4,0,0.7,0C440.7,232.8,440.9,233.7,439,234.3z M669.9,170.7c0.2,0,0.4-0.1,0.8-0.2
	c0.7,0.8,0.1,1.8,0.2,2.6c-0.2,0-0.4,0.1-0.6,0.1C670.1,172.5,669.9,171.6,669.9,170.7z M610.4,240.2c-0.7,0.6-1.7,1.2-2.4,1.8
	c-0.1-0.3-0.4-0.4-0.5-0.7c0.8-0.6,1.7-1.1,2.5-1.7C610.3,239.8,610.4,240,610.4,240.2z M580.7,190.2c0.2,0.9,0.5,1.7,0.9,3.3
	C580.1,192.4,580.5,191.3,580.7,190.2z M465.6,226.7c-0.1,0.6-0.4,1.1-0.5,1.7c0,0-0.5,0-0.5-0.1c-0.1-0.6-0.1-1.1-0.1-1.6
	C464.9,226.4,465.2,226.7,465.6,226.7z M604.2,249.1c0-0.1,0.1-0.3,0.1-0.4c1.1-0.3,2.2-0.9,2.4,1.1
	C605.8,250.2,605,249.5,604.2,249.1z M509.2,213.2c-0.3-0.4-0.5-1-0.8-1.4c0.3-0.1,0.5-0.3,0.8-0.5c0.3,0.5,0.4,0.9,0.7,1.4
	C509.8,212.8,509.4,212.9,509.2,213.2z M477.1,232.8c1.2-0.2,1.7-0.4,2.7-0.6C479.2,234,478.5,233.7,477.1,232.8z M484.7,259
	c-0.2-0.2-0.3-0.3-0.5-0.5c0.3-0.4,0.6-0.9,1.1-1.3c0.3,0.2,0.5,0.5,0.6,0.6C485.5,258.4,485.2,258.6,484.7,259z M472.6,250.2
	c0.7,0.2,1.3,0.4,1.8,0.6c-0.1,0.2-0.1,0.4-0.2,0.7c-0.7-0.2-1.2-0.5-1.9-0.7C472.4,250.5,472.5,250.3,472.6,250.2z M556.1,254.4
	c-1.1,0.3-1.7,0.5-2.3,0.7C554,253.4,554.6,253.6,556.1,254.4z M512,213.4c-0.1,0.9,0,1.9-0.1,3.2
	C510.4,215.3,511.6,214.4,512,213.4z M589.8,178.3c-0.7-0.7-1.1-1.1-1.6-1.6C589.4,176.3,589.4,176.3,589.8,178.3z M477.4,239.8
	c0.3-0.4,0.5-1,0.8-1.5c0.2,0.1,0.4,0.1,0.6,0.2c-0.1,0.3-0.1,0.7-0.4,0.9c-0.2,0.2-0.4,0.4-0.6,0.5
	C477.7,240,477.6,240,477.4,239.8z M491.1,243.8c-0.1-0.1-0.2-0.3-0.3-0.4c0.6-0.4,1.1-0.7,1.8-1.1c0.1,0.3,0.2,0.4,0.3,0.6
	C492.3,243.1,491.8,243.5,491.1,243.8z M447.8,242.5c0.2-0.6,0.5-1.1,0.7-1.7C449.6,242.1,449.6,242.1,447.8,242.5z M457.3,243.3
	c-0.1,0.2-0.3,0.4-0.3,0.6c-0.4-0.3-1-0.6-1.5-0.8c0.1-0.3,0.3-0.4,0.3-0.7C456.4,242.8,456.9,243.1,457.3,243.3z M659.3,203.9
	c-0.2,0.9-0.2,1.6-0.4,2.7C657.9,205.4,657.8,204.6,659.3,203.9z M501.4,239.2c0.1-0.3,0.1-0.5,0.2-0.8c0.6,0.1,1.2,0.3,1.8,0.4
	c-0.1,0.2,0,0.4-0.1,0.6C502.6,239.4,502,239.3,501.4,239.2z M622.4,239.5c0.4-0.7,1-1.3,1.4-2c0.2,0.1,0.3,0.2,0.4,0.3
	c-0.3,0.7-0.8,1.5-1.1,2.1C622.8,239.7,622.6,239.6,622.4,239.5z M631.2,223.1c0.5-0.8,1.1-1.4,1.6-2.2c0.2,0.2,0.3,0.2,0.5,0.4
	c-0.6,0.8-1.3,1.5-1.8,2.3C631.4,223.4,631.3,223.3,631.2,223.1z M575.2,180.1c0.5-0.3,1.1-0.7,2.2-1.3
	C576.8,180.9,576.1,180.7,575.2,180.1z M658.3,192c0.5,0,1.2,0.1,1.7,0c0.1,1.3-0.9,1.3-1.6,1.1C658.3,193.1,658.4,192.4,658.3,192z
	 M585.8,168.7c-0.1,0.1-0.7-0.5-0.6-0.7c0.1-0.4,0.5-0.6,1.1-0.9c0.3,0.5,0.6,1,0.6,1.1C586.7,168.4,586.3,168.6,585.8,168.7z
	 M505.3,255.5c0-0.1,0.4-0.3,0.7-0.6c0.2,0.5,0.4,0.8,0.2,1c-0.1,0.2-0.4,0.3-0.7,0.4C505.6,256.1,505.4,255.8,505.3,255.5z
	 M442.9,230.8c-0.2,0-0.5,0.2-0.7,0.2c-0.1-0.6-0.3-1.1-0.4-1.6c0.2,0,0.4-0.2,0.6-0.2C442.6,229.7,442.6,230.3,442.9,230.8z
	 M485.3,246.7c0.1-0.5,0.2-1,0.3-1.5c0.3,0.1,0.5,0.1,0.8,0.2c-0.2,0.5-0.3,1-0.5,1.5C485.7,246.8,485.5,246.7,485.3,246.7z
	 M503.5,254.4c0.4,0.8,0.9,1.7-0.7,2.3C503,255.7,503.1,255.1,503.5,254.4z M651.6,202.5c0.1-0.6,0.4-1.1,0.5-1.6
	c0.2,0.1,0.4,0.1,0.7,0.2c-0.2,0.6-0.5,1-0.6,1.6C652.1,202.7,651.6,202.5,651.6,202.5z M548.7,258.7c0.6-0.1,1.2-0.2,1.8-0.3
	c0.1,0.1,0.1,0.3,0.2,0.5c-0.6,0.2-1.2,0.3-1.7,0.6C548.8,259.2,548.7,258.9,548.7,258.7z M478.2,244.6c0.4-0.1,0.7-0.3,0.9-0.1
	s0.3,0.4,0.3,0.6c-0.3,0.1-0.5,0.3-0.7,0.2C478.4,245.2,478.4,245,478.2,244.6z M517.1,255.6c0.2-0.3,0.4-0.4,0.7-0.6
	c0.1,0.1,0.3,0.3,0.3,0.4c-0.1,0.3-0.3,0.5-0.7,1.1C517.3,256,517,255.6,517.1,255.6z M516.2,231.8c0.1-0.9,0-1.7,0.1-2.4
	C517.3,230.1,516.5,231,516.2,231.8z M595,258.3c0.3-0.4,0.7-0.9,1-1.2c0.2,0.2,0.3,0.2,0.4,0.3c-0.3,0.4-0.7,0.9-1.1,1.2
	C595.2,258.4,595.1,258.3,595,258.3z M440.6,227.3c-0.2,0.2-0.2,0.3-0.3,0.4c-0.4-0.3-0.8-0.7-1.2-1.2c0.2-0.2,0.2-0.3,0.3-0.4
	C439.7,226.5,440.2,226.9,440.6,227.3z M500.2,223.9c-0.3,0.1-0.5,0.3-0.8,0.4c-0.1,0-0.3-0.2-0.7-0.7
	C499.5,223.8,499.8,223.9,500.2,223.9z M516.1,229.2c-0.6-0.2-1.1-0.6-1.8-0.8C515.9,227.3,516,228.3,516.1,229.2z M423.3,213.9
	c-0.2-0.2-0.2-0.5-0.3-0.8c0.3-0.1,0.5-0.3,0.7-0.3c0.1,0.3,0.2,0.6,0.1,1C424,213.8,423.5,213.9,423.3,213.9z M611.3,237.2
	c-0.1,0.2-0.4,0.4-0.6,0.3c-0.1,0-0.2-0.3-0.5-0.7c0.5-0.2,0.7-0.3,1-0.2C611.3,236.8,611.4,237.1,611.3,237.2z M496,235.9
	c-0.2,0.3-0.5,0.3-1,0.6c0-0.5-0.1-0.8,0.1-0.9c0.2-0.2,0.4-0.3,0.7-0.4C495.8,235.5,496,235.8,496,235.9z M500.2,243.2
	c-0.1-0.1-0.1-0.3-0.1-0.4c0.4-0.1,0.9-0.1,1.3-0.2c0.1,0.1,0,0.2,0.1,0.3C501,242.9,500.6,243.1,500.2,243.2z M469.4,230.1
	c0-0.1,0.2-0.2,0.2-0.3c0.4,0.3,0.8,0.5,1.2,0.8c-0.2,0.2-0.3,0.3-0.5,0.5C470,230.7,469.7,230.4,469.4,230.1z M483.8,244.1
	c-0.2,0.5-0.4,0.9-0.5,1.3c-0.2-0.1-0.3-0.1-0.5-0.2c0.2-0.5,0.4-0.9,0.5-1.3C483.5,244,483.8,244.1,483.8,244.1z M433.8,214.9
	c0,0.1-0.4,0.3-0.5,0.2c-0.2-0.3-0.3-0.5-0.5-1c0.5-0.2,0.7-0.2,0.9-0.1C433.7,214.3,433.8,214.6,433.8,214.9z M584.7,169.6
	c-0.2,0-0.4,0.2-0.6,0.2c-0.2-0.5-0.2-0.9-0.4-1.4c0.1-0.1,0.3-0.1,0.5-0.2C584.4,168.6,584.5,169.1,584.7,169.6z M505.6,210.7
	c-0.1,0-0.2-0.4-0.2-0.5c0.2-0.2,0.4-0.3,0.7-0.5c0.1,0.4,0.2,0.7-0.1,0.9C506.2,210.9,505.8,210.7,505.6,210.7z M513.8,226.2
	c0-0.1,0-0.4,0-0.4c0.4,0,0.8-0.1,1.2,0.1c-0.1,0.2,0,0.3-0.1,0.5C514.6,226.4,514.2,226.2,513.8,226.2z M434.5,193.7
	c-0.1,0.1-0.3,0.1-0.6,0.1c-0.1-0.3-0.2-0.5-0.3-0.7c0.1-0.1,0.5-0.2,0.5-0.2C434.2,193.2,434.3,193.5,434.5,193.7z M667.8,178.1
	c0.1-0.1,0.3,0,0.5,0c0,0.4-0.1,0.9-0.1,1.3c-0.1,0.1-0.3,0-0.4,0.1C667.8,178.9,667.8,178.5,667.8,178.1z M483.4,223.4
	c0.2,0.2,0.3,0.4,0.4,0.6c-0.1,0.1-0.4,0.2-0.5,0.2c-0.1,0-0.2-0.3-0.3-0.4C483.2,223.6,483.3,223.5,483.4,223.4z M577.6,185.4
	c-0.2,0-0.5,0-0.7,0c-0.1,0,0-0.3,0-0.6c0.3,0.1,0.5,0.1,0.8,0.2C577.7,184.9,577.7,185.2,577.6,185.4z M509.3,230.9
	c-0.3-0.3-0.6-0.5-0.8-0.8c0.2,0,0.5,0,0.8,0.1C509.3,230.3,509.2,230.5,509.3,230.9z M475.5,216.1c0.3-0.1,0.6-0.2,0.8-0.2
	c0.1,0,0.2,0.4,0.2,0.6c-0.2,0-0.5,0-0.8,0.1C475.6,216.6,475.6,216.4,475.5,216.1z M518.3,228c0.1,0.3,0.2,0.7,0.1,1
	c0,0.1-0.5,0.2-0.9,0.1c-0.1-0.4-0.2-0.8,0.1-1.2C517.7,228,518.2,228,518.3,228z M654.2,196.5c0.2,0.1,0.5,0.1,0.7,0.1
	c0,0.4-0.2,0.8-0.3,1.2c-0.1,0-0.3,0-0.4,0C654.1,197.2,654.3,196.8,654.2,196.5z M602.4,142.5c-0.5-0.2-1.3-0.3-1.5-0.7
	c-0.5-1.6-0.8-3.3-1.3-4.8c0.3-0.1,0.5-0.3,0.8-0.3c0.8,1.3,1.8,2.7,2.5,4.1C603.2,141,602.6,141.8,602.4,142.5z"/>
</svg>
