<?xml version="1.0" encoding="utf-8"?>
<!-- Generator: Adobe Illustrator 22.0.1, SVG Export Plug-In . SVG Version: 6.00 Build 0)  -->
<svg version="1.1" id="master-artboard" xmlns="http://www.w3.org/2000/svg" xmlns:xlink="http://www.w3.org/1999/xlink" x="0px"
	 y="0px" viewBox="0 0 711.6 294.9" style="enable-background:new 0 0 711.6 294.9;" xml:space="preserve">
<style type="text/css">
	.st0{opacity:0.31;fill:#F08B3D;enable-background:new    ;}
	.st1{opacity:0.31;fill:#5A288E;enable-background:new    ;}
	.st2{opacity:0.45;fill:#DA5B4D;enable-background:new    ;}
	.st3{opacity:0.69;fill:#DA5B4D;enable-background:new    ;}
	.st4{opacity:0.32;fill:#F08B3D;enable-background:new    ;}
	.st5{opacity:0.32;fill:#5A288E;enable-background:new    ;}
</style>
<path class="st0" d="M377.7,38c-0.5-0.8,0.7-1.4,2.5-1.6c2.7-0.3,4.6,0.1,6.3,1.1c1.9,1.2,4.8,1.5,6.9,0.8c0.6-0.2,1.3-0.6,1.2-1
	c0-0.3-0.8-0.7-1.4-0.9c-0.5-0.2-1.4,0-2.1-0.1c-3.6-0.3-5.1-1.6-4-3.2c0.3-0.5,0.4-1,0.6-1.7c-5,0.1-9.6,0.2-14.1,0.3
	c-1.6,0-2.8,0-2.9-0.9c3-1.5,6.7-1.7,10.9-1.5c3.2,0.2,6.3,0.3,8.6,1.5c1.4,0.8,3.3,0.8,5.2,0.3c-0.7-0.1-1.2-0.4-0.5-0.7
	c0.7-0.4,1.5-0.7,2.2-1.1c-0.5-0.1-0.8-0.4-0.3-0.7c0.2-0.1,0.4-0.2,0.6-0.3c-0.5-0.1-0.9-0.2-1.3-0.4c-0.6-0.2-0.6-0.6,0-0.8
	c0.4-0.1,0.8-0.2,1.1-0.3c-2-0.2-4-0.5-5.9-0.8v-0.7c2-0.3,3.9-0.5,7-0.9c-3.8-0.9-6.5-1.9-9.6-2.2c-3-0.3-6.3,0.1-9.5,0.1
	c-0.2-0.1-0.4-0.3-0.5-0.4c2.1-1.1,4.2-2.2,6.6-3.4c-1.2-0.1-2.1-0.3-2.7-0.2c-2.7,0.4-5.1,0.3-7.7-0.2c-0.9-0.2-2-0.1-3.1-0.1
	c-0.4,0-0.8,0.3-1.1,0.4c0.5,0.7,0.9,1.3,1.6,2.4c-3-0.3-5.1-0.8-7.2-0.8c-2.4,0-4.7,0.5-7.1,0.7c-1.9,1.6-1.9,1.6-5.6,2.1
	c-4,0.6-8.2,1-12,1.7c-3.5,0.7-6.7,0.7-10.2,0.2c-1.4-0.2-3.3-0.5-4.5-0.2c-4.4,0.9-8.5,0.7-12.3-0.2c-4.5,1.1-8.6,2.1-12.9,3
	c-1.2,0.2-3-0.1-4.4-0.4c-6.1-1.1-12.6-0.8-18.8-1.2c-0.7,0-1.5,0.5-2.3,0.5c-1.3,0-3.1,0.1-3.9-0.2c-3.5-1.4-6.8-3-10.2-4.5
	c-1.6-0.7-2.9-1.6-4.7-2.3c-1.6-0.6-5.1-0.4-5.8,0.2c-1.1,1,0.1,1.7,1.8,2.2c2.9,0.9,5.9,1.7,8.9,2.5c1,0.3,2.1,0.6,2.8,1
	c3.8,2.4,8.4,4.5,13.3,6.4c2.2,0.9,1.9,1.7-0.9,2.1c-6.1,0.9-11.9,2.7-18.8,1.4c-0.6-0.1-1.5,0-2,0.2c-1.5,0.4-1.8,0.9-0.5,1.5
	c2,0.5,4.3-1.3,6.3,0.3c-0.6,0.8-1.2,1.7-1.9,2.9c-1.7-0.3-2.8-0.5-4.8-0.9c2.7,2.4,1,3.7-2.6,4.9c-2.7,0.9-5.5,1.9-7.4,3.7
	c5.2-0.6,8.9,0,12.3,1.4c1,0.4,3,0.6,4.3,0.5c3.8-0.3,7.6-0.8,11.4-1.1c2-0.2,4.1-0.1,6.2-0.4c3.4-0.3,5.9,0.6,8.8,1.4
	c0.5-0.5,0.9-0.9,1.1-1.2c0.2-0.4,0.2-0.9,0.4-1.6c7.1,1.4,13.9,2.5,21.2,1.5c0.9,0.7,1.6,1.3,2.7,2.3c1.5-2.4,4.9-3.2,9.2-3.4
	c1.2-0.1,2.6-0.3,3.3-0.7c3.9-2,9-1.4,13.5-1.7c0.8,0.6,1.3,1,2,1.6c7.3-2.4,14.7-2.8,22.4-0.8c1,0.3,2.4,0.3,3.6,0.4
	c8.2,0.3,16.5,0.5,24.7,0.7c0.2,0,0.5-0.2,0.9-0.4c-1.5-2.2-8.1-0.8-9.4-2.5c-2.7,0-4.7,0.1-6.7,0c-2.1-0.1-4.1-0.4-6.1-0.7
	c-2-0.2-4-0.4-6.8-0.7c0.7-1.1,0.7-2.4,1.9-2.7c2.8-0.8,4.5,0.6,6.4,1.4c5.2-1.4,10.1-0.6,14.8,0.3c3.7,0.7,6.5,0.2,8.4-1.4
	c-4.9-0.4-9.8-0.8-14.7-1.2C379.4,39,377.9,38.4,377.7,38z M276.7,29.3c-0.6,0.1-1.3-0.2-2.4-0.3c1.6-0.6,2.1-0.8,2.6-1
	c0.4,0.2,1.1,0.5,1.1,0.7C277.9,28.9,277.3,29.2,276.7,29.3z"/>
<path class="st1" d="M260.3,151.8c-2.3-1.7-7-0.8-6.7-4.2c1.7,0.3,3.2,0.5,4.7,0.7c-0.7-1.7-1.3-3-1.8-4.4c-0.6-1.6-1.5-2.7-4.2-2.8
	c-1.3-0.1-2.6-0.5-3.9-0.8c-2.6-0.6-5.3-1.6-7.9-1.6c-9.1-0.2-18.2-0.2-27.4-0.2c-2.4,0-4.9-0.1-7.3,0.2c-2.1,0.2-4,0.9-3.4,3
	c0.2,0.6-0.6,1.9-1.5,2.1c-3.5,1.1-4.6,3.3-5.7,5.5c-0.3,0.7-0.6,1.6-1.4,1.9c-1,0.5-2.6,0.9-3.7,0.7c-1.4-0.2-2.1-1.2-1.3-2.4
	c0.6-0.8,1.4-1.9-1.1-2.4c-0.4,1-0.8,2-1.4,3.3c-2.3-0.7-4.4-1.3-7.4-2.3c3.2-1.2,5.4-2,7.7-2.8c-1.8-1.8-3.4-3.6-5.2-5.2
	c-0.4-0.3-1.2-0.6-1.8-0.7c-3.4-0.2-6.3-2.1-10-1.5c-1.2,0.2-2.7-0.3-4.1-0.6c-3.1-0.7-6.2-1.6-9.3-2.3c-4.1-1-8.2-2.1-12.5-2.8
	c-5.1-0.9-9.9-2.8-15.8-1.8c-3.1,0.5-7.3-0.8-8.5-3.4c-1.1-2.3-3.3-3.1-6.1-3.4c-4-0.5-8-1.1-12-1.4c-1.9-0.1-4.6,0.1-5.8,0.9
	c-1.7,1.2-6.1,1.2-4.7,4.1c0.1,0.2-0.4,0.6-0.7,0.8c-2.8,1.9-5.6,3.7-8.6,5.7c1.7,1.1,2.9,1.8,3.8,2.4c-0.8,2.4-1.5,4.5-2.2,6.6
	c-0.5,1.7-1.6,2.6-4.3,2.5c-2.6-0.1-5.1,0.1-5.4-2.5c1.3-0.5,2.6-0.9,4.5-1.6c-5.2-1.6-9.9-3-14.5-4.5c0.1-0.2,0.2-0.4,0.3-0.7
	c1.6,0.1,3.1,0.3,5.8,0.5c-3.1-1.5-5.3-2.6-7.8-3.8c-2.3,2.5-4.6,4.8-2.9,7.7c-3.5,2-6.7,3.9-9.5,5.5c-0.1,3.9,5,7,0.6,10.4
	c2.9,2.4,8.7-0.1,10.5,3.5c-3.8,0.2-4,0.3-5.6,1.6c-1.5-0.5-3-0.9-4.9-1.5c0.3,1.3,0.8,2.2,0.5,3c-0.3,0.9-1.4,1.6-2.2,2.4
	c0.8,1,1.5,1.9,2,2.6c-1.3,2.1-2.5,4-3.7,5.9c-1-0.1-2.4-0.2-3.7-0.3c-0.1,0.2-0.2,0.4-0.2,0.6c1.5,0.9,3.1,1.7,4.4,2.5
	c-1.5,1.2-3.9,2.1-3.9,3.1c0,2.3-0.4,5.3,2.5,6.7c2.5,1.2,6.4,1.8,9.4,1.5c3.4-0.4,6.7-0.1,9.2,0.9c3.2,1.3,6.3,1.2,9.5,1.5
	c2.8,0.2,5.5,0.6,8.3,1c3.5,0.5,6.9,1.5,10.3,1.5c5.5,0.1,10.3,1.3,15,3c5.6,2,11.4,4,18,1.9c0.3-0.1,0.7,0,1.1,0.1
	c0.1,0.4,0.3,0.9,0.4,1.2c5.3,0.3,10.6,0.6,16,1c0.8-1.8-0.6-2.4-2.6-2.4c-6.2,0-12.2-1-18.2-2.1c-8.1-1.5-16.4-2.7-24.6-4.1
	c-1-0.2-1.9-0.5-2.8-0.8c3.6-0.2,7-0.2,10.4,0.3c5.8,0.7,11.6,1.6,17.4,2.6c8.1,1.4,16.3,1.8,24.6,1.7c4-0.1,8,0.6,12,1.1
	c1.7,0.2,2.2,1.1,0.5,2.3c-3.6-1.1-7-1.3-9,1.3c1.9,2.2,3.5,4.2,5.3,6.3c2.1-1,3.6-2.6,6.3-1.1c0.6,0.3,2,0,3-0.1
	c4.2-0.7,8.3-0.7,12.6-0.3c3.1,0.3,6.3,0,9.4,0.1c1,0,2.5-0.1,3.1,0.3c3.5,2.5,8.3,1.5,11.1,2.3c2.3-0.8,3.7-1.3,5.2-1.8
	c-3.6-0.5-7-1.7-10.6,0.1c-0.9-0.9-1.9-1.8-3.3-3.1c-2.3,2.7-5.8-0.8-8.4,1.2c-1.8-1.9-5.2-1.6-8.2-2.9c7.7-2,14.6-0.7,21.5,0
	c7.7,0.8,15.2,2.2,22.8,3.3c2.1,0.3,4.2,0.3,6.3,0.4c1.9,0.1,2.3-0.8,2.2-1.9c0,0-0.1,0-0.1,0.1c-0.1-0.1-0.1-0.1-0.2-0.1
	c-1.2-0.1-2.5-0.3-4-0.5c2.5-0.8,2.6-0.8,4,0.5c0.1,0,0.2,0,0.3,0l0,0c2.4-1,4.6-1.9,7.6-1.8c1.8,0.1,3.5-0.7,3.2-2.3
	c-0.4-2.1,1.4-2.6,3.7-2.8c2.7-0.2,4.7-0.9,5.5-2.8c-1.1-2.5-7-2.6-6.3-6.3c4.5,0.6,8.7,1.3,14,2c-1-1.9-1.3-3.1-2.3-4
	c-1.5-1.3-3.3-2.5-5.3-3.5c-2.2-1.1-1.5-1.9-0.1-3.2c1.5,0.5,2.8,0.9,4.2,1.3c0.9-2.4,0.8-2.9-1.9-3.3c-3.4-0.5-6.8-0.5-10.4-0.8
	c-0.3-1.6-0.6-3.2-0.8-4.6c3.2-1.8,6.4-3.5,9.7-5.3c-0.6-0.7-2.4-2.3-2.3-2.4c2.4-1.5-1.1-2.7-0.2-4.2c3.5-0.3,6.9-0.6,9.9-0.9
	c2.3-1.9,1-3.4-0.5-4.8C257.8,152.3,258.8,152.1,260.3,151.8z M63.3,187.1c-0.1-0.3-0.1-0.5-0.2-0.8c2.4-0.9,2.4-0.9,6.1,0.3
	C66.6,186.8,64.9,187,63.3,187.1z M63.2,164.7c0.6-0.4,0.8-0.6,1-0.6c1.5,0.2,2.9,0.4,2.4,2.1C65.4,165.7,64.3,165.2,63.2,164.7z
	 M69.2,162.2c1.7,0.7,3.4,1.1,4.3,2c0.8,0.8,0.8,2.1,1.1,3.1C69,167,68.5,166.5,69.2,162.2z M70.6,185.8c3.2-1.2,4.8,0.1,7.7,1.3
	C74.8,187.5,72.6,188,70.6,185.8z M73.8,157.1c0.7,0.8,1.3,1.5,2.3,2.6c-5.1,0.2-8.7-0.9-12.6-2.2c2.5-2.3,5-1,7.6-0.6
	c1.9-1.3,4.1-2.7,7.5-0.9C77,156.3,75.5,156.7,73.8,157.1z M89.1,189.6c-1.2-0.2-2.5-0.3-3.7-0.5c0.1-0.2,0.2-0.5,0.3-0.7
	c1.2,0.2,2.4,0.5,3.6,0.7C89.2,189.3,89.1,189.4,89.1,189.6z M186.4,156.5c-0.2-0.5-0.5-0.8-0.5-1.2c0-0.1,1-0.4,1.2-0.3
	c0.4,0.2,0.6,0.6,0.9,1C187.6,156.1,187.1,156.2,186.4,156.5z M75.7,137.6c-1.3-0.3-2.7-0.7-4-1c0.1-0.2,0.2-0.4,0.3-0.5
	c1.3,0.3,2.7,0.7,4,1C75.9,137.2,75.8,137.4,75.7,137.6z M100.6,196.1c0.9,0.2,1.9,0.3,2.8,0.5c-0.1,0.3-0.2,0.6-0.3,0.8
	c-0.9-0.2-1.9-0.5-2.8-0.7C100.4,196.5,100.5,196.3,100.6,196.1z"/>
<path class="st2" d="M508.7,178c-1-0.7-1.8-1.3-2.7-1.8c-0.8-0.5-1.6-2-2.4-0.9c1,0.9,2,1.6,2.6,2.4c0.6,0.8,0.5,1.9,0.8,3.1
	c2.2,0.2,3.3,1.3,4.7,3c1.3,1.7,2.7,4.1,5.4,4.6c0.5,0.1,1.1,0.7,1.7,1.2c-0.3,0.1-0.4,0.3-0.7,0.4c-0.9-0.2-1.6-0.4-3-0.8
	c2.4,3.4,5.7,5.6,7.2,9.3c-1-0.7-1.6-1.1-2.2-1.7c-1-1-1.8-2.2-2.9-3c-4.4-3.2-8.8-6.6-12-11.1c-0.2-0.3-0.4-0.7-0.7-0.8
	c-2.6-1.1-4-3.5-5.6-5.3c-2.7-3.2-6.1-6.1-7.5-9.3c-1.6-1.2-3.3-2-3.9-3c-1.7-2.6-3-5.4-4.5-8.2c2.1-0.1,4.4,2.1,6,0.9
	c-0.9-1.2-1.8-2.5-2.8-3.9c-0.3-0.4-1-1-1.2-1c-1.8,0-2.1-1.1-2.6-2.4c-0.3-0.9-1.3-1.7-1.9-2.7c-0.5,0.5-0.8,0.8-1.1,1
	c0.6,1.1,1,2.1,1.5,3.1c-0.2,0-0.3,0.2-0.5,0.2c1.4,0.9,2.8,1.7,4.2,2.5c-0.9,0.3-1.5,0.7-2.4,0.9c-0.6,0.1-1.3,0.2-1.7-0.1
	c-1.5-1.2-3.6-2.6-4-3.8c-0.8-1.7-1.9-3.1-3-4.7c-0.1-0.2-0.2-0.4-0.6-0.8c-0.1,0.7-0.2,1.2-0.3,1.4c-1.7-0.2-3.2-0.5-4.8-0.7
	c-0.1-0.8-0.2-1.7-0.3-2.5c-0.6-0.3-1.3-0.8-2.1-1.1c-0.2-1.3-0.2-2.1,1.1-2.3c0.6-0.1,0.8-0.6,1.1-1.1l-5.6-2c0-1.5,2-2.5-0.6-4.4
	c-0.5,0-1.1,0.1-1.7,0.1c-0.3-1.3-1.1-2.5,1-2.1c1.5,0.4,1.7-0.5,1-1.8c-1.3-0.5-2.6-0.7-3.7-1.3c-1.1-0.6-2.1-1.4-3.1-2.1
	c-1-0.7-2.6-0.6-3-2.5c1.8,0.9,3.6,1.7,4.3-0.4c-2-0.3-3.9-0.9-5.4-0.8c-0.7,0.1-0.6,1.4-1,2.5c-0.6-0.1-1.6-0.5-2.2-0.5
	c-0.1-0.4-0.2-0.7-0.2-0.8c1.2-1.5-0.5-3.7-0.9-5.5c0-0.2-0.5-0.6-0.6-0.7c-1.5,0-1.7-1.1-1.7-1.8c-0.2-1-0.3-2-0.5-2.9
	c-1.2-0.4-2.3-0.6-3.6-1.1c-0.1,0-0.2-0.4-0.4-0.9c0.7,0,1.6,0.2,2.1,0.2c0.1-2-0.1-2.6-1.4-2.9c-1.5-0.4-2.9-0.4-4.8-0.7
	c1.2,1.1,2,1.9,2.8,2.6c0,0.1-0.1,0.3-0.1,0.3c-1.2-0.5-2.4-1-4-1.7c0.2-2.3-2.8-5.4-0.6-7.3c0.2-0.2-0.3-1.2-0.6-2.2
	c-1.8,0.6-3.4,1.1-5.4,1.6c1.3,0.9,2.3,1.4,3.2,2.1c0.7,1.8,1.6,3.8,2.6,6.3c-1.2-0.9-1.8-1.3-2.8-2c-0.1,1.2-0.3,2.1-0.3,3.3
	c-0.5-0.5-0.9-0.8-1.3-1.3c-0.4,1,0.2,2.1,1.3,2.6c1.5,0.9,1.4,1.8,1.5,2.8c0.6,0.2,1.2,0.5,1.7,0.8c1.4,1.1,1.6,2.6,0.6,3.1
	c-1.8,0.7-1.8,1.3-0.4,2.9c0.7,0.9,1.5,1.8,2.3,2.7c-0.5,1.9-0.1,4.1,1.5,5.9c2.3,2.5,2.9,4.8,3.3,7.1c0.2,1.4,0.5,3,1.4,4.3
	c1.4,1.9,1.7,3.3,0.1,4.3c2.5,1.2,4.5,3.5,4.6,5.6c0.1,1.4,0.6,2.4,1.6,3.6c2.3,3.1,4.3,6.2,6.2,9.3c0.9,1.5,0.8,1.7-1.1,1.4
	c-0.3,0.8-1.2,0.2-1.9-0.1c-0.1,1.7,0.2,3.3,1.9,5.2c-1.1-0.7-2-1.3-3.2-1.9c-0.5,0.7-0.9,1.3-1.4,2c-0.5-0.5-0.8-0.8-1.2-1.1
	c-0.3-0.3-0.5-0.4-1-0.7c-0.7,1.5,1.2,2.3,1.9,3.3c1.9,2.9,4.2,5.9,7.2,8.6c1.3,1.2,2,2.7,3.1,4.1c0.4,0.5,0.7,0.9,1.1,1.3
	c1,1,2,2.2,3,3.3c1.2,1.3,2.3,2.6,3.1,3.4c0.4,1.5,0.5,2.6,1.1,3.5c1.1,1.5,2.5,1.1,3.6,0.9c0.8,0.7,1.4,1.3,1.9,1.8
	c0.2,0.3,0.3,0.6,0.6,0.8c-0.6,0.1-1,0.2-1.5,0.2c0.3,1.4,1,1.4,2.2,1.7c2.1,0.4,3.2,1.6,3.8,3.8c0.4,0.2,0.7,0.3,1.2,0.6
	c-0.5,1-0.7,1.9-1.3,3.1c1.9,0,4.1,2.4,4.7-0.3c2.4,2.5,4.5,4.7,6.6,6.7c1,1,1.9,2.1,2.9,3c2.7,2.3,5.4,4.5,8,6.8
	c1,0.8,1.8,2.3,2.7,2.6c2.7,0.8,4.9,2.8,7.2,4.1c0.1,0,0.2,0.3,0.3,0.6c-0.3,0.3-0.7,0.6-0.9,0.9c1.5,2.7,4,1.5,5.9,3.2
	c-0.1,0.7-0.1,1.5-0.2,2.3l8.3,2.9c0,0,0,0,0-0.1c0,0,0,0,0.1,0c0.4-0.8,1.1-0.6,2.3,0.2c-0.8,0.5-1.4,0.7-2.3-0.2l0,0l0,0
	c0,0.4,0.1,0.7,0.1,1c1.3,0.8,3.2,1.4,3.5,2.2c0.8,1.6,2.5,2.1,3.4,3.3c0.3,0.4,1.2,0.9,1.6,0.9c0.3,0,0.5-0.7,0.6-0.9
	c1.7,0.6,3.1,1.1,4.7,1.6c1.4,0.5,2.8,0.7,4.1,1.3c1.4,0.5,1.9,1.3,1.5,2.2c-0.2,0.4-0.6,0.7-0.7,1c2.1,1.3,2.1,1.3,4.3,1
	c2.9-0.5,5.7,1.5,6.6,4.5c0.2,0.6,1.2,1.4,1.9,2.3c1.1-1.6,3.2-1.9,4.8-0.8c4.2,2.6,8.5,3.8,12.9,5.2c0.8,0.2,1.5,0.3,2.1,0.6
	c3.2,1.9,6.6,3.7,9.9,3.1c0.1,0.8,0.1,1.3,0.3,1.7c0.1,0.4,0.4,0.9,0.6,1.2c2,0.1,0.1-1.6,0.4-2.3c2,1.2,3.7,3.4,5.8,3
	c0.2-0.5,0.4-1,0.6-1.6c1.3,2,3.3,2.3,4.2,2.2c2.1-0.6,4-0.7,6.5,1.3c1.1,0.8,2.4,1.2,3.7,1.8c1.2,0.5,2.4,1,3.7,1.6
	c-0.1,1.1-0.3,1.9-0.4,3.1c1.2,0.5,2.5,1.4,3.4,1.5c3.3,0.2,6.4,0.1,9.6,0.1c3.2,0,6.4,0.1,9.7,0c3.4-0.2,6.9-0.4,10.3-0.8
	c4.9-0.7,9.7-1.4,13.6-3.7c2.4-1.4,4.2-3.7,7.6-3.8c0.9,0.1,1.3-0.9,2.2-1.2c2.2-0.9,3.1-3.8,7.1-2.2c0.1,0,0.4-0.1,0.4-0.2
	c1.3-1.6,3.6-1.7,5.7-2.1c3.1-0.6,3.5-3.1,4.7-5.2c0.2-0.4-0.4-1.5-0.9-2.2c-0.3-0.6-1-1.1-1.5-1.9c0.7-0.9,1.3-1.9,1.9-2.9
	c-1.8-0.8-3.2-1.5-4.7-2.2c-0.5-0.3-1.3-1-1.4-1.4c-0.1-0.4,0.4-0.9,0.9-0.9c2.8-0.1,4.5-1.5,5.8-3.6c-2.5-1.7-3.4-3.9-4.2-6.2
	c-1.7-0.5-3.2-0.9-4.7-1.3c0-0.2-0.1-0.4-0.1-0.6c2.4,0.1,4.8,0.3,7.6,0.5c-1.3-1.1-2-1.8-3.1-2.7c2.1-1.1,4.7-1.8,3.4-5.3
	c-3.6-1.1-7.2-2.1-10.9-3.2c-0.1,0-0.2,0-0.3,0c-1.4-0.3-3-0.5-4.3-0.8c-4.3-1.2-8.7-2.5-12.9-4c-2.7-1-5.5-2.5-8-4.3
	c-2.2-1.5-4.4-3-6.9-4c-0.6-0.2-1-0.4-1.5-0.7c-0.1,0.1-0.1,0.2-0.3,0.1c-9.7-0.9-19.9-3.2-30.1-6c0,0.1,0,0.1,0,0.2
	c-0.5,0-1.1,0.1-1.6,0.1c-4.1-0.5-8-1-12.2-1.4c-1.4-0.1-2.8-0.3-4.2-0.2c-1.8,0-3.3,0.8-5.6-1.1c-0.4-0.2-0.9-0.2-1.2-0.3
	c-3.2-0.4-6.4-0.7-9.7-1.1c-1.3-1.7-2.4-3.5-3.5-5c-1.7-0.4-3.4-1.4-5-2.4c-1.4-1-2.8-1.7-4.1-2.4c0.4,0.4,0.8,0.9,1.3,1.4
	c-1.8,0.9-2.3,0.6-3.3-1.5c-0.9-0.1-1.8-0.1-3.3-0.2c0.3-0.8,0.7-1.2,1-1.6c-2.3-0.9-4.4-1.7-6.3-3c-1.1,1.2-3.5,0.3-4.8,1.2
	c-0.6,0.4-1.4,0.3-2.2,0.6c2.5,1.5,0.1,2.5,1.9,4.2c-1.3-0.6-1.8-0.8-2.6-1.1c-0.4,0.9,0.2,2.9-2.4,1.5c0-0.2-0.1-0.5-0.1-0.7
	c-0.1-0.3-0.2-0.6-0.4-1.3c-1.2,2.8-0.3,3.9,4.8,6.1c-2.2,0.9-4-1-6-2.3c1.2,2.8,3.9,4,5.8,5.9c-1.6-0.3-2.9-1.1-4.2-2.3
	c-1.2-1-2.6-2.4-3.9-2.9c-1.9-0.7-2.9-1.6-3.5-3.3c-0.3-0.9-0.4-2.1-2.1-2.4c0,1.3-0.6,2-2.4,1.4c-2.6-3.1-7.3-4.7-8.5-8.7
	c-1.3-0.7-2.8-0.8-3.6-1.7C513,184,509.8,181.3,508.7,178z M438.1,112c0.2,0,0.4-0.2,0.8-0.1c0.3,0.1,0.5,0.3,1.2,0.9
	c-0.9-0.1-1.2-0.1-1.4-0.2C438.4,112.4,438.3,112.2,438.1,112z M438.6,115.4c0.9-1,1.6-0.8,2.8,0.7
	C440.2,115.8,439.6,115.7,438.6,115.4z M458.2,128.9c0.3,0.4,0.6,0.7,0.7,0.8c-0.1,0.3-0.3,0.5-0.6,0.7c-0.3-0.3-0.5-0.5-0.9-0.7
	C457.6,129.3,457.9,129.1,458.2,128.9z M456.4,174.6c-0.2-0.3-0.6-0.7-0.8-1c0-0.2,0.3-0.4,0.7-0.7c0.3,0.6,0.6,0.9,0.6,1.1
	C456.9,174.2,456.6,174.3,456.4,174.6z M455.7,167.1c2,0.2,2.2,1.4,2.7,2.1c-0.1,0.2-0.3,0.2-0.4,0.3
	C457.4,169,456.8,168.3,455.7,167.1z M458.2,172.7c-0.4-0.3-0.9-0.7-1.3-1.1c0.1-0.2,0.3-0.3,0.5-0.4c0.4,0.4,0.9,0.8,1.2,1.2
	C458.4,172.5,458.4,172.7,458.2,172.7z M456.8,134.9L456.8,134.9c-0.1-0.1-0.1-0.1-0.1-0.1c-0.9-0.1-1.8-0.1-2.7-0.1
	c-2.6-3.6-2.6-5.6,0.1-7.2c1.5,2.1,0.6,3.2-0.6,4.2c1.1,1,2.1,2.1,3.2,3l0.1,0C456.8,134.8,456.8,134.9,456.8,134.9
	c0.5,0.5,1.1,1.1,2.2,2.3C457,136.5,457,135.6,456.8,134.9z M462.9,146.8c-0.3-0.6-0.6-0.8-0.7-1.2c0.2,0,0.5-0.2,0.6-0.2
	c0.3,0.2,0.4,0.4,0.5,0.7C463.4,146.4,463.1,146.5,462.9,146.8z M480,201c-0.9-0.1-1.6,0-2.4-0.4c-1.4-0.7-3.4-3.3-4.2-4.9
	c2.2,1.6,4.4,3.2,6.5,4.8L480,201z M479.9,159.1c-3-1.8-3.3-4.2-4.3-6.8c3.7,1.2,1.9,4.6,5.5,5.2
	C480.6,158.5,480.3,158.8,479.9,159.1z M492.3,172c-0.9-0.7-2.3-0.6-2.7-2.3c-0.2-1.1-2.8-1.8-1.7-3.6c1.8,2.2,3.3,3.9,4.8,5.7
	C492.5,171.8,492.4,171.9,492.3,172z M496.5,176.4c-0.4-0.2-0.9-0.4-1.2-0.8c-0.3-0.3-0.4-0.7-0.5-1c0.2,0,0.3-0.1,0.6-0.1
	c0.5,0.5,1,1.1,1.5,1.8C496.7,176.2,496.6,176.2,496.5,176.4z M655.1,228.6c1.1,0.5,2.1,0.9,3.2,1.5c0,0.2,0,0.3,0,0.5l-3.2-1.2
	C655,229.2,655,228.9,655.1,228.6z M522.9,194.1c0.4,0.5,0.5,0.9,0.9,1.4c-0.2,0-0.4,0.2-0.6,0.1c-0.3-0.4-0.6-0.9-1.1-1.3
	C522.5,194.3,522.7,194.1,522.9,194.1z M432.2,45.5c1.5,1.1,3.5,1.4,4.6,3.2c0.1,0.1,1.4,0,2.2,0c-0.4-0.6-0.7-0.9-1-0.9
	c-1-0.1-1.4-0.7-1.4-1.5c0-0.9,0.7-0.8,1.6-0.3c0.7,0.4,1.5,1.1,2.3,1.7c-1,2.4-2.1,4.5-3.6,6c-0.3-0.1-0.5-0.3-0.8-0.3
	c-0.2-1.1-0.5-2.2-0.8-3.4c-0.9,1.4-1.8,2.7-2.6,4.3c0.9,0.2,1.3,0.2,1.8,0.4c0.4,0.1,1,0.4,1,0.4c0,1.4,0.1,2.5,0,3.6
	c-0.1,1.1-0.3,2-0.6,3.3c1.3,0,2.2-0.1,3.1-0.1c-0.3-0.6-0.6-1.1-0.8-1.8c3.1,0.7,1.5-2.8,3.8-2.9c-1.1-0.7-1.6-1.1-2.2-1.5
	c0.3-0.9,0.5-1.6,0.7-2.5c0.8-2.1,1.8-2,4.8,0.5c-0.6,1.5-1.4,3.1-1.7,4.7c-0.4,1.7-0.4,3.8-0.7,5.7c-2.5,0.2-2.6,0.6-1.4,2.8
	c0.5,0.8,0.9,1.7,1,2.5c0.2,1.3-0.1,2.3,0.1,3.6c0.5,3.2,0.4,6-0.8,8.5c1.1,0.7,2.3,1.4,3.7,2.3c-0.1-2.7,2.2-4.3,1.3-7.5
	c-2.7-1.8-2.9-2-3-3.8c-0.2-2.1-0.3-4.1,2.9-3.8c-2.5-3.6-1.5-5.8-0.6-8.1c0.5-1.4,1.4-2.8,1.2-4.3c-0.4-2.6,1.4-3.4,2.4-4.9
	c0.1-0.3,1,0,1.6-0.1c0.1,3.1-0.9,5.3-1.9,7.5c-0.4,0.8-1,2-0.7,2.6c0.9,1.3,0.4,1.8-0.2,2.3c-0.6,0.6-1.1,1.1-0.7,2.4
	c2.3-0.1,3-1.6,3-3c0.1-2.6,1.4-4.1,3.5-5.2c0.1-0.1,0-0.4,0-0.6c-3.1-1.7-3.7-3.2-1.8-4.8c0.1-0.2,0.3-0.2,0.4-0.3
	c1-0.1,1.1-0.6,0.9-1.7c-0.2-1,0.1-1.9,0.4-2.8c1.1-3.3,2-6.6,3.3-9.8c1.9-5.3,6.2-8.6,10-12.2c0.2-0.2,1,0,1.4,0
	c-0.7,1.2-1.7,2-2.6,2.9c-0.9,0.9-1.1,2.2-0.5,4.1c0.5-0.9,1-1.4,1.4-2c1.1-1.2,1.9-2.5,2.9-3.7c2.3-2.4,4.1-5.4,6.6-7.6
	c4.5-3.8,9.5-7.2,14.5-10.5c6.3-4.3,12.7-8.6,20.3-11.5c1.1-0.4,1.4-1.4,1.2-2.9c-0.9,0-1.5,0.1-1.9,0.3C501-3.7,494,0.3,486.2,3.3
	c-2,0.8-3.9,2-5.8,3c-2,1.1-4,2.1-6.1,3.1c-1.9,1-3.7,1.7-5.5,2.6c-2.1,1.1-4.4,2.1-6.6,3.2c-1.8,1-3.8,1.7-4.9,3.2
	c-1.3,1.8-3.6,2.4-5.2,3.9c-0.5,0.5-1.8,0.4-2.7,0.3c-2.6-0.2-4.1,0.8-5.6,2.3c2.1,0.2,3.6,0.3,5.7,0.6c0,0.9,0.2,1.8,0,2.2
	c-1.5,1.8-3.4,2.9-7.1,1.4c-0.2,2.7-1.8,3.8-4.8,3.4c0,0.2,0.1,0.4,0.1,0.6c1.5,0.7,2.9,1.4,4.8,2.4c-0.8,1.2-1.6,2.2-2.2,3.2
	c-0.4,0.8-1,1.2-2.3,0.6c-1.6-0.7-2.3,0-3.3,1.1c1.6,0.1,2.7-0.6,4.1,1.2c-1.6-0.4-2.2,0.2-2.6,1.3c-0.2,0.9-1.4,1.4-2.3,1.6
	c-0.4,0.2-1.7-0.8-2.4-1.1C430.5,44.3,431.4,45,432.2,45.5z M450.5,48c0.2,0.3,0.4,0.4,0.5,0.6c0,0.1-0.2,0.3-0.3,0.3
	c-0.2-0.1-0.4-0.2-0.9-0.5C450.1,48.1,450.3,48,450.5,48z M442.1,45.6c1.7-1.1,1.6-4,4.4-4c-0.9,2.4-0.9,5.3-4.4,5.8
	C442.1,46.7,441.8,45.8,442.1,45.6z M442.5,49.2c0.1,0.2,0.3,0.6,0.5,0.8c-0.6,0.1-0.9,0.2-1.5,0.2c0,0-0.4-0.5-0.4-0.7
	C441.5,49.3,442,49.2,442.5,49.2z M438.8,43.5c0.3,0,0.7,0.1,1.3,0.4c-0.2,1.2-0.9,1.2-2.5,0.2C438.3,43.6,438.4,43.4,438.8,43.5z
	 M467.8,133.5c1.6-1.5,1.3-3.4-1.6-8c1.3,0.8,2.5,1.2,2.6-0.1c0.5,0.3,1.1,0.7,2.1,1.2c-2.1,1.1-0.9,3.2-0.3,5.2
	c0.5,2.1,1,4,1.6,6.3c0.9,0.3,1.9,0.7,3.4,1.2c-1-0.9-1.8-1.6-2.9-2.6c1.1,0,1.8,0,2.9,0c-0.8-1.3-1.4-2.4-2.2-3.8
	c0.7,0.4,1.7,0.9,1.8,1.2c0.6,2.5,1.2,4.9,1.7,7c-2.5,0.1-4.6,0.1-6.7,0.2c-0.7,0.3,1,2.4-1,1.9c-0.4-1.2-0.9-2.3-1.4-3.5l0,0.1
	c0.9-0.3,1.8-0.7,2.9-1.2c-0.1-0.6-0.4-1.8-0.6-2.8c-1.8-0.8-3.3-1.5-5.3-2.3c0.3-0.9,0.6-1.5,1-2.7
	C466.8,131.9,467.3,132.7,467.8,133.5z M420.2,56.1c-0.2-0.7-0.4-1.6-0.6-2.8c2.9,0.5,5.5,0.9,7.1-0.8c0.1-0.2,0.2-0.2,0.3-0.4
	c1.1-0.5,0.3-2.4,2-2.6c1.2-0.1,1.9-1.1,3-1.8c1.2,1.7,0.3,3.1-0.6,3.3c-2.2,0.6-2.3,2.5-3.1,4c-0.5,1-0.9,1.8-2.4,2
	c-1.4,0.2-2.3,1.4-3.3,2.3c-0.3-0.2-0.4-0.3-0.7-0.5c0.5-0.8,1-1.5,1.5-2.4C421.8,54.1,421.6,57,420.2,56.1z M489.1,221.4
	c-0.7-0.9-1.7-1.8-1.9-2.5c-0.1-0.6,0.9-1,0-1.8c-0.7-0.6-1.7-1-2.7-1.5c0.5,2.1-0.2,2.9-1.9,2.2c-1.1-0.5-1.7-0.4-2.4,0.1
	c-0.2,0.2-0.9-0.1-1.3-0.1c-0.4,0.5-0.9,0.9-1.4,1.6c0.6,0.3,1.5,0.9,1.6,0.9c1-0.9,1.9,0,3,0.9c1.2,0.9,2.2,1.9,3.6,3
	c-0.2-1.7-0.3-3-0.4-4.3C486.5,220.4,487.5,221.8,489.1,221.4z M483.3,220.3c-0.2-0.1-0.6-0.3-0.8-0.5c-0.1-0.1,0.1-0.3,0.3-0.7
	c0.3,0.3,0.7,0.5,0.8,0.7C483.6,219.9,483.4,220.3,483.3,220.3z M428.3,91.9c2.7,2.7,2.6,4.7,0,5.2c-0.8,0.2-1.4,1.1-2.1,1.6
	c-0.3-0.2-0.4-0.3-0.5-0.3C426.2,96.1,423.8,91.9,428.3,91.9z M495.3,165.6c-1.1-0.5-2.1-0.9-3.2-1.5c-0.3-1-0.5-1.9-0.8-3
	c3.8,2.1,5.7,5.2,8.3,8.1c-1.4,0.8-2.7,0.2-4-0.6C493.7,167.2,495.8,166.8,495.3,165.6z M423.6,68.2c-1.9-0.6-3.7-0.9-4.7,0.3
	c-2.4-2.7-2.4-2.7-0.8-4.1c0.5,0.9,0.9,1.6,1.4,2.5c0.8-0.5,1.3-1,2.1-1.5C422.2,66.4,422.9,67.3,423.6,68.2z M435.6,97.6
	c0.5-0.2,1.6-0.2,2.3,0.2c0.5,0.3,1.3,1.4,1.3,2c0.1,0.8-0.4,1.4-0.7,2.8c-1.3-1.4-2.2-2.3-2.8-3.3
	C435.3,98.7,435.3,97.8,435.6,97.6z M478.8,217.7c-0.6-0.6-1.4-1.3-2-1.7c-0.2-1.3,0.8-2.1-0.9-3.6c-0.4-0.3-0.1-1.8-0.1-3.2
	C477.7,212.3,480.3,215,478.8,217.7z M422.5,60.7c1,0.8,1.8,1.6,3.1,2.6c-2.7-0.5-3.8,1.5-7.2-0.2C419.9,62.2,421,61.5,422.5,60.7z
	 M468.1,121.8c0.2,1.2,0.4,2.4,0.7,3.5c-1.9-2.3-2.4-4.2-2.2-6.3c1.9-0.2,3.7-0.3,5.3-0.5c-0.5,0.6-0.3,1.6-1.9,1.2
	C468.5,119.2,467.8,120.1,468.1,121.8z M447.6,97.8c1.9,1.4,3.5,2.7,5.2,3.9c0,0.1,0,0.3,0,0.4c-1.9-0.4-4-0.9-6.3-1.4
	C447,99.4,447.3,98.6,447.6,97.8z M532.8,188.4c1.3-2.4,3.5-1.9,6.5-0.7C537.6,189.2,535.2,188.1,532.8,188.4z M579.4,274.5
	c2.2,0.4,4.1,0.7,5.9,1.1c-0.1,2.2-2.1,1.3-3.7,1.3C580.4,276.6,579.8,275.6,579.4,274.5z M428,67.1c1,1,1.6,1.8,2.2,2.3
	c-0.8,0.2-1.5,0.4-1.9,0.8c-0.4,0.6-0.6,1.3-2.1,0.6C426.6,69.7,427.2,68.5,428,67.1z M526.6,194c-0.6-1.4-1-2.3-1.4-3.4
	c0.9-1.3,3.1-0.2,5.4-0.4c-0.5,0.6-0.7,1.1-1.2,1.3C527.2,191.9,527.2,191.8,526.6,194z M554.8,264.4c-1.9-1-3.5-1.7-4.8-2.3
	c-0.7-1.2-1.6-2.3-2.4-3.5c0.1-0.2,0.2-0.2,0.3-0.4C550.1,260.2,552.1,262.1,554.8,264.4z M448.2,92.5c0.1-0.5,0.2-1,0.4-1.8
	c0.6,1,1.1,1.6,1.4,2.3c-0.5,0.5-1.2,0.8-1.1,1.4c0,0.5,1.1,1.2-0.4,1.3c-0.6-1.6-1.3-3.2-1.9-4.7c0.1-0.1,0.3,0,0.4-0.1
	C447.3,91.4,447.6,91.9,448.2,92.5z M453.4,165.5c-0.7-0.3-1.9-1.7-1.9-0.1c-0.5-0.5-1.1-1-1.8-1.7c0.5-0.8,1.1-1.3,1.6-1.9
	C453.5,163.5,453.8,163.9,453.4,165.5z M449.9,108.2c-0.6-0.1-1.3-0.1-1.9-0.1c-0.1-0.2-0.3-0.6-0.5-0.8c1.3,0.1,1.4-1.9,3.3-0.6
	c0.6,0.4,1,1.4,1.7,2.5C451.3,108.8,450.7,108.3,449.9,108.2z M474.1,205c-1.1-0.7-2.2-2-3.3-3c0.1-0.2,0.2-0.2,0.3-0.4
	c1.6,1.1,3.2,2.2,4.7,3.3c0.5,0.3,1.2,0.6,1.8,0.8C476.6,206.7,475,205.6,474.1,205z M495,228.5c-0.2,0.7-0.4,1.4-0.9,2.5
	c-0.8-0.9-1.5-1.6-2.2-2.3C492.9,228.3,493.3,227.1,495,228.5z M473.8,207.8c-0.7,0.2-1.5,0.1-2,0.2c-0.3-0.7-0.5-1.3-0.9-2
	c-0.2-0.5-0.5-1.1-0.9-2.1C472,205.1,472.7,206.4,473.8,207.8z M499.9,228.7c-1.9-1.6-3.2-2.6-4.8-3.9
	C498,225,498.4,225.3,499.9,228.7z M530.6,183c0.3-0.3,0.6-0.5,1-0.7c1.3,1.5,1.3,2.8,0,2.6c-0.8,0.1-1.5-0.8-1.4-1.6
	C530.4,183.4,530.6,183.1,530.6,183z M476.5,133.3c-1.9-3.5-1.9-3.6,0.6-3C476.7,131.2,476.6,132,476.5,133.3z M455.7,111.5
	c0.1-1.2,0.3-2.1,0.4-3.2C457.8,111.2,457.8,111.2,455.7,111.5z M461.8,118.5c1.5,0.9,2.6,1.4,4.1,2.3c-1.3,0.1-2.2,0.2-3.2,0.2
	C462.3,120.3,462.1,119.7,461.8,118.5z M423.9,71c-0.7,0.3-1.4,0.3-2.6,0.6c-0.1-1.8,0.1-2.5,1.5-2.1C423,69.6,423.4,70.3,423.9,71z
	 M597,276.9c1.2,0.3,2.2,0.4,3.5,0.7c0,0.6-0.1,1-0.1,1.9C599.2,278.3,597.8,278.6,597,276.9z M460.9,124.2c0.4,0.9,0.8,1.8,1.4,2.9
	C460.4,126.2,460.4,126.2,460.9,124.2z M448.3,168.2c-0.7-1.2-1.5-2.3-2.3-3.6C447.4,165.1,448.1,165.9,448.3,168.2z M525,248.8
	c0.1,0.3,0.2,0.5,0.3,0.9c-0.7,0.8-1.6,0.6-3.7-0.8C523.3,248.9,524.1,249,525,248.8z M478.5,142.2c0.4-0.9,0.9-1.6,1.3-2.5
	C480.8,141.9,480.5,142.6,478.5,142.2z M591.1,277.1c1.3,0.1,2.6,0.1,4.4,0.3C594.2,278.4,592.9,278.4,591.1,277.1z M463.4,124.4
	c1.6,1.8,1.6,1.8,0.4,3C463.7,126.6,463.6,125.7,463.4,124.4z M443,91.6c0.4-0.9,0.7-1.3,1-2C445.7,92,445.7,92,443,91.6z
	 M453.3,119.8c0.1,0,0.1,0,0.2,0.1C453.4,119.9,453.4,119.9,453.3,119.8L453.3,119.8c-0.8,0.5-0.8,0.5-2.3-0.5
	c0.2-0.5,0.5-1,0.7-1.4c0.1,0.1,0.4,0.2,0.4,0.3C452.7,118.8,452.9,119.2,453.3,119.8z M466.3,207.1c-0.2-0.1-0.4-0.2-0.6-0.3
	c0.1-0.6,0.1-1.3,0.2-2C467.9,206.1,466.8,206.5,466.3,207.1z M468.2,205.5c1.4,1.2,2.1,1.8,3,2.4c-0.6,0.2-1.3,0.2-2.1,0.3
	C468.8,207.4,468.6,206.8,468.2,205.5z M435.9,131.6c0.5,0.7,1.1,1.5,1.8,2.4C435.6,133.4,435.6,133.4,435.9,131.6z M447.6,110
	c0.9,0.7,1.6,1.5,2.5,2.3C448,112.2,448,112.2,447.6,110z M420.2,42.8c1.2,0.3,2,0.4,2.8,0.6c0.1,0.2,0.1,0.4,0.2,0.7
	C422.4,44.5,421.6,44.7,420.2,42.8z M576,273.8c0.1,0.2,0.2,0.4,0.5,0.8c-0.6,0.7-1.8,0.1-2.6,0.1c-0.1-0.2-0.2-0.4-0.3-0.6
	C574.3,274,575.1,273.9,576,273.8z M482.7,214.2c-0.9-0.7-1.9-1.7-2.7-2.4c0.3-0.1,0.3-0.4,0.5-0.5c0.9,0.8,1.8,1.7,2.7,2.5
	C483,214,482.8,214.1,482.7,214.2z M520.8,184.6c-0.8,0.2-1.5,0.5-2.9,0.9C518.4,184,519.7,184.4,520.8,184.6z M438.5,69.4
	c-0.6-0.1-1.2-0.4-1.9-0.5c0,0-0.2-0.5-0.1-0.5c0.6-0.1,1.1-0.1,1.6-0.1C438.4,68.7,438.3,69,438.5,69.4z M471.3,208
	c0.1,0,0.3,0.1,0.4,0.1c0.8,1.1,1.7,2.2-0.2,2.4C470.9,209.5,471.2,208.7,471.3,208z M469.3,113c0.3-0.3,0.8-0.5,1.1-0.8
	c0.2,0.3,0.5,0.5,0.8,0.8c-0.4,0.3-0.7,0.4-1.2,0.7C470,113.7,469.7,113.3,469.3,113z M436.9,80.9c0.7,1.2,1.1,1.7,1.7,2.7
	C436.6,83,436.6,82.3,436.9,80.9z M413.7,88.4c0.1-0.2,0.2-0.3,0.3-0.5c0.5,0.3,1.1,0.7,1.8,1.1c-0.1,0.3-0.3,0.5-0.4,0.6
	C414.7,89.2,414.3,88.9,413.7,88.4z M417.7,76.3c0,0.7,0.1,1.3,0.1,1.8c-0.2-0.1-0.4-0.1-0.8-0.2c0-0.7,0-1.2,0-1.9
	C417.3,76.2,417.6,76.3,417.7,76.3z M446.8,159.8c-0.8-1.1-1.2-1.7-1.6-2.3C446.9,157.7,447,158.3,446.8,159.8z M470.3,115.8
	c-0.9-0.1-1.9,0-3.2-0.1C467.7,114.2,469.2,115.5,470.3,115.8z M536.4,193.7c0.5-0.7,0.6-1.1,1-1.6
	C538.3,193.4,538.3,193.4,536.4,193.7z M430.1,81.2c0.5,0.3,1.2,0.5,1.8,0.8c0,0.2,0,0.4,0,0.6c-0.3-0.1-0.7-0.1-1-0.4
	c-0.3-0.2-0.5-0.4-0.7-0.6C430,81.5,429.9,81.4,430.1,81.2z M431.6,94.9c0.1-0.1,0.2-0.2,0.3-0.3c0.6,0.6,1.2,1.1,1.8,1.8
	c-0.3,0.1-0.3,0.2-0.5,0.3C432.6,96,432.1,95.5,431.6,94.9z M415.6,51.6c0.7,0.2,1.3,0.5,1.9,0.7C416.6,53.3,416.6,53.3,415.6,51.6z
	 M418.5,61.1c-0.2-0.1-0.5-0.3-0.7-0.3c0.2-0.4,0.2-1,0.2-1.5c0.3,0.1,0.5,0.3,0.8,0.3C418.7,60.2,418.6,60.7,418.5,61.1z
	 M538.5,263.1c-1-0.2-1.7-0.2-2.8-0.4C536.4,261.7,537.2,261.7,538.5,263.1z M440.2,105.2c0.3,0.1,0.5,0.1,0.9,0.2
	c0.1,0.6,0.2,1.2,0.3,1.8c-0.2-0.1-0.4,0-0.6-0.1C440.5,106.4,440.4,105.8,440.2,105.2z M488.2,226.2c0.9,0.4,1.7,1,2.6,1.4
	c0,0.2-0.1,0.3-0.2,0.4c-0.8-0.3-1.8-0.8-2.6-1.1C488.1,226.5,488.1,226.4,488.2,226.2z M508.1,235c1,0.5,1.9,1.1,2.9,1.6
	c-0.1,0.2-0.1,0.3-0.2,0.5c-1-0.6-2-1.3-3-1.8C507.9,235.2,508,235.1,508.1,235z M528.8,179.1c0.5,0.5,1.2,1.1,2.1,2.2
	C528.6,180.8,528.6,180,528.8,179.1z M550,262.2c0.2,0.5,0.4,1.2,0.7,1.7c-1.3,0.1-1.6-0.9-1.7-1.6
	C548.9,262.2,549.7,262.3,550,262.2z M544.5,189.8c-0.1-0.1,0.3-0.7,0.5-0.6c0.4,0.1,0.8,0.5,1.4,1.1c-0.4,0.3-0.8,0.6-0.9,0.6
	C545,190.6,544.7,190.2,544.5,189.8z M425.5,109c0.1,0,0.4,0.4,0.9,0.7c-0.4,0.2-0.7,0.4-0.9,0.2c-0.2-0.1-0.4-0.4-0.6-0.7
	C425,109.3,425.2,109.1,425.5,109z M425.3,46.7c-0.1-0.2-0.4-0.5-0.4-0.7c0.6-0.1,1-0.3,1.5-0.4c0.1,0.2,0.3,0.4,0.4,0.6
	C426.3,46.4,425.7,46.4,425.3,46.7z M426.2,89c0.5,0.1,1.1,0.2,1.6,0.3c0,0.3,0.1,0.5,0.1,0.8c-0.6-0.2-1.1-0.3-1.7-0.5
	C426.4,89.4,426.3,89.2,426.2,89z M425.8,107.2c-0.7,0.4-1.3,0.9-2.6-0.7C424.4,106.7,425,106.8,425.8,107.2z M536.9,255.5
	c0.6,0.1,1.2,0.4,1.8,0.5c0,0.2,0,0.4,0,0.7c-0.7-0.2-1.2-0.5-1.8-0.6C536.8,256,536.9,255.5,536.9,255.5z M439.5,152.4
	c0.3,0.6,0.7,1.2,1,1.8c-0.1,0.1-0.3,0.1-0.4,0.2c-0.4-0.6-0.8-1.2-1.3-1.7C439,152.5,439.3,152.4,439.5,152.4z M425.5,81.9
	c0.2,0.4,0.5,0.7,0.5,0.9c0,0.2-0.3,0.3-0.5,0.3c-0.2-0.3-0.5-0.5-0.4-0.7C425,82.2,425.2,82.1,425.5,81.9z M430,120.8
	c0.4,0.2,0.5,0.4,0.9,0.7c-0.1,0.1-0.2,0.3-0.3,0.3c-0.3-0.1-0.6-0.3-1.3-0.7C429.8,121,430,120.7,430,120.8z M453.6,119.9
	c0.9,0.1,1.7,0,2.5,0.1C455.6,121,454.5,120.3,453.6,119.9z M458.4,198.7c0.5,0.3,1.1,0.7,1.6,1c-0.1,0.2-0.1,0.3-0.2,0.4
	c-0.5-0.3-1.1-0.7-1.7-1.1C458.4,198.9,458.5,198.8,458.4,198.7z M427.9,44.4c-0.3-0.2-0.4-0.2-0.5-0.3c0.2-0.4,0.4-0.8,0.7-1.2
	c0.3,0.2,0.4,0.2,0.5,0.3C428.3,43.5,428.1,44,427.9,44.4z M455,104c-0.2-0.3-0.5-0.5-0.7-0.8c0-0.1,0.1-0.3,0.5-0.7
	C454.9,103.3,454.9,103.6,455,104z M456.1,119.9c0-0.6,0.1-1.1,0.1-1.8C457.9,119.7,456.9,119.8,456.1,119.9z M434.4,27.2
	c0.1-0.2,0.4-0.2,0.7-0.3c0.2,0.3,0.5,0.5,0.5,0.7c-0.3,0.1-0.5,0.2-1,0.1C434.8,27.9,434.5,27.4,434.4,27.2z M486.1,215.1
	c-0.2-0.1-0.5-0.4-0.5-0.6c0-0.1,0.2-0.2,0.5-0.5c0.4,0.5,0.5,0.7,0.6,1C486.5,215.1,486.2,215.2,486.1,215.1z M441.3,99.8
	c-0.4-0.2-0.5-0.5-1.1-1c0.5,0,0.8-0.1,0.9,0.1c0.3,0.2,0.4,0.4,0.6,0.7C441.7,99.6,441.4,99.8,441.3,99.8z M435.8,103.9
	c0.1-0.1,0.3-0.1,0.4-0.1c0.2,0.4,0.5,0.9,0.8,1.3c-0.1,0.1-0.2,0-0.3,0.1C436.3,104.8,436,104.3,435.8,103.9z M436.6,73.2
	c0.1,0,0.3,0.2,0.4,0.2c-0.2,0.4-0.2,0.8-0.3,1.2c-0.3-0.2-0.4-0.3-0.7-0.5C436.2,73.8,436.3,73.5,436.6,73.2z M428.2,87.6
	c-0.6-0.2-1-0.4-1.5-0.5c0-0.2,0-0.3,0-0.5c0.6,0.2,1,0.4,1.5,0.5C428.2,87.3,428.2,87.6,428.2,87.6z M437.6,37.6
	c-0.1,0-0.4-0.4-0.4-0.5c0.2-0.2,0.4-0.3,0.8-0.5c0.4,0.5,0.4,0.7,0.5,0.9C438.2,37.6,437.9,37.6,437.6,37.6z M543.1,188.7
	c-0.1-0.2-0.3-0.4-0.4-0.6c0.4-0.2,0.8-0.2,1.3-0.4c0.1,0.1,0.2,0.3,0.4,0.5C543.9,188.3,543.5,188.5,543.1,188.7z M470.4,109.5
	c0-0.1,0.3-0.2,0.4-0.2c0.3,0.2,0.4,0.4,0.8,0.7c-0.4,0.1-0.6,0.2-0.9-0.1C470.5,110.1,470.5,109.7,470.4,109.5z M458.1,117.6
	c0.1,0,0.4,0,0.4,0c0.1,0.4,0.4,0.8,0.4,1.2c-0.2-0.1-0.3,0-0.5-0.1C458.3,118.4,458.3,118,458.1,117.6z M459.1,38.4
	c-0.1-0.1-0.2-0.3-0.3-0.6c0.3-0.1,0.4-0.2,0.6-0.3c0.1,0.1,0.4,0.5,0.4,0.5C459.5,38.1,459.3,38.2,459.1,38.4z M567.8,271.8
	c0.1,0.1,0.1,0.3,0.2,0.5c-0.4,0-0.9-0.1-1.3-0.1c-0.1-0.1-0.1-0.3-0.2-0.4C567,271.7,567.4,271.8,567.8,271.8z M448.9,87.2
	c-0.1,0.2-0.3,0.3-0.5,0.4c-0.1-0.1-0.3-0.4-0.4-0.5c0-0.1,0.2-0.2,0.3-0.3C448.6,87,448.7,87.1,448.9,87.2z M524.5,181.5
	c-0.1-0.2-0.2-0.5-0.2-0.7c0-0.1,0.3,0,0.6,0c0,0.3,0.1,0.5,0.1,0.8C525,181.6,524.7,181.6,524.5,181.5z M451.7,113.1
	c0.2-0.3,0.3-0.6,0.5-0.8c0.1,0.2,0.2,0.5,0.2,0.8C452.3,113.1,452.1,113,451.7,113.1z M453,79.3c0.2,0.3,0.4,0.6,0.5,0.8
	c0,0.1-0.3,0.2-0.5,0.2c-0.1-0.2-0.2-0.5-0.4-0.8C452.5,79.4,452.7,79.4,453,79.3z M458.2,122.1c-0.3,0.1-0.6,0.2-1,0.1
	c-0.1,0-0.4-0.5-0.5-0.9c0.4-0.1,0.7-0.2,1.2,0.1C457.9,121.5,458.2,122,458.2,122.1z M543.9,258.1c0,0.2,0.1,0.5,0.1,0.7
	c-0.4,0-0.9-0.2-1.3-0.3c0-0.1-0.1-0.3-0.1-0.4C543.1,258,543.6,258.1,543.9,258.1z M577.3,206.4c0-0.5-0.2-1.3,0.1-1.5
	c1.4-0.5,2.9-0.8,4.3-1.3c0.2,0.3,0.5,0.5,0.6,0.8c-1,0.8-2,1.8-3.2,2.5C579.1,207.3,578.1,206.6,577.3,206.4z"/>
<path class="st3" d="M487.6,183c-1-0.7-1.8-1.3-2.7-1.8c-0.8-0.5-1.6-2-2.4-0.9c1,0.9,2,1.6,2.6,2.4s0.5,1.9,0.8,3.1
	c2.2,0.2,3.3,1.3,4.7,3c1.3,1.7,2.7,4.1,5.4,4.6c0.5,0.1,1.1,0.7,1.7,1.2c-0.3,0.1-0.4,0.3-0.7,0.4c-0.9-0.2-1.6-0.4-3-0.8
	c2.4,3.4,5.7,5.6,7.2,9.3c-1-0.7-1.6-1.1-2.2-1.7c-1-1-1.8-2.2-2.9-3c-4.4-3.2-8.8-6.6-12-11.1c-0.2-0.3-0.4-0.7-0.7-0.8
	c-2.6-1.1-4-3.5-5.6-5.3c-2.7-3.2-6.1-6.1-7.5-9.3c-1.6-1.2-3.3-2-3.9-3c-1.7-2.6-3-5.4-4.5-8.2c2.1-0.1,4.4,2.1,6,0.9
	c-0.9-1.2-1.8-2.5-2.8-3.9c-0.3-0.4-1-1-1.2-1c-1.8,0-2.1-1.1-2.6-2.4c-0.3-0.9-1.3-1.7-1.9-2.7c-0.5,0.5-0.8,0.8-1.1,1
	c0.6,1.1,1,2.1,1.5,3.1c-0.2,0-0.3,0.2-0.5,0.2c1.4,0.9,2.8,1.7,4.2,2.5c-0.9,0.3-1.5,0.7-2.4,0.9c-0.6,0.1-1.3,0.2-1.7-0.1
	c-1.5-1.2-3.6-2.6-4-3.8c-0.8-1.7-1.9-3.1-3-4.7c-0.1-0.2-0.2-0.4-0.6-0.8c-0.1,0.7-0.2,1.2-0.3,1.4c-1.7-0.2-3.2-0.5-4.8-0.7
	c-0.1-0.8-0.2-1.7-0.3-2.5c-0.6-0.3-1.3-0.8-2.1-1.1c-0.2-1.3-0.2-2.1,1.1-2.3c0.6-0.1,0.8-0.6,1.1-1.1l-5.6-2c0-1.5,2-2.5-0.6-4.4
	c-0.5,0-1.1,0.1-1.7,0.1c-0.3-1.3-1.1-2.5,1-2.1c1.5,0.4,1.7-0.5,1-1.8c-1.3-0.5-2.6-0.7-3.7-1.3c-1.1-0.6-2.1-1.4-3.1-2.1
	c-1-0.7-2.6-0.6-3-2.5c1.8,0.9,3.6,1.7,4.3-0.4c-2-0.3-3.9-0.9-5.4-0.8c-0.7,0.1-0.6,1.4-1,2.5c-0.6-0.1-1.6-0.5-2.2-0.5
	c-0.1-0.4-0.2-0.7-0.2-0.8c1.2-1.5-0.5-3.7-0.9-5.5c0-0.2-0.5-0.6-0.6-0.7c-1.5,0-1.7-1.1-1.7-1.8c-0.2-1-0.3-2-0.5-2.9
	c-1.2-0.4-2.3-0.6-3.6-1.1c-0.1,0-0.2-0.4-0.4-0.9c0.7,0,1.6,0.2,2.1,0.2c0.1-2-0.1-2.6-1.4-2.9c-1.5-0.4-2.9-0.4-4.8-0.7
	c1.2,1.1,2,1.9,2.8,2.6c0,0.1-0.1,0.3-0.1,0.3c-1.2-0.5-2.4-1-4-1.7c0.2-2.3-2.8-5.4-0.6-7.3c0.2-0.2-0.3-1.2-0.6-2.2
	c-1.8,0.6-3.4,1.1-5.4,1.6c1.3,0.9,2.3,1.4,3.2,2.1c0.7,1.8,1.6,3.8,2.6,6.3c-1.2-0.9-1.8-1.3-2.8-2c-0.1,1.2-0.3,2.1-0.3,3.3
	c-0.5-0.5-0.9-0.8-1.3-1.3c-0.4,1,0.2,2.1,1.3,2.6c1.5,0.9,1.4,1.8,1.5,2.8c0.6,0.2,1.2,0.5,1.7,0.8c1.4,1.1,1.6,2.6,0.6,3.1
	c-1.8,0.7-1.8,1.3-0.4,2.9c0.7,0.9,1.5,1.8,2.3,2.7c-0.5,1.9-0.1,4.1,1.5,5.9c2.3,2.5,2.9,4.8,3.3,7.1c0.2,1.4,0.5,3,1.4,4.3
	c1.4,1.9,1.7,3.3,0.1,4.3c2.5,1.2,4.5,3.5,4.6,5.6c0.1,1.4,0.6,2.4,1.6,3.6c2.3,3.1,4.3,6.2,6.2,9.3c0.9,1.5,0.8,1.7-1.1,1.4
	c-0.3,0.8-1.2,0.2-1.9-0.1c-0.1,1.7,0.2,3.3,1.9,5.2c-1.1-0.7-2-1.3-3.2-1.9c-0.5,0.7-0.9,1.3-1.4,2c-0.5-0.5-0.8-0.8-1.2-1.1
	c-0.3-0.3-0.5-0.4-1-0.7c-0.7,1.5,1.2,2.3,1.9,3.3c1.9,2.9,4.2,5.9,7.2,8.6c1.3,1.2,2,2.7,3.1,4.1c0.4,0.5,0.7,0.9,1.1,1.3
	c1,1,2,2.2,3,3.3c1.2,1.3,2.3,2.6,3.1,3.4c0.4,1.5,0.5,2.6,1.1,3.5c1.1,1.5,2.5,1.1,3.6,0.9c0.8,0.7,1.4,1.3,1.9,1.8
	c0.2,0.3,0.3,0.6,0.6,0.8c-0.6,0.1-1,0.2-1.5,0.2c0.3,1.4,1,1.4,2.2,1.7c2.1,0.4,3.2,1.6,3.8,3.8c0.4,0.2,0.7,0.3,1.2,0.6
	c-0.5,1-0.7,1.9-1.3,3.1c1.9,0,4.1,2.4,4.7-0.3c2.4,2.5,4.5,4.7,6.6,6.7c1,1,1.9,2.1,2.9,3c2.7,2.3,5.4,4.5,8,6.8
	c1,0.8,1.8,2.3,2.7,2.6c2.7,0.8,4.9,2.8,7.2,4.1c0.1,0,0.2,0.3,0.3,0.6c-0.3,0.3-0.7,0.6-0.9,0.9c1.5,2.7,4,1.5,5.9,3.2
	c-0.1,0.7-0.1,1.5-0.2,2.3l8.3,2.9c0,0,0,0,0-0.1c0,0,0,0,0.1,0c0.4-0.8,1.1-0.6,2.3,0.2c-0.8,0.5-1.4,0.7-2.3-0.2l0,0l0,0
	c0,0.4,0.1,0.7,0.1,1c1.3,0.8,3.2,1.4,3.5,2.2c0.8,1.6,2.5,2.1,3.4,3.3c0.3,0.4,1.2,0.9,1.6,0.9c0.3,0,0.5-0.7,0.6-0.9
	c1.7,0.6,3.1,1.1,4.7,1.6c1.4,0.5,2.8,0.7,4.1,1.3c1.4,0.5,1.9,1.3,1.5,2.2c-0.2,0.4-0.6,0.7-0.7,1c2.1,1.3,2.1,1.3,4.3,1
	c2.9-0.5,5.7,1.5,6.6,4.5c0.2,0.6,1.2,1.4,1.9,2.3c1.1-1.6,3.2-1.9,4.8-0.8c4.2,2.6,8.5,3.8,12.9,5.2c0.8,0.2,1.5,0.3,2.1,0.6
	c3.2,1.9,6.6,3.7,9.9,3.1c0.1,0.8,0.1,1.3,0.3,1.7c0.1,0.4,0.4,0.9,0.6,1.2c2,0.1,0.1-1.6,0.4-2.3c2,1.2,3.7,3.4,5.8,3
	c0.2-0.5,0.4-1,0.6-1.6c1.3,2,3.3,2.3,4.2,2.2c2.1-0.6,4-0.7,6.5,1.3c1.1,0.8,2.4,1.2,3.7,1.8c1.2,0.5,2.4,1,3.7,1.6
	c-0.1,1.1-0.3,1.9-0.4,3.1c1.2,0.5,2.5,1.4,3.4,1.5c3.3,0.2,6.4,0.1,9.6,0.1c3.2,0,6.4,0.1,9.7,0c3.4-0.2,6.9-0.4,10.3-0.8
	c4.9-0.7,9.7-1.4,13.6-3.7c2.4-1.4,4.2-3.7,7.6-3.8c0.9,0.1,1.3-0.9,2.2-1.2c2.2-0.9,3.1-3.8,7.1-2.2c0.1,0,0.4-0.1,0.4-0.2
	c1.3-1.6,3.6-1.7,5.7-2.1c3.1-0.6,3.5-3.1,4.7-5.2c0.2-0.4-0.4-1.5-0.9-2.2c-0.3-0.6-1-1.1-1.5-1.9c0.7-0.9,1.3-1.9,1.9-2.9
	c-1.8-0.8-3.2-1.5-4.7-2.2c-0.5-0.3-1.3-1-1.4-1.4c-0.1-0.4,0.4-0.9,0.9-0.9c2.8-0.1,4.5-1.5,5.8-3.6c-2.5-1.7-3.4-3.9-4.2-6.2
	c-1.7-0.5-3.2-0.9-4.7-1.3c0-0.2-0.1-0.4-0.1-0.6c2.4,0.1,4.8,0.3,7.6,0.5c-1.3-1.1-2-1.8-3.1-2.7c2.1-1.1,4.7-1.8,3.4-5.3
	c-3.6-1.1-7.2-2.1-10.9-3.2c-0.1,0-0.2,0-0.3,0c-1.4-0.3-3-0.5-4.3-0.8c-4.3-1.2-8.7-2.5-12.9-4c-2.7-1-5.5-2.5-8-4.3
	c-2.2-1.5-4.4-3-6.9-4c-0.6-0.2-1-0.4-1.5-0.7c-0.1,0.1-0.1,0.2-0.3,0.1c-9.7-0.9-19.9-3.2-30.1-6c0,0.1,0,0.1,0,0.2
	c-0.5,0-1.1,0.1-1.6,0.1c-4.1-0.5-8-1-12.2-1.4c-1.4-0.1-2.8-0.3-4.2-0.2c-1.8,0-3.3,0.8-5.6-1.1c-0.4-0.2-0.9-0.2-1.2-0.3
	c-3.2-0.4-6.4-0.7-9.7-1.1c-1.3-1.7-2.4-3.5-3.5-5c-1.7-0.4-3.4-1.4-5-2.4c-1.4-1-2.8-1.7-4.1-2.4c0.4,0.4,0.8,0.9,1.3,1.4
	c-1.8,0.9-2.3,0.6-3.3-1.5c-0.9-0.1-1.8-0.1-3.3-0.2c0.3-0.8,0.7-1.2,1-1.6c-2.3-0.9-4.4-1.7-6.3-3c-1.1,1.2-3.5,0.3-4.8,1.2
	c-0.6,0.4-1.4,0.3-2.2,0.6c2.5,1.5,0.1,2.5,1.9,4.2c-1.3-0.6-1.8-0.8-2.6-1.1c-0.4,0.9,0.2,2.9-2.4,1.5c0-0.2-0.1-0.5-0.1-0.7
	c-0.1-0.3-0.2-0.6-0.4-1.3c-1.2,2.8-0.3,3.9,4.8,6.1c-2.2,0.9-4-1-6-2.3c1.2,2.8,3.9,4,5.8,5.9c-1.6-0.3-2.9-1.1-4.2-2.3
	c-1.2-1-2.6-2.4-3.9-2.9c-1.9-0.7-2.9-1.6-3.5-3.3c-0.3-0.9-0.4-2.1-2.1-2.4c0,1.3-0.6,2-2.4,1.4c-2.6-3.1-7.3-4.7-8.5-8.7
	c-1.3-0.7-2.8-0.8-3.6-1.7C492,189,488.8,186.3,487.6,183z M417.1,117c0.2,0,0.4-0.2,0.8-0.1c0.3,0.1,0.5,0.3,1.2,0.9
	c-0.9-0.1-1.2-0.1-1.4-0.2C417.3,117.4,417.2,117.2,417.1,117z M417.5,120.4c0.9-1,1.6-0.8,2.8,0.7
	C419.2,120.8,418.5,120.7,417.5,120.4z M437.2,133.9c0.3,0.4,0.6,0.7,0.7,0.8c-0.1,0.3-0.3,0.5-0.6,0.7c-0.3-0.3-0.5-0.5-0.9-0.7
	C436.6,134.3,436.8,134.1,437.2,133.9z M435.4,179.6c-0.2-0.3-0.6-0.7-0.8-1c0-0.2,0.3-0.4,0.7-0.7c0.3,0.6,0.6,0.9,0.6,1.1
	C435.8,179.2,435.6,179.3,435.4,179.6z M434.6,172.1c2,0.2,2.2,1.4,2.7,2.1c-0.1,0.2-0.3,0.2-0.4,0.3
	C436.4,174,435.7,173.3,434.6,172.1z M437.1,177.7c-0.4-0.3-0.9-0.7-1.3-1.1c0.1-0.2,0.3-0.3,0.5-0.4c0.4,0.4,0.9,0.8,1.2,1.2
	C437.3,177.5,437.3,177.7,437.1,177.7z M435.7,139.9L435.7,139.9c-0.1-0.1-0.1-0.1-0.1-0.1c-0.9-0.1-1.8-0.1-2.7-0.1
	c-2.6-3.6-2.6-5.6,0.1-7.2c1.5,2.1,0.6,3.2-0.6,4.2c1.1,1,2.1,2.1,3.2,3l0.1,0C435.8,139.8,435.7,139.9,435.7,139.9
	c0.5,0.5,1.1,1.1,2.2,2.3C436,141.5,436,140.6,435.7,139.9z M441.9,151.8c-0.3-0.6-0.6-0.8-0.7-1.2c0.2,0,0.5-0.2,0.6-0.2
	c0.3,0.2,0.4,0.4,0.5,0.7C442.4,151.4,442.1,151.5,441.9,151.8z M458.9,206c-0.9-0.1-1.6,0-2.4-0.4c-1.4-0.7-3.4-3.3-4.2-4.9
	c2.2,1.6,4.4,3.2,6.5,4.8L458.9,206z M458.8,164.1c-3-1.8-3.3-4.2-4.3-6.8c3.7,1.2,1.9,4.6,5.5,5.2
	C459.5,163.5,459.2,163.8,458.8,164.1z M471.2,177c-0.9-0.7-2.3-0.6-2.7-2.3c-0.2-1.1-2.8-1.8-1.7-3.6c1.8,2.2,3.3,3.9,4.8,5.7
	C471.5,176.8,471.3,176.9,471.2,177z M475.4,181.3c-0.4-0.2-0.9-0.4-1.2-0.8c-0.3-0.3-0.4-0.7-0.5-1c0.2,0,0.3-0.1,0.6-0.1
	c0.5,0.5,1,1.1,1.5,1.8C475.7,181.2,475.6,181.2,475.4,181.3z M634.1,233.6c1.1,0.5,2.1,0.9,3.2,1.5c0,0.2,0,0.3,0,0.5l-3.2-1.2
	C634,234.2,634,233.9,634.1,233.6z M501.8,199.1c0.4,0.5,0.5,0.9,0.9,1.4c-0.2,0-0.4,0.2-0.6,0.1c-0.3-0.4-0.6-0.9-1.1-1.3
	C501.4,199.3,501.6,199.1,501.8,199.1z M411.2,50.5c1.5,1.1,3.5,1.4,4.6,3.2c0.1,0.1,1.4,0,2.2,0c-0.4-0.6-0.7-0.9-1-0.9
	c-1-0.1-1.4-0.7-1.4-1.5c0-0.9,0.7-0.8,1.6-0.3c0.7,0.4,1.5,1.1,2.3,1.7c-1,2.4-2.1,4.5-3.6,6c-0.3-0.1-0.5-0.3-0.8-0.3
	c-0.2-1.1-0.5-2.2-0.8-3.4c-0.9,1.4-1.8,2.7-2.6,4.3c0.9,0.2,1.3,0.2,1.8,0.4c0.4,0.1,1,0.4,1,0.4c0,1.4,0.1,2.5,0,3.6
	c-0.1,1.1-0.3,2-0.6,3.3c1.3,0,2.2-0.1,3.1-0.1c-0.3-0.6-0.6-1.1-0.8-1.8c3.1,0.7,1.5-2.8,3.8-2.9c-1.1-0.7-1.6-1.1-2.2-1.5
	c0.3-0.9,0.5-1.6,0.7-2.5c0.8-2.1,1.8-2,4.8,0.5c-0.6,1.5-1.4,3.1-1.7,4.7c-0.4,1.7-0.4,3.8-0.7,5.7c-2.5,0.2-2.6,0.6-1.4,2.8
	c0.5,0.8,0.9,1.7,1,2.5c0.2,1.3-0.1,2.3,0.1,3.6c0.5,3.2,0.4,6-0.8,8.5c1.1,0.7,2.3,1.4,3.7,2.3c-0.1-2.7,2.2-4.3,1.3-7.5
	c-2.7-1.8-2.9-2-3-3.8c-0.2-2.1-0.3-4.1,2.9-3.8c-2.5-3.6-1.5-5.8-0.6-8.1c0.5-1.4,1.4-2.8,1.2-4.3c-0.4-2.6,1.4-3.4,2.4-4.9
	c0.1-0.3,1,0,1.6-0.1c0.1,3.1-0.9,5.3-1.9,7.5c-0.4,0.8-1,2-0.7,2.6c0.9,1.3,0.4,1.8-0.2,2.3c-0.6,0.6-1.1,1.1-0.7,2.4
	c2.3-0.1,3-1.6,3-3c0.1-2.6,1.4-4.1,3.5-5.2c0.1-0.1,0-0.4,0-0.6c-3.1-1.7-3.7-3.2-1.8-4.8c0.1-0.2,0.3-0.2,0.4-0.3
	c1-0.1,1.1-0.6,0.9-1.7c-0.2-1,0.1-1.9,0.4-2.8c1.1-3.3,2-6.6,3.3-9.8c1.9-5.3,6.2-8.6,10-12.2c0.2-0.2,1,0,1.4,0
	c-0.7,1.2-1.7,2-2.6,2.9c-0.9,0.9-1.1,2.2-0.5,4.1c0.5-0.9,1-1.4,1.4-2c1.1-1.2,1.9-2.5,2.9-3.7c2.3-2.4,4.1-5.4,6.6-7.6
	c4.5-3.8,9.5-7.2,14.5-10.5c6.3-4.3,12.7-8.6,20.3-11.5c1.1-0.4,1.4-1.4,1.2-2.9c-0.9,0-1.5,0.1-1.9,0.3c-8.8,1.4-15.9,5.4-23.7,8.4
	c-2,0.8-3.9,2-5.8,3c-2,1.1-4,2.1-6.1,3.1c-1.9,1-3.7,1.7-5.5,2.6c-2.1,1.1-4.4,2.1-6.6,3.2c-1.8,1-3.8,1.7-4.9,3.2
	c-1.3,1.8-3.6,2.4-5.2,3.9c-0.5,0.5-1.8,0.4-2.7,0.3c-2.6-0.2-4.1,0.8-5.6,2.3c2.1,0.2,3.6,0.3,5.7,0.6c0,0.9,0.2,1.8,0,2.2
	c-1.5,1.8-3.4,2.9-7.1,1.4c-0.2,2.7-1.8,3.8-4.8,3.4c0,0.2,0.1,0.4,0.1,0.6c1.5,0.7,2.9,1.4,4.8,2.4c-0.8,1.2-1.6,2.2-2.2,3.2
	c-0.4,0.8-1,1.2-2.3,0.6c-1.6-0.7-2.3,0-3.3,1.1c1.6,0.1,2.7-0.6,4.1,1.2c-1.6-0.4-2.2,0.2-2.6,1.3c-0.2,0.9-1.4,1.4-2.3,1.6
	c-0.4,0.2-1.7-0.8-2.4-1.1C409.5,49.3,410.4,50,411.2,50.5z M429.4,53c0.2,0.3,0.4,0.4,0.5,0.6c0,0.1-0.2,0.3-0.3,0.3
	c-0.2-0.1-0.4-0.2-0.9-0.5C429.1,53.1,429.2,53,429.4,53z M421,50.6c1.7-1.1,1.6-4,4.4-4c-0.9,2.4-0.9,5.3-4.4,5.8
	C421.1,51.7,420.8,50.8,421,50.6z M421.4,54.1c0.1,0.2,0.3,0.6,0.5,0.8c-0.6,0.1-0.9,0.2-1.5,0.2c0,0-0.4-0.5-0.4-0.7
	C420.5,54.3,420.9,54.2,421.4,54.1z M417.8,48.5c0.3,0,0.7,0.1,1.3,0.4c-0.2,1.2-0.9,1.2-2.5,0.2C417.2,48.6,417.4,48.4,417.8,48.5z
	 M446.8,138.5c1.6-1.5,1.3-3.4-1.6-8c1.3,0.8,2.5,1.2,2.6-0.1c0.5,0.3,1.1,0.7,2.1,1.2c-2.1,1.1-0.9,3.2-0.3,5.2
	c0.5,2.1,1,4,1.6,6.3c0.9,0.3,1.9,0.7,3.4,1.2c-1-0.9-1.8-1.6-2.9-2.6c1.1,0,1.8,0,2.9,0c-0.8-1.3-1.4-2.4-2.2-3.8
	c0.7,0.4,1.7,0.9,1.8,1.2c0.6,2.5,1.2,4.9,1.7,7c-2.5,0.1-4.6,0.1-6.7,0.2c-0.7,0.3,1,2.4-1,1.9c-0.4-1.2-0.9-2.3-1.4-3.5l0,0.1
	c0.9-0.3,1.8-0.7,2.9-1.2c-0.1-0.6-0.4-1.8-0.6-2.8c-1.8-0.8-3.3-1.5-5.3-2.3c0.3-0.9,0.6-1.5,1-2.7
	C445.8,136.9,446.3,137.7,446.8,138.5z M399.1,61.1c-0.2-0.7-0.4-1.6-0.6-2.8c2.9,0.5,5.5,0.9,7.1-0.8c0.1-0.2,0.2-0.2,0.3-0.4
	c1.1-0.5,0.3-2.4,2-2.6c1.2-0.1,1.9-1.1,3-1.8c1.2,1.7,0.3,3.1-0.6,3.3c-2.2,0.6-2.3,2.5-3.1,4c-0.5,1-0.9,1.8-2.4,2
	c-1.4,0.2-2.3,1.4-3.3,2.3c-0.3-0.2-0.4-0.3-0.7-0.5c0.5-0.8,1-1.5,1.5-2.4C400.8,59.1,400.6,62,399.1,61.1z M468,226.4
	c-0.7-0.9-1.7-1.8-1.9-2.5c-0.1-0.6,0.9-1,0-1.8c-0.7-0.6-1.7-1-2.7-1.5c0.5,2.1-0.2,2.9-1.9,2.2c-1.1-0.5-1.7-0.4-2.4,0.1
	c-0.2,0.2-0.9-0.1-1.3-0.1c-0.4,0.5-0.9,0.9-1.4,1.6c0.6,0.3,1.5,0.9,1.6,0.9c1-0.9,1.9,0,3,0.9c1.2,0.9,2.2,1.9,3.6,3
	c-0.2-1.7-0.3-3-0.4-4.3C465.4,225.4,466.4,226.8,468,226.4z M462.2,225.3c-0.2-0.1-0.6-0.3-0.8-0.5c-0.1-0.1,0.1-0.3,0.3-0.7
	c0.3,0.3,0.7,0.5,0.8,0.7C462.6,224.9,462.3,225.3,462.2,225.3z M407.3,96.9c2.7,2.7,2.6,4.7,0,5.2c-0.8,0.2-1.4,1.1-2.1,1.6
	c-0.3-0.2-0.4-0.3-0.5-0.3C405.2,101,402.8,96.9,407.3,96.9z M474.3,170.6c-1.1-0.5-2.1-0.9-3.2-1.5c-0.3-1-0.5-1.9-0.8-3
	c3.8,2.1,5.7,5.2,8.3,8.1c-1.4,0.8-2.7,0.2-4-0.6C472.7,172.2,474.8,171.8,474.3,170.6z M402.6,73.2c-1.9-0.6-3.7-0.9-4.7,0.3
	c-2.4-2.7-2.4-2.7-0.8-4.1c0.5,0.9,0.9,1.6,1.4,2.5c0.8-0.5,1.3-1,2.1-1.5C401.2,71.4,401.9,72.3,402.6,73.2z M414.5,102.6
	c0.5-0.2,1.6-0.2,2.3,0.2c0.5,0.3,1.3,1.4,1.3,2c0.1,0.8-0.4,1.4-0.7,2.8c-1.3-1.4-2.2-2.3-2.8-3.3
	C414.2,103.7,414.3,102.8,414.5,102.6z M457.7,222.7c-0.6-0.6-1.4-1.3-2-1.7c-0.2-1.3,0.8-2.1-0.9-3.6c-0.4-0.3-0.1-1.8-0.1-3.2
	C456.7,217.3,459.2,220,457.7,222.7z M401.4,65.7c1,0.8,1.8,1.6,3.1,2.6c-2.7-0.5-3.8,1.5-7.2-0.2C398.8,67.2,400,66.5,401.4,65.7z
	 M447,126.8c0.2,1.2,0.4,2.4,0.7,3.5c-1.9-2.3-2.4-4.2-2.2-6.3c1.9-0.2,3.7-0.3,5.3-0.5c-0.5,0.6-0.3,1.6-1.9,1.2
	C447.5,124.2,446.8,125.1,447,126.8z M426.5,102.8c1.9,1.4,3.5,2.7,5.2,3.9c0,0.1,0,0.3,0,0.4c-1.9-0.4-4-0.9-6.3-1.4
	C426,104.4,426.3,103.5,426.5,102.8z M511.8,193.3c1.3-2.4,3.5-1.9,6.5-0.7C516.6,194.2,514.1,193.1,511.8,193.3z M558.4,279.5
	c2.2,0.4,4.1,0.7,5.9,1.1c-0.1,2.2-2.1,1.3-3.7,1.3C559.3,281.6,558.8,280.6,558.4,279.5z M406.9,72.1c1,1,1.6,1.8,2.2,2.3
	c-0.8,0.2-1.5,0.4-1.9,0.8c-0.4,0.6-0.6,1.3-2.1,0.6C405.6,74.7,406.2,73.5,406.9,72.1z M505.6,199c-0.6-1.4-1-2.3-1.4-3.4
	c0.9-1.3,3.1-0.2,5.4-0.4c-0.5,0.6-0.7,1.1-1.2,1.3C506.1,196.9,506.2,196.8,505.6,199z M533.8,269.4c-1.9-1-3.5-1.7-4.8-2.3
	c-0.7-1.2-1.6-2.3-2.4-3.5c0.1-0.2,0.2-0.2,0.3-0.4C529,265.2,531.1,267.1,533.8,269.4z M427.1,97.5c0.1-0.5,0.2-1,0.4-1.8
	c0.6,1,1.1,1.6,1.4,2.3c-0.5,0.5-1.2,0.8-1.1,1.4c0,0.5,1.1,1.2-0.4,1.3c-0.6-1.6-1.3-3.2-1.9-4.7c0.1-0.1,0.3,0,0.4-0.1
	C426.2,96.4,426.5,96.9,427.1,97.5z M432.4,170.5c-0.7-0.3-1.9-1.7-1.9-0.1c-0.5-0.5-1.1-1-1.8-1.7c0.5-0.8,1.1-1.3,1.6-1.9
	C432.5,168.5,432.7,168.9,432.4,170.5z M428.9,113.2c-0.6-0.1-1.3-0.1-1.9-0.1c-0.1-0.2-0.3-0.6-0.5-0.8c1.3,0.1,1.4-1.9,3.3-0.6
	c0.6,0.4,1,1.4,1.7,2.5C430.3,113.8,429.6,113.3,428.9,113.2z M453.1,210c-1.1-0.7-2.2-2-3.3-3c0.1-0.2,0.2-0.2,0.3-0.4
	c1.6,1.1,3.2,2.2,4.7,3.3c0.5,0.3,1.2,0.6,1.8,0.8C455.6,211.7,454,210.6,453.1,210z M473.9,233.5c-0.2,0.7-0.4,1.4-0.9,2.5
	c-0.8-0.9-1.5-1.6-2.2-2.3C471.9,233.3,472.3,232.1,473.9,233.5z M452.7,212.8c-0.7,0.2-1.5,0.1-2,0.2c-0.3-0.7-0.5-1.3-0.9-2
	c-0.2-0.5-0.5-1.1-0.9-2.1C451,210.1,451.6,211.4,452.7,212.8z M478.8,233.7c-1.9-1.6-3.2-2.6-4.8-3.9
	C476.9,230,477.3,230.3,478.8,233.7z M509.6,188c0.3-0.3,0.6-0.5,1-0.7c1.3,1.5,1.3,2.8,0,2.6c-0.8,0.1-1.5-0.8-1.4-1.6
	C509.3,188.4,509.5,188.1,509.6,188z M455.4,138.3c-1.9-3.5-1.9-3.6,0.6-3C455.7,136.2,455.5,136.9,455.4,138.3z M434.6,116.5
	c0.1-1.2,0.3-2.1,0.4-3.2C436.7,116.2,436.7,116.2,434.6,116.5z M440.7,123.5c1.5,0.9,2.6,1.4,4.1,2.3c-1.3,0.1-2.2,0.2-3.2,0.2
	C441.2,125.3,441,124.7,440.7,123.5z M402.8,76c-0.7,0.3-1.4,0.3-2.6,0.6c-0.1-1.8,0.1-2.5,1.5-2.1C402,74.6,402.3,75.3,402.8,76z
	 M575.9,281.9c1.2,0.3,2.2,0.4,3.5,0.7c0,0.6-0.1,1-0.1,1.9C578.1,283.3,576.7,283.6,575.9,281.9z M439.9,129.2
	c0.4,0.9,0.8,1.8,1.4,2.9C439.4,131.2,439.4,131.2,439.9,129.2z M427.3,173.2c-0.7-1.2-1.5-2.3-2.3-3.6
	C426.4,170.1,427.1,170.9,427.3,173.2z M503.9,253.8c0.1,0.3,0.2,0.5,0.3,0.9c-0.7,0.8-1.6,0.6-3.7-0.8
	C502.3,253.9,503.1,254,503.9,253.8z M457.5,147.2c0.4-0.9,0.9-1.6,1.3-2.5C459.7,146.9,459.5,147.5,457.5,147.2z M570.1,282.1
	c1.3,0.1,2.6,0.1,4.4,0.3C573.1,283.4,571.8,283.4,570.1,282.1z M442.3,129.4c1.6,1.8,1.6,1.8,0.4,3
	C442.7,131.6,442.6,130.7,442.3,129.4z M421.9,96.6c0.4-0.9,0.7-1.3,1-2C424.6,97,424.6,97,421.9,96.6z M432.3,124.8
	c0.1,0,0.1,0,0.2,0.1C432.4,124.9,432.4,124.9,432.3,124.8L432.3,124.8c-0.8,0.5-0.8,0.5-2.3-0.5c0.2-0.5,0.5-1,0.7-1.4
	c0.1,0.1,0.4,0.2,0.4,0.3C431.6,123.8,431.9,124.2,432.3,124.8z M445.3,212.1c-0.2-0.1-0.4-0.2-0.6-0.3c0.1-0.6,0.1-1.3,0.2-2
	C446.8,211.1,445.8,211.5,445.3,212.1z M447.1,210.5c1.4,1.2,2.1,1.8,3,2.4c-0.6,0.2-1.3,0.2-2.1,0.3
	C447.8,212.4,447.6,211.8,447.1,210.5z M414.9,136.6c0.5,0.7,1.1,1.5,1.8,2.4C414.6,138.4,414.6,138.4,414.9,136.6z M426.6,115
	c0.9,0.7,1.6,1.5,2.5,2.3C426.9,117.2,426.9,117.2,426.6,115z M399.2,47.8c1.2,0.3,2,0.4,2.8,0.6c0.1,0.2,0.1,0.4,0.2,0.7
	C401.4,49.5,400.6,49.7,399.2,47.8z M554.9,278.8c0.1,0.2,0.2,0.4,0.5,0.8c-0.6,0.7-1.8,0.1-2.6,0.1c-0.1-0.2-0.2-0.4-0.3-0.6
	C553.2,279,554.1,278.9,554.9,278.8z M461.6,219.2c-0.9-0.7-1.9-1.7-2.7-2.4c0.3-0.1,0.3-0.4,0.5-0.5c0.9,0.8,1.8,1.7,2.7,2.5
	C462,219,461.8,219.1,461.6,219.2z M499.8,189.6c-0.8,0.2-1.5,0.5-2.9,0.9C497.4,189,498.6,189.4,499.8,189.6z M417.4,74.4
	c-0.6-0.1-1.2-0.4-1.9-0.5c0,0-0.2-0.5-0.1-0.5c0.6-0.1,1.1-0.1,1.6-0.1C417.4,73.7,417.3,74,417.4,74.4z M450.3,213
	c0.1,0,0.3,0.1,0.4,0.1c0.8,1.1,1.7,2.2-0.2,2.4C449.8,214.5,450.1,213.7,450.3,213z M448.3,118c0.3-0.3,0.8-0.5,1.1-0.8
	c0.2,0.3,0.5,0.5,0.8,0.8c-0.4,0.3-0.7,0.4-1.2,0.7C449,118.7,448.6,118.3,448.3,118z M415.8,85.9c0.7,1.2,1.1,1.7,1.7,2.7
	C415.5,88,415.5,87.3,415.8,85.9z M392.7,93.4c0.1-0.2,0.2-0.3,0.3-0.5c0.5,0.3,1.1,0.7,1.8,1.1c-0.1,0.3-0.3,0.5-0.4,0.6
	C393.6,94.2,393.2,93.9,392.7,93.4z M396.6,81.3c0,0.7,0.1,1.3,0.1,1.8c-0.2-0.1-0.4-0.1-0.8-0.2c0-0.7,0-1.2,0-1.9
	C396.3,81.2,396.5,81.3,396.6,81.3z M425.8,164.8c-0.8-1.1-1.2-1.7-1.6-2.3C425.9,162.7,426,163.3,425.8,164.8z M449.2,120.8
	c-0.9-0.1-1.9,0-3.2-0.1C446.7,119.2,448.1,120.5,449.2,120.8z M515.3,198.7c0.5-0.7,0.6-1.1,1-1.6
	C517.2,198.4,517.2,198.4,515.3,198.7z M409,86.2c0.5,0.3,1.2,0.5,1.8,0.8c0,0.2,0,0.4,0,0.6c-0.3-0.1-0.7-0.1-1-0.4
	c-0.3-0.2-0.5-0.4-0.7-0.6C408.9,86.5,408.9,86.4,409,86.2z M410.5,99.9c0.1-0.1,0.2-0.2,0.3-0.3c0.6,0.6,1.2,1.1,1.8,1.8
	c-0.3,0.1-0.3,0.2-0.5,0.3C411.6,101,411,100.5,410.5,99.9z M394.5,56.6c0.7,0.2,1.3,0.5,1.9,0.7C395.6,58.3,395.6,58.3,394.5,56.6z
	 M397.4,66.1c-0.2-0.1-0.5-0.3-0.7-0.3c0.2-0.4,0.2-1,0.2-1.5c0.3,0.1,0.5,0.3,0.8,0.3C397.6,65.2,397.5,65.7,397.4,66.1z
	 M517.4,268.1c-1-0.2-1.7-0.2-2.8-0.4C515.4,266.7,516.1,266.7,517.4,268.1z M419.1,110.2c0.3,0.1,0.5,0.1,0.9,0.2
	c0.1,0.6,0.2,1.2,0.3,1.8c-0.2-0.1-0.4,0-0.6-0.1C419.4,111.4,419.3,110.8,419.1,110.2z M467.1,231.2c0.9,0.4,1.7,1,2.6,1.4
	c0,0.2-0.1,0.3-0.2,0.4c-0.8-0.3-1.8-0.8-2.6-1.1C467.1,231.5,467.1,231.3,467.1,231.2z M487.1,240c1,0.5,1.9,1.1,2.9,1.6
	c-0.1,0.2-0.1,0.3-0.2,0.5c-1-0.6-2-1.3-3-1.8C486.9,240.2,486.9,240.1,487.1,240z M507.7,184.1c0.5,0.5,1.2,1.1,2.1,2.2
	C507.6,185.8,507.5,185,507.7,184.1z M528.9,267.2c0.2,0.5,0.4,1.2,0.7,1.7c-1.3,0.1-1.6-0.9-1.7-1.6
	C527.8,267.2,528.7,267.3,528.9,267.2z M523.4,194.8c-0.1-0.1,0.3-0.7,0.5-0.6c0.4,0.1,0.8,0.5,1.4,1.1c-0.4,0.3-0.8,0.6-0.9,0.6
	C524,195.6,523.6,195.2,523.4,194.8z M404.4,114c0.1,0,0.4,0.4,0.9,0.7c-0.4,0.2-0.7,0.4-0.9,0.2c-0.2-0.1-0.4-0.4-0.6-0.7
	C403.9,114.3,404.1,114.1,404.4,114z M404.2,51.7c-0.1-0.2-0.4-0.5-0.4-0.7c0.6-0.1,1-0.3,1.5-0.4c0.1,0.2,0.3,0.4,0.4,0.6
	C405.2,51.3,404.7,51.4,404.2,51.7z M405.2,94c0.5,0.1,1.1,0.2,1.6,0.3c0,0.3,0.1,0.5,0.1,0.8c-0.6-0.2-1.1-0.3-1.7-0.5
	C405.3,94.4,405.3,94.2,405.2,94z M404.8,112.2c-0.7,0.4-1.3,0.9-2.6-0.7C403.3,111.7,404,111.8,404.8,112.2z M515.8,260.5
	c0.6,0.1,1.2,0.4,1.8,0.5c0,0.2,0,0.4,0,0.7c-0.7-0.2-1.2-0.5-1.8-0.6C515.8,261,515.8,260.5,515.8,260.5z M418.5,157.4
	c0.3,0.6,0.7,1.2,1,1.8c-0.1,0.1-0.3,0.1-0.4,0.2c-0.4-0.6-0.8-1.2-1.3-1.7C418,157.5,418.2,157.4,418.5,157.4z M404.5,86.9
	c0.2,0.4,0.5,0.7,0.5,0.9s-0.3,0.3-0.5,0.3c-0.2-0.3-0.5-0.5-0.4-0.7C404,87.2,404.1,87.1,404.5,86.9z M409,125.8
	c0.4,0.2,0.5,0.4,0.9,0.7c-0.1,0.1-0.2,0.3-0.3,0.3c-0.3-0.1-0.6-0.3-1.3-0.7C408.7,126,408.9,125.7,409,125.8z M432.5,124.9
	c0.9,0.1,1.7,0,2.5,0.1C434.6,126,433.4,125.3,432.5,124.9z M437.4,203.7c0.5,0.3,1.1,0.7,1.6,1c-0.1,0.2-0.1,0.3-0.2,0.4
	c-0.5-0.3-1.1-0.7-1.7-1.1C437.4,203.9,437.4,203.8,437.4,203.7z M406.9,49.4c-0.3-0.2-0.4-0.2-0.5-0.3c0.2-0.4,0.4-0.8,0.7-1.2
	c0.3,0.2,0.4,0.2,0.5,0.3C407.3,48.5,407,49,406.9,49.4z M434,109c-0.2-0.3-0.5-0.5-0.7-0.8c0-0.1,0.1-0.3,0.5-0.7
	C433.8,108.3,433.8,108.6,434,109z M435.1,124.9c0-0.6,0.1-1.1,0.1-1.8C436.8,124.7,435.8,124.7,435.1,124.9z M413.4,32.2
	c0.1-0.2,0.4-0.2,0.7-0.3c0.2,0.3,0.5,0.5,0.5,0.7c-0.3,0.1-0.5,0.2-1,0.1C413.7,32.9,413.5,32.4,413.4,32.2z M465,220.1
	c-0.2-0.1-0.5-0.4-0.5-0.6c0-0.1,0.2-0.2,0.5-0.5c0.4,0.5,0.5,0.7,0.6,1C465.4,220.1,465.2,220.2,465,220.1z M420.3,104.8
	c-0.4-0.2-0.5-0.5-1.1-1c0.5,0,0.8-0.1,0.9,0.1c0.3,0.2,0.4,0.4,0.6,0.7C420.6,104.6,420.4,104.8,420.3,104.8z M414.7,108.9
	c0.1-0.1,0.3-0.1,0.4-0.1c0.2,0.4,0.5,0.9,0.8,1.3c-0.1,0.1-0.2,0-0.3,0.1C415.3,109.8,414.9,109.3,414.7,108.9z M415.5,78.2
	c0.1,0,0.3,0.2,0.4,0.2c-0.2,0.4-0.2,0.8-0.3,1.2c-0.3-0.2-0.4-0.3-0.7-0.5C415.1,78.8,415.3,78.4,415.5,78.2z M407.2,92.6
	c-0.6-0.2-1-0.4-1.5-0.5c0-0.2,0-0.3,0-0.5c0.6,0.2,1,0.4,1.5,0.5C407.2,92.3,407.2,92.6,407.2,92.6z M416.6,42.6
	c-0.1,0-0.4-0.4-0.4-0.5c0.2-0.2,0.4-0.3,0.8-0.5c0.4,0.5,0.4,0.7,0.5,0.9C417.1,42.6,416.9,42.6,416.6,42.6z M522,193.6
	c-0.1-0.2-0.3-0.4-0.4-0.6c0.4-0.2,0.8-0.2,1.3-0.4c0.1,0.1,0.2,0.3,0.4,0.5C522.9,193.3,522.5,193.5,522,193.6z M449.4,114.5
	c0-0.1,0.3-0.2,0.4-0.2c0.3,0.2,0.4,0.4,0.8,0.7c-0.4,0.1-0.6,0.2-0.9-0.1C449.5,115.1,449.4,114.7,449.4,114.5z M437.1,122.6
	c0.1,0,0.4,0,0.4,0c0.1,0.4,0.4,0.8,0.4,1.2c-0.2-0.1-0.3,0-0.5-0.1C437.3,123.4,437.2,123,437.1,122.6z M438.1,43.4
	c-0.1-0.1-0.2-0.3-0.3-0.6c0.3-0.1,0.4-0.2,0.6-0.3c0.1,0.1,0.4,0.5,0.4,0.5C438.5,43.1,438.2,43.2,438.1,43.4z M546.7,276.8
	c0.1,0.1,0.1,0.3,0.2,0.5c-0.4,0-0.9-0.1-1.3-0.1c-0.1-0.1-0.1-0.3-0.2-0.4C545.9,276.7,546.3,276.8,546.7,276.8z M427.8,92.2
	c-0.1,0.2-0.3,0.3-0.5,0.4c-0.1-0.1-0.3-0.4-0.4-0.5c0-0.1,0.2-0.2,0.3-0.3C427.5,92,427.7,92.1,427.8,92.2z M503.4,186.5
	c-0.1-0.2-0.2-0.5-0.2-0.7c0-0.1,0.3,0,0.6,0c0,0.3,0.1,0.5,0.1,0.8C504,186.6,503.7,186.6,503.4,186.5z M430.7,118.1
	c0.2-0.3,0.3-0.6,0.5-0.8c0.1,0.2,0.2,0.5,0.2,0.8C431.3,118.1,431,118,430.7,118.1z M431.9,84.3c0.2,0.3,0.4,0.6,0.5,0.8
	c0,0.1-0.3,0.2-0.5,0.2c-0.1-0.2-0.2-0.5-0.4-0.8C431.5,84.4,431.7,84.4,431.9,84.3z M437.1,127.1c-0.3,0.1-0.6,0.2-1,0.1
	c-0.1,0-0.4-0.5-0.5-0.9c0.4-0.1,0.7-0.2,1.2,0.1C436.8,126.5,437.1,127,437.1,127.1z M522.8,263.1c0,0.2,0.1,0.5,0.1,0.7
	c-0.4,0-0.9-0.2-1.3-0.3c0-0.1-0.1-0.3-0.1-0.4C522.1,263,522.5,263.1,522.8,263.1z M556.2,211.4c0-0.5-0.2-1.3,0.1-1.5
	c1.4-0.5,2.9-0.8,4.3-1.3c0.2,0.3,0.5,0.5,0.6,0.8c-1,0.8-2,1.8-3.2,2.5C558,212.3,557,211.6,556.2,211.4z"/>
<path class="st4" d="M349.7-314c-0.5-0.8,0.7-1.4,2.5-1.6c2.7-0.3,4.6,0.1,6.3,1.1c1.9,1.2,4.8,1.5,6.9,0.8c0.6-0.2,1.3-0.6,1.2-1
	c0-0.3-0.8-0.7-1.4-0.9c-0.5-0.2-1.4,0-2.1-0.1c-3.6-0.3-5.1-1.6-4-3.2c0.3-0.5,0.4-1,0.6-1.7c-5,0.1-9.6,0.2-14.1,0.3
	c-1.6,0-2.8,0-2.9-0.9c3-1.5,6.7-1.7,10.9-1.5c3.2,0.2,6.3,0.3,8.6,1.5c1.4,0.8,3.3,0.8,5.2,0.3c-0.7-0.1-1.2-0.4-0.5-0.7
	c0.7-0.4,1.5-0.7,2.2-1.1c-0.5-0.1-0.8-0.4-0.3-0.7c0.2-0.1,0.4-0.2,0.6-0.3c-0.5-0.1-0.9-0.2-1.3-0.4c-0.6-0.2-0.6-0.6,0-0.8
	c0.4-0.1,0.8-0.2,1.1-0.3c-2-0.2-4-0.5-5.9-0.8v-0.7c2-0.3,3.9-0.5,7-0.9c-3.8-0.9-6.5-1.9-9.6-2.2c-3-0.3-6.3,0.1-9.5,0.1
	c-0.2-0.1-0.4-0.3-0.5-0.4c2.1-1.1,4.2-2.2,6.6-3.4c-1.2-0.1-2.1-0.3-2.7-0.2c-2.7,0.4-5.1,0.3-7.7-0.2c-0.9-0.2-2-0.1-3.1-0.1
	c-0.4,0-0.8,0.3-1.1,0.4c0.5,0.7,0.9,1.3,1.6,2.4c-3-0.3-5.1-0.8-7.2-0.8c-2.4,0-4.7,0.5-7.1,0.7c-1.9,1.6-1.9,1.6-5.6,2.1
	c-4,0.6-8.2,1-12,1.7c-3.5,0.7-6.7,0.7-10.2,0.2c-1.4-0.2-3.3-0.5-4.5-0.2c-4.4,0.9-8.5,0.7-12.3-0.2c-4.5,1.1-8.6,2.1-12.9,3
	c-1.2,0.2-3-0.1-4.4-0.4c-6.1-1.1-12.6-0.8-18.8-1.2c-0.7,0-1.5,0.5-2.3,0.5c-1.3,0-3.1,0.1-3.9-0.2c-3.5-1.4-6.8-3-10.2-4.5
	c-1.6-0.7-2.9-1.6-4.7-2.3c-1.6-0.6-5.1-0.4-5.8,0.2c-1.1,1,0.1,1.7,1.8,2.2c2.9,0.9,5.9,1.7,8.9,2.5c1,0.3,2.1,0.6,2.8,1
	c3.8,2.4,8.4,4.5,13.3,6.4c2.2,0.9,1.9,1.7-0.9,2.1c-6.1,0.9-11.9,2.7-18.8,1.4c-0.6-0.1-1.5,0-2,0.2c-1.5,0.4-1.8,0.9-0.5,1.5
	c2,0.5,4.3-1.3,6.3,0.3c-0.6,0.8-1.2,1.7-1.9,2.9c-1.7-0.3-2.8-0.5-4.8-0.9c2.7,2.4,1,3.7-2.6,4.9c-2.7,0.9-5.5,1.9-7.4,3.7
	c5.2-0.6,8.9,0,12.3,1.4c1,0.4,3,0.6,4.3,0.5c3.8-0.3,7.6-0.8,11.4-1.1c2-0.2,4.1-0.1,6.2-0.4c3.4-0.3,5.9,0.6,8.8,1.4
	c0.5-0.5,0.9-0.9,1.1-1.2c0.2-0.4,0.2-0.9,0.4-1.6c7.1,1.4,13.9,2.5,21.2,1.5c0.9,0.7,1.6,1.3,2.7,2.3c1.5-2.4,4.9-3.2,9.2-3.4
	c1.2-0.1,2.6-0.3,3.3-0.7c3.9-2,9-1.4,13.5-1.7c0.8,0.6,1.3,1,2,1.6c7.3-2.4,14.7-2.8,22.4-0.8c1,0.3,2.4,0.3,3.6,0.4
	c8.2,0.3,16.5,0.5,24.7,0.7c0.2,0,0.5-0.2,0.9-0.4c-1.5-2.2-8.1-0.8-9.4-2.5c-2.7,0-4.7,0.1-6.7,0c-2.1-0.1-4.1-0.4-6.1-0.7
	c-2-0.2-4-0.4-6.8-0.7c0.7-1.1,0.7-2.4,1.9-2.7c2.8-0.8,4.5,0.6,6.4,1.4c5.2-1.4,10.1-0.6,14.8,0.3c3.7,0.7,6.5,0.2,8.4-1.4
	c-4.9-0.4-9.8-0.8-14.7-1.2C351.4-313,349.9-313.6,349.7-314z M248.7-322.7c-0.6,0.1-1.3-0.2-2.4-0.3c1.6-0.6,2.1-0.8,2.6-1
	c0.4,0.2,1.1,0.5,1.1,0.7C249.9-323.1,249.3-322.8,248.7-322.7z"/>
<path class="st5" d="M232.3-200.2c-2.3-1.7-7-0.8-6.7-4.2c1.7,0.3,3.2,0.5,4.7,0.7c-0.7-1.7-1.3-3-1.8-4.4c-0.6-1.6-1.5-2.7-4.2-2.8
	c-1.3-0.1-2.6-0.5-3.9-0.8c-2.6-0.6-5.3-1.6-7.9-1.6c-9.1-0.2-18.2-0.2-27.4-0.2c-2.4,0-4.9-0.1-7.3,0.2c-2.1,0.2-4,0.9-3.4,3
	c0.2,0.6-0.6,1.9-1.5,2.1c-3.5,1.1-4.6,3.3-5.7,5.5c-0.3,0.7-0.6,1.6-1.4,1.9c-1,0.5-2.6,0.9-3.7,0.7c-1.4-0.2-2.1-1.2-1.3-2.4
	c0.6-0.8,1.4-1.9-1.1-2.4c-0.4,1-0.8,2-1.4,3.3c-2.3-0.7-4.4-1.3-7.4-2.3c3.2-1.2,5.4-2,7.7-2.8c-1.8-1.8-3.4-3.6-5.2-5.2
	c-0.4-0.3-1.2-0.6-1.8-0.7c-3.4-0.2-6.3-2.1-10-1.5c-1.2,0.2-2.7-0.3-4.1-0.6c-3.1-0.7-6.2-1.6-9.3-2.3c-4.1-1-8.2-2.1-12.5-2.8
	c-5.1-0.9-9.9-2.8-15.8-1.8c-3.1,0.5-7.3-0.8-8.5-3.4c-1.1-2.3-3.3-3.1-6.1-3.4c-4-0.5-8-1.1-12-1.4c-1.9-0.1-4.6,0.1-5.8,0.9
	c-1.7,1.2-6.1,1.2-4.7,4.1c0.1,0.2-0.4,0.6-0.7,0.8c-2.8,1.9-5.6,3.7-8.6,5.7c1.7,1.1,2.9,1.8,3.8,2.4c-0.8,2.4-1.5,4.5-2.2,6.6
	c-0.5,1.7-1.6,2.6-4.3,2.5c-2.6-0.1-5.1,0.1-5.4-2.5c1.3-0.5,2.6-0.9,4.5-1.6c-5.2-1.6-9.9-3-14.5-4.5c0.1-0.2,0.2-0.4,0.3-0.7
	c1.6,0.1,3.1,0.3,5.8,0.5c-3.1-1.5-5.3-2.6-7.8-3.8c-2.3,2.5-4.6,4.8-2.9,7.7c-3.5,2-6.7,3.9-9.5,5.5c-0.1,3.9,5,7,0.6,10.4
	c2.9,2.4,8.7-0.1,10.5,3.5c-3.8,0.2-4,0.3-5.6,1.6c-1.5-0.5-3-0.9-4.9-1.5c0.3,1.3,0.8,2.2,0.5,3c-0.3,0.9-1.4,1.6-2.2,2.4
	c0.8,1,1.5,1.9,2,2.6c-1.3,2.1-2.5,4-3.7,5.9c-1-0.1-2.4-0.2-3.7-0.3c-0.1,0.2-0.2,0.4-0.2,0.6c1.5,0.9,3.1,1.7,4.4,2.5
	c-1.5,1.2-3.9,2.1-3.9,3.1c0,2.3-0.4,5.3,2.5,6.7c2.5,1.2,6.4,1.8,9.4,1.5c3.4-0.4,6.7-0.1,9.2,0.9c3.2,1.3,6.3,1.2,9.5,1.5
	c2.8,0.2,5.5,0.6,8.3,1c3.5,0.5,6.9,1.5,10.3,1.5c5.5,0.1,10.3,1.3,15,3c5.6,2,11.4,4,18,1.9c0.3-0.1,0.7,0,1.1,0.1
	c0.1,0.4,0.3,0.9,0.4,1.2c5.3,0.3,10.6,0.6,16,1c0.8-1.8-0.6-2.4-2.6-2.4c-6.2,0-12.2-1-18.2-2.1c-8.1-1.5-16.4-2.7-24.6-4.1
	c-1-0.2-1.9-0.5-2.8-0.8c3.6-0.2,7-0.2,10.4,0.3c5.8,0.7,11.6,1.6,17.4,2.6c8.1,1.4,16.3,1.8,24.6,1.7c4-0.1,8,0.6,12,1.1
	c1.7,0.2,2.2,1.1,0.5,2.3c-3.6-1.1-7-1.3-9,1.3c1.9,2.2,3.5,4.2,5.3,6.3c2.1-1,3.6-2.6,6.3-1.1c0.6,0.3,2,0,3-0.1
	c4.2-0.7,8.3-0.7,12.6-0.3c3.1,0.3,6.3,0,9.4,0.1c1,0,2.5-0.1,3.1,0.3c3.5,2.5,8.3,1.5,11.1,2.3c2.3-0.8,3.7-1.3,5.2-1.8
	c-3.6-0.5-7-1.7-10.6,0.1c-0.9-0.9-1.9-1.8-3.3-3.1c-2.3,2.7-5.8-0.8-8.4,1.2c-1.8-1.9-5.2-1.6-8.2-2.9c7.7-2,14.6-0.7,21.5,0
	c7.7,0.8,15.2,2.2,22.8,3.3c2.1,0.3,4.2,0.3,6.3,0.4c1.9,0.1,2.3-0.8,2.2-1.9c0,0-0.1,0-0.1,0.1c-0.1-0.1-0.1-0.1-0.2-0.1
	c-1.2-0.1-2.5-0.3-4-0.5c2.5-0.8,2.6-0.8,4,0.5c0.1,0,0.2,0,0.3,0l0,0c2.4-1,4.6-1.9,7.6-1.8c1.8,0.1,3.5-0.7,3.2-2.3
	c-0.4-2.1,1.4-2.6,3.7-2.8c2.7-0.2,4.7-0.9,5.5-2.8c-1.1-2.5-7-2.6-6.3-6.3c4.5,0.6,8.7,1.3,14,2c-1-1.9-1.3-3.1-2.3-4
	c-1.5-1.3-3.3-2.5-5.3-3.5c-2.2-1.1-1.5-1.9-0.1-3.2c1.5,0.5,2.8,0.9,4.2,1.3c0.9-2.4,0.8-2.9-1.9-3.3c-3.4-0.5-6.8-0.5-10.4-0.8
	c-0.3-1.6-0.6-3.2-0.8-4.6c3.2-1.8,6.4-3.5,9.7-5.3c-0.6-0.7-2.4-2.3-2.3-2.4c2.4-1.5-1.1-2.7-0.2-4.2c3.5-0.3,6.9-0.6,9.9-0.9
	c2.3-1.9,1-3.4-0.5-4.8C229.8-199.7,230.8-199.9,232.3-200.2z M35.3-164.9c-0.1-0.3-0.1-0.5-0.2-0.8c2.4-0.9,2.4-0.9,6.1,0.3
	C38.6-165.2,36.9-165,35.3-164.9z M35.2-187.3c0.6-0.4,0.8-0.6,1-0.6c1.5,0.2,2.9,0.4,2.4,2.1C37.4-186.3,36.3-186.8,35.2-187.3z
	 M41.2-189.8c1.7,0.7,3.4,1.1,4.3,2c0.8,0.8,0.8,2.1,1.1,3.1C41-185,40.5-185.5,41.2-189.8z M42.6-166.2c3.2-1.2,4.8,0.1,7.7,1.3
	C46.8-164.5,44.6-164,42.6-166.2z M45.8-194.9c0.7,0.8,1.3,1.5,2.3,2.6c-5.1,0.2-8.7-0.9-12.6-2.2c2.5-2.3,5-1,7.6-0.6
	c1.9-1.3,4.1-2.7,7.5-0.9C49-195.7,47.5-195.3,45.8-194.9z M61.1-162.4c-1.2-0.2-2.5-0.3-3.7-0.5c0.1-0.2,0.2-0.5,0.3-0.7
	c1.2,0.2,2.4,0.5,3.6,0.7C61.2-162.7,61.1-162.6,61.1-162.4z M158.4-195.5c-0.2-0.5-0.5-0.8-0.5-1.2c0-0.1,1-0.4,1.2-0.3
	c0.4,0.2,0.6,0.6,0.9,1C159.6-195.9,159.1-195.8,158.4-195.5z M47.7-214.4c-1.3-0.3-2.7-0.7-4-1c0.1-0.2,0.2-0.4,0.3-0.5
	c1.3,0.3,2.7,0.7,4,1C47.9-214.8,47.8-214.6,47.7-214.4z M72.6-155.9c0.9,0.2,1.9,0.3,2.8,0.5c-0.1,0.3-0.2,0.6-0.3,0.8
	c-0.9-0.2-1.9-0.5-2.8-0.7C72.4-155.5,72.5-155.7,72.6-155.9z"/>
<path class="st2" d="M453.4-224.1c-0.4-1-0.8-1.8-1.3-2.7c-0.4-0.8,0-1.9-1.7-2.1c0.3,1.1,0.8,2.1,0.7,2.9c-0.1,0.7-1,1.1-1.8,1.8
	c2.1,1.7,2.3,2.9,2.3,4.6c-0.1,1.6-0.6,3.6,1.7,5.7c0.4,0.4,0.5,1.1,0.8,1.7c-0.4-0.2-0.7-0.2-1-0.4c-0.7-0.7-1.3-1.3-2.4-2.5
	c-0.3,3,1.2,6.4-0.3,8.9c-0.4-1-0.7-1.6-0.8-2.3c-0.1-1.1-0.1-2.2-0.5-3.3c-1.8-4.5-3.6-9-3.2-13.1c0.1-0.3,0.1-0.6,0-0.8
	c-1.7-2.3-1.3-4.3-1.4-6.2c-0.2-3.2-1.2-6.9,0-9.2c-0.6-1.6-1.7-3.1-1.5-4c0.5-2.3,1.3-4.3,2.1-6.5c2.2,1.5,2.8,4.1,5.3,4.7
	c0.1-1.2,0.3-2.3,0.3-3.6c0-0.4-0.1-1.1-0.4-1.3c-1.8-1.3-1.2-1.9-0.7-2.9c0.4-0.6,0.1-1.6,0.2-2.4c-0.9-0.2-1.5-0.3-1.9-0.4
	c-0.3,0.9-0.7,1.6-1.1,2.3c-0.2-0.2-0.5-0.2-0.6-0.3c0.7,1.4,1.4,2.7,2.2,4c-1.2-0.5-2.1-0.8-3.2-1.4c-0.7-0.4-1.5-0.9-1.7-1.3
	c-0.6-1.6-1.5-3.6-1-4.4c0.7-1.2,0.7-2.6,0.8-4c0.2-0.1,0.1-0.3,0.1-0.7c-0.6,0.2-1.2,0.3-1.5,0.4c-1.6-1.3-2.8-2.5-4.4-3.8
	c0.5-0.4,1.2-0.8,1.7-1.2c-0.4-0.6-0.6-1.2-1.2-1.9c0.8-0.7,1.4-1,3.1-0.1c0.7,0.4,1.3,0.3,2.1,0.4l-4.1-4.8c1.2-0.6,4.1,0.5,3-2.2
	c-0.5-0.4-1.2-0.7-1.7-1.2c0.7-0.8,1-1.8,2.8-0.1c1.3,1.3,2.2,1.1,2.5,0c-0.9-1.1-2-2.1-2.8-3.2c-0.7-1-1-2.1-1.4-3.1
	c-0.4-1-2.2-2.2-1-3.2c1.2,1.7,2.3,3.3,4.7,2.9c-1.8-1.6-3.3-3.2-4.8-4.2c-0.7-0.5-1.9,0.1-3,0.3c-0.5-0.5-1.2-1.3-1.8-1.8
	c0.2-0.3,0.3-0.5,0.5-0.4c2.4,0.3,2.4-1.9,3.6-2.8c0.2-0.1,0-0.6-0.1-0.8c-1.5-1.1-0.8-1.6-0.3-1.9c0.5-0.6,1.3-1,1.8-1.5
	c-1-1-1.9-1.9-2.8-3c-0.1-0.1,0.1-0.3,0.3-0.7c0.7,0.5,1.4,1.2,1.9,1.6c1.8-0.7,2.1-1.1,1-2.2c-1.3-1.3-2.7-2.3-4.4-3.8
	c0.3,1.3,0.5,2.2,0.7,3.1c-0.1,0.1-0.4,0-0.4,0c-0.8-1-1.6-2.1-2.6-3.6c2.1-0.8,1.5-4.2,5.4-3.3c0.3,0.1,0.7-0.7,1.1-1.3
	c-2.3-1.1-4.4-2.1-6.9-3.3c0.6,1.3,1.2,2.2,1.6,3.2c-0.8,1.2-1.5,2.7-2.6,4.4c-0.5-1.2-0.8-1.8-1.2-2.8c-1,0.4-2,0.7-3,1.1
	c-0.1-0.6-0.3-1-0.4-1.5c-1.2,0.1-1.4,1-0.8,2c0.8,1.4-0.1,1.8-0.8,2.2c0.4,0.5,0.8,1,1.1,1.5c0.5,1.4-0.5,2.2-1.8,1.7
	c-2.4-1-2.9-0.8-2.8,0.9c0,0.9,0.1,1.8,0.1,2.7c-2.1,0.4-3.5,1.6-3.3,3.4c0.3,2.6-1,4-2.4,5.3c-1,0.7-1.9,1.6-2.2,2.7
	c-0.2,1.8-0.9,2.6-3.5,1.8c1.5,2.3,1.7,4.7,0.1,5.5c-1,0.6-1.4,1.4-1.3,2.6c-0.2,2.9-0.7,5.6-1.3,8.2c-0.3,1.3-0.7,1.2-2.3-0.3
	c-1,0.1-1.5-0.8-1.9-1.5c-1.5,0.6-2.5,1.5-2.4,3.4c-0.6-1.1-1-2-1.6-3.1c-1-0.1-1.9-0.1-3.1-0.3c-0.1-0.6-0.1-0.9-0.3-1.3
	c0-0.3-0.3-0.6-0.4-1c-2,0.1-0.7,1.8-0.8,2.7c-0.4,2.6-0.5,5.4,0.2,8.6c0.3,1.4-0.2,2.5-0.2,3.9c-0.1,0.5,0,0.9,0,1.3
	c0.1,1.1,0.2,2.3,0.4,3.5c0.1,1.4,0.2,2.7,0.3,3.6c-0.8,0.9-1.6,1.4-1.7,2.2c-0.2,1.4,1.6,2.2,3,3c0.2,0.8,0.4,1.5,0.5,2.1
	c-0.1,0.3-0.2,0.5-0.1,0.7c-0.7-0.4-1.2-0.6-1.8-1c-0.8,0.8-0.1,1.3,0.8,2.3c1.9,1.7,2.1,3,0.8,4.3c0.2,0.4,0.5,0.7,0.8,1.1
	c-1.3,0-2.3,0.2-3.8,0.3c1.9,1.4,2.2,3.9,5.1,3.3c0.3,2.7,0.7,5.1,1.2,7.5c0.1,1.1,0.2,2.2,0.5,3.3c0.8,2.9,1.8,5.7,2.6,8.5
	c0.3,1.1,0,2.2,0.7,3c2,2.3,2.6,4.7,3.9,6.9c0.1,0.1-0.1,0.3-0.2,0.5c-0.5-0.1-1.2-0.2-1.6-0.3c-0.7,2.2,2.9,3.5,3.4,5.5
	c-0.6,0.2-1.3,0.5-2.1,0.8l6.1,7.2c0,0,0,0,0.1-0.1c0,0,0,0,0.1,0.1c1.1,0,1.6,0.5,2.1,1.7c-1.3-0.4-1.9-0.7-2.1-1.7l0,0l0,0
	c-0.3,0.2-0.4,0.4-0.7,0.5c0.6,1.2,2.1,2.8,1.8,3.4c-0.6,1.2,0.8,2.7,0.7,3.8c0,0.4,0.5,1.2,0.9,1.5c0.3,0.2,1,0.1,1.3,0
	c1.3,1.5,2.3,2.6,3.4,4c1,1.2,2.2,2.3,3.1,3.5c1,1.2,1,1.9-0.3,2c-0.5,0-1.2-0.2-1.6-0.1c1.2,2.1,1.2,2.1,3.5,3.5
	c3.4,1.9,4.5,4.7,3.1,6.6c-0.3,0.4,0,1.4,0,2.3c2.3,0.1,4.8,1.5,5.6,3.2c2.2,4.1,5.5,7.7,8.9,11.4c0.6,0.7,1.3,1.2,1.6,1.8
	c1.8,3.1,3.6,6.2,7.5,8.4c-0.5,0.4-0.9,0.6-1.1,0.9c-0.2,0.3-0.3,0.7-0.4,0.9c2,1.5,1.3-0.6,2.3-0.6c1.1,1.9,0.9,4,3.5,5.4
	c0.6,0,1.2-0.1,2-0.2c-0.3,1.7,1.4,3.3,2.5,3.9c2.6,1.3,4.7,2.6,5.6,5.2c0.4,1.1,1.4,2.2,2.3,3.4c0.8,1,1.6,2.1,2.5,3.3
	c-1.1,0.3-2,0.5-3,0.9c0.8,1,1.4,2.4,2.3,3.1c3.2,2.4,6.5,4.7,9.8,7c3.2,2.3,6.5,4.7,9.9,7c3.7,2.4,7.3,4.8,11,7.1
	c5.6,3.3,11.1,6.5,16.9,8.3c3.6,1.2,7.2,1.5,10.8,4c0.9,0.7,2.1,0.6,3.2,1.1c3,1.2,6.3,0.7,9,4.2c0.1,0.1,0.4,0.2,0.6,0.3
	c2.6,0.3,5.1,1.9,7.5,3.3c3.6,2,6.2,1.3,9.1,1.4c0.5,0,0.8-0.9,0.9-1.5c0.2-0.5,0-1.2,0-1.8c1.4,0.1,2.9,0.2,4.3,0.2
	c-1.1-1.6-2-2.9-3-4.3c-0.2-0.5-0.6-1.3-0.3-1.5c0.2-0.3,1.1,0,1.6,0.3c2.9,1.9,5.8,2.7,8.9,2.8c-1.1-2.5-0.4-4.1,0.8-5.5
	c-1.3-1.4-2.5-2.7-3.8-3.9c0.2-0.1,0.2-0.3,0.4-0.3c2.3,1.8,4.6,3.6,7.3,5.7c-0.4-1.3-0.6-2.2-0.9-3.4c3.1,1.1,6.2,2.7,7.8,0.4
	c-2.8-3-5.7-6.1-8.5-9.2c-0.1-0.1-0.2-0.2-0.3-0.2c-1.2-1.1-2.6-2.3-3.6-3.4c-3.4-3.6-6.8-7.3-9.9-10.9c-1.8-2.3-3.5-4.9-4.6-7.5
	c-1-2.2-2.1-4.4-3.7-6.6c-0.4-0.5-0.6-0.9-1-1.4c-0.1,0-0.3,0-0.4-0.2c-9.2-7.4-17.6-15.7-25.8-24.2c-0.1,0.1-0.1,0.1-0.2,0.1
	c-0.5-0.4-1.2-0.7-1.7-1.1c-3.8-3.2-7.4-6.2-11.3-9.4c-1.4-1.1-2.7-2.1-4-3.1c-1.8-1.3-4.1-2.1-4.7-4.5c-0.2-0.4-0.7-0.7-1.1-1
	c-2.9-2.5-6-4.9-9-7.4c0.1-1.6,0.4-3.1,0.6-4.5c-1.4-1.4-2.4-3-3.1-4.6c-0.6-1.4-1.4-2.7-2.2-3.9c0.1,0.5,0.1,1,0.1,1.5
	c-2.6-1-2.8-1.4-2.2-3c-0.9-0.7-1.8-1.4-3.2-2.4c1-0.1,1.7,0,2.3,0c-1.6-2-3.1-3.9-4-5.8c-2.1-0.3-3.8-2.4-5.9-3
	c-0.9-0.3-1.7-0.9-2.7-1.4c1.3,2.4-1.9,1.1-1.5,3.1c-0.8-1.2-1.1-1.6-1.7-2.3c-1.1,0-2.2,1.3-3.7-1.1c0.2-0.1,0.3-0.2,0.4-0.4
	c0.1-0.2,0.3-0.4,0.6-0.8c-3.5,0.3-3.5,1.4-0.1,5.9c-3-1.2-3.2-3.3-4.2-5.3c-1.1,2,0.6,4.4,1.1,6.6c-1.4-1.3-2-2.6-2.4-4
	c-0.4-1.3-0.7-2.9-1.6-4c-1.4-1.7-1.5-2.7-0.9-3.9c0.4-0.6,1.3-1.1-0.2-2.5c-1.1,0.5-2.2,0.4-3.6-1.2c-0.1-3.1-3.6-7.2-1.5-9.6
	c-0.8-1.2-2.2-2.4-2.3-3.3C452.9-218.6,451.8-221.9,453.4-224.1z M435.6-301.5c0.2,0.2,0.6,0.3,0.8,0.5c0.2,0.3,0.2,0.5,0.5,1.2
	c-0.7-0.7-1.2-0.9-1.3-1.1C435.5-301.2,435.6-301.3,435.6-301.5z M433.3-299.8c1.7,0.2,2.3,0.9,2.2,2.3
	C434.6-298.4,434-299,433.3-299.8z M442.3-280.2c0,0.4,0.1,0.8,0,0.8c-0.4,0-0.7-0.1-1.2-0.2c0-0.3-0.1-0.6-0.3-0.9
	C441.3-280.5,441.7-280.4,442.3-280.2z M402.9-263.3c0.1-0.3-0.1-0.8,0-1c0.2-0.1,0.6,0,1.4,0.2c-0.2,0.5-0.1,0.8-0.3,0.9
	C403.7-263.1,403.3-263.3,402.9-263.3z M408.3-266.8c1.8,1.5,1.1,2.1,1.1,2.8c-0.3,0-0.5-0.2-0.7-0.2
	C408.6-264.8,408.4-265.6,408.3-266.8z M406.3-262.8c-0.2-0.4-0.3-0.9-0.4-1.3c0.3,0,0.5,0.1,0.8,0.2c0.1,0.5,0.3,1,0.2,1.4
	C406.7-262.7,406.5-262.7,406.3-262.8z M435.8-278.9L435.8-278.9c0-0.1,0-0.1,0-0.1c-0.9-0.7-1.8-1.4-2.7-2c0.3-3.3,1.9-4.1,6-2.8
	c-0.2,2-2,1.7-4.1,1.2c0.2,1.2,0.5,2.4,0.8,3.6l0.1,0.1C436-278.8,435.8-278.9,435.8-278.9c0.1,0.6,0.1,1.2,0.3,2.5
	C434.7-278.1,435.5-278.4,435.8-278.9z M432.4-269.6c0.2-0.5,0.1-0.7,0.2-1c0.2,0.2,0.6,0.3,0.8,0.4c0.1,0.3,0.1,0.5,0,0.7
	C433.2-269.4,432.8-269.6,432.4-269.6z M405.3-235.7c-0.7-0.7-1.6-1.2-2.1-1.9c-0.9-1.3-0.7-3.8-0.2-5c1,2.3,1.8,4.5,2.7,6.6
	L405.3-235.7z M439.5-252.5c-1.5-2.9,0-4.1,1.2-5.8c2.9,3.2-1.8,3.2,1.4,6.1C440.7-252.2,440.3-252.3,439.5-252.5z M441.6-238.3
	c-0.3-0.9-1.9-1.9-0.8-2.9c0.7-0.6-1.4-2.8,1.2-2.7c0.1,2.2,0.2,4,0.3,5.8C442.1-238.2,441.7-238.3,441.6-238.3z M442.3-233.6
	c-0.2-0.4-0.5-0.8-0.5-1.1c0-0.3,0.1-0.6,0.2-0.8c0.2,0.2,0.4,0.2,0.7,0.4c0.1,0.6,0,1.2,0.1,1.8
	C442.7-233.5,442.6-233.5,442.3-233.6z M561.1-97.8c0.7,0.9,1.4,1.9,2,2.9c-0.2,0.1-0.3,0.1-0.4,0.2l-2.3-2.8
	C560.5-97.7,560.8-97.8,561.1-97.8z M454.6-207.3c-0.1,0.5-0.3,0.7-0.3,1.2c-0.2-0.2-0.6-0.3-0.7-0.4c0-0.4,0.1-0.8,0-1.3
	C454.1-207.6,454.4-207.5,454.6-207.3z M484-332.3c0.6,1.5,2.4,3.1,2.1,4.6c0,0.1,1.5,1,2.2,1.6c0.1-0.5,0-0.9-0.3-1.1
	c-1-0.8-0.9-1.3-0.2-1.6c0.7-0.4,1.4,0.2,1.9,1c0.4,0.7,0.6,1.5,0.9,2.3c-3,0.2-5.8,0.3-8.7-0.2c-0.2-0.3-0.2-0.5-0.5-0.7
	c0.7-0.6,1.2-1.3,2-1.9c-2-0.1-4.1-0.2-6.3-0.2c0.7,0.7,1.2,1,1.6,1.5c0.4,0.4,0.6,0.9,0.6,0.9c-1.2,0.5-2,1.1-2.9,1.5
	c-1.1,0.3-1.9,0.6-3.3,0.9c1.3,0.9,2.3,1.6,3.2,2.2c0.2-0.5,0.3-0.9,0.6-1.3c2.6,2.5,3.8,0,6.2,1.6c-0.5-1.1-0.7-1.6-1-2.2
	c1.1-0.1,1.9-0.3,2.8-0.5c2.5-0.3,3.5,0.5,4.4,3.6c-1.8,0.2-3.9,0.2-5.6,0.6c-1.8,0.4-3.6,1.2-5.5,1.7c-2.8-1.7-3.1-1.6-3.7,0.1
	c-0.2,0.7-0.5,1.3-1,1.7c-0.8,0.7-2,0.9-2.8,1.5c-2.1,1.6-4.5,2.7-7.7,2.8c0.6,1.1,1.2,2.2,1.9,3.6c2.2-1.2,5.8-0.1,7.3-2.1
	c-1.3-2.7-1.3-2.9,0-3.7c1.4-1,3-1.9,6.1,0.6c0.3-3.3,3.3-3.4,6.1-3.6c1.7-0.2,3.7-0.1,4.8-0.8c1.7-1.3,4.3-0.3,6.5-0.2
	c0.4,0,1,0.7,1.7,1.1c-2.5,1.3-5.2,1.5-8.2,1.6c-1.1,0-2.7,0.1-2.9,0.5c-0.2,1.1-1,1-2.1,0.8c-1.1-0.2-2.1-0.4-2.7,0.5
	c2.3,1.6,4.3,1.5,5.5,1c2.2-1,4.8-0.6,7.8,0.5c0.1,0,0.3-0.2,0.5-0.2c-1.7-2.9-1.1-4,2-3.2c0.3,0,0.5,0.2,0.7,0.2
	c1.1,0.6,1.6,0.5,2.3,0c0.5-0.6,1.7-0.7,2.7-0.8c3.8-0.5,7.5-1.2,11.4-1.5c6.3-0.7,13.4,1,20.3,2.4c0.3,0.1,1,0.7,1.5,1
	c-1.7,0-3.4-0.5-5.1-0.8s-2.9,0.1-3.8,1.3c1.2,0,2.2,0.2,3.1,0.3c2.1,0.3,4.1,0.4,6.1,0.6c4.3,0.7,8.6,0.8,13,1.7
	c7.8,1.7,15.5,4,23.4,6.4c10,2.9,19.9,5.8,30.1,10.1c1.5,0.6,2.6,0.5,3.6-0.3c-1-0.6-1.6-1-2.2-1.3c-9.9-5.8-20.4-9.3-30.9-13.8
	c-2.7-1.2-5.6-2-8.4-3c-3-1.1-5.8-2-8.8-3.2c-2.8-1-5.2-2-7.8-3c-3.1-1.1-6.1-2.3-9.4-3.5c-2.6-0.9-5.4-2.1-7.6-2.3
	c-2.8-0.2-5.6-1.6-8.5-2.2c-0.9-0.2-2.1-1.1-3-1.8c-2.4-2-4.9-2.7-7.6-3.1c1.9,1.6,3.4,2.7,5.3,4.4c-0.7,0.4-1.2,0.9-1.7,0.9
	c-3-0.4-5.9-1.3-8.3-4.6c-2.3,1-5,0.2-7.8-2.1c-0.2,0.1-0.2,0.3-0.4,0.3c1,1.4,1.8,2.7,2.9,4.5c-1.8-0.1-3.3-0.3-4.8-0.3
	c-1.1,0-2-0.2-2.8-1.4c-1.1-1.5-2.4-1.7-4.3-2c1.5,1.2,3.3,1.7,3.2,3.5c-1.3-1.3-2.4-1.6-3.7-1.3c-0.9,0.2-2.6-0.5-3.7-1.1
	c-0.6-0.3-1.1-1.5-1.5-2.2C483.3-334,483.7-333,484-332.3z M500.7-318.1c-0.1,0.3,0.1,0.5,0,0.6c-0.1,0.1-0.4,0-0.5-0.1
	c-0.2-0.2-0.2-0.4-0.5-0.9C500.3-318.2,500.5-318.1,500.7-318.1z M494-325.1c2.7,0.8,4.9-0.4,7.8,1.6c-2.9,0.3-5.2,1.5-9.3-0.9
	C493.2-324.6,493.7-325.2,494-325.1z M491.6-323.4c-0.2,0.1-0.2,0.5-0.2,0.7c-0.7-0.4-1.2-0.6-1.8-1c0,0,0.1-0.5,0.1-0.6
	C490.5-324,491.1-323.7,491.6-323.4z M492.6-328.3c0.3,0.2,0.7,0.6,1,1.1c-1.2,0.3-1.9-0.2-2.6-1.7
	C491.8-328.6,492.1-328.6,492.6-328.3z M448.3-271.4c2.9,0.6,4.2-0.4,4.9-4.4c0.6,1.2,1.5,2.3,2.7,1.8c0.2,0.5,0.6,1.1,1.2,2
	c-3.1-1.1-3.5,0.6-4.6,1.8c-1.2,1.2-2.3,2.3-3.4,3.7c0.7,0.8,1.4,1.7,2.5,2.9c-0.3-1.1-0.6-2-0.8-3.1c1.2,0.8,1.8,1.3,3,2.1
	c0.3-1.1,0.5-2,0.9-3.1c0.4,0.7,1,1.6,0.9,1.8c-1.3,1.5-2.8,2.8-4.1,4c-2.6-1.8-4.8-3.3-7-4.8c-0.9-0.4-0.9,1.7-2.6,0.1
	c0.5-0.8,1-1.6,1.4-2.4l-0.1,0.1c1.2,0.5,2.4,1,3.9,1.6c0.4-0.3,1-1,1.6-1.6c-1.1-1.6-2.2-3-3.5-4.7c1.1-0.1,1.8-0.2,3.2-0.4
	C448.5-272.8,448.4-272.1,448.3-271.4z M463.2-336.8c0.3-0.5,0.8-1,1.6-1.6c2.5,2.3,4.9,4.4,7.8,4.8c0.3,0,0.3,0.1,0.6,0
	c1.6,0.6,2.2-0.8,4.2,0.4c1.3,0.8,2.9,1,4.6,1.5c-0.2,1.6-2.1,1.5-3.3,0.9c-2.7-1.4-4.4-0.7-6.5-0.7c-1.4,0-2.4,0.1-4.2-1
	c-1.7-1-3.5-1.1-5.3-1.5c-0.1-0.3-0.2-0.4-0.2-0.7c1.1,0.1,2.2,0.1,3.4,0.1C466.5-336.4,463.9-335.3,463.2-336.8z M397.8-221
	c0-0.9-0.3-1.9,0-2.4c0.4-0.3,1.7,0.2,1.5-0.7c-0.3-0.8-1-1.7-1.5-2.6c-1.2,1.2-2.6,1-3.8-0.5c-0.7-0.9-1.4-1.4-2.5-1.7
	c-0.3-0.1-0.9-0.7-1.3-1c-0.8-0.1-1.6-0.3-2.7-0.4c0.4,0.6,0.8,1.4,0.9,1.5c1.7,0.3,1.9,1.4,2.3,2.5c0.5,1.2,0.8,2.4,1.3,3.9
	c1.2-0.8,2.1-1.4,3.2-2C396.1-223.3,395.8-222,397.8-221z M392.8-225.6c-0.2-0.2-0.4-0.6-0.4-0.8c0-0.1,0.4,0,0.9-0.1
	c0,0.3,0.2,0.7,0.2,0.8C393.6-225.5,392.9-225.6,392.8-225.6z M442.2-316.6c0.6,3.1-1.2,3.7-4.3,2c-1-0.5-2.4-0.6-3.5-0.9
	c-0.1-0.3-0.2-0.4-0.2-0.5C436.6-316.4,437.5-319.9,442.2-316.6z M449.9-238.7c-0.7-0.9-1.4-1.9-2-2.9c0.5-0.6,1-1.1,1.6-1.8
	c2.1,3.6,1.5,6.2,1.8,9.2c-2.1-0.7-3-1.9-3.6-3.2C447-239.2,449.5-237.8,449.9-238.7z M456.8-329.4c-1.4-1.6-3.1-3-5.1-3.3
	c-0.3-2.8-0.3-2.8,2.5-2.2c-0.3,0.7-0.4,1.3-0.7,2c1.3,0.4,2.1,0.5,3.4,0.9C456.8-331.2,456.8-330.3,456.8-329.4z M444.8-309.1
	c0.6,0.3,1.8,1.1,2.1,1.7c0.2,0.5,0.1,1.5-0.3,1.7c-0.5,0.4-1.6,0.3-3,0.6c-0.1-1.5-0.3-2.5-0.2-3.4
	C443.6-308.8,444.5-309.2,444.8-309.1z M390.4-229.9c-0.1-0.7-0.4-1.5-0.7-2.1c0.8-0.7,2.5-0.3,1.9-2.1c-0.2-0.4,1.3-0.8,2.6-1.4
	C393.7-232.8,394.1-229.9,390.4-229.9z M461.7-333.3c0.3,1.1,0.6,2,1,3.3c-2.3-2.2-5.1-2.1-7.1-5.3
	C457.8-334.5,459.6-334,461.7-333.3z M458.1-275.9c-0.7,0.6-1.6,1.2-2.1,1.9c0-2.3,1.1-3.4,2.9-4.1c2.1,1.3,4,2.6,5.9,3.7
	c-0.9-0.1-1.7,0.4-2.9-0.9C460.7-276.6,459.3-276.7,458.1-275.9z M456.9-300.3c0.8,1.9,1.4,3.7,2.2,5.4c-0.1,0.1-0.3,0.1-0.3,0.2
	c-1.6-1.6-3.4-3.3-5.2-5.1C455-300,456.1-300.2,456.9-300.3z M469.6-202.4c3.3,0,5,1.8,7.2,4.4C473.7-198.6,472.1-200.9,469.6-202.4
	z M446.3-134.4c1.9,1.8,3.6,3.2,5,4.7c-1.9,0.8-3.3-1-4.8-2.2C445.6-132.9,445.8-133.7,446.3-134.4z M462.1-326.7
	c0.1,1.1,0.2,1.9,0.3,2.5c-1-0.5-1.8-0.9-2.6-1.1c-0.8-0.1-1.8,0.1-2.6-1.3C458.6-326.7,460.2-326.7,462.1-326.7z M458.6-204.7
	c0.5-1,0.9-1.6,1.5-2.3c1.9,0.1,3.4,2.2,5.8,3.8c-0.9-0.1-1.6-0.1-2.2-0.3C460.8-205.1,460.9-205.1,458.6-204.7z M429.6-156.2
	c-1.1-1.8-2.2-3.2-3-4.4c0.2-1,0.2-2.1,0.4-3.1c0.3,0,0.3,0.1,0.6,0C428.3-161.3,428.8-159.1,429.6-156.2z M461.9-301.9
	c0.6-0.1,1-0.3,1.9-0.5c-0.2,0.9-0.3,1.4-0.5,1.9c-0.9-0.2-2-0.6-2.3-0.3c-0.4,0.2,0.1,1.3-1.4,0.2c0.7-1.1,1.3-2.2,1.9-3.3
	c0.1,0,0.3,0.2,0.4,0.2C461.9-303,461.8-302.6,461.9-301.9z M407.3-269.1c-0.5-0.7-0.5-2-1.9-1.5c-0.1-0.6-0.2-1.2-0.5-1.9
	c1.1,0.1,2.1,0.2,3.1,0.4C409.1-269.8,409-269.5,407.3-269.1z M450.8-294.4c-0.5-0.5-1.3-1-1.9-1.5c0.2-0.1,0.2-0.5,0.2-0.7
	c1.3,1,2.9,0.2,3.9,2.2c0.3,0.6-0.1,1.3-0.4,2.2C451.7-293.2,451.5-293.8,450.8-294.4z M396.1-238.4c-0.6-1.1-0.6-2.4-0.9-3.6
	c0.3,0,0.3,0.1,0.6,0c0.7,1.6,1.4,3.2,2.2,4.8c0.2,0.5,0.8,1.1,1.1,1.6C397.2-235.9,396.4-237.4,396.1-238.4z M398-213.9
	c-0.8,0.1-1.6,0.3-2.9,0.4c-0.1-1-0.3-1.7-0.3-2.5C396.1-215.5,397.5-215.6,398-213.9z M393.4-237.5c-0.9-0.5-1.6-1-2.2-1.4
	c0.3-0.5,0.5-0.9,0.8-1.4c0.3-0.3,0.4-0.8,0.8-1.5C393.8-239.8,393.5-238.8,393.4-237.5z M402.9-210.3c-0.7-2-1.1-3.4-1.7-5.1
	C404-213.1,404.2-212.7,402.9-210.3z M471.6-206.2c0.5,0.1,1,0.3,1.6,0.4c0.1,1.6-1,2-2.1,1.1c-0.8-0.5-0.8-1.4-0.2-1.7
	C471-206.2,471.4-206.2,471.6-206.2z M457.2-265.2c0.9-2.8,1-2.9,3-0.8C459.3-265.9,458.5-265.7,457.2-265.2z M454-289
	c1-0.4,2-0.7,3-1C456.3-287.6,456.3-287.6,454-289z M454.4-281.8c0.8,1.4,1.5,2.4,2.3,3.9c-1.4-0.9-2.4-1.6-3.4-2.3
	C453.4-280.7,453.7-281.1,454.4-281.8z M454.7-328.2c-0.9-0.4-1.7-0.9-3.1-1.6c1.3-0.8,2.2-0.9,3.2,0.3
	C455-329.3,454.7-328.8,454.7-328.2z M462.3-120.7c1.1,1,1.9,1.8,3,2.8c-0.5,0.2-0.9,0.3-1.6,0.7
	C463.3-118.6,461.7-119.4,462.3-120.7z M448.9-280.1c-0.3,0.7-0.6,1.3-1,2.2C446.7-279.7,446.7-279.7,448.9-280.1z M399.9-271.7
	c0.2-1,0.4-2,0.6-3.1C401.6-273.6,401.6-272.8,399.9-271.7z M411.9-184c-0.1,0.2-0.3,0.3-0.4,0.6c-1.4-0.2-2.1-0.9-3.1-3
	C410.2-185.2,411-184.6,411.9-184z M452-260.2c1.1,0,2.2,0,3.3-0.1C454.5-258.7,453.8-258.6,452-260.2z M456.1-124.9
	c1.3,1,2.5,1.9,4.3,3.3C458.2-122.1,456.9-123,456.1-124.9z M451.2-278.2c0.2,1.9,0.2,1.9-2,1.5
	C449.8-277.1,450.4-277.5,451.2-278.2z M457.3-306.1c1.1,0,1.8,0,2.7-0.1C459.7-304,459.7-304,457.3-306.1z M444.7-287.4
	c0.1,0.1,0.1,0.1,0.2,0.2C444.8-287.2,444.8-287.2,444.7-287.4L444.7-287.4c-1.3-0.4-1.3-0.4-1.9-1.9c0.6,0,1.3,0,1.9-0.1
	c0,0.1,0.2,0.4,0.2,0.4C444.8-288.2,444.8-287.9,444.7-287.4z M386.4-243.2c-0.2-0.2-0.2-0.4-0.4-0.6c0.6-0.2,1.1-0.5,1.9-0.7
	C388.8-242.4,387.4-243,386.4-243.2z M389.6-242.4c0.5,1.5,0.7,2.2,1.2,3.2c-0.8-0.4-1.5-0.9-2.3-1.4
	C388.7-241.2,388.9-241.6,389.6-242.4z M417.3-295.3c0,0.7-0.2,1.4-0.1,2.2C415.5-294.8,415.5-294.8,417.3-295.3z M446.9-295.4
	c0.3,0.9,0.4,1.7,0.6,2.7C445.5-294.3,445.5-294.3,446.9-295.4z M474.1-342c1.1,1,1.7,1.6,2.4,2.2c-0.2,0.1-0.2,0.3-0.3,0.5
	C475-339.8,473.9-340.3,474.1-342z M443.5-137.1c-0.2,0.1-0.1,0.3-0.2,0.7c-1.2-0.2-1.8-1.2-2.7-1.8c0.2-0.1,0.1-0.3,0.2-0.5
	C441.5-138.3,442.5-137.8,443.5-137.1z M397.2-228.5c-0.3-0.9-0.5-2-0.8-2.9c0.4,0.2,0.6,0,0.9,0.2c0.3,1,0.5,1.9,0.6,2.9
	C397.7-228.3,397.4-228.4,397.2-228.5z M460.4-212.6c-1-0.5-2-0.9-3.7-1.7C458.4-214.6,459.4-213.6,460.4-212.6z M471-318.2
	c-0.5-0.5-1-1-1.5-1.6c0,0,0.3-0.3,0.3-0.2c0.7,0.4,1.2,0.7,1.7,1.1C471.4-318.5,471.1-318.5,471-318.2z M390.8-239.2
	c0.1,0.1,0.2,0.3,0.4,0.4c-0.1,1,0,2.1-2.2,0.8C389.1-238.9,390-239,390.8-239.2z M466.5-278.5c0.5,0.1,1.3,0.4,1.8,0.5
	c-0.1,0.3,0.1,0.6,0.1,0.9c-0.7-0.2-1.2-0.4-1.8-0.6C466.8-277.7,466.8-278.1,466.5-278.5z M459.8-314.8c-0.2,1-0.3,1.5-0.4,2.4
	C457.9-314.2,458.3-314.5,459.8-314.8z M430.1-328.6c0.3,0,0.4,0,0.7,0.1c0.2,0.5,0.6,1.1,0.9,1.7c-0.4,0-0.7-0.1-0.8-0.1
	C430.4-327.5,430.2-328,430.1-328.6z M444.1-330.5c-0.6,0.3-0.9,0.6-1.3,0.8c-0.2-0.2-0.4-0.4-0.6-0.7c0.6-0.3,1-0.5,1.4-0.8
	C443.8-330.8,444-330.6,444.1-330.5z M405.3-276.1c0.1-1,0.2-1.6,0.2-2.1C407.1-276.9,406.7-276.6,405.3-276.1z M465.3-276.7
	c-0.9-0.7-1.9-1.4-3.2-2.4C463.9-279.2,464.4-277.6,465.3-276.7z M468.7-197.7c1,0.1,1.6,0,2.3,0C471-196.5,471-196.5,468.7-197.7z
	 M452.6-319.6c0.2,0.5,0.8,1,1.1,1.6c-0.2,0.1-0.3,0.2-0.5,0.2c-0.2-0.3-0.7-0.6-0.8-0.9c-0.1-0.3-0.3-0.6-0.3-0.8
	C452.4-319.5,452.4-319.6,452.6-319.6z M443-313.1c0.1,0,0.3,0.1,0.5,0.1c0.1,0.7,0.3,1.3,0.4,2c-0.4-0.2-0.5-0.2-0.7-0.3
	C443.2-311.8,443-312.4,443-313.1z M462.2-341.9c0.5,0.6,0.9,1.1,1.4,1.7C461.9-340.4,461.9-340.4,462.2-341.9z M457.4-336
	c-0.2-0.2-0.2-0.5-0.5-0.7c0.5,0,1-0.3,1.4-0.4c0.2,0.3,0.2,0.5,0.5,0.7C458.3-336.2,457.8-336.1,457.4-336z M414-168.6
	c-0.9-0.8-1.6-1.3-2.6-2.2C413-170.6,413.9-170.1,414-168.6z M443.3-302.7c0.2,0.3,0.4,0.4,0.7,0.7c-0.4,0.3-0.7,0.6-1.2,0.9
	c-0.2-0.2-0.4-0.3-0.5-0.5C442.6-302,443-302.3,443.3-302.7z M393-219.7c0.5,0.8,1,1.7,1.5,2.4c-0.2,0.1-0.4,0-0.5,0
	c-0.5-0.7-1.1-1.6-1.7-2.3C392.6-219.6,392.8-219.7,393-219.7z M406.1-201.7c0.5,0.9,1,1.8,1.5,2.7c-0.3,0-0.4,0-0.6,0
	c-0.6-1-1-2-1.5-2.9C405.7-201.8,405.8-201.8,406.1-201.7z M472.9-209.1c0.1,0.6,0.3,1.3,0.4,2.4C471.5-208.5,472-208.9,472.9-209.1
	z M426.4-160.6c-0.3,0.3-0.5,0.8-0.7,1.2c-1.4-0.9-0.9-1.5-0.5-1.9C425.3-161.4,426.1-160.7,426.4-160.6z M480.2-193.4
	c0-0.1,0.9-0.1,0.9,0.1c0.4,0.4,0.4,0.8,0.5,1.4c-0.7-0.2-1.3-0.3-1.4-0.4C480.1-192.7,480.1-193.1,480.2-193.4z M425.2-311.8
	c0.1,0.1,0.1,0.5,0.3,0.9c-0.6-0.3-1-0.4-1.2-0.6c-0.2-0.2-0.1-0.5-0.1-0.8C424.4-312.1,424.8-312,425.2-311.8z M476.1-336.8
	c0.2-0.1,0.1-0.5,0.1-0.6c0.7,0.4,1.3,0.6,1.8,0.9c-0.2,0.1,0,0.4-0.1,0.5C477.4-336.2,476.8-336.6,476.1-336.8z M442.4-319.3
	c0.4,0.4,1,0.8,1.4,1.3c-0.3,0.1-0.3,0.2-0.5,0.4c-0.4-0.5-0.9-0.9-1.3-1.4C442.2-319,442.3-319.1,442.4-319.3z M427-312.3
	c-1-0.4-2.1-0.6-2-2.1C426-313.6,426.5-313,427-312.3z M418.5-172.8c0.5,0.5,1,1,1.4,1.5c-0.2,0.1-0.3,0.2-0.6,0.3
	c-0.5-0.6-0.8-1-1.3-1.5C418.1-172.6,418.5-172.8,418.5-172.8z M403.9-284.4c-0.2,0.5-0.2,1-0.4,1.5c-0.1,0-0.4-0.2-0.6-0.3
	c0.1-0.5,0.2-1.1,0.1-1.6C403.4-284.7,403.7-284.5,403.9-284.4z M447.5-322.6c-0.1,0.3,0,0.7-0.3,0.7c-0.2,0.1-0.5-0.1-0.7-0.3
	c0.1-0.3-0.1-0.6,0.1-0.6C446.7-322.9,447-322.8,447.5-322.6z M420.1-303.8c0.2,0.4,0.3,0.6,0.3,0.9c-0.1,0-0.4,0-0.5-0.1
	c-0.2-0.3-0.4-0.6-0.8-1.2C419.8-303.9,420.2-303.9,420.1-303.8z M444.8-287.1c0.9,0.7,1.7,1.2,2.3,1.8
	C446.1-285.2,445.5-286.3,444.8-287.1z M385.2-252.2c0.2,0.5,0.6,1.1,0.9,1.6c-0.3,0-0.4,0-0.5,0c-0.2-0.5-0.6-1.1-0.8-1.6
	C385-252.2,385.2-252.2,385.2-252.2z M480.7-335.8c-0.1-0.3-0.2-0.4-0.2-0.5c0.5,0,1.1,0,1.7,0c0.1,0.3,0.2,0.4,0.2,0.5
	C481.7-335.9,481.2-335.8,480.7-335.8z M459.4-292.4c0.1-0.3-0.1-0.6,0-0.8c0.1-0.1,0.4,0,1,0.1
	C459.8-292.8,459.6-292.7,459.4-292.4z M447.5-285.3c0.5-0.2,1.1-0.3,1.5-0.6C449.4-284.1,448.4-284.8,447.5-285.3z M501.5-337.9
	c0.3,0,0.6,0.3,0.9,0.4c-0.1,0.3,0.1,0.6,0,0.7c-0.4-0.2-0.6-0.3-1.1-0.6C501.2-337.4,501.3-337.8,501.5-337.9z M400-225.7
	c-0.2-0.2-0.3-0.6,0-0.6c0.1-0.1,0.3,0.1,0.9,0.2c-0.1,0.5,0,0.7-0.2,0.9C400.4-225.4,400.1-225.5,400-225.7z M448.9-304
	c-0.2-0.4-0.1-0.6-0.2-1.2c0.5,0.4,0.8,0.5,0.9,0.7c0.1,0.3,0.1,0.5,0.1,0.8C449.4-303.8,449.1-303.9,448.9-304z M439.8-306.4
	c0.1,0,0.4,0.2,0.4,0.2c-0.1,0.3-0.3,0.7-0.3,1.1c-0.1,0-0.2-0.2-0.4-0.2C439.8-305.7,439.7-306.1,439.8-306.4z M465.8-318.1
	c0.1,0.1,0.1,0.3,0.2,0.4c-0.5,0-0.9,0.1-1.3,0.2c-0.1-0.3-0.2-0.4-0.2-0.7C464.9-318.1,465.4-318.1,465.8-318.1z M445.6-318.4
	c-0.4-0.5-0.8-0.9-1.1-1.3c0.2-0.1,0.3-0.1,0.4-0.2c0.4,0.5,0.8,0.9,1.1,1.3C445.8-318.5,445.6-318.4,445.6-318.4z M496.1-331.5
	c-0.1-0.1-0.1-0.5,0.1-0.5c0.3,0.1,0.7,0.2,1.3,0.4c-0.1,0.5-0.1,0.6-0.3,0.7C496.7-331.1,496.4-331.3,496.1-331.5z M479.7-194.9
	c0.2-0.1,0-0.4,0.1-0.5c0.6,0.3,1,0.5,1.6,0.7c0,0.1-0.1,0.3-0.1,0.5C480.9-194.4,480.3-194.7,479.7-194.9z M470.6-279.1
	c0.1-0.1,0.5,0.2,0.6,0.3c0.1,0.3,0.1,0.5,0.2,0.8c-0.4-0.2-0.8-0.4-0.9-0.7C470.2-278.8,470.5-279,470.6-279.1z M451.5-284.8
	c0.1,0.1,0.4,0.3,0.4,0.3c-0.2,0.3-0.2,0.6-0.5,0.8c-0.2-0.2-0.3-0.2-0.4-0.4C451-284.3,451.3-284.5,451.5-284.8z M517.3-315.6
	c0-0.1,0.1-0.3,0.2-0.5c0.4,0.2,0.6,0.3,0.8,0.3c0,0.1-0.1,0.5-0.1,0.5C518-315.4,517.6-315.6,517.3-315.6z M436.7-143.9
	c0,0.1-0.1,0.2-0.3,0.3c-0.4-0.3-0.9-0.7-1.3-1c0-0.1,0.1-0.2,0.1-0.3C435.9-144.5,436.4-144.2,436.7-143.9z M466.9-303.6
	c-0.3,0-0.5-0.1-0.8-0.2c0-0.1,0-0.4,0.1-0.5c0.1-0.1,0.3,0.1,0.5,0.1C466.8-303.9,466.9-303.7,466.9-303.6z M466.7-211.2
	c0.2-0.1,0.3-0.3,0.3-0.5c0.1-0.1,0.3,0.2,0.6,0.5c-0.3,0.1-0.3,0.2-0.5,0.4C467-210.8,466.8-211,466.7-211.2z M448.6-291.2
	c0.4,0,0.8,0,1.1,0.1c-0.2,0.1-0.3,0.3-0.5,0.4C449.1-290.8,449-291,448.6-291.2z M477.6-303.7c-0.1,0.3-0.1,0.5-0.2,0.7
	c-0.1,0.1-0.5-0.2-0.6-0.3c0.2-0.1,0.3-0.3,0.2-0.6C477-304.1,477.2-303.9,477.6-303.7z M447.8-282.9c-0.4-0.2-0.8-0.4-1.1-0.6
	c-0.1-0.1,0.1-0.5,0.3-0.7c0.4,0.2,0.9,0.5,1.2,0.9C448-283.4,447.9-283,447.8-282.9z M423.6-166.7c-0.2,0.1-0.3,0.2-0.4,0.4
	c-0.4-0.3-0.7-0.7-1.1-1c0.1-0.1,0.1-0.2,0.2-0.3C422.9-167.2,423.2-166.9,423.6-166.7z M500.1-163.1c0.4-0.2,0.8-0.7,1.3-0.5
	c1.9,0.8,3.6,1.8,5.5,2.6c-0.1,0.3,0.1,0.6-0.1,0.7c-1.7-0.4-3.5-0.7-5.2-1.3C501.1-161.4,500.7-162.4,500.1-163.1z"/>
</svg>
