<?xml version="1.0" encoding="utf-8"?>
<!-- Generator: Adobe Illustrator 22.0.1, SVG Export Plug-In . SVG Version: 6.00 Build 0)  -->
<svg version="1.1" id="master-artboard" xmlns="http://www.w3.org/2000/svg" xmlns:xlink="http://www.w3.org/1999/xlink" x="0px"
	 y="0px" viewBox="0 0 711.6 294.9" style="enable-background:new 0 0 711.6 294.9;" xml:space="preserve">
<style type="text/css">
	.st0{opacity:0.32;fill:#F08B3D;enable-background:new    ;}
	.st1{opacity:0.32;fill:#5A288E;enable-background:new    ;}
	.st2{opacity:0.45;fill:#DA5B4D;enable-background:new    ;}
</style>
<path class="st0" d="M377.7,38c-0.5-0.8,0.7-1.4,2.5-1.6c2.7-0.3,4.6,0.1,6.3,1.1c1.9,1.2,4.8,1.5,6.9,0.8c0.6-0.2,1.3-0.6,1.2-1
	c0-0.3-0.8-0.7-1.4-0.9c-0.5-0.2-1.4,0-2.1-0.1c-3.6-0.3-5.1-1.6-4-3.2c0.3-0.5,0.4-1,0.6-1.7c-5,0.1-9.6,0.2-14.1,0.3
	c-1.6,0-2.8,0-2.9-0.9c3-1.5,6.7-1.7,10.9-1.5c3.2,0.2,6.3,0.3,8.6,1.5c1.4,0.8,3.3,0.8,5.2,0.3c-0.7-0.1-1.2-0.4-0.5-0.7
	c0.7-0.4,1.5-0.7,2.2-1.1c-0.5-0.1-0.8-0.4-0.3-0.7c0.2-0.1,0.4-0.2,0.6-0.3c-0.5-0.1-0.9-0.2-1.3-0.4c-0.6-0.2-0.6-0.6,0-0.8
	c0.4-0.1,0.8-0.2,1.1-0.3c-2-0.2-4-0.5-5.9-0.8v-0.7c2-0.3,3.9-0.5,7-0.9c-3.8-0.9-6.5-1.9-9.6-2.2c-3-0.3-6.3,0.1-9.5,0.1
	c-0.2-0.1-0.4-0.3-0.5-0.4c2.1-1.1,4.2-2.2,6.6-3.4c-1.2-0.1-2.1-0.3-2.7-0.2c-2.7,0.4-5.1,0.3-7.7-0.2c-0.9-0.2-2-0.1-3.1-0.1
	c-0.4,0-0.8,0.3-1.1,0.4c0.5,0.7,0.9,1.3,1.6,2.4c-3-0.3-5.1-0.8-7.2-0.8c-2.4,0-4.7,0.5-7.1,0.7c-1.9,1.6-1.9,1.6-5.6,2.1
	c-4,0.6-8.2,1-12,1.7c-3.5,0.7-6.7,0.7-10.2,0.2c-1.4-0.2-3.3-0.5-4.5-0.2c-4.4,0.9-8.5,0.7-12.3-0.2c-4.5,1.1-8.6,2.1-12.9,3
	c-1.2,0.2-3-0.1-4.4-0.4c-6.1-1.1-12.6-0.8-18.8-1.2c-0.7,0-1.5,0.5-2.3,0.5c-1.3,0-3.1,0.1-3.9-0.2c-3.5-1.4-6.8-3-10.2-4.5
	c-1.6-0.7-2.9-1.6-4.7-2.3c-1.6-0.6-5.1-0.4-5.8,0.2c-1.1,1,0.1,1.7,1.8,2.2c2.9,0.9,5.9,1.7,8.9,2.5c1,0.3,2.1,0.6,2.8,1
	c3.8,2.4,8.4,4.5,13.3,6.4c2.2,0.9,1.9,1.7-0.9,2.1c-6.1,0.9-11.9,2.7-18.8,1.4c-0.6-0.1-1.5,0-2,0.2c-1.5,0.4-1.8,0.9-0.5,1.5
	c2,0.5,4.3-1.3,6.3,0.3c-0.6,0.8-1.2,1.7-1.9,2.9c-1.7-0.3-2.8-0.5-4.8-0.9c2.7,2.4,1,3.7-2.6,4.9c-2.7,0.9-5.5,1.9-7.4,3.7
	c5.2-0.6,8.9,0,12.3,1.4c1,0.4,3,0.6,4.3,0.5c3.8-0.3,7.6-0.8,11.4-1.1c2-0.2,4.1-0.1,6.2-0.4c3.4-0.3,5.9,0.6,8.8,1.4
	c0.5-0.5,0.9-0.9,1.1-1.2c0.2-0.4,0.2-0.9,0.4-1.6c7.1,1.4,13.9,2.5,21.2,1.5c0.9,0.7,1.6,1.3,2.7,2.3c1.5-2.4,4.9-3.2,9.2-3.4
	c1.2-0.1,2.6-0.3,3.3-0.7c3.9-2,9-1.4,13.5-1.7c0.8,0.6,1.3,1,2,1.6c7.3-2.4,14.7-2.8,22.4-0.8c1,0.3,2.4,0.3,3.6,0.4
	c8.2,0.3,16.5,0.5,24.7,0.7c0.2,0,0.5-0.2,0.9-0.4c-1.5-2.2-8.1-0.8-9.4-2.5c-2.7,0-4.7,0.1-6.7,0c-2.1-0.1-4.1-0.4-6.1-0.7
	c-2-0.2-4-0.4-6.8-0.7c0.7-1.1,0.7-2.4,1.9-2.7c2.8-0.8,4.5,0.6,6.4,1.4c5.2-1.4,10.1-0.6,14.8,0.3c3.7,0.7,6.5,0.2,8.4-1.4
	c-4.9-0.4-9.8-0.8-14.7-1.2C379.4,39,377.9,38.4,377.7,38z M276.7,29.3c-0.6,0.1-1.3-0.2-2.4-0.3c1.6-0.6,2.1-0.8,2.6-1
	c0.4,0.2,1.1,0.5,1.1,0.7C277.9,28.9,277.3,29.2,276.7,29.3z"/>
<path class="st1" d="M260.3,151.8c-2.3-1.7-7-0.8-6.7-4.2c1.7,0.3,3.2,0.5,4.7,0.7c-0.7-1.7-1.3-3-1.8-4.4c-0.6-1.6-1.5-2.7-4.2-2.8
	c-1.3-0.1-2.6-0.5-3.9-0.8c-2.6-0.6-5.3-1.6-7.9-1.6c-9.1-0.2-18.2-0.2-27.4-0.2c-2.4,0-4.9-0.1-7.3,0.2c-2.1,0.2-4,0.9-3.4,3
	c0.2,0.6-0.6,1.9-1.5,2.1c-3.5,1.1-4.6,3.3-5.7,5.5c-0.3,0.7-0.6,1.6-1.4,1.9c-1,0.5-2.6,0.9-3.7,0.7c-1.4-0.2-2.1-1.2-1.3-2.4
	c0.6-0.8,1.4-1.9-1.1-2.4c-0.4,1-0.8,2-1.4,3.3c-2.3-0.7-4.4-1.3-7.4-2.3c3.2-1.2,5.4-2,7.7-2.8c-1.8-1.8-3.4-3.6-5.2-5.2
	c-0.4-0.3-1.2-0.6-1.8-0.7c-3.4-0.2-6.3-2.1-10-1.5c-1.2,0.2-2.7-0.3-4.1-0.6c-3.1-0.7-6.2-1.6-9.3-2.3c-4.1-1-8.2-2.1-12.5-2.8
	c-5.1-0.9-9.9-2.8-15.8-1.8c-3.1,0.5-7.3-0.8-8.5-3.4c-1.1-2.3-3.3-3.1-6.1-3.4c-4-0.5-8-1.1-12-1.4c-1.9-0.1-4.6,0.1-5.8,0.9
	c-1.7,1.2-6.1,1.2-4.7,4.1c0.1,0.2-0.4,0.6-0.7,0.8c-2.8,1.9-5.6,3.7-8.6,5.7c1.7,1.1,2.9,1.8,3.8,2.4c-0.8,2.4-1.5,4.5-2.2,6.6
	c-0.5,1.7-1.6,2.6-4.3,2.5c-2.6-0.1-5.1,0.1-5.4-2.5c1.3-0.5,2.6-0.9,4.5-1.6c-5.2-1.6-9.9-3-14.5-4.5c0.1-0.2,0.2-0.4,0.3-0.7
	c1.6,0.1,3.1,0.3,5.8,0.5c-3.1-1.5-5.3-2.6-7.8-3.8c-2.3,2.5-4.6,4.8-2.9,7.7c-3.5,2-6.7,3.9-9.5,5.5c-0.1,3.9,5,7,0.6,10.4
	c2.9,2.4,8.7-0.1,10.5,3.5c-3.8,0.2-4,0.3-5.6,1.6c-1.5-0.5-3-0.9-4.9-1.5c0.3,1.3,0.8,2.2,0.5,3c-0.3,0.9-1.4,1.6-2.2,2.4
	c0.8,1,1.5,1.9,2,2.6c-1.3,2.1-2.5,4-3.7,5.9c-1-0.1-2.4-0.2-3.7-0.3c-0.1,0.2-0.2,0.4-0.2,0.6c1.5,0.9,3.1,1.7,4.4,2.5
	c-1.5,1.2-3.9,2.1-3.9,3.1c0,2.3-0.4,5.3,2.5,6.7c2.5,1.2,6.4,1.8,9.4,1.5c3.4-0.4,6.7-0.1,9.2,0.9c3.2,1.3,6.3,1.2,9.5,1.5
	c2.8,0.2,5.5,0.6,8.3,1c3.5,0.5,6.9,1.5,10.3,1.5c5.5,0.1,10.3,1.3,15,3c5.6,2,11.4,4,18,1.9c0.3-0.1,0.7,0,1.1,0.1
	c0.1,0.4,0.3,0.9,0.4,1.2c5.3,0.3,10.6,0.6,16,1c0.8-1.8-0.6-2.4-2.6-2.4c-6.2,0-12.2-1-18.2-2.1c-8.1-1.5-16.4-2.7-24.6-4.1
	c-1-0.2-1.9-0.5-2.8-0.8c3.6-0.2,7-0.2,10.4,0.3c5.8,0.7,11.6,1.6,17.4,2.6c8.1,1.4,16.3,1.8,24.6,1.7c4-0.1,8,0.6,12,1.1
	c1.7,0.2,2.2,1.1,0.5,2.3c-3.6-1.1-7-1.3-9,1.3c1.9,2.2,3.5,4.2,5.3,6.3c2.1-1,3.6-2.6,6.3-1.1c0.6,0.3,2,0,3-0.1
	c4.2-0.7,8.3-0.7,12.6-0.3c3.1,0.3,6.3,0,9.4,0.1c1,0,2.5-0.1,3.1,0.3c3.5,2.5,8.3,1.5,11.1,2.3c2.3-0.8,3.7-1.3,5.2-1.8
	c-3.6-0.5-7-1.7-10.6,0.1c-0.9-0.9-1.9-1.8-3.3-3.1c-2.3,2.7-5.8-0.8-8.4,1.2c-1.8-1.9-5.2-1.6-8.2-2.9c7.7-2,14.6-0.7,21.5,0
	c7.7,0.8,15.2,2.2,22.8,3.3c2.1,0.3,4.2,0.3,6.3,0.4c1.9,0.1,2.3-0.8,2.2-1.9c0,0-0.1,0-0.1,0.1c-0.1-0.1-0.1-0.1-0.2-0.1
	c-1.2-0.1-2.5-0.3-4-0.5c2.5-0.8,2.6-0.8,4,0.5c0.1,0,0.2,0,0.3,0l0,0c2.4-1,4.6-1.9,7.6-1.8c1.8,0.1,3.5-0.7,3.2-2.3
	c-0.4-2.1,1.4-2.6,3.7-2.8c2.7-0.2,4.7-0.9,5.5-2.8c-1.1-2.5-7-2.6-6.3-6.3c4.5,0.6,8.7,1.3,14,2c-1-1.9-1.3-3.1-2.3-4
	c-1.5-1.3-3.3-2.5-5.3-3.5c-2.2-1.1-1.5-1.9-0.1-3.2c1.5,0.5,2.8,0.9,4.2,1.3c0.9-2.4,0.8-2.9-1.9-3.3c-3.4-0.5-6.8-0.5-10.4-0.8
	c-0.3-1.6-0.6-3.2-0.8-4.6c3.2-1.8,6.4-3.5,9.7-5.3c-0.6-0.7-2.4-2.3-2.3-2.4c2.4-1.5-1.1-2.7-0.2-4.2c3.5-0.3,6.9-0.6,9.9-0.9
	c2.3-1.9,1-3.4-0.5-4.8C257.8,152.3,258.8,152.1,260.3,151.8z M63.3,187.1c-0.1-0.3-0.1-0.5-0.2-0.8c2.4-0.9,2.4-0.9,6.1,0.3
	C66.6,186.8,64.9,187,63.3,187.1z M63.2,164.7c0.6-0.4,0.8-0.6,1-0.6c1.5,0.2,2.9,0.4,2.4,2.1C65.4,165.7,64.3,165.2,63.2,164.7z
	 M69.2,162.2c1.7,0.7,3.4,1.1,4.3,2c0.8,0.8,0.8,2.1,1.1,3.1C69,167,68.5,166.5,69.2,162.2z M70.6,185.8c3.2-1.2,4.8,0.1,7.7,1.3
	C74.8,187.5,72.6,188,70.6,185.8z M73.8,157.1c0.7,0.8,1.3,1.5,2.3,2.6c-5.1,0.2-8.7-0.9-12.6-2.2c2.5-2.3,5-1,7.6-0.6
	c1.9-1.3,4.1-2.7,7.5-0.9C77,156.3,75.5,156.7,73.8,157.1z M89.1,189.6c-1.2-0.2-2.5-0.3-3.7-0.5c0.1-0.2,0.2-0.5,0.3-0.7
	c1.2,0.2,2.4,0.5,3.6,0.7C89.2,189.3,89.1,189.4,89.1,189.6z M186.4,156.5c-0.2-0.5-0.5-0.8-0.5-1.2c0-0.1,1-0.4,1.2-0.3
	c0.4,0.2,0.6,0.6,0.9,1C187.6,156.1,187.1,156.2,186.4,156.5z M75.7,137.6c-1.3-0.3-2.7-0.7-4-1c0.1-0.2,0.2-0.4,0.3-0.5
	c1.3,0.3,2.7,0.7,4,1C75.9,137.2,75.8,137.4,75.7,137.6z M100.6,196.1c0.9,0.2,1.9,0.3,2.8,0.5c-0.1,0.3-0.2,0.6-0.3,0.8
	c-0.9-0.2-1.9-0.5-2.8-0.7C100.4,196.5,100.5,196.3,100.6,196.1z"/>
<path class="st2" d="M576.3,187.9c-0.7,0.8-1.2,1.6-1.7,2.4c-0.5,0.7-2,1.3-0.8,2.2c0.9-0.9,1.6-1.8,2.4-2.2c0.8-0.5,2-0.3,3.2-0.3
	c0.1-2.1,1.1-3.1,2.9-4.2c1.7-1,4-2.1,4.5-4.6c0.1-0.5,0.7-0.9,1.1-1.5c0.1,0.3,0.3,0.4,0.5,0.7c-0.2,0.8-0.3,1.5-0.6,2.8
	c3.4-1.9,5.5-4.8,9.3-5.8c-0.7,0.8-1,1.4-1.6,1.9c-1.1,0.8-2.1,1.5-2.9,2.5c-3.1,3.9-6.3,7.6-10.8,10.2c-0.3,0.2-0.7,0.3-0.8,0.6
	c-1,2.4-3.3,3.4-5.2,4.8c-3.2,2.2-6,5.1-9.3,6.1c-1.1,1.4-1.8,2.9-2.8,3.4c-2.7,1.3-5.4,2.3-8.3,3.3c-0.2-2,1.9-4,0.6-5.7
	c-1.2,0.7-2.6,1.4-3.9,2.3c-0.4,0.3-1.1,0.8-1,1c0.1,1.7-1,1.9-2.4,2.2c-0.9,0.2-1.7,1-2.6,1.5c0.5,0.6,0.9,0.9,1.2,1.1
	c1.1-0.4,2.1-0.7,3.1-1c0,0.2,0.2,0.3,0.2,0.5c0.9-1.2,1.6-2.5,2.4-3.7c0.4,0.9,0.8,1.5,1.1,2.4c0.1,0.6,0.3,1.3,0,1.7
	c-1.1,1.3-2.4,3.1-3.7,3.4c-1.7,0.5-3.2,1.4-4.7,2.3c-0.2,0-0.4,0.2-0.8,0.5c0.7,0.1,1.2,0.3,1.5,0.5c-0.1,1.6-0.3,3-0.4,4.6
	c-0.8,0-1.7,0-2.5,0c-0.3,0.6-0.7,1.1-1,1.9c-1.3,0.1-2.2-0.1-2.4-1.4c-0.1-0.6-0.7-0.8-1.2-1.2l-1.7,5.1c-1.6-0.2-2.7-2.3-4.6,0.1
	c0,0.5,0.2,1,0.2,1.6c-1.3,0.2-2.5,0.7-2.2-1.2c0.3-1.4-0.6-1.7-1.9-1.2c-0.5,1.2-0.6,2.4-1.1,3.5c-0.5,1-1.3,1.8-2.1,2.8
	c-0.7,0.8-0.5,2.5-2.4,2.6c0.8-1.6,1.5-3.2-0.7-4.2c-0.2,1.9-0.7,3.7-0.5,5.1c0.1,0.7,1.5,0.8,2.6,1.2c-0.1,0.6-0.4,1.5-0.4,2
	c-0.4,0.1-0.7,0.1-0.8,0.1c-1.6-1.3-3.8,0.1-5.7,0.2c-0.2-0.1-0.6,0.4-0.7,0.5c0.1,1.4-1,1.5-1.7,1.4c-1,0.1-2,0-2.9,0.1
	c-0.3,1.1-0.6,2.2-0.9,3.3c0,0.1-0.4,0.2-1,0.3c0-0.7,0.1-1.5,0.1-2c-2.1-0.3-2.8-0.2-3,1c-0.3,1.4-0.2,2.8-0.4,4.6
	c1.1-1,1.9-1.7,2.6-2.4c0.1,0,0.3,0.1,0.3,0.1c-0.4,1.1-0.9,2.1-1.6,3.6c-2.5-0.5-5.4,2.1-7.5-0.3c-0.2-0.3-1.2,0.2-2.3,0.4
	c0.7,1.8,1.4,3.4,2,5.5c0.8-1.1,1.3-2,2-2.9c1.8-0.5,3.9-1.1,6.5-1.7c-0.8,1-1.2,1.6-1.9,2.4c1.3,0.2,2.3,0.5,3.5,0.7
	c-0.5,0.4-0.9,0.8-1.2,1.1c1,0.5,2.2,0.1,2.7-0.9c0.8-1.3,1.9-1.2,2.8-1.1c0.2-0.5,0.4-1.1,0.7-1.5c1.1-1.2,2.7-1.2,3.2-0.3
	c0.8,1.8,1.4,1.9,3.1,0.7c0.9-0.6,1.8-1.2,2.7-1.9c2,0.8,4.3,0.6,6-0.7c2.5-1.9,4.8-2.2,7.3-2.4c1.4,0,3-0.1,4.4-0.8
	c1.9-1.1,3.4-1.3,4.5,0.5c1.1-2.3,3.3-3.9,5.5-3.8c1.5,0.1,2.5-0.3,3.6-1.1c3.1-1.8,6.2-3.4,9.3-4.8c1.5-0.7,1.7-0.5,1.5,1.3
	c0.8,0.4,0.3,1.2,0,1.9c1.7,0.3,3.5,0.2,5.4-1.2c-0.6,1-1.2,1.8-1.8,2.8c0.7,0.5,1.4,1,2.2,1.6c-0.5,0.4-0.8,0.7-1.1,1
	c-0.4,0.3-0.4,0.5-0.7,0.8c1.6,0.8,2.4-0.9,3.4-1.5c3-1.5,5.9-3.4,8.5-5.8c1.1-1.1,2.6-1.6,4.1-2.5c0.5-0.3,0.9-0.6,1.3-0.9
	c1.1-0.8,2.2-1.7,3.2-2.5c1.3-1,2.6-1.9,3.3-2.5c1.5-0.2,2.6-0.1,3.5-0.6c1.5-0.9,1-2.3,0.7-3.4c0.7-0.6,1.3-1.2,1.7-1.6
	c0.3-0.2,0.6-0.2,0.8-0.5c0.1,0.6,0.3,1,0.3,1.5c1.4-0.1,1.5-0.8,1.6-1.9c0.3-2,1.4-2.9,3.8-3.2c0.2-0.3,0.3-0.6,0.5-1.1
	c1,0.6,2,1,3.3,1.6c-0.1-1.8,2.3-3.7-0.6-4.6c2.4-2,4.6-3.8,6.7-5.6c1.1-0.8,2-1.6,2.9-2.5c2.3-2.3,4.4-4.6,6.6-6.9
	c0.8-0.9,2.2-1.4,2.6-2.3c0.7-2.5,2.6-4.4,3.9-6.5c0-0.1,0.3-0.2,0.6-0.2c0.3,0.3,0.8,0.7,1,1c2.7-1.1,1.3-3.7,2.9-5.3
	c0.7,0.1,1.5,0.3,2.5,0.5l2.5-7.7c0,0,0,0-0.1,0c0,0,0,0,0-0.1c-0.8-0.5-0.8-1.1,0.1-2.2c0.6,0.9,0.8,1.4-0.1,2.2l0,0l0,0
	c0.4,0,0.7,0,1,0c0.7-1.1,1.2-2.9,2.1-3.2c1.6-0.5,2.1-2.2,3.3-2.9c0.4-0.3,0.8-1,0.8-1.4c0-0.3-0.7-0.5-1.1-0.7
	c0.5-1.6,0.9-2.8,1.4-4.3c0.4-1.3,0.6-2.6,1.1-3.7c0.4-1.3,1.3-1.7,2.2-1.1c0.5,0.2,0.8,0.6,1.1,0.8c1.2-1.9,1.2-1.9,0.8-4
	c-0.7-2.9,1.2-5.3,4.3-5.9c0.6-0.1,1.4-1,2.2-1.5c-1.7-1.2-2.1-3.3-1.1-4.8c2.5-3.7,3.4-7.7,4.6-11.8c0.2-0.7,0.2-1.4,0.5-2
	c1.7-2.9,3.4-5.9,2.6-9.1c0.8,0,1.3,0,1.7-0.1c0.4-0.1,1-0.3,1.2-0.4c0-2-1.6-0.3-2.5-0.7c1.1-1.8,3.3-3.1,2.7-5.3
	c-0.5-0.3-1-0.5-1.7-0.8c2-1,2.2-2.9,2.1-3.7c-0.8-2.1-1-3.9,0.9-6.2c0.8-0.9,1.2-2.2,1.6-3.4c0.4-1.1,0.9-2.1,1.4-3.4
	c1.1,0.3,2.1,0.6,3.2,0.8c0.4-1.1,1.4-2.2,1.3-3.1c-0.1-3.1-0.3-6.2-0.6-9.3c-0.3-3.1-0.3-6.2-0.6-9.4c-0.4-3.3-0.8-6.7-1.4-10
	c-1-4.8-2.1-9.6-4.8-13.5c-1.7-2.5-4.1-4.5-4.5-7.8c0-0.9-1-1.4-1.4-2.3c-1.1-2.2-4.2-3.5-2.8-7.1c0-0.1-0.1-0.4-0.2-0.4
	c-1.7-1.4-2-3.7-2.6-5.7c-0.9-3.1-3.5-3.8-5.7-5.2c-0.5-0.2-1.5,0.2-2.2,0.6c-0.6,0.2-1.2,0.8-1.9,1.3c-1-0.8-2.1-1.4-3.1-2.2
	c-0.7,1.6-1.3,2.9-2,4.2c-0.3,0.5-1,1.2-1.3,1.1c-0.4,0.1-0.9-0.5-1-1c-0.3-2.7-1.9-4.5-4.1-6c-1.7,2.2-3.9,2.8-6.2,3.3
	c-0.4,1.6-0.7,3-1,4.4c-0.2-0.1-0.4,0.1-0.6,0c0-2.3,0-4.6,0.1-7.3c-1,1.1-1.8,1.7-2.7,2.7c-1.3-2.2-2.2-4.7-5.8-3.9
	c-0.9,3.3-1.7,6.7-2.6,10.1c0,0.1,0,0.2,0,0.3c-0.2,1.3-0.3,2.8-0.6,4c-1,4-2,8-3.3,11.9c-0.9,2.4-2.2,5-4,7.2
	c-1.4,2-2.8,3.9-3.8,6.1c-0.2,0.5-0.4,0.9-0.6,1.4c0.1,0.1,0.2,0.2,0.1,0.3c-0.2,9.3-2.1,18.8-4.3,28.3c0.1,0,0.1,0,0.2,0.1
	c0,0.5,0.2,1,0.2,1.5c-0.3,3.9-0.5,7.6-0.7,11.6c0,1.4-0.1,2.7,0,4c0.1,1.7,1,3.3-0.8,5.3c-0.2,0.3-0.2,0.8-0.2,1.1
	c-0.2,3.1-0.3,6.1-0.5,9.2c-1.7,1-3.5,1.9-5,2.8c-0.3,1.6-1.2,3.1-2.3,4.6c-1,1.3-1.6,2.5-2.3,3.7c0.4-0.4,0.9-0.7,1.4-1.1
	c1,1.8,0.8,2.3-1.3,3c0,0.9,0,1.8,0.1,3.1c-0.8-0.4-1.3-0.8-1.8-1.1c-0.8,2.1-1.5,4-2.7,5.7c1.3,1.2,0.5,3.4,1.5,4.8
	c0.4,0.6,0.4,1.4,0.7,2.2c1.5-2.2,2.6,0.2,4.3-1.4c-0.6,1.2-0.7,1.6-1,2.4c0.9,0.5,3.1,0.2,1.8,2.5c-0.2-0.1-0.5,0-0.7,0
	c-0.3,0.1-0.6,0.1-1.4,0.3c3,1.5,4.1,0.7,6-3.9c1.1,2.2-0.8,3.7-2.1,5.5c2.9-0.8,4-3.3,5.8-4.9c-0.2,1.5-1.1,2.7-2.1,3.8
	c-1,1-2.4,2.2-2.7,3.4c-0.6,1.8-1.5,2.6-3.2,3c-0.9,0.2-2.1,0.1-2.4,1.7c1.4,0.1,2.1,0.8,1.7,2.5c-3,2.1-4.5,6.5-8.6,7.1
	c-0.7,1.2-0.7,2.6-1.5,3.2C582.2,184.4,579.7,187.2,576.3,187.9z M511.8,247.9c0-0.2-0.2-0.4-0.1-0.8c0.1-0.3,0.3-0.5,0.8-1
	c-0.1,0.8-0.1,1.2-0.1,1.3C512.2,247.7,512,247.7,511.8,247.9z M515.3,247.8c-1.1-0.9-0.9-1.7,0.6-2.6
	C515.7,246.3,515.5,246.9,515.3,247.8z M528.2,230.5c0.4-0.3,0.7-0.5,0.8-0.6c0.3,0.1,0.5,0.4,0.8,0.6c-0.4,0.3-0.5,0.4-0.7,0.7
	C528.6,231.1,528.4,230.9,528.2,230.5z M576,237.9c-0.3,0.2-0.7,0.5-1,0.6c-0.2-0.1-0.4-0.3-0.8-0.8c0.6-0.2,0.9-0.5,1.1-0.4
	C575.7,237.3,575.8,237.6,576,237.9z M568.3,237.7c0.1-1.9,1.3-1.9,2-2.4c0.2,0.2,0.2,0.3,0.3,0.4
	C570.2,236.2,569.5,236.8,568.3,237.7z M573.9,235.9c-0.3,0.4-0.7,0.7-1,1.1c-0.2-0.2-0.3-0.3-0.4-0.5c0.4-0.4,0.9-0.8,1.2-1
	C573.7,235.7,573.9,235.7,573.9,235.9z M534.5,232.7L534.5,232.7c-0.1,0.1-0.1,0.1-0.1,0.1c0,0.9,0,1.8,0.2,2.6
	c-3.5,2.1-5.7,1.8-7.6-1c2.2-1.2,3.2-0.2,4.4,1.1c1-0.9,2.1-1.8,3-2.8l0-0.1C534.4,232.6,534.5,232.7,534.5,232.7
	c0.5-0.4,1.1-0.9,2.3-1.8C536.2,232.6,535.3,232.5,534.5,232.7z M546.6,228.2c-0.6,0.2-0.8,0.5-1.2,0.5c0-0.2-0.2-0.5-0.2-0.6
	c0.2-0.2,0.4-0.4,0.7-0.4S546.3,227.9,546.6,228.2z M602.2,218.4c-0.1,0.8,0.1,1.5-0.3,2.2c-0.6,1.3-3.3,2.9-4.9,3.4
	c1.5-2,3.1-3.9,4.6-5.7L602.2,218.4z M558.5,213.3c-1.8,2.7-4.2,2.7-6.8,3.3c1-3.4,4.7-1.2,5.1-4.7
	C557.7,212.6,558.1,212.9,558.5,213.3z M571.1,202.9c-0.7,0.7-0.6,2.2-2.3,2.3c-1.1,0-1.7,2.5-3.7,1.2c2.1-1.5,3.9-2.7,5.6-4
	C570.9,202.7,571,202.9,571.1,202.9z M575.4,199.4c-0.2,0.3-0.4,0.8-0.7,1c-0.3,0.2-0.7,0.3-1,0.4c0-0.2-0.1-0.3-0.1-0.6
	c0.5-0.4,1.2-0.8,1.8-1.2C575.1,199.2,575.1,199.3,575.4,199.4z M620,52.9c0.4-1,0.8-1.9,1.3-2.9c0.2,0.1,0.3,0,0.5,0.1l-1,2.9
	C620.6,53,620.3,53,620,52.9z M592.3,176.1c0.5-0.3,0.9-0.4,1.4-0.7c0,0.2,0.2,0.4,0.1,0.6c-0.4,0.3-0.9,0.5-1.3,0.9
	C592.5,176.6,592.2,176.3,592.3,176.1z M442.7,245.4c1.1-1.3,1.3-3.2,3-4c0.1-0.1-0.1-1.3-0.2-2.1c-0.6,0.3-0.9,0.6-0.9,0.9
	c0,1-0.6,1.3-1.5,1.2c-0.9-0.1-0.9-0.8-0.4-1.6c0.4-0.7,1.1-1.3,1.6-2c2.5,1.2,4.8,2.5,6.5,4.2c-0.1,0.3-0.3,0.5-0.2,0.7
	c-1.1,0-2.3,0.3-3.5,0.3c1.6,1.1,3,2,4.7,3.1c0.2-0.8,0.1-1.2,0.3-1.7c0.1-0.4,0.4-0.9,0.4-0.9c1.5,0.2,2.7,0.2,3.8,0.4
	c1.1,0.3,2.2,0.5,3.5,1c-0.1-1.3-0.3-2.1-0.3-3c-0.6,0.2-1.1,0.4-1.8,0.6c0.5-2.9-2.9-1.7-3.3-4c-0.7,0.9-1,1.4-1.4,2
	c-0.9-0.4-1.8-0.7-2.7-1c-2.3-1-2.3-2,0.1-4.5c1.7,0.7,3.2,1.7,5,2.2c1.9,0.6,4,0.9,6,1.4c0.4,2.5,0.9,2.6,3,1.6
	c0.8-0.4,1.7-0.6,2.5-0.6c1.3-0.1,2.4,0.4,3.7,0.3c3.3-0.1,6.2,0.3,8.9,1.8c0.6-1,1.3-2,2.2-3.3c-2.9-0.2-4.6-2.7-7.9-2.1
	c-1.7,2.4-1.9,2.5-3.8,2.4c-2.2-0.1-4.3-0.2-4.2-3.3c-3.6,2-5.9,0.7-8.4-0.5c-1.6-0.7-3-1.6-4.6-1.7c-2.6,0-3.7-1.8-5.3-2.9
	c-0.3-0.1-0.1-1-0.2-1.5c3.2,0.3,5.6,1.5,8,2.8c0.8,0.5,2.1,1.2,2.8,1c1.3-0.7,1.8-0.2,2.5,0.5s1.2,1.2,2.6,0.9
	c-0.2-2.2-1.9-3.1-3.3-3.2c-2.7-0.4-4.4-1.8-5.7-4c-0.1-0.1-0.4,0-0.6-0.1c-1.6,2.8-3.2,3.2-5,1.2c-0.2-0.2-0.2-0.3-0.3-0.4
	c-0.2-0.9-0.8-1.1-1.9-1.1c-1,0.1-2-0.4-2.9-0.8c-3.5-1.4-7-2.8-10.4-4.3c-5.6-2.5-9.4-7-13.5-11.2c-0.2-0.3-0.1-1-0.1-1.3
	c1.3,0.8,2.2,1.9,3.2,2.9c1,1,2.3,1.3,4.3,1c-0.9-0.6-1.5-1.2-2.2-1.6c-1.3-1.2-2.7-2.2-4.1-3.3c-2.7-2.5-5.9-4.6-8.4-7.3
	c-4.3-4.8-8.1-10-11.9-15.3c-4.9-6.6-9.7-13.3-13.3-21c-0.5-1.1-1.6-1.5-3.1-1.5c0.1,0.9,0.2,1.4,0.4,1.9c2.1,8.7,6.6,16,10.3,23.9
	c1,2.1,2.4,4,3.5,5.9c1.3,2.1,2.4,4.1,3.6,6.2c1.1,1.9,2,3.8,3.1,5.6c1.3,2.2,2.5,4.5,3.8,6.8c1.1,1.8,2.1,3.9,3.7,5.1
	c2,1.5,2.8,3.7,4.4,5.5c0.5,0.6,0.5,1.8,0.6,2.6c-0.1,2.5,1.1,4.1,2.8,5.7c0.1-2,0.1-3.4,0.3-5.4c0.9,0.1,1.8,0,2.3,0.2
	c1.9,1.7,3.2,3.6,1.8,7c2.9,0.5,4.1,2.2,3.9,5.1c0.2,0.1,0.4-0.1,0.6,0c0.6-1.4,1.3-2.6,2.2-4.4c1.3,0.9,2.3,1.8,3.5,2.5
	c0.8,0.5,1.4,1.1,0.8,2.3c-0.6,1.5,0.1,2.2,1.3,3.4c0-1.6-0.8-2.7,1-3.8c-0.3,1.5,0.3,2.2,1.6,2.6c0.9,0.3,1.6,1.5,1.9,2.5
	c0.2,0.4-0.7,1.5-1.1,2.2C441.5,246.9,442.2,246.1,442.7,245.4z M444.1,228.1c0.3-0.2,0.4-0.4,0.6-0.4c0.1,0,0.4,0.2,0.3,0.3
	c-0.1,0.2-0.2,0.3-0.5,0.8C444.3,228.5,444.1,228.3,444.1,228.1z M442.1,236c-1.2-1.8-4.3-2.1-4.5-4.8c2.6,1.1,5.6,1.5,6.4,5
	C443.3,236,442.4,236.2,442.1,236z M445.8,236c0.2,0,0.6-0.2,0.8-0.4c0.1,0.6,0.3,0.9,0.3,1.5c0,0-0.5,0.3-0.7,0.3
	C446,236.9,445.9,236.5,445.8,236z M440.1,238.8c0-0.3,0.1-0.7,0.3-1.2c1.2,0.3,1.3,1,0.3,2.4C440.3,239.4,440.2,239.2,440.1,238.8z
	 M532.4,221.9c-1.6-1.7-3.6-1.7-8.3,0.6c0.7-1.1,1.1-2.3-0.3-2.5c0.3-0.5,0.6-1,1.1-1.9c1.3,2.2,3.3,1.3,5.4,1
	c2.1-0.2,4.1-0.4,6.5-0.8c0.3-0.8,0.6-1.8,1-3.1c-0.9,0.9-1.5,1.6-2.5,2.5c-0.1-1.1-0.1-1.7-0.2-2.8c-1.3,0.6-2.4,1.1-3.9,1.7
	c0.4-0.7,0.8-1.5,1.1-1.6c2.6-0.3,5-0.5,7.3-0.8c0.2,2.4,0.4,4.4,0.6,6.5c0.4,0.7,2.4-0.7,2,1.2c-1.2,0.2-2.3,0.6-3.6,0.9h0.1
	c-0.4-0.9-0.8-1.8-1.5-2.9c-0.6,0-1.8,0.2-2.9,0.3c-0.7,1.6-1.3,3-2,4.8c-0.9-0.4-1.7-0.7-2.8-1.3
	C530.7,222.6,531.6,222.2,532.4,221.9z M454.5,258.3c-0.7,0.1-1.6,0.2-2.9,0.3c0.3-2.7,0.6-5.2-1.3-6.9c-0.2-0.2-0.2-0.3-0.4-0.3
	c-0.7-1.1-2.6-0.6-2.8-2.3c-0.2-1.1-1.3-2-2.1-3.1c1.7-0.9,3.2,0,3.5,1c0.7,2.2,2.8,2.6,4.4,3.5c1.2,0.7,2,1.1,2.3,2.6
	c0.3,1.4,1.6,2.4,2.6,3.5c-0.2,0.2-0.3,0.4-0.5,0.6c-0.8-0.6-1.7-1.1-2.5-1.7C452.3,256.5,455.4,257,454.5,258.3z M622.9,212.1
	c-0.9,0.6-1.7,1.4-2.4,1.6c-0.6,0-1.1-0.9-1.9-0.2c-0.6,0.6-0.9,1.6-1.4,2.4c2.1-0.2,3.1,0.6,2.5,2.1c-0.4,1-0.3,1.6,0.2,2.3
	c0.2,0.3,0,0.9,0,1.3c0.5,0.5,1,1,1.8,1.5c0.3-0.6,0.8-1.3,0.8-1.4c-1-1.1-0.1-1.8,0.7-2.8c0.8-1,1.8-1.9,2.9-3.1
	c-1.7,0-3.1-0.1-4.5-0.2C622,214.4,623.4,213.7,622.9,212.1z M622.1,217.5c-0.1,0.2-0.3,0.6-0.5,0.7c-0.1,0.1-0.3-0.1-0.7-0.3
	c0.4-0.3,0.5-0.6,0.7-0.6C621.7,217.1,622.1,217.4,622.1,217.5z M491.4,254.8c2.7-2.3,4.7-1.9,5.5,0.7c0.3,0.8,1.2,1.5,1.8,2.3
	c-0.2,0.2-0.3,0.4-0.3,0.5C495.8,257.4,491.7,259.2,491.4,254.8z M564.2,199.2c-0.4,1-0.8,1.9-1.3,2.9c-1,0.2-2,0.3-3.1,0.4
	c1.9-3.4,5.1-4.9,8-7c0.9,1.5,0.4,2.7-0.4,3.8C566,200.9,565.4,198.9,564.2,199.2z M466.9,256.5c-0.5,1.8-0.7,3.5,0.6,4.6
	c-2.6,2-2.6,2-4.2,0.3c0.9-0.4,1.6-0.6,2.5-1c-0.6-0.9-1.1-1.3-1.7-2.2C465.1,257.6,466,257,466.9,256.5z M496.9,248.5
	c-0.2-0.5-0.3-1.6,0.1-2.2c0.3-0.5,1.4-1.1,2-1c0.8,0,1.6,0.6,3,1.1c-1.4,1.1-2.3,1.8-3.3,2.3C498.1,249,497,248.8,496.9,248.5z
	 M619.6,221.6c-0.6,0.5-1.3,1.2-1.7,1.7c-1.3,0.1-2.3-1-3.7,0.5c-0.3,0.4-1.9-0.1-3.3-0.3C614.2,221.9,616.8,219.8,619.6,221.6z
	 M459.2,256.7c0.8-0.9,1.5-1.6,2.6-2.7c-0.4,2.5,1.9,3.8,0.3,6.9C460.9,259.4,460.1,258.2,459.2,256.7z M520.2,220.1
	c1.2-0.1,2.4-0.1,3.5-0.2c-2.2,1.5-4.3,1.8-6.5,1.3c-0.3-1.9-0.5-3.6-0.8-5.2c0.6,0.6,1.7,0.5,1.3,2
	C517.3,219.4,518.3,220.2,520.2,220.1z M496.3,237c1.3-1.6,2.6-3.1,3.8-4.6c0.1,0,0.3,0,0.4,0c-0.3,1.8-0.7,3.8-1.1,5.9
	C498.1,237.7,497.2,237.3,496.3,237z M585.6,165.8c-2.6-1.5-2.1-3.6-1.2-6.3C586.2,161.3,585.2,163.6,585.6,165.8z M672.7,131.4
	c0.3-2.1,0.5-3.8,0.8-5.5c2.3,0.4,1.5,2.2,1.5,3.7C674.9,130.8,673.9,131.2,672.7,131.4z M465.5,252.2c1.1-0.8,1.8-1.3,2.3-1.8
	c0.3,0.8,0.5,1.5,0.9,2c0.6,0.5,1.4,0.8,0.8,2.1C468.3,253.8,467.1,253,465.5,252.2z M591.8,172.5c-1.4,0.4-2.3,0.7-3.5,0.9
	c-1.4-1-0.5-3-0.7-5.2c0.6,0.6,1.2,0.8,1.4,1.3C589.7,171.8,589.6,171.7,591.8,172.5z M663.7,153.9c-0.9,1.8-1.5,3.1-2.1,4.3
	c-1.2,0.5-2.4,1.3-3.5,1.9c-0.2-0.2-0.2-0.3-0.4-0.3C659.6,158,661.4,156.2,663.7,153.9z M490.8,235.8c-0.6-0.2-1-0.3-2-0.6
	c1-0.5,1.7-0.8,2.3-1.1c0.5,0.6,0.9,1.3,1.5,1.3c0.5,0.1,1.2-0.9,1.3,0.5c-1.6,0.4-3.3,0.9-4.8,1.3c-0.1-0.1,0-0.3-0.1-0.4
	C489.7,236.5,490.2,236.3,490.8,235.8z M566.8,239.6c-0.3,0.6-1.6,1.6,0,1.9c-0.5,0.4-1,0.9-1.6,1.5c-0.8-0.6-1.4-1.2-2-1.7
	C564.6,239.3,565.1,239.1,566.8,239.6z M507,236c-0.1,0.6,0,1.3,0,1.9c-0.2,0-0.6,0.2-0.8,0.4c0-1.3-2.1-1.5-0.8-3.3
	c0.4-0.6,1.5-0.8,2.6-1.3C507.6,234.7,507.2,235.3,507,236z M606.7,224.5c-0.6,1-1.9,1.9-3,2.9c-0.2-0.2-0.2-0.3-0.4-0.3
	c1-1.4,2.2-2.8,3.2-4.2c0.3-0.5,0.5-1.1,0.7-1.6C608.3,222.3,607.3,223.7,606.7,224.5z M630,207.2c0.8,0.2,1.6,0.6,2.7,1.1
	c-0.9,0.7-1.6,1.3-2.3,1.8C629.8,209.2,628.6,208.7,630,207.2z M609.7,225.2c0.3,0.7,0.2,1.4,0.3,2c-0.7,0.2-1.4,0.4-2,0.6
	c-0.5,0.1-1.2,0.3-2.1,0.6C606.9,226.5,608.2,226,609.7,225.2z M629.8,202.6c-1.6,1.7-2.6,2.8-3.8,4.2
	C626,203.9,626.4,203.6,629.8,202.6z M580.2,167.3c-0.3-0.3-0.6-0.7-0.8-1c1.5-1.1,2.9-0.9,2.7,0.3c0.1,0.8-0.7,1.3-1.6,1.2
	C580.7,167.6,580.3,167.4,580.2,167.3z M531.6,213.5c-3.6,1.4-3.7,1.4-3.2-0.9C529.3,213,530.2,213.2,531.6,213.5z M510.1,230.9
	c-1.3-0.2-2.3-0.5-3.3-0.8C509.7,228.8,509.7,228.8,510.1,230.9z M517.1,225.8c0.8-1.3,1.3-2.3,2.2-3.7c0.2,1.2,0.3,2.2,0.5,3.1
	C518.9,225.6,518.3,225.7,517.1,225.8z M469.8,256.6c0.4,0.7,0.4,1.4,0.9,2.6c-1.9-0.1-2.7-0.4-2.2-1.7
	C468.5,257.2,469.2,257,469.8,256.6z M674.1,114.8c0.2-1.1,0.3-2.1,0.5-3.3c0.6,0.1,1.1,0.2,1.9,0.3
	C675.4,112.9,675.8,114.3,674.1,114.8z M523.1,227.4c1-0.3,1.8-0.6,3-1C525.3,228.1,525.3,228.1,523.1,227.4z M569.9,244.9
	c-1.2,0.5-2.4,1.2-3.6,1.8C566.7,245.3,567.5,244.8,569.9,244.9z M649.3,180.8c0.3-0.1,0.5-0.1,0.9-0.2c0.9,0.8,0.8,1.6-0.6,3.5
	C649.6,182.4,649.5,181.6,649.3,180.8z M540.8,212.6c-0.9-0.5-1.8-1-2.7-1.5C540.3,210.4,541,210.7,540.8,212.6z M674.6,120.5
	c0-1.3,0-2.4,0-4.2C675.8,117.7,676,118.9,674.6,120.5z M523.2,225c1.8-1.3,1.8-1.3,3.1,0C525.4,224.9,524.5,224.9,523.2,225z
	 M490.2,240.7c-0.9-0.5-1.4-0.9-2.1-1.2C490.4,238.1,490.4,238.1,490.2,240.7z M519,234.2c0-0.1,0-0.1,0.1-0.2
	C519.1,234,519.1,234,519,234.2L519,234.2c0.6,0.9,0.6,0.9-0.4,2.1c-0.5-0.3-1-0.6-1.5-0.9c0.1-0.1,0.2-0.3,0.3-0.4
	C518,234.7,518.4,234.5,519,234.2z M609.4,232.3c-0.1,0.2-0.2,0.3-0.3,0.6c-0.6-0.2-1.4-0.2-2.1-0.4
	C608.3,230.6,608.7,231.7,609.4,232.3z M607.6,230.3c1.2-1.2,1.8-1.8,2.3-2.6c0.2,0.6,0.3,1.3,0.4,2.1
	C609.6,229.9,609,230,607.6,230.3z M532.5,252.4c0.7-0.4,1.5-0.9,2.3-1.5C534.3,252.9,534.3,252.9,532.5,252.4z M509.1,238.4
	c0.7-0.7,1.4-1.4,2.2-2.1C511.3,238.4,511.3,238.4,509.1,238.4z M440.6,256.6c0.2-1.1,0.3-1.9,0.4-2.6c0.2,0,0.4-0.1,0.7-0.1
	C442.2,254.7,442.5,255.6,440.6,256.6z M672.2,134.7c0.2,0,0.4-0.2,0.8-0.4c0.8,0.6,0.2,1.7,0.3,2.5c-0.2,0-0.4,0.2-0.6,0.2
	C672.5,136.4,672.3,135.5,672.2,134.7z M615.8,217.4c-0.7,0.7-1.6,1.6-2.4,2.3c-0.1-0.3-0.4-0.3-0.5-0.6c0.9-0.8,1.6-1.5,2.5-2.3
	C615.6,217,615.7,217.2,615.8,217.4z M582.5,176.9c0.3,0.8,0.6,1.5,1.1,2.9C581.9,179.2,582.3,178.1,582.5,176.9z M467.2,242.3
	c-0.1,0.6-0.3,1.1-0.4,1.7c0,0-0.5,0.1-0.5,0c-0.1-0.6-0.2-1-0.2-1.5C466.5,242.3,466.8,242.4,467.2,242.3z M610,227.5
	c0-0.1,0.1-0.3,0.1-0.4c1.1-0.6,2.1-1.4,2.6,0.5C611.7,228.2,610.7,227.8,610,227.5z M510.9,217.9c-0.3-0.3-0.6-0.9-0.9-1.2
	c0.3-0.2,0.5-0.4,0.8-0.7c0.3,0.4,0.5,0.8,0.8,1.2C511.5,217.3,511.1,217.6,510.9,217.9z M479.4,245.2c1.2-0.5,1.8-0.8,2.8-1.3
	C481.6,245.8,480.8,245.7,479.4,245.2z M488.6,268.5c-0.2-0.2-0.4-0.2-0.5-0.4c0.3-0.5,0.6-1,1-1.6c0.3,0.1,0.5,0.4,0.6,0.5
	C489.5,267.7,489.1,268,488.6,268.5z M475.7,263.2c0.7,0.1,1.3,0,1.9,0.1c-0.1,0.2-0.1,0.4-0.2,0.7c-0.7-0.1-1.3-0.1-2-0.2
	C475.7,263.5,475.7,263.3,475.7,263.2z M561.2,245.3c-1.1,0.6-1.7,0.9-2.4,1.3C559.1,244.9,559.7,244.9,561.2,245.3z M513.7,217.3
	c0,0.9,0.1,1.8,0.2,3.1C512.3,219.6,513.4,218.4,513.7,217.3z M591,163.1c-0.7-0.5-1.3-0.7-1.8-1.1
	C590.5,161.2,590.5,161.2,591,163.1z M480.1,251.8c0.3-0.5,0.4-1.1,0.7-1.6c0.2,0.1,0.4,0,0.6,0.1c-0.1,0.3-0.1,0.7-0.3,0.9
	c-0.2,0.2-0.4,0.5-0.6,0.6C480.4,252,480.3,252,480.1,251.8z M494.4,252.1c-0.1-0.1-0.2-0.3-0.3-0.3c0.6-0.5,1.1-1,1.7-1.5
	c0.1,0.3,0.2,0.3,0.3,0.5C495.4,251.2,494.9,251.7,494.4,252.1z M450.1,262.2c0.2-0.6,0.5-1.2,0.6-1.8
	C451.8,261.4,451.8,261.4,450.1,262.2z M459.8,260.6c-0.1,0.2-0.3,0.5-0.3,0.6c-0.5-0.2-1-0.3-1.5-0.4c0.1-0.3,0.3-0.5,0.2-0.7
	C458.8,260.3,459.4,260.4,459.8,260.6z M663.5,169.5c-0.1,0.9-0.1,1.6-0.2,2.7C662.1,171.4,661.9,170.6,663.5,169.5z M504.5,245
	c0.1-0.3,0.1-0.5,0.2-0.8c0.6,0,1.2-0.1,1.8-0.1c-0.1,0.2,0,0.4-0.1,0.6C505.8,244.9,505.2,244.9,504.5,245z M627.9,213.5
	c0.4-0.8,0.9-1.6,1.3-2.3c0.2,0.1,0.3,0.1,0.5,0.2c-0.2,0.7-0.7,1.6-1,2.4C628.3,213.6,628.1,213.6,627.9,213.5z M635.9,195.4
	c0.5-0.9,1.1-1.7,1.5-2.6c0.2,0.2,0.3,0.1,0.5,0.3c-0.6,0.9-1.2,1.8-1.8,2.7C636.2,195.6,636.1,195.5,635.9,195.4z M576.2,168.6
	c0.5-0.4,1.1-1,2.2-1.8C578,169,577.2,168.9,576.2,168.6z M661.7,158.3c0.5-0.1,1.2-0.2,1.7-0.5c0.2,1.2-0.8,1.4-1.5,1.5
	C661.8,159.4,661.8,158.6,661.7,158.3z M586.4,154.8c-0.1,0.1-0.7-0.3-0.6-0.6c0.1-0.4,0.5-0.7,1.1-1.2c0.3,0.4,0.7,0.8,0.7,0.9
	C587.2,154.4,586.8,154.6,586.4,154.8z M509.5,259.7c0-0.1,0.4-0.4,0.7-0.7c0.2,0.4,0.5,0.7,0.3,0.9c-0.1,0.2-0.4,0.4-0.7,0.5
	C509.8,260.2,509.6,260,509.5,259.7z M444.3,252.2c-0.2,0-0.5,0.3-0.7,0.3c-0.1-0.6-0.4-1-0.5-1.5c0.2,0,0.4-0.3,0.6-0.3
	C443.9,251.3,444,251.8,444.3,252.2z M488.5,256.5c0.1-0.5,0.1-1,0.2-1.5c0.3,0,0.5,0,0.8,0c-0.2,0.5-0.2,1-0.4,1.6
	C488.9,256.4,488.7,256.5,488.5,256.5z M507.5,259.1c0.5,0.7,1,1.4-0.6,2.4C507.1,260.5,507.2,259.8,507.5,259.1z M655.5,170.2
	c0.1-0.6,0.3-1.1,0.4-1.6c0.2,0.1,0.4,0,0.7,0.1c-0.2,0.6-0.4,1.1-0.6,1.7C656,170.2,655.5,170.2,655.5,170.2z M553.9,251.4
	c0.6-0.2,1.2-0.5,1.9-0.8c0.1,0.1,0.1,0.3,0.2,0.4c-0.6,0.3-1.2,0.6-1.7,1C554,251.9,554,251.6,553.9,251.4z M481.2,256.3
	c0.4-0.2,0.7-0.4,0.9-0.4c0.2,0.1,0.3,0.3,0.3,0.5c-0.3,0.2-0.5,0.4-0.7,0.3C481.4,256.9,481.4,256.7,481.2,256.3z M521.5,256.7
	c0.2-0.3,0.4-0.5,0.7-0.7c0.1,0.1,0.4,0.2,0.3,0.3c-0.1,0.3-0.3,0.6-0.7,1.2C521.7,257,521.4,256.8,521.5,256.7z M519.2,233.9
	c0-0.9-0.2-1.6,0-2.3C520.1,232.1,519.4,233.1,519.2,233.9z M601.1,238.8c0.3-0.5,0.6-1,0.9-1.5c0.2,0.2,0.3,0.1,0.5,0.2
	c-0.3,0.5-0.6,1-1,1.5C601.3,238.9,601.2,238.8,601.1,238.8z M441.8,249.4c-0.2,0.2-0.2,0.3-0.3,0.5c-0.5-0.2-0.8-0.5-1.3-0.8
	c0.2-0.2,0.2-0.3,0.3-0.5C440.8,248.9,441.4,249.2,441.8,249.4z M502.4,230.6c-0.3,0.2-0.5,0.4-0.8,0.6c-0.1,0-0.3-0.1-0.7-0.5
	C501.7,230.6,501.9,230.7,502.4,230.6z M518.9,231.4c-0.6-0.1-1.1-0.3-1.8-0.3C518.6,229.7,518.7,230.7,518.9,231.4z M423.4,241
	c-0.2-0.2-0.2-0.4-0.4-0.7c0.3-0.2,0.5-0.4,0.7-0.4c0.1,0.3,0.2,0.5,0.2,0.9C424.1,240.8,423.6,241,423.4,241z M616.5,214.2
	c-0.1,0.2-0.4,0.5-0.6,0.4c-0.1,0-0.2-0.3-0.5-0.6c0.5-0.3,0.7-0.4,1-0.5C616.5,213.8,616.6,214.1,616.5,214.2z M498.8,243.3
	c-0.2,0.3-0.5,0.4-1,0.9c0-0.5-0.1-0.8,0-0.9c0.2-0.2,0.4-0.4,0.7-0.5C498.6,242.9,498.8,243.2,498.8,243.3z M503.5,249.1
	c-0.1-0.1-0.1-0.3-0.1-0.4c0.4-0.2,0.9-0.4,1.3-0.6c0.1,0.1,0,0.2,0.1,0.3C504.4,248.7,503.9,249,503.5,249.1z M471.3,244.6
	c0-0.1,0.2-0.2,0.2-0.3c0.5,0.2,0.8,0.3,1.2,0.4c-0.2,0.2-0.3,0.4-0.5,0.6C472,245.1,471.6,244.9,471.3,244.6z M486.9,254.4
	c-0.2,0.5-0.3,0.9-0.4,1.4c-0.2-0.1-0.3,0-0.5-0.1c0.2-0.5,0.3-0.9,0.4-1.4C486.6,254.3,486.9,254.4,486.9,254.4z M434,239.3
	c0,0.1-0.4,0.4-0.5,0.3c-0.2-0.3-0.3-0.4-0.6-0.9c0.5-0.3,0.7-0.3,0.9-0.4C434,238.7,434.1,239,434,239.3z M585.3,156
	c-0.2,0-0.4,0.3-0.6,0.3c-0.2-0.4-0.3-0.8-0.5-1.3c0.1-0.1,0.3-0.2,0.5-0.3C584.9,155.1,585.1,155.6,585.3,156z M507.1,216.4
	c-0.1,0-0.2-0.3-0.2-0.4c0.2-0.2,0.4-0.4,0.7-0.6c0.1,0.4,0.2,0.6,0,0.9C507.7,216.4,507.3,216.4,507.1,216.4z M516.3,229.2
	c0-0.1,0-0.4,0-0.4c0.4-0.1,0.9-0.3,1.2-0.2c-0.1,0.2,0,0.3-0.1,0.5C517.2,229.1,516.8,229.1,516.3,229.2z M433.6,218.6
	c-0.1,0.1-0.3,0.2-0.6,0.2c-0.1-0.3-0.2-0.4-0.3-0.6c0.1-0.1,0.5-0.3,0.5-0.3C433.3,218.2,433.3,218.5,433.6,218.6z M670.6,142.3
	c0.1-0.1,0.3-0.1,0.5-0.1c0,0.4,0,0.9,0,1.3c-0.1,0.1-0.3,0.1-0.4,0.2C670.6,143.1,670.6,142.7,670.6,142.3z M485.1,234.5
	c0.2,0.2,0.3,0.3,0.4,0.5c-0.1,0.1-0.4,0.3-0.5,0.3s-0.2-0.3-0.3-0.3C485,234.7,485.1,234.6,485.1,234.5z M579,173.1
	c-0.2,0-0.5,0.1-0.7,0.1c-0.1,0,0-0.3,0-0.6c0.3,0,0.5,0,0.8,0C579.1,172.5,579.1,172.8,579,173.1z M512.1,234.9
	c-0.4-0.2-0.6-0.4-0.8-0.6c0.2,0,0.5-0.1,0.8-0.1C512.1,234.3,511.9,234.5,512.1,234.9z M476.7,229.5c0.3-0.2,0.6-0.3,0.8-0.4
	c0.1,0,0.2,0.3,0.2,0.5c-0.2,0-0.5,0.1-0.9,0.3C476.8,230,476.8,229.8,476.7,229.5z M521,229.7c0.1,0.3,0.2,0.6,0.2,0.9
	c0,0.1-0.5,0.3-0.9,0.4c-0.1-0.4-0.3-0.7,0.1-1.2C520.4,230,520.9,229.8,521,229.7z M657.8,163.7c0.2,0.1,0.5,0,0.7,0
	c0,0.4-0.2,0.8-0.2,1.2c-0.1,0-0.3,0.1-0.4,0.1C657.7,164.4,657.9,164,657.8,163.7z M601.6,125.2c-0.5-0.1-1.3,0.1-1.5-0.3
	c-0.6-1.4-1-2.9-1.6-4.3c0.3-0.2,0.5-0.4,0.8-0.5c0.9,1.1,2.1,2.1,2.8,3.4C602.5,123.6,601.9,124.5,601.6,125.2z"/>
</svg>
