<?xml version="1.0" encoding="utf-8"?>
<!-- Generator: Adobe Illustrator 22.0.1, SVG Export Plug-In . SVG Version: 6.00 Build 0)  -->
<svg version="1.1" id="master-artboard" xmlns="http://www.w3.org/2000/svg" xmlns:xlink="http://www.w3.org/1999/xlink" x="0px"
	 y="0px" viewBox="0 0 711.6 294.9" style="enable-background:new 0 0 711.6 294.9;" xml:space="preserve">
<style type="text/css">
	.st0{opacity:0.38;fill:#F08B3D;enable-background:new    ;}
	.st1{opacity:0.38;fill:#5A288E;enable-background:new    ;}
	.st2{opacity:0.3;fill:#DA5B4D;enable-background:new    ;}
	.st3{opacity:0.36;fill:#F08B3D;enable-background:new    ;}
	.st4{opacity:0.36;fill:#5A288E;enable-background:new    ;}
	.st5{opacity:0.45;fill:#DA5B4D;enable-background:new    ;}
</style>
<path class="st0" d="M377.7,38c-0.5-0.8,0.7-1.4,2.5-1.6c2.7-0.3,4.6,0.1,6.3,1.1c1.9,1.2,4.8,1.5,6.9,0.8c0.6-0.2,1.3-0.6,1.2-1
	c0-0.3-0.8-0.7-1.4-0.9c-0.5-0.2-1.4,0-2.1-0.1c-3.6-0.3-5.1-1.6-4-3.2c0.3-0.5,0.4-1,0.6-1.7c-5,0.1-9.6,0.2-14.1,0.3
	c-1.6,0-2.8,0-2.9-0.9c3-1.5,6.7-1.7,10.9-1.5c3.2,0.2,6.3,0.3,8.6,1.5c1.4,0.8,3.3,0.8,5.2,0.3c-0.7-0.1-1.2-0.4-0.5-0.7
	c0.7-0.4,1.5-0.7,2.2-1.1c-0.5-0.1-0.8-0.4-0.3-0.7c0.2-0.1,0.4-0.2,0.6-0.3c-0.5-0.1-0.9-0.2-1.3-0.4c-0.6-0.2-0.6-0.6,0-0.8
	c0.4-0.1,0.8-0.2,1.1-0.3c-2-0.2-4-0.5-5.9-0.8v-0.7c2-0.3,3.9-0.5,7-0.9c-3.8-0.9-6.5-1.9-9.6-2.2c-3-0.3-6.3,0.1-9.5,0.1
	c-0.2-0.1-0.4-0.3-0.5-0.4c2.1-1.1,4.2-2.2,6.6-3.4c-1.2-0.1-2.1-0.3-2.7-0.2c-2.7,0.4-5.1,0.3-7.7-0.2c-0.9-0.2-2-0.1-3.1-0.1
	c-0.4,0-0.8,0.3-1.1,0.4c0.5,0.7,0.9,1.3,1.6,2.4c-3-0.3-5.1-0.8-7.2-0.8c-2.4,0-4.7,0.5-7.1,0.7c-1.9,1.6-1.9,1.6-5.6,2.1
	c-4,0.6-8.2,1-12,1.7c-3.5,0.7-6.7,0.7-10.2,0.2c-1.4-0.2-3.3-0.5-4.5-0.2c-4.4,0.9-8.5,0.7-12.3-0.2c-4.5,1.1-8.6,2.1-12.9,3
	c-1.2,0.2-3-0.1-4.4-0.4c-6.1-1.1-12.6-0.8-18.8-1.2c-0.7,0-1.5,0.5-2.3,0.5c-1.3,0-3.1,0.1-3.9-0.2c-3.5-1.4-6.8-3-10.2-4.5
	c-1.6-0.7-2.9-1.6-4.7-2.3c-1.6-0.6-5.1-0.4-5.8,0.2c-1.1,1,0.1,1.7,1.8,2.2c2.9,0.9,5.9,1.7,8.9,2.5c1,0.3,2.1,0.6,2.8,1
	c3.8,2.4,8.4,4.5,13.3,6.4c2.2,0.9,1.9,1.7-0.9,2.1c-6.1,0.9-11.9,2.7-18.8,1.4c-0.6-0.1-1.5,0-2,0.2c-1.5,0.4-1.8,0.9-0.5,1.5
	c2,0.5,4.3-1.3,6.3,0.3c-0.6,0.8-1.2,1.7-1.9,2.9c-1.7-0.3-2.8-0.5-4.8-0.9c2.7,2.4,1,3.7-2.6,4.9c-2.7,0.9-5.5,1.9-7.4,3.7
	c5.2-0.6,8.9,0,12.3,1.4c1,0.4,3,0.6,4.3,0.5c3.8-0.3,7.6-0.8,11.4-1.1c2-0.2,4.1-0.1,6.2-0.4c3.4-0.3,5.9,0.6,8.8,1.4
	c0.5-0.5,0.9-0.9,1.1-1.2c0.2-0.4,0.2-0.9,0.4-1.6c7.1,1.4,13.9,2.5,21.2,1.5c0.9,0.7,1.6,1.3,2.7,2.3c1.5-2.4,4.9-3.2,9.2-3.4
	c1.2-0.1,2.6-0.3,3.3-0.7c3.9-2,9-1.4,13.5-1.7c0.8,0.6,1.3,1,2,1.6c7.3-2.4,14.7-2.8,22.4-0.8c1,0.3,2.4,0.3,3.6,0.4
	c8.2,0.3,16.5,0.5,24.7,0.7c0.2,0,0.5-0.2,0.9-0.4c-1.5-2.2-8.1-0.8-9.4-2.5c-2.7,0-4.7,0.1-6.7,0c-2.1-0.1-4.1-0.4-6.1-0.7
	c-2-0.2-4-0.4-6.8-0.7c0.7-1.1,0.7-2.4,1.9-2.7c2.8-0.8,4.5,0.6,6.4,1.4c5.2-1.4,10.1-0.6,14.8,0.3c3.7,0.7,6.5,0.2,8.4-1.4
	c-4.9-0.4-9.8-0.8-14.7-1.2C379.4,39,377.9,38.4,377.7,38z M276.7,29.3c-0.6,0.1-1.3-0.2-2.4-0.3c1.6-0.6,2.1-0.8,2.6-1
	c0.4,0.2,1.1,0.5,1.1,0.7C277.9,28.9,277.3,29.2,276.7,29.3z"/>
<path class="st1" d="M260.3,151.8c-2.3-1.7-7-0.8-6.7-4.2c1.7,0.3,3.2,0.5,4.7,0.7c-0.7-1.7-1.3-3-1.8-4.4c-0.6-1.6-1.5-2.7-4.2-2.8
	c-1.3-0.1-2.6-0.5-3.9-0.8c-2.6-0.6-5.3-1.6-7.9-1.6c-9.1-0.2-18.2-0.2-27.4-0.2c-2.4,0-4.9-0.1-7.3,0.2c-2.1,0.2-4,0.9-3.4,3
	c0.2,0.6-0.6,1.9-1.5,2.1c-3.5,1.1-4.6,3.3-5.7,5.5c-0.3,0.7-0.6,1.6-1.4,1.9c-1,0.5-2.6,0.9-3.7,0.7c-1.4-0.2-2.1-1.2-1.3-2.4
	c0.6-0.8,1.4-1.9-1.1-2.4c-0.4,1-0.8,2-1.4,3.3c-2.3-0.7-4.4-1.3-7.4-2.3c3.2-1.2,5.4-2,7.7-2.8c-1.8-1.8-3.4-3.6-5.2-5.2
	c-0.4-0.3-1.2-0.6-1.8-0.7c-3.4-0.2-6.3-2.1-10-1.5c-1.2,0.2-2.7-0.3-4.1-0.6c-3.1-0.7-6.2-1.6-9.3-2.3c-4.1-1-8.2-2.1-12.5-2.8
	c-5.1-0.9-9.9-2.8-15.8-1.8c-3.1,0.5-7.3-0.8-8.5-3.4c-1.1-2.3-3.3-3.1-6.1-3.4c-4-0.5-8-1.1-12-1.4c-1.9-0.1-4.6,0.1-5.8,0.9
	c-1.7,1.2-6.1,1.2-4.7,4.1c0.1,0.2-0.4,0.6-0.7,0.8c-2.8,1.9-5.6,3.7-8.6,5.7c1.7,1.1,2.9,1.8,3.8,2.4c-0.8,2.4-1.5,4.5-2.2,6.6
	c-0.5,1.7-1.6,2.6-4.3,2.5c-2.6-0.1-5.1,0.1-5.4-2.5c1.3-0.5,2.6-0.9,4.5-1.6c-5.2-1.6-9.9-3-14.5-4.5c0.1-0.2,0.2-0.4,0.3-0.7
	c1.6,0.1,3.1,0.3,5.8,0.5c-3.1-1.5-5.3-2.6-7.8-3.8c-2.3,2.5-4.6,4.8-2.9,7.7c-3.5,2-6.7,3.9-9.5,5.5c-0.1,3.9,5,7,0.6,10.4
	c2.9,2.4,8.7-0.1,10.5,3.5c-3.8,0.2-4,0.3-5.6,1.6c-1.5-0.5-3-0.9-4.9-1.5c0.3,1.3,0.8,2.2,0.5,3c-0.3,0.9-1.4,1.6-2.2,2.4
	c0.8,1,1.5,1.9,2,2.6c-1.3,2.1-2.5,4-3.7,5.9c-1-0.1-2.4-0.2-3.7-0.3c-0.1,0.2-0.2,0.4-0.2,0.6c1.5,0.9,3.1,1.7,4.4,2.5
	c-1.5,1.2-3.9,2.1-3.9,3.1c0,2.3-0.4,5.3,2.5,6.7c2.5,1.2,6.4,1.8,9.4,1.5c3.4-0.4,6.7-0.1,9.2,0.9c3.2,1.3,6.3,1.2,9.5,1.5
	c2.8,0.2,5.5,0.6,8.3,1c3.5,0.5,6.9,1.5,10.3,1.5c5.5,0.1,10.3,1.3,15,3c5.6,2,11.4,4,18,1.9c0.3-0.1,0.7,0,1.1,0.1
	c0.1,0.4,0.3,0.9,0.4,1.2c5.3,0.3,10.6,0.6,16,1c0.8-1.8-0.6-2.4-2.6-2.4c-6.2,0-12.2-1-18.2-2.1c-8.1-1.5-16.4-2.7-24.6-4.1
	c-1-0.2-1.9-0.5-2.8-0.8c3.6-0.2,7-0.2,10.4,0.3c5.8,0.7,11.6,1.6,17.4,2.6c8.1,1.4,16.3,1.8,24.6,1.7c4-0.1,8,0.6,12,1.1
	c1.7,0.2,2.2,1.1,0.5,2.3c-3.6-1.1-7-1.3-9,1.3c1.9,2.2,3.5,4.2,5.3,6.3c2.1-1,3.6-2.6,6.3-1.1c0.6,0.3,2,0,3-0.1
	c4.2-0.7,8.3-0.7,12.6-0.3c3.1,0.3,6.3,0,9.4,0.1c1,0,2.5-0.1,3.1,0.3c3.5,2.5,8.3,1.5,11.1,2.3c2.3-0.8,3.7-1.3,5.2-1.8
	c-3.6-0.5-7-1.7-10.6,0.1c-0.9-0.9-1.9-1.8-3.3-3.1c-2.3,2.7-5.8-0.8-8.4,1.2c-1.8-1.9-5.2-1.6-8.2-2.9c7.7-2,14.6-0.7,21.5,0
	c7.7,0.8,15.2,2.2,22.8,3.3c2.1,0.3,4.2,0.3,6.3,0.4c1.9,0.1,2.3-0.8,2.2-1.9c0,0-0.1,0-0.1,0.1c-0.1-0.1-0.1-0.1-0.2-0.1
	c-1.2-0.1-2.5-0.3-4-0.5c2.5-0.8,2.6-0.8,4,0.5c0.1,0,0.2,0,0.3,0l0,0c2.4-1,4.6-1.9,7.6-1.8c1.8,0.1,3.5-0.7,3.2-2.3
	c-0.4-2.1,1.4-2.6,3.7-2.8c2.7-0.2,4.7-0.9,5.5-2.8c-1.1-2.5-7-2.6-6.3-6.3c4.5,0.6,8.7,1.3,14,2c-1-1.9-1.3-3.1-2.3-4
	c-1.5-1.3-3.3-2.5-5.3-3.5c-2.2-1.1-1.5-1.9-0.1-3.2c1.5,0.5,2.8,0.9,4.2,1.3c0.9-2.4,0.8-2.9-1.9-3.3c-3.4-0.5-6.8-0.5-10.4-0.8
	c-0.3-1.6-0.6-3.2-0.8-4.6c3.2-1.8,6.4-3.5,9.7-5.3c-0.6-0.7-2.4-2.3-2.3-2.4c2.4-1.5-1.1-2.7-0.2-4.2c3.5-0.3,6.9-0.6,9.9-0.9
	c2.3-1.9,1-3.4-0.5-4.8C257.8,152.3,258.8,152.1,260.3,151.8z M63.3,187.1c-0.1-0.3-0.1-0.5-0.2-0.8c2.4-0.9,2.4-0.9,6.1,0.3
	C66.6,186.8,64.9,187,63.3,187.1z M63.2,164.7c0.6-0.4,0.8-0.6,1-0.6c1.5,0.2,2.9,0.4,2.4,2.1C65.4,165.7,64.3,165.2,63.2,164.7z
	 M69.2,162.2c1.7,0.7,3.4,1.1,4.3,2c0.8,0.8,0.8,2.1,1.1,3.1C69,167,68.5,166.5,69.2,162.2z M70.6,185.8c3.2-1.2,4.8,0.1,7.7,1.3
	C74.8,187.5,72.6,188,70.6,185.8z M73.8,157.1c0.7,0.8,1.3,1.5,2.3,2.6c-5.1,0.2-8.7-0.9-12.6-2.2c2.5-2.3,5-1,7.6-0.6
	c1.9-1.3,4.1-2.7,7.5-0.9C77,156.3,75.5,156.7,73.8,157.1z M89.1,189.6c-1.2-0.2-2.5-0.3-3.7-0.5c0.1-0.2,0.2-0.5,0.3-0.7
	c1.2,0.2,2.4,0.5,3.6,0.7C89.2,189.3,89.1,189.4,89.1,189.6z M186.4,156.5c-0.2-0.5-0.5-0.8-0.5-1.2c0-0.1,1-0.4,1.2-0.3
	c0.4,0.2,0.6,0.6,0.9,1C187.6,156.1,187.1,156.2,186.4,156.5z M75.7,137.6c-1.3-0.3-2.7-0.7-4-1c0.1-0.2,0.2-0.4,0.3-0.5
	c1.3,0.3,2.7,0.7,4,1C75.9,137.2,75.8,137.4,75.7,137.6z M100.6,196.1c0.9,0.2,1.9,0.3,2.8,0.5c-0.1,0.3-0.2,0.6-0.3,0.8
	c-0.9-0.2-1.9-0.5-2.8-0.7C100.4,196.5,100.5,196.3,100.6,196.1z"/>
<path class="st2" d="M618,113.3c0.3,0.7,0.7,1.2,1.1,1.7c0.3,0.5-0.2,1.9,1.6,0.8c-0.2-0.9-0.6-1.5-0.5-2.3c0.2-0.8,1.2-1.9,2.2-3.1
	c-2-0.1-2.2-1.2-2-2.9c0.3-1.7,1.1-4-1.1-4.5c-0.4-0.1-0.4-0.7-0.7-1.1c0.4-0.1,0.7-0.3,1-0.4c0.7,0.2,1.3,0.3,2.4,0.6
	c0.8-3.3-0.5-5.5,1.5-9.2c0.3,0.7,0.6,1,0.7,1.6c0,1-0.1,2.1,0.1,2.9c1.4,3.1,2.8,6.3,1.8,10.7c-0.1,0.3-0.2,0.7-0.1,0.8
	c1.6,1,0.8,3.3,0.7,5.2c-0.3,3.1,0.4,6-1.2,9.2c0.6,1.1,1.6,1.8,1.2,2.9c-0.7,2.6-2,5.3-3.1,8.1c-2.2,0.2-2.5-2-5.3-0.7
	c-0.2,1.2-0.5,2.5-0.8,3.8c0,0.4,0,1,0.2,1c1.9-0.1,1.1,1,0.5,2.3c-0.5,0.9-0.3,1.7-0.5,2.6c1-0.5,1.6-0.9,2-1.1
	c0.4-1.1,0.9-2.1,1.5-3.1c0.2,0,0.5-0.2,0.7-0.2c-0.6-0.8-1.3-1.6-1.9-2.4c1.2-0.4,2.2-0.8,3.3-1.1c0.7-0.1,1.6-0.3,1.7,0
	c0.5,1.1,1.3,2.4,0.5,3.6c-0.8,1.7-1.1,3.1-1.4,4.6c-0.1,0.2-0.1,0.4-0.2,0.8c0.7-0.7,1.3-1.2,1.7-1.5c1.5,0.1,2.8,0.4,4.3,0.5
	c-0.7,0.8-1.4,1.7-1.9,2.5c0.3,0.3,0.6,0.7,1.1,1c-0.9,1.3-1.7,2.1-3.3,2.4c-0.7,0.1-1.4,0.7-2.2,1.2l3.9,1.8
	c-1.4,1.5-4.4,2.6-3.6,4.5c0.5,0,1.2-0.2,1.8-0.2c-0.8,1.3-1.2,2.5-3,2.2c-1.2-0.3-2.2,0.6-2.7,1.9c0.9,0.4,2,0.6,2.6,1.2
	c0.6,0.5,0.9,1.3,1.2,2c0.3,0.7,2.1,0.5,0.7,2.4c-1-0.8-2.1-1.6-4.7,0.6c1.8,0.2,3.1,0.8,4.8,0.6c0.8-0.1,2-1.5,3.3-2.6
	c0.5,0.1,1.2,0.4,1.8,0.4c-0.2,0.4-0.4,0.7-0.6,0.8c-2.6,1.6-2.9,3.7-4.3,5.6c-0.2,0.2,0,0.6,0,0.7c1.6-0.1,0.7,1,0.1,1.7
	c-0.7,1-1.6,2-2.3,2.9c0.9,0.3,1.8,0.5,2.6,1c0.1,0-0.1,0.4-0.4,0.9c-0.7,0-1.4-0.1-1.9-0.1c-2,2.1-2.4,2.7-1.4,2.9
	c1.2,0.3,2.7,0.2,4.3,0.5c-0.2-1.1-0.4-1.8-0.5-2.5c0.1-0.1,0.4-0.3,0.4-0.3c0.8,0.4,1.5,0.9,2.5,1.6c-2.4,2.4-2.2,5.3-6.3,7.4
	c-0.4,0.2-0.8,1.2-1.4,2.2c2.4-0.7,4.5-1.2,7.1-1.9c-0.5-0.8-1.1-1.3-1.3-2c0.9-1.8,2-3.8,3.3-6.3c0.4,0.8,0.7,1.2,1,1.9
	c1.2-1.2,2.3-2.2,3.5-3.4c0,0.5,0.1,0.8,0.2,1.2c1.3-1,1.7-2.1,1.1-2.6c-0.7-0.8,0.2-1.8,1.1-2.8c-0.4-0.2-0.8-0.4-1-0.7
	c-0.4-1,0.8-2.6,2.3-3.1c2.5-0.8,3-1.4,3.2-3c0.1-0.9,0.1-1.7,0.1-2.6c2.4-2,4-4.2,4-5.9c0-2.4,1.5-4.7,3.3-7.1
	c1.1-1.4,2.3-3,2.7-4.3c0.4-1.9,1.4-3.3,4-4.4c-1.5-1.1-1.2-3.4,0.5-5.4c1.2-1.4,1.6-2.4,1.8-3.6c0.6-3,1.4-6.1,2.5-9.2
	c0.5-1.5,0.8-1.7,2.5-1.5c1.1-0.8,1.5-0.3,1.9,0c1.7-1.7,3-3.4,3-5.2c0.6,0.6,0.9,1.2,1.5,1.8c1.1-0.7,2.1-1.4,3.3-2.1
	c0,0.5,0,0.8,0.2,1.1c0,0.3,0.2,0.4,0.3,0.7c2.1-1.6,0.9-2.3,1.2-3.3c0.9-2.9,1.2-5.8,0.8-8.5c-0.3-1.1,0.4-2.6,0.7-4
	c0.1-0.5,0.1-0.9,0.1-1.3c0-1-0.1-2.1,0-3.2c0-1.3,0-2.5,0.1-3.3c1-1.5,1.9-2.6,2.2-3.5c0.3-1.5-1.5-1-2.8-0.8
	c-0.1-0.7-0.3-1.2-0.3-1.7c0.1-0.3,0.2-0.6,0.2-0.8c0.7-0.1,1.3-0.3,1.8-0.3c1-1.4,0.3-1.4-0.7-1.6c-1.8-0.3-1.9-1.4-0.3-3.7
	c-0.2-0.2-0.4-0.3-0.7-0.5c1.4-1,2.6-2,4.2-3.2c-2,0.1-2-2.3-5.1,0.5c-0.1-2.4-0.1-4.6-0.4-6.6c0-1,0-2-0.1-2.9
	c-0.6-2.2-1.2-4.4-1.8-6.6c-0.2-0.8,0.3-2.2-0.4-2.5c-2-0.7-2.3-2.7-3.5-3.9c-0.1,0,0.1-0.3,0.2-0.6c0.6-0.3,1.3-0.7,1.8-1
	c1-2.7-2.7-1.4-3-3c0.7-0.7,1.5-1.5,2.4-2.4l-5.8-2.6c0,0,0,0-0.1,0.1c0,0,0,0-0.1,0c-1.2,0.8-1.7,0.7-2.1-0.1
	c1.3-0.6,2.1-0.8,2.1,0.1l0,0l0,0c0.3-0.4,0.5-0.7,0.8-1c-0.6-0.7-2-1.2-1.6-2c0.7-1.6-0.6-2-0.4-3.2c0-0.4-0.4-0.8-0.8-0.8
	c-0.3,0-1.1,0.7-1.5,1c-1.2-0.5-2.2-0.9-3.2-1.5c-1-0.4-2.2-0.6-2.9-1.2c-1-0.4-0.8-1.2,0.6-2.2c0.5-0.4,1.2-0.7,1.7-1.1
	c-1-1.2-1-1.2-3.4-0.9c-3.4,0.6-4.5-1.3-2.5-4.3c0.3-0.6,0.1-1.4,0.2-2.2c-2.6,1.7-5,2-5.7,1c-1.9-2.5-5.1-3.5-8.3-4.7
	c-0.6-0.2-1.3-0.2-1.6-0.5c-1.6-1.7-3.2-3.5-7.2-2.8c0.7-0.8,1-1.3,1.3-1.7c0.2-0.4,0.4-0.9,0.5-1.2c-2,0-1.5,1.6-2.6,2.4
	c-1-1.1-0.5-3.3-3.2-2.8c-0.7,0.5-1.3,1-2.2,1.7c0.6-2-1.2-2.2-2.2-2.1c-2.7,0.7-4.7,0.9-5.5-1c-0.3-0.8-1.4-1.1-2.1-1.7
	c-0.8-0.4-1.5-0.9-2.3-1.5c1.1-1.1,2.2-2,3.4-3.2c-0.8-0.4-1.3-1.3-2.1-1.4c-3.1-0.1-6.5,0.2-9.8,0.3c-3.3,0.1-6.5,0.2-9.9,0.4
	c-3.7,0.3-7.4,0.7-11.2,1.2c-5.6,0.9-11.2,1.8-17.4,4.3c-3.8,1.5-7.7,3.9-11.4,4.1c-0.9,0-2.2,1-3.4,1.4c-3.1,1.1-6.8,4-9.3,2.6
	c-0.1,0-0.5,0.1-0.6,0.2c-2.8,1.7-5.3,1.9-7.8,2.4c-3.7,0.7-6.6,3.3-9.8,5.5c-0.5,0.4-1,1.5-1.2,2.2c-0.2,0.6,0,1.1-0.1,1.8
	c-1.6,1-3.1,2-4.7,3c1.1,0.7,2,1.3,2.7,2.1c0.2,0.3,0.5,0.9,0.2,1.3c-0.2,0.4-1.2,0.9-1.8,1c-3,0.3-6,1.7-9.3,3.9
	c1,1.6-0.2,3.8-1.5,6.1c1.3,0.4,2.4,0.8,3.7,1.1c-0.2,0.2-0.2,0.4-0.4,0.6c-2.3,0-4.6-0.1-7.3-0.2c0.3,1,0.4,1.7,0.7,2.6
	c-3.2,1.3-6.5,2-8.5,5.5c2.6,1,5.5,1.8,8.2,2.8c0.1,0,0.2,0,0.3,0c1.2,0.2,2.6,0.3,3.6,0.7c3.3,1.1,6.6,2.1,9.4,3.5
	c1.8,0.9,3.3,2.3,4.1,4c0.9,1.4,1.7,2.9,3.2,3.8c0.4,0.2,0.6,0.4,1,0.6c0.2-0.1,0.3-0.2,0.4-0.1c9.1,0.5,17.4,2.4,25.1,4.8
	c0.1-0.1,0.1-0.1,0.2-0.2c0.5,0,1.2-0.2,1.7-0.2c3.7,0.4,7.4,0.6,11.2,0.9c1.4,0,2.6,0.1,4,0.1c1.9-0.1,4.1-0.9,4.7,0.9
	c0.2,0.2,0.7,0.2,1,0.2c2.9,0.3,6,0.4,8.9,0.7c-0.3,1.7-0.9,3.4-1.1,4.9c1.4,0.3,2.2,1.3,2.9,2.3c0.6,0.9,1.3,1.6,2,2.3
	c-0.1-0.4,0-0.9,0-1.4c2.7-1,3-0.8,2.1,1.3c0.9,0,1.8,0,3.1,0.1c-1.1,0.8-1.8,1.3-2.5,1.7c1.5,0.8,2.9,1.6,3.7,2.8
	c2.2-1.3,3.8-0.4,6-1.4c0.9-0.4,1.7-0.4,2.8-0.7c-1.2-1.4,2.1-2.5,2-4.2c0.8,0.5,1.1,0.7,1.6,1c1.2-0.9,2.6-3,3.8-1.6
	c-0.2,0.2-0.4,0.5-0.5,0.7c-0.2,0.3-0.3,0.6-0.7,1.3c3.9-2.9,4-4,0.8-5.9c3.1-1.1,3.1,0.9,4,2.1c1.4-2.8-0.2-3.9-0.4-5.8
	c1.4,0.2,1.9,1,2.1,2.2c0.2,1,0.5,2.3,1.3,2.8c1.4,0.6,1.4,1.5,0.5,3.2c-0.5,0.9-1.5,2.1,0,2.3c1.1-1.3,2.5-2.1,3.8-1.5
	c-0.3,3,3,4.5,0.5,8.5c0.8,0.6,2.1,0.7,2.1,1.6C619.1,107.5,620,110,618,113.3z M627.8,177.4c-0.2,0-0.6,0.2-0.9,0.1
	c-0.2-0.1-0.2-0.3-0.4-0.8c0.7,0.1,1.2,0,1.2,0.1C628,177,627.8,177.2,627.8,177.4z M630.4,174.1c-1.8,1.1-2.4,0.9-2.2-0.6
	C629.2,173.6,629.8,173.7,630.4,174.1z M623.2,161.1c0-0.4,0-0.7,0.1-0.8c0.4-0.3,0.8-0.5,1.2-0.7c0,0.3,0,0.5,0.2,0.7
	C624.2,160.7,623.7,160.9,623.2,161.1z M668.2,114.6c-0.1,0.3,0,0.7-0.2,1c-0.2,0.2-0.6,0.4-1.5,0.8c0.2-0.6,0.2-0.9,0.4-1.1
	C667.4,115,667.7,114.9,668.2,114.6z M661.8,122.2c-1.8-0.1-1-1.3-0.8-2c0.3-0.2,0.5-0.2,0.7-0.3
	C661.9,120.4,661.9,121.1,661.8,122.2z M664.5,116.7c0.1,0.3,0.2,0.7,0.3,1c-0.3,0.2-0.6,0.3-0.8,0.4c-0.1-0.4-0.1-0.8-0.1-1.2
	C664.1,116.9,664.3,116.7,664.5,116.7z M630.3,155L630.3,155c0,0.1,0,0.1,0,0.1c0.9,0,1.8,0,2.8-0.1c-0.7,3.5-2.6,5.6-7,7.4
	c0.4-2.1,2.4-3.2,4.6-4.3c-0.1-1-0.2-2-0.4-2.9h-0.1C630.2,155.1,630.3,155,630.3,155c0-0.5-0.1-1.1-0.1-2.2
	C631.6,153.4,630.7,154.3,630.3,155z M635.3,143.1c-0.2,0.6-0.2,0.8-0.4,1.2c-0.2,0-0.7,0.2-0.8,0.2c-0.1-0.2-0.1-0.4,0.1-0.7
	C634.5,143.5,634.8,143.4,635.3,143.1z M669,88.8c0.7,0.1,1.7-0.1,2,0.3c0.9,0.6,0.4,3.2-0.4,4.8c-0.8-1.5-1.4-3.1-2.1-4.6L669,88.8
	z M629.6,131.3c1.4,1.7-0.6,4.1-2,6.7c-2.7-1.1,2.5-4.6-0.7-5.1C628.3,132,628.9,131.7,629.6,131.3z M629,118.8
	c0.2,0.7,1.8,0.5,0.6,2.2c-0.8,1.1,1.2,1.7-1.7,3.6c0.1-2.1,0.3-3.8,0.4-5.5C628.6,119,628.8,118.9,629,118.8z M628.9,114.5
	c0.2,0.2,0.5,0.4,0.5,0.7c0,0.3-0.2,0.7-0.4,1c-0.2,0-0.4,0.1-0.7,0.1c0-0.5,0-1.1,0.1-1.7C628.5,114.7,628.6,114.7,628.9,114.5z
	 M515.9,68.1c-0.7-0.4-1.3-0.8-2-1.3c0.2-0.2,0.3-0.3,0.5-0.5l2.2,1C516.5,67.5,516.3,67.8,515.9,68.1z M618.6,97.6
	c0.1-0.5,0.3-0.9,0.4-1.4c0.2,0,0.6-0.2,0.7-0.1c0,0.4-0.2,0.9-0.1,1.3C619.2,97.4,618.8,97.6,618.6,97.6z M571.1,244.7
	c-0.5-1-2.3-1.3-1.6-3.1c0-0.1-1.5,0.1-2.3,0.1c-0.1,0.6-0.1,0.9,0.2,0.9c1,0,0.9,0.6,0.1,1.4c-0.8,0.9-1.5,0.9-1.9,0.4
	c-0.4-0.4-0.5-1-0.8-1.6c3.2-2.5,6.4-4.6,9.4-6.3c0.2,0.1,0.2,0.3,0.5,0.3c-0.8,1.1-1.5,2.2-2.5,3.4c2.3-1.5,4.5-2.9,6.8-4.5
	c-0.7-0.2-1.1-0.1-1.5-0.3c-0.3-0.1-0.6-0.4-0.6-0.4c1.3-1.4,2.3-2.6,3.4-3.7c1.1-1.1,2.2-2.1,3.8-3.4c-1.4,0.1-2.3,0.2-3.2,0.2
	c-0.2,0.6-0.4,1.1-0.8,1.8c-2.6-0.6-4.2,2.9-6.7,3.1c0.4,0.7,0.6,1,0.9,1.4c-1.1,0.9-2.1,1.7-3.1,2.6c-2.8,2.2-3.8,2.2-4.4-0.3
	c2-1.6,4.3-3.2,6.2-4.8c2-1.8,4-3.9,6.2-5.9c2.8-0.4,3.3-0.8,4.1-2.9c0.3-0.8,0.7-1.7,1.3-2.5c0.9-1.3,2.3-2.4,3.3-3.7
	c2.5-3.2,5.2-6.1,8.9-8.6c-0.6-0.6-1.1-1.3-1.6-2.2c-2.4,2.8-6.3,4.4-8.3,7.6c1.1,1.7,1.1,1.9-0.5,3.7c-1.7,2.1-3.6,4.2-6.6,4
	c-0.8,3.5-3.9,5.8-7,8.2c-1.9,1.5-4.1,2.9-5.4,4.5c-2,2.6-4.8,3.6-7.1,5.1c-0.4,0.3-1.1,0.1-1.7,0.2c2.9-3.2,6-5.5,9-7.7
	c1.2-0.8,2.9-2.1,3.2-2.7c0.3-1.3,1.2-1.8,2.4-2.4c1.1-0.6,2.2-1.2,2.9-2.5c-2.4,0.2-4.5,1.7-5.9,3.1c-2.6,2.7-5.4,4.3-8.5,5.4
	c-0.2,0.1-0.3,0.4-0.5,0.6c1.6,1.6,0.7,3.1-2.7,4.8c-0.3,0.2-0.5,0.2-0.7,0.3c-1.1,0.2-1.7,0.7-2.5,1.8c-0.7,1-2,2-3.2,2.9
	c-4.3,3.4-8.3,6.8-12.6,10.1c-6.9,5.4-14.5,9-21.8,12.8c-0.4,0.2-1.1,0.1-1.5,0.1c1.8-1.3,3.6-2.1,5.4-3c1.8-1,3.1-2.3,4.4-4.2
	c-1.3,0.9-2.4,1.5-3.3,2.1c-2.2,1.3-4.4,2.7-6.5,3.9c-4.5,2.5-9.3,5.7-13.9,8c-8.3,4.1-16.4,7.7-24.8,11.3
	c-10.6,4.7-21.1,9.2-31.7,12.6c-1.5,0.5-2.8,1.5-4,3c1-0.1,1.6-0.2,2.2-0.4c10.3-1.8,21.4-6.2,32.2-9.5c2.8-0.9,5.9-2.2,8.8-3.3
	c3.1-1.2,6-2.3,9.2-3.4c2.8-1.1,5.4-1.9,8.2-2.9c3.2-1.3,6.4-2.3,9.9-3.6c2.7-1.1,5.5-1.9,8.1-3.5c3-1.9,5.9-2.6,9-4.2
	c1-0.5,2.2-0.5,3.1-0.5c2.4,0.1,5-1,7.9-2.6c-1.9-0.1-3.4-0.2-5.3-0.4c0.8-0.9,1.4-1.8,2-2.2c3.2-1.9,6.3-3.1,8.5-1.7
	c2.7-2.8,5.4-3.9,8.2-3.7c0.2-0.2,0.2-0.4,0.4-0.6c-1-0.6-1.7-1.3-2.7-2.3c1.9-1.3,3.6-2.3,5.3-3.3c1.2-0.8,2.1-1.3,3-0.8
	c1.1,0.6,2.4-0.1,4.4-1.2c-1.6,0-3.3,0.7-3.1-1.1c1.3,0.3,2.5-0.3,3.8-1.4c1-0.9,2.8-1.5,3.9-1.7c0.6-0.2,1,0.7,1.4,1
	C571.7,245.9,571.3,245.3,571.1,244.7z M554.6,243c0.1-0.3-0.1-0.4,0-0.6c0.1-0.1,0.5-0.3,0.6-0.3c0.1,0.1,0.2,0.2,0.4,0.5
	C555.2,242.8,554.9,242.9,554.6,243z M561,245.1c-2.8,1.2-5.5,4.1-8.4,4.3c3.1-2.5,6-5.5,10-6.1C562,244,561.4,244.9,561,245.1z
	 M564,241.5c0.1-0.2,0.2-0.6,0.3-0.8c0.7-0.1,1.2-0.3,1.8-0.3c0,0-0.1,0.5-0.2,0.7C565.1,241.3,564.6,241.4,564,241.5z M562.4,247.1
	c-0.3,0-0.6-0.1-1-0.3c1.3-1.2,2-1.3,2.7-0.3C563.1,246.9,562.8,247.1,562.4,247.1z M617.6,156.9c-3,1.6-4.7,3.6-5.9,8.1
	c-0.6-0.7-1.5-1.1-2.8,0.3c-0.2-0.3-0.6-0.6-1.1-1.1c3.2-1.3,4-3.3,5.3-5.3c1.4-2.1,2.8-4,4.2-6.3c-0.6-0.3-1.4-0.6-2.4-1.1
	c0.2,0.9,0.4,1.5,0.6,2.5c-1.2,0.1-1.9,0.1-3,0.1c-0.4,1.3-0.8,2.4-1.4,3.8c-0.4-0.4-0.9-0.8-0.8-1.1c1.6-2.5,3.4-4.9,4.9-7.1
	c2.6-0.2,4.8-0.3,7.1-0.5c1-0.3,1.2-2.4,2.8-2c-0.7,1.2-1.2,2.3-1.9,3.5l0.1-0.1c-1.2,0.4-2.5,0.8-4,1.3c-0.4,0.6-1.2,1.8-1.9,2.8
	c1.1,0.7,2.1,1.3,3.3,2.1c-1.1,0.9-2,1.6-3.5,2.8C617.1,158.5,617.4,157.7,617.6,156.9z M593.3,233.5c-0.4,0.7-1,1.6-1.9,2.8
	c-2.5-0.3-4.8-0.7-7.9,1.1c-0.3,0.2-0.4,0.2-0.6,0.4c-1.6,0.6-2.5,2.5-4.5,2.7c-1.3,0.2-3,1.2-4.7,1.9c0.4-1.7,2.6-3.1,3.8-3.4
	c2.8-0.7,4.7-2.6,7-4.2c1.5-1.1,2.6-1.9,4.3-2.1c1.7-0.3,3.7-1.6,5.5-2.4c0.1,0.2,0.1,0.3,0.2,0.5c-1.3,0.8-2.4,1.6-3.7,2.5
	C589.8,235.6,592.7,232.6,593.3,233.5z M679,68.4c-0.1,0.9,0.1,1.7-0.3,2.4c-0.4,0.6-1.8,1.1-1.6,1.8c0.2,0.6,0.9,0.9,1.4,1.4
	c1.4-2.1,3-3,4.1-2.4c0.7,0.4,1.4,0.3,2.5-0.2c0.4-0.2,0.9,0,1.3,0c0.9-0.5,1.8-1,2.9-1.7c-0.3-0.3-0.7-0.8-0.8-0.8
	c-1.9,1-2,0.1-2.3-0.7c-0.4-0.8-0.6-1.8-0.8-2.9c-1.4,1.7-2.5,3-3.7,4.4C680.7,69.4,681,68,679,68.4z M683.9,69.3
	c0.1,0.1,0.3,0.3,0.3,0.5c0,0.1-0.4,0.3-0.9,0.7c0-0.3-0.2-0.5-0.1-0.7C683.2,69.7,683.8,69.3,683.9,69.3z M618.8,197.5
	c-0.3-2.6,1.8-4.6,5-5.3c1.1-0.3,2.5-1.2,3.7-1.8c0.1,0.2,0.1,0.3,0.2,0.3C624.8,193.2,623.4,197.3,618.8,197.5z M619.9,125.4
	c0.7,0.4,1.3,0.8,2,1.3c-0.6,1-1.2,1.9-2,3c-1.9-2-0.9-5.1-0.8-7.9c2.2-0.9,3-0.4,3.5,0.5C623,123.7,620.5,124.2,619.9,125.4z
	 M601.2,221.3c1.4,0.5,2.9,0.8,5.1-0.5c0,2.6,0,2.6-3.1,4.1c0.3-0.9,0.6-1.6,0.9-2.5c-1.3,0.6-2.2,1.1-3.6,1.7
	C601,223.1,601.1,222.2,601.2,221.3z M616.7,192c-0.7,0.2-1.9,0.3-2.1-0.1c-0.2-0.3,0-1.4,0.6-2c0.7-0.8,1.8-1.5,3.5-2.9
	c0,1.4,0.1,2.2-0.2,3.2C618.1,190.8,617.1,191.8,616.7,192z M686,71.8c0.1,0.6,0.3,1.2,0.5,1.6c-0.9,1.3-2.8,2.2-2.5,3.6
	c0.1,0.3-1.5,1.8-3,3.3C682,77.2,682,74.5,686,71.8z M595.4,228.9c-0.2-0.8-0.4-1.5-0.8-2.5c2.3,0.4,5.3-1.7,7.2-0.1
	C599.4,227.3,597.6,228,595.4,228.9z M606.3,168.8c0.9-1.2,1.8-2.4,2.6-3.5c-0.2,2.2-1.6,4.2-3.7,6.3c-2.2,0.3-4,0.4-5.9,0.7
	c1-0.6,1.9-1.7,3-1.3C603.4,171.5,605,170.5,606.3,168.8z M604.6,192.3c-0.7-1.3-1.1-2.6-1.6-3.8c0.1-0.1,0.3-0.3,0.3-0.4
	c1.6,0.3,3.2,0.8,5.1,1.2C606.7,190.6,605.6,191.5,604.6,192.3z M603,103.9c-3.5,2.5-5.3,2-7.3,1C598.9,103.2,600.3,104.2,603,103.9
	z M636.6,18.3c-1.9-0.3-3.5-0.6-5-0.9c2.2-2.3,3.5-1.5,4.9-1.4C637.7,16.2,637.3,17.2,636.6,18.3z M595.8,222.6c0-1,0-1.7-0.1-2.2
	c1.1-0.3,1.9-0.5,2.7-0.9c0.9-0.6,1.9-1.4,2.7-0.7C599.5,220,597.8,221.2,595.8,222.6z M614.6,97.9c-0.7,1.4-1.1,2.3-1.9,3.4
	c-2.1,1.4-3.4,0.3-5.8,0.6c1-0.6,1.8-1.2,2.4-1.4C612.1,100,612,100.1,614.6,97.9z M652.3,27.5c1.1,0.9,2,1.6,2.7,2.2
	c-0.4,1.2-0.5,2.3-0.9,3.4c-0.3,0.2-0.4,0.2-0.6,0.4C653.1,31.6,652.9,29.8,652.3,27.5z M599,197.7c-0.6,0.5-1.1,1-2.1,1.9
	c0.3-1,0.4-1.6,0.7-2.3c1-0.5,2-0.9,2.5-1.5c0.5-0.5,0-1.2,1.5-1.3c-0.8,1.6-1.7,3.2-2.5,4.7c-0.2,0.1-0.3,0-0.5,0.1
	C598.9,198.8,599.1,198.3,599,197.7z M662.7,123.7c0.4,0.3,0.4,1.6,1.9,0c0,0.5,0.1,1,0.3,1.6c-1.3,0.8-2.3,1.4-3.4,2
	C660.7,125.8,660.8,125.4,662.7,123.7z M612.1,181.8c0.5,0.1,1.3,0,1.9,0c-0.1,0.2-0.2,0.6-0.3,0.8c-1.3,0-3.2,2-3.9,0.7
	c-0.3-0.4,0.3-1.4,0.6-2.5C611.2,181.3,611.5,181.7,612.1,181.8z M678.8,84.5c0.6,0.6,0.4,1.9,0.5,2.9c-0.3,0.2-0.4,0.2-0.6,0.4
	c-0.6-1-1.2-2.1-1.7-3.2c-0.2-0.3-0.7-0.5-1.1-0.7C677.8,82.9,678.4,83.9,678.8,84.5z M679.6,61.5c0.8-0.7,1.8-1.5,3.2-2.6
	c0,0.9,0.1,1.5,0.1,2.2C681.5,61.6,680.1,62.8,679.6,61.5z M681.8,81.6c0.9-0.2,1.6-0.2,2.3-0.3c-0.3,0.7-0.6,1.3-1,2
	c-0.3,0.5-0.5,1.1-1,2.1C681,84.3,681.5,83,681.8,81.6z M674.8,61.5c0.5,1.5,0.9,2.5,1.2,3.8C673.2,65.2,673,64.9,674.8,61.5z
	 M600.2,109.2c-0.6,0.3-1.1,0.5-1.7,0.8c0.1-1.5,1.3-2.8,2.5-2.7c0.9-0.1,0.8,0.7,0,1.5C600.9,108.8,600.4,109.1,600.2,109.2z
	 M608.7,157.4c-1.4,3.5-1.5,3.6-3.5,3.1C606.4,159.6,607.2,158.8,608.7,157.4z M609.4,178.7c-1.2,1.2-2.3,2.2-3.5,3.3
	C606.9,179.1,606.9,179.1,609.4,178.7z M609.7,171.9c-0.7-0.8-1.4-1.3-2-2.2c1.4-0.2,2.5-0.3,3.5-0.3
	C610.8,170.1,610.5,170.7,609.7,171.9z M603.7,218.5c1-0.3,1.7-0.4,3.3-0.8c-1.5,1.8-2.5,2.6-3.5,2.2
	C603.1,219.9,603.4,219.2,603.7,218.5z M621,16.6c-1-0.2-1.9-0.3-3-0.6c0.5-0.6,1-1,1.8-1.9C620,15.3,621.8,14.9,621,16.6z M616,166
	c0.4-0.9,0.8-1.8,1.4-2.9C618.4,163.9,618.4,163.9,616,166z M670.4,120.8c-0.4,1.2-0.6,2.3-1,3.5
	C668.4,123.9,668.4,123.1,670.4,120.8z M668.1,42.1c0.2-0.3,0.3-0.5,0.5-0.9c1.5-0.9,2.2-0.7,3,0.7
	C669.9,41.9,669.1,41.9,668.1,42.1z M615,148.4c-1.2,0.9-2.4,1.7-3.6,2.6C612.4,148.9,613.3,148.2,615,148.4z M627.1,16.2
	c-1.3,0-2.5,0-4.2-0.1C625.3,14.9,626.6,14.9,627.1,16.2z M613.7,165.9c0-1.7,0-1.7,2.4-3C615.3,163.7,614.6,164.6,613.7,165.9z
	 M603.6,198.3c-1.2,0.9-2,1.4-2.9,2.1C601.1,198.1,601.1,198.1,603.6,198.3z M619.6,170.1c-0.1,0-0.1,0-0.1-0.1
	C619.6,170,619.6,170,619.6,170.1L619.6,170.1c1.3-0.6,1.3-0.6,1.9,0.4c-0.7,0.5-1.4,1-2.1,1.5c0-0.1-0.2-0.2-0.1-0.3
	C619.4,171.1,619.5,170.7,619.6,170.1z M688.7,82c0.1,0.1,0.2,0.2,0.3,0.3c-0.6,0.6-1.2,1.3-2.1,2.1C686.2,83.1,687.6,82.6,688.7,82
	z M685.3,83.7c-0.4-1.1-0.5-1.7-0.9-2.3c0.8-0.2,1.6-0.3,2.4-0.4C686.5,81.8,686.1,82.4,685.3,83.7z M648.6,157.4
	c0.1-0.7,0.3-1.5,0.3-2.3C650.6,155.6,650.6,155.6,648.6,157.4z M616.1,179.9c-0.2-0.7-0.3-1.4-0.4-2.2
	C617.9,177.7,617.9,177.7,616.1,179.9z M580.7,247c-1-0.2-1.7-0.3-2.4-0.4c0.1-0.2,0.2-0.4,0.4-0.7
	C580.1,245.4,581.1,245.1,580.7,247z M639.5,18.8c0.1-0.2,0.1-0.4,0.3-0.8c1.2-0.7,1.9-0.2,2.8-0.3c-0.1,0.2-0.1,0.4-0.2,0.6
	C641.4,18.6,640.5,18.7,639.5,18.8z M678.7,75.5c0.2,0.7,0.4,1.6,0.6,2.3c-0.4,0.1-0.6,0.4-1,0.5c-0.1-0.8-0.3-1.6-0.4-2.4
	C678.2,75.7,678.5,75.6,678.7,75.5z M611.7,107.1c1.1-0.3,2-0.6,3.8-1C613.6,107.7,612.7,107.4,611.7,107.1z M587.1,220.8
	c0.5,0.1,0.9,0.3,1.5,0.4c0,0-0.3,0.5-0.4,0.5c-0.7,0.1-1.2,0.2-1.7,0.2C586.5,221.5,586.9,221.2,587.1,220.8z M684.4,81.4
	c-0.1,0-0.2-0.1-0.3-0.1c0.2-1.1,0.2-2.1,2.4-2.5C686.4,79.8,685.3,80.6,684.4,81.4z M596.9,177.7c-0.6,0.3-1.3,0.6-1.9,0.9
	c0.1-0.3,0-0.5,0-0.8c0.7-0.3,1.2-0.5,1.9-0.8C596.7,177.1,596.7,177.5,596.9,177.7z M599.6,209c0.4-1.2,0.5-1.7,0.8-2.7
	C601.9,206.9,601.2,207.6,599.6,209z M630.5,200.4c-0.3,0.2-0.5,0.3-0.8,0.5c-0.2-0.3-0.6-0.6-0.8-1c0.4-0.3,0.8-0.5,0.9-0.6
	C630.2,199.6,630.4,199.9,630.5,200.4z M615,212.9c0.6-0.7,1-1.3,1.5-1.8c0.1,0.1,0.3,0.1,0.6,0.2c-0.6,0.7-1.1,1.2-1.7,1.9
	C615.2,213,615.1,212.9,615,212.9z M663.9,129.3c-0.2,1.1-0.4,1.7-0.5,2.3C661.9,131.4,662.4,130.8,663.9,129.3z M598.5,174.9
	c0.9,0,2-0.1,3.2,0C599.6,176.4,599.3,175.2,598.5,174.9z M604.4,98.5c-1.1,0.7-1.7,1.2-2.5,1.7C602.1,99,602.1,99,604.4,98.5z
	 M606.9,208.4c-0.2-0.3-0.8-0.4-1.1-0.7c0.2-0.2,0.3-0.4,0.5-0.6c0.2,0.1,0.6,0.1,0.7,0.3c0.1,0.2,0.2,0.4,0.2,0.6
	C607.2,208.1,607.2,208.2,606.9,208.4z M618.3,194.6c-0.2,0.1-0.4,0.2-0.6,0.3c-0.1-0.6-0.2-1.1-0.2-1.7c0.4-0.1,0.5-0.2,0.8-0.3
	C618.3,193.4,618.4,194,618.3,194.6z M593.8,237.9c-0.5-0.2-0.9-0.4-1.4-0.6C594.4,236.2,594.4,236.2,593.8,237.9z M599.7,228.4
	c0.1,0.1,0.2,0.3,0.4,0.3c-0.5,0.4-1.1,1-1.6,1.5c-0.2-0.1-0.2-0.3-0.5-0.3C598.7,229.3,599.3,228.8,599.7,228.4z M667.8,28.1
	c0.8,0.1,1.5,0.1,2.6,0.2C668.7,29.4,667.8,29.5,667.8,28.1z M619.2,184.5c-0.2-0.1-0.4-0.1-0.7-0.2c0.4-0.6,0.9-1.2,1.3-1.8
	c0.1,0.1,0.4,0,0.5,0.1C620,183.3,619.6,183.9,619.2,184.5z M684.4,63.6c-0.5-0.4-0.9-0.9-1.4-1.3c0.2-0.2,0.4-0.3,0.5-0.4
	c0.5,0.3,1.1,0.7,1.6,1C684.8,63.2,684.6,63.4,684.4,63.6z M672.3,55.4c-0.5-0.5-0.9-1-1.4-1.5c0.3-0.2,0.4-0.3,0.7-0.5
	c0.5,0.6,0.9,1.2,1.4,1.7C672.7,55.2,672.6,55.3,672.3,55.4z M598.4,113.1c0-0.5-0.2-1.1-0.2-2.1
	C600.1,111.4,599.4,112.2,598.4,113.1z M655.2,29.5c0.3-0.5,0.7-1.2,0.9-1.7c1.4-0.2,0.8,0.8,0.3,1.5
	C656.3,29.5,655.6,29.4,655.2,29.5z M592.5,102.9c0,0.1-0.9,0.7-1,0.6c-0.3-0.1-0.3-0.5-0.4-1c0.7-0.3,1.4-0.7,1.5-0.7
	C592.6,102.1,592.6,102.5,592.5,102.9z M637.8,180c-0.1,0-0.1-0.4-0.2-0.7c0.6-0.2,1-0.4,1.2-0.3c0.1,0.1,0.1,0.4,0,0.7
	C638.6,179.7,638.2,179.9,637.8,180z M579.2,243.3c-0.1,0.2-0.1,0.5-0.2,0.7c-0.7,0.1-1.3,0.4-1.9,0.5c0.1-0.2,0-0.4,0.1-0.6
	C577.8,243.7,578.5,243.6,579.2,243.3z M618.2,200.3c-0.4-0.1-0.9-0.1-1.4-0.2c0.3-0.3,0.4-0.5,0.7-0.8c0.4,0.2,0.9,0.2,1.3,0.4
	C618.5,199.9,618.4,200.1,618.2,200.3z M635.8,181.8c1-0.4,2.2-1,2,0.6C636.8,182.3,636.3,182.1,635.8,181.8z M662.2,35.8
	c-0.5-0.1-0.9-0.3-1.4-0.4c0.2-0.2,0.3-0.4,0.6-0.7c0.5,0.2,0.8,0.4,1.3,0.5C662.8,35.3,662.2,35.8,662.2,35.8z M664.5,136.5
	c0.2-0.6,0.4-1.2,0.6-1.8c0.2-0.1,0.4-0.1,0.6-0.2c-0.1,0.6-0.3,1.2-0.3,1.7C665.1,136.4,664.7,136.5,664.5,136.5z M612.3,207.5
	c0.1-0.4,0.1-0.7,0.3-0.9s0.6-0.3,0.8-0.3c-0.1,0.3,0,0.5-0.2,0.7C613.1,207.2,612.8,207.3,612.3,207.5z M644.4,168.1
	c-0.2-0.2-0.2-0.4-0.2-0.7c0.2-0.1,0.5-0.3,0.6-0.3c0.2,0.1,0.3,0.3,0.8,0.6C644.8,167.9,644.3,168.2,644.4,168.1z M619.5,170
	c-0.9,0-1.8,0.1-2.4,0C618.4,169,618.9,169.7,619.5,170z M688.9,90.2c-0.2-0.3-0.6-0.6-0.8-0.9c0.3-0.2,0.4-0.3,0.5-0.4
	c0.2,0.3,0.6,0.6,0.7,1C689.1,90,688.9,90.1,688.9,90.2z M574.4,245.7c0.1,0.2,0.2,0.2,0.2,0.3c-0.5,0.4-1.2,0.8-1.8,1.3
	c-0.1-0.2-0.2-0.2-0.2-0.3C573.2,246.6,573.9,246.1,574.4,245.7z M602.9,186.3c-0.1,0.3,0,0.5-0.1,0.8c-0.1,0.1-0.4,0.3-1.1,0.7
	C602.4,187,602.7,186.7,602.9,186.3z M616.8,170.2c-0.5,0.6-1.1,1.1-1.7,1.8C614.9,170.4,615.9,170.4,616.8,170.2z M551.4,263.5
	c-0.3,0.2-0.6,0.2-1,0.3c0.1-0.3,0-0.5,0.1-0.7c0.4-0.1,0.7-0.2,1.1-0.2C551.7,262.8,551.5,263.3,551.4,263.5z M676.1,74.7
	c0.1,0.1,0.2,0.4,0,0.6c-0.1,0.1-0.4,0.2-1,0.5c0.1-0.5,0.1-0.7,0.3-1C675.7,74.7,676.1,74.6,676.1,74.7z M613,190
	c0.2,0.2,0,0.5,0.1,1c-0.5,0-0.9,0.1-0.9,0c-0.1-0.2-0.1-0.4,0-0.7C612.5,190.2,612.9,190,613,190z M622.6,185.5
	c-0.2,0.1-0.4,0.1-0.5,0.1c0.1-0.4,0.3-0.9,0.4-1.3c0.2-0.1,0.2,0,0.4-0.1C622.8,184.7,622.7,185.1,622.6,185.5z M592.7,216.8
	c-0.1,0-0.1-0.2-0.2-0.2c0.5-0.4,1-0.8,1.4-1.2c0.1,0.2,0.1,0.3,0.2,0.5C593.7,216.1,593.2,216.5,592.7,216.8z M614.8,201.9
	c0.4,0.2,0.7,0.3,1.1,0.4c-0.2,0.2-0.3,0.3-0.5,0.5c-0.4-0.2-0.7-0.3-1.1-0.4C614.4,202.2,614.8,201.9,614.8,201.9z M558.1,253
	c0.1,0,0.1,0.4-0.1,0.5c-0.4,0.2-0.7,0.3-1.3,0.6c0.1-0.5,0.2-0.7,0.3-0.9C557.4,253.1,557.8,253,558.1,253z M592.8,104
	c-0.1,0.2,0,0.4-0.1,0.6c-0.6,0.2-1.1,0.3-1.7,0.5c0-0.1,0.1-0.3,0.1-0.5C591.5,104.4,592.1,104.2,592.8,104z M592.3,181.4
	c-0.1,0.1-0.5,0.2-0.6,0.2c-0.1-0.2-0.1-0.4-0.1-0.7c0.5-0.1,0.8-0.2,0.9,0C592.8,180.8,592.4,181.2,592.3,181.4z M612.6,172.6
	c-0.1,0-0.4,0-0.4,0c0.2-0.4,0.4-0.8,0.7-1.2c0.1,0.1,0.3,0,0.4,0.1C613.2,171.8,612.8,172.2,612.6,172.6z M536.7,253.1
	c0,0.1-0.1,0.3-0.2,0.6c-0.4,0.1-0.6,0.2-0.9,0.3c0-0.1,0.1-0.5,0.1-0.5C536,253.4,536.4,253.3,536.7,253.1z M646,20.6
	c0-0.1,0.2-0.3,0.3-0.5c0.4,0,0.9,0,1.3,0c0,0.1-0.2,0.3-0.1,0.4C646.8,20.6,646.4,20.6,646,20.6z M593.3,203.1
	c0.3-0.2,0.6-0.3,0.8-0.4c0,0.1,0,0.4-0.1,0.5s-0.4,0.2-0.6,0.3C593.4,203.3,593.4,203.2,593.3,203.1z M605,110.5
	c-0.1,0.2-0.3,0.5-0.4,0.7c-0.1,0.1-0.3,0-0.6,0c0.3-0.3,0.4-0.5,0.7-0.8C604.5,110.4,604.8,110.4,605,110.5z M614.9,176.9
	c-0.5,0.3-0.8,0.6-1.3,0.8c0.1-0.2,0.3-0.5,0.6-0.8C614.3,176.9,614.5,177,614.9,176.9z M581.7,211.3c0.1-0.3,0.1-0.6,0.3-0.8
	c0.1-0.1,0.5-0.2,0.7-0.2c-0.1,0.2-0.3,0.5-0.4,0.8C582.3,211.2,582.1,211.2,581.7,211.3z M616.7,168.1c0.4-0.1,0.8-0.2,1.1-0.2
	c0.1,0-0.1,0.5-0.3,0.9c-0.5,0.1-0.9,0.2-1.2,0C616.4,168.7,616.6,168.2,616.7,168.1z M657.5,33.5c0.2-0.2,0.4-0.5,0.5-0.7
	c0.4,0,0.7,0.2,1.1,0.2c-0.1,0.1-0.2,0.3-0.2,0.4C658.2,33.5,657.9,33.4,657.5,33.5z M574.5,87.4c-0.5,0.5-0.9,1.3-1.5,1.5
	c-1.9,0.6-3.7,0.9-5.6,1.5c0.1-0.3,0-0.5,0.2-0.8c1.8-0.9,3.8-2,5.5-2.6C573.5,86.6,573.9,87.2,574.5,87.4z"/>
<path class="st3" d="M356.7-290.3c-0.5-0.8,0.7-1.4,2.5-1.6c2.7-0.3,4.6,0.1,6.3,1.1c1.9,1.2,4.8,1.5,6.9,0.8c0.6-0.2,1.3-0.6,1.2-1
	c0-0.3-0.8-0.7-1.4-0.9c-0.5-0.2-1.4,0-2.1-0.1c-3.6-0.3-5.1-1.6-4-3.2c0.3-0.5,0.4-1,0.6-1.7c-5,0.1-9.6,0.2-14.1,0.3
	c-1.6,0-2.8,0-2.9-0.9c3-1.5,6.7-1.7,10.9-1.5c3.2,0.2,6.3,0.3,8.6,1.5c1.4,0.8,3.3,0.8,5.2,0.3c-0.7-0.1-1.2-0.4-0.5-0.7
	c0.7-0.4,1.5-0.7,2.2-1.1c-0.5-0.1-0.8-0.4-0.3-0.7c0.2-0.1,0.4-0.2,0.6-0.3c-0.5-0.1-0.9-0.2-1.3-0.4c-0.6-0.2-0.6-0.6,0-0.8
	c0.4-0.1,0.8-0.2,1.1-0.3c-2-0.2-4-0.5-5.9-0.8v-0.7c2-0.3,3.9-0.5,7-0.9c-3.8-0.9-6.5-1.9-9.6-2.2c-3-0.3-6.3,0.1-9.5,0.1
	c-0.2-0.1-0.4-0.3-0.5-0.4c2.1-1.1,4.2-2.2,6.6-3.4c-1.2-0.1-2.1-0.3-2.7-0.2c-2.7,0.4-5.1,0.3-7.7-0.2c-0.9-0.2-2-0.1-3.1-0.1
	c-0.4,0-0.8,0.3-1.1,0.4c0.5,0.7,0.9,1.3,1.6,2.4c-3-0.3-5.1-0.8-7.2-0.8c-2.4,0-4.7,0.5-7.1,0.7c-1.9,1.6-1.9,1.6-5.6,2.1
	c-4,0.6-8.2,1-12,1.7c-3.5,0.7-6.7,0.7-10.2,0.2c-1.4-0.2-3.3-0.5-4.5-0.2c-4.4,0.9-8.5,0.7-12.3-0.2c-4.5,1.1-8.6,2.1-12.9,3
	c-1.2,0.2-3-0.1-4.4-0.4c-6.1-1.1-12.6-0.8-18.8-1.2c-0.7,0-1.5,0.5-2.3,0.5c-1.3,0-3.1,0.1-3.9-0.2c-3.5-1.4-6.8-3-10.2-4.5
	c-1.6-0.7-2.9-1.6-4.7-2.3c-1.6-0.6-5.1-0.4-5.8,0.2c-1.1,1,0.1,1.7,1.8,2.2c2.9,0.9,5.9,1.7,8.9,2.5c1,0.3,2.1,0.6,2.8,1
	c3.8,2.4,8.4,4.5,13.3,6.4c2.2,0.9,1.9,1.7-0.9,2.1c-6.1,0.9-11.9,2.7-18.8,1.4c-0.6-0.1-1.5,0-2,0.2c-1.5,0.4-1.8,0.9-0.5,1.5
	c2,0.5,4.3-1.3,6.3,0.3c-0.6,0.8-1.2,1.7-1.9,2.9c-1.7-0.3-2.8-0.5-4.8-0.9c2.7,2.4,1,3.7-2.6,4.9c-2.7,0.9-5.5,1.9-7.4,3.7
	c5.2-0.6,8.9,0,12.3,1.4c1,0.4,3,0.6,4.3,0.5c3.8-0.3,7.6-0.8,11.4-1.1c2-0.2,4.1-0.1,6.2-0.4c3.4-0.3,5.9,0.6,8.8,1.4
	c0.5-0.5,0.9-0.9,1.1-1.2c0.2-0.4,0.2-0.9,0.4-1.6c7.1,1.4,13.9,2.5,21.2,1.5c0.9,0.7,1.6,1.3,2.7,2.3c1.5-2.4,4.9-3.2,9.2-3.4
	c1.2-0.1,2.6-0.3,3.3-0.7c3.9-2,9-1.4,13.5-1.7c0.8,0.6,1.3,1,2,1.6c7.3-2.4,14.7-2.8,22.4-0.8c1,0.3,2.4,0.3,3.6,0.4
	c8.2,0.3,16.5,0.5,24.7,0.7c0.2,0,0.5-0.2,0.9-0.4c-1.5-2.2-8.1-0.8-9.4-2.5c-2.7,0-4.7,0.1-6.7,0c-2.1-0.1-4.1-0.4-6.1-0.7
	c-2-0.2-4-0.4-6.8-0.7c0.7-1.1,0.7-2.4,1.9-2.7c2.8-0.8,4.5,0.6,6.4,1.4c5.2-1.4,10.1-0.6,14.8,0.3c3.7,0.7,6.5,0.2,8.4-1.4
	c-4.9-0.4-9.8-0.8-14.7-1.2C358.4-289.3,356.9-289.9,356.7-290.3z M255.7-299c-0.6,0.1-1.3-0.2-2.4-0.3c1.6-0.6,2.1-0.8,2.6-1
	c0.4,0.2,1.1,0.5,1.1,0.7C256.9-299.4,256.3-299.1,255.7-299z"/>
<path class="st4" d="M239.3-176.5c-2.3-1.7-7-0.8-6.7-4.2c1.7,0.3,3.2,0.5,4.7,0.7c-0.7-1.7-1.3-3-1.8-4.4c-0.6-1.6-1.5-2.7-4.2-2.8
	c-1.3-0.1-2.6-0.5-3.9-0.8c-2.6-0.6-5.3-1.6-7.9-1.6c-9.1-0.2-18.2-0.2-27.4-0.2c-2.4,0-4.9-0.1-7.3,0.2c-2.1,0.2-4,0.9-3.4,3
	c0.2,0.6-0.6,1.9-1.5,2.1c-3.5,1.1-4.6,3.3-5.7,5.5c-0.3,0.7-0.6,1.6-1.4,1.9c-1,0.5-2.6,0.9-3.7,0.7c-1.4-0.2-2.1-1.2-1.3-2.4
	c0.6-0.8,1.4-1.9-1.1-2.4c-0.4,1-0.8,2-1.4,3.3c-2.3-0.7-4.4-1.3-7.4-2.3c3.2-1.2,5.4-2,7.7-2.8c-1.8-1.8-3.4-3.6-5.2-5.2
	c-0.4-0.3-1.2-0.6-1.8-0.7c-3.4-0.2-6.3-2.1-10-1.5c-1.2,0.2-2.7-0.3-4.1-0.6c-3.1-0.7-6.2-1.6-9.3-2.3c-4.1-1-8.2-2.1-12.5-2.8
	c-5.1-0.9-9.9-2.8-15.8-1.8c-3.1,0.5-7.3-0.8-8.5-3.4c-1.1-2.3-3.3-3.1-6.1-3.4c-4-0.5-8-1.1-12-1.4c-1.9-0.1-4.6,0.1-5.8,0.9
	c-1.7,1.2-6.1,1.2-4.7,4.1c0.1,0.2-0.4,0.6-0.7,0.8c-2.8,1.9-5.6,3.7-8.6,5.7c1.7,1.1,2.9,1.8,3.8,2.4c-0.8,2.4-1.5,4.5-2.2,6.6
	c-0.5,1.7-1.6,2.6-4.3,2.5c-2.6-0.1-5.1,0.1-5.4-2.5c1.3-0.5,2.6-0.9,4.5-1.6c-5.2-1.6-9.9-3-14.5-4.5c0.1-0.2,0.2-0.4,0.3-0.7
	c1.6,0.1,3.1,0.3,5.8,0.5c-3.1-1.5-5.3-2.6-7.8-3.8c-2.3,2.5-4.6,4.8-2.9,7.7c-3.5,2-6.7,3.9-9.5,5.5c-0.1,3.9,5,7,0.6,10.4
	c2.9,2.4,8.7-0.1,10.5,3.5c-3.8,0.2-4,0.3-5.6,1.6c-1.5-0.5-3-0.9-4.9-1.5c0.3,1.3,0.8,2.2,0.5,3c-0.3,0.9-1.4,1.6-2.2,2.4
	c0.8,1,1.5,1.9,2,2.6c-1.3,2.1-2.5,4-3.7,5.9c-1-0.1-2.4-0.2-3.7-0.3c-0.1,0.2-0.2,0.4-0.2,0.6c1.5,0.9,3.1,1.7,4.4,2.5
	c-1.5,1.2-3.9,2.1-3.9,3.1c0,2.3-0.4,5.3,2.5,6.7c2.5,1.2,6.4,1.8,9.4,1.5c3.4-0.4,6.7-0.1,9.2,0.9c3.2,1.3,6.3,1.2,9.5,1.5
	c2.8,0.2,5.5,0.6,8.3,1c3.5,0.5,6.9,1.5,10.3,1.5c5.5,0.1,10.3,1.3,15,3c5.6,2,11.4,4,18,1.9c0.3-0.1,0.7,0,1.1,0.1
	c0.1,0.4,0.3,0.9,0.4,1.2c5.3,0.3,10.6,0.6,16,1c0.8-1.8-0.6-2.4-2.6-2.4c-6.2,0-12.2-1-18.2-2.1c-8.1-1.5-16.4-2.7-24.6-4.1
	c-1-0.2-1.9-0.5-2.8-0.8c3.6-0.2,7-0.2,10.4,0.3c5.8,0.7,11.6,1.6,17.4,2.6c8.1,1.4,16.3,1.8,24.6,1.7c4-0.1,8,0.6,12,1.1
	c1.7,0.2,2.2,1.1,0.5,2.3c-3.6-1.1-7-1.3-9,1.3c1.9,2.2,3.5,4.2,5.3,6.3c2.1-1,3.6-2.6,6.3-1.1c0.6,0.3,2,0,3-0.1
	c4.2-0.7,8.3-0.7,12.6-0.3c3.1,0.3,6.3,0,9.4,0.1c1,0,2.5-0.1,3.1,0.3c3.5,2.5,8.3,1.5,11.1,2.3c2.3-0.8,3.7-1.3,5.2-1.8
	c-3.6-0.5-7-1.7-10.6,0.1c-0.9-0.9-1.9-1.8-3.3-3.1c-2.3,2.7-5.8-0.8-8.4,1.2c-1.8-1.9-5.2-1.6-8.2-2.9c7.7-2,14.6-0.7,21.5,0
	c7.7,0.8,15.2,2.2,22.8,3.3c2.1,0.3,4.2,0.3,6.3,0.4c1.9,0.1,2.3-0.8,2.2-1.9c0,0-0.1,0-0.1,0.1c-0.1-0.1-0.1-0.1-0.2-0.1
	c-1.2-0.1-2.5-0.3-4-0.5c2.5-0.8,2.6-0.8,4,0.5c0.1,0,0.2,0,0.3,0l0,0c2.4-1,4.6-1.9,7.6-1.8c1.8,0.1,3.5-0.7,3.2-2.3
	c-0.4-2.1,1.4-2.6,3.7-2.8c2.7-0.2,4.7-0.9,5.5-2.8c-1.1-2.5-7-2.6-6.3-6.3c4.5,0.6,8.7,1.3,14,2c-1-1.9-1.3-3.1-2.3-4
	c-1.5-1.3-3.3-2.5-5.3-3.5c-2.2-1.1-1.5-1.9-0.1-3.2c1.5,0.5,2.8,0.9,4.2,1.3c0.9-2.4,0.8-2.9-1.9-3.3c-3.4-0.5-6.8-0.5-10.4-0.8
	c-0.3-1.6-0.6-3.2-0.8-4.6c3.2-1.8,6.4-3.5,9.7-5.3c-0.6-0.7-2.4-2.3-2.3-2.4c2.4-1.5-1.1-2.7-0.2-4.2c3.5-0.3,6.9-0.6,9.9-0.9
	c2.3-1.9,1-3.4-0.5-4.8C236.8-176,237.8-176.2,239.3-176.5z M42.3-141.2c-0.1-0.3-0.1-0.5-0.2-0.8c2.4-0.9,2.4-0.9,6.1,0.3
	C45.6-141.5,43.9-141.3,42.3-141.2z M42.2-163.6c0.6-0.4,0.8-0.6,1-0.6c1.5,0.2,2.9,0.4,2.4,2.1C44.4-162.6,43.3-163.1,42.2-163.6z
	 M48.2-166.1c1.7,0.7,3.4,1.1,4.3,2c0.8,0.8,0.8,2.1,1.1,3.1C48-161.3,47.5-161.8,48.2-166.1z M49.6-142.5c3.2-1.2,4.8,0.1,7.7,1.3
	C53.8-140.8,51.6-140.3,49.6-142.5z M52.8-171.2c0.7,0.8,1.3,1.5,2.3,2.6c-5.1,0.2-8.7-0.9-12.6-2.2c2.5-2.3,5-1,7.6-0.6
	c1.9-1.3,4.1-2.7,7.5-0.9C56-172,54.5-171.6,52.8-171.2z M68.1-138.7c-1.2-0.2-2.5-0.3-3.7-0.5c0.1-0.2,0.2-0.5,0.3-0.7
	c1.2,0.2,2.4,0.5,3.6,0.7C68.2-139,68.1-138.9,68.1-138.7z M165.4-171.8c-0.2-0.5-0.5-0.8-0.5-1.2c0-0.1,1-0.4,1.2-0.3
	c0.4,0.2,0.6,0.6,0.9,1C166.6-172.2,166.1-172.1,165.4-171.8z M54.7-190.7c-1.3-0.3-2.7-0.7-4-1c0.1-0.2,0.2-0.4,0.3-0.5
	c1.3,0.3,2.7,0.7,4,1C54.9-191.1,54.8-190.9,54.7-190.7z M79.6-132.2c0.9,0.2,1.9,0.3,2.8,0.5c-0.1,0.3-0.2,0.6-0.3,0.8
	c-0.9-0.2-1.9-0.5-2.8-0.7C79.4-131.8,79.5-132,79.6-132.2z"/>
<path class="st5" d="M588.5-204.9c0,0.9,0.3,1.6,0.5,2.3c0.1,0.7-0.6,2.1,1.1,1.4c0-1.1-0.1-1.9,0.2-2.8c0.4-0.9,1.4-1.8,2.4-2.8
	c-1.7-0.8-1.6-2-1-3.9c0.6-1.8,1.8-4.2,0.1-5.4c-0.3-0.3-0.1-0.9-0.3-1.5c0.3,0,0.6-0.1,0.9-0.1c0.5,0.5,1,0.8,1.8,1.5
	c1.4-3.5,0.8-6.4,3.2-9.9c0,0.9,0.3,1.3,0.2,2c-0.2,1.1-0.6,2.3-0.6,3.4c0.5,3.9,0.9,8-0.8,12.7c-0.1,0.3-0.3,0.7-0.3,0.9
	c1,1.7,0,4-0.5,6.1c-0.9,3.5-1,6.9-2.9,10c0.2,1.4,0.9,2.6,0.4,3.6c-1.2,2.7-2.8,5.4-4.4,8.2c-1.8-0.5-1.7-3-4.2-2.4
	c-0.4,1.3-1.1,2.7-1.4,4.1c-0.1,0.4-0.2,1.1-0.1,1.2c1.5,0.5,0.7,1.5-0.2,2.8c-0.6,0.8-0.6,1.8-1,2.8c0.9-0.2,1.5-0.5,1.9-0.6
	c0.6-1.1,1.2-2.1,1.8-3.1c0.2,0.1,0.4-0.1,0.6,0c-0.4-1.1-0.7-2.2-1.1-3.3c1.1,0,2-0.2,2.9-0.1c0.6,0.1,1.3,0.2,1.4,0.6
	c0.1,1.4,0.5,3.2-0.3,4.3c-1.1,1.7-1.6,3.2-2.1,4.8c-0.2,0.2-0.2,0.4-0.4,0.9c0.7-0.6,1.4-0.9,1.7-1.2c1.3,0.6,2.2,1.3,3.4,1.9
	c-0.8,0.7-1.5,1.5-2.2,2.2c0.2,0.4,0.3,1,0.7,1.5c-1.1,1.2-1.9,1.8-3.2,1.6c-0.6-0.1-1.3,0.3-2,0.6l2.8,3.2c-1.5,1.3-4.2,1.6-3.9,4
	c0.4,0.2,1,0.2,1.5,0.4c-1,1.2-1.6,2.4-2.9,1.5c-0.9-0.7-2-0.1-2.6,1.3c0.6,0.7,1.5,1.3,2,2.1c0.4,0.8,0.4,1.8,0.5,2.7
	c0,0.9,1.6,1.3,0,3c-0.7-1.2-1.3-2.4-4.1-0.8c1.4,0.8,2.5,1.8,3.8,2.2c0.7,0.1,1.9-1.1,3.4-1.9c0.4,0.3,0.9,0.8,1.4,1
	c-0.3,0.4-0.5,0.7-0.7,0.7c-2.5,1-3.2,3.3-4.8,5c-0.3,0.2-0.2,0.7-0.2,0.8c1.2,0.4,0.3,1.4-0.3,2c-0.8,0.9-1.7,1.8-2.4,2.6
	c0.7,0.6,1.3,1.2,1.9,1.9c0.1,0-0.2,0.4-0.6,0.9c-0.6-0.2-1.2-0.6-1.6-0.8c-2.1,1.7-2.5,2.3-1.8,2.9c0.9,0.7,2.2,1.1,3.4,1.9
	c0.1-1.3,0.2-2.2,0.2-3c0-0.1,0.4-0.2,0.4-0.2c0.5,0.7,1,1.5,1.7,2.5c-2.5,1.9-2.9,5.3-6.8,6.4c-0.3,0.1-0.9,1.1-1.6,2
	c2.1,0,4,0,6.3,0.1c-0.3-1.1-0.6-1.8-0.6-2.7c1.2-1.7,2.5-3.7,4.1-6.1c0.2,1.1,0.3,1.6,0.4,2.5c1.3-1,2.4-1.7,3.5-2.7
	c-0.1,0.6-0.1,1-0.1,1.4c1.3-0.7,1.9-1.8,1.5-2.6c-0.4-1.2,0.6-2,1.5-2.8c-0.2-0.4-0.5-0.7-0.7-1.1c-0.1-1.3,1.3-2.7,2.5-2.8
	c2.2-0.1,2.7-0.6,3.3-2.4c0.3-1,0.5-1.9,0.7-2.9c2.4-1.5,4.2-3.5,4.6-5.4c0.6-2.7,2.3-4.9,4.3-7c1.2-1.2,2.6-2.7,3.1-4
	c0.8-2,1.8-3.3,4.3-3.7c-0.9-1.7-0.3-4.2,1.6-6c1.3-1.2,1.9-2.2,2.2-3.5c1.2-3.2,2.5-6.5,4.1-9.6c0.7-1.5,1.1-1.7,2.4-0.9
	c1-0.6,1.3,0.1,1.6,0.6c1.8-1.4,3.2-2.9,3.6-4.9c0.3,0.9,0.4,1.7,0.8,2.5c1.1-0.4,2.1-0.9,3.2-1.3c-0.1,0.6-0.2,0.9-0.1,1.3
	c0,0.3,0,0.5,0,0.9c2.1-1.1,1.3-2.3,1.7-3.4c1.3-3,2.3-6.2,2.5-9.3c0-1.3,0.9-2.8,1.4-4.3c0.2-0.5,0.3-1,0.5-1.4
	c0.2-1.1,0.5-2.4,0.7-3.6c0.4-1.5,0.6-2.8,0.8-3.7c1.2-1.4,2.1-2.3,2.5-3.3c0.5-1.6-1.1-1.6-2.2-1.7c0.1-0.8,0.1-1.5,0.1-2
	c0.1-0.3,0.3-0.6,0.4-0.9c0.6,0.1,1.1,0.1,1.5,0.2c1.1-1.3,0.6-1.5-0.2-2c-1.4-0.9-1.2-2.2,0.6-4.3c-0.1-0.3-0.3-0.5-0.5-0.8
	c1.4-0.7,2.6-1.4,4.1-2.3c-1.6-0.5-1.1-3.2-4.3-1c0.5-2.8,0.8-5.2,1.2-7.6c0.2-1.1,0.4-2.3,0.6-3.4c0-2.7-0.1-5.3,0-8
	c0-1,0.8-2.4,0.3-3c-1.4-1.5-1.3-3.7-2-5.5c-0.1,0,0.1-0.3,0.3-0.6c0.6-0.2,1.3-0.4,1.7-0.5c1.4-2.7-1.9-2.4-1.9-4.3
	c0.7-0.6,1.6-1.2,2.5-1.9l-4.2-4.8c0,0,0,0,0,0.1c0,0,0,0-0.1,0c-1.1,0.5-1.6,0.2-1.7-0.8c1.2-0.2,1.9-0.2,1.7,0.8l0,0l0,0
	c0.3-0.3,0.5-0.6,0.9-0.9c-0.3-1-1.4-2-0.9-2.8c0.9-1.6,0-2.5,0.4-3.8c0.1-0.4-0.2-1.1-0.5-1.2c-0.3-0.1-1.1,0.4-1.4,0.6
	c-0.9-1-1.6-1.7-2.3-2.7c-0.7-0.8-1.6-1.4-2.1-2.2c-0.7-0.8-0.4-1.6,1-2.3c0.5-0.3,1.2-0.4,1.7-0.7c-0.5-1.7-0.5-1.7-2.6-2
	c-3-0.4-3.4-2.8-1.2-5.6c0.4-0.6,0.4-1.6,0.7-2.4c-2.5,1.1-4.6,0.7-5-0.6c-0.9-3.4-3.5-5.6-5.8-7.9c-0.4-0.4-1.1-0.6-1.2-1.1
	c-0.9-2.5-1.9-5-5.3-5.4c0.8-0.7,1.1-1.1,1.4-1.5c0.3-0.4,0.6-0.9,0.7-1.2c-1.6-0.7-1.6,1.3-2.7,1.9c-0.5-1.6,0.3-3.9-2-4.1
	c-0.6,0.3-1.3,0.7-2.2,1.2c0.9-2.1-0.4-2.9-1.4-3c-2.4-0.1-4.1-0.4-4.3-2.9c-0.1-1-0.8-1.7-1.4-2.5c-0.5-0.7-1-1.5-1.6-2.4
	c1.2-0.9,2.2-1.6,3.5-2.5c-0.5-0.7-0.7-1.9-1.4-2.2c-2.6-1.1-5.4-1.8-8.1-2.7c-2.7-0.9-5.4-1.8-8.4-2.6c-3.1-0.8-6.3-1.5-9.6-2.1
	c-4.8-0.7-9.7-1.5-15.3-0.5c-3.5,0.6-7.2,2-10.2,1.1c-0.7-0.3-2,0.4-3.1,0.5c-2.8,0.2-6.5,2.4-8.3,0c-0.1,0-0.4,0-0.5,0
	c-2.7,1-4.8,0.5-7,0.3c-3.3-0.3-6.2,1.7-9.2,3.1c-0.5,0.3-1.2,1.4-1.4,2.1c-0.3,0.6-0.3,1.2-0.5,2c-1.5,0.6-3,1.3-4.6,2
	c0.7,1.2,1.3,2.1,1.7,3.2c0.1,0.4,0.1,1.2-0.2,1.5c-0.3,0.4-1.2,0.6-1.7,0.5c-2.5-0.6-5.3,0.1-8.5,1.5c0.5,2.1-1,4.3-2.6,6.5
	c0.9,0.9,1.9,1.6,2.7,2.4c-0.3,0.2-0.3,0.4-0.5,0.5c-1.9-0.8-3.8-1.5-6-2.5c0,1.2,0,2.1-0.1,3.2c-3,0.4-5.8,0.2-8.2,3.6
	c1.9,1.9,4.1,3.7,6.1,5.7c0.1,0,0.2,0.1,0.3,0.1c1,0.6,2,1.2,2.8,1.9c2.5,2.2,4.9,4.5,7,6.9c1.3,1.6,2.2,3.6,2.6,5.8
	c0.3,1.9,0.8,3.8,1.9,5.3c0.2,0.4,0.4,0.6,0.6,1c0.1-0.1,0.3-0.1,0.3,0c7.4,3.4,13.8,8.2,19.7,13.3c0-0.1,0-0.1,0.3-0.2
	c0.4,0.2,1,0.2,1.5,0.3c3,1.6,5.9,3,9,4.5c1.1,0.5,2.1,1,3.4,1.3c1.5,0.5,3.6,0.2,3.6,2.5c0.1,0.3,0.5,0.5,0.8,0.6
	c2.4,1.2,4.9,2.3,7.2,3.5c-0.6,1.8-1.4,3.6-2,5.2c1.1,0.8,1.5,2.1,1.8,3.5c0.2,1.2,0.7,2.2,1.1,3.2c0-0.5,0.2-1,0.3-1.6
	c2.4-0.3,2.6,0.1,1.4,2.1c0.7,0.3,1.5,0.6,2.6,1.1c-1,0.6-1.9,0.9-2.4,1.1c1,1.4,2,2.7,2.4,4.3c2.1-0.7,3.3,0.7,5.3,0.3
	c0.8-0.1,1.5,0.1,2.5,0.1c-0.6-2,2.3-2.1,2.5-4.1c0.6,0.8,0.7,1.2,1,1.7c1.2-0.6,2.7-2.6,3.6-0.7c-0.3,0.2-0.5,0.4-0.5,0.6
	c-0.2,0.3-0.4,0.6-0.9,1.2c3.7-2,4.1-3.3,2-6.5c2.8-0.2,2.3,1.9,2.9,3.6c1.8-2.7,0.7-4.5,1-6.6c1.1,0.7,1.3,1.8,1.3,3.1
	c-0.1,1.2-0.2,2.8,0.4,3.5c1,1.1,0.8,2.2-0.3,3.8c-0.6,0.8-1.8,1.9-0.5,2.6c1.2-1.1,2.5-1.6,3.5-0.6c-0.9,3.3,1.5,6-1.5,9.7
	c0.4,0.9,1.5,1.5,1.3,2.4C590.8-211.2,590.8-208,588.5-204.9z M582.6-129.4c-0.2-0.1-0.5,0-0.7-0.2c-0.2-0.2-0.1-0.4-0.2-1.1
	c0.5,0.4,0.9,0.4,1,0.5C582.8-129.8,582.7-129.6,582.6-129.4z M585.6-132.4c-1.7,0.6-2.2,0.2-1.6-1.4
	C584.6-133.2,585.1-132.9,585.6-132.4z M582.4-149.3c0.1-0.4,0.2-0.8,0.3-0.9c0.4-0.2,0.7-0.3,1.2-0.4c0,0.3-0.1,0.6-0.1,0.9
	C583.2-149.4,582.9-149.4,582.4-149.3z M629.7-187.8c-0.1,0.3-0.2,0.8-0.4,1.1c-0.3,0.2-0.6,0.2-1.4,0.4c0.3-0.6,0.4-0.9,0.6-1.1
	C628.9-187.6,629.2-187.6,629.7-187.8z M622.9-181.2c-1.5-0.7-0.5-1.8-0.2-2.5c0.3-0.1,0.4-0.1,0.6-0.1
	C623.2-183.2,623.1-182.4,622.9-181.2z M626.2-186.6c0,0.4-0.1,0.9,0,1.2c-0.3,0.1-0.6,0.2-0.8,0.2c0-0.5,0.1-1,0.2-1.4
	C625.9-186.5,626-186.6,626.2-186.6z M589.7-154L589.7-154c0.1,0.1,0.1,0.1,0.1,0.1c0.7,0.3,1.5,0.6,2.3,0.8
	c-1.3,3.8-3.4,5.5-7.3,6.1c0.8-2.2,2.7-2.9,4.7-3.4c0.2-1.2,0.2-2.3,0.3-3.5h-0.1C589.5-153.9,589.7-154,589.7-154
	c0.1-0.6,0.2-1.3,0.4-2.5C591-155.4,590.1-154.7,589.7-154z M596.3-165.8c-0.3,0.6-0.4,0.9-0.6,1.2c-0.2-0.1-0.6,0-0.7,0
	c0-0.3,0-0.5,0.2-0.8C595.6-165.7,595.8-165.6,596.3-165.8z M636-216.7c0.5,0.4,1.3,0.4,1.6,1c0.5,1-0.4,3.8-1.4,5.4
	c-0.3-2-0.5-3.9-0.7-5.9L636-216.7z M594.2-181c0.7,2.4-1.4,4.5-3.1,7c-2-2,3-4.4,0.6-5.9C592.9-180.6,593.5-180.8,594.2-181z
	 M596.4-195.3c-0.1,0.9,1.3,1.2,0,2.7c-1,1,0.6,2.3-2.1,3.6c0.6-2.3,1.1-4.2,1.5-6.1C596.1-195.2,596.3-195.2,596.4-195.3z
	 M597.3-200.2c0.1,0.3,0.3,0.6,0.2,1c0,0.3-0.3,0.7-0.5,1c-0.2-0.1-0.3,0-0.6-0.1c0.1-0.6,0.3-1.2,0.5-1.9
	C596.9-200.1,596.9-200,597.3-200.2z M514.4-288c-0.4-0.7-0.9-1.3-1.3-2.1c0.3-0.2,0.3-0.3,0.6-0.4l1.5,1.9
	C515-288.4,514.7-288.2,514.4-288z M592.6-222.5c0.2-0.5,0.5-0.9,0.7-1.5c0.2,0.1,0.5,0,0.6,0.1c-0.1,0.4-0.4,0.9-0.5,1.4
	C593.1-222.5,592.8-222.5,592.6-222.5z M521.1-71.1c-0.2-1.3-1.6-2.1-0.7-4c-0.1-0.1-1.2-0.4-1.9-0.6c-0.2,0.6-0.3,1,0,1.1
	c0.8,0.3,0.5,1-0.2,1.6c-0.9,0.8-1.4,0.5-1.6-0.2c-0.2-0.6-0.2-1.3-0.3-2.1c3.2-1.8,6.2-3.3,9.2-4.2c0.2,0.2,0.1,0.4,0.4,0.5
	c-1,1-1.7,2-2.7,3.1c2.2-1,4.2-1.8,6.6-3c-0.5-0.5-0.9-0.5-1.2-0.8c-0.2-0.2-0.4-0.6-0.4-0.6c1.4-1.2,2.5-2.2,3.6-3.1
	c1.2-0.9,2.3-1.7,3.8-2.7c-1.2-0.3-1.9-0.5-2.7-0.7c-0.3,0.6-0.6,1.1-1.1,1.8c-2-1.4-4,1.9-6.2,1.4c0.1,0.9,0.3,1.3,0.3,1.9
	c-1.2,0.7-2.1,1.2-3.2,1.9c-2.7,1.6-3.6,1.3-3.6-1.7c2-1.1,4.2-2.2,6.1-3.5c2.1-1.4,4.1-3.1,6.4-4.7c2.4,0.5,2.8,0.2,3.9-2
	c0.4-0.8,1-1.7,1.7-2.4c1.1-1.2,2.4-2,3.5-3.1c2.7-2.8,5.6-5.2,9.2-7c-0.3-0.9-0.6-1.8-0.8-2.9c-2.7,2.4-6.2,3-8.5,6
	c0.5,2.3,0.5,2.5-1.2,4.1c-1.9,1.8-3.8,3.6-6.3,2.5c-1.4,3.7-4.5,5.3-7.6,7c-1.8,1.1-3.9,2-5.4,3.4c-2.2,2.3-4.6,2.5-7,3.6
	c-0.4,0.2-0.9-0.2-1.5-0.3c3.1-2.7,6.1-4.3,9.2-5.9c1.1-0.5,2.9-1.4,3.2-2c0.7-1.4,1.4-1.6,2.5-1.9c1.1-0.3,2-0.6,3-1.9
	c-2-0.6-4.1,0.5-5.5,1.7c-2.7,2.2-5.3,3.1-8.2,3.4c-0.1,0.1-0.3,0.3-0.6,0.5c0.9,2.3-0.1,3.8-3.2,4.6c-0.3,0.1-0.4,0.1-0.6,0.1
	c-1-0.1-1.6,0.2-2.5,1.2c-0.8,0.9-2,1.6-3.2,2.3c-4.2,2.5-8.3,5.1-12.6,7.5c-6.9,4-13.9,5.7-20.8,7.7c-0.3,0.1-0.9-0.2-1.2-0.4
	c1.9-0.9,3.5-1.2,5.1-1.7c1.7-0.5,3.1-1.6,4.5-3.3c-1.3,0.6-2.3,0.9-3.2,1.3c-2.1,0.7-4.1,1.6-6.3,2.4c-4.4,1.4-8.9,3.5-13.3,4.7
	c-7.7,2.1-15.2,3.5-22.9,5c-9.7,2-19.4,3.8-28.8,4.3c-1.3,0.1-2.6,0.8-3.9,2.1c0.8,0.2,1.4,0.3,1.9,0.3c8.9,1.2,19-0.3,28.6-0.7
	c2.5-0.1,5.4-0.7,7.9-1c2.8-0.3,5.5-0.7,8.3-1c2.5-0.3,4.9-0.5,7.3-0.7c3-0.4,5.8-0.6,8.9-1c2.4-0.3,5-0.4,7.5-1.4
	c2.9-1.2,5.4-1.1,8.4-1.9c0.9-0.2,1.9,0.2,2.6,0.4c1.9,0.9,4.3,0.4,7.1-0.4c-1.6-0.8-2.8-1.2-4.3-2.1c0.9-0.8,1.6-1.6,2.1-1.8
	c3-1.1,5.8-1.6,7.4,0.8c2.9-2.3,5.3-2.8,7.5-1.6c0.3-0.2,0.3-0.4,0.5-0.5c-0.6-1-1-2-1.7-3.4c1.9-0.8,3.5-1.4,5-2.1
	c1.1-0.5,2-0.8,2.6,0.1c0.7,1,1.9,0.7,3.9,0c-1.3-0.5-2.9-0.2-2.3-2.2c1,0.8,2.1,0.5,3.5-0.4c1.1-0.7,2.6-0.8,3.6-0.7
	c0.5,0,0.7,1.1,1,1.6C521.4-69.6,521.2-70.4,521.1-71.1z M507.9-78.1c0.1-0.3,0-0.5,0.2-0.7c0-0.1,0.5-0.2,0.6-0.2
	c0.1,0.2,0.1,0.3,0.2,0.7C508.4-78.2,508.2-78.2,507.9-78.1z M512.8-73.8c-2.6,0.4-5.4,3-7.8,2.2c3.1-1.8,6.1-4.3,9.6-3.7
	C513.8-74.8,513.1-73.9,512.8-73.8z M515.9-77c0.2-0.2,0.3-0.6,0.4-0.8c0.6,0.1,1,0,1.5,0.2c0,0-0.2,0.5-0.3,0.7
	C516.9-76.8,516.4-76.9,515.9-77z M513.4-71.1c-0.3-0.1-0.5-0.3-0.7-0.7c1.4-0.9,2-0.8,2.3,0.5C514-71.1,513.7-71,513.4-71.1z
	 M578.8-155.8c-2.8,0.8-4.5,2.6-6.6,7.3c-0.3-1-0.9-1.7-2.4-0.6c-0.1-0.4-0.3-0.9-0.6-1.6c3-0.4,4-2.5,5.4-4.3
	c1.7-1.9,3.1-3.6,4.8-5.8c-0.5-0.5-1-1.1-1.7-1.9c0,1.1,0,1.8-0.1,3c-1-0.3-1.5-0.5-2.5-0.8c-0.6,1.3-1.2,2.5-2,3.9
	c-0.2-0.6-0.6-1.2-0.4-1.5c1.9-2.3,3.9-4.5,5.6-6.5c2.2,0.6,4.1,1.1,5.9,1.7c0.9,0,1.5-2.3,2.8-1.4c-0.8,1.1-1.6,2.2-2.4,3.4l0-0.1
	c-1.1,0-2.2,0.1-3.7,0.2c-0.5,0.5-1.4,1.6-2.2,2.5c0.7,1.2,1.4,2.1,2.2,3.4c-1.2,0.7-2,1.1-3.5,2C578-154.2,578.5-155,578.8-155.8z
	 M541.9-76.8c-0.5,0.7-1.2,1.5-2.2,2.5c-2-1.2-3.8-2.3-6.8-1.3c-0.3,0.1-0.3,0.1-0.6,0.2c-1.4,0.1-2.7,2-4.4,1.7
	c-1.1-0.2-2.8,0.4-4.4,0.7c0.7-1.8,2.8-2.7,3.8-2.7c2.5,0.1,4.5-1.5,6.7-2.6c1.5-0.7,2.5-1.3,4.1-1.1c1.4,0.2,3.4-0.6,5.1-1
	c0,0.3,0,0.4,0.1,0.6c-1.2,0.5-2.3,1-3.6,1.6C538.6-75.6,541.6-78,541.9-76.8z M648.7-236.6c-0.3,1-0.3,2-0.8,2.6
	c-0.5,0.5-1.7,0.6-1.8,1.5c0,0.7,0.5,1.3,0.8,2c1.7-1.9,3.1-2.4,3.9-1.4c0.4,0.7,1.1,0.8,2.1,0.6c0.3-0.1,0.7,0.3,1,0.4
	c0.8-0.3,1.7-0.5,2.8-1c-0.2-0.4-0.4-1.2-0.5-1.2c-1.8,0.5-1.6-0.5-1.7-1.5c-0.2-1.1,0-2.2-0.1-3.6c-1.5,1.5-2.6,2.6-4,3.8
	C649.9-235,650.5-236.5,648.7-236.6z M652.5-234c0.1,0.2,0.2,0.4,0.1,0.7c0.1,0.1-0.4,0.2-0.9,0.5c0-0.3-0.1-0.6,0.1-0.8
	C651.8-233.8,652.4-234.1,652.5-234z M570.8-109.5c0.4-3,2.5-4.7,5.2-4.4c0.9,0,2.3-0.5,3.4-0.8c0,0.3,0,0.4,0.1,0.4
	C576.7-112.5,574.6-108.3,570.8-109.5z M587.5-190.7c0.4,0.7,0.9,1.3,1.3,2.1c-0.7,0.9-1.4,1.8-2.3,2.8c-1.2-2.8,0.4-6,1.1-9.2
	c2-0.3,2.6,0.5,2.9,1.6C590.5-191.6,588.3-191.9,587.5-190.7z M551.1-88.1c1,1,2.3,1.8,4.3,1c-0.6,2.9-0.6,2.9-3.4,3.7
	c0.5-0.9,0.8-1.6,1.4-2.5c-1.2,0.2-2.1,0.5-3.3,0.7C550.5-86.1,550.8-87.1,551.1-88.1z M570.4-116.4c-0.6,0-1.6-0.3-1.7-0.8
	c-0.1-0.4,0.3-1.6,0.9-2.1c0.8-0.7,1.7-1.1,3.5-2.2c-0.3,1.6-0.4,2.5-0.8,3.6C571.7-117.3,570.7-116.5,570.4-116.4z M653.8-230.6
	c-0.1,0.7-0.1,1.5,0,2c-1.1,1.2-2.7,1.6-2.8,3.3c0,0.4-1.7,1.5-3.1,2.8C649.2-225.7,649.9-228.7,653.8-230.6z M544.6-81.4
	c0-1,0-1.8-0.1-3.1c1.7,1.2,4.8-0.3,6,2.1C548.3-82,546.6-81.7,544.6-81.4z M566.8-145.9c1-1.1,2-2.1,2.8-3.1
	c-0.7,2.4-2.2,4.3-4.5,5.9c-1.8-0.4-3.5-0.8-5.1-1.1c1-0.3,1.9-1.3,2.8-0.5C563.9-143.8,565.4-144.4,566.8-145.9z M560.3-119.8
	c-0.2-1.7-0.3-3.3-0.6-4.8c0-0.1,0.3-0.3,0.3-0.3c1.2,0.9,2.5,1.9,3.9,2.9C562.4-121.1,561.3-120.4,560.3-119.8z M578.3-220.3
	c-3.5,1.7-4.8,0.6-6.2-1.2C575-222.4,576-220.7,578.3-220.3z M624.8-306.5c-1.5-1-2.7-1.7-3.9-2.6c2.4-1.9,3.1-0.6,4.4-0.1
	C626.1-308.5,625.6-307.5,624.8-306.5z M546.3-88.3c0.2-1.1,0.4-1.9,0.4-2.5c0.9,0,1.7,0.1,2.4-0.1c1-0.4,1.9-1,2.4,0.1
	C550-90.1,548.3-89.3,546.3-88.3z M589.1-223.4c-1,1.4-1.5,2.2-2.2,3.3c-2.1,0.9-2.9-0.7-5-1.1c1-0.3,1.7-0.8,2.3-0.8
	C586.7-221.8,586.5-221.7,589.1-223.4z M635.6-291.1c0.6,1.4,1.2,2.4,1.8,3.3c-0.6,1.2-1,2.4-1.4,3.6c-0.3,0.1-0.3,0.1-0.6,0.2
	C635.5-286.3,635.6-288.4,635.6-291.1z M554.5-115.5c-0.6,0.4-1.1,0.8-2.2,1.5c0.4-1,0.8-1.7,1.2-2.4c0.9-0.2,1.9-0.4,2.4-0.9
	c0.6-0.4,0.3-1.4,1.6-1c-1,1.5-2.1,3.1-3.1,4.5c-0.1,0.1-0.3-0.1-0.4,0C554.1-114.3,554.4-114.8,554.5-115.5z M623.2-179.2
	c0.3,0.5-0.1,1.9,1.6,0.6c-0.1,0.6-0.2,1.2-0.2,1.9c-1.2,0.5-2.2,0.8-3.2,1.2C621-177.5,621.3-177.9,623.2-179.2z M568.8-129.4
	c0.4,0.3,1,0.4,1.6,0.6c-0.2,0.2-0.3,0.6-0.4,0.8c-1-0.4-3,1.2-3.4-0.4c-0.1-0.5,0.6-1.5,1.1-2.6
	C568.1-130.2,568.2-129.7,568.8-129.4z M645.1-218.5c0.3,0.9-0.1,2.3-0.2,3.5c-0.3,0.1-0.3,0.1-0.6,0.2c-0.3-1.3-0.5-2.8-0.8-4.1
	c-0.1-0.4-0.5-0.8-0.7-1.2C644.6-220.6,644.9-219.3,645.1-218.5z M650.8-244.2c0.8-0.5,1.7-1.1,3.3-1.9c-0.2,1-0.2,1.7-0.4,2.5
	C652.3-243.5,650.8-242.6,650.8-244.2z M648.1-220.8c0.8,0.1,1.4,0.3,1.9,0.4c-0.4,0.7-0.8,1.3-1.3,2c-0.4,0.5-0.7,1.1-1.3,2
	C646.9-218,647.6-219.3,648.1-220.8z M646.8-245.7c0,1.9,0.1,3.1,0.3,4.6C644.7-242,644.7-242.4,646.8-245.7z M574.8-215.2
	c-0.6,0.2-1,0.2-1.6,0.4c0.4-1.7,1.7-2.7,2.6-2.3c0.7,0.2,0.5,1.1-0.3,1.7C575.4-215.4,575-215.2,574.8-215.2z M571.3-158
	c-1.9,3.5-1.9,3.6-3.5,2.4C568.9-156.3,569.8-156.9,571.3-158z M567.1-133.7c-1.3,1-2.4,1.7-3.5,2.6
	C565.1-134.1,565.1-134.1,567.1-133.7z M568.9-141.3c-0.4-1.2-0.8-1.9-1.2-3.1c1.2,0.2,2.1,0.5,2.9,0.7
	C570.2-143,569.8-142.4,568.9-141.3z M553.7-90.5c0.9,0,1.5,0.1,2.8,0.2c-1.7,1.5-2.6,2.1-3.4,1.4C553-89.2,553.5-89.8,553.7-90.5z
	 M612.2-313.3c-0.8-0.6-1.5-1-2.4-1.6c0.6-0.5,1-0.8,1.9-1.6C611.7-315.1,613.3-315,612.2-313.3z M575.3-146
	c0.6-0.9,1.1-1.8,1.8-2.9C577.9-147.6,577.9-147.6,575.3-146z M630.1-180.1c-0.6,1.2-1.1,2.4-1.6,3.7
	C627.8-177.2,628-178.1,630.1-180.1z M645.5-269.7c0.2-0.3,0.4-0.5,0.6-0.8c1.4-0.5,1.9-0.1,2.3,1.7
	C647.1-269.4,646.4-269.6,645.5-269.7z M578.5-166.2c-1.2,0.6-2.3,1.1-3.5,1.8C576.2-166.5,577.1-167,578.5-166.2z M617.4-311.8
	c-1-0.4-2.1-0.8-3.5-1.4C616.1-313.8,617.3-313.5,617.4-311.8z M573.5-146.9c0.4-1.9,0.4-1.9,2.6-2.6
	C575.4-148.8,574.5-148,573.5-146.9z M558-113.3c-1.2,0.6-2,0.9-2.9,1.4C556.2-114.4,556.2-114.4,558-113.3z M577.5-140.2
	c-0.1,0-0.1,0-0.1-0.2C577.5-140.3,577.5-140.3,577.5-140.2L577.5-140.2c1.2-0.2,1.2-0.2,1.5,1.1c-0.6,0.3-1.4,0.7-2,1
	c-0.1-0.1-0.1-0.3,0-0.4C577-139.2,577.3-139.6,577.5-140.2z M653.7-218.1c0.1,0.2,0.1,0.3,0.2,0.4c-0.7,0.5-1.3,1.1-2.2,1.7
	C651.4-217.7,652.8-217.8,653.7-218.1z M650.6-217.3c0-1.4-0.1-2.1-0.1-2.9c0.7,0,1.3,0.2,2.1,0.3
	C651.9-219.1,651.5-218.6,650.6-217.3z M604.1-145.5c0.2-0.8,0.5-1.6,0.8-2.5C606.1-146.9,606.1-146.9,604.1-145.5z M572.4-130.3
	c0.1-0.9,0.1-1.7,0.1-2.6C574.3-132.2,574.3-132.2,572.4-130.3z M528.5-65.5c-0.8-0.6-1.3-0.9-1.8-1.2c0.2-0.2,0.3-0.4,0.5-0.7
	C528.3-67.5,529.3-67.5,528.5-65.5z M627.1-305c0.2-0.2,0.2-0.4,0.4-0.8c1.2-0.4,1.6,0.4,2.4,0.6c-0.2,0.2-0.2,0.4-0.3,0.6
	C628.7-304.6,627.9-304.8,627.1-305z M647-228.7c-0.1,0.9-0.1,1.9-0.1,2.8c-0.3,0-0.6,0.2-0.9,0.2c0.1-1,0.2-1.9,0.3-2.9
	C646.4-228.6,646.7-228.6,647-228.7z M584.8-213.9c0.9,0,1.8,0,3.4,0C586.2-212.7,585.5-213.3,584.8-213.9z M539.6-93.1
	c0.4,0.3,0.7,0.6,1.1,0.9c0,0-0.4,0.5-0.5,0.4c-0.6-0.1-1-0.2-1.5-0.3C539-92.5,539.3-92.7,539.6-93.1z M650.4-220.3
	c-0.1,0-0.2-0.2-0.2-0.2c0.5-1.2,0.6-2.3,2.6-2C652.3-221.4,651.2-220.9,650.4-220.3z M557.1-138.8c-0.6,0.2-1.2,0.2-1.8,0.4
	c0.1-0.3,0.1-0.6,0.2-0.9c0.6-0.1,1.1-0.2,1.7-0.3C557-139.5,557-139.1,557.1-138.8z M552.5-102.5c0.6-1.2,0.8-1.8,1.2-2.8
	C554.9-104.2,554.1-103.6,552.5-102.5z M579.8-102.6c-0.3,0.1-0.5,0.2-0.7,0.3c-0.1-0.4-0.3-0.9-0.4-1.4c0.4-0.2,0.7-0.3,1-0.4
	C579.8-103.6,579.8-103.2,579.8-102.6z M564.3-93.4c0.6-0.6,1.1-1.1,1.7-1.5c0.1,0.2,0.2,0.2,0.4,0.4c-0.6,0.6-1.2,1-1.8,1.6
	C564.4-93.2,564.3-93.3,564.3-93.4z M623-172.5c-0.5,1.2-0.7,1.8-1,2.4C620.9-170.8,621.4-171.3,623-172.5z M559-141.4
	c0.7,0.3,1.6,0.5,2.7,1C559.6-139.3,559.7-140.8,559-141.4z M580.6-225.9c-1.1,0.4-1.6,0.8-2.4,1.1
	C578.7-226.1,578.7-226.1,580.6-225.9z M558.6-100.9c-0.1-0.4-0.5-0.7-0.7-1.2c0.3-0.2,0.3-0.3,0.6-0.5c0.2,0.2,0.5,0.3,0.6,0.6
	c0,0.3,0,0.5,0,0.7C559.1-101.2,558.9-101.1,558.6-100.9z M571.1-113c-0.1,0.1-0.3,0.1-0.6,0.2c0.1-0.7,0.1-1.3,0.2-2
	c0.3,0,0.4-0.1,0.7-0.1C571.3-114.3,571.3-113.7,571.1-113z M541.3-71.7c-0.3-0.4-0.6-0.7-1-1.1C542.1-73.5,542.1-73.5,541.3-71.7z
	 M548.4-80.6c0.1,0.2,0.1,0.4,0.3,0.5c-0.5,0.3-1.1,0.8-1.7,1.2c-0.2-0.2-0.1-0.4-0.4-0.5C547.3-79.9,547.9-80.3,548.4-80.6z
	 M648.3-285.6c0.6,0.4,1.3,0.6,2.1,1.1C648.7-283.9,648-284,648.3-285.6z M573.9-124.1c-0.2-0.2-0.3-0.3-0.5-0.5
	c0.5-0.5,1-1.1,1.5-1.6c0.1,0.2,0.4,0.1,0.4,0.3C574.9-125.2,574.4-124.7,573.9-124.1z M654.2-240.4c-0.3-0.6-0.5-1.3-0.8-1.9
	c0.3-0.2,0.4-0.2,0.5-0.3c0.4,0.5,0.7,1.2,1,1.7C654.7-240.7,654.4-240.5,654.2-240.4z M646.1-253.4c-0.3-0.7-0.5-1.4-0.8-2.2
	c0.3-0.1,0.4-0.2,0.6-0.3c0.3,0.8,0.4,1.7,0.7,2.4C646.5-253.5,646.3-253.4,646.1-253.4z M572.5-211.3c0.1-0.6,0.1-1.3,0.4-2.4
	C574.2-212.7,573.5-212,572.5-211.3z M637.7-288c0.4-0.5,0.8-1.1,1.1-1.6c1.2,0.2,0.5,1.2-0.1,1.8C638.5-287.6,638-288,637.7-288z
	 M569.8-224.7c0.1,0.1-0.9,0.5-1,0.3c-0.2-0.2-0.1-0.7-0.1-1.3c0.6-0.1,1.3-0.3,1.4-0.3C570.2-225.6,570-225.1,569.8-224.7z
	 M590.4-123.4c-0.1,0,0-0.5,0.1-0.9c0.5,0,0.9-0.1,1,0c0.1,0.2,0,0.5-0.2,0.8C591.1-123.5,590.7-123.4,590.4-123.4z M528.1-70.2
	c-0.2,0.2-0.2,0.5-0.3,0.7c-0.6-0.1-1.2,0-1.7-0.1c0.2-0.2,0.1-0.4,0.2-0.6C527-70.2,527.6-70.1,528.1-70.2z M569.7-106.5
	c-0.3-0.3-0.7-0.4-1.1-0.7c0.3-0.3,0.5-0.4,0.8-0.7c0.2,0.4,0.7,0.5,0.9,0.9C569.9-106.9,569.9-106.7,569.7-106.5z M588.3-121.9
	c0.9-0.1,2-0.4,1.5,1.3C589-121.1,588.6-121.4,588.3-121.9z M642.1-278.7c-0.4-0.3-0.7-0.6-1-0.9c0.3-0.2,0.3-0.3,0.6-0.6
	c0.3,0.4,0.5,0.7,0.9,1C642.6-279.1,642.1-278.7,642.1-278.7z M621.9-164.2c0.3-0.6,0.6-1.2,0.9-1.8c0.1-0.1,0.3,0,0.5,0
	c-0.2,0.6-0.5,1.3-0.6,1.8C622.3-164.1,622-164.1,621.9-164.2z M563.2-100.3c0.2-0.4,0.2-0.8,0.5-0.9c0.3-0.2,0.6-0.2,0.7-0.1
	c-0.1,0.3-0.1,0.6-0.3,0.7C563.9-100.4,563.7-100.4,563.2-100.3z M598.3-134.7c-0.1-0.3,0-0.5,0.1-0.9c0.1-0.1,0.5-0.2,0.6-0.2
	c0.2,0.2,0.2,0.4,0.4,0.9C598.7-134.8,598.3-134.6,598.3-134.7z M577.4-140.4c-0.7-0.3-1.4-0.5-2-0.8
	C576.7-141.9,577-140.9,577.4-140.4z M652.1-208.9c-0.1-0.4-0.3-0.9-0.4-1.3c0.3-0.1,0.4-0.2,0.5-0.3c0.1,0.4,0.3,0.9,0.3,1.4
	C652.3-209,652.1-208.9,652.1-208.9z M523.6-69c0,0.3,0.1,0.3,0.1,0.4c-0.5,0.3-1.1,0.5-1.9,0.9c0-0.3-0.1-0.3-0.1-0.4
	C522.3-68.3,523.1-68.7,523.6-69z M560.2-127.2c-0.1,0.3-0.1,0.6-0.3,0.9c0,0.1-0.4,0.2-1.1,0.4
	C559.6-126.5,559.9-126.8,560.2-127.2z M575.1-141c-0.6,0.5-1.2,0.9-1.9,1.5C573.5-141.3,574.4-141.1,575.1-141z M500.8-56
	c-0.3,0.1-0.5,0-0.9,0c0.1-0.3,0.1-0.6,0.2-0.8c0.3,0,0.6,0,1,0.1C501.2-56.7,500.9-56.2,500.8-56z M644.9-230.4
	c0.1,0.2,0,0.5-0.2,0.7c0,0.1-0.3,0.1-0.9,0.2c0.2-0.5,0.2-0.8,0.4-1C644.6-230.5,644.9-230.5,644.9-230.4z M567.6-119.8
	c0.1,0.3-0.1,0.6-0.2,1.2c-0.4-0.2-0.7-0.2-0.7-0.3c0-0.3,0-0.5,0.2-0.8C567.1-119.8,567.6-119.9,567.6-119.8z M576.6-121.9
	c-0.1,0.1-0.3,0-0.4,0c0.2-0.4,0.5-0.9,0.6-1.3c0.1-0.1,0.2,0.1,0.3,0C576.9-122.7,576.7-122.3,576.6-121.9z M545-95.8
	c-0.1,0,0-0.3-0.1-0.3c0.5-0.3,0.9-0.6,1.5-0.9c0,0.3,0,0.4,0.1,0.6C546-96.3,545.5-96,545-95.8z M566.5-105.9
	c0.2,0.4,0.6,0.6,0.8,0.8c-0.3,0.2-0.3,0.3-0.6,0.4c-0.2-0.4-0.6-0.6-0.8-0.8C566.2-105.6,566.5-105.9,566.5-105.9z M508.5-65.8
	c0.1,0,0,0.5-0.2,0.5c-0.3,0.1-0.6,0.1-1.2,0.2c0.2-0.5,0.3-0.7,0.5-0.9C508-65.9,508.3-65.9,508.5-65.8z M569.9-223.3
	c-0.2,0.2-0.1,0.4-0.2,0.6c-0.5,0-0.9,0-1.5,0c-0.1-0.1,0.1-0.3,0.2-0.5C568.8-223.3,569.3-223.3,569.9-223.3z M552.5-136
	c0,0.1-0.4,0.1-0.5,0c0-0.3,0-0.5,0.1-0.8c0.4,0,0.7,0,0.7,0.3C553.1-136.6,552.7-136.2,552.5-136z M571.1-139.6
	c-0.1,0-0.4-0.1-0.4-0.1c0.3-0.4,0.5-0.8,0.8-1.1c0.1,0.2,0.3,0.1,0.3,0.3C571.8-140.3,571.4-140,571.1-139.6z M490.9-72.3
	c0.1,0.1-0.1,0.3-0.3,0.6c-0.3,0-0.5,0-0.8,0.1c-0.1-0.1,0.2-0.5,0.2-0.5C490.3-72.2,490.7-72.2,490.9-72.3z M632-301
	c-0.1-0.1,0.2-0.3,0.4-0.5c0.4,0.1,0.7,0.3,1,0.4c0.1,0.1-0.2,0.3-0.2,0.4C632.7-300.7,632.3-300.8,632-301z M548.6-111.2
	c0.3-0.1,0.6-0.2,0.8-0.2c0.1,0.1-0.1,0.4-0.2,0.5c0,0.1-0.3,0.1-0.6,0.2C548.6-110.9,548.6-111,548.6-111.2z M578.5-212.2
	c-0.2,0.2-0.4,0.5-0.5,0.7c0,0.1-0.3-0.1-0.5-0.2c0.3-0.3,0.5-0.4,0.8-0.7C578.2-212.4,578.5-212.4,578.5-212.2z M572.1-134
	c-0.5,0.2-0.9,0.4-1.2,0.5c0.2-0.2,0.4-0.5,0.7-0.7C571.6-134.2,571.8-134.1,572.1-134z M537.2-105.6c0.1-0.3,0.2-0.6,0.4-0.8
	c0-0.1,0.4-0.1,0.6,0c-0.2,0.2-0.4,0.5-0.5,0.8C537.7-105.5,537.5-105.6,537.2-105.6z M575.6-143.4c0.3,0,0.7,0,1,0.1
	c0.1,0-0.2,0.5-0.5,0.9c-0.4,0-0.8-0.1-0.9-0.4C575.3-142.8,575.5-143.4,575.6-143.4z M638.7-282.8c0.3-0.2,0.5-0.4,0.5-0.6
	c0.4,0.1,0.5,0.5,0.9,0.6c0,0.1-0.2,0.3-0.3,0.4C639.3-282.5,638.9-282.7,638.7-282.8z M558.4-247.8c-0.6,0.4-1.1,1.2-1.6,1.2
	c-1.7,0-3.4-0.1-5,0c0.1-0.3,0.1-0.6,0.4-0.9c1.7-0.4,3.5-1,5.2-1.2C557.8-249,558-248.2,558.4-247.8z"/>
<path class="st5" d="M592.8-189.3c0,0.9,0.3,1.6,0.5,2.3c0.1,0.7-0.6,2.1,1.1,1.4c0-1.1-0.1-1.9,0.2-2.8c0.4-0.9,1.4-1.8,2.4-2.8
	c-1.7-0.8-1.6-2-1-3.9c0.6-1.8,1.8-4.2,0.1-5.4c-0.3-0.3-0.1-0.9-0.3-1.5c0.3,0,0.6-0.1,0.9-0.1c0.5,0.5,1,0.8,1.8,1.5
	c1.4-3.5,0.8-6.4,3.2-9.9c0,0.9,0.3,1.3,0.2,2c-0.2,1.1-0.6,2.3-0.6,3.4c0.5,3.9,0.9,8-0.8,12.7c-0.1,0.3-0.3,0.7-0.3,0.9
	c1,1.7,0,4-0.5,6.1c-0.9,3.5-1,6.9-2.9,10c0.2,1.4,0.9,2.6,0.4,3.6c-1.2,2.7-2.8,5.4-4.4,8.2c-1.8-0.5-1.7-3-4.2-2.4
	c-0.4,1.3-1.1,2.7-1.4,4.1c-0.1,0.4-0.2,1.1-0.1,1.2c1.5,0.5,0.7,1.5-0.2,2.8c-0.6,0.8-0.6,1.8-1,2.8c0.9-0.2,1.5-0.5,1.9-0.6
	c0.6-1.1,1.2-2.1,1.8-3.1c0.2,0.1,0.4-0.1,0.6,0c-0.4-1.1-0.7-2.2-1.1-3.3c1.1,0,2-0.2,2.9-0.1c0.6,0.1,1.3,0.2,1.4,0.6
	c0.1,1.4,0.5,3.2-0.3,4.3c-1.1,1.7-1.6,3.2-2.1,4.8c-0.2,0.2-0.2,0.4-0.4,0.9c0.7-0.6,1.4-0.9,1.7-1.2c1.3,0.6,2.2,1.3,3.4,1.9
	c-0.8,0.7-1.5,1.5-2.2,2.2c0.2,0.4,0.3,1,0.7,1.5c-1.1,1.2-1.9,1.8-3.2,1.6c-0.6-0.1-1.3,0.3-2,0.6l2.8,3.2c-1.5,1.3-4.2,1.6-3.9,4
	c0.4,0.2,1,0.2,1.5,0.4c-1,1.2-1.6,2.4-2.9,1.5c-0.9-0.7-2-0.1-2.6,1.3c0.6,0.7,1.5,1.3,2,2.1c0.4,0.8,0.4,1.8,0.5,2.7
	c0,0.9,1.6,1.3,0,3c-0.7-1.2-1.3-2.4-4.1-0.8c1.4,0.8,2.5,1.8,3.8,2.2c0.7,0.1,1.9-1.1,3.4-1.9c0.4,0.3,0.9,0.8,1.4,1
	c-0.3,0.4-0.5,0.7-0.7,0.7c-2.5,1-3.2,3.3-4.8,5c-0.3,0.2-0.2,0.7-0.2,0.8c1.2,0.4,0.3,1.4-0.3,2c-0.8,0.9-1.7,1.8-2.4,2.6
	c0.7,0.6,1.3,1.2,1.9,1.9c0.1,0-0.2,0.4-0.6,0.9c-0.6-0.2-1.2-0.6-1.6-0.8c-2.1,1.7-2.5,2.3-1.8,2.9c0.9,0.7,2.2,1.1,3.4,1.9
	c0.1-1.3,0.2-2.2,0.2-3c0-0.1,0.4-0.2,0.4-0.2c0.5,0.7,1,1.5,1.7,2.5c-2.5,1.9-2.9,5.3-6.8,6.4c-0.3,0.1-0.9,1.1-1.6,2
	c2.1,0,4,0,6.3,0.1c-0.3-1.1-0.6-1.8-0.6-2.7c1.2-1.7,2.5-3.7,4.1-6.1c0.2,1.1,0.3,1.6,0.4,2.5c1.3-1,2.4-1.7,3.5-2.7
	c-0.1,0.6-0.1,1-0.1,1.4c1.3-0.7,1.9-1.8,1.5-2.6c-0.4-1.2,0.6-2,1.5-2.8c-0.2-0.4-0.5-0.7-0.7-1.1c-0.1-1.3,1.3-2.7,2.5-2.8
	c2.2-0.1,2.7-0.6,3.3-2.4c0.3-1,0.5-1.9,0.7-2.9c2.4-1.5,4.2-3.5,4.6-5.4c0.6-2.7,2.3-4.9,4.3-7c1.2-1.2,2.6-2.7,3.1-4
	c0.8-2,1.8-3.3,4.3-3.7c-0.9-1.7-0.3-4.2,1.6-6c1.3-1.2,1.9-2.2,2.2-3.5c1.2-3.2,2.5-6.5,4.1-9.6c0.7-1.5,1.1-1.7,2.4-0.9
	c1-0.6,1.3,0.1,1.6,0.6c1.8-1.4,3.2-2.9,3.6-4.9c0.3,0.9,0.4,1.7,0.8,2.5c1.1-0.4,2.1-0.9,3.2-1.3c-0.1,0.6-0.2,0.9-0.1,1.3
	c0,0.3,0,0.5,0,0.9c2.1-1.1,1.3-2.3,1.7-3.4c1.3-3,2.3-6.2,2.5-9.3c0-1.3,0.9-2.8,1.4-4.3c0.2-0.5,0.3-1,0.5-1.4
	c0.2-1.1,0.5-2.4,0.7-3.6c0.4-1.5,0.6-2.8,0.8-3.7c1.2-1.4,2.1-2.3,2.5-3.3c0.5-1.6-1.1-1.6-2.2-1.7c0.1-0.8,0.1-1.5,0.1-2
	c0.1-0.3,0.3-0.6,0.4-0.9c0.6,0.1,1.1,0.1,1.5,0.2c1.1-1.3,0.6-1.5-0.2-2c-1.4-0.9-1.2-2.2,0.6-4.3c-0.1-0.3-0.3-0.5-0.5-0.8
	c1.4-0.7,2.6-1.4,4.1-2.3c-1.6-0.5-1.1-3.2-4.3-1c0.5-2.8,0.8-5.2,1.2-7.6c0.2-1.1,0.4-2.3,0.6-3.4c0-2.7-0.1-5.3,0-8
	c0-1,0.8-2.4,0.3-3c-1.4-1.5-1.3-3.7-2-5.5c-0.1,0,0.1-0.3,0.3-0.6c0.6-0.2,1.3-0.4,1.7-0.5c1.4-2.7-1.9-2.4-1.9-4.3
	c0.7-0.6,1.6-1.2,2.5-1.9l-4.2-4.8c0,0,0,0,0,0.1c0,0,0,0-0.1,0c-1.1,0.5-1.6,0.2-1.7-0.8c1.2-0.2,1.9-0.2,1.7,0.8l0,0l0,0
	c0.3-0.3,0.5-0.6,0.9-0.9c-0.3-1-1.4-2-0.9-2.8c0.9-1.6,0-2.5,0.4-3.8c0.1-0.4-0.2-1.1-0.5-1.2c-0.3-0.1-1.1,0.4-1.4,0.6
	c-0.9-1-1.6-1.7-2.3-2.7c-0.7-0.8-1.6-1.4-2.1-2.2c-0.7-0.8-0.4-1.6,1-2.3c0.5-0.3,1.2-0.4,1.7-0.7c-0.5-1.7-0.5-1.7-2.6-2
	c-3-0.4-3.4-2.8-1.2-5.6c0.4-0.6,0.4-1.6,0.7-2.4c-2.5,1.1-4.6,0.7-5-0.6c-0.9-3.4-3.5-5.6-5.8-7.9c-0.4-0.4-1.1-0.6-1.2-1.1
	c-0.9-2.5-1.9-5-5.3-5.4c0.8-0.7,1.1-1.1,1.4-1.5c0.3-0.4,0.6-0.9,0.7-1.2c-1.6-0.7-1.6,1.3-2.7,1.9c-0.5-1.6,0.3-3.9-2-4.1
	c-0.6,0.3-1.3,0.7-2.2,1.2c0.9-2.1-0.4-2.9-1.4-3c-2.4-0.1-4.1-0.4-4.3-2.9c-0.1-1-0.8-1.7-1.4-2.5c-0.5-0.7-1-1.5-1.6-2.4
	c1.2-0.9,2.2-1.6,3.5-2.5c-0.5-0.7-0.7-1.9-1.4-2.2c-2.6-1.1-5.4-1.8-8.1-2.7c-2.7-0.9-5.4-1.8-8.4-2.6c-3.1-0.8-6.3-1.5-9.6-2.1
	c-4.8-0.7-9.7-1.5-15.3-0.5c-3.5,0.6-7.2,2-10.2,1.1c-0.7-0.3-2,0.4-3.1,0.5c-2.8,0.2-6.5,2.4-8.3,0c-0.1,0-0.4,0-0.5,0
	c-2.7,1-4.8,0.5-7,0.3c-3.3-0.3-6.2,1.7-9.2,3.1c-0.5,0.3-1.2,1.4-1.4,2.1c-0.3,0.6-0.3,1.2-0.5,2c-1.5,0.6-3,1.3-4.6,2
	c0.7,1.2,1.3,2.1,1.7,3.2c0.1,0.4,0.1,1.2-0.2,1.5c-0.3,0.4-1.2,0.6-1.7,0.5c-2.5-0.6-5.3,0.1-8.5,1.5c0.5,2.1-1,4.3-2.6,6.5
	c0.9,0.9,1.9,1.6,2.7,2.4c-0.3,0.2-0.3,0.4-0.5,0.5c-1.9-0.8-3.8-1.5-6-2.5c0,1.2,0,2.1-0.1,3.2c-3,0.4-5.8,0.2-8.2,3.6
	c1.9,1.9,4.1,3.7,6.1,5.7c0.1,0,0.2,0.1,0.3,0.1c1,0.6,2,1.2,2.8,1.9c2.5,2.2,4.9,4.5,7,6.9c1.3,1.6,2.2,3.6,2.6,5.8
	c0.3,1.9,0.8,3.8,1.9,5.3c0.2,0.4,0.4,0.6,0.6,1c0.1-0.1,0.3-0.1,0.3,0c7.4,3.4,13.8,8.2,19.7,13.3c0-0.1,0-0.1,0.3-0.2
	c0.4,0.2,1,0.2,1.5,0.3c3,1.6,5.9,3,9,4.5c1.1,0.5,2.1,1,3.4,1.3c1.5,0.5,3.6,0.2,3.6,2.5c0.1,0.3,0.5,0.5,0.8,0.6
	c2.4,1.2,4.9,2.3,7.2,3.5c-0.6,1.8-1.4,3.6-2,5.2c1.1,0.8,1.5,2.1,1.8,3.5c0.2,1.2,0.7,2.2,1.1,3.2c0-0.5,0.2-1,0.3-1.6
	c2.4-0.3,2.6,0.1,1.4,2.1c0.7,0.3,1.5,0.6,2.6,1.1c-1,0.6-1.9,0.9-2.4,1.1c1,1.4,2,2.7,2.4,4.3c2.1-0.7,3.3,0.7,5.3,0.3
	c0.8-0.1,1.5,0.1,2.5,0.1c-0.6-2,2.3-2.1,2.5-4.1c0.6,0.8,0.7,1.2,1,1.7c1.2-0.6,2.7-2.6,3.6-0.7c-0.3,0.2-0.5,0.4-0.5,0.6
	c-0.2,0.3-0.4,0.6-0.9,1.2c3.7-2,4.1-3.3,2-6.5c2.8-0.2,2.3,1.9,2.9,3.6c1.8-2.7,0.7-4.5,1-6.6c1.1,0.7,1.3,1.8,1.3,3.1
	c-0.1,1.2-0.2,2.8,0.4,3.5c1,1.1,0.8,2.2-0.3,3.8c-0.6,0.8-1.8,1.9-0.5,2.6c1.2-1.1,2.5-1.6,3.5-0.6c-0.9,3.3,1.5,6-1.5,9.7
	c0.4,0.9,1.5,1.5,1.3,2.4C595.2-195.6,595.2-192.4,592.8-189.3z M586.9-113.8c-0.2-0.1-0.5,0-0.7-0.2c-0.2-0.2-0.1-0.4-0.2-1.1
	c0.5,0.4,0.9,0.4,1,0.5C587.2-114.2,587-114,586.9-113.8z M589.9-116.8c-1.7,0.6-2.2,0.2-1.6-1.4C589-117.6,589.4-117.3,589.9-116.8
	z M586.7-133.7c0.1-0.4,0.2-0.8,0.3-0.9c0.4-0.2,0.7-0.3,1.2-0.4c0,0.3-0.1,0.6-0.1,0.9C587.6-133.8,587.3-133.8,586.7-133.7z
	 M634.1-172.2c-0.1,0.3-0.2,0.8-0.4,1.1c-0.3,0.2-0.6,0.2-1.4,0.4c0.3-0.6,0.4-0.9,0.6-1.1C633.3-172,633.6-172,634.1-172.2z
	 M627.2-165.6c-1.5-0.7-0.5-1.8-0.2-2.5c0.3-0.1,0.4-0.1,0.6-0.1C627.5-167.6,627.4-166.8,627.2-165.6z M630.6-171
	c0,0.4-0.1,0.9,0,1.2c-0.3,0.1-0.6,0.2-0.8,0.2c0-0.5,0.1-1,0.2-1.4C630.3-170.9,630.4-171,630.6-171z M594-138.4L594-138.4
	c0.1,0.1,0.1,0.1,0.1,0.1c0.7,0.3,1.5,0.6,2.3,0.8c-1.3,3.8-3.4,5.5-7.3,6.1c0.8-2.2,2.7-2.9,4.7-3.4c0.2-1.2,0.2-2.3,0.3-3.5h-0.1
	C593.9-138.3,594-138.4,594-138.4c0.1-0.6,0.2-1.3,0.4-2.5C595.4-139.8,594.5-139.1,594-138.4z M600.6-150.2
	c-0.3,0.6-0.4,0.9-0.6,1.2c-0.2-0.1-0.6,0-0.7,0c0-0.3,0-0.5,0.2-0.8C599.9-150.1,600.2-150,600.6-150.2z M640.4-201.1
	c0.5,0.4,1.3,0.4,1.6,1c0.5,1-0.4,3.8-1.4,5.4c-0.3-2-0.5-3.9-0.7-5.9L640.4-201.1z M598.5-165.4c0.7,2.4-1.4,4.5-3.1,7
	c-2-2,3-4.4,0.6-5.9C597.3-165,597.9-165.2,598.5-165.4z M600.8-179.7c-0.1,0.9,1.3,1.2,0,2.7c-1,1,0.6,2.3-2.1,3.6
	c0.6-2.3,1.1-4.2,1.5-6.1C600.4-179.6,600.6-179.6,600.8-179.7z M601.7-184.6c0.1,0.3,0.3,0.6,0.2,1c0,0.3-0.3,0.7-0.5,1
	c-0.2-0.1-0.3,0-0.6-0.1c0.1-0.6,0.3-1.2,0.5-1.9C601.2-184.5,601.3-184.4,601.7-184.6z M518.7-272.4c-0.4-0.7-0.9-1.3-1.3-2.1
	c0.3-0.2,0.3-0.3,0.6-0.4l1.5,1.9C519.4-272.8,519.1-272.6,518.7-272.4z M596.9-206.9c0.2-0.5,0.5-0.9,0.7-1.5
	c0.2,0.1,0.5,0,0.6,0.1c-0.1,0.4-0.4,0.9-0.5,1.4C597.4-206.9,597.1-206.9,596.9-206.9z M525.4-55.5c-0.2-1.3-1.6-2.1-0.7-4
	c-0.1-0.1-1.2-0.4-1.9-0.6c-0.2,0.6-0.3,1,0,1.1c0.8,0.3,0.5,1-0.2,1.6c-0.9,0.8-1.4,0.5-1.6-0.2c-0.2-0.6-0.2-1.3-0.3-2.1
	c3.2-1.8,6.2-3.3,9.2-4.2c0.2,0.2,0.1,0.4,0.4,0.5c-1,1-1.7,2-2.7,3.1c2.2-1,4.2-1.8,6.6-3c-0.5-0.5-0.9-0.5-1.2-0.8
	c-0.2-0.2-0.4-0.6-0.4-0.6c1.4-1.2,2.5-2.2,3.6-3.1c1.2-0.9,2.3-1.7,3.8-2.7c-1.2-0.3-1.9-0.5-2.7-0.7c-0.3,0.6-0.6,1.1-1.1,1.8
	c-2-1.4-4,1.9-6.2,1.4c0.1,0.9,0.3,1.3,0.3,1.9c-1.2,0.7-2.1,1.2-3.2,1.9c-2.7,1.6-3.6,1.3-3.6-1.7c2-1.1,4.2-2.2,6.1-3.5
	c2.1-1.4,4.1-3.1,6.4-4.7c2.4,0.5,2.8,0.2,3.9-2c0.4-0.8,1-1.7,1.7-2.4c1.1-1.2,2.4-2,3.5-3.1c2.7-2.8,5.6-5.2,9.2-7
	c-0.3-0.9-0.6-1.8-0.8-2.9c-2.7,2.4-6.2,3-8.5,6c0.5,2.3,0.5,2.5-1.2,4.1c-1.9,1.8-3.8,3.6-6.3,2.5c-1.4,3.7-4.5,5.3-7.6,7
	c-1.8,1.1-3.9,2-5.4,3.4c-2.2,2.3-4.6,2.5-7,3.6c-0.4,0.2-0.9-0.2-1.5-0.3c3.1-2.7,6.1-4.3,9.2-5.9c1.1-0.5,2.9-1.4,3.2-2
	c0.7-1.4,1.4-1.6,2.5-1.9c1.1-0.3,2-0.6,3-1.9c-2-0.6-4.1,0.5-5.5,1.7c-2.7,2.2-5.3,3.1-8.2,3.4c-0.1,0.1-0.3,0.3-0.6,0.5
	c0.9,2.3-0.1,3.8-3.2,4.6c-0.3,0.1-0.4,0.1-0.6,0.1c-1-0.1-1.6,0.2-2.5,1.2c-0.8,0.9-2,1.6-3.2,2.3c-4.2,2.5-8.3,5.1-12.6,7.5
	c-6.9,4-13.9,5.7-20.8,7.7c-0.3,0.1-0.9-0.2-1.2-0.4c1.9-0.9,3.5-1.2,5.1-1.7c1.7-0.5,3.1-1.6,4.5-3.3c-1.3,0.6-2.3,0.9-3.2,1.3
	c-2.1,0.7-4.1,1.6-6.3,2.4c-4.4,1.4-8.9,3.5-13.3,4.7c-7.7,2.1-15.2,3.5-22.9,5c-9.7,2-19.4,3.8-28.8,4.3c-1.3,0.1-2.6,0.8-3.9,2.1
	c0.8,0.2,1.4,0.3,1.9,0.3c8.9,1.2,19-0.3,28.6-0.7c2.5-0.1,5.4-0.7,7.9-1c2.8-0.3,5.5-0.7,8.3-1c2.5-0.3,4.9-0.5,7.3-0.7
	c3-0.4,5.8-0.6,8.9-1c2.4-0.3,5-0.4,7.5-1.4c2.9-1.2,5.4-1.1,8.4-1.9c0.9-0.2,1.9,0.2,2.6,0.4c1.9,0.9,4.3,0.4,7.1-0.4
	c-1.6-0.8-2.8-1.2-4.3-2.1c0.9-0.8,1.6-1.6,2.1-1.8c3-1.1,5.8-1.6,7.4,0.8c2.9-2.3,5.3-2.8,7.5-1.6c0.3-0.2,0.3-0.4,0.5-0.5
	c-0.6-1-1-2-1.7-3.4c1.9-0.8,3.5-1.4,5-2.1c1.1-0.5,2-0.8,2.6,0.1c0.7,1,1.9,0.7,3.9,0c-1.3-0.5-2.9-0.2-2.3-2.2
	c1,0.8,2.1,0.5,3.5-0.4c1.1-0.7,2.6-0.8,3.6-0.7c0.5,0,0.7,1.1,1,1.6C525.7-54,525.5-54.8,525.4-55.5z M512.2-62.5
	c0.1-0.3,0-0.5,0.2-0.7c0-0.1,0.5-0.2,0.6-0.2c0.1,0.2,0.1,0.3,0.2,0.7C512.8-62.6,512.6-62.6,512.2-62.5z M517.1-58.2
	c-2.6,0.4-5.4,3-7.8,2.2c3.1-1.8,6.1-4.3,9.6-3.7C518.1-59.2,517.4-58.3,517.1-58.2z M520.3-61.4c0.2-0.2,0.3-0.6,0.4-0.8
	c0.6,0.1,1,0,1.5,0.2c0,0-0.2,0.5-0.3,0.7C521.2-61.2,520.7-61.3,520.3-61.4z M517.7-55.5c-0.3-0.1-0.5-0.3-0.7-0.7
	c1.4-0.9,2-0.8,2.3,0.5C518.3-55.5,518.1-55.4,517.7-55.5z M583.1-140.2c-2.8,0.8-4.5,2.6-6.6,7.3c-0.3-1-0.9-1.7-2.4-0.6
	c-0.1-0.4-0.3-0.9-0.6-1.6c3-0.4,4-2.5,5.4-4.3c1.7-1.9,3.1-3.6,4.8-5.8c-0.5-0.5-1-1.1-1.7-1.9c0,1.1,0,1.8-0.1,3
	c-1-0.3-1.5-0.5-2.5-0.8c-0.6,1.3-1.2,2.5-2,3.9c-0.2-0.6-0.6-1.2-0.4-1.5c1.9-2.3,3.9-4.5,5.6-6.5c2.2,0.6,4.1,1.1,5.9,1.7
	c0.9,0,1.5-2.3,2.8-1.4c-0.8,1.1-1.6,2.2-2.4,3.4l0-0.1c-1.1,0-2.2,0.1-3.7,0.2c-0.5,0.5-1.4,1.6-2.2,2.5c0.7,1.2,1.4,2.1,2.2,3.4
	c-1.2,0.7-2,1.1-3.5,2C582.4-138.6,582.8-139.4,583.1-140.2z M546.2-61.2c-0.5,0.7-1.2,1.5-2.2,2.5c-2-1.2-3.8-2.3-6.8-1.3
	c-0.3,0.1-0.3,0.1-0.6,0.2c-1.4,0.1-2.7,2-4.4,1.7c-1.1-0.2-2.8,0.4-4.4,0.7c0.7-1.8,2.8-2.7,3.8-2.7c2.5,0.1,4.5-1.5,6.7-2.6
	c1.5-0.7,2.5-1.3,4.1-1.1c1.4,0.2,3.4-0.6,5.1-1c0,0.3,0,0.4,0.1,0.6c-1.2,0.5-2.3,1-3.6,1.6C542.9-60,546-62.4,546.2-61.2z
	 M653.1-221c-0.3,1-0.3,2-0.8,2.6c-0.5,0.5-1.7,0.6-1.8,1.5c0,0.7,0.5,1.3,0.8,2c1.7-1.9,3.1-2.4,3.9-1.4c0.4,0.7,1.1,0.8,2.1,0.6
	c0.3-0.1,0.7,0.3,1,0.4c0.8-0.3,1.7-0.5,2.8-1c-0.2-0.4-0.4-1.2-0.5-1.2c-1.8,0.5-1.6-0.5-1.7-1.5c-0.2-1.1,0-2.2-0.1-3.6
	c-1.5,1.5-2.6,2.6-4,3.8C654.2-219.4,654.8-220.9,653.1-221z M656.8-218.4c0.1,0.2,0.2,0.4,0.1,0.7c0.1,0.1-0.4,0.2-0.9,0.5
	c0-0.3-0.1-0.6,0.1-0.8C656.1-218.2,656.8-218.5,656.8-218.4z M575.1-93.9c0.4-3,2.5-4.7,5.2-4.4c0.9,0,2.3-0.5,3.4-0.8
	c0,0.3,0,0.4,0.1,0.4C581-96.9,579-92.7,575.1-93.9z M591.8-175.1c0.4,0.7,0.9,1.3,1.3,2.1c-0.7,0.9-1.4,1.8-2.3,2.8
	c-1.2-2.8,0.4-6,1.1-9.2c2-0.3,2.6,0.5,2.9,1.6C594.8-176,592.6-176.3,591.8-175.1z M555.4-72.5c1,1,2.3,1.8,4.3,1
	c-0.6,2.9-0.6,2.9-3.4,3.7c0.5-0.9,0.8-1.6,1.4-2.5c-1.2,0.2-2.1,0.5-3.3,0.7C554.8-70.5,555.1-71.5,555.4-72.5z M574.7-100.8
	c-0.6,0-1.6-0.3-1.7-0.8c-0.1-0.4,0.3-1.6,0.9-2.1c0.8-0.7,1.7-1.1,3.5-2.2c-0.3,1.6-0.4,2.5-0.8,3.6
	C576.1-101.7,575-100.9,574.7-100.8z M658.2-215c-0.1,0.7-0.1,1.5,0,2c-1.1,1.2-2.7,1.6-2.8,3.3c0,0.4-1.7,1.5-3.1,2.8
	C653.6-210.1,654.2-213.1,658.2-215z M549-65.8c0-1,0-1.8-0.1-3.1c1.7,1.2,4.8-0.3,6,2.1C552.7-66.4,551-66.1,549-65.8z
	 M571.2-130.3c1-1.1,2-2.1,2.8-3.1c-0.7,2.4-2.2,4.3-4.5,5.9c-1.8-0.4-3.5-0.8-5.1-1.1c1-0.3,1.9-1.3,2.8-0.5
	C568.2-128.2,569.7-128.8,571.2-130.3z M564.7-104.2c-0.2-1.7-0.3-3.3-0.6-4.8c0-0.1,0.3-0.3,0.3-0.3c1.2,0.9,2.5,1.9,3.9,2.9
	C566.8-105.5,565.6-104.8,564.7-104.2z M582.6-204.7c-3.5,1.7-4.8,0.6-6.2-1.2C579.4-206.8,580.4-205.1,582.6-204.7z M629.1-290.9
	c-1.5-1-2.7-1.7-3.9-2.6c2.4-1.9,3.1-0.6,4.4-0.1C630.4-292.9,629.9-291.9,629.1-290.9z M550.6-72.7c0.2-1.1,0.4-1.9,0.4-2.5
	c0.9,0,1.7,0.1,2.4-0.1c1-0.4,1.9-1,2.4,0.1C554.3-74.5,552.6-73.7,550.6-72.7z M593.5-207.8c-1,1.4-1.5,2.2-2.2,3.3
	c-2.1,0.9-2.9-0.7-5-1.1c1-0.3,1.7-0.8,2.3-0.8C591-206.2,590.9-206.1,593.5-207.8z M640-275.5c0.6,1.4,1.2,2.4,1.8,3.3
	c-0.6,1.2-1,2.4-1.4,3.6c-0.3,0.1-0.3,0.1-0.6,0.2C639.8-270.7,640-272.8,640-275.5z M558.8-99.9c-0.6,0.4-1.1,0.8-2.2,1.5
	c0.4-1,0.8-1.7,1.2-2.4c0.9-0.2,1.9-0.4,2.4-0.9c0.6-0.4,0.3-1.4,1.6-1c-1,1.5-2.1,3.1-3.1,4.5c-0.1,0.1-0.3-0.1-0.4,0
	C558.5-98.7,558.8-99.2,558.8-99.9z M627.5-163.6c0.3,0.5-0.1,1.9,1.6,0.6c-0.1,0.6-0.2,1.2-0.2,1.9c-1.2,0.5-2.2,0.8-3.2,1.2
	C625.3-161.9,625.6-162.3,627.5-163.6z M573.1-113.8c0.4,0.3,1,0.4,1.6,0.6c-0.2,0.2-0.3,0.6-0.4,0.8c-1-0.4-3,1.2-3.4-0.4
	c-0.1-0.5,0.6-1.5,1.1-2.6C572.4-114.6,572.5-114.1,573.1-113.8z M649.4-202.9c0.3,0.9-0.1,2.3-0.2,3.5c-0.3,0.1-0.3,0.1-0.6,0.2
	c-0.3-1.3-0.5-2.8-0.8-4.1c-0.1-0.4-0.5-0.8-0.7-1.2C648.9-205,649.2-203.7,649.4-202.9z M655.1-228.6c0.8-0.5,1.7-1.1,3.3-1.9
	c-0.2,1-0.2,1.7-0.4,2.5C656.6-227.9,655.2-227,655.1-228.6z M652.4-205.2c0.8,0.1,1.4,0.3,1.9,0.4c-0.4,0.7-0.8,1.3-1.3,2
	c-0.4,0.5-0.7,1.1-1.3,2C651.2-202.4,651.9-203.7,652.4-205.2z M651.1-230.1c0,1.9,0.1,3.1,0.3,4.6C649-226.4,649-226.8,651.1-230.1
	z M579.2-199.6c-0.6,0.2-1,0.2-1.6,0.4c0.4-1.7,1.7-2.7,2.6-2.3c0.7,0.2,0.5,1.1-0.3,1.7C579.8-199.8,579.4-199.6,579.2-199.6z
	 M575.6-142.4c-1.9,3.5-1.9,3.6-3.5,2.4C573.2-140.7,574.2-141.3,575.6-142.4z M571.5-118.1c-1.3,1-2.4,1.7-3.5,2.6
	C569.4-118.5,569.4-118.5,571.5-118.1z M573.2-125.7c-0.4-1.2-0.8-1.9-1.2-3.1c1.2,0.2,2.1,0.5,2.9,0.7
	C574.6-127.4,574.1-126.8,573.2-125.7z M558-74.9c0.9,0,1.5,0.1,2.8,0.2c-1.7,1.5-2.6,2.1-3.4,1.4C557.4-73.6,557.8-74.2,558-74.9z
	 M616.6-297.7c-0.8-0.6-1.5-1-2.4-1.6c0.6-0.5,1-0.8,1.9-1.6C616.1-299.5,617.7-299.4,616.6-297.7z M579.7-130.4
	c0.6-0.9,1.1-1.8,1.8-2.9C582.2-132,582.2-132,579.7-130.4z M634.5-164.5c-0.6,1.2-1.1,2.4-1.6,3.7
	C632.1-161.6,632.4-162.5,634.5-164.5z M649.9-254.1c0.2-0.3,0.4-0.5,0.6-0.8c1.4-0.5,1.9-0.1,2.3,1.7
	C651.4-253.8,650.7-254,649.9-254.1z M582.8-150.6c-1.2,0.6-2.3,1.1-3.5,1.8C580.5-150.9,581.4-151.4,582.8-150.6z M621.8-296.2
	c-1-0.4-2.1-0.8-3.5-1.4C620.5-298.2,621.7-297.9,621.8-296.2z M577.9-131.3c0.4-1.9,0.4-1.9,2.6-2.6
	C579.7-133.2,578.9-132.4,577.9-131.3z M562.4-97.7c-1.2,0.6-2,0.9-2.9,1.4C560.5-98.8,560.5-98.8,562.4-97.7z M581.9-124.6
	c-0.1,0-0.1,0-0.1-0.2C581.8-124.7,581.8-124.7,581.9-124.6L581.9-124.6c1.2-0.2,1.2-0.2,1.5,1.1c-0.6,0.3-1.4,0.7-2,1
	c-0.1-0.1-0.1-0.3,0-0.4C581.4-123.6,581.6-124,581.9-124.6z M658-202.5c0.1,0.2,0.1,0.3,0.2,0.4c-0.7,0.5-1.3,1.1-2.2,1.7
	C655.8-202.1,657.1-202.2,658-202.5z M654.9-201.7c0-1.4-0.1-2.1-0.1-2.9c0.7,0,1.3,0.2,2.1,0.3C656.2-203.5,655.8-203,654.9-201.7z
	 M608.5-129.9c0.2-0.8,0.5-1.6,0.8-2.5C610.5-131.3,610.5-131.3,608.5-129.9z M576.8-114.7c0.1-0.9,0.1-1.7,0.1-2.6
	C578.6-116.6,578.6-116.6,576.8-114.7z M532.9-49.9c-0.8-0.6-1.3-0.9-1.8-1.2c0.2-0.2,0.3-0.4,0.5-0.7
	C532.7-51.9,533.7-51.9,532.9-49.9z M631.4-289.4c0.2-0.2,0.2-0.4,0.4-0.8c1.2-0.4,1.6,0.4,2.4,0.6c-0.2,0.2-0.2,0.4-0.3,0.6
	C633.1-289,632.3-289.2,631.4-289.4z M651.3-213.1c-0.1,0.9-0.1,1.9-0.1,2.8c-0.3,0-0.6,0.2-0.9,0.2c0.1-1,0.2-1.9,0.3-2.9
	C650.8-213,651.1-213,651.3-213.1z M589.2-198.3c0.9,0,1.8,0,3.4,0C590.6-197.1,589.8-197.7,589.2-198.3z M543.9-77.5
	c0.4,0.3,0.7,0.6,1.1,0.9c0,0-0.4,0.5-0.5,0.4c-0.6-0.1-1-0.2-1.5-0.3C543.3-76.9,543.7-77.1,543.9-77.5z M654.7-204.7
	c-0.1,0-0.2-0.2-0.2-0.2c0.5-1.2,0.6-2.3,2.6-2C656.7-205.8,655.6-205.3,654.7-204.7z M561.4-123.2c-0.6,0.2-1.2,0.2-1.8,0.4
	c0.1-0.3,0.1-0.6,0.2-0.9c0.6-0.1,1.1-0.2,1.7-0.3C561.4-123.9,561.3-123.5,561.4-123.2z M556.8-86.9c0.6-1.2,0.8-1.8,1.2-2.8
	C559.2-88.6,558.5-88,556.8-86.9z M584.2-87c-0.3,0.1-0.5,0.2-0.7,0.3c-0.1-0.4-0.3-0.9-0.4-1.4c0.4-0.2,0.7-0.3,1-0.4
	C584.2-88,584.1-87.6,584.2-87z M568.7-77.8c0.6-0.6,1.1-1.1,1.7-1.5c0.1,0.2,0.2,0.2,0.4,0.4c-0.6,0.6-1.2,1-1.8,1.6
	C568.8-77.6,568.6-77.7,568.7-77.8z M627.3-156.9c-0.5,1.2-0.7,1.8-1,2.4C625.2-155.2,625.8-155.7,627.3-156.9z M563.3-125.8
	c0.7,0.3,1.6,0.5,2.7,1C563.9-123.7,564-125.2,563.3-125.8z M585-210.3c-1.1,0.4-1.6,0.8-2.4,1.1C583.1-210.5,583.1-210.5,585-210.3
	z M563-85.3c-0.1-0.4-0.5-0.7-0.7-1.2c0.3-0.2,0.3-0.3,0.6-0.5c0.2,0.2,0.5,0.3,0.6,0.6c0,0.3,0,0.5,0,0.7
	C563.4-85.6,563.3-85.5,563-85.3z M575.4-97.4c-0.1,0.1-0.3,0.1-0.6,0.2c0.1-0.7,0.1-1.3,0.2-2c0.3,0,0.4-0.1,0.7-0.1
	C575.7-98.7,575.6-98.1,575.4-97.4z M545.7-56.1c-0.3-0.4-0.6-0.7-1-1.1C546.5-57.9,546.5-57.9,545.7-56.1z M552.7-65
	c0.1,0.2,0.1,0.4,0.3,0.5c-0.5,0.3-1.1,0.8-1.7,1.2c-0.2-0.2-0.1-0.4-0.4-0.5C551.6-64.3,552.2-64.7,552.7-65z M652.6-270
	c0.6,0.4,1.3,0.6,2.1,1.1C653.1-268.3,652.3-268.4,652.6-270z M578.3-108.5c-0.2-0.2-0.3-0.3-0.5-0.5c0.5-0.5,1-1.1,1.5-1.6
	c0.1,0.2,0.4,0.1,0.4,0.3C579.2-109.6,578.7-109.1,578.3-108.5z M658.6-224.8c-0.3-0.6-0.5-1.3-0.8-1.9c0.3-0.2,0.4-0.2,0.5-0.3
	c0.4,0.5,0.7,1.2,1,1.7C659-225.1,658.7-224.9,658.6-224.8z M650.4-237.8c-0.3-0.7-0.5-1.4-0.8-2.2c0.3-0.1,0.4-0.2,0.6-0.3
	c0.3,0.8,0.4,1.7,0.7,2.4C650.9-237.9,650.6-237.8,650.4-237.8z M576.8-195.7c0.1-0.6,0.1-1.3,0.4-2.4
	C578.6-197.1,577.9-196.4,576.8-195.7z M642-272.4c0.4-0.5,0.8-1.1,1.1-1.6c1.2,0.2,0.5,1.2-0.1,1.8
	C642.9-272,642.3-272.4,642-272.4z M574.2-209.1c0.1,0.1-0.9,0.5-1,0.3c-0.2-0.2-0.1-0.7-0.1-1.3c0.6-0.1,1.3-0.3,1.4-0.3
	C574.6-210,574.4-209.5,574.2-209.1z M594.7-107.8c-0.1,0,0-0.5,0.1-0.9c0.5,0,0.9-0.1,1,0c0.1,0.2,0,0.5-0.2,0.8
	C595.5-107.9,595-107.8,594.7-107.8z M532.5-54.6c-0.2,0.2-0.2,0.5-0.3,0.7c-0.6-0.1-1.2,0-1.7-0.1c0.2-0.2,0.1-0.4,0.2-0.6
	C531.4-54.6,531.9-54.5,532.5-54.6z M574-90.9c-0.3-0.3-0.7-0.4-1.1-0.7c0.3-0.3,0.5-0.4,0.8-0.7c0.2,0.4,0.7,0.5,0.9,0.9
	C574.3-91.3,574.2-91.1,574-90.9z M592.6-106.3c0.9-0.1,2-0.4,1.5,1.3C593.4-105.5,592.9-105.8,592.6-106.3z M646.5-263.1
	c-0.4-0.3-0.7-0.6-1-0.9c0.3-0.2,0.3-0.3,0.6-0.6c0.3,0.4,0.5,0.7,0.9,1C646.9-263.5,646.5-263.1,646.5-263.1z M626.2-148.6
	c0.3-0.6,0.6-1.2,0.9-1.8c0.1-0.1,0.3,0,0.5,0c-0.2,0.6-0.5,1.3-0.6,1.8C626.7-148.5,626.4-148.5,626.2-148.6z M567.5-84.7
	c0.2-0.4,0.2-0.8,0.5-0.9c0.3-0.2,0.6-0.2,0.7-0.1c-0.1,0.3-0.1,0.6-0.3,0.7C568.3-84.8,568.1-84.8,567.5-84.7z M602.7-119.1
	c-0.1-0.3,0-0.5,0.1-0.9c0.1-0.1,0.5-0.2,0.6-0.2c0.2,0.2,0.2,0.4,0.4,0.9C603.1-119.2,602.6-119,602.7-119.1z M581.7-124.8
	c-0.7-0.3-1.4-0.5-2-0.8C581-126.3,581.3-125.3,581.7-124.8z M656.4-193.3c-0.1-0.4-0.3-0.9-0.4-1.3c0.3-0.1,0.4-0.2,0.5-0.3
	c0.1,0.4,0.3,0.9,0.3,1.4C656.7-193.4,656.4-193.3,656.4-193.3z M528-53.4c0,0.3,0.1,0.3,0.1,0.4c-0.5,0.3-1.1,0.5-1.9,0.9
	c0-0.3-0.1-0.3-0.1-0.4C526.7-52.7,527.5-53.1,528-53.4z M564.5-111.6c-0.1,0.3-0.1,0.6-0.3,0.9c0,0.1-0.4,0.2-1.1,0.4
	C564-110.9,564.3-111.2,564.5-111.6z M579.5-125.4c-0.6,0.5-1.2,0.9-1.9,1.5C577.8-125.7,578.7-125.5,579.5-125.4z M505.2-40.4
	c-0.3,0.1-0.5,0-0.9,0c0.1-0.3,0.1-0.6,0.2-0.8c0.3,0,0.6,0,1,0.1C505.5-41.1,505.2-40.6,505.2-40.4z M649.3-214.8
	c0.1,0.2,0,0.5-0.2,0.7c0,0.1-0.3,0.1-0.9,0.2c0.2-0.5,0.2-0.8,0.4-1C648.9-214.9,649.2-214.9,649.3-214.8z M572-104.2
	c0.1,0.3-0.1,0.6-0.2,1.2c-0.4-0.2-0.7-0.2-0.7-0.3c0-0.3,0-0.5,0.2-0.8C571.5-104.2,571.9-104.3,572-104.2z M580.9-106.3
	c-0.1,0.1-0.3,0-0.4,0c0.2-0.4,0.5-0.9,0.6-1.3c0.1-0.1,0.2,0.1,0.3,0C581.2-107.1,581.1-106.7,580.9-106.3z M549.3-80.2
	c-0.1,0,0-0.3-0.1-0.3c0.5-0.3,0.9-0.6,1.5-0.9c0,0.3,0,0.4,0.1,0.6C550.3-80.7,549.8-80.4,549.3-80.2z M570.9-90.3
	c0.2,0.4,0.6,0.6,0.8,0.8c-0.3,0.2-0.3,0.3-0.6,0.4c-0.2-0.4-0.6-0.6-0.8-0.8C570.6-90,570.9-90.3,570.9-90.3z M512.9-50.2
	c0.1,0,0,0.5-0.2,0.5c-0.3,0.1-0.6,0.1-1.2,0.2c0.2-0.5,0.3-0.7,0.5-0.9C512.3-50.3,512.6-50.3,512.9-50.2z M574.2-207.7
	c-0.2,0.2-0.1,0.4-0.2,0.6c-0.5,0-0.9,0-1.5,0c-0.1-0.1,0.1-0.3,0.2-0.5C573.1-207.7,573.6-207.7,574.2-207.7z M556.9-120.4
	c0,0.1-0.4,0.1-0.5,0c0-0.3,0-0.5,0.1-0.8c0.4,0,0.7,0,0.7,0.3C557.4-121,557.1-120.6,556.9-120.4z M575.4-124
	c-0.1,0-0.4-0.1-0.4-0.1c0.3-0.4,0.5-0.8,0.8-1.1c0.1,0.2,0.3,0.1,0.3,0.3C576.1-124.7,575.8-124.4,575.4-124z M495.3-56.7
	c0.1,0.1-0.1,0.3-0.3,0.6c-0.3,0-0.5,0-0.8,0.1c-0.1-0.1,0.2-0.5,0.2-0.5C494.7-56.6,495.1-56.6,495.3-56.7z M636.3-285.4
	c-0.1-0.1,0.2-0.3,0.4-0.5c0.4,0.1,0.7,0.3,1,0.4c0.1,0.1-0.2,0.3-0.2,0.4C637-285.1,636.7-285.2,636.3-285.4z M552.9-95.6
	c0.3-0.1,0.6-0.2,0.8-0.2c0.1,0.1-0.1,0.4-0.2,0.5c0,0.1-0.3,0.1-0.6,0.2C553-95.3,552.9-95.4,552.9-95.6z M582.9-196.6
	c-0.2,0.2-0.4,0.5-0.5,0.7c0,0.1-0.3-0.1-0.5-0.2c0.3-0.3,0.5-0.4,0.8-0.7C582.6-196.8,582.9-196.8,582.9-196.6z M576.5-118.4
	c-0.5,0.2-0.9,0.4-1.2,0.5c0.2-0.2,0.4-0.5,0.7-0.7C576-118.6,576.1-118.5,576.5-118.4z M541.6-90c0.1-0.3,0.2-0.6,0.4-0.8
	c0-0.1,0.4-0.1,0.6,0c-0.2,0.2-0.4,0.5-0.5,0.8C542-89.9,541.9-90,541.6-90z M579.9-127.8c0.3,0,0.7,0,1,0.1c0.1,0-0.2,0.5-0.5,0.9
	c-0.4,0-0.8-0.1-0.9-0.4C579.6-127.2,579.8-127.8,579.9-127.8z M643-267.2c0.3-0.2,0.5-0.4,0.5-0.6c0.4,0.1,0.5,0.5,0.9,0.6
	c0,0.1-0.2,0.3-0.3,0.4C643.6-266.9,643.3-267.1,643-267.2z M562.8-232.2c-0.6,0.4-1.1,1.2-1.6,1.2c-1.7,0-3.4-0.1-5,0
	c0.1-0.3,0.1-0.6,0.4-0.9c1.7-0.4,3.5-1,5.2-1.2C562.2-233.4,562.3-232.6,562.8-232.2z"/>
</svg>
