<?xml version="1.0" encoding="utf-8"?>
<!-- Generator: Adobe Illustrator 22.0.1, SVG Export Plug-In . SVG Version: 6.00 Build 0)  -->
<svg version="1.1" id="Capa_1" xmlns="http://www.w3.org/2000/svg" xmlns:xlink="http://www.w3.org/1999/xlink" x="0px" y="0px"
	 viewBox="0 0 1152.9 1152.9" style="enable-background:new 0 0 1152.9 1152.9;" xml:space="preserve">
<style type="text/css">
	.st0{fill:url(#SVGID_1_);}
	.st1{fill:#010103;}
	.st2{fill:#FFFFFF;}
	.st3{fill:url(#SVGID_2_);}
</style>
<g>
	<path d="M77.4,626.7c5.9,5.7,9.2,12.8,9.8,21.3c0.6,8.5-1.8,16.1-7.1,22.8c-2.1,2.2-4.4,4.3-7.1,6.2c5,2.5,9.8,3.5,14.2,2.8
		c6.2-0.9,12.3-4.5,18.4-10.7c6.1-6.2,12.2-14.3,18.4-24.4c6.2-10.1,12.5-21.8,18.8-35.1c6.4-13.3,12.9-27.4,19.7-42.2l-76.7,10.4
		l41.2-46h51.9c9.2-19.9,19-39.7,29.5-59.3c10.5-19.6,21.8-37.7,33.9-54.3c12.1-16.6,25.2-31,39.2-43.2c14-12.2,29.3-20.5,45.9-24.9
		c7.4-1.6,14.5-2.8,21.3-3.6c6.8-0.8,12.7-1.2,17.7-1.2c5.9,0,11.4,0.3,16.4,0.9c2.4,0.6,3.2,2.5,2.4,5.5c-0.7,3-3,5.8-6.9,8.3
		c-11.2,6.3-21.5,17.6-30.8,33.7c-9.3,16.1-17.3,34.8-23.9,56c-6.6,21.2-11.9,43.7-15.7,67.6c-3.8,23.9-6,46.9-6.4,69
		c-0.4,22.1,1.1,42.2,4.7,60.2c3.5,18,9.5,31.6,17.7,40.8c5,6,11.3,9.5,18.8,10.4c7.5,0.9,14,0.6,19.3-0.9
		c-7.7-5.7-12-13.1-12.9-22.3c-1.2-8.5,0.8-16.1,6-22.8c5.2-6.6,11.7-10.6,19.7-11.9c8-0.9,15.1,1.3,21.3,6.6
		c6.2,5.4,9.9,12.3,11.1,20.9c0.6,13-3.9,23.8-13.5,32.5c-9.6,8.7-21.3,14.9-35,18.5c-13.7,3.6-27.9,4.3-42.3,2.1
		c-14.5-2.2-26.2-7.9-35-17.1c-7.4-7.6-13.4-16.8-18-27.8c-4.6-10.9-7.8-22.9-9.8-35.8c-1.9-13-2.7-26.6-2.2-41
		c0.4-14.4,2-29.2,4.7-44.4l-34.1,4.7c-8.6,19.3-17.4,37.8-26.4,55.5c-9,17.7-18.6,33.4-28.8,47.2c-10.2,13.8-21.1,24.7-32.6,33
		c-11.5,8.2-24.1,12.3-37.7,12.3c-14.2,0-26.4-2.7-36.8-8.1c-10.3-5.4-18.2-12.1-23.7-20.2c-5.5-8.1-8.4-16.5-8.6-25.4
		c-0.3-8.9,2.5-16.9,8.4-24.2c5.3-6.3,12-9.8,20.2-10.4C64,618.5,71.2,621,77.4,626.7z M260.5,531.8c3.8-16.8,8.8-33.3,14.8-49.6
		c6.1-16.3,13-31.8,20.8-46.5c7.8-14.7,16.4-28.3,25.7-40.8c9.3-12.5,19.1-23,29.5-31.5c-5,0.6-10,1.7-15.1,3.3
		c-10,3.8-19.5,10.9-28.4,21.3c-8.9,10.4-17.4,23.2-25.7,38.2c-8.3,15-16.4,31.6-24.4,49.8c-8,18.2-16,36.8-23.9,55.7H260.5z"/>
	<path d="M505.6,557.4c2.4-2.8,4.9-4.8,7.5-5.9c2.7-1.1,4.9-1.4,6.6-0.9c1.8,0.5,2.7,1.7,2.9,3.8c0.1,2.1-1.1,5-3.8,8.8
		c-2.7,3.8-6.7,9-12.2,15.7c-5.5,6.6-11.8,13.2-19.1,19.7c-7.2,6.5-15.1,11.9-23.5,16.4c-8.4,4.4-16.6,6.2-24.6,5.2
		c-9.2-0.9-16.5-4.7-21.9-11.1c-5.5-6.5-9.2-14.3-11.3-23.5c-2.1-9.2-2.3-19-0.7-29.6c1.6-10.6,4.9-20.3,10-29.2
		c5-8.9,11.7-16.2,20.2-22.1c8.4-5.8,18.5-8.8,30.4-8.8c8.3,0,14.8,2.1,19.7,6.4c4.9,4.3,8,9.5,9.3,15.7c1.3,6.2,1.1,12.6-0.7,19.2
		c-1.8,6.6-5.2,12.3-10.2,17.1c-3.5,3.2-7,4.5-10.4,4c-3.4-0.5-6.3-1.7-8.6-3.8c-2.4-2.1-4.1-4.4-5.1-7.1c-1-2.7-0.8-4.7,0.7-5.9
		c4.7-4.4,8-9.4,9.8-14.9c1.8-5.5,1-9.7-2.2-12.6c-2.4-1.9-5.1-2.1-8.2-0.7c-3.1,1.4-6.1,4-8.9,7.8c-2.8,3.8-5.5,8.4-8,13.8
		c-2.5,5.4-4.2,10.8-5.1,16.1c-1.8,13-1.2,23.2,1.8,30.6c3,7.4,8.1,11,15.5,10.7c4.7,0,9.5-1.1,14.2-3.3c4.7-2.2,9.2-5.1,13.5-8.5
		c4.3-3.5,8.3-7.3,12-11.4C498.8,564.7,502.3,560.9,505.6,557.4z"/>
	<path d="M574.7,494.8c6.8,0,12.4,1.7,16.8,5c4.4,3.3,7.8,7.8,10,13.5c2.2,5.7,3.1,12.3,2.7,19.9c-0.4,7.6-2.1,15.7-5.1,24.2
		l-2.7,6.6c6.8,1.9,13.1-0.3,19.1-6.6c3.2-3.5,6.1-5.7,8.6-6.6c2.5-0.9,4.4-0.9,5.8,0c1.3,0.9,2,2.5,2,4.7c0,2.2-1,4.7-3.1,7.6
		c-4.1,6-9.7,10.6-16.8,13.8c-7.1,3.2-14.3,4-21.7,2.4c-5.9,12-13.2,21.8-21.7,29.4c-8.6,7.6-18.2,11.4-28.8,11.4
		c-6.8,0-12.9-1.7-18.2-5c-5.3-3.3-9.5-7.8-12.6-13.5c-3.1-5.7-5-12.3-5.8-19.9c-0.7-7.6,0.1-15.7,2.4-24.2
		c2.4-8.5,5.8-16.6,10.2-24.2c4.4-7.6,9.7-14.2,15.7-19.9c6.1-5.7,12.7-10.2,19.9-13.5C558.7,496.5,566.4,494.8,574.7,494.8z
		 M571.6,567.9c-2.7-3.5-4.1-7.6-4.4-12.3c-0.3-4.7,0.4-9.2,2.2-13.3c1.8-4.1,4.3-7.5,7.5-10.2c3.2-2.7,7.1-3.7,11.5-3.1
		c0.3-9.5-2.7-15.2-8.9-17.1c-5-1.3-11,2-18,9.7c-6.9,7.8-13.4,19.7-19.3,35.8c-3.8,11.1-6.1,21-6.6,29.6
		c-0.6,8.7,1.2,13.8,5.3,15.4c5.9,2.2,11.9,0.2,18-6.2c6.1-6.3,11.4-14.4,16.2-24.2L571.6,567.9z"/>
	<path d="M694.8,557.4c2.1-6,3.8-11,5.3-14.9c1.5-4,1.5-5.9,0-5.9c-1.5,0-3.8,1.9-6.9,5.7c-3.1,3.8-6.6,8.6-10.6,14.5
		c-4,5.9-8.2,12.2-12.6,19c-4.4,6.8-8.6,13.3-12.4,19.4c-3.8,6.2-7.1,11.5-9.8,16.1c-2.7,4.6-4.3,7.4-4.9,8.3v0.5h-27.5
		c3.5-8.2,7.4-18.9,11.5-32c4.1-13.1,8-26.3,11.5-39.6c-1.8,2.8-3.5,5.5-5.1,8.1c-1.6,2.5-3.2,4.7-4.7,6.6c-3.3,4.4-6.1,7.2-8.6,8.3
		c-2.5,1.1-4.5,1.1-6,0c-1.5-1.1-2.1-3-2-5.7c0.2-2.7,1.3-5.5,3.3-8.3c4.7-6.6,9.4-13.6,14-20.9c4.6-7.3,8.5-14.1,11.7-20.4
		c3.8-7.3,7.5-14.4,11.1-21.3h33.2c-0.6,2.2-1.5,5.4-2.7,9.5c-1.2,4.1-2.6,8.9-4.2,14.2c-1.6,5.4-3.5,11.2-5.8,17.6
		c-2.2,6.3-4.4,12.7-6.4,19c5.6-8.8,11.6-17.6,18-26.3c6.4-8.7,12.7-16.3,19.1-22.8c6.4-6.5,12.5-11.3,18.4-14.5
		c5.9-3.2,11.4-3.8,16.4-1.9c4.1,1.9,6,6.6,5.5,14.2c-0.4,7.6-2,16.1-4.7,25.6c4.4-6.3,8.9-12.3,13.5-17.8c4.6-5.5,9.1-10.2,13.5-14
		c4.4-3.8,8.8-6.4,13.1-7.8c4.3-1.4,8.3-1.5,12.2-0.2c3.5,1.3,5.5,4.7,5.8,10.2c0.3,5.5-0.4,12-2.2,19.4c-1.8,7.4-4,15.3-6.6,23.5
		c-2.7,8.2-5.2,15.7-7.5,22.5c-2.4,6.8-4.1,12.5-5.1,17.1c-1,4.6-0.7,6.9,1.1,6.9c2.7,0,5.5-0.9,8.6-2.8c3.1-1.9,6.4-4.4,10-7.6
		c3.5-3.2,7.1-6.6,10.6-10.4c3.5-3.8,7.1-7.4,10.6-10.9c3.2-3.5,6.2-5.7,8.9-6.6c2.7-0.9,4.7-0.9,6,0c1.3,0.9,1.9,2.5,1.8,4.7
		c-0.2,2.2-1.3,4.7-3.3,7.6c-7.7,10.8-15.7,20.2-23.9,28.5c-7.1,7.3-15.1,13.8-23.9,19.7c-8.9,5.9-18,8.8-27.5,8.8
		c-7.1,0-11.8-2.1-14.2-6.2c-2.4-4.1-3.4-9.3-3.1-15.4c0.3-6.2,1.6-12.9,4-20.2c2.4-7.3,4.7-14,6.9-20.2c2.2-6.2,4-11.3,5.3-15.4
		c1.3-4.1,1.3-6.2-0.2-6.2c-0.9,0-2.4,1.2-4.4,3.6c-2.1,2.4-4.4,5.5-7.1,9.5c-2.7,4-5.5,8.5-8.6,13.5c-3.1,5.1-6.1,10.1-9.1,15.2
		c-7.4,12.3-15.2,26.3-23.5,41.7h-27c3.2-9.8,6.4-18.8,9.3-27c2.4-7.3,4.7-14.3,6.9-21.1C691.9,565.1,693.6,560.3,694.8,557.4z"/>
	<path d="M916.9,557.4c2.4-2.8,4.9-4.8,7.5-5.9c2.7-1.1,4.8-1.4,6.4-0.9c1.6,0.5,2.5,1.7,2.7,3.8c0.1,2.1-1,5-3.3,8.8
		c-2.7,3.8-6.8,9-12.4,15.7c-5.6,6.6-12,13.2-19.3,19.7c-7.2,6.5-15.1,11.9-23.5,16.4c-8.4,4.4-16.6,6.2-24.6,5.2
		c-9.2-0.9-16.5-4.7-21.9-11.1c-5.5-6.5-9.2-14.3-11.1-23.5c-1.9-9.2-2.1-19-0.7-29.6c1.5-10.6,4.7-20.3,9.8-29.2
		c5-8.9,11.7-16.2,20.2-22.1c8.4-5.8,18.5-8.8,30.4-8.8c10.6,0,18.2,3.8,22.8,11.4c4.6,7.6,6.2,15.9,4.9,24.9
		c-1.3,9-5.5,17.3-12.6,24.9c-7.1,7.6-17,11.4-29.7,11.4c-2.1,0-3.9-0.2-5.5-0.5c-1.6-0.3-3.2-0.8-4.7-1.4c-1.5-0.6-3-1.4-4.4-2.4
		c-0.6,3.2-0.6,6.4,0,9.7c0.6,3.3,1.7,6.3,3.3,9c1.6,2.7,3.8,4.9,6.4,6.6c2.7,1.7,5.8,2.6,9.3,2.6c4.7,0,9.4-1.1,14-3.3
		c4.6-2.2,9-5.1,13.3-8.5c4.3-3.5,8.3-7.3,12.2-11.4C910.1,564.7,913.6,560.9,916.9,557.4z M882.7,514.7c-4.1-3.2-8.1-3.6-12-1.4
		c-3.8,2.2-7.2,5.5-10.2,10c-3,4.4-5.5,9.3-7.5,14.7c-2.1,5.4-3.3,9.7-3.5,12.8c4.7,1.9,9.7,1.5,14.8-1.2c5.2-2.7,9.6-6.2,13.3-10.7
		c3.7-4.4,6.2-8.9,7.5-13.5C886.5,520.8,885.7,517.3,882.7,514.7z"/>
	<path d="M916.9,557.4c5.3-7.3,9.8-14,13.3-20.2c3.5-6.2,6.5-11.5,8.9-15.9c-4.4-2.8-7.3-6.8-8.6-11.9c-1.3-5.1,0.1-11.2,4.2-18.5
		c3.2-6.3,7.1-10.9,11.5-13.8c4.4-2.8,8.3-3.8,11.7-2.8c3.4,0.9,5.8,3.7,7.1,8.3c1.3,4.6,0.7,11.1-2,19.7c5.3,0.6,9.4,0.7,12.2,0.2
		c2.8-0.5,5.7-1.5,8.6-3.1c1.2-0.6,2.8-0.7,4.9-0.2c2.1,0.5,4,1.3,5.8,2.6c1.8,1.3,3,2.9,3.5,5c0.6,2.1,0.3,4.4-0.9,6.9
		c-3,5.4-6.1,12.7-9.5,21.8c-3.4,9.2-6.2,18.1-8.4,26.8c-2.2,8.7-3.6,16.2-4.2,22.5c-0.6,6.3,0.4,9.5,3.1,9.5c2.7,0,5.8-1.3,9.3-3.8
		c3.5-2.5,7.2-5.7,11.1-9.5c3.8-3.8,7.7-7.8,11.5-12.1c3.8-4.3,7.5-8.1,11.1-11.6c3.2-3.5,6.2-5.7,8.9-6.6c2.7-0.9,4.7-0.9,6,0
		c1.3,0.9,1.9,2.5,1.8,4.7c-0.2,2.2-1.3,4.7-3.3,7.6c-5.9,8.5-12.3,16.4-19.1,23.7c-5.9,6.3-12.5,12.6-19.7,18.7
		c-7.2,6.2-14.7,10.7-22.4,13.5c-4.1,1.6-8.4,2-12.9,1.2c-4.4-0.8-8.2-2.7-11.3-5.7c-3.1-3-5.2-7.3-6.4-12.8
		c-1.2-5.5-0.6-12.4,1.8-20.6c2.1-6.6,4.6-13.4,7.5-20.2c3-6.8,5.8-13,8.4-18.7c2.7-5.7,4.7-10.3,6.2-13.8c1.5-3.5,1.6-5.1,0.4-4.7
		c-5.3,1.6-10.2,2.1-14.6,1.4c-2.7,5.4-6,11.7-10,19c-4,7.3-8.1,13.6-12.2,19c-3.3,4.4-6.1,7.2-8.6,8.3c-2.5,1.1-4.4,1.1-5.8,0
		c-1.3-1.1-2-3-2-5.7C913.8,563,914.8,560.3,916.9,557.4z"/>
	<path d="M1021.9,596.8c0-6.3,2.1-11.8,6.4-16.4c4.3-4.6,9.4-6.9,15.3-6.9c5.9,0,11,2.3,15.3,6.9c4.3,4.6,6.4,10,6.4,16.4
		c0,6.3-2.1,11.8-6.4,16.4c-4.3,4.6-9.4,6.9-15.3,6.9c-5.9,0-11-2.3-15.3-6.9C1024,608.6,1021.9,603.1,1021.9,596.8z M1048.9,541.8
		l34.1-142.3h42.1c-9.7,25.3-18.5,47.9-26.2,67.8c-3.3,8.5-6.5,17-9.8,25.4c-3.3,8.4-6.2,16.1-8.9,23c-2.7,7-4.9,12.7-6.6,17.3
		c-1.8,4.6-2.8,7.5-3.1,8.8H1048.9z"/>
</g>
<g>
	<g id="XMLID_3_">
		<g>
			<linearGradient id="SVGID_1_" gradientUnits="userSpaceOnUse" x1="673.4111" y1="1077.6863" x2="1076.9595" y2="674.1379">
				<stop  offset="0" style="stop-color:#D7203A"/>
				<stop  offset="3.603076e-02" style="stop-color:#DB2437"/>
				<stop  offset="0.1815" style="stop-color:#E8312C"/>
				<stop  offset="0.3302" style="stop-color:#F13C23"/>
				<stop  offset="0.4829" style="stop-color:#F7421D"/>
				<stop  offset="0.6456" style="stop-color:#F9441B"/>
				<stop  offset="1" style="stop-color:#F71818"/>
			</linearGradient>
			<path class="st0" d="M1096,902.9c5.4,11.9,6.7,22.9,2.9,35.5c-7.2,23.6-21.4,44.3-44.8,53.7c-32.5,13.1-70.1,6.7-103-1.5
				c-32.9-8.2-64.3-20.7-94.7-35.7c-22.7-11.2-45.5-22-68.9-31.8c-13.2-5.5-26.8-10.4-40.3-15c-13.8-4.7-28.1-7.2-42.1-11.4
				c-42.6-12.8-102.5-25.1-136.8,12.2c-7.5,8.2-15.2,19.2-17.3,30.3c-2,11.1,1.7,24.7,9.1,33.3c9.8,11.3,23.9,16.2,38.3,11.3
				c5.4-1.9,18.1-8.4,16.5-15.8c-1.6-7.5-14.6-6-19.8-4.6c-0.9,0.2-1.3-1-0.6-1.5c8.3-5.5,23.2-7.9,29.1,2.5
				c7.2,12.6-4.9,27.7-15.2,33.9c-14.6,8.8-30.5,9.7-45.8,1.9c-12.4-6.3-22-17.1-27.4-29.8c-20.6-48.8,26.1-96.2,72-104.2
				c26.2-4.5,53-1.6,78.7,4.4c28.4,6.6,54.6,18.7,80.7,31.6c48.5,24.1,95.8,52.3,147.2,70.1c21.3,7.4,43.2,13.4,65.5,16.8
				c17.8,2.7,36.3,4.4,54.1,0.9c14.2-2.8,28.5-8.4,38.6-19.2c10.1-11,15.3-28.3,10.1-42.8c-2-5.4-1.8-10.7-4.7-15.9
				c-2.4-4.4-5.4-8.2-9.1-11.6c-7.6-6.9-17.3-11.4-27.4-13.2c-8.6-1.5-17.3-0.9-23.8,3.8c-6.2,4.3-11.9,17.3-15,24.8
				c-0.7,1.6-3.4,2.6-4.2,0.5c-2.7-6.5-4.7-9.6-5.5-15.8c-0.8-5.8,0.6-10.9,3.5-15.9c4.8-8.3,13.5-14,22.6-16.5
				c18.7-5.1,40.6,0.1,56.1,11.2C1083.2,885.3,1091.6,893.2,1096,902.9z"/>
		</g>
		<g>
		</g>
	</g>
	<path class="st1" d="M1047.6,1003c-7.7-0.3-15.4,1.2-23.1,1.8c-9,0.7-18.1,0.7-27.2,0.1c-18.3-1.1-36.6-4.9-53.9-10.9
		c-34.1-11.8-67.5-25-100.2-40.1c-30.7-14.2-62.7-24.9-93.8-38.1c-14.4-6.1-29-11.6-44.2-15.5c-6.7-1.7-13.4-2.8-20.2-3.6
		c-8.1-0.9-15.2,0.1-23.2,0.9c-0.4,0-0.3,0.6,0,0.6c15.2,0.7,31.2,5.2,45.5,10.4c14.7,5.3,28.7,12.5,42.9,19.2
		c31.5,14.8,64.4,27.4,97.3,39.1c33.9,12.1,67.1,25.9,101.6,36.3c16.4,4.9,33.4,7.2,50.5,7.7c15.5,0.4,34.1,1,48.7-4.5
		C1049.8,1005.8,1049.4,1003.1,1047.6,1003z"/>
</g>
<g>
	<g id="XMLID_1_">
		<g>
			<path class="st1" d="M969.6,378.6c0.2,17.3-7.8,28.8-16.1,35.7c-7.4,6.3-15.8,9-26.6,8.6c-2,12.8-3.9,25.6-5.9,38.5
				c-32.1-5.6-64-11.2-96-16.9c2-13,3.9-25.8,5.9-38.7c-6.7-3.6-12.7-7.5-17.2-13.1c-3-3.8-5.2-7.3-6.9-12.3
				c-2.2-6.3-3.9-16.8-1.5-26.3c3.9-15.5,14.7-25.7,25.7-29.8c11.9-4.3,30.4-1.6,39,8.4c5.6-2.1,12.6-4.3,20-3.3
				c9.4,1.2,17.5,6.6,22.9,11.8c10.7-6.8,30.1-4.3,41.1,4.5C962.4,352.7,969.4,365.7,969.6,378.6z M960,382.7
				c1.5-22.1-17.5-39.9-37.8-34.3c-4,1.1-7.1,3.6-11.3,5.8c-5-6.3-12.2-13-22.2-14.4c-8-1-14.6,2.7-20.4,5.5
				c-4.9-5.3-10.1-11-19-12.4c-5.1-0.8-11.3-0.3-15.2,1.2c-5.9,2.2-12.6,7.7-16.2,14.4c-4.9,9.3-4.8,21.8-1.6,29.7
				c1.5,3.9,3.6,6.7,6.3,9.6c4.6,5.2,11,8.4,19.3,10.2c-2,12.8-3.9,25.6-5.9,38.5c25.7,4.5,51.4,9,77,13.5
				c2.1-13.1,3.9-26.8,6.3-39.2c11.4,3.4,20.7,0.9,27.6-4.2C952.8,402.1,959.1,394,960,382.7z"/>
			<path class="st2" d="M922.2,348.5c20.3-5.6,39.3,12.1,37.8,34.3c-0.9,11.3-7.2,19.4-13.1,23.9c-6.9,5.2-16.2,7.6-27.6,4.2
				c-2.4,12.5-4.1,26.2-6.3,39.2c-25.7-4.5-51.4-9-77-13.5c2-12.8,3.9-25.7,5.9-38.5c-8.3-1.7-14.7-5-19.3-10.2
				c-2.7-2.9-4.7-5.7-6.3-9.6c-3.2-7.9-3.3-20.4,1.6-29.7c3.5-6.7,10.2-12.2,16.2-14.4c3.9-1.4,10.1-1.9,15.2-1.2
				c8.8,1.4,14.1,7.1,19,12.4c5.8-2.8,12.4-6.4,20.4-5.5c10.1,1.3,17.2,8.1,22.2,14.4C915,352,918.2,349.6,922.2,348.5z
				 M949.2,375.2c1.2-4.9,3.1-12.2-2.3-11.6c-2.4,0.3-2.8,4.3-3.7,7.8c-0.8,2.8-1.3,5.6-2.2,7.7c-5.9,13.8-20,14-36.3,9.3
				c-1.5,9.9-3.5,23.2-5.3,34.6c-0.6,3.7-2,9.1-0.8,10.9c1.3,1.9,4.7,1.4,5.8-0.3c1.9-12.4,3.8-24.7,5.7-37.1
				C929.7,401.2,944.2,394.4,949.2,375.2z"/>
			<path class="st1" d="M946.9,363.6c5.3-0.6,3.5,6.7,2.3,11.6c-5,19.2-19.5,26-39.2,21.4c-1.9,12.4-3.8,24.7-5.7,37.1
				c-1.1,1.6-4.5,2.2-5.8,0.3c-1.2-1.8,0.3-7.2,0.8-10.9c1.8-11.4,3.8-24.7,5.3-34.6c16.2,4.7,30.3,4.5,36.3-9.3
				c0.9-2.1,1.5-4.8,2.2-7.7C944.1,367.9,944.5,363.9,946.9,363.6z"/>
		</g>
		<g>
		</g>
	</g>
</g>
<g id="XMLID_2_">
	<g>
		<linearGradient id="SVGID_2_" gradientUnits="userSpaceOnUse" x1="185.6371" y1="322.1795" x2="589.189" y2="-81.3723">
			<stop  offset="0" style="stop-color:#D7203A"/>
			<stop  offset="3.603076e-02" style="stop-color:#DB2437"/>
			<stop  offset="0.1815" style="stop-color:#E8312C"/>
			<stop  offset="0.3302" style="stop-color:#F13C23"/>
			<stop  offset="0.4829" style="stop-color:#F7421D"/>
			<stop  offset="0.6456" style="stop-color:#F9441B"/>
			<stop  offset="1" style="stop-color:#F71818"/>
		</linearGradient>
		<path class="st3" d="M535.1,109.4c46,7.9,92.7,55.4,72,104.2c-5.4,12.8-15,23.5-27.4,29.9c-15.3,7.8-31.2,6.8-45.8-1.9
			c-10.2-6.1-22.3-21.3-15.2-33.9c5.9-10.4,20.8-8.1,29.1-2.6c0.7,0.5,0.3,1.7-0.6,1.5c-5.1-1.4-18.2-2.9-19.8,4.6
			c-1.6,7.4,11.1,13.9,16.5,15.8c14.5,5,28.6,0,38.3-11.3c7.4-8.5,11.1-22.1,9.1-33.3c-2-11.1-9.8-22.1-17.3-30.3
			c-34.2-37.3-94.1-25-136.8-12.2c-14,4.2-28.2,6.6-42.1,11.4c-13.6,4.7-27.1,9.5-40.4,15c-23.4,9.8-46.2,20.6-68.9,31.8
			c-30.4,15-61.8,27.4-94.7,35.7c-32.9,8.2-70.5,14.6-103,1.5C65,226,50.8,205.3,43.6,181.7c-3.8-12.6-2.5-23.6,2.9-35.5
			c4.4-9.8,12.8-17.6,21.3-23.7c15.6-11.2,37.5-16.4,56.1-11.2c9.1,2.5,17.8,8.2,22.6,16.5c2.9,5,4.3,10.1,3.5,15.9
			c-0.8,6.1-2.8,9.3-5.5,15.8c-0.9,2.1-3.6,1.1-4.2-0.5c-3.1-7.5-8.9-20.5-15-24.8c-6.6-4.6-15.2-5.3-23.9-3.8
			c-10.1,1.8-19.7,6.3-27.4,13.2c-3.8,3.4-6.7,7.2-9.1,11.6c-2.9,5.2-2.8,10.5-4.7,15.9c-5.3,14.5-0.1,31.8,10.1,42.8
			c10,10.9,24.3,16.4,38.5,19.2c17.8,3.5,36.3,1.8,54.1-0.9c22.3-3.4,44.2-9.5,65.5-16.8c51.4-17.8,98.7-46,147.2-70.1
			c26-12.9,52.3-25,80.7-31.6C482.1,107.8,508.9,104.9,535.1,109.4z"/>
	</g>
	<g>
	</g>
</g>
<path class="st1" d="M480.8,143.2c-8-0.8-15.1-1.8-23.2-0.9c-6.8,0.8-13.6,1.9-20.2,3.6c-15.2,3.8-29.8,9.4-44.2,15.5
	c-31.1,13.1-63.1,23.9-93.8,38.1c-32.7,15.1-66.1,28.4-100.2,40.1c-17.3,6-35.6,9.8-53.9,10.9c-9.1,0.5-18.1,0.5-27.2-0.1
	c-7.7-0.6-15.4-2.1-23.1-1.8c-1.8,0.1-2.2,2.8-0.6,3.5c14.7,5.5,33.2,5,48.7,4.5c17.1-0.5,34.1-2.7,50.5-7.7
	c34.5-10.4,67.7-24.2,101.6-36.3c32.8-11.7,65.7-24.3,97.3-39.1c14.1-6.6,28.2-13.9,42.9-19.2c14.3-5.2,30.3-9.7,45.5-10.4
	C481.1,143.8,481.1,143.2,480.8,143.2z"/>
<g>
	<path d="M594.1,667.3h3.2c4.9,0,9.2,1.7,12.9,5.2c3.7,3.5,5.6,7.5,5.6,12.2c0,4.7-1.9,8.7-5.7,12.2c-3.8,3.4-7.8,5.2-12.2,5.2h-0.5
		l19.5,19.8h-3.2l-17.2-17.3v17.3h-2.4V667.3z M596.5,700h1.4c4.1,0,7.7-1.5,10.8-4.5c3.1-3,4.7-6.6,4.7-10.7
		c0-4.1-1.6-7.7-4.8-10.8c-3.2-3.1-6.9-4.6-11-4.6h-1V700z"/>
	<path d="M624.9,667.3h20.3v2.1h-17.8v29.7h14.9v2.1h-14.9v18.5h17.8v2.1h-20.3V667.3z"/>
	<path d="M670.9,670.2c-2-1.2-4.2-1.7-6.7-1.7c-2.5,0-4.6,0.7-6.3,2.2c-1.7,1.5-2.6,3.5-2.6,6.1v0.4c0,3.1,1.8,5.8,5.3,8.4
		c1.5,1.1,3.2,2.1,5.1,3.2c1.9,1,3.8,2.2,5.7,3.3c1.9,1.2,3.6,2.4,5.1,3.8c1.5,1.3,2.8,3,3.8,4.9c1,1.9,1.5,4.1,1.5,6.4v0.7
		c0,4.6-1.6,8.3-4.9,11c-3.3,2.7-7.3,4.1-12.1,4.1c-6.3,0-11.2-2.5-14.7-7.5v-3.9c1.3,2.8,3.2,5,5.8,6.7c2.5,1.7,5.7,2.6,9.5,2.6
		c3.8,0,7.1-1.2,9.8-3.5c2.8-2.3,4.2-5.4,4.2-9.3v-0.4c0-2.4-0.7-4.6-2-6.7c-1.3-2-2.9-3.7-4.9-4.9c-2-1.3-4.1-2.6-6.4-4
		c-2.3-1.4-4.5-2.7-6.4-3.9c-2-1.2-3.6-2.7-4.9-4.6c-1.3-1.8-2-3.9-2-6v-0.5c0-3.4,1.1-6,3.4-7.8c2.3-1.8,5.1-2.7,8.4-2.7
		c4.6,0,8.3,1.6,11,4.9v3.7C674.5,673,672.9,671.4,670.9,670.2z"/>
	<path d="M709.5,667.3v2.1h-12.9v52.4h-2.5v-52.4H681v-2.1H709.5z"/>
	<path d="M735.8,666l28.3,55.8h-2.6l-10.7-20.8h-30.3l-10.6,20.8h-2.3L735.8,666z M735.6,671L721.4,699h28.4L735.6,671z"/>
	<path d="M785.3,722.9h-0.8c-4.6,0-8.6-1.6-11.8-4.7c-3.2-3.1-4.8-7-4.8-11.7v-39.2h2.5v39.1c0,4.1,1.4,7.5,4.2,10.3
		c2.8,2.7,6.2,4.1,10.3,4.1c4.1,0,7.5-1.3,10.2-4c2.7-2.7,4.1-6.1,4.1-10.3v-39.1h2.5v39c0,4.8-1.6,8.7-4.8,11.8
		C793.8,721.3,789.9,722.9,785.3,722.9z"/>
	<path d="M813.1,667.3h3.2c4.9,0,9.2,1.7,12.9,5.2s5.6,7.5,5.6,12.2c0,4.7-1.9,8.7-5.7,12.2c-3.8,3.4-7.8,5.2-12.2,5.2h-0.5
		l19.5,19.8h-3.2l-17.2-17.3v17.3h-2.4V667.3z M815.5,700h1.4c4.1,0,7.7-1.5,10.8-4.5c3.1-3,4.7-6.6,4.7-10.7
		c0-4.1-1.6-7.7-4.8-10.8c-3.2-3.1-6.9-4.6-11-4.6h-1V700z"/>
	<path d="M868.8,666l28.3,55.8h-2.6l-10.7-20.8h-30.3l-10.6,20.8h-2.3L868.8,666z M868.5,671L854.4,699h28.4L868.5,671z"/>
	<path d="M946.8,667.3h2.2v55.3l-41.7-49.4v48.6H905v-55.3l41.7,49.3V667.3z"/>
	<path d="M984.6,667.3v2.1h-12.9v52.4h-2.5v-52.4h-13.1v-2.1H984.6z"/>
	<path d="M991.8,667.3h20.3v2.1h-17.8v29.7h14.9v2.1h-14.9v18.5h17.8v2.1h-20.3V667.3z"/>
</g>
</svg>
