<?xml version="1.0" encoding="utf-8"?>
<!-- Generator: Adobe Illustrator 22.0.1, SVG Export Plug-In . SVG Version: 6.00 Build 0)  -->
<svg version="1.1" id="Layer_1" xmlns="http://www.w3.org/2000/svg" xmlns:xlink="http://www.w3.org/1999/xlink" x="0px" y="0px"
	 viewBox="0 0 283.5 242.9" style="enable-background:new 0 0 283.5 242.9;" xml:space="preserve">
<style type="text/css">
	.st0{enable-background:new    ;}
	.st1{fill:#DA5B4D;}
</style>
<g class="st0">
	<path class="st1" d="M7.6,30.4c0-7.9,3.1-14.7,9.2-20.3C23,4.5,30.4,1.7,39.1,1.7c8.7,0,16.1,2.8,22.3,8.4
		c6.2,5.6,9.2,12.4,9.2,20.3c0,7.9-3.1,14.7-9.2,20.3C55.2,56.2,47.8,59,39.1,59c-8.7,0-16.1-2.8-22.3-8.4
		C10.6,45,7.6,38.3,7.6,30.4z M11.9,80.8h54.3v160.1H11.9V80.8z"/>
	<path class="st1" d="M105.3,80.8h52.1v21.7h0.7c1.7-3.1,4.1-6.1,7.2-9.2c3.1-3.1,6.9-5.8,11.2-8.2c4.3-2.4,9.3-4.4,14.8-5.9
		c5.6-1.5,11.6-2.3,18.1-2.3c13.8,0,24.9,1.9,33.3,5.8c8.4,3.8,15,9.2,19.7,16c4.7,6.8,7.9,14.8,9.6,24.1c1.7,9.2,2.5,19.2,2.5,30
		v88.3h-54.3v-78.4c0-4.6-0.2-9.4-0.5-14.3s-1.4-9.5-3.3-13.7c-1.8-4.2-4.6-7.6-8.3-10.2c-3.7-2.6-9.1-4-16.1-4
		c-7,0-12.7,1.2-17,3.5c-4.3,2.3-7.7,5.4-10,9.2c-2.3,3.8-3.8,8.2-4.5,13c-0.7,4.8-1.1,9.9-1.1,15.2v79.7h-54.3V80.8z"/>
</g>
</svg>
