<?xml version="1.0" encoding="utf-8"?>
<!-- Generator: Adobe Illustrator 22.0.1, SVG Export Plug-In . SVG Version: 6.00 Build 0)  -->
<svg version="1.1" id="Layer_1" xmlns="http://www.w3.org/2000/svg" xmlns:xlink="http://www.w3.org/1999/xlink" x="0px" y="0px"
	 viewBox="0 0 1700.8 1700.8" style="enable-background:new 0 0 1700.8 1700.8;" xml:space="preserve">
<style type="text/css">
	.st0{fill:url(#SVGID_1_);}
	.st1{fill:url(#SVGID_2_);}
	.st2{fill:url(#SVGID_3_);}
	.st3{fill:#5A288E;}
	.st4{fill:#DA5B4D;}
	.st5{fill:#AA303E;}
	.st6{fill:url(#SVGID_4_);}
</style>
<g id="Layer_1_1_">
	<linearGradient id="SVGID_1_" gradientUnits="userSpaceOnUse" x1="485.2236" y1="1193.2777" x2="1221.87" y2="-82.6313">
		<stop  offset="4.006410e-05" style="stop-color:#5A288E"/>
		<stop  offset="0.3643" style="stop-color:#AA303E"/>
		<stop  offset="1" style="stop-color:#DA5B4D"/>
	</linearGradient>
	<path class="st0" d="M1501.5,90.4c-5.4-15.8-20.5-27.5-38.3-27.5h-2.3H247.1h-4.9c-21,0-38.2,16.8-38.2,38.2v3V868v139.7
		c0,22.8,19.5,41.2,43.1,41.2h1213.8c23.6,0,43.1-18.3,43.1-41.2V104.1C1504,99.3,1503.1,94.7,1501.5,90.4z M855.8,1006.6
		c-17.2,0-31.5-14.2-31.5-31.5c0-17.2,14.2-31.5,31.5-31.5s31.5,13.9,31.5,31.5C887.3,992.3,873.1,1006.6,855.8,1006.6z
		 M1447.8,843.6h-1188V107.8l0,0l0,0h1188V843.6z"/>
	<g>
		<linearGradient id="SVGID_2_" gradientUnits="userSpaceOnUse" x1="654.0001" y1="813.376" x2="1026.8495" y2="167.5817">
			<stop  offset="4.006410e-05" style="stop-color:#5A288E"/>
			<stop  offset="0.3643" style="stop-color:#AA303E"/>
			<stop  offset="1" style="stop-color:#DA5B4D"/>
		</linearGradient>
		<path class="st1" d="M1221.9,296.3c-18.7-30.3-63.7-56.6-94.4-63.3c-12.7-2.6-22.1-2.2-28.1,1.9
			c-16.1,10.5-143.5,86.2-226.3,128.9l0,0l-31.8,15.7C761.5,416.2,547.5,479.8,543,481.3c-6.7,0.4-13.5,1.5-19.9,3.4
			c-21.7,6.4-71.6,31.8-71.6,125.9c0,100.8,51.3,119.1,73.4,122.1c3.7,0.4,7.5,0.7,11.2,0.7c33,0,67.4-19.5,82-46.5
			c2.2-4.1,3.7-8.2,5.2-12.4c13.9-47.6,1.9-101.5-28.1-128.5c-19.1-17.2-43.8-21-68.9-10.5c-35.2,14.6-40.1,55.4-33.7,85.8
			s25.9,61.1,50.6,61.1c0.4,0,0.4,0,0.7,0c32.2-0.7,42-21,44.6-32.6c6-25.1-6-56.2-20.6-64.1c-3.4-1.9-7.5-0.7-9.4,2.6
			c-1.9,3.4-0.7,7.5,2.6,9.4c8.6,4.9,18.4,29.2,13.9,48.3c-3.4,14.2-14.2,21.7-31.5,22.1c-15.4,0.7-31.5-21.7-37.5-50.2
			c-5.6-26.6-1.9-58.8,25.5-70.1c20.2-8.2,39-5.6,54.3,8.2c25.9,23.2,36.3,72.3,24,114.3c-8.6,29.6-48.7,52.8-83.2,48
			c-22.9-3.4-61.4-21.7-61.4-108.3c0-59.6,22.5-100.8,61.8-112.4c24.7-7.5,52.1-1.5,73.8,14.6c10.9,9.4,22.5,23.2,33.7,43.1
			c20.2,43.5,16.9,92.2,9.7,125.9c-3.7,13.5-8.2,25.1-11.6,32.6c-3,7.1-5.2,11.2-5.6,11.6c-1.5,2.6-1.1,6.4,1.1,8.2
			c1.5,1.1,3,1.9,4.9,1.9c1.1,0,2.6-0.4,3.7-1.1c1.9-1.1,136-83.5,245.4-149.9l-5.6,40.1c-0.4,2.6,0.7,5.2,3,6.7
			c2.2,1.5,4.9,1.5,7.5,0.4l24-13.9l19.5,21c1.5,1.5,3.4,2.2,5.2,2.2c0.7,0,1.5,0,2.2-0.4c2.6-0.7,4.5-3,4.9-5.6l6.7-48.3l9,12
			c1.5,1.9,3.4,3,5.6,3c0.4,0,0.7,0,1.1,0c2.6-0.4,4.9-2.2,5.6-4.9l7.9-26.6l28.5,1.5c2.6,0,5.2-1.1,6.4-3.7
			c1.1-2.2,1.1-5.2-0.4-7.5L985.9,523c103-55.8,233.8-91,234.9-91.4c2.2-0.7,4.1-2.6,4.9-4.9
			C1240.2,373.4,1247.4,337.5,1221.9,296.3z M1213.3,420.3c-22.9,6.4-140.9,40.8-236,92.5l-4.9-6.4c0,6.4-1.5,12.4-4.1,18l24.7,33.7
			l-19.1-1.1c-3.4,0-6,1.9-7.1,4.9l-5.2,18.4L938,547.7c-2.6,0.4-5.2,0.7-7.9,0.7c-3.4,0-6.7-0.4-9.7-1.1l17.6,24.4l-6.7,48
			L918,605.3c-1.5-1.5-3.4-2.2-5.2-2.2c-1.1,0-2.2,0.4-3.4,0.7l-16.5,9.4L903,539c-5.2-4.1-9.4-9.7-12-15.7l-6,44.6
			c-86.5,52.4-192.6,117.3-235.6,143.5c13.1-33.3,31.5-100.8-2.2-161.5c-22.5-40.8-46.8-58.4-66.7-65.6
			c55.1-16.9,164.5-51.3,234.1-78.7c0.4,0,0.4,0,0.7,0.4c0.7,0,56.2,14.2,74.6,85.4c1.1-3.4,2.6-6.4,4.9-9.4
			c1.5-2.2,3.4-4.5,5.2-6.4c-15.7-46.5-46.8-68.2-65.6-77.6l41.6-20.6c43.5,22.9,63.3,58.4,72.3,89.5c1.9,0.7,3.7,1.9,5.6,3.4
			c4.5,3,8.6,7.1,11.6,11.6c-6.7-35.2-25.1-82-74.6-112c83.2-43.8,201.2-113.5,216.5-124c1.9-1.5,7.5-1.9,17.2,0
			c28.5,6.4,69.3,30.7,85.8,56.9C1231.2,337.9,1227.5,367.5,1213.3,420.3z"/>
		<linearGradient id="SVGID_3_" gradientUnits="userSpaceOnUse" x1="894.7938" y1="531.2402" x2="952.7669" y2="430.8278">
			<stop  offset="4.006410e-05" style="stop-color:#5A288E"/>
			<stop  offset="0.3643" style="stop-color:#AA303E"/>
			<stop  offset="1" style="stop-color:#DA5B4D"/>
		</linearGradient>
		<path class="st2" d="M956.3,433c-9.7-6.4-21-10.1-32.2-10.1c-3.7,0-7.5,0.4-11.2,1.1c-15.4,3-28.5,11.6-37.1,24.4
			c-8.6,12.7-12,28.1-9,43.5s11.6,28.5,24.4,37.1s28.1,12,43.5,9s28.5-11.6,37.1-24.4c8.6-12.7,12-28.1,9-43.5
			C977.6,455.1,969,442,956.3,433z"/>
	</g>
</g>
<g>
	<path class="st3" d="M924.3,1213.1v31.2h-51.2v55.5h-34.7v-55.5h-51.2v-31.2h51.2v-55.5h34.7v55.5H924.3z"/>
	<path class="st3" d="M584.4,1441.6h19l72.5,177.5h-24l-19.9-52h-76.3l-20,52h-24L584.4,1441.6z M625.3,1549.6l-31.4-82l-31.5,82
		H625.3z"/>
	<path class="st3" d="M699.7,1619.1v-177.5h22.5v157.5h99v20H699.7z"/>
	<path class="st3" d="M946.4,1461.6h-61.2v157.5h-22.5v-157.5h-61.2v-20h145V1461.6z"/>
	<path class="st3" d="M951.4,1560.8v-20h73.8v20H951.4z"/>
	<path class="st3" d="M1134.4,1620.3c-12.5,0-23.8-2.5-34-7.5c-10.2-5-19-11.8-26.4-20.4c-7.4-8.6-13.1-18.2-17.1-29s-6-21.8-6-33.1
		c0-11.8,2.1-23.1,6.4-33.9s10.2-20.3,17.8-28.8c7.6-8.4,16.5-15.1,26.6-20c10.2-4.9,21.2-7.4,33.2-7.4c12.5,0,23.8,2.6,34,7.8
		c10.2,5.2,18.9,12.1,26.2,20.8c7.3,8.7,13,18.3,17,29c4,10.7,6,21.6,6,32.8c0,11.8-2.1,23.1-6.2,33.9c-4.2,10.8-10,20.3-17.6,28.8
		c-7.6,8.4-16.5,15-26.6,19.9C1157.5,1617.9,1146.4,1620.3,1134.4,1620.3z M1073.7,1530.3c0,9,1.5,17.7,4.4,26.1
		c2.9,8.4,7,15.9,12.4,22.4c5.3,6.5,11.8,11.7,19.2,15.5c7.5,3.8,15.8,5.8,25,5.8c9.5,0,18-2,25.5-6s13.9-9.3,19.1-16
		c5.2-6.7,9.2-14.2,12-22.5c2.8-8.3,4.1-16.8,4.1-25.2c0-9-1.5-17.7-4.4-26c-2.9-8.3-7.1-15.8-12.5-22.4
		c-5.4-6.6-11.8-11.8-19.2-15.5c-7.4-3.8-15.6-5.6-24.6-5.6c-9.5,0-18,2-25.5,5.9c-7.5,3.9-13.9,9.2-19.1,15.9
		c-5.2,6.7-9.3,14.1-12.1,22.4C1075.1,1513.2,1073.7,1521.7,1073.7,1530.3z"/>
</g>
<rect x="-756.1" y="-29.2" class="st4" width="155.3" height="155.3"/>
<polygon class="st3" points="-768.9,340 -675.2,463.4 -588,272.7 -681.6,149.3 "/>
<rect x="-796.5" y="582.8" class="st5" width="242.3" height="121.2"/>
<linearGradient id="SVGID_4_" gradientUnits="userSpaceOnUse" x1="-270.7418" y1="592.8597" x2="-242.2371" y2="642.2315" gradientTransform="matrix(1 0 0 -1 0 1678.6456)">
	<stop  offset="4.006410e-05" style="stop-color:#5A288E"/>
	<stop  offset="0.3643" style="stop-color:#AA303E"/>
	<stop  offset="1" style="stop-color:#DA5B4D"/>
</linearGradient>
<circle class="st6" cx="-256.5" cy="1061.1" r="28.5"/>
</svg>
