<?xml version="1.0" encoding="utf-8"?>
<!-- Generator: Adobe Illustrator 22.0.1, SVG Export Plug-In . SVG Version: 6.00 Build 0)  -->
<svg version="1.1" id="Layer_1" xmlns="http://www.w3.org/2000/svg" xmlns:xlink="http://www.w3.org/1999/xlink" x="0px" y="0px"
	 viewBox="0 0 500 500" style="enable-background:new 0 0 500 500;" xml:space="preserve">
<style type="text/css">
	.st0{fill:#1F9E89;}
	.st1{fill:#FFFFFF;}
	.st2{fill:#1F9E89;stroke:#1F9E89;stroke-width:2.3181;stroke-linecap:round;stroke-linejoin:round;}
	.st3{fill:#1F9E89;stroke:#1F9E89;stroke-width:4.027;stroke-linecap:round;stroke-linejoin:round;}
	.st4{fill:#274858;}
</style>
<g>
	<path class="st0" d="M411.9,314.1h-324c-6.3,0-11.5-4.9-11.5-11V61.9c0-6.1,5.1-11,11.5-11h324c6.3,0,11.5,4.9,11.5,11v241.2
		C423.4,309.2,418.2,314.1,411.9,314.1"/>
	<path class="st0" d="M414.5,271.2H81.8c-3,0-5.4-2.4-5.4-5.4V61.1c0-5.7,4.6-10.2,10.2-10.2h325.9c6,0,10.8,4.9,10.8,10.8v200.6
		C423.4,267.2,419.4,271.2,414.5,271.2"/>
	<path class="st1" d="M91.3,62.9h317.1v196.4H91.3V62.9z"/>
	<path class="st1" d="M252.1,56.6c0,1.2-1,2.2-2.2,2.2s-2.2-1-2.2-2.2c0-1.2,1-2.2,2.2-2.2C251.1,54.4,252.1,55.4,252.1,56.6"/>
	<path class="st1" d="M258.8,294.4c0,4.6-3.8,8.4-8.4,8.4s-8.4-3.8-8.4-8.4s3.8-8.4,8.4-8.4S258.8,289.7,258.8,294.4z"/>
</g>
<g>
	<path class="st2" d="M348.1,113.2c-5-8.1-17-15.1-25.2-16.9c-3.4-0.7-5.9-0.6-7.5,0.5c-4.3,2.8-38.3,23-60.4,34.4c0,0,0,0,0,0
		l-8.5,4.2c-21.3,9.8-78.4,26.8-79.6,27.2c-1.8,0.1-3.6,0.4-5.3,0.9c-5.8,1.7-19.1,8.5-19.1,33.6c0,26.9,13.7,31.8,19.6,32.6
		c1,0.1,2,0.2,3,0.2c8.8,0,18-5.2,21.9-12.4c0.6-1.1,1-2.2,1.4-3.3c3.7-12.7,0.5-27.1-7.5-34.3c-5.1-4.6-11.7-5.6-18.4-2.8
		c-9.4,3.9-10.7,14.8-9,22.9c1.7,8.1,6.9,16.3,13.5,16.3c0.1,0,0.1,0,0.2,0c8.6-0.2,11.2-5.6,11.9-8.7c1.6-6.7-1.6-15-5.5-17.1
		c-0.9-0.5-2-0.2-2.5,0.7c-0.5,0.9-0.2,2,0.7,2.5c2.3,1.3,4.9,7.8,3.7,12.9c-0.9,3.8-3.8,5.8-8.4,5.9c-4.1,0.2-8.4-5.8-10-13.4
		c-1.5-7.1-0.5-15.7,6.8-18.7c5.4-2.2,10.4-1.5,14.5,2.2c6.9,6.2,9.7,19.3,6.4,30.5c-2.3,7.9-13,14.1-22.2,12.8
		c-6.1-0.9-16.4-5.8-16.4-28.9c0-15.9,6-26.9,16.5-30c6.6-2,13.9-0.4,19.7,3.9c2.9,2.5,6,6.2,9,11.5c5.4,11.6,4.5,24.6,2.6,33.6
		c-1,3.6-2.2,6.7-3.1,8.7c-0.8,1.9-1.4,3-1.5,3.1c-0.4,0.7-0.3,1.7,0.3,2.2c0.4,0.3,0.8,0.5,1.3,0.5c0.3,0,0.7-0.1,1-0.3
		c0.5-0.3,36.3-22.3,65.5-40l-1.5,10.7c-0.1,0.7,0.2,1.4,0.8,1.8c0.6,0.4,1.3,0.4,2,0.1l6.4-3.7l5.2,5.6c0.4,0.4,0.9,0.6,1.4,0.6
		c0.2,0,0.4,0,0.6-0.1c0.7-0.2,1.2-0.8,1.3-1.5l1.8-12.9l2.4,3.2c0.4,0.5,0.9,0.8,1.5,0.8c0.1,0,0.2,0,0.3,0
		c0.7-0.1,1.3-0.6,1.5-1.3l2.1-7.1l7.6,0.4c0.7,0,1.4-0.3,1.7-1c0.3-0.6,0.3-1.4-0.1-2l-7.3-10c27.5-14.9,62.4-24.3,62.7-24.4
		c0.6-0.2,1.1-0.7,1.3-1.3C353,133.8,354.9,124.2,348.1,113.2z M345.8,146.3c-6.1,1.7-37.6,10.9-63,24.7l-1.3-1.7
		c0,1.7-0.4,3.3-1.1,4.8l6.6,9l-5.1-0.3c-0.9,0-1.6,0.5-1.9,1.3l-1.4,4.9l-6.3-8.7c-0.7,0.1-1.4,0.2-2.1,0.2c-0.9,0-1.8-0.1-2.6-0.3
		l4.7,6.5l-1.8,12.8l-3.5-3.8c-0.4-0.4-0.9-0.6-1.4-0.6c-0.3,0-0.6,0.1-0.9,0.2l-4.4,2.5L263,178c-1.4-1.1-2.5-2.6-3.2-4.2
		l-1.6,11.9c-23.1,14-51.4,31.3-62.9,38.3c3.5-8.9,8.4-26.9-0.6-43.1c-6-10.9-12.5-15.6-17.8-17.5c14.7-4.5,43.9-13.7,62.5-21
		c0.1,0,0.1,0,0.2,0.1c0.2,0,15,3.8,19.9,22.8c0.3-0.9,0.7-1.7,1.3-2.5c0.4-0.6,0.9-1.2,1.4-1.7c-4.2-12.4-12.5-18.2-17.5-20.7
		l11.1-5.5c11.6,6.1,16.9,15.6,19.3,23.9c0.5,0.2,1,0.5,1.5,0.9c1.2,0.8,2.3,1.9,3.1,3.1c-1.8-9.4-6.7-21.9-19.9-29.9
		c22.2-11.7,53.7-30.3,57.8-33.1c0.5-0.4,2-0.5,4.6,0c7.6,1.7,18.5,8.2,22.9,15.2C350.6,124.3,349.6,132.2,345.8,146.3z"/>
	<path class="st3" d="M277.2,149.7c-2.6-1.7-5.6-2.7-8.6-2.7c-1,0-2,0.1-3,0.3c-4.1,0.8-7.6,3.1-9.9,6.5c-2.3,3.4-3.2,7.5-2.4,11.6
		c0.8,4.1,3.1,7.6,6.5,9.9c3.4,2.3,7.5,3.2,11.6,2.4c4.1-0.8,7.6-3.1,9.9-6.5c2.3-3.4,3.2-7.5,2.4-11.6
		C282.9,155.6,280.6,152.1,277.2,149.7z"/>
</g>
<g>
	<g>
		<path class="st4" d="M96.1,369.2c0-2.2,0.4-4.3,1.1-6.4s1.8-4,3.3-5.7s3.2-3.1,5.3-4.1c2.1-1,4.5-1.5,7.1-1.5
			c3.2,0,5.9,0.7,8.1,2.2c2.3,1.5,4,3.3,5,5.6l-3.5,2.3c-0.7-1.5-1.6-2.7-2.7-3.6c-1.1-0.9-2.2-1.5-3.5-1.9
			c-1.2-0.4-2.5-0.5-3.7-0.5c-2,0-3.7,0.4-5.2,1.2c-1.5,0.8-2.8,1.9-3.8,3.2c-1,1.3-1.8,2.8-2.3,4.5c-0.5,1.7-0.8,3.3-0.8,5
			c0,1.8,0.3,3.6,0.9,5.3c0.6,1.7,1.5,3.2,2.6,4.5s2.4,2.3,3.9,3.1c1.5,0.8,3.1,1.2,4.9,1.2c1.2,0,2.5-0.2,3.8-0.7
			c1.3-0.4,2.5-1.1,3.6-2c1.1-0.9,2-2.1,2.7-3.6l3.8,2c-0.7,1.8-1.9,3.3-3.4,4.5c-1.5,1.2-3.2,2.2-5.1,2.8c-1.9,0.6-3.7,1-5.6,1
			c-2.4,0-4.7-0.5-6.7-1.6c-2-1-3.8-2.5-5.3-4.2c-1.5-1.8-2.6-3.7-3.5-5.9C96.5,373.6,96.1,371.4,96.1,369.2z"/>
		<path class="st4" d="M146.9,387.5c-2.5,0-4.8-0.5-6.8-1.5c-2-1-3.8-2.4-5.3-4.1c-1.5-1.7-2.6-3.6-3.4-5.8
			c-0.8-2.2-1.2-4.4-1.2-6.6c0-2.4,0.4-4.6,1.3-6.8c0.9-2.1,2-4.1,3.5-5.8c1.5-1.7,3.3-3,5.3-4c2-1,4.2-1.5,6.6-1.5
			c2.5,0,4.8,0.5,6.8,1.5c2,1,3.8,2.4,5.2,4.2s2.6,3.7,3.4,5.8c0.8,2.1,1.2,4.3,1.2,6.5c0,2.4-0.4,4.6-1.2,6.8
			c-0.8,2.1-2,4.1-3.5,5.8c-1.5,1.7-3.3,3-5.3,4C151.5,387,149.3,387.5,146.9,387.5z M134.7,369.5c0,1.8,0.3,3.5,0.9,5.2
			c0.6,1.7,1.4,3.2,2.5,4.5c1.1,1.3,2.4,2.3,3.9,3.1c1.5,0.8,3.2,1.2,5,1.2c1.9,0,3.6-0.4,5.1-1.2s2.8-1.9,3.8-3.2
			c1-1.3,1.9-2.8,2.4-4.5c0.6-1.7,0.8-3.3,0.8-5c0-1.8-0.3-3.5-0.9-5.2c-0.6-1.7-1.4-3.2-2.5-4.5c-1.1-1.3-2.4-2.4-3.9-3.1
			c-1.5-0.8-3.1-1.1-4.9-1.1c-1.9,0-3.6,0.4-5.1,1.2s-2.8,1.8-3.8,3.2c-1,1.3-1.9,2.8-2.4,4.5C135,366.1,134.7,367.8,134.7,369.5z"
			/>
		<path class="st4" d="M169.9,387.3v-35.5h15.2c1.6,0,3,0.3,4.3,1c1.3,0.7,2.4,1.5,3.4,2.6c1,1.1,1.7,2.3,2.2,3.6
			c0.5,1.4,0.8,2.7,0.8,4.1c0,1.6-0.3,3.2-0.9,4.7c-0.6,1.5-1.5,2.7-2.6,3.8c-1.1,1-2.4,1.8-3.9,2.2l8.6,13.6h-5.1l-8.1-12.8h-9.4
			v12.8H169.9z M174.4,370.5h10.8c1.2,0,2.3-0.3,3.2-1c0.9-0.7,1.6-1.6,2.1-2.7c0.5-1.1,0.8-2.3,0.8-3.7c0-1.3-0.3-2.6-0.9-3.7
			c-0.6-1.1-1.4-2-2.4-2.7c-1-0.7-2-1-3.2-1h-10.5V370.5z"/>
		<path class="st4" d="M202.7,387.3v-35.5h14.8c1.6,0,3,0.3,4.3,1c1.3,0.7,2.4,1.5,3.4,2.6c1,1.1,1.7,2.3,2.2,3.6
			c0.5,1.4,0.8,2.7,0.8,4.1c0,1.9-0.4,3.8-1.3,5.5c-0.9,1.8-2.1,3.2-3.6,4.2c-1.6,1.1-3.4,1.6-5.5,1.6h-10.6v12.8H202.7z
			 M207.2,370.5h10.4c1.2,0,2.3-0.3,3.2-1c0.9-0.7,1.6-1.6,2.1-2.7c0.5-1.1,0.8-2.4,0.8-3.7c0-1.4-0.3-2.7-0.9-3.8
			c-0.6-1.1-1.4-2-2.4-2.6c-1-0.6-2-1-3.2-1h-10V370.5z"/>
		<path class="st4" d="M248.3,387.5c-2.5,0-4.8-0.5-6.8-1.5c-2-1-3.8-2.4-5.3-4.1c-1.5-1.7-2.6-3.6-3.4-5.8
			c-0.8-2.2-1.2-4.4-1.2-6.6c0-2.4,0.4-4.6,1.3-6.8c0.9-2.1,2-4.1,3.5-5.8c1.5-1.7,3.3-3,5.3-4c2-1,4.2-1.5,6.6-1.5
			c2.5,0,4.8,0.5,6.8,1.5c2,1,3.8,2.4,5.2,4.2s2.6,3.7,3.4,5.8c0.8,2.1,1.2,4.3,1.2,6.5c0,2.4-0.4,4.6-1.2,6.8
			c-0.8,2.1-2,4.1-3.5,5.8c-1.5,1.7-3.3,3-5.3,4C252.9,387,250.7,387.5,248.3,387.5z M236.1,369.5c0,1.8,0.3,3.5,0.9,5.2
			c0.6,1.7,1.4,3.2,2.5,4.5c1.1,1.3,2.4,2.3,3.9,3.1c1.5,0.8,3.2,1.2,5,1.2c1.9,0,3.6-0.4,5.1-1.2s2.8-1.9,3.8-3.2
			c1-1.3,1.8-2.8,2.4-4.5c0.6-1.7,0.8-3.3,0.8-5c0-1.8-0.3-3.5-0.9-5.2c-0.6-1.7-1.4-3.2-2.5-4.5c-1.1-1.3-2.4-2.4-3.8-3.1
			c-1.5-0.8-3.1-1.1-4.9-1.1c-1.9,0-3.6,0.4-5.1,1.2s-2.8,1.8-3.8,3.2c-1,1.3-1.9,2.8-2.4,4.5C236.4,366.1,236.1,367.8,236.1,369.5z
			"/>
		<path class="st4" d="M271.3,387.3v-35.5h15.2c1.6,0,3,0.3,4.3,1c1.3,0.7,2.4,1.5,3.4,2.6c1,1.1,1.7,2.3,2.2,3.6
			c0.5,1.4,0.8,2.7,0.8,4.1c0,1.6-0.3,3.2-0.9,4.7c-0.6,1.5-1.5,2.7-2.6,3.8c-1.1,1-2.4,1.8-3.9,2.2l8.6,13.6h-5.1l-8.1-12.8h-9.4
			v12.8H271.3z M275.8,370.5h10.8c1.2,0,2.3-0.3,3.2-1c0.9-0.7,1.6-1.6,2.2-2.7c0.5-1.1,0.8-2.3,0.8-3.7c0-1.3-0.3-2.6-0.9-3.7
			c-0.6-1.1-1.4-2-2.3-2.7c-1-0.7-2-1-3.2-1h-10.5V370.5z"/>
		<path class="st4" d="M314.9,351.8h3.8l14.5,35.5h-4.8l-4-10.4h-15.3l-4,10.4h-4.8L314.9,351.8z M323.1,373.4l-6.3-16.4l-6.3,16.4
			H323.1z"/>
		<path class="st4" d="M363.6,355.8h-12.2v31.5h-4.5v-31.5h-12.2v-4h29V355.8z"/>
		<path class="st4" d="M392.8,383.3v4h-24.1v-35.5h23.7v4h-19.2v11.5h16.7v3.8h-16.7v12.2H392.8z"/>
		<path class="st4" d="M95,429.2c0-2.2,0.4-4.3,1.1-6.4s1.8-4,3.3-5.7s3.2-3.1,5.3-4.1c2.1-1,4.5-1.5,7.1-1.5c3.2,0,5.9,0.7,8.1,2.2
			c2.3,1.5,4,3.3,5,5.6l-3.5,2.3c-0.7-1.5-1.6-2.7-2.7-3.6c-1.1-0.9-2.2-1.5-3.5-1.9c-1.2-0.4-2.5-0.5-3.7-0.5c-2,0-3.7,0.4-5.2,1.2
			c-1.5,0.8-2.8,1.9-3.8,3.2c-1,1.3-1.8,2.8-2.3,4.5c-0.5,1.7-0.8,3.3-0.8,5c0,1.8,0.3,3.6,0.9,5.3c0.6,1.7,1.5,3.2,2.6,4.5
			s2.4,2.3,3.9,3.1c1.5,0.8,3.1,1.2,4.9,1.2c1.2,0,2.5-0.2,3.8-0.7c1.3-0.4,2.5-1.1,3.6-2c1.1-0.9,2-2.1,2.7-3.6l3.8,2
			c-0.7,1.8-1.9,3.3-3.4,4.5c-1.5,1.2-3.2,2.2-5.1,2.8c-1.9,0.6-3.7,1-5.6,1c-2.4,0-4.7-0.5-6.7-1.6c-2-1-3.8-2.5-5.3-4.2
			c-1.5-1.8-2.6-3.7-3.5-5.9C95.4,433.6,95,431.4,95,429.2z"/>
		<path class="st4" d="M131.4,447.3v-35.5h4.5v35.5H131.4z"/>
		<path class="st4" d="M170,415.8h-12.2v31.5h-4.5v-31.5H141v-4h29V415.8z"/>
		<path class="st4" d="M175.1,447.3v-35.5h4.5v35.5H175.1z"/>
		<path class="st4" d="M185.4,443.8l22.9-28h-22.5v-4h27.7v3.5l-22.5,28h22.5v4h-28.1V443.8z"/>
		<path class="st4" d="M243.7,443.3v4h-24.1v-35.5h23.6v4h-19.1v11.5h16.6v3.8h-16.6v12.2H243.7z"/>
		<path class="st4" d="M254.4,420.1v27.2h-4.5v-35.5h3.8l21.7,27.8v-27.7h4.5v35.5h-4.1L254.4,420.1z"/>
		<path class="st4" d="M309.2,419.2c-0.4-0.5-0.9-0.9-1.6-1.4c-0.7-0.4-1.4-0.8-2.2-1.2c-0.8-0.3-1.7-0.6-2.7-0.8
			c-1-0.2-2-0.3-3.1-0.3c-2.7,0-4.8,0.5-6.1,1.5c-1.3,1-1.9,2.4-1.9,4.2c0,1.3,0.3,2.3,1,3c0.7,0.7,1.7,1.3,3.1,1.8
			c1.4,0.5,3.1,0.9,5.3,1.4c2.5,0.5,4.6,1.2,6.4,1.9c1.8,0.8,3.2,1.8,4.1,3.1c1,1.3,1.5,3,1.5,5.1c0,1.7-0.3,3.2-1,4.4
			c-0.7,1.2-1.6,2.3-2.7,3.1c-1.2,0.8-2.5,1.4-4.1,1.8c-1.6,0.4-3.3,0.6-5.1,0.6c-1.8,0-3.6-0.2-5.3-0.6s-3.3-0.9-4.9-1.7
			c-1.5-0.7-3-1.7-4.3-2.8l2.2-3.8c0.5,0.6,1.2,1.1,2.1,1.7s1.8,1.1,2.9,1.5c1.1,0.5,2.3,0.8,3.5,1.1c1.3,0.3,2.6,0.4,3.9,0.4
			c2.5,0,4.5-0.5,5.9-1.4s2.1-2.2,2.1-4c0-1.3-0.4-2.4-1.2-3.2c-0.8-0.8-1.9-1.5-3.5-2s-3.4-1.1-5.6-1.6c-2.4-0.6-4.4-1.3-6-2
			c-1.6-0.7-2.9-1.7-3.7-2.8c-0.8-1.2-1.2-2.7-1.2-4.5c0-2.3,0.6-4.2,1.7-5.7c1.1-1.6,2.6-2.7,4.5-3.5s4.1-1.2,6.6-1.2
			c1.6,0,3.1,0.2,4.5,0.5c1.4,0.3,2.7,0.8,3.9,1.4c1.2,0.6,2.3,1.3,3.3,2.1L309.2,419.2z"/>
		<path class="st4" d="M347.4,411.8v35.5h-4.5v-16.2h-19.5v16.2h-4.5v-35.5h4.5v15.3h19.5v-15.3H347.4z"/>
		<path class="st4" d="M355.9,447.3v-35.5h4.5v35.5H355.9z"/>
		<path class="st4" d="M368.9,447.3v-35.5h14.8c1.6,0,3,0.3,4.3,1c1.3,0.7,2.4,1.5,3.4,2.6s1.7,2.3,2.2,3.6c0.5,1.4,0.8,2.7,0.8,4.1
			c0,1.9-0.4,3.8-1.3,5.5c-0.9,1.8-2.1,3.2-3.7,4.2c-1.6,1.1-3.4,1.6-5.5,1.6h-10.6v12.8H368.9z M373.4,430.5h10.3
			c1.2,0,2.3-0.3,3.2-1c0.9-0.7,1.6-1.6,2.1-2.7c0.5-1.1,0.8-2.4,0.8-3.7c0-1.4-0.3-2.7-0.9-3.8c-0.6-1.1-1.4-2-2.3-2.6
			c-1-0.6-2-1-3.2-1h-10V430.5z"/>
	</g>
</g>
</svg>
